<svg xmlns="http://www.w3.org/2000/svg" width="70" height="32" viewBox="0 0 70 32">
  <g fill="none" fill-rule="evenodd">
    <rect width="70" height="32"/>
    <path fill="#4D68FF" fill-rule="nonzero" d="M9,0 C4.02991071,0 0,4.02991071 0,9 C0,13.9700893 4.02991071,18 9,18 C13.9700893,18 18,13.9700893 18,9 C18,4.02991071 13.9700893,0 9,0 Z M8.35714286,4.66071429 C8.35714286,4.57232143 8.42946429,4.5 8.51785714,4.5 L9.48214286,4.5 C9.57053571,4.5 9.64285714,4.57232143 9.64285714,4.66071429 L9.64285714,10.125 C9.64285714,10.2133929 9.57053571,10.2857143 9.48214286,10.2857143 L8.51785714,10.2857143 C8.42946429,10.2857143 8.35714286,10.2133929 8.35714286,10.125 L8.35714286,4.66071429 Z M9,13.5 C8.46763393,13.5 8.03571429,13.0680804 8.03571429,12.5357143 C8.03571429,12.0033482 8.46763393,11.5714286 9,11.5714286 C9.53236607,11.5714286 9.96428571,12.0033482 9.96428571,12.5357143 C9.96428571,13.0680804 9.53236607,13.5 9,13.5 Z" transform="translate(26 7)"/>
  </g>
</svg>
