<svg xmlns="http://www.w3.org/2000/svg" width="70" height="32" viewBox="0 0 70 32">
  <g fill="none" fill-rule="evenodd" transform="translate(18 6)">
    <path fill="#747E90" d="M19.9464286,17 L17.4714286,20 L14.9964286,17 L2.02857143,17 C0.924001929,17 0.0285714286,16.1045695 0.0285714286,15 L0.0285714286,2 C0.0285714286,0.8954305 0.924001929,2.02906125e-16 2.02857143,0 L32.9142857,0 C34.0188552,-2.02906125e-16 34.9142857,0.8954305 34.9142857,2 L34.9142857,15 C34.9142857,16.1045695 34.0188552,17 32.9142857,17 L19.9464286,17 Z"/>
    <path fill="#FFF" d="M12.3814732,5 L12.3814732,12.2802734 L10.4847098,12.2802734 L10.4847098,7.50976562 C10.1777886,7.7571627 9.88084686,7.95735601 9.59387556,8.11035156 C9.30690426,8.26334712 8.94704457,8.40983003 8.51428571,8.54980469 L8.51428571,6.91894531 C9.15268176,6.70084526 9.64835203,6.43880361 10.0013114,6.1328125 C10.3542707,5.82682139 10.6304957,5.449221 10.8299944,5 L12.3814732,5 Z M14.4209542,8.671875 C14.4209542,7.31119111 14.651909,6.3590522 15.1138253,5.81542969 C15.5757417,5.27180718 16.279348,5 17.2246652,5 C17.6789085,5 18.0518122,5.05940696 18.3433873,5.17822266 C18.6349624,5.29703835 18.8728227,5.4516592 19.0569754,5.64208984 C19.2411282,5.83252048 19.3861462,6.03271379 19.492034,6.24267578 C19.5979218,6.45263777 19.6830912,6.69758975 19.7475446,6.97753906 C19.8733823,7.5113959 19.9363002,8.06803096 19.9363002,8.64746094 C19.9363002,9.94629556 19.7291315,10.8968069 19.3147879,11.4990234 C18.9004444,12.10124 18.1868633,12.4023438 17.1740234,12.4023438 C16.6062193,12.4023438 16.147379,12.3063161 15.7974888,12.1142578 C15.4475987,11.9221996 15.1606317,11.6406269 14.9365792,11.2695312 C14.773911,11.0058581 14.6473079,10.6453473 14.5567662,10.1879883 C14.4662244,9.73062922 14.4209542,9.22526318 14.4209542,8.671875 Z M16.2808873,8.67675781 C16.2808873,9.5882207 16.3568491,10.2107731 16.5087751,10.5444336 C16.6607011,10.8780941 16.8809137,11.0449219 17.1694196,11.0449219 C17.3597108,11.0449219 17.5246784,10.9741218 17.6643276,10.8325195 C17.8039767,10.6909173 17.9067938,10.4671239 17.9727818,10.1611328 C18.0387699,9.8551417 18.0717634,9.37825845 18.0717634,8.73046875 C18.0717634,7.77994316 17.9958015,7.14111492 17.8438756,6.81396484 C17.6919496,6.48681477 17.464064,6.32324219 17.1602121,6.32324219 C16.8502217,6.32324219 16.6261726,6.49006995 16.488058,6.82373047 C16.3499435,7.15739099 16.2808873,7.7750606 16.2808873,8.67675781 Z M24.9590402,5 L24.9590402,12.2802734 L23.0622768,12.2802734 L23.0622768,7.50976562 C22.7553556,7.7571627 22.4584138,7.95735601 22.1714425,8.11035156 C21.8844712,8.26334712 21.5246115,8.40983003 21.0918527,8.54980469 L21.0918527,6.91894531 C21.7302487,6.70084526 22.225919,6.43880361 22.5788783,6.1328125 C22.9318377,5.82682139 23.2080626,5.449221 23.4075614,5 L24.9590402,5 Z"/>
  </g>
</svg>
