<svg xmlns="http://www.w3.org/2000/svg" width="12" height="12" viewBox="0 0 12 12">
  <g fill="none" fill-rule="evenodd">
    <rect width="12" height="12"/>
    <rect width="12" height="12" fill="#000" fill-rule="nonzero" opacity="0"/>
    <polygon fill="#CCC" fill-rule="nonzero" points="6.09 .51 1.313 3.263 1.313 8.783 6.09 11.535 10.867 8.783 10.867 3.263"/>
    <path fill="#747E90" fill-rule="nonzero" d="M6.09,11.9100649 C6.0260619,11.9111768 5.96327995,11.8928654 5.91,11.8575 L1.1325,9.0975 C1.01602441,9.03581142 0.943694144,8.91429658 0.944982611,8.7825 L0.944982611,3.2625 C0.943694144,3.13070342 1.01602441,3.00918858 1.1325,2.9475 L5.91,0.1875 C6.02327442,0.120265066 6.16422558,0.120265066 6.2775,0.1875 L11.055,2.9475 C11.1673902,3.01238159 11.2361617,3.13273162 11.2350145,3.2625 L11.2350145,8.7825 C11.2361617,8.91226838 11.1673902,9.03261841 11.055,9.0975 L6.2775,11.8575 C6.22151493,11.8930403 6.15630046,11.9113004 6.09,11.9100649 Z M1.6875,8.565 L6.09,11.115 L10.5,8.565 L10.5,3.48 L6.09,0.9375 L1.6875,3.48 L1.6875,8.565 Z"/>
    <line x1="1.313" x2="6.09" y1="3.263" y2="5.97" fill="#FFF" fill-rule="nonzero"/>
    <path fill="#747E90" fill-rule="nonzero" d="M6.09,6.33752014 C6.02618591,6.33777211 5.96366175,6.31953589 5.91,6.285 L1.1325,3.585 C1.04659818,3.53761632 0.983207532,3.45785357 0.956442479,3.36347154 C0.929677426,3.26908951 0.941760028,3.16792389 0.99,3.0825 C1.09432708,2.90598285 1.31928452,2.84312709 1.5,2.94 L6.27,5.6475 C6.41801901,5.72835407 6.49199979,5.89958431 6.44942571,6.06278497 C6.40685163,6.22598562 6.25865326,6.33925609 6.09,6.33752014 Z"/>
    <line x1="10.74" x2="5.963" y1="3.322" y2="6.022" fill="#FFF" fill-rule="nonzero"/>
    <path fill="#747E90" fill-rule="nonzero" d="M5.64057429,6.11528497 C5.59800021,5.95208431 5.67198099,5.78085407 5.82,5.7 L10.56,3 C10.6454239,2.95176003 10.7465895,2.93967743 10.8409715,2.96644248 C10.9353536,2.99320753 11.0151163,3.05659818 11.0625,3.1425 C11.1586352,3.32098237 11.095518,3.5435536 10.92,3.645 L6.1425,6.345 C6.09850003,6.36940825 6.05003796,6.38471206 6,6.39 C5.83134674,6.39175609 5.68314837,6.27848562 5.64057429,6.11528497 Z"/>
    <path fill="#747E90" fill-rule="nonzero" d="M6.09,11.73 C5.88703535,11.73 5.7225,11.5654646 5.7225,11.3625 L5.7225,5.8725 C5.7225,5.66539322 5.89039322,5.4975 6.0975,5.4975 C6.30460678,5.4975 6.47250013,5.66539322 6.47250013,5.8725 L6.47250013,11.3625 C6.47258344,11.4626225 6.43181256,11.5584447 6.35961372,11.6278122 C6.28741487,11.6971798 6.19003912,11.7340867 6.09,11.73 Z"/>
  </g>
</svg>
