<svg xmlns="http://www.w3.org/2000/svg" width="70" height="33" viewBox="0 0 70 33">
  <g fill="none" fill-rule="evenodd" transform="translate(14 8)">
    <rect width="43" height="16" fill="#F2F2F2" fill-rule="nonzero" rx="2"/>
    <g fill="#A6AAB2" transform="translate(4 2)">
      <path fill-rule="nonzero" d="M6,0 C2.68660714,0 0,2.68660714 0,6 C0,9.31339286 2.68660714,12 6,12 C9.31339286,12 12,9.31339286 12,6 C12,2.68660714 9.31339286,0 6,0 Z M6,10.9821429 C3.24910714,10.9821429 1.01785714,8.75089286 1.01785714,6 C1.01785714,3.24910714 3.24910714,1.01785714 6,1.01785714 C8.75089286,1.01785714 10.9821429,3.24910714 10.9821429,6 C10.9821429,8.75089286 8.75089286,10.9821429 6,10.9821429 Z"/>
      <path d="M8.33973214,7.69553571 L6.42991071,6.31473214 L6.42991071,3 C6.42991071,2.94107143 6.38169643,2.89285714 6.32276786,2.89285714 L5.67857143,2.89285714 C5.61964286,2.89285714 5.57142857,2.94107143 5.57142857,3 L5.57142857,6.68839286 C5.57142857,6.72321429 5.5875,6.75535714 5.615625,6.77544643 L7.83080357,8.390625 C7.87901786,8.42544643 7.94598214,8.41473214 7.98080357,8.36785714 L8.36383929,7.84553571 C8.39866071,7.79598214 8.38794643,7.72901786 8.33973214,7.69553571 Z"/>
    </g>
    <rect width="5" height="8" x="19" y="4" fill="#A6AAB2" fill-rule="nonzero" rx="1"/>
    <rect width="5" height="8" x="26" y="4" fill="#A6AAB2" fill-rule="nonzero" rx="1"/>
    <rect width="5" height="8" x="33" y="4" fill="#A6AAB2" fill-rule="nonzero" rx="1"/>
  </g>
</svg>
