<svg xmlns="http://www.w3.org/2000/svg" width="70" height="32" viewBox="0 0 70 32">
  <g fill="none" fill-rule="evenodd">
    <rect width="36" height="20" x="17" y="6" fill="#4D63FF" opacity=".2" rx="2"/>
    <path fill="#FFF" d="M27.244,19.78 L27.244,13.672 C27.244,13.5599994 27.2280002,13.4620004 27.196,13.378 C27.1639998,13.2939996 27.1240002,13.252 27.076,13.252 C27.0279998,13.252 26.9880002,13.2100004 26.956,13.126 C26.9239998,13.0419996 26.908,12.9440006 26.908,12.832 L26.908,12.568 C26.908,12.4479994 26.9359997,12.3460004 26.992,12.262 C27.0480003,12.1779996 27.1119996,12.136 27.184,12.136 L27.952,12.136 C28.0640006,12.136 28.1599996,12.1779996 28.24,12.262 C28.3200004,12.3460004 28.36,12.4479994 28.36,12.568 L28.36,18.628 C28.36,18.7320005 28.3899997,18.8539993 28.45,18.994 C28.5100003,19.1340007 28.5759996,19.2399996 28.648,19.312 C28.7200004,19.3760003 28.7859997,19.3960001 28.846,19.372 C28.9060003,19.3479999 28.936,19.2800006 28.936,19.168 L28.936,19 C28.936,18.8799994 28.9759996,18.7780004 29.056,18.694 C29.1360004,18.6099996 29.2319994,18.568 29.344,18.568 L29.464,18.568 C29.5760006,18.568 29.6739996,18.5280004 29.758,18.448 C29.8420004,18.3679996 29.884,18.2680006 29.884,18.148 L29.884,16.264 C29.884,16.1439994 29.8420004,16.0440004 29.758,15.964 C29.6739996,15.8839996 29.5760006,15.844 29.464,15.844 L29.344,15.844 C29.2319994,15.844 29.1360004,15.8020004 29.056,15.718 C28.9759996,15.6339996 28.936,15.5400005 28.936,15.436 L28.936,15.148 C28.936,15.0279994 28.9759996,14.9280004 29.056,14.848 C29.1360004,14.7679996 29.2319994,14.728 29.344,14.728 L31.24,14.728 C31.3520006,14.728 31.4499996,14.6860004 31.534,14.602 C31.6180004,14.5179996 31.66,14.4160006 31.66,14.296 L31.66,13.288 C31.66,13.1679994 31.6180004,13.0680004 31.534,12.988 C31.4499996,12.9079996 31.3520006,12.868 31.24,12.868 L30.232,12.868 C30.1119994,12.868 29.9800007,12.8420003 29.836,12.79 C29.6919993,12.7379997 29.5760004,12.6680004 29.488,12.58 L29.248,12.376 C29.1599996,12.2959996 29.0860003,12.1860007 29.026,12.046 C28.9659997,11.9059993 28.936,11.7800006 28.936,11.668 L28.936,10.84 C28.936,10.7199994 28.9759996,10.6180004 29.056,10.534 C29.1360004,10.4499996 29.2319994,10.408 29.344,10.408 L29.62,10.408 C29.7320006,10.408 29.8299996,10.4499996 29.914,10.534 C29.9980004,10.6180004 30.04,10.7199994 30.04,10.84 L30.04,11.332 C30.04,11.4440006 30.0819996,11.5439996 30.166,11.632 C30.2500004,11.7200004 30.3519994,11.764 30.472,11.764 L31.24,11.764 C31.3520006,11.764 31.4499996,11.7200004 31.534,11.632 C31.6180004,11.5439996 31.66,11.4440006 31.66,11.332 L31.66,10.612 C31.66,10.4919994 31.7019996,10.3920004 31.786,10.312 C31.8700004,10.2319996 31.9679994,10.192 32.08,10.192 L32.356,10.192 C32.4680006,10.192 32.5679996,10.2319996 32.656,10.312 C32.7440004,10.3920004 32.788,10.4919994 32.788,10.612 L32.788,11.332 C32.788,11.4440006 32.8279996,11.5439996 32.908,11.632 C32.9880004,11.7200004 33.0919994,11.764 33.22,11.764 L34.528,11.764 C34.6560006,11.764 34.7599996,11.8039996 34.84,11.884 C34.9200004,11.9640004 34.96,12.0599994 34.96,12.172 L34.96,12.448 C34.96,12.5600006 34.9200004,12.6579996 34.84,12.742 C34.7599996,12.8260004 34.6560006,12.868 34.528,12.868 L33.22,12.868 C33.0919994,12.868 32.9880004,12.9079996 32.908,12.988 C32.8279996,13.0680004 32.788,13.1679994 32.788,13.288 L32.788,14.296 C32.788,14.4160006 32.8279996,14.5179996 32.908,14.602 C32.9880004,14.6860004 33.0919994,14.728 33.22,14.728 L34.528,14.728 C34.6560006,14.728 34.7599996,14.7679996 34.84,14.848 C34.9200004,14.9280004 34.96,15.0279994 34.96,15.148 L34.96,15.436 C34.96,15.5400005 34.9200004,15.6339996 34.84,15.718 C34.7599996,15.8020004 34.6560006,15.844 34.528,15.844 L34.408,15.844 C34.2879994,15.844 34.1880004,15.8839996 34.108,15.964 C34.0279996,16.0440004 33.988,16.1439994 33.988,16.264 L33.988,18.148 C33.988,18.2680006 34.0279996,18.3679996 34.108,18.448 C34.1880004,18.5280004 34.2879994,18.568 34.408,18.568 L34.528,18.568 C34.6560006,18.568 34.7599996,18.6099996 34.84,18.694 C34.9200004,18.7780004 34.96,18.8799994 34.96,19 L34.96,19.264 C34.96,19.3840006 34.9200004,19.4859996 34.84,19.57 C34.7599996,19.6540004 34.6560006,19.696 34.528,19.696 L34.192,19.696 C34.0799994,19.696 33.9520007,19.6660003 33.808,19.606 C33.6639993,19.5459997 33.5480004,19.4720004 33.46,19.384 L33.16,19.084 C33.0799996,19.0039996 33.0120003,18.8960007 32.956,18.76 C32.8999997,18.6239993 32.872,18.4960006 32.872,18.376 L32.872,16.264 C32.872,16.1439994 32.8300004,16.0440004 32.746,15.964 C32.6619996,15.8839996 32.5640006,15.844 32.452,15.844 L31.42,15.844 C31.3079994,15.844 31.2080004,15.8839996 31.12,15.964 C31.0319996,16.0440004 30.988,16.1439994 30.988,16.264 L30.988,18.376 C30.988,18.4960006 30.9600003,18.6239993 30.904,18.76 C30.8479997,18.8960007 30.7800004,19.0039996 30.7,19.084 L30.4,19.384 C30.3119996,19.4720004 30.2000007,19.5459997 30.064,19.606 C29.9279993,19.6660003 29.8000006,19.696 29.68,19.696 L29.452,19.696 C29.3319994,19.696 29.2520002,19.7139998 29.212,19.75 C29.1719998,19.7860002 29.1799997,19.8359997 29.236,19.9 C29.3000003,19.9480002 29.3899994,19.9919998 29.506,20.032 C29.6220006,20.0720002 29.7399994,20.092 29.86,20.092 L34.528,20.092 C34.6560006,20.092 34.7599996,20.1319996 34.84,20.212 C34.9200004,20.2920004 34.96,20.3919994 34.96,20.512 L34.96,20.788 C34.96,20.9000006 34.9200004,20.9979996 34.84,21.082 C34.7599996,21.1660004 34.6560006,21.208 34.528,21.208 L29.524,21.208 C29.4119994,21.208 29.2840007,21.1800003 29.14,21.124 C28.9959993,21.0679997 28.8800004,21.0000004 28.792,20.92 L28.576,20.716 C28.4879996,20.6279996 28.3840006,20.584 28.264,20.584 C28.1439994,20.584 28.0400004,20.6279996 27.952,20.716 L27.784,20.908 C27.6959996,20.9960004 27.5960006,21.0679997 27.484,21.124 C27.3719994,21.1800003 27.2720004,21.208 27.184,21.208 C27.1119996,21.208 27.0480003,21.1660004 26.992,21.082 C26.9359997,20.9979996 26.908,20.9000006 26.908,20.788 L26.908,20.512 C26.908,20.3919994 26.9239998,20.2920004 26.956,20.212 C26.9880002,20.1319996 27.0279998,20.092 27.076,20.092 C27.1240002,20.092 27.1639998,20.0600003 27.196,19.996 C27.2280002,19.9319997 27.244,19.8600004 27.244,19.78 Z M27.196,11.236 C27.1159996,11.1479996 27.076,11.0460006 27.076,10.93 C27.076,10.8139994 27.1159996,10.7120004 27.196,10.624 L27.4,10.444 C27.4800004,10.3559996 27.5799994,10.312 27.7,10.312 C27.8200006,10.312 27.9159996,10.3559996 27.988,10.444 L28.18,10.624 C28.2680004,10.7120004 28.312,10.8139994 28.312,10.93 C28.312,11.0460006 28.2680004,11.1479996 28.18,11.236 L27.988,11.416 C27.9079996,11.5040004 27.8100006,11.548 27.694,11.548 C27.5779994,11.548 27.4800004,11.5040004 27.4,11.416 L27.196,11.236 Z M42.532,11.296 C42.4199994,11.296 42.3240004,11.3379996 42.244,11.422 C42.1639996,11.5060004 42.124,11.6039994 42.124,11.716 L42.124,11.848 C42.124,11.9680006 42.1639996,12.0679996 42.244,12.148 C42.3240004,12.2280004 42.4199994,12.268 42.532,12.268 L43.684,12.268 C43.7960006,12.268 43.8919996,12.3079996 43.972,12.388 C44.0520004,12.4680004 44.092,12.5679994 44.092,12.688 L44.092,18.496 C44.092,18.6160006 44.0520004,18.7159996 43.972,18.796 C43.8919996,18.8760004 43.7960006,18.916 43.684,18.916 L43.408,18.916 C43.2879994,18.916 43.1860004,18.8760004 43.102,18.796 C43.0179996,18.7159996 42.976,18.6160006 42.976,18.496 L42.976,13.804 C42.976,13.6839994 42.9360004,13.5840004 42.856,13.504 C42.7759996,13.4239996 42.6760006,13.384 42.556,13.384 L40.576,13.384 C40.4639994,13.384 40.3660004,13.4239996 40.282,13.504 C40.1979996,13.5840004 40.156,13.6839994 40.156,13.804 L40.156,18.496 C40.156,18.6160006 40.1160004,18.7159996 40.036,18.796 C39.9559996,18.8760004 39.8600006,18.916 39.748,18.916 L39.472,18.916 C39.3519994,18.916 39.2520004,18.8760004 39.172,18.796 C39.0919996,18.7159996 39.052,18.6160006 39.052,18.496 L39.052,12.688 C39.052,12.5679994 39.0919996,12.4680004 39.172,12.388 C39.2520004,12.3079996 39.3519994,12.268 39.472,12.268 L40.588,12.268 C40.7080006,12.268 40.8079996,12.2280004 40.888,12.148 C40.9680004,12.0679996 41.008,11.9680006 41.008,11.848 L41.008,11.716 C41.008,11.6039994 40.9680004,11.5060004 40.888,11.422 C40.8079996,11.3379996 40.7080006,11.296 40.588,11.296 L39.472,11.296 C39.3519994,11.296 39.2520004,11.2560004 39.172,11.176 C39.0919996,11.0959996 39.052,10.9960006 39.052,10.876 L39.052,10.6 C39.052,10.4879994 39.0919996,10.3920004 39.172,10.312 C39.2520004,10.2319996 39.3519994,10.192 39.472,10.192 L43.684,10.192 C43.7960006,10.192 43.8919996,10.2319996 43.972,10.312 C44.0520004,10.3920004 44.092,10.4879994 44.092,10.6 L44.092,10.876 C44.092,10.9960006 44.0520004,11.0959996 43.972,11.176 C43.8919996,11.2560004 43.7960006,11.296 43.684,11.296 L42.532,11.296 Z M38.668,11.188 C38.5959996,11.2680004 38.5040006,11.308 38.392,11.308 C38.2799994,11.308 38.1860004,11.3479996 38.11,11.428 C38.0339996,11.5080004 37.996,11.6079994 37.996,11.728 L37.996,19.672 C37.996,19.7920006 38.0339996,19.8919996 38.11,19.972 C38.1860004,20.0520004 38.2799994,20.092 38.392,20.092 C38.5040006,20.092 38.5979996,20.1319996 38.674,20.212 C38.7500004,20.2920004 38.788,20.3919994 38.788,20.512 L38.788,20.788 C38.788,20.9000006 38.7460004,20.9979996 38.662,21.082 C38.5779996,21.1660004 38.4800006,21.208 38.368,21.208 L36.496,21.208 C36.3839994,21.208 36.2880004,21.1660004 36.208,21.082 C36.1279996,20.9979996 36.088,20.9000006 36.088,20.788 L36.088,20.512 C36.088,20.3919994 36.1259996,20.2920004 36.202,20.212 C36.2780004,20.1319996 36.3719994,20.092 36.484,20.092 C36.5960006,20.092 36.6919996,20.0520004 36.772,19.972 C36.8520004,19.8919996 36.892,19.7920006 36.892,19.672 L36.892,11.728 C36.892,11.6079994 36.8520004,11.5080004 36.772,11.428 C36.6919996,11.3479996 36.5960006,11.308 36.484,11.308 C36.3719994,11.308 36.2780004,11.2680004 36.202,11.188 C36.1259996,11.1079996 36.088,11.0120006 36.088,10.9 L36.088,10.612 C36.088,10.4999994 36.1279996,10.4020004 36.208,10.318 C36.2880004,10.2339996 36.3839994,10.192 36.496,10.192 L38.368,10.192 C38.4800006,10.192 38.5779996,10.2339996 38.662,10.318 C38.7460004,10.4020004 38.788,10.4999994 38.788,10.612 L38.788,10.9 C38.788,11.0120006 38.7480004,11.1079996 38.668,11.188 Z M40.828,20.836 C40.7639997,20.9400005 40.6720006,21.0279996 40.552,21.1 C40.4319994,21.1720004 40.3160006,21.208 40.204,21.208 L39.472,21.208 C39.3519994,21.208 39.2520004,21.1660004 39.172,21.082 C39.0919996,20.9979996 39.052,20.9000006 39.052,20.788 L39.052,20.512 C39.052,20.3919994 39.0919996,20.2920004 39.172,20.212 C39.2520004,20.1319996 39.3519994,20.092 39.472,20.092 L39.58,20.092 C39.6920006,20.092 39.8099994,20.0560004 39.934,19.984 C40.0580006,19.9119996 40.1519997,19.8240005 40.216,19.72 L40.804,18.652 C40.8680003,18.5479995 40.9179998,18.4180008 40.954,18.262 C40.9900002,18.1059992 41.008,17.9720006 41.008,17.86 L41.008,14.608 C41.008,14.4879994 41.0499996,14.3880004 41.134,14.308 C41.2180004,14.2279996 41.3159994,14.188 41.428,14.188 L41.704,14.188 C41.8160006,14.188 41.9139996,14.2279996 41.998,14.308 C42.0820004,14.3880004 42.124,14.4879994 42.124,14.608 L42.124,17.848 C42.124,17.9600006 42.1419998,18.0919992 42.178,18.244 C42.2140002,18.3960008 42.2639997,18.5239995 42.328,18.628 L42.928,19.72 C42.9920003,19.8240005 43.0839994,19.9119996 43.204,19.984 C43.3240006,20.0560004 43.4399994,20.092 43.552,20.092 L43.684,20.092 C43.7960006,20.092 43.8919996,20.1319996 43.972,20.212 C44.0520004,20.2920004 44.092,20.3919994 44.092,20.512 L44.092,20.788 C44.092,20.9000006 44.0520004,20.9979996 43.972,21.082 C43.8919996,21.1660004 43.7960006,21.208 43.684,21.208 L42.94,21.208 C42.8279994,21.208 42.7080006,21.1720004 42.58,21.1 C42.4519994,21.0279996 42.3600003,20.9400005 42.304,20.836 L41.788,19.924 C41.7239997,19.8199995 41.6520004,19.768 41.572,19.768 C41.4919996,19.768 41.4200003,19.8199995 41.356,19.924 L40.828,20.836 Z"/>
  </g>
</svg>
