<svg xmlns="http://www.w3.org/2000/svg" width="70" height="32" viewBox="0 0 70 32">
  <g fill="none" fill-rule="evenodd" transform="translate(18 6)">
    <rect width="33" height="19" x=".5" y=".5" fill="#FFF" fill-rule="nonzero" stroke="#CCC" rx="2"/>
    <path fill="#747E90" d="M11.27525,11.9511111 L11.27525,13.2177778 L10.20425,13.4844444 L10.20425,15.7911111 L9.03125,15.7911111 L9.03125,13.7377778 C7.75625,14.0044444 6.443,14.2444444 5.07875,14.4577778 L4.7855,13.2177778 L5.8565,13.0844444 L5.8565,5.13777778 L4.9385,5.13777778 L4.9385,3.95111111 L11.084,3.95111111 L11.084,4.68444444 L16.082,4.68444444 L16.082,5.84444444 C15.8015,8.23111111 15.25325,10.2711111 14.4245,11.9777778 C15.011,13.0177778 15.73775,13.9644444 16.592,14.8177778 L15.776,15.7911111 C14.9855,14.9377778 14.3225,14.0577778 13.77425,13.1511111 C13.11125,14.1777778 12.34625,15.0577778 11.45375,15.7911111 L10.625,14.8044444 C11.6195,13.9911111 12.4355,13.0177778 13.08575,11.8977778 C12.19325,10.0577778 11.65775,8.05777778 11.492,5.89777778 L10.982,5.89777778 L10.982,5.13777778 L10.20425,5.13777778 L10.20425,12.2311111 C10.574,12.1377778 10.931,12.0444444 11.27525,11.9511111 Z M12.60125,5.89777778 C12.75425,7.61777778 13.124,9.19111111 13.736,10.6177778 C14.3225,9.23111111 14.7305,7.65777778 14.94725,5.89777778 L12.60125,5.89777778 Z M9.03125,12.5111111 L9.03125,10.9377778 L7.04225,10.9377778 L7.04225,12.8977778 C7.718,12.7777778 8.381,12.6444444 9.03125,12.5111111 Z M7.04225,9.80444444 L9.03125,9.80444444 L9.03125,8.04444444 L7.04225,8.04444444 L7.04225,9.80444444 Z M7.04225,6.89777778 L9.03125,6.89777778 L9.03125,5.13777778 L7.04225,5.13777778 L7.04225,6.89777778 Z M24.45875,3.55111111 L25.68275,3.55111111 L25.68275,7.11111111 L28.38575,7.11111111 L28.38575,14.2044444 C28.38575,15.2044444 27.92675,15.7111111 27.00875,15.7111111 L25.5935,15.7111111 L25.27475,14.4844444 L26.6135,14.5244444 C26.98325,14.5244444 27.1745,14.3244444 27.1745,13.9244444 L27.1745,12.9377778 L23.00525,12.9377778 L23.00525,15.7377778 L21.78125,15.7377778 L21.78125,7.11111111 L24.45875,7.11111111 L24.45875,3.55111111 Z M23.00525,10.6444444 L23.00525,11.8577778 L27.1745,11.8577778 L27.1745,10.6444444 L23.00525,10.6444444 Z M27.1745,9.56444444 L27.1745,8.33777778 L23.00525,8.33777778 L23.00525,9.56444444 L27.1745,9.56444444 Z M22.1765,3.85777778 C22.6355,4.53777778 23.08175,5.28444444 23.51525,6.09777778 L22.559,6.59111111 C22.1255,5.76444444 21.6665,5.03111111 21.16925,4.36444444 L22.1765,3.85777778 Z M27.914,3.84444444 L28.89575,4.33777778 C28.53875,5.16444444 28.05425,5.96444444 27.46775,6.73777778 L26.537,6.21777778 C27.1235,5.41777778 27.5825,4.63111111 27.914,3.84444444 Z M19.81775,10.4177778 L20.88875,10.8444444 C20.27675,12.5511111 19.58825,14.1644444 18.84875,15.6711111 L17.72675,15.1511111 C18.51725,13.6044444 19.2185,12.0311111 19.81775,10.4177778 Z M18.82325,3.64444444 C19.703,4.31111111 20.4425,4.96444444 21.0545,5.63111111 L20.1875,6.53777778 C19.652,5.91111111 18.9125,5.24444444 17.95625,4.52444444 L18.82325,3.64444444 Z M18.46625,6.76444444 C19.295,7.43111111 19.99625,8.09777778 20.55725,8.76444444 L19.703,9.67111111 C19.193,9.05777778 18.49175,8.37777778 17.59925,7.64444444 L18.46625,6.76444444 Z"/>
  </g>
</svg>
