<svg xmlns="http://www.w3.org/2000/svg" width="70" height="32" viewBox="0 0 70 32">
  <g fill="none" fill-rule="evenodd">
    <rect width="34" height="20" fill="#4D68FF" fill-rule="nonzero" rx="2" transform="translate(18 6)"/>
    <path fill="#FFF" d="M29.4341833,16.4341833 L29.4341833,17.7110057 L30.6233806,17.7110057 L30.6233806,16.4341833 L29.4341833,16.4341833 Z M29.3465583,18.8250958 C29.1963439,19.9517038 28.8458436,20.9030616 28.3075753,21.6791693 L27.3562175,20.8279544 C27.9195215,20.0017752 28.2074324,18.9502745 28.2324682,17.6734521 L28.2324682,13.8680207 C28.1323252,13.9681636 28.0196644,14.0557887 27.9195215,14.1434138 L27.118378,13.1795381 C28.0196644,12.4535018 28.80829,11.4270368 29.4842548,10.1001429 L30.7485593,10.3880539 C30.6484164,10.5883397 30.5607913,10.7635898 30.4606484,10.93884 L33.3522755,10.93884 L33.3522755,11.8526442 C33.0393288,12.2782517 32.7263822,12.6537877 32.4134355,12.9792522 L34.2911155,12.9792522 L34.2911155,20.6026328 C34.2911155,21.241044 33.9155795,21.5665085 33.1770254,21.5665085 L32.3383283,21.5665085 L32.0253817,20.3898291 C32.3007747,20.4273827 32.5636499,20.4524184 32.8140073,20.4524184 C32.9892574,20.4524184 33.0768824,20.3522755 33.0768824,20.1770254 L33.0768824,18.8250958 L31.8125779,18.8250958 L31.8125779,21.4788835 L30.6233806,21.4788835 L30.6233806,18.8250958 L29.3465583,18.8250958 Z M31.0114345,12.9792522 C31.2868276,12.7038591 31.5497027,12.3783946 31.8250958,12.0278944 L29.8097193,12.0278944 C29.5718799,12.3658767 29.3340404,12.6788234 29.0962009,12.9792522 L31.0114345,12.9792522 Z M33.0768824,17.7110057 L33.0768824,16.4341833 L31.8125779,16.4341833 L31.8125779,17.7110057 L33.0768824,17.7110057 Z M33.0768824,15.3075753 L33.0768824,14.118378 L31.8125779,14.118378 L31.8125779,15.3075753 L33.0768824,15.3075753 Z M30.6233806,14.118378 L29.4341833,14.118378 L29.4341833,15.3075753 L30.6233806,15.3075753 L30.6233806,14.118378 Z M23.4130896,10.6884827 L27.7067178,10.6884827 L27.7067178,11.9402693 L25.9291807,11.9402693 C25.7789663,12.8165199 25.5786805,13.6301813 25.3283231,14.406289 L27.4688783,14.406289 L27.4688783,20.4774542 L25.4159482,20.4774542 L25.4159482,21.2911155 L24.1891973,21.2911155 L24.1891973,16.9223801 C24.0389829,17.1602196 23.9012864,17.3855412 23.751072,17.6108628 L23,16.3966297 C23.8136613,15.0697359 24.3644474,13.5801098 24.6523584,11.9402693 L23.4130896,11.9402693 L23.4130896,10.6884827 Z M25.4159482,19.2882569 L26.2921989,19.2882569 L26.2921989,15.6080041 L25.4159482,15.6080041 L25.4159482,19.2882569 Z M37.6959751,13.7052885 L45.1566235,13.7052885 L45.1566235,14.9320394 L42.1272998,14.9320394 L42.1272998,16.6845407 L45.6823739,16.6845407 L45.6823739,17.9112916 L42.1272998,17.9112916 L42.1272998,20.114436 C42.9785148,20.2396147 44.0174977,20.302204 45.2442486,20.3147219 C45.8701419,20.3147219 46.5085531,20.2771683 47.172,20.214579 L46.9091248,21.5039192 L45.8200704,21.5039192 C43.141247,21.5039192 41.2385313,21.2660798 40.0868876,20.7904008 C39.3107799,20.4273827 38.6598509,19.8891144 38.1466183,19.1881139 C37.6709394,20.1770254 37.0951176,21.0032046 36.4066349,21.6791693 L35.5679379,20.6276686 C36.7320994,19.4259534 37.520725,17.8111486 37.9212967,15.7832543 L39.1856012,16.0085759 C39.0353868,16.7220943 38.8601367,17.3855412 38.6348151,18.0114345 C39.210637,18.9502745 39.9366732,19.5511321 40.8129239,19.8265251 L40.8254417,19.8265251 L40.8254417,14.9320394 L37.6959751,14.9320394 L37.6959751,13.7052885 Z M46.7088389,11.2643045 L46.7088389,14.1684495 L45.4320166,14.1684495 L45.4320166,12.4660197 L37.3955463,12.4660197 L37.3955463,14.2310388 L36.118724,14.2310388 L36.118724,11.2643045 L40.7878881,11.2643045 C40.612638,10.8887685 40.4373879,10.5382683 40.237102,10.2253216 L41.6391031,10 C41.8143532,10.375536 41.9770854,10.8011434 42.1398177,11.2643045 L46.7088389,11.2643045 Z"/>
  </g>
</svg>
