<svg xmlns="http://www.w3.org/2000/svg" width="70" height="32" viewBox="0 0 70 32">
  <g fill="none" fill-rule="evenodd">
    <path fill="#CCC" fill-rule="nonzero" d="M18,7 C17.4477153,7 17,7.44771525 17,8 L17,24 C17,24.5522847 17.4477153,25 18,25 L50,25 C50.5522847,25 51,24.5522847 51,24 L51,8 C51,7.44771525 50.5522847,7 50,7 L18,7 Z M18,5 L50,5 C51.6568542,5 53,6.34314575 53,8 L53,24 C53,25.6568542 51.6568542,27 50,27 L18,27 C16.3431458,27 15,25.6568542 15,24 L15,8 C15,6.34314575 16.3431458,5 18,5 Z"/>
    <path fill="#A6AAB2" d="M26.244,19.78 L26.244,13.672 C26.244,13.5599994 26.2280002,13.4620004 26.196,13.378 C26.1639998,13.2939996 26.1240002,13.252 26.076,13.252 C26.0279998,13.252 25.9880002,13.2100004 25.956,13.126 C25.9239998,13.0419996 25.908,12.9440006 25.908,12.832 L25.908,12.568 C25.908,12.4479994 25.9359997,12.3460004 25.992,12.262 C26.0480003,12.1779996 26.1119996,12.136 26.184,12.136 L26.952,12.136 C27.0640006,12.136 27.1599996,12.1779996 27.24,12.262 C27.3200004,12.3460004 27.36,12.4479994 27.36,12.568 L27.36,18.628 C27.36,18.7320005 27.3899997,18.8539993 27.45,18.994 C27.5100003,19.1340007 27.5759996,19.2399996 27.648,19.312 C27.7200004,19.3760003 27.7859997,19.3960001 27.846,19.372 C27.9060003,19.3479999 27.936,19.2800006 27.936,19.168 L27.936,19 C27.936,18.8799994 27.9759996,18.7780004 28.056,18.694 C28.1360004,18.6099996 28.2319994,18.568 28.344,18.568 L28.464,18.568 C28.5760006,18.568 28.6739996,18.5280004 28.758,18.448 C28.8420004,18.3679996 28.884,18.2680006 28.884,18.148 L28.884,16.264 C28.884,16.1439994 28.8420004,16.0440004 28.758,15.964 C28.6739996,15.8839996 28.5760006,15.844 28.464,15.844 L28.344,15.844 C28.2319994,15.844 28.1360004,15.8020004 28.056,15.718 C27.9759996,15.6339996 27.936,15.5400005 27.936,15.436 L27.936,15.148 C27.936,15.0279994 27.9759996,14.9280004 28.056,14.848 C28.1360004,14.7679996 28.2319994,14.728 28.344,14.728 L30.24,14.728 C30.3520006,14.728 30.4499996,14.6860004 30.534,14.602 C30.6180004,14.5179996 30.66,14.4160006 30.66,14.296 L30.66,13.288 C30.66,13.1679994 30.6180004,13.0680004 30.534,12.988 C30.4499996,12.9079996 30.3520006,12.868 30.24,12.868 L29.232,12.868 C29.1119994,12.868 28.9800007,12.8420003 28.836,12.79 C28.6919993,12.7379997 28.5760004,12.6680004 28.488,12.58 L28.248,12.376 C28.1599996,12.2959996 28.0860003,12.1860007 28.026,12.046 C27.9659997,11.9059993 27.936,11.7800006 27.936,11.668 L27.936,10.84 C27.936,10.7199994 27.9759996,10.6180004 28.056,10.534 C28.1360004,10.4499996 28.2319994,10.408 28.344,10.408 L28.62,10.408 C28.7320006,10.408 28.8299996,10.4499996 28.914,10.534 C28.9980004,10.6180004 29.04,10.7199994 29.04,10.84 L29.04,11.332 C29.04,11.4440006 29.0819996,11.5439996 29.166,11.632 C29.2500004,11.7200004 29.3519994,11.764 29.472,11.764 L30.24,11.764 C30.3520006,11.764 30.4499996,11.7200004 30.534,11.632 C30.6180004,11.5439996 30.66,11.4440006 30.66,11.332 L30.66,10.612 C30.66,10.4919994 30.7019996,10.3920004 30.786,10.312 C30.8700004,10.2319996 30.9679994,10.192 31.08,10.192 L31.356,10.192 C31.4680006,10.192 31.5679996,10.2319996 31.656,10.312 C31.7440004,10.3920004 31.788,10.4919994 31.788,10.612 L31.788,11.332 C31.788,11.4440006 31.8279996,11.5439996 31.908,11.632 C31.9880004,11.7200004 32.0919994,11.764 32.22,11.764 L33.528,11.764 C33.6560006,11.764 33.7599996,11.8039996 33.84,11.884 C33.9200004,11.9640004 33.96,12.0599994 33.96,12.172 L33.96,12.448 C33.96,12.5600006 33.9200004,12.6579996 33.84,12.742 C33.7599996,12.8260004 33.6560006,12.868 33.528,12.868 L32.22,12.868 C32.0919994,12.868 31.9880004,12.9079996 31.908,12.988 C31.8279996,13.0680004 31.788,13.1679994 31.788,13.288 L31.788,14.296 C31.788,14.4160006 31.8279996,14.5179996 31.908,14.602 C31.9880004,14.6860004 32.0919994,14.728 32.22,14.728 L33.528,14.728 C33.6560006,14.728 33.7599996,14.7679996 33.84,14.848 C33.9200004,14.9280004 33.96,15.0279994 33.96,15.148 L33.96,15.436 C33.96,15.5400005 33.9200004,15.6339996 33.84,15.718 C33.7599996,15.8020004 33.6560006,15.844 33.528,15.844 L33.408,15.844 C33.2879994,15.844 33.1880004,15.8839996 33.108,15.964 C33.0279996,16.0440004 32.988,16.1439994 32.988,16.264 L32.988,18.148 C32.988,18.2680006 33.0279996,18.3679996 33.108,18.448 C33.1880004,18.5280004 33.2879994,18.568 33.408,18.568 L33.528,18.568 C33.6560006,18.568 33.7599996,18.6099996 33.84,18.694 C33.9200004,18.7780004 33.96,18.8799994 33.96,19 L33.96,19.264 C33.96,19.3840006 33.9200004,19.4859996 33.84,19.57 C33.7599996,19.6540004 33.6560006,19.696 33.528,19.696 L33.192,19.696 C33.0799994,19.696 32.9520007,19.6660003 32.808,19.606 C32.6639993,19.5459997 32.5480004,19.4720004 32.46,19.384 L32.16,19.084 C32.0799996,19.0039996 32.0120003,18.8960007 31.956,18.76 C31.8999997,18.6239993 31.872,18.4960006 31.872,18.376 L31.872,16.264 C31.872,16.1439994 31.8300004,16.0440004 31.746,15.964 C31.6619996,15.8839996 31.5640006,15.844 31.452,15.844 L30.42,15.844 C30.3079994,15.844 30.2080004,15.8839996 30.12,15.964 C30.0319996,16.0440004 29.988,16.1439994 29.988,16.264 L29.988,18.376 C29.988,18.4960006 29.9600003,18.6239993 29.904,18.76 C29.8479997,18.8960007 29.7800004,19.0039996 29.7,19.084 L29.4,19.384 C29.3119996,19.4720004 29.2000007,19.5459997 29.064,19.606 C28.9279993,19.6660003 28.8000006,19.696 28.68,19.696 L28.452,19.696 C28.3319994,19.696 28.2520002,19.7139998 28.212,19.75 C28.1719998,19.7860002 28.1799997,19.8359997 28.236,19.9 C28.3000003,19.9480002 28.3899994,19.9919998 28.506,20.032 C28.6220006,20.0720002 28.7399994,20.092 28.86,20.092 L33.528,20.092 C33.6560006,20.092 33.7599996,20.1319996 33.84,20.212 C33.9200004,20.2920004 33.96,20.3919994 33.96,20.512 L33.96,20.788 C33.96,20.9000006 33.9200004,20.9979996 33.84,21.082 C33.7599996,21.1660004 33.6560006,21.208 33.528,21.208 L28.524,21.208 C28.4119994,21.208 28.2840007,21.1800003 28.14,21.124 C27.9959993,21.0679997 27.8800004,21.0000004 27.792,20.92 L27.576,20.716 C27.4879996,20.6279996 27.3840006,20.584 27.264,20.584 C27.1439994,20.584 27.0400004,20.6279996 26.952,20.716 L26.784,20.908 C26.6959996,20.9960004 26.5960006,21.0679997 26.484,21.124 C26.3719994,21.1800003 26.2720004,21.208 26.184,21.208 C26.1119996,21.208 26.0480003,21.1660004 25.992,21.082 C25.9359997,20.9979996 25.908,20.9000006 25.908,20.788 L25.908,20.512 C25.908,20.3919994 25.9239998,20.2920004 25.956,20.212 C25.9880002,20.1319996 26.0279998,20.092 26.076,20.092 C26.1240002,20.092 26.1639998,20.0600003 26.196,19.996 C26.2280002,19.9319997 26.244,19.8600004 26.244,19.78 Z M26.196,11.236 C26.1159996,11.1479996 26.076,11.0460006 26.076,10.93 C26.076,10.8139994 26.1159996,10.7120004 26.196,10.624 L26.4,10.444 C26.4800004,10.3559996 26.5799994,10.312 26.7,10.312 C26.8200006,10.312 26.9159996,10.3559996 26.988,10.444 L27.18,10.624 C27.2680004,10.7120004 27.312,10.8139994 27.312,10.93 C27.312,11.0460006 27.2680004,11.1479996 27.18,11.236 L26.988,11.416 C26.9079996,11.5040004 26.8100006,11.548 26.694,11.548 C26.5779994,11.548 26.4800004,11.5040004 26.4,11.416 L26.196,11.236 Z M41.532,11.296 C41.4199994,11.296 41.3240004,11.3379996 41.244,11.422 C41.1639996,11.5060004 41.124,11.6039994 41.124,11.716 L41.124,11.848 C41.124,11.9680006 41.1639996,12.0679996 41.244,12.148 C41.3240004,12.2280004 41.4199994,12.268 41.532,12.268 L42.684,12.268 C42.7960006,12.268 42.8919996,12.3079996 42.972,12.388 C43.0520004,12.4680004 43.092,12.5679994 43.092,12.688 L43.092,18.496 C43.092,18.6160006 43.0520004,18.7159996 42.972,18.796 C42.8919996,18.8760004 42.7960006,18.916 42.684,18.916 L42.408,18.916 C42.2879994,18.916 42.1860004,18.8760004 42.102,18.796 C42.0179996,18.7159996 41.976,18.6160006 41.976,18.496 L41.976,13.804 C41.976,13.6839994 41.9360004,13.5840004 41.856,13.504 C41.7759996,13.4239996 41.6760006,13.384 41.556,13.384 L39.576,13.384 C39.4639994,13.384 39.3660004,13.4239996 39.282,13.504 C39.1979996,13.5840004 39.156,13.6839994 39.156,13.804 L39.156,18.496 C39.156,18.6160006 39.1160004,18.7159996 39.036,18.796 C38.9559996,18.8760004 38.8600006,18.916 38.748,18.916 L38.472,18.916 C38.3519994,18.916 38.2520004,18.8760004 38.172,18.796 C38.0919996,18.7159996 38.052,18.6160006 38.052,18.496 L38.052,12.688 C38.052,12.5679994 38.0919996,12.4680004 38.172,12.388 C38.2520004,12.3079996 38.3519994,12.268 38.472,12.268 L39.588,12.268 C39.7080006,12.268 39.8079996,12.2280004 39.888,12.148 C39.9680004,12.0679996 40.008,11.9680006 40.008,11.848 L40.008,11.716 C40.008,11.6039994 39.9680004,11.5060004 39.888,11.422 C39.8079996,11.3379996 39.7080006,11.296 39.588,11.296 L38.472,11.296 C38.3519994,11.296 38.2520004,11.2560004 38.172,11.176 C38.0919996,11.0959996 38.052,10.9960006 38.052,10.876 L38.052,10.6 C38.052,10.4879994 38.0919996,10.3920004 38.172,10.312 C38.2520004,10.2319996 38.3519994,10.192 38.472,10.192 L42.684,10.192 C42.7960006,10.192 42.8919996,10.2319996 42.972,10.312 C43.0520004,10.3920004 43.092,10.4879994 43.092,10.6 L43.092,10.876 C43.092,10.9960006 43.0520004,11.0959996 42.972,11.176 C42.8919996,11.2560004 42.7960006,11.296 42.684,11.296 L41.532,11.296 Z M37.668,11.188 C37.5959996,11.2680004 37.5040006,11.308 37.392,11.308 C37.2799994,11.308 37.1860004,11.3479996 37.11,11.428 C37.0339996,11.5080004 36.996,11.6079994 36.996,11.728 L36.996,19.672 C36.996,19.7920006 37.0339996,19.8919996 37.11,19.972 C37.1860004,20.0520004 37.2799994,20.092 37.392,20.092 C37.5040006,20.092 37.5979996,20.1319996 37.674,20.212 C37.7500004,20.2920004 37.788,20.3919994 37.788,20.512 L37.788,20.788 C37.788,20.9000006 37.7460004,20.9979996 37.662,21.082 C37.5779996,21.1660004 37.4800006,21.208 37.368,21.208 L35.496,21.208 C35.3839994,21.208 35.2880004,21.1660004 35.208,21.082 C35.1279996,20.9979996 35.088,20.9000006 35.088,20.788 L35.088,20.512 C35.088,20.3919994 35.1259996,20.2920004 35.202,20.212 C35.2780004,20.1319996 35.3719994,20.092 35.484,20.092 C35.5960006,20.092 35.6919996,20.0520004 35.772,19.972 C35.8520004,19.8919996 35.892,19.7920006 35.892,19.672 L35.892,11.728 C35.892,11.6079994 35.8520004,11.5080004 35.772,11.428 C35.6919996,11.3479996 35.5960006,11.308 35.484,11.308 C35.3719994,11.308 35.2780004,11.2680004 35.202,11.188 C35.1259996,11.1079996 35.088,11.0120006 35.088,10.9 L35.088,10.612 C35.088,10.4999994 35.1279996,10.4020004 35.208,10.318 C35.2880004,10.2339996 35.3839994,10.192 35.496,10.192 L37.368,10.192 C37.4800006,10.192 37.5779996,10.2339996 37.662,10.318 C37.7460004,10.4020004 37.788,10.4999994 37.788,10.612 L37.788,10.9 C37.788,11.0120006 37.7480004,11.1079996 37.668,11.188 Z M39.828,20.836 C39.7639997,20.9400005 39.6720006,21.0279996 39.552,21.1 C39.4319994,21.1720004 39.3160006,21.208 39.204,21.208 L38.472,21.208 C38.3519994,21.208 38.2520004,21.1660004 38.172,21.082 C38.0919996,20.9979996 38.052,20.9000006 38.052,20.788 L38.052,20.512 C38.052,20.3919994 38.0919996,20.2920004 38.172,20.212 C38.2520004,20.1319996 38.3519994,20.092 38.472,20.092 L38.58,20.092 C38.6920006,20.092 38.8099994,20.0560004 38.934,19.984 C39.0580006,19.9119996 39.1519997,19.8240005 39.216,19.72 L39.804,18.652 C39.8680003,18.5479995 39.9179998,18.4180008 39.954,18.262 C39.9900002,18.1059992 40.008,17.9720006 40.008,17.86 L40.008,14.608 C40.008,14.4879994 40.0499996,14.3880004 40.134,14.308 C40.2180004,14.2279996 40.3159994,14.188 40.428,14.188 L40.704,14.188 C40.8160006,14.188 40.9139996,14.2279996 40.998,14.308 C41.0820004,14.3880004 41.124,14.4879994 41.124,14.608 L41.124,17.848 C41.124,17.9600006 41.1419998,18.0919992 41.178,18.244 C41.2140002,18.3960008 41.2639997,18.5239995 41.328,18.628 L41.928,19.72 C41.9920003,19.8240005 42.0839994,19.9119996 42.204,19.984 C42.3240006,20.0560004 42.4399994,20.092 42.552,20.092 L42.684,20.092 C42.7960006,20.092 42.8919996,20.1319996 42.972,20.212 C43.0520004,20.2920004 43.092,20.3919994 43.092,20.512 L43.092,20.788 C43.092,20.9000006 43.0520004,20.9979996 42.972,21.082 C42.8919996,21.1660004 42.7960006,21.208 42.684,21.208 L41.94,21.208 C41.8279994,21.208 41.7080006,21.1720004 41.58,21.1 C41.4519994,21.0279996 41.3600003,20.9400005 41.304,20.836 L40.788,19.924 C40.7239997,19.8199995 40.6520004,19.768 40.572,19.768 C40.4919996,19.768 40.4200003,19.8199995 40.356,19.924 L39.828,20.836 Z"/>
  </g>
</svg>
