<svg xmlns="http://www.w3.org/2000/svg" width="71" height="32" viewBox="0 0 71 32">
  <g fill="none" fill-rule="evenodd">
    <rect width="36" height="15" x="17" y="8" fill="#4D68FF" fill-rule="nonzero" opacity=".1" rx="7.5"/>
    <path fill="#747E90" stroke="#747E90" stroke-width=".5" d="M45.747309,15.5 L46.9909604,14.0602761 C47.0118063,14.0363497 46.9942768,14 46.9620603,14 L46.5839903,14 C46.561723,14 46.5404032,14.0096626 46.5257163,14.026227 L45.5,15.2138037 L44.4742837,14.026227 C44.4600705,14.0096626 44.4387508,14 44.4160097,14 L44.0379397,14 C44.0057232,14 43.9881937,14.0363497 44.0090396,14.0602761 L45.252691,15.5 L44.0090396,16.9397239 C43.9881937,16.9636503 44.0057232,17 44.0379397,17 L44.4160097,17 C44.438277,17 44.4595968,16.9903374 44.4742837,16.973773 L45.5,15.7861963 L46.5257163,16.973773 C46.5399295,16.9903374 46.5612492,17 46.5839903,17 L46.9620603,17 C46.9942768,17 47.0118063,16.9636503 46.9909604,16.9397239 L45.747309,15.5 Z"/>
    <rect width="5" height="7" x="24" y="12" fill="#4D68FF" fill-rule="nonzero" rx="1"/>
    <rect width="5" height="7" x="30" y="12" fill="#4D68FF" fill-rule="nonzero" rx="1"/>
    <rect width="5" height="7" x="36" y="12" fill="#4D68FF" fill-rule="nonzero" rx="1"/>
  </g>
</svg>
