<svg xmlns="http://www.w3.org/2000/svg" width="70" height="32" viewBox="0 0 70 32">
  <g fill="none" fill-rule="evenodd">
    <rect width="41" height="16" x="15" y="8" stroke="#CCC" stroke-width="2" rx="2"/>
    <path fill="#CCC" fill-rule="nonzero" d="M3.99045877,3.00000059 L5.36493442,4.59118006 C5.67881192,4.95143932 5.415223,5.5 4.94941372,5.5 L4.44532034,5.5 C4.27049705,5.5 4.10302181,5.42448378 3.98922315,5.29185556 L2.99999231,4.14652182 L2.00649753,5.29674557 C1.89208113,5.42578825 1.72749885,5.5 1.55467966,5.5 L1.05058628,5.5 C0.584776997,5.5 0.321188076,4.95143932 0.633674282,4.59278381 L2.00954123,2.99999941 L0.635065578,1.40881994 C0.321188076,1.04856068 0.584776997,0.5 1.05058628,0.5 L1.55467966,0.5 C1.72950295,0.5 1.89697819,0.575516217 2.01077685,0.708144444 L3.00000769,1.85347818 L3.99350247,0.703254431 C4.10791887,0.574211754 4.27250115,0.5 4.44532034,0.5 L4.94941372,0.5 C5.415223,0.5 5.67881192,1.04856068 5.36632572,1.40721619 L3.99045877,3.00000059 Z" transform="translate(47 13)"/>
    <g transform="translate(18 11)">
      <rect width="10" height="10" fill="#FFF" opacity="0"/>
      <path fill="#9EA4AE" fill-rule="nonzero" stroke="#9EA4AE" stroke-width=".5" d="M8.59375,1.796875 L6.953125,1.796875 L6.953125,1.171875 C6.953125,1.12890625 6.91796875,1.09375 6.875,1.09375 L6.328125,1.09375 C6.28515625,1.09375 6.25,1.12890625 6.25,1.171875 L6.25,1.796875 L3.75,1.796875 L3.75,1.171875 C3.75,1.12890625 3.71484375,1.09375 3.671875,1.09375 L3.125,1.09375 C3.08203125,1.09375 3.046875,1.12890625 3.046875,1.171875 L3.046875,1.796875 L1.40625,1.796875 C1.23339844,1.796875 1.09375,1.93652344 1.09375,2.109375 L1.09375,8.59375 C1.09375,8.76660156 1.23339844,8.90625 1.40625,8.90625 L8.59375,8.90625 C8.76660156,8.90625 8.90625,8.76660156 8.90625,8.59375 L8.90625,2.109375 C8.90625,1.93652344 8.76660156,1.796875 8.59375,1.796875 Z M8.203125,8.203125 L1.796875,8.203125 L1.796875,4.4921875 L8.203125,4.4921875 L8.203125,8.203125 Z M1.796875,3.828125 L1.796875,2.5 L3.046875,2.5 L3.046875,2.96875 C3.046875,3.01171875 3.08203125,3.046875 3.125,3.046875 L3.671875,3.046875 C3.71484375,3.046875 3.75,3.01171875 3.75,2.96875 L3.75,2.5 L6.25,2.5 L6.25,2.96875 C6.25,3.01171875 6.28515625,3.046875 6.328125,3.046875 L6.875,3.046875 C6.91796875,3.046875 6.953125,3.01171875 6.953125,2.96875 L6.953125,2.5 L8.203125,2.5 L8.203125,3.828125 L1.796875,3.828125 Z"/>
    </g>
  </g>
</svg>
