<svg xmlns="http://www.w3.org/2000/svg" width="70" height="32" viewBox="0 0 70 32">
  <g fill="none" fill-rule="evenodd" transform="translate(24 5)">
    <rect width="22" height="22" fill="#FFF" opacity="0"/>
    <path fill="#747E90" fill-rule="nonzero" d="M18.90625,3.953125 L15.296875,3.953125 L15.296875,2.578125 C15.296875,2.48359375 15.2195312,2.40625 15.125,2.40625 L13.921875,2.40625 C13.8273437,2.40625 13.75,2.48359375 13.75,2.578125 L13.75,3.953125 L8.25,3.953125 L8.25,2.578125 C8.25,2.48359375 8.17265625,2.40625 8.078125,2.40625 L6.875,2.40625 C6.78046875,2.40625 6.703125,2.48359375 6.703125,2.578125 L6.703125,3.953125 L3.09375,3.953125 C2.71347656,3.953125 2.40625,4.26035156 2.40625,4.640625 L2.40625,18.90625 C2.40625,19.2865234 2.71347656,19.59375 3.09375,19.59375 L18.90625,19.59375 C19.2865234,19.59375 19.59375,19.2865234 19.59375,18.90625 L19.59375,4.640625 C19.59375,4.26035156 19.2865234,3.953125 18.90625,3.953125 Z M18.046875,18.046875 L3.953125,18.046875 L3.953125,9.8828125 L18.046875,9.8828125 L18.046875,18.046875 Z M3.953125,8.421875 L3.953125,5.5 L6.703125,5.5 L6.703125,6.53125 C6.703125,6.62578125 6.78046875,6.703125 6.875,6.703125 L8.078125,6.703125 C8.17265625,6.703125 8.25,6.62578125 8.25,6.53125 L8.25,5.5 L13.75,5.5 L13.75,6.53125 C13.75,6.62578125 13.8273438,6.703125 13.921875,6.703125 L15.125,6.703125 C15.2195312,6.703125 15.296875,6.62578125 15.296875,6.53125 L15.296875,5.5 L18.046875,5.5 L18.046875,8.421875 L3.953125,8.421875 Z"/>
  </g>
</svg>
