<svg xmlns="http://www.w3.org/2000/svg" width="70" height="32" viewBox="0 0 70 32">
  <path fill="#50575D" fill-rule="evenodd" d="M16.919,11.166 L21.609,11.166 L22.617,12.188 L22.617,15.87 L21.609,16.892 L18.193,16.892 L18.193,19.972 L22.617,19.972 L22.617,21.246 L17.927,21.246 L16.919,20.35 L16.919,16.612 L17.927,15.618 L21.357,15.618 L21.357,12.44 L16.919,12.44 L16.919,11.166 Z M25.417,11.166 L29.099,11.166 L30.107,12.188 L30.107,20.252 L29.085,21.26 L25.403,21.26 L24.395,20.252 L24.395,12.174 L25.417,11.166 Z M28.833,20 L28.833,12.44 L25.669,12.44 L25.669,20 L28.833,20 Z M34.293,19.972 L35.119,19.972 L35.119,21.246 L31.983,21.246 L31.983,19.972 L33.019,19.972 L33.019,12.426 L31.983,12.426 L31.983,11.152 L33.285,11.152 L34.293,12.16 L34.293,19.972 Z M41.447,11.18 L42.357,12.188 L42.357,15.996 L41.727,16.626 L42.357,17.27 L42.357,20.238 L41.335,21.246 L36.645,21.246 L36.645,19.986 L41.083,19.986 L41.083,17.27 L37.667,17.27 L36.645,16.248 L36.645,12.174 L37.667,11.18 L41.447,11.18 Z M41.083,15.996 L41.083,12.44 L37.919,12.44 L37.919,15.996 L41.083,15.996 Z M49.259,22.576 C49.1189993,22.576 49.0023338,22.5270005 48.909,22.429 C48.8156662,22.3309995 48.769,22.2166673 48.769,22.086 L48.769,21.33 C48.769,21.1993327 48.7200005,21.0850005 48.622,20.987 C48.5239995,20.8889995 48.4050007,20.84 48.265,20.84 L44.443,20.84 C44.3123327,20.84 44.2003338,20.7910005 44.107,20.693 C44.0136662,20.5949995 43.967,20.4806673 43.967,20.35 L43.967,20.028 C43.967,19.8973327 43.997333,19.7853338 44.058,19.692 C44.118667,19.5986662 44.1909996,19.552 44.275,19.552 C44.3776672,19.552 44.4616663,19.5006672 44.527,19.398 C44.5923337,19.2953328 44.625,19.1786673 44.625,19.048 L44.625,14.806 C44.625,14.6753327 44.6716662,14.5610005 44.765,14.463 C44.8583338,14.3649995 44.9749993,14.316 45.115,14.316 L48.265,14.316 C48.4050007,14.316 48.5239995,14.2693338 48.622,14.176 C48.7200005,14.0826662 48.769,13.9706673 48.769,13.84 L48.769,12.426 C48.769,12.2859993 48.7200005,12.1693338 48.622,12.076 C48.5239995,11.9826662 48.4050007,11.936 48.265,11.936 L45.493,11.936 C45.3623327,11.936 45.2153342,11.9033337 45.052,11.838 C44.8886659,11.7726663 44.7603338,11.6886672 44.667,11.586 L44.303,11.236 C44.2096662,11.1426662 44.1303337,11.0143341 44.065,10.851 C43.9996663,10.6876658 43.967,10.5406673 43.967,10.41 L43.967,10.2 C43.967,10.0693327 44.0136662,9.9573338 44.107,9.864 C44.2003338,9.7706662 44.3123327,9.724 44.443,9.724 L44.779,9.724 C44.9190007,9.724 45.0356662,9.76599958 45.129,9.85 C45.2223338,9.93400042 45.269,10.0413327 45.269,10.172 C45.269,10.3026673 45.3156662,10.4123329 45.409,10.501 C45.5023338,10.5896671 45.6189993,10.634 45.759,10.634 L52.829,10.634 C52.9596673,10.634 53.0716662,10.6806662 53.165,10.774 C53.2583338,10.8673338 53.305,10.9839993 53.305,11.124 L53.305,11.446 C53.305,11.5766673 53.2583338,11.6909995 53.165,11.789 C53.0716662,11.8870005 52.9596673,11.936 52.829,11.936 L50.547,11.936 C50.4163327,11.936 50.3020005,11.9826662 50.204,12.076 C50.1059995,12.1693338 50.057,12.2859993 50.057,12.426 L50.057,13.84 C50.057,13.9706673 50.1059995,14.0826662 50.204,14.176 C50.3020005,14.2693338 50.4163327,14.316 50.547,14.316 L52.843,14.316 C52.9736673,14.316 53.0856662,14.3649995 53.179,14.463 C53.2723338,14.5610005 53.319,14.6753327 53.319,14.806 L53.319,15.128 C53.319,15.2680007 53.2723338,15.3846662 53.179,15.478 C53.0856662,15.5713338 52.9736673,15.618 52.843,15.618 L50.547,15.618 C50.4163327,15.618 50.3020005,15.6646662 50.204,15.758 C50.1059995,15.8513338 50.057,15.9633327 50.057,16.094 L50.057,19.048 C50.057,19.1786673 50.1059995,19.2953328 50.204,19.398 C50.3020005,19.5006672 50.4163327,19.552 50.547,19.552 L52.829,19.552 C52.9596673,19.552 53.0716662,19.5986662 53.165,19.692 C53.2583338,19.7853338 53.305,19.8973327 53.305,20.028 L53.305,20.35 C53.305,20.4806673 53.2583338,20.5949995 53.165,20.693 C53.0716662,20.7910005 52.9596673,20.84 52.829,20.84 L50.547,20.84 C50.4163327,20.84 50.3020005,20.8889995 50.204,20.987 C50.1059995,21.0850005 50.057,21.1993327 50.057,21.33 L50.057,22.086 C50.057,22.2166673 50.0080005,22.3309995 49.91,22.429 C49.8119995,22.5270005 49.6976673,22.576 49.567,22.576 L49.259,22.576 Z M48.265,19.552 C48.4050007,19.552 48.5239995,19.5006672 48.622,19.398 C48.7200005,19.2953328 48.769,19.1786673 48.769,19.048 L48.769,16.094 C48.769,15.9633327 48.7200005,15.8513338 48.622,15.758 C48.5239995,15.6646662 48.4050007,15.618 48.265,15.618 L46.417,15.618 C46.2769993,15.618 46.1603338,15.6646662 46.067,15.758 C45.9736662,15.8513338 45.927,15.9633327 45.927,16.094 L45.927,19.048 C45.927,19.1786673 45.9736662,19.2953328 46.067,19.398 C46.1603338,19.5006672 46.2769993,19.552 46.417,19.552 L48.265,19.552 Z"/>
</svg>
