<svg xmlns="http://www.w3.org/2000/svg" width="70" height="32" viewBox="0 0 70 32">
  <g fill="none" fill-rule="evenodd" transform="translate(4 12)">
    <rect width="5" height="8" x="19" fill="#747E90" fill-rule="nonzero"/>
    <rect width="5" height="8" x="31" fill="#747E90" fill-rule="nonzero"/>
    <rect width="5" height="8" x="25" fill="#747E90" fill-rule="nonzero"/>
    <rect width="5" height="8" x="37" fill="#747E90" fill-rule="nonzero"/>
    <path fill="#CCC" fill-rule="nonzero" d="M0.907470703,4 L3.49926758,0.146590909 C3.53930664,0.0875 3.50317383,0 3.43774414,0 L2.68286133,0 C2.63500977,0 2.58911133,0.0261363636 2.55981445,0.0693181818 L0.0666503906,3.77613636 C-0.0222167969,3.90795455 -0.0222167969,4.09318182 0.0666503906,4.225 L2.55981445,7.93068182 C2.58911133,7.975 2.63500977,8 2.68286133,8 L3.43774414,8 C3.50317383,8 3.53930664,7.9125 3.49926758,7.85340909 L0.907470703,4 Z M3.8762207,4 L6.46801758,0.146590909 C6.50805664,0.0875 6.47192383,0 6.40649414,0 L5.65161133,0 C5.60375977,0 5.55786133,0.0261363636 5.52856445,0.0693181818 L3.03540039,3.77613636 C2.9465332,3.90795455 2.9465332,4.09318182 3.03540039,4.225 L5.52856445,7.93068182 C5.55786133,7.975 5.60375977,8 5.65161133,8 L6.40649414,8 C6.47192383,8 6.50805664,7.9125 6.46801758,7.85340909 L3.8762207,4 Z"/>
    <g fill="#747E90" transform="matrix(-1 0 0 1 62 0)">
      <path fill-rule="nonzero" d="M1.4226936,4 L4.01449047,0.146590909 C4.05452954,0.0875 4.01839672,0 3.95296704,0 L3.19808422,0 C3.15023266,0 3.10433422,0.0261363636 3.07503735,0.0693181818 L0.581873286,3.77613636 C0.493006099,3.90795455 0.493006099,4.09318182 0.581873286,4.225 L3.07503735,7.93068182 C3.10433422,7.975 3.15023266,8 3.19808422,8 L3.95296704,8 C4.01839672,8 4.05452954,7.9125 4.01449047,7.85340909 L1.4226936,4 Z M4.3914436,4 L6.98324047,0.146590909 C7.02327954,0.0875 6.98714672,0 6.92171704,0 L6.16683422,0 C6.11898266,0 6.07308422,0.0261363636 6.04378735,0.0693181818 L3.55062329,3.77613636 C3.4617561,3.90795455 3.4617561,4.09318182 3.55062329,4.225 L6.04378735,7.93068182 C6.07308422,7.975 6.11898266,8 6.16683422,8 L6.92171704,8 C6.98714672,8 7.02327954,7.9125 6.98324047,7.85340909 L4.3914436,4 Z"/>
      <path d="M13,0.900514938 L13,0.0846109867 C13,0.0138922742 12.9352941,-0.0251613431 12.8915966,0.0181142869 L9.10336134,3.73454095 C8.96554622,3.86964536 8.96554622,4.13035464 9.10336134,4.26545905 L12.8915966,7.98188571 C12.9361345,8.02516134 13,7.98610773 13,7.91538901 L13,7.09948506 C13,7.04776541 12.9806723,6.99815676 12.9487395,6.96649166 L9.92352941,4.00052775 L12.9487395,1.03350834 C12.9806723,1.00184324 13,0.952234593 13,0.900514938 Z"/>
    </g>
    <path fill="#CCC" d="M13,0.900514938 L13,0.0846109867 C13,0.0138922742 12.9352941,-0.0251613431 12.8915966,0.0181142869 L9.10336134,3.73454095 C8.96554622,3.86964536 8.96554622,4.13035464 9.10336134,4.26545905 L12.8915966,7.98188571 C12.9361345,8.02516134 13,7.98610773 13,7.91538901 L13,7.09948506 C13,7.04776541 12.9806723,6.99815676 12.9487395,6.96649166 L9.92352941,4.00052775 L12.9487395,1.03350834 C12.9806723,1.00184324 13,0.952234593 13,0.900514938 Z"/>
  </g>
</svg>
