<svg xmlns="http://www.w3.org/2000/svg" width="70" height="32" viewBox="0 0 70 32">
  <path fill="#50575D" fill-rule="evenodd" d="M22.757,10.2 C22.757,10.0693327 22.8036662,9.9573338 22.897,9.864 C22.9903338,9.7706662 23.1023327,9.724 23.233,9.724 L30.443,9.724 C30.5830007,9.724 30.6996662,9.7706662 30.793,9.864 C30.8863338,9.9573338 30.933,10.0693327 30.933,10.2 L30.933,21.05 C30.933,21.1806673 30.9003337,21.3299992 30.835,21.498 C30.7696663,21.6660008 30.6903338,21.7919996 30.597,21.876 L30.275,22.226 C30.1723328,22.3286672 30.0393342,22.4126663 29.876,22.478 C29.7126659,22.5433337 29.5610007,22.576 29.421,22.576 L26.075,22.576 C25.9443327,22.576 25.8323338,22.5270005 25.739,22.429 C25.6456662,22.3309995 25.599,22.2166673 25.599,22.086 L25.599,21.778 C25.599,21.6379993 25.6456662,21.5213338 25.739,21.428 C25.8323338,21.3346662 25.9443327,21.288 26.075,21.288 L29.155,21.288 C29.2856673,21.288 29.3999995,21.2390005 29.498,21.141 C29.5960005,21.0429995 29.645,20.9240007 29.645,20.784 L29.645,19.412 C29.645,19.2719993 29.5960005,19.1530005 29.498,19.055 C29.3999995,18.9569995 29.2856673,18.908 29.155,18.908 L24.549,18.908 C24.4089993,18.908 24.2900005,18.9569995 24.192,19.055 C24.0939995,19.1530005 24.045,19.2719993 24.045,19.412 L24.045,22.086 C24.045,22.2166673 23.9983338,22.3309995 23.905,22.429 C23.8116662,22.5270005 23.6950007,22.576 23.555,22.576 L23.233,22.576 C23.1023327,22.576 22.9903338,22.5270005 22.897,22.429 C22.8036662,22.3309995 22.757,22.2166673 22.757,22.086 L22.757,10.2 Z M24.045,13.294 C24.045,13.4340007 24.0939995,13.5506662 24.192,13.644 C24.2900005,13.7373338 24.4089993,13.784 24.549,13.784 L29.155,13.784 C29.2856673,13.784 29.3999995,13.7373338 29.498,13.644 C29.5960005,13.5506662 29.645,13.4340007 29.645,13.294 L29.645,11.502 C29.645,11.3713327 29.5960005,11.2570005 29.498,11.159 C29.3999995,11.0609995 29.2856673,11.012 29.155,11.012 L24.549,11.012 C24.4089993,11.012 24.2900005,11.0609995 24.192,11.159 C24.0939995,11.2570005 24.045,11.3713327 24.045,11.502 L24.045,13.294 Z M24.045,17.116 C24.045,17.2466673 24.0939995,17.3633328 24.192,17.466 C24.2900005,17.5686672 24.4089993,17.62 24.549,17.62 L29.155,17.62 C29.2856673,17.62 29.3999995,17.5686672 29.498,17.466 C29.5960005,17.3633328 29.645,17.2466673 29.645,17.116 L29.645,15.576 C29.645,15.4453327 29.5960005,15.3310005 29.498,15.233 C29.3999995,15.1349995 29.2856673,15.086 29.155,15.086 L24.549,15.086 C24.4089993,15.086 24.2900005,15.1349995 24.192,15.233 C24.0939995,15.3310005 24.045,15.4453327 24.045,15.576 L24.045,17.116 Z M36.855,9.836 L34.601,22.506 L33.131,22.506 L35.385,9.836 L36.855,9.836 Z M43.197,22.576 C43.0569993,22.576 42.9403338,22.5270005 42.847,22.429 C42.7536662,22.3309995 42.707,22.2166673 42.707,22.086 L42.707,21.33 C42.707,21.1993327 42.6580005,21.0850005 42.56,20.987 C42.4619995,20.8889995 42.3430007,20.84 42.203,20.84 L38.381,20.84 C38.2503327,20.84 38.1383338,20.7910005 38.045,20.693 C37.9516662,20.5949995 37.905,20.4806673 37.905,20.35 L37.905,20.028 C37.905,19.8973327 37.935333,19.7853338 37.996,19.692 C38.056667,19.5986662 38.1289996,19.552 38.213,19.552 C38.3156672,19.552 38.3996663,19.5006672 38.465,19.398 C38.5303337,19.2953328 38.563,19.1786673 38.563,19.048 L38.563,14.806 C38.563,14.6753327 38.6096662,14.5610005 38.703,14.463 C38.7963338,14.3649995 38.9129993,14.316 39.053,14.316 L42.203,14.316 C42.3430007,14.316 42.4619995,14.2693338 42.56,14.176 C42.6580005,14.0826662 42.707,13.9706673 42.707,13.84 L42.707,12.426 C42.707,12.2859993 42.6580005,12.1693338 42.56,12.076 C42.4619995,11.9826662 42.3430007,11.936 42.203,11.936 L39.431,11.936 C39.3003327,11.936 39.1533341,11.9033337 38.99,11.838 C38.8266658,11.7726663 38.6983338,11.6886672 38.605,11.586 L38.241,11.236 C38.1476662,11.1426662 38.0683337,11.0143341 38.003,10.851 C37.9376663,10.6876658 37.905,10.5406673 37.905,10.41 L37.905,10.2 C37.905,10.0693327 37.9516662,9.9573338 38.045,9.864 C38.1383338,9.7706662 38.2503327,9.724 38.381,9.724 L38.717,9.724 C38.8570007,9.724 38.9736662,9.76599958 39.067,9.85 C39.1603338,9.93400042 39.207,10.0413327 39.207,10.172 C39.207,10.3026673 39.2536662,10.4123329 39.347,10.501 C39.4403338,10.5896671 39.5569993,10.634 39.697,10.634 L46.767,10.634 C46.8976673,10.634 47.0096662,10.6806662 47.103,10.774 C47.1963338,10.8673338 47.243,10.9839993 47.243,11.124 L47.243,11.446 C47.243,11.5766673 47.1963338,11.6909995 47.103,11.789 C47.0096662,11.8870005 46.8976673,11.936 46.767,11.936 L44.485,11.936 C44.3543327,11.936 44.2400005,11.9826662 44.142,12.076 C44.0439995,12.1693338 43.995,12.2859993 43.995,12.426 L43.995,13.84 C43.995,13.9706673 44.0439995,14.0826662 44.142,14.176 C44.2400005,14.2693338 44.3543327,14.316 44.485,14.316 L46.781,14.316 C46.9116673,14.316 47.0236662,14.3649995 47.117,14.463 C47.2103338,14.5610005 47.257,14.6753327 47.257,14.806 L47.257,15.128 C47.257,15.2680007 47.2103338,15.3846662 47.117,15.478 C47.0236662,15.5713338 46.9116673,15.618 46.781,15.618 L44.485,15.618 C44.3543327,15.618 44.2400005,15.6646662 44.142,15.758 C44.0439995,15.8513338 43.995,15.9633327 43.995,16.094 L43.995,19.048 C43.995,19.1786673 44.0439995,19.2953328 44.142,19.398 C44.2400005,19.5006672 44.3543327,19.552 44.485,19.552 L46.767,19.552 C46.8976673,19.552 47.0096662,19.5986662 47.103,19.692 C47.1963338,19.7853338 47.243,19.8973327 47.243,20.028 L47.243,20.35 C47.243,20.4806673 47.1963338,20.5949995 47.103,20.693 C47.0096662,20.7910005 46.8976673,20.84 46.767,20.84 L44.485,20.84 C44.3543327,20.84 44.2400005,20.8889995 44.142,20.987 C44.0439995,21.0850005 43.995,21.1993327 43.995,21.33 L43.995,22.086 C43.995,22.2166673 43.9460005,22.3309995 43.848,22.429 C43.7499995,22.5270005 43.6356673,22.576 43.505,22.576 L43.197,22.576 Z M42.203,19.552 C42.3430007,19.552 42.4619995,19.5006672 42.56,19.398 C42.6580005,19.2953328 42.707,19.1786673 42.707,19.048 L42.707,16.094 C42.707,15.9633327 42.6580005,15.8513338 42.56,15.758 C42.4619995,15.6646662 42.3430007,15.618 42.203,15.618 L40.355,15.618 C40.2149993,15.618 40.0983338,15.6646662 40.005,15.758 C39.9116662,15.8513338 39.865,15.9633327 39.865,16.094 L39.865,19.048 C39.865,19.1786673 39.9116662,19.2953328 40.005,19.398 C40.0983338,19.5006672 40.2149993,19.552 40.355,19.552 L42.203,19.552 Z"/>
</svg>
