<svg xmlns="http://www.w3.org/2000/svg" width="70" height="32" viewBox="0 0 70 32">
  <path fill="#50575D" fill-rule="evenodd" d="M16.471,22.086 C16.471,22.2166673 16.4243338,22.3309995 16.331,22.429 C16.2376662,22.5270005 16.1210007,22.576 15.981,22.576 L15.659,22.576 C15.5283327,22.576 15.4163338,22.5270005 15.323,22.429 C15.2296662,22.3309995 15.183,22.2166673 15.183,22.086 L15.183,10.2 C15.183,10.0693327 15.2063331,9.9573338 15.253,9.864 C15.2996669,9.7706662 15.360333,9.724 15.435,9.724 L23.975,9.724 C24.1056673,9.724 24.2199995,9.7706662 24.318,9.864 C24.4160005,9.9573338 24.465,10.0693327 24.465,10.2 L24.465,21.064 C24.465,21.1946673 24.4300004,21.3416658 24.36,21.505 C24.2899996,21.6683341 24.2083338,21.7919996 24.115,21.876 L23.765,22.226 C23.6716662,22.3286672 23.5433341,22.4126663 23.38,22.478 C23.2166658,22.5433337 23.0696673,22.576 22.939,22.576 L22.043,22.576 C21.9029993,22.576 21.7840005,22.5270005 21.686,22.429 C21.5879995,22.3309995 21.539,22.2166673 21.539,22.086 L21.539,21.778 C21.539,21.6379993 21.5879995,21.5213338 21.686,21.428 C21.7840005,21.3346662 21.9029993,21.288 22.043,21.288 L22.701,21.288 C22.8223339,21.288 22.9319995,21.2413338 23.03,21.148 C23.1280005,21.0546662 23.177,20.9380007 23.177,20.798 L23.177,11.488 C23.177,11.3573327 23.1280005,11.2430005 23.03,11.145 C22.9319995,11.0469995 22.8223339,10.998 22.701,10.998 L16.947,10.998 C16.8163327,10.998 16.7043338,11.0469995 16.611,11.145 C16.5176662,11.2430005 16.471,11.3573327 16.471,11.488 L16.471,22.086 Z M22.323,16.598 C22.3790003,16.598 22.4303331,16.6493328 22.477,16.752 C22.5236669,16.8546672 22.547,16.9713327 22.547,17.102 L22.547,19.328 C22.547,19.4586673 22.5143337,19.6056659 22.449,19.769 C22.3836663,19.9323341 22.2996672,20.0653328 22.197,20.168 L21.861,20.504 C21.7583328,20.6066672 21.6253342,20.688333 21.462,20.749 C21.2986658,20.809667 21.1516673,20.84 21.021,20.84 L17.633,20.84 C17.4929993,20.84 17.3763338,20.7933338 17.283,20.7 C17.1896662,20.6066662 17.143,20.4946673 17.143,20.364 L17.143,17.102 C17.143,16.9713327 17.1569999,16.8546672 17.185,16.752 C17.2130001,16.6493328 17.2503331,16.598 17.297,16.598 L22.323,16.598 Z M18.697,14.666 C18.8370007,14.666 18.9536662,14.6170005 19.047,14.519 C19.1403338,14.4209995 19.187,14.3066673 19.187,14.176 L19.187,14.162 C19.187,14.0313327 19.1403338,13.9170005 19.047,13.819 C18.9536662,13.7209995 18.8370007,13.672 18.697,13.672 L17.549,13.672 C17.4183327,13.672 17.3063338,13.6253338 17.213,13.532 C17.1196662,13.4386662 17.073,13.3266673 17.073,13.196 L17.073,12.874 C17.073,12.7433327 17.1196662,12.6290005 17.213,12.531 C17.3063338,12.4329995 17.4183327,12.384 17.549,12.384 L18.697,12.384 C18.8370007,12.384 18.9536662,12.3513337 19.047,12.286 C19.1403338,12.2206663 19.187,12.150667 19.187,12.076 C19.187,11.9733328 19.2336662,11.891667 19.327,11.831 C19.4203338,11.770333 19.5323327,11.74 19.663,11.74 L19.985,11.74 C20.1156673,11.74 20.2299995,11.770333 20.328,11.831 C20.4260005,11.891667 20.475,11.9733328 20.475,12.076 C20.475,12.150667 20.5216662,12.2206663 20.615,12.286 C20.7083338,12.3513337 20.8203327,12.384 20.951,12.384 L22.043,12.384 C22.1736673,12.384 22.2856662,12.4329995 22.379,12.531 C22.4723338,12.6290005 22.519,12.7433327 22.519,12.874 L22.519,13.196 C22.519,13.3266673 22.4723338,13.4386662 22.379,13.532 C22.2856662,13.6253338 22.1736673,13.672 22.043,13.672 L20.951,13.672 C20.8203327,13.672 20.7083338,13.7209995 20.615,13.819 C20.5216662,13.9170005 20.475,14.0313327 20.475,14.162 L20.475,14.176 C20.475,14.3066673 20.5216662,14.4209995 20.615,14.519 C20.7083338,14.6170005 20.8203327,14.666 20.951,14.666 L22.043,14.666 C22.1736673,14.666 22.2856662,14.7149995 22.379,14.813 C22.4723338,14.9110005 22.519,15.0253327 22.519,15.156 L22.519,15.478 C22.519,15.6086673 22.4723338,15.7206662 22.379,15.814 C22.2856662,15.9073338 22.1736673,15.954 22.043,15.954 L17.549,15.954 C17.4183327,15.954 17.3063338,15.9073338 17.213,15.814 C17.1196662,15.7206662 17.073,15.6086673 17.073,15.478 L17.073,15.156 C17.073,15.0253327 17.1196662,14.9110005 17.213,14.813 C17.3063338,14.7149995 17.4183327,14.666 17.549,14.666 L18.697,14.666 Z M20.769,19.566 C20.8996673,19.566 21.0163328,19.5170005 21.119,19.419 C21.2216672,19.3209995 21.273,19.2066673 21.273,19.076 L21.273,18.404 C21.273,18.2733327 21.2216672,18.1566672 21.119,18.054 C21.0163328,17.9513328 20.8996673,17.9 20.769,17.9 L18.907,17.9 C18.7763327,17.9 18.6620005,17.9513328 18.564,18.054 C18.4659995,18.1566672 18.417,18.2733327 18.417,18.404 L18.417,19.076 C18.417,19.2066673 18.4659995,19.3209995 18.564,19.419 C18.6620005,19.5170005 18.7763327,19.566 18.907,19.566 L20.769,19.566 Z M29.281,9.836 L27.027,22.506 L25.557,22.506 L27.811,9.836 L29.281,9.836 Z M30.331,10.2 C30.331,10.0693327 30.3776662,9.9573338 30.471,9.864 C30.5643338,9.7706662 30.6763327,9.724 30.807,9.724 L38.017,9.724 C38.1570007,9.724 38.2736662,9.7706662 38.367,9.864 C38.4603338,9.9573338 38.507,10.0693327 38.507,10.2 L38.507,21.05 C38.507,21.1806673 38.4743337,21.3299992 38.409,21.498 C38.3436663,21.6660008 38.2643338,21.7919996 38.171,21.876 L37.849,22.226 C37.7463328,22.3286672 37.6133342,22.4126663 37.45,22.478 C37.2866658,22.5433337 37.1350007,22.576 36.995,22.576 L33.649,22.576 C33.5183327,22.576 33.4063338,22.5270005 33.313,22.429 C33.2196662,22.3309995 33.173,22.2166673 33.173,22.086 L33.173,21.778 C33.173,21.6379993 33.2196662,21.5213338 33.313,21.428 C33.4063338,21.3346662 33.5183327,21.288 33.649,21.288 L36.729,21.288 C36.8596673,21.288 36.9739995,21.2390005 37.072,21.141 C37.1700005,21.0429995 37.219,20.9240007 37.219,20.784 L37.219,19.412 C37.219,19.2719993 37.1700005,19.1530005 37.072,19.055 C36.9739995,18.9569995 36.8596673,18.908 36.729,18.908 L32.123,18.908 C31.9829993,18.908 31.8640005,18.9569995 31.766,19.055 C31.6679995,19.1530005 31.619,19.2719993 31.619,19.412 L31.619,22.086 C31.619,22.2166673 31.5723338,22.3309995 31.479,22.429 C31.3856662,22.5270005 31.2690007,22.576 31.129,22.576 L30.807,22.576 C30.6763327,22.576 30.5643338,22.5270005 30.471,22.429 C30.3776662,22.3309995 30.331,22.2166673 30.331,22.086 L30.331,10.2 Z M31.619,13.294 C31.619,13.4340007 31.6679995,13.5506662 31.766,13.644 C31.8640005,13.7373338 31.9829993,13.784 32.123,13.784 L36.729,13.784 C36.8596673,13.784 36.9739995,13.7373338 37.072,13.644 C37.1700005,13.5506662 37.219,13.4340007 37.219,13.294 L37.219,11.502 C37.219,11.3713327 37.1700005,11.2570005 37.072,11.159 C36.9739995,11.0609995 36.8596673,11.012 36.729,11.012 L32.123,11.012 C31.9829993,11.012 31.8640005,11.0609995 31.766,11.159 C31.6679995,11.2570005 31.619,11.3713327 31.619,11.502 L31.619,13.294 Z M31.619,17.116 C31.619,17.2466673 31.6679995,17.3633328 31.766,17.466 C31.8640005,17.5686672 31.9829993,17.62 32.123,17.62 L36.729,17.62 C36.8596673,17.62 36.9739995,17.5686672 37.072,17.466 C37.1700005,17.3633328 37.219,17.2466673 37.219,17.116 L37.219,15.576 C37.219,15.4453327 37.1700005,15.3310005 37.072,15.233 C36.9739995,15.1349995 36.8596673,15.086 36.729,15.086 L32.123,15.086 C31.9829993,15.086 31.8640005,15.1349995 31.766,15.233 C31.6679995,15.3310005 31.619,15.4453327 31.619,15.576 L31.619,17.116 Z M44.429,9.836 L42.175,22.506 L40.705,22.506 L42.959,9.836 L44.429,9.836 Z M50.771,22.576 C50.6309993,22.576 50.5143338,22.5270005 50.421,22.429 C50.3276662,22.3309995 50.281,22.2166673 50.281,22.086 L50.281,21.33 C50.281,21.1993327 50.2320005,21.0850005 50.134,20.987 C50.0359995,20.8889995 49.9170007,20.84 49.777,20.84 L45.955,20.84 C45.8243327,20.84 45.7123338,20.7910005 45.619,20.693 C45.5256662,20.5949995 45.479,20.4806673 45.479,20.35 L45.479,20.028 C45.479,19.8973327 45.509333,19.7853338 45.57,19.692 C45.630667,19.5986662 45.7029996,19.552 45.787,19.552 C45.8896672,19.552 45.9736663,19.5006672 46.039,19.398 C46.1043337,19.2953328 46.137,19.1786673 46.137,19.048 L46.137,14.806 C46.137,14.6753327 46.1836662,14.5610005 46.277,14.463 C46.3703338,14.3649995 46.4869993,14.316 46.627,14.316 L49.777,14.316 C49.9170007,14.316 50.0359995,14.2693338 50.134,14.176 C50.2320005,14.0826662 50.281,13.9706673 50.281,13.84 L50.281,12.426 C50.281,12.2859993 50.2320005,12.1693338 50.134,12.076 C50.0359995,11.9826662 49.9170007,11.936 49.777,11.936 L47.005,11.936 C46.8743327,11.936 46.7273341,11.9033337 46.564,11.838 C46.4006659,11.7726663 46.2723338,11.6886672 46.179,11.586 L45.815,11.236 C45.7216662,11.1426662 45.6423337,11.0143341 45.577,10.851 C45.5116663,10.6876658 45.479,10.5406673 45.479,10.41 L45.479,10.2 C45.479,10.0693327 45.5256662,9.9573338 45.619,9.864 C45.7123338,9.7706662 45.8243327,9.724 45.955,9.724 L46.291,9.724 C46.4310007,9.724 46.5476662,9.76599958 46.641,9.85 C46.7343338,9.93400042 46.781,10.0413327 46.781,10.172 C46.781,10.3026673 46.8276662,10.4123329 46.921,10.501 C47.0143338,10.5896671 47.1309993,10.634 47.271,10.634 L54.341,10.634 C54.4716673,10.634 54.5836662,10.6806662 54.677,10.774 C54.7703338,10.8673338 54.817,10.9839993 54.817,11.124 L54.817,11.446 C54.817,11.5766673 54.7703338,11.6909995 54.677,11.789 C54.5836662,11.8870005 54.4716673,11.936 54.341,11.936 L52.059,11.936 C51.9283327,11.936 51.8140005,11.9826662 51.716,12.076 C51.6179995,12.1693338 51.569,12.2859993 51.569,12.426 L51.569,13.84 C51.569,13.9706673 51.6179995,14.0826662 51.716,14.176 C51.8140005,14.2693338 51.9283327,14.316 52.059,14.316 L54.355,14.316 C54.4856673,14.316 54.5976662,14.3649995 54.691,14.463 C54.7843338,14.5610005 54.831,14.6753327 54.831,14.806 L54.831,15.128 C54.831,15.2680007 54.7843338,15.3846662 54.691,15.478 C54.5976662,15.5713338 54.4856673,15.618 54.355,15.618 L52.059,15.618 C51.9283327,15.618 51.8140005,15.6646662 51.716,15.758 C51.6179995,15.8513338 51.569,15.9633327 51.569,16.094 L51.569,19.048 C51.569,19.1786673 51.6179995,19.2953328 51.716,19.398 C51.8140005,19.5006672 51.9283327,19.552 52.059,19.552 L54.341,19.552 C54.4716673,19.552 54.5836662,19.5986662 54.677,19.692 C54.7703338,19.7853338 54.817,19.8973327 54.817,20.028 L54.817,20.35 C54.817,20.4806673 54.7703338,20.5949995 54.677,20.693 C54.5836662,20.7910005 54.4716673,20.84 54.341,20.84 L52.059,20.84 C51.9283327,20.84 51.8140005,20.8889995 51.716,20.987 C51.6179995,21.0850005 51.569,21.1993327 51.569,21.33 L51.569,22.086 C51.569,22.2166673 51.5200005,22.3309995 51.422,22.429 C51.3239995,22.5270005 51.2096673,22.576 51.079,22.576 L50.771,22.576 Z M49.777,19.552 C49.9170007,19.552 50.0359995,19.5006672 50.134,19.398 C50.2320005,19.2953328 50.281,19.1786673 50.281,19.048 L50.281,16.094 C50.281,15.9633327 50.2320005,15.8513338 50.134,15.758 C50.0359995,15.6646662 49.9170007,15.618 49.777,15.618 L47.929,15.618 C47.7889993,15.618 47.6723338,15.6646662 47.579,15.758 C47.4856662,15.8513338 47.439,15.9633327 47.439,16.094 L47.439,19.048 C47.439,19.1786673 47.4856662,19.2953328 47.579,19.398 C47.6723338,19.5006672 47.7889993,19.552 47.929,19.552 L49.777,19.552 Z"/>
</svg>
