<svg xmlns="http://www.w3.org/2000/svg" width="70" height="32" viewBox="0 0 70 32">
  <g fill="none" fill-rule="evenodd">
    <rect width="20" height="20" x="25" y="6" fill="#4D68FF" fill-rule="nonzero" rx="2"/>
    <path fill="#FFF" d="M35.048,13.592 C35.048,14.2106698 34.9200013,14.7119981 34.664,15.096 C34.4079987,15.4800019 34.0240026,15.7466659 33.512,15.896 L33.512,15.928 C34.1413365,15.9706669 34.6159984,16.1946646 34.936,16.6 C35.2560016,17.0053354 35.416,17.5759963 35.416,18.312 C35.416,19.2933382 35.120003,20.0453307 34.528,20.568 C33.935997,21.0906693 33.0853389,21.352 31.976,21.352 C31.3466635,21.352 30.7626694,21.322667 30.224,21.264 C29.6853306,21.205333 29.2773347,21.1226672 29,21.016 L29,18.904 C29.3946686,18.978667 29.7893314,19.0319998 30.184,19.064 C30.5786686,19.0960002 31.0266642,19.112 31.528,19.112 C32.1146696,19.112 32.5226655,19.0373341 32.752,18.888 C32.9813345,18.7386659 33.096,18.4720019 33.096,18.088 C33.096,17.7359982 32.9946677,17.4800008 32.792,17.32 C32.5893323,17.1599992 32.2746688,17.08 31.848,17.08 L30.04,17.08 L30.04,15.032 L31.464,15.032 C31.9013355,15.032 32.2213323,14.9573341 32.424,14.808 C32.6266677,14.6586659 32.728,14.4186683 32.728,14.088 C32.728,13.746665 32.6400009,13.5066674 32.464,13.368 C32.2879991,13.2293326 31.9920021,13.16 31.576,13.16 C31.3199987,13.16 30.9946686,13.1813331 30.6,13.224 C30.2053314,13.2666669 29.741336,13.3306662 29.208,13.416 L29.208,11.416 C29.549335,11.2986661 30.0213303,11.2000004 30.624,11.12 C31.2266697,11.0399996 31.794664,11 32.328,11 C33.2240045,11 33.901331,11.2186645 34.36,11.656 C34.818669,12.0933355 35.048,12.7386624 35.048,13.592 Z M40.856,21.192 L38.376,21.192 L38.376,13.368 L35.992,13.64 L35.992,11.56 L40.856,11 L40.856,21.192 Z"/>
  </g>
</svg>
