<svg xmlns="http://www.w3.org/2000/svg" width="70" height="32" viewBox="0 0 70 32">
  <path fill="#50575D" fill-rule="evenodd" d="M15.855,15.282 C15.855,15.1419993 15.9016662,15.0253338 15.995,14.932 C16.0883338,14.8386662 16.2049993,14.792 16.345,14.792 L24.661,14.792 C24.8010007,14.792 24.9176662,14.8386662 25.011,14.932 C25.1043338,15.0253338 25.151,15.1419993 25.151,15.282 L25.151,15.436 C25.151,15.5760007 25.1043338,15.6949995 25.011,15.793 C24.9176662,15.8910005 24.8010007,15.94 24.661,15.94 L16.345,15.94 C16.2049993,15.94 16.0883338,15.8910005 15.995,15.793 C15.9016662,15.6949995 15.855,15.5760007 15.855,15.436 L15.855,15.282 Z M39.641,10.48 C39.641,10.6106673 39.5920005,10.7273328 39.494,10.83 C39.3959995,10.9326672 39.2770007,10.984 39.137,10.984 L30.807,10.984 C30.6763327,10.984 30.5643338,10.9326672 30.471,10.83 C30.3776662,10.7273328 30.331,10.6106673 30.331,10.48 L30.331,10.172 C30.331,10.0413327 30.3776662,9.92466718 30.471,9.822 C30.5643338,9.71933282 30.6763327,9.668 30.807,9.668 L39.137,9.668 C39.2770007,9.668 39.3959995,9.71933282 39.494,9.822 C39.5920005,9.92466718 39.641,10.0413327 39.641,10.172 L39.641,10.48 Z M39.641,22.086 C39.641,22.2166673 39.5920005,22.3309995 39.494,22.429 C39.3959995,22.5270005 39.2770007,22.576 39.137,22.576 L30.807,22.576 C30.6763327,22.576 30.5643338,22.5270005 30.471,22.429 C30.3776662,22.3309995 30.331,22.2166673 30.331,22.086 L30.331,21.778 C30.331,21.6379993 30.3776662,21.5213338 30.471,21.428 C30.5643338,21.3346662 30.6763327,21.288 30.807,21.288 L39.137,21.288 C39.2770007,21.288 39.3959995,21.3346662 39.494,21.428 C39.5920005,21.5213338 39.641,21.6379993 39.641,21.778 L39.641,22.086 Z M39.263,16.234 C39.263,16.3646673 39.2116672,16.4789995 39.109,16.577 C39.0063328,16.6750005 38.8896673,16.724 38.759,16.724 L31.199,16.724 C31.0683327,16.724 30.9540005,16.6750005 30.856,16.577 C30.7579995,16.4789995 30.709,16.3646673 30.709,16.234 L30.709,15.912 C30.709,15.7813327 30.7579995,15.6693338 30.856,15.576 C30.9540005,15.4826662 31.0683327,15.436 31.199,15.436 L38.759,15.436 C38.8896673,15.436 39.0063328,15.4826662 39.109,15.576 C39.2116672,15.6693338 39.263,15.7813327 39.263,15.912 L39.263,16.234 Z M46.249,21.288 C46.3796673,21.288 46.4986661,21.2413338 46.606,21.148 C46.7133339,21.0546662 46.7763332,20.9380007 46.795,20.798 L47.341,16.052 C47.3596668,15.9119993 47.3270004,15.7953338 47.243,15.702 C47.1589996,15.6086662 47.0470007,15.562 46.907,15.562 L45.297,15.562 C45.1663327,15.562 45.0543338,15.5130005 44.961,15.415 C44.8676662,15.3169995 44.821,15.1980007 44.821,15.058 L44.821,14.764 C44.821,14.6239993 44.8676662,14.5073338 44.961,14.414 C45.0543338,14.3206662 45.1663327,14.274 45.297,14.274 L47.061,14.274 C47.1916673,14.274 47.3106661,14.2250005 47.418,14.127 C47.5253339,14.0289995 47.5883332,13.9100007 47.607,13.77 L47.859,11.488 C47.8776668,11.3573327 47.8450004,11.2430005 47.761,11.145 C47.6769996,11.0469995 47.5696673,10.998 47.439,10.998 L45.297,10.998 C45.1663327,10.998 45.0543338,10.9513338 44.961,10.858 C44.8676662,10.7646662 44.821,10.6526673 44.821,10.522 L44.821,10.2 C44.821,10.0693327 44.8676662,9.9573338 44.961,9.864 C45.0543338,9.7706662 45.1663327,9.724 45.297,9.724 L53.613,9.724 C53.7436673,9.724 53.8603328,9.7706662 53.963,9.864 C54.0656672,9.9573338 54.117,10.0693327 54.117,10.2 L54.117,10.522 C54.117,10.6526673 54.0656672,10.7646662 53.963,10.858 C53.8603328,10.9513338 53.7436673,10.998 53.613,10.998 L49.707,10.998 C49.5669993,10.998 49.4456672,11.0469995 49.343,11.145 C49.2403328,11.2430005 49.1796668,11.3573327 49.161,11.488 L48.895,13.77 C48.8763332,13.9100007 48.9113329,14.0289995 49,14.127 C49.0886671,14.2250005 49.1983327,14.274 49.329,14.274 L53.123,14.274 C53.197667,14.274 53.265333,14.3206662 53.326,14.414 C53.386667,14.5073338 53.417,14.6239993 53.417,14.764 L53.417,20.798 C53.417,20.9380007 53.4496663,21.0546662 53.515,21.148 C53.5803337,21.2413338 53.6643328,21.288 53.767,21.288 C53.8696672,21.288 53.9536663,21.3346662 54.019,21.428 C54.0843337,21.5213338 54.117,21.6379993 54.117,21.778 L54.117,22.086 C54.117,22.2166673 54.0656672,22.3309995 53.963,22.429 C53.8603328,22.5270005 53.7436673,22.576 53.613,22.576 L45.297,22.576 C45.1663327,22.576 45.0543338,22.5270005 44.961,22.429 C44.8676662,22.3309995 44.821,22.2166673 44.821,22.086 L44.821,21.778 C44.821,21.6379993 44.8676662,21.5213338 44.961,21.428 C45.0543338,21.3346662 45.1663327,21.288 45.297,21.288 L46.249,21.288 Z M48.083,20.798 C48.0643332,20.9380007 48.0946663,21.0546662 48.174,21.148 C48.2533337,21.2413338 48.3629993,21.288 48.503,21.288 L51.625,21.288 C51.7650007,21.288 51.8839995,21.2413338 51.982,21.148 C52.0800005,21.0546662 52.129,20.9380007 52.129,20.798 L52.129,16.052 C52.129,15.9119993 52.0800005,15.7953338 51.982,15.702 C51.8839995,15.6086662 51.7650007,15.562 51.625,15.562 L49.175,15.562 C49.0443327,15.562 48.9253339,15.6086662 48.818,15.702 C48.7106661,15.7953338 48.6476668,15.9119993 48.629,16.052 L48.083,20.798 Z"/>
</svg>
