<svg xmlns="http://www.w3.org/2000/svg" width="70" height="32" viewBox="0 0 70 32">
  <path fill="#50575D" fill-rule="evenodd" d="M10.684,18.888 L10.684,20.918 L5,20.918 L5,18.888 L7.982,15.738 C8.17800098,15.541999 8.31566627,15.3576675 8.395,15.185 C8.47433373,15.0123325 8.514,14.8233344 8.514,14.618 C8.514,14.4033323 8.45333394,14.2400006 8.332,14.128 C8.21066606,14.0159994 8.0333345,13.96 7.8,13.96 C7.50133184,13.96 7.15133534,13.9809998 6.75,14.023 C6.34866466,14.0650002 5.90066914,14.1326662 5.406,14.226 L5.406,12.336 C5.76066844,12.2333328 6.19233079,12.151667 6.701,12.091 C7.20966921,12.030333 7.71133086,12 8.206,12 C8.99000392,12 9.59899783,12.202998 10.033,12.609 C10.4670022,13.015002 10.684,13.5773297 10.684,14.296 C10.684,14.7813358 10.6116674,15.2036649 10.467,15.563 C10.3223326,15.9223351 10.0773351,16.2793316 9.732,16.634 L7.576,18.888 L10.684,18.888 Z M18.65,16.522 C18.65,18.1833416 18.3933359,19.3546633 17.88,20.036 C17.3666641,20.7173367 16.44734,21.058 15.122,21.058 C14.3006626,21.058 13.6590023,20.9646676 13.197,20.778 C12.7349977,20.5913324 12.3826679,20.2833355 12.14,19.854 C11.943999,19.5179983 11.8016671,19.0840027 11.713,18.552 C11.6243329,18.0199973 11.58,17.3433374 11.58,16.522 C11.58,14.8699917 11.8389974,13.7033367 12.357,13.022 C12.8750026,12.3406633 13.79666,12 15.122,12 C15.9433374,12 16.5849977,12.0933324 17.047,12.28 C17.5090023,12.4666676 17.8613321,12.7746645 18.104,13.204 C18.2906676,13.5306683 18.4283329,13.9599973 18.517,14.492 C18.6056671,15.0240027 18.65,15.7006626 18.65,16.522 Z M16.452,16.522 C16.452,15.4579947 16.3703342,14.7650016 16.207,14.443 C16.0436659,14.1209984 15.6820028,13.96 15.122,13.96 C14.5619972,13.96 14.1980008,14.1233317 14.03,14.45 C13.8619992,14.7766683 13.778,15.4673281 13.778,16.522 C13.778,17.5486718 13.8619992,18.2229984 14.03,18.545 C14.1980008,18.8670016 14.5619972,19.028 15.122,19.028 C15.6820028,19.028 16.0436659,18.8693349 16.207,18.552 C16.3703342,18.2346651 16.452,17.5580052 16.452,16.522 Z M23.466,20.918 L21.296,20.918 L21.296,14.072 L19.21,14.31 L19.21,12.49 L23.466,12 L23.466,20.918 Z M27.68,12 C28.9213395,12 29.7799976,12.3126635 30.256,12.938 C30.7320024,13.5633365 30.97,14.6833253 30.97,16.298 C30.97,17.9406749 30.6340034,19.1446628 29.962,19.91 C29.2899966,20.6753372 28.2400071,21.058 26.812,21.058 C26.5319986,21.058 26.2426682,21.0463334 25.944,21.023 C25.6453318,20.9996666 25.4306673,20.9693335 25.3,20.932 L25.3,19.098 C25.4680008,19.1166668 25.6826654,19.1329999 25.944,19.147 C26.2053346,19.1610001 26.4946651,19.168 26.812,19.168 C27.4560032,19.168 27.9156653,19.0466679 28.191,18.804 C28.4663347,18.5613321 28.6459996,18.1273365 28.73,17.502 C28.3939983,17.6700008 28.0813348,17.7889997 27.792,17.859 C27.5026652,17.9290004 27.2040015,17.964 26.896,17.964 C26.0933293,17.964 25.496002,17.730669 25.104,17.264 C24.711998,16.797331 24.516,16.0880048 24.516,15.136 C24.516,14.1466617 24.7936639,13.3766694 25.349,12.826 C25.9043361,12.2753306 26.6813283,12 27.68,12 Z M27.68,13.904 C27.3253316,13.904 27.0616675,13.9949991 26.889,14.177 C26.7163325,14.3590009 26.63,14.6413314 26.63,15.024 C26.63,15.4626689 26.697666,15.7613325 26.833,15.92 C26.968334,16.0786675 27.2366647,16.158 27.638,16.158 C27.8713345,16.158 28.0836657,16.1370002 28.275,16.095 C28.4663343,16.0529998 28.6413325,15.9900004 28.8,15.906 C28.7906666,15.0753292 28.7136674,14.5340013 28.569,14.282 C28.4243326,14.0299987 28.1280022,13.904 27.68,13.904 Z M36.304,15.668 L36.304,17.25 L31.838,17.25 L31.838,15.668 L36.304,15.668 Z M40.434,20.918 L38.264,20.918 L38.264,14.072 L36.178,14.31 L36.178,12.49 L40.434,12 L40.434,20.918 Z M47.182,18.888 L47.182,20.918 L41.498,20.918 L41.498,18.888 L44.48,15.738 C44.676001,15.541999 44.8136663,15.3576675 44.893,15.185 C44.9723337,15.0123325 45.012,14.8233344 45.012,14.618 C45.012,14.4033323 44.9513339,14.2400006 44.83,14.128 C44.7086661,14.0159994 44.5313345,13.96 44.298,13.96 C43.9993318,13.96 43.6493353,13.9809998 43.248,14.023 C42.8466647,14.0650002 42.3986691,14.1326662 41.904,14.226 L41.904,12.336 C42.2586684,12.2333328 42.6903308,12.151667 43.199,12.091 C43.7076692,12.030333 44.2093309,12 44.704,12 C45.4880039,12 46.0969978,12.202998 46.531,12.609 C46.9650022,13.015002 47.182,13.5773297 47.182,14.296 C47.182,14.7813358 47.1096674,15.2036649 46.965,15.563 C46.8203326,15.9223351 46.5753351,16.2793316 46.23,16.634 L44.074,18.888 L47.182,18.888 Z M52.334,15.668 L52.334,17.25 L47.868,17.25 L47.868,15.668 L52.334,15.668 Z M60.286,16.522 C60.286,18.1833416 60.0293359,19.3546633 59.516,20.036 C59.0026641,20.7173367 58.08334,21.058 56.758,21.058 C55.9366626,21.058 55.2950023,20.9646676 54.833,20.778 C54.3709977,20.5913324 54.0186679,20.2833355 53.776,19.854 C53.579999,19.5179983 53.4376671,19.0840027 53.349,18.552 C53.2603329,18.0199973 53.216,17.3433374 53.216,16.522 C53.216,14.8699917 53.4749974,13.7033367 53.993,13.022 C54.5110026,12.3406633 55.43266,12 56.758,12 C57.5793374,12 58.2209977,12.0933324 58.683,12.28 C59.1450023,12.4666676 59.4973321,12.7746645 59.74,13.204 C59.9266676,13.5306683 60.0643329,13.9599973 60.153,14.492 C60.2416671,15.0240027 60.286,15.7006626 60.286,16.522 Z M58.088,16.522 C58.088,15.4579947 58.0063342,14.7650016 57.843,14.443 C57.6796659,14.1209984 57.3180028,13.96 56.758,13.96 C56.1979972,13.96 55.8340008,14.1233317 55.666,14.45 C55.4979992,14.7766683 55.414,15.4673281 55.414,16.522 C55.414,17.5486718 55.4979992,18.2229984 55.666,18.545 C55.8340008,18.8670016 56.1979972,19.028 56.758,19.028 C57.3180028,19.028 57.6796659,18.8693349 57.843,18.552 C58.0063342,18.2346651 58.088,17.5580052 58.088,16.522 Z M65.102,20.918 L62.932,20.918 L62.932,14.072 L60.846,14.31 L60.846,12.49 L65.102,12 L65.102,20.918 Z"/>
</svg>
