<svg xmlns="http://www.w3.org/2000/svg" width="70" height="32" viewBox="0 0 70 32">
  <path fill="#4D68FF" fill-rule="evenodd" d="M21.846,18.202 C21.846,19.0886711 21.5870026,19.7396646 21.069,20.155 C20.5509974,20.5703354 19.7366722,20.778 18.626,20.778 L15,20.778 L15,12 L18.626,12 C19.634005,12 20.3503312,12.1749982 20.775,12.525 C21.1996688,12.8750018 21.412,13.4606626 21.412,14.282 C21.412,14.8046693 21.3420007,15.2036653 21.202,15.479 C21.0619993,15.7543347 20.7820021,15.9666659 20.362,16.116 C20.8660025,16.2186672 21.2393321,16.4426649 21.482,16.788 C21.7246679,17.1333351 21.846,17.6046637 21.846,18.202 Z M19.41,14.604 C19.41,14.2959985 19.3516672,14.0813339 19.235,13.96 C19.1183328,13.8386661 18.9153348,13.778 18.626,13.778 L17.17,13.778 L17.17,15.556 L18.626,15.556 C18.9153348,15.556 19.1183328,15.4836674 19.235,15.339 C19.3516672,15.1943326 19.41,14.9493351 19.41,14.604 Z M19.746,18.062 C19.746,17.7259983 19.6620008,17.490334 19.494,17.355 C19.3259992,17.219666 19.0366687,17.152 18.626,17.152 L17.17,17.152 L17.17,18.93 L18.626,18.93 C19.0366687,18.93 19.3259992,18.8646673 19.494,18.734 C19.6620008,18.6033327 19.746,18.3793349 19.746,18.062 Z M25.038,20.918 C24.2539961,20.918 23.6683353,20.7243353 23.281,20.337 C22.8936647,19.9496647 22.7,19.3640039 22.7,18.58 L22.7,13.862 L24.8,13.862 L24.8,18.3 C24.8,18.5333345 24.8699993,18.7013328 25.01,18.804 C25.1500007,18.9066672 25.3739985,18.958 25.682,18.958 C25.8593342,18.958 26.0483323,18.9440001 26.249,18.916 C26.4496677,18.8879999 26.6526656,18.8460003 26.858,18.79 L26.858,13.862 L28.958,13.862 L28.958,20.778 L26.998,20.778 L26.942,20.4 L26.914,20.4 C26.5873317,20.5586675 26.258335,20.6846662 25.927,20.778 C25.595665,20.8713338 25.2993346,20.918 25.038,20.918 Z M30.61,15.612 L29.798,15.612 L29.798,13.862 L30.68,13.862 L30.946,12.252 L32.71,12.252 L32.71,13.862 L34.67,13.862 L34.67,15.612 L32.71,15.612 L32.71,18.3 C32.71,18.5613346 32.777666,18.7363329 32.913,18.825 C33.048334,18.9136671 33.3166647,18.958 33.718,18.958 C33.8580007,18.958 34.0306656,18.9463334 34.236,18.923 C34.4413344,18.8996665 34.6139993,18.8740001 34.754,18.846 L34.754,20.638 C34.6046659,20.7033337 34.3736682,20.766333 34.061,20.827 C33.7483318,20.887667 33.4706679,20.918 33.228,20.918 C32.294662,20.918 31.625002,20.7196687 31.219,20.323 C30.812998,19.9263313 30.61,19.2800045 30.61,18.384 L30.61,15.612 Z M35.944,15.612 L35.132,15.612 L35.132,13.862 L36.014,13.862 L36.28,12.252 L38.044,12.252 L38.044,13.862 L40.004,13.862 L40.004,15.612 L38.044,15.612 L38.044,18.3 C38.044,18.5613346 38.111666,18.7363329 38.247,18.825 C38.382334,18.9136671 38.6506647,18.958 39.052,18.958 C39.1920007,18.958 39.3646656,18.9463334 39.57,18.923 C39.7753344,18.8996665 39.9479993,18.8740001 40.088,18.846 L40.088,20.638 C39.9386659,20.7033337 39.7076682,20.766333 39.395,20.827 C39.0823318,20.887667 38.8046679,20.918 38.562,20.918 C37.628662,20.918 36.959002,20.7196687 36.553,20.323 C36.146998,19.9263313 35.944,19.2800045 35.944,18.384 L35.944,15.612 Z M47.34,17.32 C47.34,18.6173398 47.0786693,19.5413306 46.556,20.092 C46.0333307,20.6426694 45.1560062,20.918 43.924,20.918 C42.6919938,20.918 41.8146693,20.6426694 41.292,20.092 C40.7693307,19.5413306 40.508,18.6173398 40.508,17.32 C40.508,16.0226602 40.7693307,15.0986694 41.292,14.548 C41.8146693,13.9973306 42.6919938,13.722 43.924,13.722 C45.1560062,13.722 46.0333307,13.9973306 46.556,14.548 C47.0786693,15.0986694 47.34,16.0226602 47.34,17.32 Z M42.608,17.292 C42.608,18.0013369 42.6849992,18.4586656 42.839,18.664 C42.9930008,18.8693344 43.3546638,18.972 43.924,18.972 C44.4933362,18.972 44.8549992,18.8693344 45.009,18.664 C45.1630008,18.4586656 45.24,18.0013369 45.24,17.292 C45.24,16.5826631 45.1630008,16.1253344 45.009,15.92 C44.8549992,15.7146656 44.4933362,15.612 43.924,15.612 C43.3546638,15.612 42.9930008,15.7146656 42.839,15.92 C42.6849992,16.1253344 42.608,16.5826631 42.608,17.292 Z M50.392,20.778 L48.292,20.778 L48.292,13.862 L50.112,13.862 L50.196,14.59 L50.238,14.59 C50.5366682,14.2819985 50.8609982,14.060334 51.211,13.925 C51.5610018,13.789666 51.9833309,13.722 52.478,13.722 C53.2620039,13.722 53.8546647,13.9133314 54.256,14.296 C54.6573353,14.6786686 54.858,15.2433296 54.858,15.99 L54.858,20.778 L52.758,20.778 L52.758,16.27 C52.758,16.0553323 52.6716675,15.8920006 52.499,15.78 C52.3263325,15.6679994 52.0720017,15.612 51.736,15.612 C51.4839987,15.612 51.2413345,15.6399997 51.008,15.696 C50.7746655,15.7520003 50.5693342,15.8313328 50.392,15.934 L50.392,20.778 Z"/>
</svg>
