<svg xmlns="http://www.w3.org/2000/svg" width="70" height="32" viewBox="0 0 70 32">
  <g fill="none" fill-rule="evenodd" transform="translate(8 12)">
    <rect width="5" height="8" x="16" fill="#747E90" fill-rule="nonzero"/>
    <rect width="5" height="8" x="28" fill="#747E90" fill-rule="nonzero"/>
    <rect width="5" height="8" x="22" fill="#747E90" fill-rule="nonzero"/>
    <rect width="5" height="8" x="34" fill="#747E90" fill-rule="nonzero"/>
    <path fill="#747E90" d="M4,0.900514938 L4,0.0846109867 C4,0.0138922742 3.93529412,-0.0251613431 3.89159664,0.0181142869 L0.103361345,3.73454095 C-0.0344537815,3.86964536 -0.0344537815,4.13035464 0.103361345,4.26545905 L3.89159664,7.98188571 C3.93613445,8.02516134 4,7.98610773 4,7.91538901 L4,7.09948506 C4,7.04776541 3.98067227,6.99815676 3.9487395,6.96649166 L0.923529412,4.00052775 L3.9487395,1.03350834 C3.98067227,1.00184324 4,0.952234593 4,0.900514938 Z" transform="matrix(-1 0 0 1 54 0)"/>
    <path fill="#CCC" d="M4,0.900514938 L4,0.0846109867 C4,0.0138922742 3.93529412,-0.0251613431 3.89159664,0.0181142869 L0.103361345,3.73454095 C-0.0344537815,3.86964536 -0.0344537815,4.13035464 0.103361345,4.26545905 L3.89159664,7.98188571 C3.93613445,8.02516134 4,7.98610773 4,7.91538901 L4,7.09948506 C4,7.04776541 3.98067227,6.99815676 3.9487395,6.96649166 L0.923529412,4.00052775 L3.9487395,1.03350834 C3.98067227,1.00184324 4,0.952234593 4,0.900514938 Z"/>
  </g>
</svg>
