<svg xmlns="http://www.w3.org/2000/svg" width="70" height="32" viewBox="0 0 70 32">
  <g fill="none" fill-rule="evenodd">
    <rect width="58" height="20" x="6" y="6" fill="#4D68FF" fill-rule="nonzero" opacity=".1" rx="2"/>
    <rect width="20" height="20" x="45" y="6" fill="#4D68FF" fill-rule="nonzero" rx="2"/>
    <rect width="20" height="20" x="5" y="6" fill="#4D68FF" fill-rule="nonzero" rx="2"/>
    <path fill="#FFF" d="M13.256,20.918 L11.086,20.918 L11.086,14.072 L9,14.31 L9,12.49 L13.256,12 L13.256,20.918 Z M20.004,18.888 L20.004,20.918 L14.32,20.918 L14.32,18.888 L17.302,15.738 C17.498001,15.541999 17.6356663,15.3576675 17.715,15.185 C17.7943337,15.0123325 17.834,14.8233344 17.834,14.618 C17.834,14.4033323 17.7733339,14.2400006 17.652,14.128 C17.5306661,14.0159994 17.3533345,13.96 17.12,13.96 C16.8213318,13.96 16.4713353,13.9809998 16.07,14.023 C15.6686647,14.0650002 15.2206691,14.1326662 14.726,14.226 L14.726,12.336 C15.0806684,12.2333328 15.5123308,12.151667 16.021,12.091 C16.5296692,12.030333 17.0313309,12 17.526,12 C18.3100039,12 18.9189978,12.202998 19.353,12.609 C19.7870022,13.015002 20.004,13.5773297 20.004,14.296 C20.004,14.7813358 19.9316674,15.2036649 19.787,15.563 C19.6423326,15.9223351 19.3973351,16.2793316 19.052,16.634 L16.896,18.888 L20.004,18.888 Z"/>
    <g fill="#FFF" transform="translate(48 12)">
      <path d="M6.67,6.888 L6.67,8.918 L0.986,8.918 L0.986,6.888 L3.968,3.738 C4.16400098,3.54199902 4.30166627,3.35766753 4.381,3.185 C4.46033373,3.01233247 4.5,2.82333436 4.5,2.618 C4.5,2.40333226 4.43933394,2.24000056 4.318,2.128 C4.19666606,2.01599944 4.0193345,1.96 3.786,1.96 C3.48733184,1.96 3.13733534,1.98099979 2.736,2.023 C2.33466466,2.06500021 1.88666914,2.1326662 1.392,2.226 L1.392,0.336 C1.74666844,0.23333282 2.17833079,0.15166697 2.687,0.091 C3.19566921,0.03033303 3.69733086,-1.67865721e-13 4.192,-1.67865721e-13 C4.97600392,-1.67865721e-13 5.58499783,0.20299797 6.019,0.609 C6.45300217,1.01500203 6.67,1.57732974 6.67,2.296 C6.67,2.78133576 6.59766739,3.20366487 6.453,3.563 C6.30833261,3.92233513 6.06333506,4.27933156 5.718,4.634 L3.562,6.888 L6.67,6.888 Z"/>
      <polygon points="13.734 4.9 13.734 6.79 12.782 6.79 12.782 8.778 10.612 8.778 10.612 6.79 6.986 6.79 6.986 4.9 7.98 0 10.066 0 9.184 4.9 10.612 4.9 10.612 1.54 12.782 1.54 12.782 4.9"/>
    </g>
    <g fill="#747E90" fill-rule="nonzero" transform="translate(30 15)">
      <circle cx="1" cy="1" r="1"/>
      <circle cx="5" cy="1" r="1"/>
      <circle cx="9" cy="1" r="1"/>
    </g>
  </g>
</svg>
