<svg xmlns="http://www.w3.org/2000/svg" width="70" height="32" viewBox="0 0 70 32">
  <g fill="none" fill-rule="evenodd">
    <rect width="42" height="16" x="14" y="8" stroke="#CCC" stroke-width="2" rx="2"/>
    <rect width="5" height="8" x="22" y="12" fill="#747E90" fill-rule="nonzero"/>
    <rect width="5" height="8" x="28" y="12" fill="#747E90" fill-rule="nonzero"/>
    <rect width="5" height="8" x="34" y="12" fill="#747E90" fill-rule="nonzero"/>
    <g transform="translate(43 12)">
      <rect width="8" height="8" fill="#000" opacity="0"/>
      <path fill="#747E90" d="M1.2453125,2.38046875 C1.29140625,2.28203125 1.390625,2.21875 1.5,2.21875 L6.5,2.21875 C6.609375,2.21875 6.70859375,2.28203125 6.7546875,2.38046875 C6.80078125,2.47890625 6.7859375,2.59609375 6.71640625,2.6796875 L4.21640625,5.6796875 C4.16328125,5.74375 4.08359375,5.78125 4,5.78125 C3.91640625,5.78125 3.8375,5.74453125 3.78359375,5.6796875 L1.28359375,2.6796875 C1.240625,2.628125 1.21875,2.5640625 1.21875,2.49921875 C1.21875,2.459375 1.22734375,2.41875 1.2453125,2.38046875 Z"/>
    </g>
  </g>
</svg>
