<svg xmlns="http://www.w3.org/2000/svg" width="70" height="32" viewBox="0 0 70 32">
  <g fill="none" fill-rule="evenodd">
    <path fill="#747E90" d="M37.8105542,24 L35.3293898,27 L32.8482254,24 L14,24 C12.8954305,24 12,23.1045695 12,22 L12,9 C12,7.8954305 12.8954305,7 14,7 L56,7 C57.1045695,7 58,7.8954305 58,9 L58,22 C58,23.1045695 57.1045695,24 56,24 L37.8105542,24 Z"/>
    <path fill="#FFF" d="M22.57,16.28 C22.6233336,16.1999996 22.6683331,16.1283337 22.705,16.065 C22.7416668,16.0016664 22.76,15.9666667 22.76,15.96 C22.76,15.9466666 22.726667,15.94 22.66,15.94 L20.03,15.94 C19.9366662,15.94 19.856667,15.9016671 19.79,15.825 C19.723333,15.7483329 19.69,15.6633338 19.69,15.57 L19.69,15.36 C19.69,15.2599995 19.723333,15.176667 19.79,15.11 C19.856667,15.043333 19.9366662,15.01 20.03,15.01 L22.41,15.01 C22.5100005,15.01 22.593333,14.9733337 22.66,14.9 C22.726667,14.8266663 22.76,14.7433338 22.76,14.65 L22.76,13.5 C22.76,13.4066662 22.726667,13.3250003 22.66,13.255 C22.593333,13.1849996 22.5100005,13.15 22.41,13.15 L20.78,13.15 C20.6866662,13.15 20.5800006,13.1266669 20.46,13.08 C20.3399994,13.0333331 20.2433337,12.976667 20.17,12.91 L19.96,12.73 C19.8866663,12.663333 19.8233336,12.5733339 19.77,12.46 C19.7166664,12.3466661 19.69,12.2400005 19.69,12.14 L19.69,11.27 C19.69,11.1699995 19.723333,11.086667 19.79,11.02 C19.856667,10.953333 19.9366662,10.92 20.03,10.92 L20.27,10.92 C20.3700005,10.92 20.453333,10.953333 20.52,11.02 C20.586667,11.086667 20.62,11.1699995 20.62,11.27 L20.62,11.87 C20.62,11.9700005 20.653333,12.053333 20.72,12.12 C20.786667,12.186667 20.8699995,12.22 20.97,12.22 L22.41,12.22 C22.5100005,12.22 22.593333,12.186667 22.66,12.12 C22.726667,12.053333 22.76,11.9700005 22.76,11.87 L22.76,11 C22.76,10.9066662 22.7966663,10.826667 22.87,10.76 C22.9433337,10.693333 23.0299995,10.66 23.13,10.66 L23.34,10.66 C23.4333338,10.66 23.5149997,10.693333 23.585,10.76 C23.6550004,10.826667 23.69,10.9066662 23.69,11 L23.69,11.87 C23.69,11.9700005 23.7249997,12.053333 23.795,12.12 C23.8650003,12.186667 23.9466662,12.22 24.04,12.22 L26,12.22 C26.1000005,12.22 26.1849996,12.253333 26.255,12.32 C26.3250003,12.386667 26.36,12.4733328 26.36,12.58 L26.36,12.8 C26.36,12.8933338 26.3250003,12.9749996 26.255,13.045 C26.1849996,13.1150003 26.1000005,13.15 26,13.15 L24.04,13.15 C23.9466662,13.15 23.8650003,13.1849996 23.795,13.255 C23.7249997,13.3250003 23.69,13.4066662 23.69,13.5 L23.69,14.65 C23.69,14.7433338 23.7249997,14.8266663 23.795,14.9 C23.8650003,14.9733337 23.9466662,15.01 24.04,15.01 L26,15.01 C26.1000005,15.01 26.1849996,15.043333 26.255,15.11 C26.3250003,15.176667 26.36,15.2599995 26.36,15.36 L26.36,15.57 C26.36,15.6633338 26.3250003,15.7483329 26.255,15.825 C26.1849996,15.9016671 26.1000005,15.94 26,15.94 L23.79,15.94 C23.723333,15.94 23.69,15.9466666 23.69,15.96 C23.69,15.9733334 23.7066665,16.0099997 23.74,16.07 C23.7733335,16.1300003 23.8166664,16.2066662 23.87,16.3 L25.25,18.6 C25.3033336,18.6866671 25.3816662,18.7599997 25.485,18.82 C25.5883338,18.8800003 25.6899995,18.91 25.79,18.91 L26.03,18.91 C26.1233338,18.91 26.2049996,18.943333 26.275,19.01 C26.3450003,19.076667 26.38,19.1599995 26.38,19.26 L26.38,19.49 C26.38,19.5833338 26.3450003,19.6649996 26.275,19.735 C26.2049996,19.8050004 26.1233338,19.84 26.03,19.84 L25.27,19.84 C25.1699995,19.84 25.0700005,19.8100003 24.97,19.75 C24.8699995,19.6899997 24.7933336,19.6166671 24.74,19.53 L23.4,17.32 C23.3466664,17.2266662 23.2850003,17.18 23.215,17.18 C23.1449996,17.18 23.0833336,17.2266662 23.03,17.32 L21.61,19.54 C21.5566664,19.6200004 21.4783338,19.6899997 21.375,19.75 C21.2716661,19.8100003 21.1733338,19.84 21.08,19.84 L20.07,19.84 C19.9699995,19.84 19.886667,19.8050004 19.82,19.735 C19.753333,19.6649996 19.72,19.5833338 19.72,19.49 L19.72,19.26 C19.72,19.1599995 19.753333,19.076667 19.82,19.01 C19.886667,18.943333 19.9699995,18.91 20.07,18.91 L20.62,18.91 C20.7133338,18.91 20.8116662,18.8800003 20.915,18.82 C21.0183338,18.7599997 21.0966664,18.6866671 21.15,18.6 L22.57,16.28 Z M33.73,16.42 C33.73,16.5133338 33.7116669,16.6249993 33.675,16.755 C33.6383332,16.8850007 33.5933336,16.9899996 33.54,17.07 L33.16,17.69 C33.0999997,17.7700004 33.0683334,17.8666661 33.065,17.98 C33.0616666,18.0933339 33.0866664,18.1899996 33.14,18.27 L33.36,18.61 C33.4133336,18.6900004 33.478333,18.7599997 33.555,18.82 C33.6316671,18.8800003 33.703333,18.91 33.77,18.91 C33.836667,18.91 33.8899998,18.943333 33.93,19.01 C33.9700002,19.076667 33.99,19.1599995 33.99,19.26 L33.99,19.49 C33.99,19.5833338 33.956667,19.6649996 33.89,19.735 C33.823333,19.8050004 33.7400005,19.84 33.64,19.84 L33.47,19.84 C33.3766662,19.84 33.2766672,19.8100003 33.17,19.75 C33.0633328,19.6899997 32.9833336,19.6200004 32.93,19.54 L32.62,19.07 C32.5666664,18.9899996 32.5033337,18.95 32.43,18.95 C32.3566663,18.95 32.2966669,18.9899996 32.25,19.07 L31.94,19.54 C31.8866664,19.6200004 31.8066672,19.6899997 31.7,19.75 C31.5933328,19.8100003 31.4933338,19.84 31.4,19.84 L31.13,19.84 C31.0299995,19.84 30.946667,19.8050004 30.88,19.735 C30.813333,19.6649996 30.78,19.5833338 30.78,19.49 L30.78,19.26 C30.78,19.1599995 30.8049998,19.076667 30.855,19.01 C30.9050003,18.943333 30.9666663,18.91 31.04,18.91 C31.1133337,18.91 31.1949995,18.8800003 31.285,18.82 C31.3750005,18.7599997 31.4466664,18.6900004 31.5,18.61 L31.71,18.26 C31.7633336,18.1866663 31.7883333,18.0933339 31.785,17.98 C31.7816666,17.8666661 31.7533336,17.7700004 31.7,17.69 L31.32,17.07 C31.2599997,16.9833329 31.2133335,16.8766673 31.18,16.75 C31.1466665,16.6233327 31.13,16.5133338 31.13,16.42 L31.13,11.58 C31.1166666,11.5733333 31.1033334,11.5600001 31.09,11.54 L31.04,11.5 L31,11.44 C30.9666665,11.4066665 30.9366668,11.3450005 30.91,11.255 C30.8833332,11.1649996 30.87,11.0733338 30.87,10.98 C30.87,10.8866662 30.903333,10.8100003 30.97,10.75 C31.036667,10.6899997 31.1199995,10.66 31.22,10.66 L31.44,10.66 C31.5400005,10.66 31.623333,10.6833331 31.69,10.73 C31.756667,10.7766669 31.79,10.8299997 31.79,10.89 C31.79,10.956667 31.8249996,11.0116664 31.895,11.055 C31.9650004,11.0983335 32.0499995,11.12 32.15,11.12 L33.65,11.12 C33.7500005,11.12 33.833333,11.1549997 33.9,11.225 C33.966667,11.2950004 34,11.3766662 34,11.47 L34,11.71 C34,11.8033338 33.9866668,11.883333 33.96,11.95 C33.9333332,12.016667 33.9033335,12.05 33.87,12.05 C33.8299998,12.05 33.7966668,12.083333 33.77,12.15 C33.7433332,12.216667 33.73,12.2999995 33.73,12.4 L33.73,16.42 Z M29.67,17.69 L29.67,11.93 C29.67,11.8366662 29.636667,11.7550003 29.57,11.685 C29.503333,11.6149996 29.4233338,11.58 29.33,11.58 L28.52,11.58 C28.4266662,11.58 28.346667,11.6149996 28.28,11.685 C28.213333,11.7550003 28.18,11.8366662 28.18,11.93 L28.18,17.42 C28.18,17.5133338 28.1450004,17.5966663 28.075,17.67 C28.0049996,17.7433337 27.9233338,17.78 27.83,17.78 L27.68,17.78 C27.5866662,17.78 27.506667,17.7433337 27.44,17.67 C27.373333,17.5966663 27.34,17.5133338 27.34,17.42 L27.34,11 C27.34,10.9066662 27.373333,10.826667 27.44,10.76 C27.506667,10.693333 27.5866662,10.66 27.68,10.66 L30.16,10.66 C30.2600005,10.66 30.343333,10.693333 30.41,10.76 C30.476667,10.826667 30.51,10.9066662 30.51,11 L30.51,17.42 C30.51,17.5133338 30.476667,17.5966663 30.41,17.67 C30.343333,17.7433337 30.2600005,17.78 30.16,17.78 L30.03,17.78 C29.9366662,17.78 29.8533337,17.7716668 29.78,17.755 C29.7066663,17.7383333 29.67,17.7166668 29.67,17.69 Z M28.35,19.54 C28.2966664,19.6200004 28.2183339,19.6899997 28.115,19.75 C28.0116661,19.8100003 27.9133338,19.84 27.82,19.84 L27.68,19.84 C27.5866662,19.84 27.506667,19.8050004 27.44,19.735 C27.373333,19.6649996 27.34,19.5833338 27.34,19.49 L27.34,19.26 C27.34,19.1599995 27.3583331,19.076667 27.395,19.01 C27.4316668,18.943333 27.4766664,18.91 27.53,18.91 C27.5900003,18.91 27.6566663,18.8816669 27.73,18.825 C27.8033337,18.7683331 27.8666664,18.6966671 27.92,18.61 L28.32,17.98 C28.3733336,17.9066663 28.4199998,17.8050007 28.46,17.675 C28.5000002,17.5449993 28.52,17.4333338 28.52,17.34 L28.52,12.75 C28.52,12.6499995 28.553333,12.566667 28.62,12.5 C28.686667,12.433333 28.7666662,12.4 28.86,12.4 L29,12.4 C29.1000005,12.4 29.183333,12.433333 29.25,12.5 C29.316667,12.566667 29.35,12.6499995 29.35,12.75 L29.35,17.34 C29.35,17.4333338 29.3683331,17.5449993 29.405,17.675 C29.4416668,17.8050007 29.4866664,17.9066663 29.54,17.98 L29.94,18.61 C29.9933336,18.6966671 30.0566663,18.7683331 30.13,18.825 C30.2033337,18.8816669 30.2666664,18.91 30.32,18.91 C30.3733336,18.91 30.4183332,18.943333 30.455,19.01 C30.4916669,19.076667 30.51,19.1599995 30.51,19.26 L30.51,19.49 C30.51,19.5833338 30.476667,19.6649996 30.41,19.735 C30.343333,19.8050004 30.2600005,19.84 30.16,19.84 L30.05,19.84 C29.9499995,19.84 29.8466672,19.8100003 29.74,19.75 C29.6333328,19.6899997 29.5533336,19.6200004 29.5,19.54 L29.13,18.93 C29.0699997,18.8499996 29.0050003,18.81 28.935,18.81 C28.8649997,18.81 28.8033336,18.8499996 28.75,18.93 L28.35,19.54 Z M32.25,16.84 C32.2966669,16.9266671 32.3566663,16.97 32.43,16.97 C32.5033337,16.97 32.5633331,16.9266671 32.61,16.84 L32.71,16.68 C32.7633336,16.6066663 32.8083331,16.5066673 32.845,16.38 C32.8816669,16.2533327 32.9,16.1433338 32.9,16.05 L32.9,12.4 C32.9,12.2999995 32.866667,12.216667 32.8,12.15 C32.733333,12.083333 32.6500005,12.05 32.55,12.05 L32.31,12.05 C32.2099995,12.05 32.126667,12.083333 32.06,12.15 C31.993333,12.216667 31.96,12.2999995 31.96,12.4 L31.96,16.05 C31.96,16.1433338 31.9783332,16.2533327 32.015,16.38 C32.0516669,16.5066673 32.0966664,16.6066663 32.15,16.68 L32.25,16.84 Z M38.11,19.55 C38.0299996,19.55 37.9633336,19.5766664 37.91,19.63 C37.8566664,19.6833336 37.7850004,19.7316664 37.695,19.775 C37.6049996,19.8183335 37.5233337,19.84 37.45,19.84 C37.3766663,19.84 37.3150002,19.8050004 37.265,19.735 C37.2149998,19.6649996 37.19,19.5833338 37.19,19.49 L37.19,19.26 C37.19,19.1599995 37.2049999,19.076667 37.235,19.01 C37.2650002,18.943333 37.3033331,18.91 37.35,18.91 C37.3966669,18.91 37.4366665,18.876667 37.47,18.81 C37.5033335,18.743333 37.52,18.6566672 37.52,18.55 L37.52,16.97 C37.52,16.8766662 37.5549996,16.7933337 37.625,16.72 C37.6950004,16.6466663 37.7766662,16.61 37.87,16.61 L38.09,16.61 C38.1833338,16.61 38.2649997,16.6466663 38.335,16.72 C38.4050004,16.7933337 38.44,16.8766662 38.44,16.97 L38.44,18.15 C38.44,18.2500005 38.4616665,18.3549995 38.505,18.465 C38.5483335,18.5750005 38.5999997,18.6566664 38.66,18.71 C38.7200003,18.7633336 38.7799997,18.8099998 38.84,18.85 C38.9000003,18.8900002 38.9433332,18.91 38.97,18.91 C38.9833334,18.91 38.9999999,18.876667 39.02,18.81 C39.0400001,18.743333 39.05,18.6566672 39.05,18.55 L39.05,16.37 C39.05,16.2633328 39.0150004,16.176667 38.945,16.11 C38.8749996,16.043333 38.7900005,16.01 38.69,16.01 L37.54,16.01 C37.4466662,16.01 37.3650004,15.9750004 37.295,15.905 C37.2249997,15.8349997 37.19,15.7533338 37.19,15.66 L37.19,15.43 C37.19,15.3366662 37.2249997,15.2550003 37.295,15.185 C37.3650004,15.1149996 37.4466662,15.08 37.54,15.08 L41.33,15.08 C41.4233338,15.08 41.503333,15.1149996 41.57,15.185 C41.636667,15.2550003 41.67,15.3366662 41.67,15.43 L41.67,15.66 C41.67,15.7533338 41.636667,15.8349997 41.57,15.905 C41.503333,15.9750004 41.4233338,16.01 41.33,16.01 L40.32,16.01 C40.2266662,16.01 40.1450004,16.043333 40.075,16.11 C40.0049997,16.176667 39.97,16.2633328 39.97,16.37 L39.97,16.42 C39.97,16.5133338 40.0049997,16.5949996 40.075,16.665 C40.1450004,16.7350003 40.2266662,16.77 40.32,16.77 L41.33,16.77 C41.4233338,16.77 41.503333,16.8066663 41.57,16.88 C41.636667,16.9533337 41.67,17.0366662 41.67,17.13 L41.67,17.35 C41.67,17.4433338 41.636667,17.5249996 41.57,17.595 C41.503333,17.6650003 41.4233338,17.7 41.33,17.7 L40.32,17.7 C40.2266662,17.7 40.1450004,17.7349996 40.075,17.805 C40.0049997,17.8750004 39.97,17.9566662 39.97,18.05 L39.97,18.55 C39.97,18.6566672 40.0049997,18.743333 40.075,18.81 C40.1450004,18.876667 40.2266662,18.91 40.32,18.91 L41.33,18.91 C41.4233338,18.91 41.503333,18.943333 41.57,19.01 C41.636667,19.076667 41.67,19.1599995 41.67,19.26 L41.67,19.49 C41.67,19.5833338 41.636667,19.6649996 41.57,19.735 C41.503333,19.8050004 41.4233338,19.84 41.33,19.84 L38.89,19.84 C38.7966662,19.84 38.6933339,19.8183335 38.58,19.775 C38.4666661,19.7316664 38.3800003,19.6833336 38.32,19.63 C38.2666664,19.5766664 38.1966671,19.55 38.11,19.55 Z M36.01,19.59 C35.9366663,19.6633337 35.8416673,19.7233331 35.725,19.77 C35.6083328,19.8166669 35.5033338,19.84 35.41,19.84 L35.33,19.84 C35.2366662,19.84 35.156667,19.8050004 35.09,19.735 C35.023333,19.6649996 34.99,19.5833338 34.99,19.49 L34.99,19.26 C34.99,19.1599995 35.018333,19.076667 35.075,19.01 C35.1316669,18.943333 35.1999996,18.91 35.28,18.91 C35.3666671,18.91 35.438333,18.876667 35.495,18.81 C35.5516669,18.743333 35.58,18.6566672 35.58,18.55 L35.58,17.86 C35.58,17.7599995 35.5516669,17.6750003 35.495,17.605 C35.438333,17.5349996 35.3666671,17.5 35.28,17.5 C35.1999996,17.5 35.1316669,17.4650004 35.075,17.395 C35.018333,17.3249997 34.99,17.2400005 34.99,17.14 L34.99,16.93 C34.99,16.8299995 35.018333,16.7450003 35.075,16.675 C35.1316669,16.6049996 35.1999996,16.57 35.28,16.57 C35.3666671,16.57 35.438333,16.5350004 35.495,16.465 C35.5516669,16.3949996 35.58,16.3133338 35.58,16.22 L35.58,12.99 C35.58,12.8966662 35.5516669,12.8150004 35.495,12.745 C35.438333,12.6749997 35.3666671,12.64 35.28,12.64 C35.1999996,12.64 35.1316669,12.6050004 35.075,12.535 C35.018333,12.4649996 34.99,12.3800005 34.99,12.28 L34.99,12.07 C34.99,11.9699995 35.018333,11.8850004 35.075,11.815 C35.1316669,11.7449997 35.1999996,11.71 35.28,11.71 C35.3666671,11.71 35.438333,11.6733337 35.495,11.6 C35.5516669,11.5266663 35.58,11.4433338 35.58,11.35 L35.58,11 C35.58,10.9066662 35.613333,10.826667 35.68,10.76 C35.746667,10.693333 35.8299995,10.66 35.93,10.66 L36.15,10.66 C36.2433338,10.66 36.3249996,10.693333 36.395,10.76 C36.4650003,10.826667 36.5,10.9066662 36.5,11 L36.5,11.35 C36.5,11.4433338 36.5233331,11.5266663 36.57,11.6 C36.6166669,11.6733337 36.6766663,11.71 36.75,11.71 C36.8233337,11.71 36.8833331,11.7449997 36.93,11.815 C36.9766669,11.8850004 37,11.9699995 37,12.07 L37,12.28 C37,12.3800005 36.9766669,12.4649996 36.93,12.535 C36.8833331,12.6050004 36.8233337,12.64 36.75,12.64 C36.6766663,12.64 36.6166669,12.6749997 36.57,12.745 C36.5233331,12.8150004 36.5,12.8966662 36.5,12.99 L36.5,16.22 C36.5,16.3133338 36.5233331,16.3949996 36.57,16.465 C36.6166669,16.5350004 36.6766663,16.57 36.75,16.57 C36.8233337,16.57 36.8833331,16.6049996 36.93,16.675 C36.9766669,16.7450003 37,16.8299995 37,16.93 L37,17.14 C37,17.2400005 36.9766669,17.3249997 36.93,17.395 C36.8833331,17.4650004 36.8233337,17.5 36.75,17.5 C36.6766663,17.5 36.6166669,17.5349996 36.57,17.605 C36.5233331,17.6750003 36.5,17.7599995 36.5,17.86 L36.5,18.75 C36.5,18.8433338 36.4766669,18.9483327 36.43,19.065 C36.3833331,19.1816673 36.3233337,19.2699997 36.25,19.33 L36.01,19.59 Z M37.36,11 C37.36,10.9066662 37.3966663,10.826667 37.47,10.76 C37.5433337,10.693333 37.6266662,10.66 37.72,10.66 L41.33,10.66 C41.4233338,10.66 41.503333,10.693333 41.57,10.76 C41.636667,10.826667 41.67,10.9066662 41.67,11 L41.67,13.55 C41.67,13.6433338 41.6450003,13.7499994 41.595,13.87 C41.5449998,13.9900006 41.4900003,14.0866663 41.43,14.16 L41.18,14.39 C41.1066663,14.4633337 41.0116673,14.5233331 40.895,14.57 C40.7783328,14.6166669 40.6733338,14.64 40.58,14.64 L37.72,14.64 C37.6266662,14.64 37.5433337,14.6050004 37.47,14.535 C37.3966663,14.4649996 37.36,14.3833338 37.36,14.29 L37.36,11 Z M40.4,13.72 C40.4933338,13.72 40.573333,13.6883337 40.64,13.625 C40.706667,13.5616663 40.74,13.4933337 40.74,13.42 C40.74,13.3399996 40.706667,13.2700003 40.64,13.21 C40.573333,13.1499997 40.4933338,13.12 40.4,13.12 L38.65,13.12 C38.5566662,13.12 38.476667,13.1499997 38.41,13.21 C38.343333,13.2700003 38.31,13.3399996 38.31,13.42 C38.31,13.4933337 38.343333,13.5616663 38.41,13.625 C38.476667,13.6883337 38.5566662,13.72 38.65,13.72 L40.4,13.72 Z M38.65,11.58 C38.5566662,11.58 38.476667,11.6149996 38.41,11.685 C38.343333,11.7550003 38.31,11.8366662 38.31,11.93 C38.31,12.0300005 38.343333,12.113333 38.41,12.18 C38.476667,12.246667 38.5566662,12.28 38.65,12.28 L40.4,12.28 C40.4933338,12.28 40.573333,12.246667 40.64,12.18 C40.706667,12.113333 40.74,12.0300005 40.74,11.93 C40.74,11.8366662 40.706667,11.7550003 40.64,11.685 C40.573333,11.6149996 40.4933338,11.58 40.4,11.58 L38.65,11.58 Z M43.59,19.24 C43.5166663,19.3133337 43.4216672,19.3749998 43.305,19.425 C43.1883328,19.4750003 43.0800005,19.5 42.98,19.5 C42.8866662,19.5 42.806667,19.4650004 42.74,19.395 C42.673333,19.3249997 42.64,19.2466671 42.64,19.16 L42.64,18.93 C42.64,18.8299995 42.6649997,18.746667 42.715,18.68 C42.7650002,18.613333 42.8266663,18.58 42.9,18.58 C42.966667,18.58 43.0233331,18.546667 43.07,18.48 C43.1166669,18.413333 43.14,18.3333338 43.14,18.24 L43.14,15.66 C43.14,15.5666662 43.1749996,15.4850003 43.245,15.415 C43.3150003,15.3449997 43.3966662,15.31 43.49,15.31 L43.72,15.31 C43.8200005,15.31 43.903333,15.3449997 43.97,15.415 C44.036667,15.4850003 44.07,15.5666662 44.07,15.66 L44.07,18.42 C44.07,18.5133338 44.0466669,18.6183328 44,18.735 C43.9533331,18.8516672 43.8933337,18.943333 43.82,19.01 L43.59,19.24 Z M45.12,18.92 C45.2200005,18.92 45.3016663,18.886667 45.365,18.82 C45.4283336,18.753333 45.46,18.6700005 45.46,18.57 L45.46,14.74 C45.46,14.6466662 45.426667,14.5650004 45.36,14.495 C45.293333,14.4249997 45.2133338,14.39 45.12,14.39 L42.98,14.39 C42.8866662,14.39 42.806667,14.3550004 42.74,14.285 C42.673333,14.2149996 42.64,14.1333338 42.64,14.04 L42.64,13.83 C42.64,13.7299995 42.673333,13.6450004 42.74,13.575 C42.806667,13.5049997 42.8866662,13.47 42.98,13.47 L48.88,13.47 C48.9800005,13.47 49.063333,13.5049997 49.13,13.575 C49.196667,13.6450004 49.23,13.7299995 49.23,13.83 L49.23,14.04 C49.23,14.1333338 49.196667,14.2149996 49.13,14.285 C49.063333,14.3550004 48.9800005,14.39 48.88,14.39 L46.74,14.39 C46.6399995,14.39 46.556667,14.4249997 46.49,14.495 C46.423333,14.5650004 46.39,14.6466662 46.39,14.74 L46.39,18.76 C46.39,18.8533338 46.3666669,18.9583328 46.32,19.075 C46.2733331,19.1916673 46.2133337,19.2799997 46.14,19.34 L45.91,19.59 C45.8366663,19.6633337 45.7433339,19.7233331 45.63,19.77 C45.5166661,19.8166669 45.4100005,19.84 45.31,19.84 L45.12,19.84 C45.0266662,19.84 44.946667,19.8050004 44.88,19.735 C44.813333,19.6649996 44.78,19.5833338 44.78,19.49 L44.78,19.27 C44.78,19.1699995 44.813333,19.086667 44.88,19.02 C44.946667,18.953333 45.0266662,18.92 45.12,18.92 Z M42.82,11 C42.82,10.9066662 42.853333,10.826667 42.92,10.76 C42.986667,10.693333 43.0699995,10.66 43.17,10.66 L48.69,10.66 C48.7900005,10.66 48.873333,10.693333 48.94,10.76 C49.006667,10.826667 49.04,10.9066662 49.04,11 L49.04,11.23 C49.04,11.3233338 49.006667,11.403333 48.94,11.47 C48.873333,11.536667 48.7900005,11.57 48.69,11.57 L43.17,11.57 C43.0699995,11.57 42.986667,11.536667 42.92,11.47 C42.853333,11.403333 42.82,11.3233338 42.82,11.23 L42.82,11 Z M48.37,15.31 C48.4700005,15.31 48.5549996,15.3449997 48.625,15.415 C48.6950004,15.4850003 48.73,15.5666662 48.73,15.66 L48.73,18.24 C48.73,18.3333338 48.7533331,18.413333 48.8,18.48 C48.8466669,18.546667 48.9066663,18.58 48.98,18.58 C49.0533337,18.58 49.1133331,18.613333 49.16,18.68 C49.2066669,18.746667 49.23,18.8299995 49.23,18.93 L49.23,19.16 C49.23,19.2466671 49.196667,19.3249997 49.13,19.395 C49.063333,19.4650004 48.9833338,19.5 48.89,19.5 C48.7899995,19.5 48.6833339,19.4750003 48.57,19.425 C48.4566661,19.3749998 48.3633337,19.3133337 48.29,19.24 L48.05,19.01 C47.9766663,18.943333 47.9166669,18.8516672 47.87,18.735 C47.8233331,18.6183328 47.8,18.5133338 47.8,18.42 L47.8,15.66 C47.8,15.5666662 47.8349997,15.4850003 47.905,15.415 C47.9750003,15.3449997 48.0566662,15.31 48.15,15.31 L48.37,15.31 Z"/>
  </g>
</svg>
