<svg xmlns="http://www.w3.org/2000/svg" width="12" height="12" viewBox="0 0 12 12">
  <g fill="none" fill-rule="evenodd">
    <path fill="#E8E8E8" d="M0,4 L12,4 L12,10 C12,11.1045695 11.1045695,12 10,12 L2,12 C0.8954305,12 1.3527075e-16,11.1045695 0,10 L0,4 L0,4 Z"/>
    <path fill="#FFF" fill-rule="nonzero" d="M10.4,1.71428571 L5.6,1.71428571 C5.6,0.767511857 4.8836556,0 4,0 L1.6,0 C0.7163444,0 0,0.767511857 0,1.71428571 L0,10.2857143 C0,11.2324881 0.7163444,12 1.6,12 L10.4,12 C11.2836556,12 12,11.2324881 12,10.2857143 L12,3.42857143 C12,2.48179757 11.2836556,1.71428571 10.4,1.71428571 Z M11.2,10.2857143 C11.2,10.7591012 10.8418278,11.1428571 10.4,11.1428571 L1.6,11.1428571 C1.1581722,11.1428571 0.8,10.7591012 0.8,10.2857143 L0.8,4.28571429 L11.2,4.28571429 L11.2,10.2857143 Z M0.8,3.42857143 L0.8,1.71428571 C0.8,1.24089879 1.1581722,0.857142857 1.6,0.857142857 L4,0.857142857 C4.4418278,0.857142857 4.8,1.24089879 4.8,1.71428571 L4.8,2.57142857 L10.4,2.57142857 C10.8418278,2.57142857 11.2,2.9551845 11.2,3.42857143 L0.8,3.42857143 Z"/>
  </g>
</svg>
