<svg xmlns="http://www.w3.org/2000/svg" width="70" height="32" viewBox="0 0 70 32">
  <g fill="none" fill-rule="evenodd">
    <circle cx="35" cy="16" r="10" fill="#CCC" fill-rule="nonzero"/>
    <path fill="#FFF" fill-rule="nonzero" stroke="#FFF" d="M36.7,17.095679 C37.8666667,16.4845679 38.6666667,15.1944444 38.6666667,13.7685185 C38.6666667,11.6975309 37.0333333,10 35,10 C32.9666667,10 31.3333333,11.6635803 31.3333333,13.7345679 C31.3333333,15.1604938 32.1333333,16.4845679 33.3,17.095679 C31.3666667,17.6728395 30,19.3024691 30,21 L30.6666667,21 C30.6666667,18.962963 32.6,17.6049383 35,17.6049383 C37.4,17.6049383 39.3333333,18.962963 39.3333333,21 L40,21 C40,19.3024691 38.6333333,17.6728395 36.7,17.095679 Z M32,13.7345679 C32,12.037037 33.3333333,10.6790123 35,10.6790123 C36.6666667,10.6790123 38,12.037037 38,13.7345679 C38,15.4320988 36.6666667,16.7901235 35,16.7901235 C33.3333333,16.7901235 32,15.3981482 32,13.7345679 Z"/>
  </g>
</svg>
