<svg xmlns="http://www.w3.org/2000/svg" width="70" height="32" viewBox="0 0 70 32">
  <g fill="none" fill-rule="evenodd" transform="translate(25 6)">
    <rect width="20" height="20" fill="#000" opacity="0"/>
    <path fill="#747E90" fill-rule="nonzero" d="M17.9882813,16.9335938 L15.1367188,14.0820313 C17.5214844,11.1738281 17.3554688,6.86523438 14.6289063,4.140625 C11.7382813,1.24804687 7.04296875,1.24804687 4.140625,4.140625 C1.24804687,7.04296875 1.24804687,11.7382813 4.140625,14.6289063 C6.86523438,17.3554688 11.1738281,17.5214844 14.0820313,15.1367188 L16.9335938,17.9882813 C16.9960938,18.0429688 17.0957031,18.0429688 17.1484375,17.9882813 L17.9882813,17.1484375 C18.0429688,17.0957031 18.0429688,16.9960938 17.9882813,16.9335938 Z M13.59375,13.59375 C11.2734375,15.9121094 7.515625,15.9121094 5.1953125,13.59375 C2.87695312,11.2734375 2.87695312,7.515625 5.1953125,5.1953125 C7.515625,2.87695312 11.2734375,2.87695312 13.59375,5.1953125 C15.9121094,7.515625 15.9121094,11.2734375 13.59375,13.59375 Z"/>
  </g>
</svg>
