<svg xmlns="http://www.w3.org/2000/svg" width="70" height="32" viewBox="0 0 70 32">
  <path fill="#A6AAB2" fill-rule="evenodd" stroke="#A6AAB2" stroke-width=".5" d="M5.82436322,5 L9.96986792,0.200920245 C10.0393545,0.121165644 9.9809226,4.35915789e-16 9.87353429,4.35915789e-16 L8.61330086,4.35915789e-16 C8.53907659,4.35915789e-16 8.46801079,0.032208589 8.41905435,0.0874233129 L5,4.04601227 L1.58094565,0.0874233129 C1.53356845,0.032208589 1.46250265,0 1.38669914,0 L0.12646571,0 C0.0190773973,0 -0.0393544786,0.121165644 0.0301320765,0.200920245 L4.17563678,5 L0.0301320765,9.79907975 C-0.0393544786,9.87883436 0.0190773973,10 0.12646571,10 L1.38669914,10 C1.46092341,10 1.53198921,9.96779141 1.58094565,9.91257669 L5,5.95398773 L8.41905435,9.91257669 C8.46643155,9.96779141 8.53749735,10 8.61330086,10 L9.87353429,10 C9.9809226,10 10.0393545,9.87883436 9.96986792,9.79907975 L5.82436322,5 Z" transform="translate(30 11)"/>
</svg>
