<svg xmlns="http://www.w3.org/2000/svg" width="70" height="32" viewBox="0 0 70 32">
  <g fill="none" fill-rule="evenodd" transform="translate(20 6)">
    <rect width="30" height="20" fill="#D8D8D8" fill-rule="nonzero" rx="2"/>
    <g transform="translate(7 2)">
      <rect width="16" height="16" fill="#000" opacity="0"/>
      <path fill="#FFF" fill-rule="nonzero" d="M13.94375,3.459375 C13.7390625,3.25625 13.4953125,3.1546875 13.2078125,3.1546875 L2.7921875,3.1546875 C2.50625,3.1546875 2.2609375,3.25625 2.05625,3.459375 C1.8515625,3.6640625 1.7515625,3.909375 1.7515625,4.1953125 L1.7515625,12.1125 C1.7515625,12.3984375 1.853125,12.64375 2.05625,12.8484375 C2.2609375,13.0515625 2.50625,13.153125 2.7921875,13.153125 L13.2109375,13.153125 C13.496875,13.153125 13.7421875,13.0515625 13.946875,12.8484375 C14.15,12.64375 14.2515625,12.3984375 14.2515625,12.1125 L14.2515625,4.1953125 C14.25,3.90625 14.1484375,3.6625 13.94375,3.459375 Z M3.7796875,5.1828125 C4.021875,4.940625 4.3171875,4.81875 4.665625,4.81875 C5.0140625,4.81875 5.309375,4.940625 5.5515625,5.1828125 C5.79375,5.4265625 5.915625,5.7203125 5.915625,6.06875 C5.915625,6.4171875 5.79375,6.7109375 5.5515625,6.9546875 C5.3078125,7.1984375 5.0140625,7.31875 4.665625,7.31875 C4.3171875,7.31875 4.0234375,7.196875 3.7796875,6.9546875 C3.5359375,6.7125 3.415625,6.4171875 3.415625,6.06875 C3.415625,5.7203125 3.5375,5.4265625 3.7796875,5.1828125 Z M12.5828125,11.4859375 L3.4171875,11.4859375 L3.4171875,10.2359375 L5.5015625,8.1515625 L6.54375,9.19375 L9.8765625,5.8609375 L12.584375,8.56875 L12.584375,11.4859375 L12.5828125,11.4859375 Z"/>
    </g>
  </g>
</svg>
