<svg xmlns="http://www.w3.org/2000/svg" width="70" height="32" viewBox="0 0 70 32">
  <g fill="none" fill-rule="evenodd">
    <path fill="#CCC" fill-rule="nonzero" d="M17,9 L17,23 L53,23 L53,9 L17,9 Z M17,7 L53,7 C54.1045695,7 55,7.8954305 55,9 L55,23 C55,24.1045695 54.1045695,25 53,25 L17,25 C15.8954305,25 15,24.1045695 15,23 L15,9 C15,7.8954305 15.8954305,7 17,7 Z"/>
    <path fill="#A6AAB2" stroke="#CCC" d="M2.32974529,2 L3.98794717,0.0803680982 C4.01574179,0.0484662577 3.99236904,1.74366316e-16 3.94941372,1.74366316e-16 L3.44532034,1.74366316e-16 C3.41563063,1.74366316e-16 3.38720432,0.0128834356 3.36762174,0.0349693252 L2,1.61840491 L0.632378258,0.0349693252 C0.613427379,0.0128834356 0.585001061,0 0.554679656,0 L0.0505862838,0 C0.0076309589,0 -0.0157417914,0.0484662577 0.0120528306,0.0803680982 L1.67025471,2 L0.0120528306,3.9196319 C-0.0157417914,3.95153374 0.0076309589,4 0.0505862838,4 L0.554679656,4 C0.584369366,4 0.612795683,3.98711656 0.632378258,3.96503067 L2,2.38159509 L3.36762174,3.96503067 C3.38657262,3.98711656 3.41499894,4 3.44532034,4 L3.94941372,4 C3.99236904,4 4.01574179,3.95153374 3.98794717,3.9196319 L2.32974529,2 Z" transform="translate(46 14)"/>
  </g>
</svg>
