<svg xmlns="http://www.w3.org/2000/svg" width="12" height="12" viewBox="0 0 12 12">
  <g fill="none" fill-rule="evenodd">
    <path fill="#747E90" fill-rule="nonzero" d="M4.041,2.36925 C4.28825532,2.23538906 4.54862593,2.12732018 4.818,2.04675 L5.25,0.75 L6.75,0.75 L7.182,2.0475 C7.45425,2.12775 7.7145,2.2365 7.959,2.36925 L9.1815,1.75725 L10.24275,2.81775 L9.63075,4.041 C9.7635,4.28625 9.87225,4.54575 9.95325,4.818 L11.25,5.25 L11.25,6.75 L9.9525,7.182 C9.87216982,7.45134503 9.76435265,7.7117147 9.63075,7.959 L10.24275,9.1815 L9.18225,10.24275 L7.959,9.63075 C7.71174468,9.76461094 7.45137407,9.87267982 7.182,9.95325 L6.75,11.25 L5.25,11.25 L4.818,9.9525 C4.54865497,9.87216982 4.2882853,9.76435265 4.041,9.63075 L2.8185,10.24275 L1.75725,9.18225 L2.36925,7.959 C2.23538906,7.71174468 2.12732018,7.45137407 2.04675,7.182 L0.75,6.75 L0.75,5.25 L2.0475,4.818 C2.12775,4.54575 2.2365,4.2855 2.36925,4.041 L1.75725,2.8185 L2.81775,1.75725 L4.041,2.36925 Z M6,7.875 C7.03553391,7.875 7.875,7.03553391 7.875,6 C7.875,4.96446609 7.03553391,4.125 6,4.125 C4.96446609,4.125 4.125,4.96446609 4.125,6 C4.125,7.03553391 4.96446609,7.875 6,7.875 Z"/>
    <rect width="12" height="12"/>
  </g>
</svg>
