<svg xmlns="http://www.w3.org/2000/svg" width="12" height="12" viewBox="0 0 12 12">
  <g fill="none" fill-rule="evenodd">
    <rect width="12" height="12"/>
    <path fill="#747E90" d="M7.1,0.8 L2.86,0.8 C2.277,0.8 1.8053,1.277 1.8053,1.86 L1.8,10.34 C1.8,10.923 2.2717,11.4 2.8547,11.4 L9.22,11.4 C9.803,11.4 10.28,10.923 10.28,10.34 L10.28,3.98 L7.1,0.8 L7.1,0.8 Z M8.16,9.28 L3.92,9.28 L3.92,8.22 L8.16,8.22 L8.16,9.28 L8.16,9.28 Z M8.16,7.16 L3.92,7.16 L3.92,6.1 L8.16,6.1 L8.16,7.16 L8.16,7.16 Z M6.57,4.51 L6.57,1.595 L9.485,4.51 L6.57,4.51 L6.57,4.51 Z"/>
  </g>
</svg>
