<svg xmlns="http://www.w3.org/2000/svg" width="70" height="32" viewBox="0 0 70 32">
  <g fill="#CCC" transform="translate(23 4)">
    <path d="M2,2 L2,22 L22,22 L22,2 L2,2 Z M2,0 L22,0 C23.1045695,-2.02906125e-16 24,0.8954305 24,2 L24,22 C24,23.1045695 23.1045695,24 22,24 L2,24 C0.8954305,24 1.3527075e-16,23.1045695 0,22 L0,2 C-1.3527075e-16,0.8954305 0.8954305,2.02906125e-16 2,0 Z"/>
    <rect width="14" height="2" x="5" y="6" rx="1"/>
    <rect width="10" height="2" x="5" y="16" rx="1"/>
    <rect width="12" height="2" x="5" y="11" rx="1"/>
  </g>
</svg>
