<svg xmlns="http://www.w3.org/2000/svg" width="70" height="32" viewBox="0 0 70 32">
  <g fill="none" fill-rule="evenodd">
    <rect width="23" height="16" x="27" y="8" fill="#E8E8E8" rx="2"/>
    <path fill="#747E90" d="M10.593 15.183C10.5709999 15.183 10.5526667 15.2214996 10.538 15.2985 10.5233333 15.3755004 10.516 15.4653328 10.516 15.568L10.516 16.536C10.516 16.6386672 10.5526663 16.7266663 10.626 16.8 10.6993337 16.8733337 10.7909995 16.91 10.901 16.91L10.989 16.91C11.0990006 16.91 11.1924996 16.9484996 11.2695 17.0255 11.3465004 17.1025004 11.385 17.1923328 11.385 17.295L11.385 17.537C11.385 17.6470006 11.3465004 17.7404996 11.2695 17.8175 11.1924996 17.8945004 11.0990006 17.933 10.989 17.933L10.901 17.933C10.7909995 17.933 10.6993337 17.9696663 10.626 18.043 10.5526663 18.1163337 10.516 18.2079994 10.516 18.318L10.516 19.605C10.516 19.7150005 10.5526663 19.8066663 10.626 19.88 10.6993337 19.9533337 10.7909995 19.99 10.901 19.99L10.989 19.99C11.0990006 19.99 11.1924996 20.0266663 11.2695 20.1 11.3465004 20.1733337 11.385 20.2613328 11.385 20.364L11.385 20.628C11.385 20.7306672 11.3465004 20.8204996 11.2695 20.8975 11.1924996 20.9745004 11.0990006 21.013 10.989 21.013L9.614 21.013C9.51133282 21.013 9.40133392 20.9818336 9.284 20.9195 9.16666608 20.8571664 9.0713337 20.7820004 8.998 20.694L8.866 20.507C8.7926663 20.4263329 8.73400022 20.316334 8.69 20.177 8.64599978 20.037666 8.624 19.9130005 8.624 19.803L8.624 15.953C8.624 15.8429995 8.6606663 15.7513337 8.734 15.678 8.8073337 15.6046663 8.89533282 15.568 8.998 15.568L9.053 15.568C9.16300055 15.568 9.2546663 15.6046663 9.328 15.678 9.4013337 15.7513337 9.438 15.8429995 9.438 15.953L9.438 19.605C9.438 19.7150005 9.45083321 19.8066663 9.4765 19.88 9.5021668 19.9533337 9.53699978 19.99 9.581 19.99 9.61766685 19.99 9.64699989 19.9533337 9.669 19.88 9.69100011 19.8066663 9.702 19.7150005 9.702 19.605L9.702 15.568C9.702 15.4653328 9.6653337 15.3736671 9.592 15.293 9.5186663 15.2123329 9.42700055 15.172 9.317 15.172L8.998 15.172C8.89533282 15.172 8.8073337 15.1353337 8.734 15.062 8.6606663 14.9886663 8.624 14.9006672 8.624 14.798L8.624 14.622C8.63133337 14.5193328 8.635 14.4295004 8.635 14.3525 8.635 14.2754996 8.63133337 14.237 8.624 14.237L8.624 11.124C8.624 11.065333 8.6606663 11.0176669 8.734 10.981 8.8073337 10.9443332 8.89533282 10.926 8.998 10.926L10.989 10.926C11.0990006 10.926 11.1924996 10.9498331 11.2695 10.9975 11.3465004 11.0451669 11.385 11.1056663 11.385 11.179L11.385 13.984C11.385 14.0866672 11.3611669 14.2058327 11.3135 14.3415 11.2658331 14.4771673 11.2016671 14.5853329 11.121 14.666L10.912 14.897C10.8459997 14.9776671 10.7800003 15.0454997 10.714 15.1005 10.6479997 15.1555003 10.6076667 15.183 10.593 15.183zM12.298 15.524C12.3933338 15.4579997 12.470333 15.425 12.529 15.425 12.587667 15.425 12.6389998 15.4066669 12.683 15.37 12.7270002 15.3333332 12.749 15.285667 12.749 15.227 12.749 15.168333 12.7270002 15.1188335 12.683 15.0785 12.6389998 15.0381665 12.587667 15.018 12.529 15.018 12.470333 15.018 12.3951671 14.988667 12.3035 14.93 12.2118329 14.871333 12.1330003 14.8016671 12.067 14.721L11.858 14.49C11.7919997 14.4093329 11.7333336 14.3011673 11.682 14.1655 11.6306664 14.0298327 11.605 13.9070005 11.605 13.797L11.605 11.608C11.605 11.4979995 11.6453329 11.4063337 11.726 11.333 11.8066671 11.2596663 11.8983328 11.223 12.001 11.223L12.144 11.223C12.2466672 11.223 12.3364996 11.2596663 12.4135 11.333 12.4905004 11.4063337 12.529 11.4979995 12.529 11.608L12.529 13.61C12.529 13.7126672 12.5399999 13.8024996 12.562 13.8795 12.5840001 13.9565004 12.6096665 13.995 12.639 13.995 12.6756669 13.995 12.7031666 13.9565004 12.7215 13.8795 12.7398334 13.8024996 12.749 13.7126672 12.749 13.61L12.749 11.3C12.749 11.1973328 12.7856663 11.1093337 12.859 11.036 12.9323337 10.9626663 13.0239995 10.926 13.134 10.926L13.288 10.926C13.3980005 10.926 13.4896663 10.9626663 13.563 11.036 13.6363337 11.1093337 13.673 11.1973328 13.673 11.3L13.673 19.825C13.673 19.9276672 13.6510002 20.0468327 13.607 20.1825 13.5629998 20.3181673 13.5043337 20.4299996 13.431 20.518L13.288 20.705C13.2219997 20.7856671 13.1303339 20.8589997 13.013 20.925 12.8956661 20.9910003 12.7820005 21.024 12.672 21.024L12.067 21.024C11.9643328 21.024 11.8745004 20.9855004 11.7975 20.9085 11.7204996 20.8314996 11.682 20.7416672 11.682 20.639L11.682 20.386C11.682 20.2759995 11.7204996 20.1843337 11.7975 20.111 11.8745004 20.0376663 11.9643328 20.001 12.067 20.001L12.364 20.001C12.4740005 20.001 12.5656663 19.9643337 12.639 19.891 12.7123337 19.8176663 12.749 19.7260006 12.749 19.616L12.749 16.833C12.749 16.7303328 12.7398334 16.6423337 12.7215 16.569 12.7031666 16.4956663 12.6756669 16.459 12.639 16.459 12.6096665 16.459 12.5840001 16.4956663 12.562 16.569 12.5399999 16.6423337 12.529 16.7303328 12.529 16.833L12.529 19.044C12.529 19.1540005 12.4905004 19.2456663 12.4135 19.319 12.3364996 19.3923337 12.2466672 19.429 12.144 19.429L12.001 19.429C11.8983328 19.429 11.8066671 19.3923337 11.726 19.319 11.6453329 19.2456663 11.605 19.1540005 11.605 19.044L11.605 16.635C11.605 16.5323328 11.6306664 16.4150007 11.682 16.283 11.7333336 16.1509993 11.7919997 16.0446671 11.858 15.964L12.067 15.733C12.1330003 15.6523329 12.2099996 15.582667 12.298 15.524zM15.257 14.93C15.1689996 14.988667 15.095667 15.018 15.037 15.018 14.978333 15.018 14.9288335 15.0381665 14.8885 15.0785 14.8481665 15.1188335 14.828 15.168333 14.828 15.227 14.828 15.285667 14.8481665 15.3333332 14.8885 15.37 14.9288335 15.4066669 14.978333 15.425 15.037 15.425 15.095667 15.425 15.1689996 15.4561664 15.257 15.5185 15.3450004 15.5808336 15.4256663 15.6523329 15.499 15.733L15.719 15.964C15.777667 16.0446671 15.8326664 16.1509993 15.884 16.283 15.9353336 16.4150007 15.961 16.5323328 15.961 16.635L15.961 19.044C15.961 19.1540005 15.9243337 19.2456663 15.851 19.319 15.7776663 19.3923337 15.6896672 19.429 15.587 19.429L15.433 19.429C15.3303328 19.429 15.2386671 19.3923337 15.158 19.319 15.0773329 19.2456663 15.037 19.1540005 15.037 19.044L15.037 16.833C15.037 16.7303328 15.0278334 16.6423337 15.0095 16.569 14.9911666 16.4956663 14.9636668 16.459 14.927 16.459 14.9049999 16.459 14.8830001 16.4956663 14.861 16.569 14.8389999 16.6423337 14.828 16.7303328 14.828 16.833L14.828 19.616C14.828 19.7260006 14.8664996 19.8176663 14.9435 19.891 15.0205004 19.9643337 15.1139995 20.001 15.224 20.001L15.587 20.001C15.6896672 20.001 15.7776663 20.0376663 15.851 20.111 15.9243337 20.1843337 15.961 20.2759995 15.961 20.386L15.961 20.639C15.961 20.7416672 15.9243337 20.8314996 15.851 20.9085 15.7776663 20.9855004 15.6896672 21.024 15.587 21.024L14.916 21.024C14.8133328 21.024 14.6996673 20.9910003 14.575 20.925 14.4503327 20.8589997 14.358667 20.7856671 14.3 20.705L14.146 20.518C14.087333 20.4299996 14.0341669 20.3181673 13.9865 20.1825 13.9388331 20.0468327 13.915 19.9276672 13.915 19.825L13.915 11.3C13.915 11.1973328 13.9534996 11.1093337 14.0305 11.036 14.1075004 10.9626663 14.1973328 10.926 14.3 10.926L14.443 10.926C14.5530006 10.926 14.6446663 10.9626663 14.718 11.036 14.7913337 11.1093337 14.828 11.1973328 14.828 11.3L14.828 13.61C14.828 13.7126672 14.8389999 13.8024996 14.861 13.8795 14.8830001 13.9565004 14.9049999 13.995 14.927 13.995 14.9636668 13.995 14.9911666 13.9565004 15.0095 13.8795 15.0278334 13.8024996 15.037 13.7126672 15.037 13.61L15.037 11.608C15.037 11.4979995 15.0773329 11.4063337 15.158 11.333 15.2386671 11.2596663 15.3303328 11.223 15.433 11.223L15.587 11.223C15.6896672 11.223 15.7776663 11.2596663 15.851 11.333 15.9243337 11.4063337 15.961 11.4979995 15.961 11.608L15.961 13.797C15.961 13.9070005 15.9353336 14.0298327 15.884 14.1655 15.8326664 14.3011673 15.777667 14.4093329 15.719 14.49L15.499 14.721C15.4256663 14.8016671 15.3450004 14.871333 15.257 14.93zM9.922 11.938C9.81933282 11.938 9.7313337 11.9764996 9.658 12.0535 9.5846663 12.1305004 9.548 12.2203328 9.548 12.323L9.548 13.786C9.548 13.8886672 9.5846663 13.9784996 9.658 14.0555 9.7313337 14.1325004 9.81933282 14.171 9.922 14.171L10.087 14.171C10.1896672 14.171 10.2776663 14.1325004 10.351 14.0555 10.4243337 13.9784996 10.461 13.8886672 10.461 13.786L10.461 12.323C10.461 12.2203328 10.4243337 12.1305004 10.351 12.0535 10.2776663 11.9764996 10.1896672 11.938 10.087 11.938L9.922 11.938zM22.286 20.001C22.3960006 20.001 22.4986662 19.966167 22.594 19.8965 22.6893338 19.826833 22.7516665 19.7370005 22.781 19.627L23.133 18.45C23.1696668 18.3473328 23.1605003 18.2575004 23.1055 18.1805 23.0504997 18.1034996 22.9680005 18.065 22.858 18.065L20.889 18.065C20.7863328 18.065 20.6983337 18.0283337 20.625 17.955 20.5516663 17.8816663 20.515 17.7936672 20.515 17.691L20.515 17.416C20.515 17.3133328 20.5168333 17.1850008 20.5205 17.031 20.5241667 16.8769992 20.5333333 16.7486672 20.548 16.646L20.658 15.755C20.6726667 15.6523328 20.6708334 15.5625004 20.6525 15.4855 20.6341666 15.4084996 20.6030002 15.37 20.559 15.37 20.5223332 15.37 20.4893335 15.3333337 20.46 15.26 20.4306665 15.1866663 20.416 15.0986672 20.416 14.996L20.416 14.732C20.416 14.6293328 20.4343332 14.5413337 20.471 14.468 20.5076668 14.3946663 20.555333 14.358 20.614 14.358 20.672667 14.358 20.7276664 14.3195004 20.779 14.2425 20.8303336 14.1654996 20.8633333 14.0756672 20.878 13.973L20.966 13.214C20.9806667 13.1039994 20.9623336 13.0123337 20.911 12.939 20.8596664 12.8656663 20.7936671 12.829 20.713 12.829 20.6249996 12.829 20.5535003 12.7923337 20.4985 12.719 20.4434997 12.6456663 20.416 12.5540005 20.416 12.444L20.416 12.191C20.416 12.0883328 20.450833 11.9985004 20.5205 11.9215 20.590167 11.8444996 20.6726662 11.806 20.768 11.806 20.8706672 11.806 20.9604996 11.7693337 21.0375 11.696 21.1145004 11.6226663 21.1603333 11.5346672 21.175 11.432L21.197 11.3C21.2116667 11.1973328 21.2611662 11.1093337 21.3455 11.036 21.4298338 10.9626663 21.5233328 10.926 21.626 10.926L21.923 10.926C22.0256672 10.926 22.1081664 10.9626663 22.1705 11.036 22.2328336 11.1093337 22.2566667 11.1973328 22.242 11.3L22.231 11.432C22.2163333 11.5346672 22.243833 11.6226663 22.3135 11.696 22.383167 11.7693337 22.4693328 11.806 22.572 11.806L23.969 11.806C24.0790005 11.806 24.1706663 11.8444996 24.244 11.9215 24.3173337 11.9985004 24.354 12.0883328 24.354 12.191L24.354 12.444C24.354 12.5540005 24.3173337 12.6456663 24.244 12.719 24.1706663 12.7923337 24.0790005 12.829 23.969 12.829L22.451 12.829C22.3409994 12.829 22.2456671 12.8656663 22.165 12.939 22.0843329 13.0123337 22.0403334 13.1039994 22.033 13.214L21.934 13.973C21.9193333 14.0756672 21.9449997 14.1654996 22.011 14.2425 22.0770003 14.3195004 22.1613328 14.358 22.264 14.358L23.969 14.358C24.0790005 14.358 24.1706663 14.3946663 24.244 14.468 24.3173337 14.5413337 24.354 14.6293328 24.354 14.732L24.354 14.996C24.354 15.0986672 24.3173337 15.1866663 24.244 15.26 24.1706663 15.3333337 24.0790005 15.37 23.969 15.37L22.143 15.37C22.0403328 15.37 21.9468338 15.4084996 21.8625 15.4855 21.7781662 15.5625004 21.7286667 15.6523328 21.714 15.755L21.615 16.668C21.6003333 16.7706672 21.6241664 16.8586663 21.6865 16.932 21.7488336 17.0053337 21.8349995 17.042 21.945 17.042L23.958 17.042C24.0680006 17.042 24.1614996 17.0823329 24.2385 17.163 24.3155004 17.2436671 24.354 17.3353328 24.354 17.438L24.354 17.757C24.354 17.8670006 24.3430001 17.9953326 24.321 18.142 24.2989999 18.2886674 24.2733335 18.4133328 24.244 18.516L23.628 20.65C23.5913332 20.7526672 23.5253338 20.8406663 23.43 20.914 23.3346662 20.9873337 23.2356672 21.024 23.133 21.024L21.45 21.024C21.3399995 21.024 21.2391671 20.9873337 21.1475 20.914 21.0558329 20.8406663 20.9916669 20.7526672 20.955 20.65L20.515 19.154C20.4856665 19.0513328 20.4984997 18.9633337 20.5535 18.89 20.6085003 18.8166663 20.6909994 18.78 20.801 18.78L21.109 18.78C21.2190006 18.78 21.3198329 18.8166663 21.4115 18.89 21.5031671 18.9633337 21.5673331 19.0513328 21.604 19.154L21.736 19.627C21.7726669 19.7370005 21.8386662 19.826833 21.934 19.8965 22.0293338 19.966167 22.1283328 20.001 22.231 20.001L22.286 20.001zM18.392 18.263C18.4946672 18.263 18.5826663 18.2263337 18.656 18.153 18.7293337 18.0796663 18.766 17.9880006 18.766 17.878L18.766 17.427C18.766 17.3243328 18.7348336 17.2345004 18.6725 17.1575 18.6101664 17.0804996 18.5386671 17.042 18.458 17.042 18.3773329 17.042 18.2801672 17.0163336 18.1665 16.965 18.0528328 16.9136664 17.9630003 16.8476671 17.897 16.767L17.611 16.492C17.5376663 16.4186663 17.4735003 16.317834 17.4185 16.1895 17.3634997 16.061166 17.336 15.9456672 17.336 15.843L17.336 12.983C17.336 12.8803328 17.3231668 12.7905004 17.2975 12.7135 17.2718332 12.6364996 17.2333336 12.598 17.182 12.598 17.1453331 12.598 17.1123335 12.5595004 17.083 12.4825 17.0536665 12.4054996 17.039 12.3156672 17.039 12.213L17.039 11.971C17.039 11.8609995 17.0536665 11.7693337 17.083 11.696 17.1123335 11.6226663 17.1453331 11.586 17.182 11.586 17.2333336 11.586 17.2718332 11.5530003 17.2975 11.487 17.3231668 11.4209997 17.336 11.3440004 17.336 11.256 17.336 11.1679996 17.3744996 11.0910003 17.4515 11.025 17.5285004 10.9589997 17.6183328 10.926 17.721 10.926L17.974 10.926C18.0840005 10.926 18.1756663 10.9589997 18.249 11.025 18.3223337 11.0910003 18.359 11.1679996 18.359 11.256 18.359 11.3440004 18.3956663 11.4209997 18.469 11.487 18.5423337 11.5530003 18.6339995 11.586 18.744 11.586L19.811 11.586C19.9136672 11.586 20.0034996 11.6226663 20.0805 11.696 20.1575004 11.7693337 20.196 11.8609995 20.196 11.971L20.196 12.213C20.196 12.3156672 20.1575004 12.4054996 20.0805 12.4825 20.0034996 12.5595004 19.9136672 12.598 19.811 12.598L18.744 12.598C18.6339995 12.598 18.5423337 12.6364996 18.469 12.7135 18.3956663 12.7905004 18.359 12.8803328 18.359 12.983L18.359 15.634C18.359 15.7440005 18.3791665 15.8374996 18.4195 15.9145 18.4598335 15.9915004 18.509333 16.03 18.568 16.03 18.626667 16.03 18.6743331 15.9915004 18.711 15.9145 18.7476669 15.8374996 18.766 15.7440005 18.766 15.634L18.766 13.709C18.766 13.6063328 18.8026663 13.5165004 18.876 13.4395 18.9493337 13.3624996 19.0409995 13.324 19.151 13.324L19.404 13.324C19.5066672 13.324 19.5964996 13.3624996 19.6735 13.4395 19.7505004 13.5165004 19.789 13.6063328 19.789 13.709L19.789 15.634C19.789 15.7440005 19.8073331 15.8374996 19.844 15.9145 19.8806669 15.9915004 19.928333 16.03 19.987 16.03 20.045667 16.03 20.0951665 16.0666663 20.1355 16.14 20.1758335 16.2133337 20.196 16.3049995 20.196 16.415L20.196 16.657C20.196 16.7596672 20.1758335 16.8494996 20.1355 16.9265 20.0951665 17.0035004 20.045667 17.042 19.987 17.042 19.928333 17.042 19.8806669 17.0804996 19.844 17.1575 19.8073331 17.2345004 19.789 17.3243328 19.789 17.427L19.789 17.878C19.789 17.9880006 19.8073331 18.0796663 19.844 18.153 19.8806669 18.2263337 19.928333 18.263 19.987 18.263 20.045667 18.263 20.0951665 18.3014996 20.1355 18.3785 20.1758335 18.4555004 20.196 18.5489995 20.196 18.659L20.196 18.901C20.196 19.0036672 20.1758335 19.0934996 20.1355 19.1705 20.0951665 19.2475004 20.045667 19.286 19.987 19.286 19.928333 19.286 19.8806669 19.3226663 19.844 19.396 19.8073331 19.4693337 19.789 19.5573328 19.789 19.66L19.789 20.639C19.789 20.7416672 19.7505004 20.8314996 19.6735 20.9085 19.5964996 20.9855004 19.5066672 21.024 19.404 21.024L19.151 21.024C19.0409995 21.024 18.9493337 20.9855004 18.876 20.9085 18.8026663 20.8314996 18.766 20.7416672 18.766 20.639L18.766 19.66C18.766 19.5573328 18.7293337 19.4693337 18.656 19.396 18.5826663 19.3226663 18.4946672 19.286 18.392 19.286L17.413 19.286C17.3103328 19.286 17.2223337 19.2475004 17.149 19.1705 17.0756663 19.0934996 17.039 19.0036672 17.039 18.901L17.039 18.659C17.039 18.5489995 17.0756663 18.4555004 17.149 18.3785 17.2223337 18.3014996 17.3103328 18.263 17.413 18.263L18.392 18.263zM56.6035 13.434C56.7061672 13.434 56.7978329 13.3973337 56.8785 13.324 56.9591671 13.2506663 56.9995 13.1590006 56.9995 13.049L56.9995 12.323C56.9995 12.2203328 56.9591671 12.1305004 56.8785 12.0535 56.7978329 11.9764996 56.7061672 11.938 56.6035 11.938L54.2055 11.938C54.1028328 11.938 54.0148337 11.9013337 53.9415 11.828 53.8681663 11.7546663 53.8315 11.6630005 53.8315 11.553L53.8315 11.3C53.8315 11.1973328 53.8681663 11.1093337 53.9415 11.036 54.0148337 10.9626663 54.1028328 10.926 54.2055 10.926L60.7945 10.926C60.8971672 10.926 60.9851663 10.9626663 61.0585 11.036 61.1318337 11.1093337 61.1685 11.1973328 61.1685 11.3L61.1685 11.553C61.1685 11.6630005 61.1318337 11.7546663 61.0585 11.828 60.9851663 11.9013337 60.8971672 11.938 60.7945 11.938L58.3965 11.938C58.2938328 11.938 58.2040004 11.9764996 58.127 12.0535 58.0499996 12.1305004 58.0115 12.2203328 58.0115 12.323L58.0115 13.049C58.0115 13.1590006 58.0499996 13.2506663 58.127 13.324 58.2040004 13.3973337 58.2938328 13.434 58.3965 13.434L60.7945 13.434C60.8971672 13.434 60.9851663 13.4724996 61.0585 13.5495 61.1318337 13.6265004 61.1685 13.7163328 61.1685 13.819L61.1685 18.032C61.1685 18.1420005 61.1318337 18.2336663 61.0585 18.307 60.9851663 18.3803337 60.8971672 18.417 60.7945 18.417L60.5415 18.417C60.4314995 18.417 60.3380004 18.3803337 60.261 18.307 60.1839996 18.2336663 60.1455 18.1420005 60.1455 18.032L60.1455 14.842C60.1455 14.7319994 60.1088337 14.6403337 60.0355 14.567 59.9621663 14.4936663 59.8705006 14.457 59.7605 14.457L55.2395 14.457C55.1294994 14.457 55.0378337 14.4936663 54.9645 14.567 54.8911663 14.6403337 54.8545 14.7319994 54.8545 14.842L54.8545 18.032C54.8545 18.1420005 54.8178337 18.2336663 54.7445 18.307 54.6711663 18.3803337 54.5795005 18.417 54.4695 18.417L54.2055 18.417C54.1028328 18.417 54.0148337 18.3803337 53.9415 18.307 53.8681663 18.2336663 53.8315 18.1420005 53.8315 18.032L53.8315 13.819C53.8315 13.7163328 53.8681663 13.6265004 53.9415 13.5495 54.0148337 13.4724996 54.1028328 13.434 54.2055 13.434L56.6035 13.434zM53.8315 20.386C53.8315 20.2759995 53.8681663 20.1843337 53.9415 20.111 54.0148337 20.0376663 54.1028328 20.001 54.2055 20.001L54.8545 20.001C54.9571672 20.001 55.0634995 19.9680003 55.1735 19.902 55.2835005 19.8359997 55.367833 19.7553338 55.4265 19.66L56.8125 17.339C56.8565002 17.2509996 56.8986665 17.137334 56.939 16.998 56.9793335 16.858666 56.9995 16.7376672 56.9995 16.635L56.9995 15.59C56.9995 15.4799995 57.0361663 15.3883337 57.1095 15.315 57.1828337 15.2416663 57.2708328 15.205 57.3735 15.205L57.6265 15.205C57.7291672 15.205 57.8189996 15.2416663 57.896 15.315 57.9730004 15.3883337 58.0115 15.4799995 58.0115 15.59L58.0115 16.569C58.0115 16.6716672 58.0316665 16.792666 58.072 16.932 58.1123335 17.071334 58.1581664 17.1886662 58.2095 17.284L59.5735 19.66C59.632167 19.7553338 59.7183328 19.8359997 59.832 19.902 59.9456672 19.9680003 60.0538328 20.001 60.1565 20.001L60.8055 20.001C60.9081672 20.001 60.9961663 20.0376663 61.0695 20.111 61.1428337 20.1843337 61.1795 20.2759995 61.1795 20.386L61.1795 20.639C61.1795 20.7416672 61.1428337 20.8314996 61.0695 20.9085 60.9961663 20.9855004 60.9081672 21.024 60.8055 21.024L59.5955 21.024C59.4928328 21.024 59.3846672 20.9910003 59.271 20.925 59.1573328 20.8589997 59.071167 20.7783338 59.0125 20.683L57.6815 18.494C57.622833 18.3986662 57.5568337 18.3528333 57.4835 18.3565 57.4101663 18.3601667 57.3478336 18.4059996 57.2965 18.494L55.9985 20.683C55.939833 20.7783338 55.8536672 20.8589997 55.74 20.925 55.6263328 20.9910003 55.5181672 21.024 55.4155 21.024L54.2055 21.024C54.1028328 21.024 54.0148337 20.9855004 53.9415 20.9085 53.8681663 20.8314996 53.8315 20.7416672 53.8315 20.639L53.8315 20.386z"/>
  </g>
</svg>
