<svg xmlns="http://www.w3.org/2000/svg" width="70" height="32" viewBox="0 0 70 32">
  <path fill="#747E90" fill-rule="evenodd" d="M30.705,9.52 L32.077,9.52 L27.219,22.4 L25.833,22.4 L30.705,9.52 Z M36.837,21 L34.667,21 L34.667,14.154 L32.581,14.392 L32.581,12.572 L36.837,12.082 L36.837,21 Z M45.111,16.604 C45.111,18.2653416 44.8543359,19.4366633 44.341,20.118 C43.8276641,20.7993367 42.90834,21.14 41.583,21.14 C40.7616626,21.14 40.1200023,21.0466676 39.658,20.86 C39.1959977,20.6733324 38.8436679,20.3653355 38.601,19.936 C38.404999,19.5999983 38.2626671,19.1660027 38.174,18.634 C38.0853329,18.1019973 38.041,17.4253374 38.041,16.604 C38.041,14.9519917 38.2999974,13.7853367 38.818,13.104 C39.3360026,12.4226633 40.25766,12.082 41.583,12.082 C42.4043374,12.082 43.0459977,12.1753324 43.508,12.362 C43.9700023,12.5486676 44.3223321,12.8566645 44.565,13.286 C44.7516676,13.6126683 44.8893329,14.0419973 44.978,14.574 C45.0666671,15.1060027 45.111,15.7826626 45.111,16.604 Z M42.913,16.604 C42.913,15.5399947 42.8313342,14.8470016 42.668,14.525 C42.5046658,14.2029984 42.1430028,14.042 41.583,14.042 C41.0229972,14.042 40.6590008,14.2053317 40.491,14.532 C40.3229992,14.8586683 40.239,15.5493281 40.239,16.604 C40.239,17.6306718 40.3229992,18.3049984 40.491,18.627 C40.6590008,18.9490016 41.0229972,19.11 41.583,19.11 C42.1430028,19.11 42.5046658,18.9513349 42.668,18.634 C42.8313342,18.3166651 42.913,17.6400052 42.913,16.604 Z"/>
</svg>
