<svg xmlns="http://www.w3.org/2000/svg" width="70" height="32" viewBox="0 0 70 32">
  <g fill="none" fill-rule="evenodd">
    <rect width="18" height="18" x="9" y="7" stroke="#CCC" stroke-width="2" rx="2"/>
    <rect width="18" height="18" x="43" y="7" stroke="#CCC" stroke-width="2" rx="2"/>
    <polygon fill="#747E90" points="19.29 19 17.74 19 17.74 14.11 16.25 14.28 16.25 12.98 19.29 12.63"/>
    <path fill="#747E90" d="M51.905,12.63 C52.7916711,12.63 53.4049983,12.8533311 53.745,13.3 C54.0850017,13.7466689 54.255,14.5466609 54.255,15.7 C54.255,16.8733392 54.0150024,17.7333306 53.535,18.28 C53.0549976,18.8266694 52.3050051,19.1 51.285,19.1 C51.084999,19.1 50.8783344,19.0916668 50.665,19.075 C50.4516656,19.0583333 50.2983338,19.0366668 50.205,19.01 L50.205,17.7 C50.3250006,17.7133334 50.4783324,17.7249999 50.665,17.735 C50.8516676,17.7450001 51.0583322,17.75 51.285,17.75 C51.7450023,17.75 52.0733324,17.6633342 52.27,17.49 C52.4666676,17.3166658 52.5949997,17.0066689 52.655,16.56 C52.4149988,16.6800006 52.1916677,16.7649998 51.985,16.815 C51.7783323,16.8650003 51.5650011,16.89 51.345,16.89 C50.7716638,16.89 50.3450014,16.723335 50.065,16.39 C49.7849986,16.056665 49.645,15.5500034 49.645,14.87 C49.645,14.1633298 49.8433313,13.6133353 50.24,13.22 C50.6366686,12.8266647 51.1916631,12.63 51.905,12.63 Z M51.905,13.99 C51.6516654,13.99 51.4633339,14.0549994 51.34,14.185 C51.2166661,14.3150006 51.155,14.5166653 51.155,14.79 C51.155,15.1033349 51.2033329,15.3166661 51.3,15.43 C51.3966671,15.5433339 51.5883319,15.6 51.875,15.6 C52.0416675,15.6 52.1933327,15.5850001 52.33,15.555 C52.4666674,15.5249999 52.5916661,15.4800003 52.705,15.42 C52.6983333,14.8266637 52.6433338,14.4400009 52.54,14.26 C52.4366662,14.0799991 52.2250016,13.99 51.905,13.99 Z"/>
    <circle cx="32" cy="16" r="1" fill="#D8D8D8" fill-rule="nonzero"/>
    <circle cx="35" cy="16" r="1" fill="#D8D8D8" fill-rule="nonzero"/>
    <circle cx="38" cy="16" r="1" fill="#D8D8D8" fill-rule="nonzero"/>
  </g>
</svg>
