<svg xmlns="http://www.w3.org/2000/svg" width="70" height="32" viewBox="0 0 70 32">
  <path fill="#747E90" fill-rule="evenodd" d="M14.496,16.36 C14.6060006,16.36 14.6976663,16.3233337 14.771,16.25 C14.8443337,16.1766663 14.881,16.0850006 14.881,15.975 L14.881,13.313 C14.881,13.2103328 14.8443337,13.1205004 14.771,13.0435 C14.6976663,12.9664996 14.6060006,12.928 14.496,12.928 L14.133,12.928 C14.0303328,12.928 13.9423337,12.8913337 13.869,12.818 C13.7956663,12.7446663 13.759,12.6566672 13.759,12.554 L13.759,12.301 C13.759,12.1983328 13.7956663,12.1103337 13.869,12.037 C13.9423337,11.9636663 14.0303328,11.927 14.133,11.927 L14.496,11.927 C14.6060006,11.927 14.6976663,11.8885004 14.771,11.8115 C14.8443337,11.7344996 14.881,11.6446672 14.881,11.542 L14.881,11.3 C14.881,11.1973328 14.9176663,11.1093337 14.991,11.036 C15.0643337,10.9626663 15.1523328,10.926 15.255,10.926 L15.508,10.926 C15.6180006,10.926 15.7096663,10.9626663 15.783,11.036 C15.8563337,11.1093337 15.893,11.1973328 15.893,11.3 L15.893,11.542 C15.893,11.6446672 15.9296663,11.7344996 16.003,11.8115 C16.0763337,11.8885004 16.1643328,11.927 16.267,11.927 L18.511,11.927 C18.6210006,11.927 18.7126663,11.8885004 18.786,11.8115 C18.8593337,11.7344996 18.896,11.6446672 18.896,11.542 L18.896,11.3 C18.896,11.1973328 18.9326663,11.1093337 19.006,11.036 C19.0793337,10.9626663 19.1709995,10.926 19.281,10.926 L19.523,10.926 C19.6256672,10.926 19.7154996,10.9626663 19.7925,11.036 C19.8695004,11.1093337 19.908,11.1973328 19.908,11.3 L19.908,11.542 C19.908,11.6446672 19.9446663,11.7344996 20.018,11.8115 C20.0913337,11.8885004 20.1829995,11.927 20.293,11.927 L20.645,11.927 C20.7476672,11.927 20.8374996,11.9636663 20.9145,12.037 C20.9915004,12.1103337 21.03,12.1983328 21.03,12.301 L21.03,12.554 C21.03,12.6566672 20.9915004,12.7446663 20.9145,12.818 C20.8374996,12.8913337 20.7476672,12.928 20.645,12.928 L20.293,12.928 C20.1829995,12.928 20.0913337,12.9664996 20.018,13.0435 C19.9446663,13.1205004 19.908,13.2103328 19.908,13.313 L19.908,15.975 C19.908,16.0850006 19.9446663,16.1766663 20.018,16.25 C20.0913337,16.3233337 20.1829995,16.36 20.293,16.36 L20.645,16.36 C20.7476672,16.36 20.8374996,16.3984996 20.9145,16.4755 C20.9915004,16.5525004 21.03,16.6423328 21.03,16.745 L21.03,16.987 C21.03,17.0970006 20.9915004,17.1886663 20.9145,17.262 C20.8374996,17.3353337 20.7476672,17.372 20.645,17.372 L14.133,17.372 C14.0303328,17.372 13.9423337,17.3353337 13.869,17.262 C13.7956663,17.1886663 13.759,17.0970006 13.759,16.987 L13.759,16.745 C13.759,16.6423328 13.7956663,16.5525004 13.869,16.4755 C13.9423337,16.3984996 14.0303328,16.36 14.133,16.36 L14.496,16.36 Z M15.893,15.975 C15.893,16.0850006 15.9296663,16.1766663 16.003,16.25 C16.0763337,16.3233337 16.1643328,16.36 16.267,16.36 L18.511,16.36 C18.6210006,16.36 18.7126663,16.3233337 18.786,16.25 C18.8593337,16.1766663 18.896,16.0850006 18.896,15.975 L18.896,13.313 C18.896,13.2103328 18.8593337,13.1205004 18.786,13.0435 C18.7126663,12.9664996 18.6210006,12.928 18.511,12.928 L16.267,12.928 C16.1643328,12.928 16.0763337,12.9664996 16.003,13.0435 C15.9296663,13.1205004 15.893,13.2103328 15.893,13.313 L15.893,15.975 Z M19.787,17.922 C19.8896672,17.922 19.9794996,17.9604996 20.0565,18.0375 C20.1335004,18.1145004 20.172,18.2079994 20.172,18.318 L20.172,19.627 C20.172,19.7370005 20.2104996,19.8286663 20.2875,19.902 C20.3645004,19.9753337 20.4543328,20.012 20.557,20.012 L20.645,20.012 C20.7476672,20.012 20.8374996,20.0486663 20.9145,20.122 C20.9915004,20.1953337 21.03,20.2869994 21.03,20.397 L21.03,20.639 C21.03,20.7416672 20.9915004,20.8314996 20.9145,20.9085 C20.8374996,20.9855004 20.7476672,21.024 20.645,21.024 L19.545,21.024 C19.4423328,21.024 19.3525004,20.9855004 19.2755,20.9085 C19.1984996,20.8314996 19.16,20.7416672 19.16,20.639 L19.16,18.318 C19.16,18.2079994 19.1984996,18.1145004 19.2755,18.0375 C19.3525004,17.9604996 19.4423328,17.922 19.545,17.922 L19.787,17.922 Z M13.759,20.397 C13.759,20.2869994 13.7956663,20.1953337 13.869,20.122 C13.9423337,20.0486663 14.0303328,20.012 14.133,20.012 L14.232,20.012 C14.3346672,20.012 14.4244996,19.9753337 14.5015,19.902 C14.5785004,19.8286663 14.617,19.7370005 14.617,19.627 L14.617,18.318 C14.617,18.2079994 14.6554996,18.1145004 14.7325,18.0375 C14.8095004,17.9604996 14.8993328,17.922 15.002,17.922 L15.244,17.922 C15.3466672,17.922 15.4346663,17.9604996 15.508,18.0375 C15.5813337,18.1145004 15.618,18.2079994 15.618,18.318 L15.618,20.639 C15.618,20.7416672 15.5813337,20.8314996 15.508,20.9085 C15.4346663,20.9855004 15.3466672,21.024 15.244,21.024 L14.133,21.024 C14.0303328,21.024 13.9423337,20.9855004 13.869,20.9085 C13.7956663,20.8314996 13.759,20.7416672 13.759,20.639 L13.759,20.397 Z M24.121,14.864 L24.121,15.931 L23.142,15.931 L23.142,14.864 L24.121,14.864 Z M27.146,14.864 L27.146,15.931 L26.178,15.931 L26.178,14.864 L27.146,14.864 Z M30.171,14.864 L30.171,15.931 L29.203,15.931 L29.203,14.864 L30.171,14.864 Z M33.108,20.749 C33.0273329,20.8296671 32.922834,20.8956664 32.7945,20.947 C32.666166,20.9983336 32.5470005,21.024 32.437,21.024 C32.3416662,21.024 32.2573337,20.9855004 32.184,20.9085 C32.1106663,20.8314996 32.074,20.7416672 32.074,20.639 L32.074,20.386 C32.074,20.2759995 32.0996664,20.1843337 32.151,20.111 C32.2023336,20.0376663 32.2646663,20.001 32.338,20.001 C32.4186671,20.001 32.4864997,19.9643337 32.5415,19.891 C32.5965003,19.8176663 32.624,19.7260006 32.624,19.616 L32.624,18.78 C32.624,18.6773328 32.6624996,18.5893337 32.7395,18.516 C32.8165004,18.4426663 32.9063328,18.406 33.009,18.406 L33.262,18.406 C33.3720005,18.406 33.4636663,18.4426663 33.537,18.516 C33.6103337,18.5893337 33.647,18.6773328 33.647,18.78 L33.647,19.825 C33.647,19.9276672 33.6213336,20.043166 33.57,20.1715 C33.5186664,20.299834 33.4526671,20.3969997 33.372,20.463 L33.108,20.749 Z M34.89,20.001 C35.0000006,20.001 35.0916663,19.9643337 35.165,19.891 C35.2383337,19.8176663 35.275,19.7260006 35.275,19.616 L35.275,18.043 C35.275,17.9403328 35.2383337,17.8505004 35.165,17.7735 C35.0916663,17.6964996 35.0000006,17.658 34.89,17.658 L32.448,17.658 C32.3453328,17.658 32.2573337,17.6195004 32.184,17.5425 C32.1106663,17.4654996 32.074,17.3756672 32.074,17.273 L32.074,17.031 C32.074,16.9209995 32.1106663,16.8275004 32.184,16.7505 C32.2573337,16.6734996 32.3453328,16.635 32.448,16.635 L34.89,16.635 C35.0000006,16.635 35.0916663,16.6130002 35.165,16.569 C35.2383337,16.5249998 35.275,16.473667 35.275,16.415 C35.275,16.3416663 35.3116663,16.2811669 35.385,16.2335 C35.4583337,16.1858331 35.5463328,16.162 35.649,16.162 L35.913,16.162 C36.0156672,16.162 36.1054996,16.1858331 36.1825,16.2335 C36.2595004,16.2811669 36.298,16.3416663 36.298,16.415 C36.298,16.473667 36.3346663,16.5249998 36.408,16.569 C36.4813337,16.6130002 36.5693328,16.635 36.672,16.635 L39.037,16.635 C39.1396672,16.635 39.2276663,16.6734996 39.301,16.7505 C39.3743337,16.8275004 39.411,16.9209995 39.411,17.031 L39.411,17.273 C39.411,17.3756672 39.3743337,17.4654996 39.301,17.5425 C39.2276663,17.6195004 39.1396672,17.658 39.037,17.658 L36.672,17.658 C36.5693328,17.658 36.4813337,17.6964996 36.408,17.7735 C36.3346663,17.8505004 36.298,17.9403328 36.298,18.043 L36.298,19.825 C36.298,19.9276672 36.2723336,20.043166 36.221,20.1715 C36.1696664,20.299834 36.1036671,20.3969997 36.023,20.463 L35.748,20.749 C35.6673329,20.8296671 35.5646673,20.8956664 35.44,20.947 C35.3153327,20.9983336 35.1980006,21.024 35.088,21.024 L34.681,21.024 C34.5709995,21.024 34.4793337,20.9855004 34.406,20.9085 C34.3326663,20.8314996 34.296,20.7416672 34.296,20.639 L34.296,20.386 C34.296,20.2759995 34.3326663,20.1843337 34.406,20.111 C34.4793337,20.0376663 34.5709995,20.001 34.681,20.001 L34.89,20.001 Z M33.372,14.919 C33.4820005,14.919 33.6103326,14.9025002 33.757,14.8695 C33.9036674,14.8364998 34.0246662,14.7943336 34.12,14.743 L34.153,14.732 C34.2483338,14.6806664 34.296,14.6238336 34.296,14.5615 C34.296,14.4991664 34.2483338,14.4460002 34.153,14.402 L33.438,14.061 C33.3426662,14.0169998 33.225334,13.9803335 33.086,13.951 C32.946666,13.9216665 32.8220005,13.907 32.712,13.907 L32.448,13.907 C32.3453328,13.907 32.2573337,13.8685004 32.184,13.7915 C32.1106663,13.7144996 32.074,13.6210005 32.074,13.511 L32.074,13.302 C32.074,13.1993328 32.1106663,13.1113337 32.184,13.038 C32.2573337,12.9646663 32.3453328,12.928 32.448,12.928 L33.009,12.928 C33.1190005,12.928 33.2454993,12.9426665 33.3885,12.972 C33.5315007,13.0013335 33.6506662,13.0416664 33.746,13.093 L35.363,13.83 C35.4656672,13.8740002 35.5829993,13.896 35.715,13.896 C35.8470007,13.896 35.9643328,13.8740002 36.067,13.83 L38.047,12.895 C38.1423338,12.8509998 38.2229997,12.7960003 38.289,12.73 C38.3550003,12.6639997 38.388,12.6053336 38.388,12.554 C38.388,12.495333 38.3513337,12.4458335 38.278,12.4055 C38.2046663,12.3651665 38.1130005,12.345 38.003,12.345 L33.273,12.345 C33.1703328,12.345 33.0530007,12.3211669 32.921,12.2735 C32.7889993,12.2258331 32.6826671,12.1653337 32.602,12.092 L32.371,11.883 C32.2903329,11.8096663 32.220667,11.7161672 32.162,11.6025 C32.103333,11.4888328 32.074,11.3806672 32.074,11.278 C32.074,11.1753328 32.1106663,11.0910003 32.184,11.025 C32.2573337,10.9589997 32.3453328,10.926 32.448,10.926 L32.712,10.926 C32.8220005,10.926 32.9136663,10.9443332 32.987,10.981 C33.0603337,11.0176669 33.097,11.065333 33.097,11.124 C33.097,11.182667 33.1336663,11.2303331 33.207,11.267 C33.2803337,11.3036668 33.3719995,11.322 33.482,11.322 L39.037,11.322 C39.1396672,11.322 39.2276663,11.3586663 39.301,11.432 C39.3743337,11.5053337 39.411,11.5969995 39.411,11.707 L39.411,13.016 C39.411,13.1260006 39.3780003,13.2359995 39.312,13.346 C39.2459997,13.4560005 39.1616672,13.5293331 39.059,13.566 L37.299,14.391 C37.1963328,14.4350002 37.145,14.4881664 37.145,14.5505 C37.145,14.6128336 37.1963328,14.6696664 37.299,14.721 L37.365,14.743 C37.4603338,14.7943336 37.5794993,14.8364998 37.7225,14.8695 C37.8655007,14.9025002 37.9919995,14.919 38.102,14.919 L39.037,14.919 C39.1396672,14.919 39.2276663,14.9556663 39.301,15.029 C39.3743337,15.1023337 39.411,15.1903328 39.411,15.293 L39.411,15.546 C39.411,15.6486672 39.3743337,15.7366663 39.301,15.81 C39.2276663,15.8833337 39.1396672,15.92 39.037,15.92 L37.816,15.92 C37.7133328,15.92 37.5886674,15.9053335 37.442,15.876 C37.2953326,15.8466665 37.1743338,15.8100002 37.079,15.766 L36.056,15.293 C35.9533328,15.2416664 35.8360007,15.216 35.704,15.216 C35.5719993,15.216 35.4546672,15.2416664 35.352,15.293 L34.318,15.766 C34.2153328,15.8100002 34.0925007,15.8466665 33.9495,15.876 C33.8064993,15.9053335 33.6800006,15.92 33.57,15.92 L32.47,15.92 C32.3599995,15.92 32.2683337,15.8833337 32.195,15.81 C32.1216663,15.7366663 32.085,15.6486672 32.085,15.546 L32.085,15.293 C32.085,15.1903328 32.1216663,15.1023337 32.195,15.029 C32.2683337,14.9556663 32.3599995,14.919 32.47,14.919 L33.372,14.919 Z M38.487,18.406 C38.5823338,18.406 38.6684996,18.4426663 38.7455,18.516 C38.8225004,18.5893337 38.861,18.6773328 38.861,18.78 L38.861,19.616 C38.861,19.7260006 38.8866664,19.8176663 38.938,19.891 C38.9893336,19.9643337 39.0516663,20.001 39.125,20.001 C39.2056671,20.001 39.2734997,20.0376663 39.3285,20.111 C39.3835003,20.1843337 39.411,20.2759995 39.411,20.386 L39.411,20.639 C39.411,20.7416672 39.3743337,20.8314996 39.301,20.9085 C39.2276663,20.9855004 39.1396672,21.024 39.037,21.024 C38.9269994,21.024 38.8096673,20.9983336 38.685,20.947 C38.5603327,20.8956664 38.4576671,20.8296671 38.377,20.749 L38.113,20.463 C38.0396663,20.3969997 37.9755003,20.299834 37.9205,20.1715 C37.8654997,20.043166 37.838,19.9276672 37.838,19.825 L37.838,18.78 C37.838,18.6773328 37.8746663,18.5893337 37.948,18.516 C38.0213337,18.4426663 38.1129995,18.406 38.223,18.406 L38.487,18.406 Z M44.955,20.001 C45.0063336,20.001 45.066833,19.9680003 45.1365,19.902 C45.206167,19.8359997 45.270333,19.7553338 45.329,19.66 L45.439,19.462 C45.4903336,19.3666662 45.5123334,19.254834 45.505,19.1265 C45.4976666,18.998166 45.464667,18.8863338 45.406,18.791 L45.153,18.362 C45.0869997,18.2666662 45.0338335,18.149334 44.9935,18.01 C44.9531665,17.870666 44.933,17.7496672 44.933,17.647 L44.933,12.422 C44.933,12.3193328 44.9201668,12.2166672 44.8945,12.114 C44.8688332,12.0113328 44.8303336,11.9380002 44.779,11.894 C44.7423332,11.8573332 44.7130001,11.7876672 44.691,11.685 C44.6689999,11.5823328 44.658,11.4796672 44.658,11.377 L44.658,11.322 C44.658,11.2193328 44.6946663,11.1295004 44.768,11.0525 C44.8413337,10.9754996 44.9293328,10.937 45.032,10.937 L45.274,10.937 C45.3840005,10.937 45.4774996,10.9681664 45.5545,11.0305 C45.6315004,11.0928336 45.67,11.1643329 45.67,11.245 C45.67,11.3330004 45.7066663,11.406333 45.78,11.465 C45.8533337,11.523667 45.9449994,11.553 46.055,11.553 L47.397,11.553 C47.4996672,11.553 47.5894996,11.5914996 47.6665,11.6685 C47.7435004,11.7455004 47.782,11.8353328 47.782,11.938 L47.782,12.191 C47.782,12.2936672 47.7673335,12.3816663 47.738,12.455 C47.7086665,12.5283337 47.6756668,12.565 47.639,12.565 C47.6023331,12.565 47.5711668,12.6053329 47.5455,12.686 C47.5198332,12.7666671 47.507,12.8583328 47.507,12.961 L47.507,17.647 C47.507,17.7496672 47.4868335,17.870666 47.4465,18.01 C47.4061665,18.149334 47.3603336,18.2703328 47.309,18.373 L47.078,18.791 C47.019333,18.8863338 46.99,18.9999993 46.99,19.132 C46.99,19.2640007 47.019333,19.3739996 47.078,19.462 L47.199,19.66 C47.2503336,19.7626672 47.3126663,19.8451664 47.386,19.9075 C47.4593337,19.9698336 47.525333,20.001 47.584,20.001 C47.642667,20.001 47.6884998,20.0394996 47.7215,20.1165 C47.7545002,20.1935004 47.771,20.2869994 47.771,20.397 L47.771,20.639 C47.771,20.7416672 47.7343337,20.8314996 47.661,20.9085 C47.5876663,20.9855004 47.4996672,21.024 47.397,21.024 L47.199,21.024 C47.0963328,21.024 46.9863339,20.9910003 46.869,20.925 C46.7516661,20.8589997 46.663667,20.7820004 46.605,20.694 L46.495,20.518 C46.4436664,20.4299996 46.3776671,20.386 46.297,20.386 C46.2163329,20.386 46.1503336,20.4336662 46.099,20.529 L46.011,20.683 C45.952333,20.7783338 45.8680005,20.8589997 45.758,20.925 C45.6479994,20.9910003 45.5416672,21.024 45.439,21.024 L45.131,21.024 C45.0283328,21.024 44.9403337,20.9855004 44.867,20.9085 C44.7936663,20.8314996 44.757,20.7416672 44.757,20.639 L44.757,20.397 C44.757,20.2869994 44.7753331,20.1935004 44.812,20.1165 C44.8486668,20.0394996 44.896333,20.001 44.955,20.001 Z M46.088,17.757 C46.1246668,17.8230003 46.1686664,17.856 46.22,17.856 C46.2713336,17.856 46.3153331,17.8230003 46.352,17.757 C46.3886668,17.698333 46.4216665,17.6066673 46.451,17.482 C46.4803335,17.3573327 46.495,17.2436672 46.495,17.141 L46.495,12.961 C46.495,12.8583328 46.4675003,12.7666671 46.4125,12.686 C46.3574997,12.6053329 46.2896671,12.565 46.209,12.565 C46.1429997,12.565 46.0843336,12.6053329 46.033,12.686 C45.9816664,12.7666671 45.956,12.8583328 45.956,12.961 L45.956,17.141 C45.956,17.2436672 45.9688332,17.3573327 45.9945,17.482 C46.0201668,17.6066673 46.0513332,17.698333 46.088,17.757 Z M43.69,12.917 C43.5653327,12.9683336 43.4516672,12.994 43.349,12.994 C43.2463328,12.994 43.1583337,13.0141665 43.085,13.0545 C43.0116663,13.0948335 42.975,13.1369998 42.975,13.181 C42.975,13.2323336 43.0134996,13.2744998 43.0905,13.3075 C43.1675004,13.3405002 43.2573328,13.357 43.36,13.357 L44.053,13.357 C44.1630005,13.357 44.2546663,13.3936663 44.328,13.467 C44.4013337,13.5403337 44.438,13.6283328 44.438,13.731 L44.438,13.995 C44.438,14.1050005 44.4215002,14.1966663 44.3885,14.27 C44.3554998,14.3433337 44.3133336,14.38 44.262,14.38 C44.2106664,14.38 44.1685002,14.4166663 44.1355,14.49 C44.1024998,14.5633337 44.086,14.6513328 44.086,14.754 L44.086,14.864 C44.086,14.9740005 44.1024998,15.0656663 44.1355,15.139 C44.1685002,15.2123337 44.2106664,15.249 44.262,15.249 C44.3133336,15.249 44.3554998,15.2856663 44.3885,15.359 C44.4215002,15.4323337 44.438,15.5239994 44.438,15.634 L44.438,15.898 C44.438,16.0006672 44.4105003,16.0886663 44.3555,16.162 C44.3004997,16.2353337 44.2326671,16.272 44.152,16.272 C44.0713329,16.272 43.9815005,16.2408336 43.8825,16.1785 C43.7834995,16.1161664 43.704667,16.0446671 43.646,15.964 L43.492,15.788 C43.4259997,15.6999996 43.3710002,15.586334 43.327,15.447 C43.2829998,15.307666 43.261,15.1866672 43.261,15.084 L43.261,14.754 C43.261,14.6513328 43.2463335,14.5633337 43.217,14.49 C43.1876665,14.4166663 43.1510002,14.38 43.107,14.38 C43.0703331,14.38 43.0391668,14.4166663 43.0135,14.49 C42.9878332,14.5633337 42.975,14.6513328 42.975,14.754 L42.975,16.019 C42.975,16.1216672 42.9365004,16.2114996 42.8595,16.2885 C42.7824996,16.3655004 42.6926672,16.404 42.59,16.404 L42.348,16.404 C42.2453328,16.404 42.1536671,16.3655004 42.073,16.2885 C41.9923329,16.2114996 41.952,16.1216672 41.952,16.019 L41.952,14.754 C41.952,14.6513328 41.9391668,14.5633337 41.9135,14.49 C41.8878332,14.4166663 41.8530002,14.38 41.809,14.38 C41.7723331,14.38 41.7375002,14.4166663 41.7045,14.49 C41.6714998,14.5633337 41.655,14.6513328 41.655,14.754 L41.655,15.084 C41.655,15.1866672 41.6348335,15.307666 41.5945,15.447 C41.5541665,15.586334 41.504667,15.6999996 41.446,15.788 L41.292,15.964 C41.2259997,16.0446671 41.1435005,16.1161664 41.0445,16.1785 C40.9454995,16.2408336 40.8556671,16.272 40.775,16.272 C40.6943329,16.272 40.6265003,16.2353337 40.5715,16.162 C40.5164997,16.0886663 40.489,16.0006672 40.489,15.898 L40.489,15.634 C40.489,15.5239994 40.5054998,15.4323337 40.5385,15.359 C40.5715002,15.2856663 40.6136664,15.249 40.665,15.249 C40.723667,15.249 40.7694998,15.2123337 40.8025,15.139 C40.8355002,15.0656663 40.852,14.9740005 40.852,14.864 L40.852,14.754 C40.852,14.6513328 40.8355002,14.5633337 40.8025,14.49 C40.7694998,14.4166663 40.723667,14.38 40.665,14.38 C40.6136664,14.38 40.5715002,14.3433337 40.5385,14.27 C40.5054998,14.1966663 40.489,14.1050005 40.489,13.995 L40.489,13.731 C40.489,13.6283328 40.5256663,13.5403337 40.599,13.467 C40.6723337,13.3936663 40.7603328,13.357 40.863,13.357 L41.567,13.357 C41.6770006,13.357 41.7686663,13.3405002 41.842,13.3075 C41.9153337,13.2744998 41.952,13.2323336 41.952,13.181 C41.952,13.1369998 41.917167,13.0948335 41.8475,13.0545 C41.777833,13.0141665 41.6916672,12.994 41.589,12.994 C41.4789995,12.994 41.3635006,12.9665003 41.2425,12.9115 C41.1214994,12.8564997 41.0280003,12.7886671 40.962,12.708 L40.753,12.488 C40.6869997,12.4073329 40.6301669,12.2991673 40.5825,12.1635 C40.5348331,12.0278327 40.511,11.9086672 40.511,11.806 L40.511,11.498 C40.511,11.3953328 40.5476663,11.3073337 40.621,11.234 C40.6943337,11.1606663 40.7859994,11.124 40.896,11.124 L41.017,11.124 C41.1196672,11.124 41.2113329,11.1606663 41.292,11.234 C41.3726671,11.3073337 41.413,11.3953328 41.413,11.498 L41.413,11.597 C41.413,11.6996672 41.4386664,11.7913329 41.49,11.872 C41.5413336,11.9526671 41.6036663,11.993 41.677,11.993 C41.7576671,11.993 41.8236664,11.9526671 41.875,11.872 C41.9263336,11.7913329 41.952,11.6996672 41.952,11.597 L41.952,11.3 C41.952,11.1973328 41.9923329,11.1093337 42.073,11.036 C42.1536671,10.9626663 42.2453328,10.926 42.348,10.926 L42.59,10.926 C42.6926672,10.926 42.7824996,10.9626663 42.8595,11.036 C42.9365004,11.1093337 42.975,11.1973328 42.975,11.3 L42.975,11.597 C42.975,11.6996672 43.0006664,11.7913329 43.052,11.872 C43.1033336,11.9526671 43.1693329,11.993 43.25,11.993 C43.3233337,11.993 43.389333,11.9526671 43.448,11.872 C43.506667,11.7913329 43.536,11.6996672 43.536,11.597 L43.536,11.498 C43.536,11.3953328 43.5726663,11.3073337 43.646,11.234 C43.7193337,11.1606663 43.8073328,11.124 43.91,11.124 L44.053,11.124 C44.1630005,11.124 44.2546663,11.1606663 44.328,11.234 C44.4013337,11.3073337 44.438,11.3953328 44.438,11.498 L44.438,11.806 C44.438,11.9086672 44.4141669,12.0259993 44.3665,12.158 C44.3188331,12.2900007 44.2546671,12.3999996 44.174,12.488 L43.976,12.719 C43.9099997,12.7996671 43.8146673,12.8656664 43.69,12.917 Z M41.765,20.782 C41.6843329,20.840667 41.5761673,20.8938331 41.4405,20.9415 C41.3048327,20.9891669 41.1820005,21.013 41.072,21.013 L40.863,21.013 C40.7603328,21.013 40.6723337,20.9745004 40.599,20.8975 C40.5256663,20.8204996 40.489,20.7306672 40.489,20.628 L40.489,20.386 C40.489,20.2759995 40.5146664,20.1825004 40.566,20.1055 C40.6173336,20.0284996 40.6796663,19.99 40.753,19.99 C40.8336671,19.99 40.9271661,19.9698335 41.0335,19.9295 C41.1398339,19.8891665 41.2333329,19.839667 41.314,19.781 C41.3946671,19.722333 41.435,19.6471671 41.435,19.5555 C41.435,19.4638329 41.3910004,19.388667 41.303,19.33 L41.171,19.22 C41.0903329,19.1466663 41.0188336,19.0513339 40.9565,18.934 C40.8941664,18.8166661 40.863,18.7030005 40.863,18.593 L40.863,18.395 C40.863,18.2849995 40.8465002,18.1933337 40.8135,18.12 C40.7804998,18.0466663 40.734667,18.01 40.676,18.01 C40.617333,18.01 40.5715002,17.9733337 40.5385,17.9 C40.5054998,17.8266663 40.489,17.7386672 40.489,17.636 L40.489,17.383 C40.489,17.2729995 40.5054998,17.1813337 40.5385,17.108 C40.5715002,17.0346663 40.617333,16.998 40.676,16.998 C40.734667,16.998 40.7804998,16.9815002 40.8135,16.9485 C40.8465002,16.9154998 40.863,16.8770002 40.863,16.833 C40.863,16.7889998 40.9014996,16.7523335 40.9785,16.723 C41.0555004,16.6936665 41.1453328,16.679 41.248,16.679 L41.501,16.679 C41.6036672,16.679 41.6916663,16.6936665 41.765,16.723 C41.8383337,16.7523335 41.875,16.7889998 41.875,16.833 C41.875,16.8770002 41.9153329,16.9154998 41.996,16.9485 C42.0766671,16.9815002 42.1683328,16.998 42.271,16.998 L42.678,16.998 C42.7806672,16.998 42.8686663,16.9815002 42.942,16.9485 C43.0153337,16.9154998 43.052,16.8770002 43.052,16.833 C43.052,16.7889998 43.0923329,16.7523335 43.173,16.723 C43.2536671,16.6936665 43.3453328,16.679 43.448,16.679 L43.69,16.679 C43.7926672,16.679 43.8843329,16.6936665 43.965,16.723 C44.0456671,16.7523335 44.086,16.7889998 44.086,16.833 C44.086,16.8770002 44.1024998,16.9154998 44.1355,16.9485 C44.1685002,16.9815002 44.2106664,16.998 44.262,16.998 C44.3133336,16.998 44.3554998,17.0346663 44.3885,17.108 C44.4215002,17.1813337 44.438,17.2729995 44.438,17.383 L44.438,17.636 C44.438,17.7386672 44.4215002,17.8266663 44.3885,17.9 C44.3554998,17.9733337 44.3133336,18.01 44.262,18.01 C44.2106664,18.01 44.1685002,18.0466663 44.1355,18.12 C44.1024998,18.1933337 44.086,18.2849995 44.086,18.395 L44.086,18.593 C44.086,18.7030005 44.0548336,18.8166661 43.9925,18.934 C43.9301664,19.0513339 43.8550004,19.1466663 43.767,19.22 L43.646,19.319 C43.5579996,19.3850003 43.514,19.4638329 43.514,19.5555 C43.514,19.6471671 43.5543329,19.722333 43.635,19.781 C43.7083337,19.839667 43.7981661,19.8891665 43.9045,19.9295 C44.0108339,19.9698335 44.0969997,19.99 44.163,19.99 C44.2436671,19.99 44.3096664,20.0284996 44.361,20.1055 C44.4123336,20.1825004 44.438,20.2759995 44.438,20.386 L44.438,20.628 C44.438,20.7306672 44.4013337,20.8204996 44.328,20.8975 C44.2546663,20.9745004 44.1630005,21.013 44.053,21.013 L43.866,21.013 C43.7633328,21.013 43.6441673,20.9891669 43.5085,20.9415 C43.3728327,20.8938331 43.2646671,20.840667 43.184,20.782 L42.777,20.463 C42.6889996,20.404333 42.5881672,20.375 42.4745,20.375 C42.3608328,20.375 42.2600004,20.404333 42.172,20.463 L41.765,20.782 Z M41.963,18.45 C42.0290003,18.5380004 42.1023329,18.611333 42.183,18.67 C42.2636671,18.728667 42.3608328,18.758 42.4745,18.758 C42.5881672,18.758 42.6853329,18.728667 42.766,18.67 C42.8466671,18.611333 42.9144997,18.5380004 42.9695,18.45 C43.0245003,18.3619996 43.052,18.288667 43.052,18.23 C43.052,18.171333 43.0153337,18.1200002 42.942,18.076 C42.8686663,18.0319998 42.7806672,18.01 42.678,18.01 L42.271,18.01 C42.1683328,18.01 42.0766671,18.0319998 41.996,18.076 C41.9153329,18.1200002 41.875,18.171333 41.875,18.23 C41.875,18.288667 41.904333,18.3619996 41.963,18.45 Z M49.223,20.012 C49.3183338,20.012 49.3971664,19.9753337 49.4595,19.902 C49.5218336,19.8286663 49.553,19.7333339 49.553,19.616 L49.553,18.879 C49.553,18.7689994 49.5218336,18.6773337 49.4595,18.604 C49.3971664,18.5306663 49.3183338,18.494 49.223,18.494 C49.1349996,18.494 49.0598336,18.4555004 48.9975,18.3785 C48.9351664,18.3014996 48.904,18.2080006 48.904,18.098 L48.904,17.856 C48.904,17.7533328 48.9351664,17.6635004 48.9975,17.5865 C49.0598336,17.5094996 49.1349996,17.471 49.223,17.471 C49.3183338,17.471 49.3971664,17.4325004 49.4595,17.3555 C49.5218336,17.2784996 49.553,17.1886672 49.553,17.086 L49.553,13.489 C49.553,13.3863328 49.5218336,13.2965004 49.4595,13.2195 C49.3971664,13.1424996 49.3183338,13.104 49.223,13.104 C49.1349996,13.104 49.0598336,13.0655004 48.9975,12.9885 C48.9351664,12.9114996 48.904,12.8180006 48.904,12.708 L48.904,12.477 C48.904,12.3669995 48.9351664,12.2735004 48.9975,12.1965 C49.0598336,12.1194996 49.1349996,12.081 49.223,12.081 C49.3183338,12.081 49.3971664,12.0406671 49.4595,11.96 C49.5218336,11.8793329 49.553,11.7876672 49.553,11.685 L49.553,11.311 C49.553,11.2083328 49.5896663,11.1185004 49.663,11.0415 C49.7363337,10.9644996 49.8279994,10.926 49.938,10.926 L50.18,10.926 C50.2826672,10.926 50.3724996,10.9644996 50.4495,11.0415 C50.5265004,11.1185004 50.565,11.2083328 50.565,11.311 L50.565,11.685 C50.565,11.7876672 50.5906664,11.8793329 50.642,11.96 C50.6933336,12.0406671 50.7593329,12.081 50.84,12.081 C50.9206671,12.081 50.9866664,12.1194996 51.038,12.1965 C51.0893336,12.2735004 51.115,12.3669995 51.115,12.477 L51.115,12.708 C51.115,12.8180006 51.0893336,12.9114996 51.038,12.9885 C50.9866664,13.0655004 50.9206671,13.104 50.84,13.104 C50.7593329,13.104 50.6933336,13.1424996 50.642,13.2195 C50.5906664,13.2965004 50.565,13.3863328 50.565,13.489 L50.565,17.086 C50.565,17.1886672 50.5906664,17.2784996 50.642,17.3555 C50.6933336,17.4325004 50.7593329,17.471 50.84,17.471 C50.9206671,17.471 50.9866664,17.5094996 51.038,17.5865 C51.0893336,17.6635004 51.115,17.7533328 51.115,17.856 L51.115,18.098 C51.115,18.2080006 51.0893336,18.3014996 51.038,18.3785 C50.9866664,18.4555004 50.9206671,18.494 50.84,18.494 C50.7593329,18.494 50.6933336,18.5306663 50.642,18.604 C50.5906664,18.6773337 50.565,18.7689994 50.565,18.879 L50.565,19.836 C50.565,19.9386672 50.5393336,20.054166 50.488,20.1825 C50.4366664,20.310834 50.3706671,20.4079997 50.29,20.474 L50.026,20.749 C49.9453329,20.8296671 49.840834,20.8956664 49.7125,20.947 C49.584166,20.9983336 49.4686672,21.024 49.366,21.024 L49.278,21.024 C49.1753328,21.024 49.0873337,20.9855004 49.014,20.9085 C48.9406663,20.8314996 48.904,20.7416672 48.904,20.639 L48.904,20.397 C48.904,20.2869994 48.9351664,20.1953337 48.9975,20.122 C49.0598336,20.0486663 49.1349996,20.012 49.223,20.012 Z M55.196,14.501 C55.1226663,14.501 55.0621669,14.5376663 55.0145,14.611 C54.9668331,14.6843337 54.943,14.7759995 54.943,14.886 L54.943,14.974 C54.943,15.0766672 54.9796663,15.1664996 55.053,15.2435 C55.1263337,15.3205004 55.2179994,15.359 55.328,15.359 L55.878,15.359 C55.9806672,15.359 56.0686663,15.3956663 56.142,15.469 C56.2153337,15.5423337 56.252,15.6303328 56.252,15.733 L56.252,15.986 C56.252,16.0960005 56.2153337,16.1876663 56.142,16.261 C56.0686663,16.3343337 55.9806672,16.371 55.878,16.371 L55.328,16.371 C55.2179994,16.371 55.1263337,16.4076663 55.053,16.481 C54.9796663,16.5543337 54.943,16.6496661 54.943,16.767 L54.943,16.943 C54.943,17.0530006 54.9796663,17.1464996 55.053,17.2235 C55.1263337,17.3005004 55.2179994,17.339 55.328,17.339 L55.878,17.339 C55.9806672,17.339 56.0686663,17.3774996 56.142,17.4545 C56.2153337,17.5315004 56.252,17.6213328 56.252,17.724 L56.252,19.825 C56.252,19.9276672 56.2281669,20.0449993 56.1805,20.177 C56.1328331,20.3090007 56.0723337,20.4153329 55.999,20.496 L55.812,20.727 C55.7313329,20.8076671 55.6286673,20.877333 55.504,20.936 C55.3793327,20.994667 55.2620005,21.024 55.152,21.024 L52.985,21.024 C52.8823328,21.024 52.7906671,20.9855004 52.71,20.9085 C52.6293329,20.8314996 52.589,20.7416672 52.589,20.639 L52.589,17.724 C52.589,17.6213328 52.6293329,17.5315004 52.71,17.4545 C52.7906671,17.3774996 52.8823328,17.339 52.985,17.339 L53.535,17.339 C53.6450005,17.339 53.7366663,17.3005004 53.81,17.2235 C53.8833337,17.1464996 53.92,17.0530006 53.92,16.943 L53.92,16.767 C53.92,16.6496661 53.8833337,16.5543337 53.81,16.481 C53.7366663,16.4076663 53.6450005,16.371 53.535,16.371 L52.985,16.371 C52.8823328,16.371 52.7906671,16.3343337 52.71,16.261 C52.6293329,16.1876663 52.589,16.0960005 52.589,15.986 L52.589,15.733 C52.589,15.6303328 52.6293329,15.5423337 52.71,15.469 C52.7906671,15.3956663 52.8823328,15.359 52.985,15.359 L53.535,15.359 C53.6450005,15.359 53.7366663,15.3205004 53.81,15.2435 C53.8833337,15.1664996 53.92,15.0766672 53.92,14.974 L53.92,14.886 C53.92,14.7759995 53.8833337,14.6843337 53.81,14.611 C53.7366663,14.5376663 53.6450005,14.501 53.535,14.501 L52.699,14.501 C52.5963328,14.501 52.5083337,14.5376663 52.435,14.611 C52.3616663,14.6843337 52.325,14.7759995 52.325,14.886 L52.325,19.825 C52.325,19.9276672 52.2975003,20.043166 52.2425,20.1715 C52.1874997,20.299834 52.1233337,20.3969997 52.05,20.463 L51.775,20.749 C51.7016663,20.8296671 51.6063339,20.8956664 51.489,20.947 C51.3716661,20.9983336 51.2653338,21.024 51.17,21.024 C51.0819996,21.024 51.0050003,20.9855004 50.939,20.9085 C50.8729997,20.8314996 50.84,20.7416672 50.84,20.639 L50.84,20.386 C50.84,20.2759995 50.8638331,20.1843337 50.9115,20.111 C50.9591669,20.0376663 51.012333,20.001 51.071,20.001 C51.129667,20.001 51.1809998,19.9643337 51.225,19.891 C51.2690002,19.8176663 51.291,19.7223339 51.291,19.605 L51.291,11.3 C51.291,11.1973328 51.3294996,11.1093337 51.4065,11.036 C51.4835004,10.9626663 51.5769994,10.926 51.687,10.926 L55.878,10.926 C55.9806672,10.926 56.0686663,10.9626663 56.142,11.036 C56.2153337,11.1093337 56.252,11.1973328 56.252,11.3 L56.252,13.291 C56.252,13.3936672 56.2245003,13.509166 56.1695,13.6375 C56.1144997,13.765834 56.0540003,13.8703329 55.988,13.951 L55.713,14.226 C55.6323329,14.3066671 55.5406672,14.3726664 55.438,14.424 C55.3353328,14.4753336 55.254667,14.501 55.196,14.501 Z M55.328,18.758 C55.328,18.6479995 55.2913337,18.5545004 55.218,18.4775 C55.1446663,18.4004996 55.0530006,18.362 54.943,18.362 L53.898,18.362 C53.7953328,18.362 53.7055004,18.4004996 53.6285,18.4775 C53.5514996,18.5545004 53.513,18.6479995 53.513,18.758 L53.513,19.605 C53.513,19.7223339 53.5514996,19.8176663 53.6285,19.891 C53.7055004,19.9643337 53.7953328,20.001 53.898,20.001 L54.943,20.001 C55.0530006,20.001 55.1446663,19.9643337 55.218,19.891 C55.2913337,19.8176663 55.328,19.7223339 55.328,19.605 L55.328,18.758 Z M52.325,13.093 C52.325,13.1956672 52.3616663,13.2873329 52.435,13.368 C52.5083337,13.4486671 52.5963328,13.489 52.699,13.489 L54.855,13.489 C54.9576672,13.489 55.0456663,13.4486671 55.119,13.368 C55.1923337,13.2873329 55.229,13.1956672 55.229,13.093 L55.229,12.235 C55.229,12.1176661 55.1923337,12.0223337 55.119,11.949 C55.0456663,11.8756663 54.9576672,11.839 54.855,11.839 L52.699,11.839 C52.5963328,11.839 52.5083337,11.8756663 52.435,11.949 C52.3616663,12.0223337 52.325,12.1176661 52.325,12.235 L52.325,13.093 Z"/>
</svg>
