<svg xmlns="http://www.w3.org/2000/svg" width="70" height="32" viewBox="0 0 70 32">
  <g fill="none" fill-rule="evenodd">
    <rect width="48" height="16" x="11" y="8" fill="#E8E8E8" rx="2"/>
    <path fill="#747E90" d="M17.5865,18.978 L18.2355,18.978 L18.2355,19.979 L15.7715,19.979 L15.7715,18.978 L16.5855,18.978 L16.5855,13.049 L15.7715,13.049 L15.7715,12.048 L16.7945,12.048 L17.5865,12.84 L17.5865,18.978 Z M20.2265,12.059 L23.1195,12.059 L23.9115,12.862 L23.9115,19.198 L23.1085,19.99 L20.2155,19.99 L19.4235,19.198 L19.4235,12.851 L20.2265,12.059 Z M22.9105,19 L22.9105,13.06 L20.4245,13.06 L20.4245,19 L22.9105,19 Z M26.2215,20.749 C26.1408329,20.8296671 26.036334,20.8956664 25.908,20.947 C25.779666,20.9983336 25.6605006,21.024 25.5505,21.024 C25.4551662,21.024 25.3708337,20.9855004 25.2975,20.9085 C25.2241663,20.8314996 25.1875,20.7416672 25.1875,20.639 L25.1875,20.386 C25.1875,20.2759995 25.2131664,20.1843337 25.2645,20.111 C25.3158336,20.0376663 25.3781663,20.001 25.4515,20.001 C25.5321671,20.001 25.5999997,19.9643337 25.655,19.891 C25.7100003,19.8176663 25.7375,19.7260006 25.7375,19.616 L25.7375,18.78 C25.7375,18.6773328 25.7759996,18.5893337 25.853,18.516 C25.9300004,18.4426663 26.0198328,18.406 26.1225,18.406 L26.3755,18.406 C26.4855006,18.406 26.5771663,18.4426663 26.6505,18.516 C26.7238337,18.5893337 26.7605,18.6773328 26.7605,18.78 L26.7605,19.825 C26.7605,19.9276672 26.7348336,20.043166 26.6835,20.1715 C26.6321664,20.299834 26.5661671,20.3969997 26.4855,20.463 L26.2215,20.749 Z M28.0035,20.001 C28.1135005,20.001 28.2051663,19.9643337 28.2785,19.891 C28.3518337,19.8176663 28.3885,19.7260006 28.3885,19.616 L28.3885,18.043 C28.3885,17.9403328 28.3518337,17.8505004 28.2785,17.7735 C28.2051663,17.6964996 28.1135005,17.658 28.0035,17.658 L25.5615,17.658 C25.4588328,17.658 25.3708337,17.6195004 25.2975,17.5425 C25.2241663,17.4654996 25.1875,17.3756672 25.1875,17.273 L25.1875,17.031 C25.1875,16.9209995 25.2241663,16.8275004 25.2975,16.7505 C25.3708337,16.6734996 25.4588328,16.635 25.5615,16.635 L28.0035,16.635 C28.1135005,16.635 28.2051663,16.6130002 28.2785,16.569 C28.3518337,16.5249998 28.3885,16.473667 28.3885,16.415 C28.3885,16.3416663 28.4251663,16.2811669 28.4985,16.2335 C28.5718337,16.1858331 28.6598328,16.162 28.7625,16.162 L29.0265,16.162 C29.1291672,16.162 29.2189996,16.1858331 29.296,16.2335 C29.3730004,16.2811669 29.4115,16.3416663 29.4115,16.415 C29.4115,16.473667 29.4481663,16.5249998 29.5215,16.569 C29.5948337,16.6130002 29.6828328,16.635 29.7855,16.635 L32.1505,16.635 C32.2531672,16.635 32.3411663,16.6734996 32.4145,16.7505 C32.4878337,16.8275004 32.5245,16.9209995 32.5245,17.031 L32.5245,17.273 C32.5245,17.3756672 32.4878337,17.4654996 32.4145,17.5425 C32.3411663,17.6195004 32.2531672,17.658 32.1505,17.658 L29.7855,17.658 C29.6828328,17.658 29.5948337,17.6964996 29.5215,17.7735 C29.4481663,17.8505004 29.4115,17.9403328 29.4115,18.043 L29.4115,19.825 C29.4115,19.9276672 29.3858336,20.043166 29.3345,20.1715 C29.2831664,20.299834 29.2171671,20.3969997 29.1365,20.463 L28.8615,20.749 C28.7808329,20.8296671 28.6781673,20.8956664 28.5535,20.947 C28.4288327,20.9983336 28.3115005,21.024 28.2015,21.024 L27.7945,21.024 C27.6844994,21.024 27.5928337,20.9855004 27.5195,20.9085 C27.4461663,20.8314996 27.4095,20.7416672 27.4095,20.639 L27.4095,20.386 C27.4095,20.2759995 27.4461663,20.1843337 27.5195,20.111 C27.5928337,20.0376663 27.6844994,20.001 27.7945,20.001 L28.0035,20.001 Z M26.4855,14.919 C26.5955005,14.919 26.7238326,14.9025002 26.8705,14.8695 C27.0171674,14.8364998 27.1381662,14.7943336 27.2335,14.743 L27.2665,14.732 C27.3618338,14.6806664 27.4095,14.6238336 27.4095,14.5615 C27.4095,14.4991664 27.3618338,14.4460002 27.2665,14.402 L26.5515,14.061 C26.4561662,14.0169998 26.338834,13.9803335 26.1995,13.951 C26.060166,13.9216665 25.9355006,13.907 25.8255,13.907 L25.5615,13.907 C25.4588328,13.907 25.3708337,13.8685004 25.2975,13.7915 C25.2241663,13.7144996 25.1875,13.6210005 25.1875,13.511 L25.1875,13.302 C25.1875,13.1993328 25.2241663,13.1113337 25.2975,13.038 C25.3708337,12.9646663 25.4588328,12.928 25.5615,12.928 L26.1225,12.928 C26.2325005,12.928 26.3589993,12.9426665 26.502,12.972 C26.6450007,13.0013335 26.7641662,13.0416664 26.8595,13.093 L28.4765,13.83 C28.5791672,13.8740002 28.6964993,13.896 28.8285,13.896 C28.9605007,13.896 29.0778328,13.8740002 29.1805,13.83 L31.1605,12.895 C31.2558338,12.8509998 31.3364997,12.7960003 31.4025,12.73 C31.4685003,12.6639997 31.5015,12.6053336 31.5015,12.554 C31.5015,12.495333 31.4648337,12.4458335 31.3915,12.4055 C31.3181663,12.3651665 31.2265006,12.345 31.1165,12.345 L26.3865,12.345 C26.2838328,12.345 26.1665007,12.3211669 26.0345,12.2735 C25.9024993,12.2258331 25.7961671,12.1653337 25.7155,12.092 L25.4845,11.883 C25.4038329,11.8096663 25.334167,11.7161672 25.2755,11.6025 C25.216833,11.4888328 25.1875,11.3806672 25.1875,11.278 C25.1875,11.1753328 25.2241663,11.0910003 25.2975,11.025 C25.3708337,10.9589997 25.4588328,10.926 25.5615,10.926 L25.8255,10.926 C25.9355006,10.926 26.0271663,10.9443332 26.1005,10.981 C26.1738337,11.0176669 26.2105,11.065333 26.2105,11.124 C26.2105,11.182667 26.2471663,11.2303331 26.3205,11.267 C26.3938337,11.3036668 26.4854994,11.322 26.5955,11.322 L32.1505,11.322 C32.2531672,11.322 32.3411663,11.3586663 32.4145,11.432 C32.4878337,11.5053337 32.5245,11.5969995 32.5245,11.707 L32.5245,13.016 C32.5245,13.1260006 32.4915003,13.2359995 32.4255,13.346 C32.3594997,13.4560005 32.2751672,13.5293331 32.1725,13.566 L30.4125,14.391 C30.3098328,14.4350002 30.2585,14.4881664 30.2585,14.5505 C30.2585,14.6128336 30.3098328,14.6696664 30.4125,14.721 L30.4785,14.743 C30.5738338,14.7943336 30.6929993,14.8364998 30.836,14.8695 C30.9790007,14.9025002 31.1054994,14.919 31.2155,14.919 L32.1505,14.919 C32.2531672,14.919 32.3411663,14.9556663 32.4145,15.029 C32.4878337,15.1023337 32.5245,15.1903328 32.5245,15.293 L32.5245,15.546 C32.5245,15.6486672 32.4878337,15.7366663 32.4145,15.81 C32.3411663,15.8833337 32.2531672,15.92 32.1505,15.92 L30.9295,15.92 C30.8268328,15.92 30.7021674,15.9053335 30.5555,15.876 C30.4088326,15.8466665 30.2878338,15.8100002 30.1925,15.766 L29.1695,15.293 C29.0668328,15.2416664 28.9495007,15.216 28.8175,15.216 C28.6854993,15.216 28.5681672,15.2416664 28.4655,15.293 L27.4315,15.766 C27.3288328,15.8100002 27.2060007,15.8466665 27.063,15.876 C26.9199993,15.9053335 26.7935005,15.92 26.6835,15.92 L25.5835,15.92 C25.4734994,15.92 25.3818337,15.8833337 25.3085,15.81 C25.2351663,15.7366663 25.1985,15.6486672 25.1985,15.546 L25.1985,15.293 C25.1985,15.1903328 25.2351663,15.1023337 25.3085,15.029 C25.3818337,14.9556663 25.4734994,14.919 25.5835,14.919 L26.4855,14.919 Z M31.6005,18.406 C31.6958338,18.406 31.7819996,18.4426663 31.859,18.516 C31.9360004,18.5893337 31.9745,18.6773328 31.9745,18.78 L31.9745,19.616 C31.9745,19.7260006 32.0001664,19.8176663 32.0515,19.891 C32.1028336,19.9643337 32.1651663,20.001 32.2385,20.001 C32.3191671,20.001 32.3869997,20.0376663 32.442,20.111 C32.4970003,20.1843337 32.5245,20.2759995 32.5245,20.386 L32.5245,20.639 C32.5245,20.7416672 32.4878337,20.8314996 32.4145,20.9085 C32.3411663,20.9855004 32.2531672,21.024 32.1505,21.024 C32.0404994,21.024 31.9231673,20.9983336 31.7985,20.947 C31.6738327,20.8956664 31.5711671,20.8296671 31.4905,20.749 L31.2265,20.463 C31.1531663,20.3969997 31.0890003,20.299834 31.034,20.1715 C30.9789997,20.043166 30.9515,19.9276672 30.9515,19.825 L30.9515,18.78 C30.9515,18.6773328 30.9881663,18.5893337 31.0615,18.516 C31.1348337,18.4426663 31.2264994,18.406 31.3365,18.406 L31.6005,18.406 Z M36.2645,11.014 L34.4935,20.969 L33.3385,20.969 L35.1095,11.014 L36.2645,11.014 Z M39.8615,13.434 C39.9641672,13.434 40.0558329,13.3973337 40.1365,13.324 C40.2171671,13.2506663 40.2575,13.1590006 40.2575,13.049 L40.2575,12.323 C40.2575,12.2203328 40.2171671,12.1305004 40.1365,12.0535 C40.0558329,11.9764996 39.9641672,11.938 39.8615,11.938 L37.4635,11.938 C37.3608328,11.938 37.2728337,11.9013337 37.1995,11.828 C37.1261663,11.7546663 37.0895,11.6630005 37.0895,11.553 L37.0895,11.3 C37.0895,11.1973328 37.1261663,11.1093337 37.1995,11.036 C37.2728337,10.9626663 37.3608328,10.926 37.4635,10.926 L44.0525,10.926 C44.1551672,10.926 44.2431663,10.9626663 44.3165,11.036 C44.3898337,11.1093337 44.4265,11.1973328 44.4265,11.3 L44.4265,11.553 C44.4265,11.6630005 44.3898337,11.7546663 44.3165,11.828 C44.2431663,11.9013337 44.1551672,11.938 44.0525,11.938 L41.6545,11.938 C41.5518328,11.938 41.4620004,11.9764996 41.385,12.0535 C41.3079996,12.1305004 41.2695,12.2203328 41.2695,12.323 L41.2695,13.049 C41.2695,13.1590006 41.3079996,13.2506663 41.385,13.324 C41.4620004,13.3973337 41.5518328,13.434 41.6545,13.434 L44.0525,13.434 C44.1551672,13.434 44.2431663,13.4724996 44.3165,13.5495 C44.3898337,13.6265004 44.4265,13.7163328 44.4265,13.819 L44.4265,18.032 C44.4265,18.1420005 44.3898337,18.2336663 44.3165,18.307 C44.2431663,18.3803337 44.1551672,18.417 44.0525,18.417 L43.7995,18.417 C43.6894994,18.417 43.5960004,18.3803337 43.519,18.307 C43.4419996,18.2336663 43.4035,18.1420005 43.4035,18.032 L43.4035,14.842 C43.4035,14.7319994 43.3668337,14.6403337 43.2935,14.567 C43.2201663,14.4936663 43.1285005,14.457 43.0185,14.457 L38.4975,14.457 C38.3874994,14.457 38.2958337,14.4936663 38.2225,14.567 C38.1491663,14.6403337 38.1125,14.7319994 38.1125,14.842 L38.1125,18.032 C38.1125,18.1420005 38.0758337,18.2336663 38.0025,18.307 C37.9291663,18.3803337 37.8375005,18.417 37.7275,18.417 L37.4635,18.417 C37.3608328,18.417 37.2728337,18.3803337 37.1995,18.307 C37.1261663,18.2336663 37.0895,18.1420005 37.0895,18.032 L37.0895,13.819 C37.0895,13.7163328 37.1261663,13.6265004 37.1995,13.5495 C37.2728337,13.4724996 37.3608328,13.434 37.4635,13.434 L39.8615,13.434 Z M37.0895,20.386 C37.0895,20.2759995 37.1261663,20.1843337 37.1995,20.111 C37.2728337,20.0376663 37.3608328,20.001 37.4635,20.001 L38.1125,20.001 C38.2151672,20.001 38.3214994,19.9680003 38.4315,19.902 C38.5415005,19.8359997 38.625833,19.7553338 38.6845,19.66 L40.0705,17.339 C40.1145002,17.2509996 40.1566665,17.137334 40.197,16.998 C40.2373335,16.858666 40.2575,16.7376672 40.2575,16.635 L40.2575,15.59 C40.2575,15.4799995 40.2941663,15.3883337 40.3675,15.315 C40.4408337,15.2416663 40.5288328,15.205 40.6315,15.205 L40.8845,15.205 C40.9871672,15.205 41.0769996,15.2416663 41.154,15.315 C41.2310004,15.3883337 41.2695,15.4799995 41.2695,15.59 L41.2695,16.569 C41.2695,16.6716672 41.2896665,16.792666 41.33,16.932 C41.3703335,17.071334 41.4161664,17.1886662 41.4675,17.284 L42.8315,19.66 C42.890167,19.7553338 42.9763328,19.8359997 43.09,19.902 C43.2036672,19.9680003 43.3118328,20.001 43.4145,20.001 L44.0635,20.001 C44.1661672,20.001 44.2541663,20.0376663 44.3275,20.111 C44.4008337,20.1843337 44.4375,20.2759995 44.4375,20.386 L44.4375,20.639 C44.4375,20.7416672 44.4008337,20.8314996 44.3275,20.9085 C44.2541663,20.9855004 44.1661672,21.024 44.0635,21.024 L42.8535,21.024 C42.7508328,21.024 42.6426672,20.9910003 42.529,20.925 C42.4153328,20.8589997 42.329167,20.7783338 42.2705,20.683 L40.9395,18.494 C40.880833,18.3986662 40.8148337,18.3528333 40.7415,18.3565 C40.6681663,18.3601667 40.6058336,18.4059996 40.5545,18.494 L39.2565,20.683 C39.197833,20.7783338 39.1116672,20.8589997 38.998,20.925 C38.8843328,20.9910003 38.7761672,21.024 38.6735,21.024 L37.4635,21.024 C37.3608328,21.024 37.2728337,20.9855004 37.1995,20.9085 C37.1261663,20.8314996 37.0895,20.7416672 37.0895,20.639 L37.0895,20.386 Z"/>
    <g transform="rotate(-90 34.5 -14.5)">
      <rect width="8" height="8" fill="#000" opacity="0"/>
      <path fill="#A6AAB2" d="M5.3828125,1.28984375 L2.4078125,3.85546875 C2.32265625,3.92890625 2.32265625,4.0703125 2.4078125,4.14453125 L5.3828125,6.71015625 C5.49375,6.80546875 5.65625,6.71953125 5.65625,6.565625 L5.65625,1.434375 C5.65625,1.28046875 5.49375,1.19453125 5.3828125,1.28984375 Z"/>
    </g>
  </g>
</svg>
