<svg xmlns="http://www.w3.org/2000/svg" width="70" height="32" viewBox="0 0 70 32">
  <path fill="#747E90" d="M11.365 21.013C11.475 21.013 11.5685 20.9745 11.6455 20.8975 11.7225 20.8205 11.761 20.7306667 11.761 20.628L11.761 20.628 11.761 20.364C11.761 20.2613333 11.7225 20.1733333 11.6455 20.1 11.5685 20.0266667 11.475 19.99 11.365 19.99L11.365 19.99 11.277 19.99C11.167 19.99 11.0753333 19.9533333 11.002 19.88 10.9286667 19.8066667 10.892 19.715 10.892 19.605L10.892 19.605 10.892 18.318C10.892 18.208 10.9286667 18.1163333 11.002 18.043 11.0753333 17.9696667 11.167 17.933 11.277 17.933L11.277 17.933 11.365 17.933C11.475 17.933 11.5685 17.8945 11.6455 17.8175 11.7225 17.7405 11.761 17.647 11.761 17.537L11.761 17.537 11.761 17.295C11.761 17.1923333 11.7225 17.1025 11.6455 17.0255 11.5685 16.9485 11.475 16.91 11.365 16.91L11.365 16.91 11.277 16.91C11.167 16.91 11.0753333 16.8733333 11.002 16.8 10.9286667 16.7266667 10.892 16.6386667 10.892 16.536L10.892 16.536 10.892 15.568C10.892 15.4653333 10.8993333 15.3755 10.914 15.2985 10.9286667 15.2215 10.947 15.183 10.969 15.183 10.9836667 15.183 11.024 15.1555 11.09 15.1005 11.156 15.0455 11.222 14.9776667 11.288 14.897L11.288 14.897 11.497 14.666C11.5776667 14.5853333 11.6418333 14.4771667 11.6895 14.3415 11.7371667 14.2058333 11.761 14.0866667 11.761 13.984L11.761 13.984 11.761 11.179C11.761 11.1056667 11.7225 11.0451667 11.6455 10.9975 11.5685 10.9498333 11.475 10.926 11.365 10.926L11.365 10.926 9.374 10.926C9.27133333 10.926 9.18333333 10.9443333 9.11 10.981 9.03666667 11.0176667 9 11.0653333 9 11.124L9 11.124 9 14.237C9.00733333 14.237 9.011 14.2755 9.011 14.3525 9.011 14.4295 9.00733333 14.5193333 9 14.622L9 14.622 9 14.798C9 14.9006667 9.03666667 14.9886667 9.11 15.062 9.18333333 15.1353333 9.27133333 15.172 9.374 15.172L9.374 15.172 9.693 15.172C9.803 15.172 9.89466667 15.2123333 9.968 15.293 10.0413333 15.3736667 10.078 15.4653333 10.078 15.568L10.078 15.568 10.078 19.605C10.078 19.715 10.067 19.8066667 10.045 19.88 10.023 19.9533333 9.99366667 19.99 9.957 19.99 9.913 19.99 9.87816667 19.9533333 9.8525 19.88 9.82683333 19.8066667 9.814 19.715 9.814 19.605L9.814 19.605 9.814 15.953C9.814 15.843 9.77733333 15.7513333 9.704 15.678 9.63066667 15.6046667 9.539 15.568 9.429 15.568L9.429 15.568 9.374 15.568C9.27133333 15.568 9.18333333 15.6046667 9.11 15.678 9.03666667 15.7513333 9 15.843 9 15.953L9 15.953 9 19.803C9 19.913 9.022 20.0376667 9.066 20.177 9.11 20.3163333 9.16866667 20.4263333 9.242 20.507L9.242 20.507 9.374 20.694C9.44733333 20.782 9.54266667 20.8571667 9.66 20.9195 9.77733333 20.9818333 9.88733333 21.013 9.99 21.013L9.99 21.013 11.365 21.013zM13.048 21.024C13.158 21.024 13.2716667 20.991 13.389 20.925 13.5063333 20.859 13.598 20.7856667 13.664 20.705L13.664 20.705 13.807 20.518C13.8803333 20.43 13.939 20.3181667 13.983 20.1825 14.027 20.0468333 14.049 19.9276667 14.049 19.825L14.049 19.825 14.049 11.3C14.049 11.1973333 14.0123333 11.1093333 13.939 11.036 13.8656667 10.9626667 13.774 10.926 13.664 10.926L13.664 10.926 13.51 10.926C13.4 10.926 13.3083333 10.9626667 13.235 11.036 13.1616667 11.1093333 13.125 11.1973333 13.125 11.3L13.125 11.3 13.125 13.61C13.125 13.7126667 13.1158333 13.8025 13.0975 13.8795 13.0791667 13.9565 13.0516667 13.995 13.015 13.995 12.9856667 13.995 12.96 13.9565 12.938 13.8795 12.916 13.8025 12.905 13.7126667 12.905 13.61L12.905 13.61 12.905 11.608C12.905 11.498 12.8665 11.4063333 12.7895 11.333 12.7125 11.2596667 12.6226667 11.223 12.52 11.223L12.52 11.223 12.377 11.223C12.2743333 11.223 12.1826667 11.2596667 12.102 11.333 12.0213333 11.4063333 11.981 11.498 11.981 11.608L11.981 11.608 11.981 13.797C11.981 13.907 12.0066667 14.0298333 12.058 14.1655 12.1093333 14.3011667 12.168 14.4093333 12.234 14.49L12.234 14.49 12.443 14.721C12.509 14.8016667 12.5878333 14.8713333 12.6795 14.93 12.7711667 14.9886667 12.8463333 15.018 12.905 15.018 12.9636667 15.018 13.015 15.0381667 13.059 15.0785 13.103 15.1188333 13.125 15.1683333 13.125 15.227 13.125 15.2856667 13.103 15.3333333 13.059 15.37 13.015 15.4066667 12.9636667 15.425 12.905 15.425L12.8575625 15.4311875C12.8066875 15.4435625 12.7455 15.4745 12.674 15.524 12.586 15.5826667 12.509 15.6523333 12.443 15.733L12.443 15.733 12.234 15.964C12.168 16.0446667 12.1093333 16.151 12.058 16.283 12.0066667 16.415 11.981 16.5323333 11.981 16.635L11.981 16.635 11.981 19.044C11.981 19.154 12.0213333 19.2456667 12.102 19.319 12.1826667 19.3923333 12.2743333 19.429 12.377 19.429L12.377 19.429 12.52 19.429C12.6226667 19.429 12.7125 19.3923333 12.7895 19.319 12.8665 19.2456667 12.905 19.154 12.905 19.044L12.905 19.044 12.905 16.833C12.905 16.7303333 12.916 16.6423333 12.938 16.569 12.96 16.4956667 12.9856667 16.459 13.015 16.459 13.0516667 16.459 13.0791667 16.4956667 13.0975 16.569 13.1158333 16.6423333 13.125 16.7303333 13.125 16.833L13.125 16.833 13.125 19.616C13.125 19.726 13.0883333 19.8176667 13.015 19.891 12.9416667 19.9643333 12.85 20.001 12.74 20.001L12.74 20.001 12.443 20.001C12.3403333 20.001 12.2505 20.0376667 12.1735 20.111 12.0965 20.1843333 12.058 20.276 12.058 20.386L12.058 20.386 12.058 20.639C12.058 20.7416667 12.0965 20.8315 12.1735 20.9085 12.2505 20.9855 12.3403333 21.024 12.443 21.024L12.443 21.024 13.048 21.024zM15.963 21.024C16.0656667 21.024 16.1536667 20.9855 16.227 20.9085 16.3003333 20.8315 16.337 20.7416667 16.337 20.639L16.337 20.639 16.337 20.386C16.337 20.276 16.3003333 20.1843333 16.227 20.111 16.1536667 20.0376667 16.0656667 20.001 15.963 20.001L15.963 20.001 15.6 20.001C15.49 20.001 15.3965 19.9643333 15.3195 19.891 15.2425 19.8176667 15.204 19.726 15.204 19.616L15.204 19.616 15.204 16.833C15.204 16.7303333 15.215 16.6423333 15.237 16.569 15.259 16.4956667 15.281 16.459 15.303 16.459 15.3396667 16.459 15.3671667 16.4956667 15.3855 16.569 15.4038333 16.6423333 15.413 16.7303333 15.413 16.833L15.413 16.833 15.413 19.044C15.413 19.154 15.4533333 19.2456667 15.534 19.319 15.6146667 19.3923333 15.7063333 19.429 15.809 19.429L15.809 19.429 15.963 19.429C16.0656667 19.429 16.1536667 19.3923333 16.227 19.319 16.3003333 19.2456667 16.337 19.154 16.337 19.044L16.337 19.044 16.337 16.635C16.337 16.5323333 16.3113333 16.415 16.26 16.283 16.2086667 16.151 16.1536667 16.0446667 16.095 15.964L16.095 15.964 15.875 15.733C15.8016667 15.6523333 15.721 15.5808333 15.633 15.5185 15.545 15.4561667 15.4716667 15.425 15.413 15.425 15.3543333 15.425 15.3048333 15.4066667 15.2645 15.37 15.2241667 15.3333333 15.204 15.2856667 15.204 15.227 15.204 15.1683333 15.2241667 15.1188333 15.2645 15.0785 15.3048333 15.0381667 15.3543333 15.018 15.413 15.018 15.4716667 15.018 15.545 14.9886667 15.633 14.93 15.721 14.8713333 15.8016667 14.8016667 15.875 14.721L15.875 14.721 16.095 14.49C16.1536667 14.4093333 16.2086667 14.3011667 16.26 14.1655 16.3113333 14.0298333 16.337 13.907 16.337 13.797L16.337 13.797 16.337 11.608C16.337 11.498 16.3003333 11.4063333 16.227 11.333 16.1536667 11.2596667 16.0656667 11.223 15.963 11.223L15.963 11.223 15.809 11.223C15.7063333 11.223 15.6146667 11.2596667 15.534 11.333 15.4533333 11.4063333 15.413 11.498 15.413 11.608L15.413 11.608 15.413 13.61C15.413 13.7126667 15.4038333 13.8025 15.3855 13.8795 15.3671667 13.9565 15.3396667 13.995 15.303 13.995 15.281 13.995 15.259 13.9565 15.237 13.8795 15.215 13.8025 15.204 13.7126667 15.204 13.61L15.204 13.61 15.204 11.3C15.204 11.1973333 15.1673333 11.1093333 15.094 11.036 15.0206667 10.9626667 14.929 10.926 14.819 10.926L14.819 10.926 14.676 10.926C14.5733333 10.926 14.4835 10.9626667 14.4065 11.036 14.3295 11.1093333 14.291 11.1973333 14.291 11.3L14.291 11.3 14.291 19.825C14.291 19.9276667 14.3148333 20.0468333 14.3625 20.1825 14.4101667 20.3181667 14.4633333 20.43 14.522 20.518L14.522 20.518 14.676 20.705C14.7346667 20.7856667 14.8263333 20.859 14.951 20.925 15.0756667 20.991 15.1893333 21.024 15.292 21.024L15.292 21.024 15.963 21.024zM10.463 14.171L10.298 14.171C10.1953333 14.171 10.1073333 14.1325 10.034 14.0555 9.96066667 13.9785 9.924 13.8886667 9.924 13.786L9.924 13.786 9.924 12.323C9.924 12.2203333 9.96066667 12.1305 10.034 12.0535 10.1073333 11.9765 10.1953333 11.938 10.298 11.938L10.298 11.938 10.463 11.938C10.5656667 11.938 10.6536667 11.9765 10.727 12.0535 10.8003333 12.1305 10.837 12.2203333 10.837 12.323L10.837 12.323 10.837 13.786C10.837 13.8886667 10.8003333 13.9785 10.727 14.0555 10.6536667 14.1325 10.5656667 14.171 10.463 14.171L10.463 14.171zM23.509 21.024C23.6116667 21.024 23.7106667 20.9873333 23.806 20.914 23.9013333 20.8406667 23.9673333 20.7526667 24.004 20.65L24.004 20.65 24.62 18.516C24.6493333 18.4133333 24.675 18.2886667 24.697 18.142 24.719 17.9953333 24.73 17.867 24.73 17.757L24.73 17.757 24.73 17.438C24.73 17.3353333 24.6915 17.2436667 24.6145 17.163 24.5375 17.0823333 24.444 17.042 24.334 17.042L24.334 17.042 22.321 17.042C22.211 17.042 22.1248333 17.0053333 22.0625 16.932 22.0001667 16.8586667 21.9763333 16.7706667 21.991 16.668L21.991 16.668 22.09 15.755C22.1046667 15.6523333 22.1541667 15.5625 22.2385 15.4855 22.3228333 15.4085 22.4163333 15.37 22.519 15.37L22.519 15.37 24.345 15.37C24.455 15.37 24.5466667 15.3333333 24.62 15.26 24.6933333 15.1866667 24.73 15.0986667 24.73 14.996L24.73 14.996 24.73 14.732C24.73 14.6293333 24.6933333 14.5413333 24.62 14.468 24.5466667 14.3946667 24.455 14.358 24.345 14.358L24.345 14.358 22.64 14.358C22.5373333 14.358 22.453 14.3195 22.387 14.2425 22.321 14.1655 22.2953333 14.0756667 22.31 13.973L22.31 13.973 22.409 13.214C22.4163333 13.104 22.4603333 13.0123333 22.541 12.939 22.6216667 12.8656667 22.717 12.829 22.827 12.829L22.827 12.829 24.345 12.829C24.455 12.829 24.5466667 12.7923333 24.62 12.719 24.6933333 12.6456667 24.73 12.554 24.73 12.444L24.73 12.444 24.73 12.191C24.73 12.0883333 24.6933333 11.9985 24.62 11.9215 24.5466667 11.8445 24.455 11.806 24.345 11.806L24.345 11.806 22.948 11.806C22.8453333 11.806 22.7591667 11.7693333 22.6895 11.696 22.6198333 11.6226667 22.5923333 11.5346667 22.607 11.432L22.607 11.432 22.618 11.3C22.6326667 11.1973333 22.6088333 11.1093333 22.5465 11.036 22.4841667 10.9626667 22.4016667 10.926 22.299 10.926L22.299 10.926 22.002 10.926C21.8993333 10.926 21.8058333 10.9626667 21.7215 11.036 21.6371667 11.1093333 21.5876667 11.1973333 21.573 11.3L21.573 11.3 21.551 11.432C21.5363333 11.5346667 21.4905 11.6226667 21.4135 11.696 21.3365 11.7693333 21.2466667 11.806 21.144 11.806 21.0486667 11.806 20.9661667 11.8445 20.8965 11.9215 20.8268333 11.9985 20.792 12.0883333 20.792 12.191L20.792 12.191 20.792 12.444C20.792 12.554 20.8195 12.6456667 20.8745 12.719 20.9295 12.7923333 21.001 12.829 21.089 12.829 21.1696667 12.829 21.2356667 12.8656667 21.287 12.939 21.3383333 13.0123333 21.3566667 13.104 21.342 13.214L21.342 13.214 21.254 13.973C21.2393333 14.0756667 21.2063333 14.1655 21.155 14.2425 21.1036667 14.3195 21.0486667 14.358 20.99 14.358 20.9313333 14.358 20.8836667 14.3946667 20.847 14.468 20.8103333 14.5413333 20.792 14.6293333 20.792 14.732L20.792 14.732 20.792 14.996C20.792 15.0986667 20.8066667 15.1866667 20.836 15.26 20.8653333 15.3333333 20.8983333 15.37 20.935 15.37 20.979 15.37 21.0101667 15.4085 21.0285 15.4855 21.0468333 15.5625 21.0486667 15.6523333 21.034 15.755L21.034 15.755 20.924 16.646C20.9093333 16.7486667 20.9001667 16.877 20.8965 17.031 20.8928333 17.185 20.891 17.3133333 20.891 17.416L20.891 17.691C20.891 17.7936667 20.9276667 17.8816667 21.001 17.955 21.0743333 18.0283333 21.1623333 18.065 21.265 18.065L21.265 18.065 23.234 18.065C23.344 18.065 23.4265 18.1035 23.4815 18.1805 23.5365 18.2575 23.5456667 18.3473333 23.509 18.45L23.509 18.45 23.157 19.627C23.1276667 19.737 23.0653333 19.8268333 22.97 19.8965 22.8746667 19.9661667 22.772 20.001 22.662 20.001L22.662 20.001 22.607 20.001C22.5043333 20.001 22.4053333 19.9661667 22.31 19.8965 22.2146667 19.8268333 22.1486667 19.737 22.112 19.627L22.112 19.627 21.98 19.154C21.9433333 19.0513333 21.8791667 18.9633333 21.7875 18.89 21.6958333 18.8166667 21.595 18.78 21.485 18.78L21.485 18.78 21.177 18.78C21.067 18.78 20.9845 18.8166667 20.9295 18.89 20.8745 18.9633333 20.8616667 19.0513333 20.891 19.154L20.891 19.154 21.331 20.65C21.3676667 20.7526667 21.4318333 20.8406667 21.5235 20.914 21.6151667 20.9873333 21.716 21.024 21.826 21.024L21.826 21.024 23.509 21.024zM19.78 21.024C19.8826667 21.024 19.9725 20.9855 20.0495 20.9085 20.1265 20.8315 20.165 20.7416667 20.165 20.639L20.165 20.639 20.165 19.66C20.165 19.5573333 20.1833333 19.4693333 20.22 19.396 20.2566667 19.3226667 20.3043333 19.286 20.363 19.286L20.4052813 19.2787812C20.4458438 19.2643437 20.48125 19.22825 20.5115 19.1705 20.5518333 19.0935 20.572 19.0036667 20.572 18.901L20.572 18.901 20.572 18.659C20.572 18.549 20.5518333 18.4555 20.5115 18.3785 20.4711667 18.3015 20.4216667 18.263 20.363 18.263 20.3043333 18.263 20.2566667 18.2263333 20.22 18.153 20.1833333 18.0796667 20.165 17.988 20.165 17.878L20.165 17.878 20.165 17.427C20.165 17.3243333 20.1833333 17.2345 20.22 17.1575 20.2566667 17.0805 20.3043333 17.042 20.363 17.042 20.4216667 17.042 20.4711667 17.0035 20.5115 16.9265 20.5518333 16.8495 20.572 16.7596667 20.572 16.657L20.572 16.657 20.572 16.415C20.572 16.305 20.5518333 16.2133333 20.5115 16.14 20.4711667 16.0666667 20.4216667 16.03 20.363 16.03L20.3210625 16.0227812C20.2811875 16.0083437 20.2475 15.97225 20.22 15.9145 20.1833333 15.8375 20.165 15.744 20.165 15.634L20.165 15.634 20.165 13.709C20.165 13.6063333 20.1265 13.5165 20.0495 13.4395 19.9725 13.3625 19.8826667 13.324 19.78 13.324L19.78 13.324 19.527 13.324C19.417 13.324 19.3253333 13.3625 19.252 13.4395 19.1786667 13.5165 19.142 13.6063333 19.142 13.709L19.142 13.709 19.142 15.634C19.142 15.744 19.1236667 15.8375 19.087 15.9145 19.0503333 15.9915 19.0026667 16.03 18.944 16.03 18.8853333 16.03 18.8358333 15.9915 18.7955 15.9145 18.7551667 15.8375 18.735 15.744 18.735 15.634L18.735 15.634 18.735 12.983C18.735 12.8803333 18.7716667 12.7905 18.845 12.7135 18.9183333 12.6365 19.01 12.598 19.12 12.598L19.12 12.598 20.187 12.598C20.2896667 12.598 20.3795 12.5595 20.4565 12.4825 20.5335 12.4055 20.572 12.3156667 20.572 12.213L20.572 12.213 20.572 11.971C20.572 11.861 20.5335 11.7693333 20.4565 11.696 20.3795 11.6226667 20.2896667 11.586 20.187 11.586L20.187 11.586 19.12 11.586C19.01 11.586 18.9183333 11.553 18.845 11.487 18.7716667 11.421 18.735 11.344 18.735 11.256 18.735 11.168 18.6983333 11.091 18.625 11.025 18.5516667 10.959 18.46 10.926 18.35 10.926L18.35 10.926 18.097 10.926C17.9943333 10.926 17.9045 10.959 17.8275 11.025 17.7505 11.091 17.712 11.168 17.712 11.256 17.712 11.344 17.6991667 11.421 17.6735 11.487 17.6478333 11.553 17.6093333 11.586 17.558 11.586 17.5213333 11.586 17.4883333 11.6226667 17.459 11.696 17.4296667 11.7693333 17.415 11.861 17.415 11.971L17.415 11.971 17.415 12.213C17.415 12.3156667 17.4296667 12.4055 17.459 12.4825 17.4883333 12.5595 17.5213333 12.598 17.558 12.598 17.6093333 12.598 17.6478333 12.6365 17.6735 12.7135 17.6991667 12.7905 17.712 12.8803333 17.712 12.983L17.712 12.983 17.712 15.843C17.712 15.9456667 17.7395 16.0611667 17.7945 16.1895 17.8495 16.3178333 17.9136667 16.4186667 17.987 16.492L17.987 16.492 18.273 16.767C18.339 16.8476667 18.4288333 16.9136667 18.5425 16.965 18.6561667 17.0163333 18.7533333 17.042 18.834 17.042 18.9146667 17.042 18.9861667 17.0805 19.0485 17.1575 19.1108333 17.2345 19.142 17.3243333 19.142 17.427L19.142 17.427 19.142 17.878C19.142 17.988 19.1053333 18.0796667 19.032 18.153 18.9586667 18.2263333 18.8706667 18.263 18.768 18.263L18.768 18.263 17.789 18.263C17.6863333 18.263 17.5983333 18.3015 17.525 18.3785 17.4516667 18.4555 17.415 18.549 17.415 18.659L17.415 18.659 17.415 18.901C17.415 19.0036667 17.4516667 19.0935 17.525 19.1705 17.5983333 19.2475 17.6863333 19.286 17.789 19.286L17.789 19.286 18.768 19.286C18.8706667 19.286 18.9586667 19.3226667 19.032 19.396 19.1053333 19.4693333 19.142 19.5573333 19.142 19.66L19.142 19.66 19.142 20.639C19.142 20.7416667 19.1786667 20.8315 19.252 20.9085 19.3253333 20.9855 19.417 21.024 19.527 21.024L19.527 21.024 19.78 21.024zM54.638 18.491C54.748 18.491 54.8396667 18.4543333 54.913 18.381 54.9863333 18.3076667 55.023 18.216 55.023 18.106L55.023 18.106 55.023 14.916C55.023 14.806 55.0596667 14.7143333 55.133 14.641 55.2063333 14.5676667 55.298 14.531 55.408 14.531L55.408 14.531 59.929 14.531C60.039 14.531 60.1306667 14.5676667 60.204 14.641 60.2773333 14.7143333 60.314 14.806 60.314 14.916L60.314 14.916 60.314 18.106C60.314 18.216 60.3525 18.3076667 60.4295 18.381 60.5065 18.4543333 60.6 18.491 60.71 18.491L60.71 18.491 60.963 18.491C61.0656667 18.491 61.1536667 18.4543333 61.227 18.381 61.3003333 18.3076667 61.337 18.216 61.337 18.106L61.337 18.106 61.337 13.893C61.337 13.7903333 61.3003333 13.7005 61.227 13.6235 61.1536667 13.5465 61.0656667 13.508 60.963 13.508L60.963 13.508 58.565 13.508C58.4623333 13.508 58.3725 13.4713333 58.2955 13.398 58.2185 13.3246667 58.18 13.233 58.18 13.123L58.18 13.123 58.18 12.397C58.18 12.2943333 58.2185 12.2045 58.2955 12.1275 58.3725 12.0505 58.4623333 12.012 58.565 12.012L58.565 12.012 60.963 12.012C61.0656667 12.012 61.1536667 11.9753333 61.227 11.902 61.3003333 11.8286667 61.337 11.737 61.337 11.627L61.337 11.627 61.337 11.374C61.337 11.2713333 61.3003333 11.1833333 61.227 11.11 61.1536667 11.0366667 61.0656667 11 60.963 11L60.963 11 54.374 11C54.2713333 11 54.1833333 11.0366667 54.11 11.11 54.0366667 11.1833333 54 11.2713333 54 11.374L54 11.374 54 11.627C54 11.737 54.0366667 11.8286667 54.11 11.902 54.1833333 11.9753333 54.2713333 12.012 54.374 12.012L54.374 12.012 56.772 12.012C56.8746667 12.012 56.9663333 12.0505 57.047 12.1275 57.1276667 12.2045 57.168 12.2943333 57.168 12.397L57.168 12.397 57.168 13.123C57.168 13.233 57.1276667 13.3246667 57.047 13.398 56.9663333 13.4713333 56.8746667 13.508 56.772 13.508L56.772 13.508 54.374 13.508C54.2713333 13.508 54.1833333 13.5465 54.11 13.6235 54.0366667 13.7005 54 13.7903333 54 13.893L54 13.893 54 18.106C54 18.216 54.0366667 18.3076667 54.11 18.381 54.1833333 18.4543333 54.2713333 18.491 54.374 18.491L54.374 18.491 54.638 18.491zM55.584 21.098C55.6866667 21.098 55.7948333 21.065 55.9085 20.999 56.0221667 20.933 56.1083333 20.8523333 56.167 20.757L56.167 20.757 57.465 18.568C57.5163333 18.48 57.5786667 18.4341667 57.652 18.4305 57.7253333 18.4268333 57.7913333 18.4726667 57.85 18.568L57.85 18.568 59.181 20.757C59.2396667 20.8523333 59.3258333 20.933 59.4395 20.999 59.5531667 21.065 59.6613333 21.098 59.764 21.098L59.764 21.098 60.974 21.098C61.0766667 21.098 61.1646667 21.0595 61.238 20.9825 61.3113333 20.9055 61.348 20.8156667 61.348 20.713L61.348 20.713 61.348 20.46C61.348 20.35 61.3113333 20.2583333 61.238 20.185 61.1646667 20.1116667 61.0766667 20.075 60.974 20.075L60.974 20.075 60.325 20.075C60.2223333 20.075 60.1141667 20.042 60.0005 19.976 59.8868333 19.91 59.8006667 19.8293333 59.742 19.734L59.742 19.734 58.378 17.358C58.3266667 17.2626667 58.2808333 17.1453333 58.2405 17.006 58.2001667 16.8666667 58.18 16.7456667 58.18 16.643L58.18 16.643 58.18 15.664C58.18 15.554 58.1415 15.4623333 58.0645 15.389 57.9875 15.3156667 57.8976667 15.279 57.795 15.279L57.795 15.279 57.542 15.279C57.4393333 15.279 57.3513333 15.3156667 57.278 15.389 57.2046667 15.4623333 57.168 15.554 57.168 15.664L57.168 15.664 57.168 16.709C57.168 16.8116667 57.1478333 16.9326667 57.1075 17.072 57.0671667 17.2113333 57.025 17.325 56.981 17.413L56.981 17.413 55.595 19.734C55.5363333 19.8293333 55.452 19.91 55.342 19.976 55.232 20.042 55.1256667 20.075 55.023 20.075L55.023 20.075 54.374 20.075C54.2713333 20.075 54.1833333 20.1116667 54.11 20.185 54.0366667 20.2583333 54 20.35 54 20.46L54 20.46 54 20.713C54 20.8156667 54.0366667 20.9055 54.11 20.9825 54.1833333 21.0595 54.2713333 21.098 54.374 21.098L54.374 21.098 55.584 21.098z"/>
</svg>
