<svg xmlns="http://www.w3.org/2000/svg" width="70" height="32" viewBox="0 0 70 32">
  <g fill="none" fill-rule="evenodd" transform="translate(14 3)">
    <path fill="#FFF" stroke="#CCC" stroke-width=".5" d="M7.94182464,25.9778574 L10.0443078,23.8253151 L10.2231519,23.75 L40,23.75 C40.9664983,23.75 41.75,22.9664983 41.75,22 L41.75,2 C41.75,1.03350169 40.9664983,0.25 40,0.25 L2,0.25 C1.03350169,0.25 0.25,1.03350169 0.25,2 L0.25,22 C0.25,22.9664983 1.03350169,23.75 2,23.75 L5.66049743,23.75 L5.83934147,23.8253151 L7.94182464,25.9778574 Z"/>
    <rect width="3.907" height="6" x="4.884" y="14" fill="#D8D8D8" fill-rule="nonzero"/>
    <rect width="3.907" height="6" x="19.535" y="14" fill="#D8D8D8" fill-rule="nonzero"/>
    <rect width="3.907" height="7" x="4.884" y="4" fill="#A6AAB2" fill-rule="nonzero"/>
    <rect width="3.907" height="6" x="14.651" y="14" fill="#D8D8D8" fill-rule="nonzero"/>
    <rect width="3.907" height="6" x="29.302" y="14" fill="#D8D8D8" fill-rule="nonzero"/>
    <rect width="3.907" height="7" x="14.651" y="4" fill="#A6AAB2" fill-rule="nonzero"/>
    <rect width="3.907" height="6" x="9.767" y="14" fill="#D8D8D8" fill-rule="nonzero"/>
    <rect width="3.907" height="6" x="24.419" y="14" fill="#D8D8D8" fill-rule="nonzero"/>
    <rect width="3.907" height="7" x="9.767" y="4" fill="#A6AAB2" fill-rule="nonzero"/>
  </g>
</svg>
