<svg xmlns="http://www.w3.org/2000/svg" width="70" height="32" viewBox="0 0 70 32">
  <g fill="none" fill-rule="evenodd">
    <g transform="translate(31 11)">
      <rect width="10" height="10" fill="#000" opacity="0"/>
      <path fill="#F22735" stroke="#F22735" d="M5.50585937,5 L8.06933594,1.94433594 C8.11230469,1.89355469 8.07617188,1.81640625 8.00976562,1.81640625 L7.23046875,1.81640625 C7.18457031,1.81640625 7.140625,1.83691406 7.11035156,1.87207031 L4.99609375,4.39257812 L2.88183594,1.87207031 C2.85253906,1.83691406 2.80859375,1.81640625 2.76171875,1.81640625 L1.98242187,1.81640625 C1.91601562,1.81640625 1.87988281,1.89355469 1.92285156,1.94433594 L4.48632812,5 L1.92285156,8.05566406 C1.87988281,8.10644531 1.91601562,8.18359375 1.98242187,8.18359375 L2.76171875,8.18359375 C2.80761719,8.18359375 2.8515625,8.16308594 2.88183594,8.12792969 L4.99609375,5.60742187 L7.11035156,8.12792969 C7.13964844,8.16308594 7.18359375,8.18359375 7.23046875,8.18359375 L8.00976562,8.18359375 C8.07617187,8.18359375 8.11230469,8.10644531 8.06933594,8.05566406 L5.50585937,5 Z"/>
    </g>
    <path fill="#F22735" fill-rule="nonzero" d="M30,16 C30,19.3137085 32.6862915,22 36,22 C39.3137085,22 42,19.3137085 42,16 C42,12.6862915 39.3137085,10 36,10 C34.3431458,10 33,8.65685425 33,7 C33,5.34314575 34.3431458,4 36,4 C42.627417,4 48,9.372583 48,16 C48,22.627417 42.627417,28 36,28 C29.372583,28 24,22.627417 24,16 C24,14.3431458 25.3431458,13 27,13 C28.6568542,13 30,14.3431458 30,16 Z"/>
  </g>
</svg>
