<svg xmlns="http://www.w3.org/2000/svg" width="70" height="32" viewBox="0 0 70 32">
  <g fill="none" fill-rule="evenodd">
    <g transform="translate(30 11)">
      <rect width="10" height="10" fill="#000" opacity="0"/>
      <path fill="#56C22D" stroke="#56C22D" d="M8.90625,1.85546875 L8.22363281,1.85546875 C8.12792969,1.85546875 8.03710938,1.89941406 7.97851563,1.97460938 L3.95214844,7.07519531 L2.02148438,4.62890625 C1.96191406,4.55371094 1.87207031,4.50976562 1.77636719,4.50976562 L1.09375,4.50976562 C1.02832031,4.50976562 0.9921875,4.58496094 1.03222656,4.63574219 L3.70703125,8.02441406 C3.83203125,8.18261719 4.07226562,8.18261719 4.19824219,8.02441406 L8.96777344,1.98046875 C9.0078125,1.93066406 8.97167969,1.85546875 8.90625,1.85546875 Z"/>
    </g>
    <path fill="#56C22D" fill-rule="nonzero" d="M35,22 C38.3137085,22 41,19.3137085 41,16 C41,12.6862915 38.3137085,10 35,10 C31.6862915,10 29,12.6862915 29,16 C29,19.3137085 31.6862915,22 35,22 Z M35,28 C28.372583,28 23,22.627417 23,16 C23,9.372583 28.372583,4 35,4 C41.627417,4 47,9.372583 47,16 C47,22.627417 41.627417,28 35,28 Z"/>
  </g>
</svg>
