<svg xmlns="http://www.w3.org/2000/svg" width="70" height="32" viewBox="0 0 70 32">
  <g fill="none" fill-rule="evenodd">
    <g fill="#56C22D" fill-rule="nonzero" transform="rotate(13 6.946 110.546)">
      <path d="M17.4533884,6.94391062 C16.6786957,7.08786502 15.8798672,7.16312159 15.0634616,7.16312159 L15.0634616,1.16312159 C15.5036528,1.16312159 15.9356567,1.12322793 16.357225,1.04489156 L17.4533884,6.94391062 Z M10.7133827,6.4174652 L12.7206474,0.763184638 C13.1235393,0.906210911 13.5399065,1.01187454 13.9664575,1.07853897 L13.0399813,7.00657759 C12.2377799,6.88120384 11.459888,6.6824739 10.7133827,6.4174652 Z" transform="scale(1 -1) rotate(-15 -16.02 0)"/>
      <path d="M23.8695595,10.5344069 C23.0948668,10.6783613 22.2960382,10.7536179 21.4796326,10.7536179 L21.4796326,4.75361792 C21.9198239,4.75361792 22.3518278,4.71372426 22.7733961,4.63538789 L23.8695595,10.5344069 Z M17.1295538,10.0079615 L19.1368184,4.35368097 C19.5397103,4.49670724 19.9560775,4.60237087 20.3826285,4.6690353 L19.4561523,10.5970739 C18.653951,10.4717002 17.876059,10.2729702 17.1295538,10.0079615 Z" transform="scale(1 -1) rotate(-58 6.872 0)"/>
      <path d="M11.0084749,8.59827165 C10.2337822,8.74222605 9.43495368,8.81748262 8.61854802,8.81748262 L8.61854802,2.81748262 C9.05873931,2.81748262 9.4907432,2.77758896 9.9123115,2.69925259 L11.0084749,8.59827165 Z M4.26846919,8.07182623 L6.27573383,2.41754567 C6.67862574,2.56057194 7.09499299,2.66623557 7.52154395,2.7329 L6.59506774,8.66093862 C5.79286641,8.53556487 5.01497443,8.33683494 4.26846919,8.07182623 Z" transform="rotate(140 7.638 5.618)"/>
      <path d="M25.633156,17.5641431 C24.8584633,17.7080975 24.0596347,17.783354 23.2432291,17.783354 L23.2432291,11.783354 C23.6834204,11.783354 24.1154243,11.7434604 24.5369926,11.665124 L25.633156,17.5641431 Z M18.8931503,17.0376977 L20.9004149,11.3834171 C21.3033068,11.5264434 21.7196741,11.632107 22.146225,11.6987714 L21.2197488,17.62681 C20.4175475,17.5014363 19.6396555,17.3027064 18.8931503,17.0376977 Z" transform="scale(-1 1) rotate(75 0 -14.43)"/>
      <path d="M7.2856334,14.8098554 C6.51094072,14.9538098 5.71211218,15.0290664 4.89570652,15.0290664 L4.89570652,9.02906636 C5.33589782,9.02906636 5.7679017,8.9891727 6.18947,8.91083633 L7.2856334,14.8098554 Z M0.545627696,14.28341 L2.55289233,8.6291294 C2.95578424,8.77215568 3.37215149,8.87781931 3.79870245,8.94448374 L2.87222624,14.8725224 C2.07002491,14.7471486 1.29213293,14.5484187 0.545627696,14.28341 Z" transform="rotate(92 3.916 11.83)"/>
      <path d="M9.01286822,21.6278196 C8.23817554,21.771774 7.439347,21.8470305 6.62294135,21.8470305 L6.62294135,15.8470305 C7.06313264,15.8470305 7.49513653,15.8071369 7.91670483,15.7288005 L9.01286822,21.6278196 Z M2.27286252,21.1013742 L4.28012716,15.4470936 C4.68301906,15.5901199 5.09938632,15.6957835 5.52593728,15.7624479 L4.59946106,21.6904865 C3.79725974,21.5651128 3.01936776,21.3663829 2.27286252,21.1013742 Z" transform="rotate(46 5.643 18.647)"/>
    </g>
    <g transform="translate(30 13)">
      <rect width="10" height="10" fill="#000" opacity="0"/>
      <path fill="#56C22D" stroke="#56C22D" d="M8.90625,1.85546875 L8.22363281,1.85546875 C8.12792969,1.85546875 8.03710938,1.89941406 7.97851563,1.97460938 L3.95214844,7.07519531 L2.02148438,4.62890625 C1.96191406,4.55371094 1.87207031,4.50976562 1.77636719,4.50976562 L1.09375,4.50976562 C1.02832031,4.50976562 0.9921875,4.58496094 1.03222656,4.63574219 L3.70703125,8.02441406 C3.83203125,8.18261719 4.07226562,8.18261719 4.19824219,8.02441406 L8.96777344,1.98046875 C9.0078125,1.93066406 8.97167969,1.85546875 8.90625,1.85546875 Z"/>
    </g>
  </g>
</svg>
