<svg xmlns="http://www.w3.org/2000/svg" width="70" height="32" viewBox="0 0 70 32">
  <g fill="none" fill-rule="evenodd">
    <rect width="26" height="10" x="14" y="11" fill="#F22735" rx="5"/>
    <g transform="translate(42 9)">
      <rect width="14" height="14" fill="#000" opacity="0"/>
      <path fill="#F22735" stroke="#F22735" d="M7.70820312,7 L11.2970703,2.72207031 C11.3572266,2.65097656 11.3066406,2.54296875 11.2136719,2.54296875 L10.1226563,2.54296875 C10.0583984,2.54296875 9.996875,2.57167969 9.95449219,2.62089844 L6.99453125,6.14960937 L4.03457031,2.62089844 C3.99355469,2.57167969 3.93203125,2.54296875 3.86640625,2.54296875 L2.77539062,2.54296875 C2.68242187,2.54296875 2.63183594,2.65097656 2.69199219,2.72207031 L6.28085937,7 L2.69199219,11.2779297 C2.63183594,11.3490234 2.68242188,11.4570312 2.77539062,11.4570312 L3.86640625,11.4570312 C3.93066406,11.4570312 3.9921875,11.4283203 4.03457031,11.3791016 L6.99453125,7.85039062 L9.95449219,11.3791016 C9.99550781,11.4283203 10.0570313,11.4570312 10.1226563,11.4570312 L11.2136719,11.4570312 C11.3066406,11.4570312 11.3572266,11.3490234 11.2970703,11.2779297 L7.70820312,7 Z"/>
    </g>
  </g>
</svg>
