<svg xmlns="http://www.w3.org/2000/svg" width="70" height="32" viewBox="0 0 70 32">
  <path fill="#50575D" fill-rule="evenodd" d="M5.8423493 2.50386399C5.8423493 3.10149706 5.71870294 3.58577867 5.47140649 3.95672334 5.22411005 4.32766801 4.85317094 4.58526461 4.35857805 4.72952087L4.35857805 4.76043277C4.96651515 4.80164884 5.42503709 5.01802998 5.73415765 5.40958269 6.04327821 5.80113539 6.19783617 6.35239212 6.19783617 7.0633694 6.19783617 8.0113391 5.91190394 8.73776151 5.34003091 9.24265842 4.76815788 9.74755533 3.94642473 10 2.8748068 10 2.26686971 10 1.70273315 9.97166437 1.18238022 9.91499227.66202728 9.85832017.267904482 9.77846522 6.21724894e-15 9.67542504L6.21724894e-15 7.63523957C.381248686 7.7073677.762491654 7.75888702 1.14374034 7.78979907 1.52498903 7.82071113 1.95775131 7.83616692 2.44204019 7.83616692 3.00876121 7.83616692 3.402884 7.76403988 3.6244204 7.61978362 3.8459568 7.47552736 3.95672334 7.21793076 3.95672334 6.84698609 3.95672334 6.50695348 3.85883663 6.25966074 3.66306028 6.10510046 3.46728393 5.95054019 3.16331994 5.87326121 2.7511592 5.87326121L1.00463679 5.87326121 1.00463679 3.89489954 2.38021638 3.89489954C2.80268114 3.89489954 3.11179706 3.82277249 3.30757342 3.67851623 3.50334977 3.53425997 3.60123648 3.30242303 3.60123648 2.98299845 3.60123648 2.65326986 3.5162296 2.42143292 3.34621329 2.28748068 3.17619699 2.15352844 2.89026476 2.08655332 2.48840804 2.08655332 2.24111159 2.08655332 1.92684374 2.10716105 1.54559505 2.14837713 1.16434637 2.1895932.716128284 2.25141638.200927357 2.33384853L.200927357.401854714C.530655951.28851051.986601932.193199768 1.56877898.115919629 2.15095603.03863949 2.69963679 0 3.21483771 0 4.08037527 0 4.73467063.211229212 5.17774343.633693972 5.62081623 1.05615873 5.8423493 1.6795425 5.8423493 2.50386399zM14.8995363 4.99227202C14.8995363 6.82638733 14.6161801 8.11952226 14.049459 8.87171561 13.482738 9.62390896 12.4678074 10 11.0046368 10 10.0978832 10 9.3894925 9.89696136 8.87944359 9.69088099 8.36939467 9.48480062 7.9804238 9.14477311 7.71251932 8.67078825 7.49613493 8.29984359 7.339001 7.82071391 7.24111283 7.23338485 7.14322465 6.6460558 7.0942813 5.89902566 7.0942813 4.99227202 7.0942813 3.16846074 7.38021352 1.88047774 7.95208655 1.12828439 8.52395958.376091036 9.54146615 0 11.0046368 0 11.9113904 0 12.6197811.10303864 13.12983.309119011 13.6398789.515199382 14.0288498.855226893 14.2967543 1.32921175 14.5028346 1.6898524 14.6548166 2.16383014 14.7527048 2.7511592 14.850593 3.33848825 14.8995363 4.08551839 14.8995363 4.99227202zM12.4729521 4.99227202C12.4729521 3.81761391 12.3827933 3.05255201 12.202473 2.69706337 12.0221526 2.34157473 11.6228779 2.16383308 11.0046368 2.16383308 10.3863957 2.16383308 9.98454498 2.3441507 9.79907264 2.70479134 9.61360031 3.06543199 9.52086553 3.82791793 9.52086553 4.99227202 9.52086553 6.12571406 9.61360031 6.87016824 9.79907264 7.22565688 9.98454498 7.58114552 10.3863957 7.75888717 11.0046368 7.75888717 11.6228779 7.75888717 12.0221526 7.58372148 12.202473 7.23338485 12.3827933 6.88304822 12.4729521 6.13601808 12.4729521 4.99227202zM26.2587601 4.54177898C27.0134771 4.54177898 27.5929919 4.79784367 27.9973046 5.33692722 28.3477089 5.79514825 28.5363881 6.41509434 28.5363881 7.18328841 28.5363881 7.93800539 28.3477089 8.55795148 27.9973046 9.0296496 27.5929919 9.54177898 27.0134771 9.81132075 26.2587601 9.81132075 25.5040431 9.81132075 24.9110512 9.54177898 24.5067385 9.0296496 24.1293801 8.54447439 23.9541779 7.93800539 23.9541779 7.18328841 23.9541779 6.41509434 24.1293801 5.79514825 24.5067385 5.33692722 24.9110512 4.79784367 25.5040431 4.54177898 26.2587601 4.54177898zM24.884097 0L26.0566038 0 20.6522911 10 19.4797844 10 24.884097 0zM19.3045822.188679245C20.0592992.188679245 20.638814.444743935 21.0431267.983827493 21.393531 1.44204852 21.5822102 2.06199461 21.5822102 2.83018868 21.5822102 3.58490566 21.393531 4.20485175 21.0431267 4.67654987 20.638814 5.18867925 20.0592992 5.45822102 19.3045822 5.45822102 18.5498652 5.45822102 17.9568733 5.18867925 17.5525606 4.67654987 17.1752022 4.19137466 17 3.58490566 17 2.83018868 17 2.06199461 17.1752022 1.44204852 17.5525606.983827493 17.9568733.444743935 18.5498652.188679245 19.3045822.188679245zM26.2587601 5.52560647C25.9218329 5.52560647 25.6792453 5.70080863 25.5444744 6.05121294 25.4366577 6.32075472 25.3827493 6.69811321 25.3827493 7.18328841 25.3827493 7.65498652 25.4366577 8.03234501 25.5444744 8.30188679 25.6792453 8.65229111 25.9218329 8.82749326 26.2587601 8.82749326 26.5822102 8.82749326 26.8113208 8.63881402 26.9595687 8.27493261 27.0539084 8.00539084 27.1078167 7.64150943 27.1078167 7.18328841 27.1078167 6.69811321 27.0539084 6.33423181 26.9460916 6.06469003 26.8113208 5.70080863 26.5822102 5.52560647 26.2587601 5.52560647zM19.3045822 1.17250674C18.967655 1.17250674 18.7250674 1.34770889 18.5902965 1.69811321 18.4824798 1.96765499 18.4285714 2.34501348 18.4285714 2.83018868 18.4285714 3.30188679 18.4824798 3.67924528 18.5902965 3.94878706 18.7250674 4.29919137 18.967655 4.47439353 19.3045822 4.47439353 19.6280323 4.47439353 19.8571429 4.28571429 20.0053908 3.92183288 20.0997305 3.65229111 20.1536388 3.2884097 20.1536388 2.83018868 20.1536388 2.34501348 20.0997305 1.98113208 19.9919137 1.7115903 19.8571429 1.34770889 19.6280323 1.17250674 19.3045822 1.17250674z" transform="translate(21 11)"/>
</svg>
