<svg xmlns="http://www.w3.org/2000/svg" width="70" height="32" viewBox="0 0 70 32">
  <g fill="none" fill-rule="evenodd">
    <g fill="#F22735" fill-rule="nonzero" transform="rotate(13 2.946 110.546)">
      <path d="M17.4533884,6.94391062 C16.6786957,7.08786502 15.8798672,7.16312159 15.0634616,7.16312159 L15.0634616,1.16312159 C15.5036528,1.16312159 15.9356567,1.12322793 16.357225,1.04489156 L17.4533884,6.94391062 Z M10.7133827,6.4174652 L12.7206474,0.763184638 C13.1235393,0.906210911 13.5399065,1.01187454 13.9664575,1.07853897 L13.0399813,7.00657759 C12.2377799,6.88120384 11.459888,6.6824739 10.7133827,6.4174652 Z" transform="scale(1 -1) rotate(-15 -16.02 0)"/>
      <path d="M11.0084749,8.59827165 C10.2337822,8.74222605 9.43495368,8.81748262 8.61854802,8.81748262 L8.61854802,2.81748262 C9.05873931,2.81748262 9.4907432,2.77758896 9.9123115,2.69925259 L11.0084749,8.59827165 Z M4.26846919,8.07182623 L6.27573383,2.41754567 C6.67862574,2.56057194 7.09499299,2.66623557 7.52154395,2.7329 L6.59506774,8.66093862 C5.79286641,8.53556487 5.01497443,8.33683494 4.26846919,8.07182623 Z" transform="rotate(140 7.638 5.618)"/>
      <path d="M7.2856334,14.8098554 C6.51094072,14.9538098 5.71211218,15.0290664 4.89570652,15.0290664 L4.89570652,9.02906636 C5.33589782,9.02906636 5.7679017,8.9891727 6.18947,8.91083633 L7.2856334,14.8098554 Z M0.545627696,14.28341 L2.55289233,8.6291294 C2.95578424,8.77215568 3.37215149,8.87781931 3.79870245,8.94448374 L2.87222624,14.8725224 C2.07002491,14.7471486 1.29213293,14.5484187 0.545627696,14.28341 Z" transform="rotate(92 3.916 11.83)"/>
      <path d="M9.01286822,21.6278196 C8.23817554,21.771774 7.439347,21.8470305 6.62294135,21.8470305 L6.62294135,15.8470305 C7.06313264,15.8470305 7.49513653,15.8071369 7.91670483,15.7288005 L9.01286822,21.6278196 Z M2.27286252,21.1013742 L4.28012716,15.4470936 C4.68301906,15.5901199 5.09938632,15.6957835 5.52593728,15.7624479 L4.59946106,21.6904865 C3.79725974,21.5651128 3.01936776,21.3663829 2.27286252,21.1013742 Z" transform="rotate(46 5.643 18.647)"/>
    </g>
    <g transform="translate(30 13)">
      <rect width="10" height="10" fill="#000" opacity="0"/>
      <path fill="#F22735" stroke="#F22735" d="M5.50585937,5 L8.06933594,1.94433594 C8.11230469,1.89355469 8.07617188,1.81640625 8.00976562,1.81640625 L7.23046875,1.81640625 C7.18457031,1.81640625 7.140625,1.83691406 7.11035156,1.87207031 L4.99609375,4.39257812 L2.88183594,1.87207031 C2.85253906,1.83691406 2.80859375,1.81640625 2.76171875,1.81640625 L1.98242187,1.81640625 C1.91601562,1.81640625 1.87988281,1.89355469 1.92285156,1.94433594 L4.48632812,5 L1.92285156,8.05566406 C1.87988281,8.10644531 1.91601562,8.18359375 1.98242187,8.18359375 L2.76171875,8.18359375 C2.80761719,8.18359375 2.8515625,8.16308594 2.88183594,8.12792969 L4.99609375,5.60742187 L7.11035156,8.12792969 C7.13964844,8.16308594 7.18359375,8.18359375 7.23046875,8.18359375 L8.00976562,8.18359375 C8.07617187,8.18359375 8.11230469,8.10644531 8.06933594,8.05566406 L5.50585937,5 Z"/>
    </g>
  </g>
</svg>
