<svg xmlns="http://www.w3.org/2000/svg" width="70" height="32" viewBox="0 0 70 32">
  <path fill="#F8AC30" fill-rule="evenodd" d="M27.7298527 9.473322L29.2627283 12.7210054C29.3817696 12.9714751 29.6103333 13.1456007 29.8757691 13.1858509L33.3055371 13.7064777C33.9715338 13.8077593 34.2386108 14.6641686 33.7559903 15.1553735L31.2737385 17.6838044C31.0822658 17.8784926 30.9953919 18.1598061 31.04047 18.4348852L31.6260482 22.0050073C31.7401659 22.6981191 31.0428771 23.2280429 30.4467953 22.9007917L27.3789654 21.2154263C27.1437875 21.0851933 26.8580997 21.0851933 26.6229219 21.2154263L23.5550919 22.9009011C22.9590101 23.2279335 22.2617213 22.6981191 22.3759485 22.0051166L22.9615266 18.4348852C23.006933 18.1598061 22.9191838 17.8783832 22.7278205 17.6838044L20.246444 15.1553735C19.7639329 14.6641686 20.0300252 13.8077593 20.6967878 13.7064777L24.1261181 13.1858509C24.3907881 13.1456007 24.6195706 12.9714751 24.7382836 12.7210054L26.2718157 9.473322C26.5702942 8.842226 27.4321401 8.842226 27.7297433 9.473322L27.7298527 9.473322zM43.7298527 9.473322L45.2627283 12.7210054C45.3817696 12.9714751 45.6103333 13.1456007 45.8757691 13.1858509L49.3055371 13.7064777C49.9715338 13.8077593 50.2386108 14.6641686 49.7559903 15.1553735L47.2737385 17.6838044C47.0822658 17.8784926 46.9953919 18.1598061 47.04047 18.4348852L47.6260482 22.0050073C47.7401659 22.6981191 47.0428771 23.2280429 46.4467953 22.9007917L43.3789654 21.2154263C43.1437875 21.0851933 42.8580997 21.0851933 42.6229219 21.2154263L39.5550919 22.9009011C38.9590101 23.2279335 38.2617213 22.6981191 38.3759485 22.0051166L38.9615266 18.4348852C39.006933 18.1598061 38.9191838 17.8783832 38.7278205 17.6838044L36.246444 15.1553735C35.7639329 14.6641686 36.0300252 13.8077593 36.6967878 13.7064777L40.1261181 13.1858509C40.3907881 13.1456007 40.6195706 12.9714751 40.7382836 12.7210054L42.2718157 9.473322C42.5702942 8.842226 43.4321401 8.842226 43.7297433 9.473322L43.7298527 9.473322z"/>
</svg>
