<svg xmlns="http://www.w3.org/2000/svg" width="70" height="32" viewBox="0 0 70 32">
  <path fill="#CCC" fill-rule="evenodd" d="M19.7298527 9.473322L21.2627283 12.7210054C21.3817696 12.9714751 21.6103333 13.1456007 21.8757691 13.1858509L25.3055371 13.7064777C25.9715338 13.8077593 26.2386108 14.6641686 25.7559903 15.1553735L23.2737385 17.6838044C23.0822658 17.8784926 22.9953919 18.1598061 23.04047 18.4348852L23.6260482 22.0050073C23.7401659 22.6981191 23.0428771 23.2280429 22.4467953 22.9007917L19.3789654 21.2154263C19.1437875 21.0851933 18.8580997 21.0851933 18.6229219 21.2154263L15.5550919 22.9009011C14.9590101 23.2279335 14.2617213 22.6981191 14.3759485 22.0051166L14.9615266 18.4348852C15.006933 18.1598061 14.9191838 17.8783832 14.7278205 17.6838044L12.246444 15.1553735C11.7639329 14.6641686 12.0300252 13.8077593 12.6967878 13.7064777L16.1261181 13.1858509C16.3907881 13.1456007 16.6195706 12.9714751 16.7382836 12.7210054L18.2718157 9.473322C18.5702942 8.842226 19.4321401 8.842226 19.7297433 9.473322L19.7298527 9.473322zM35.7298527 9.473322L37.2627283 12.7210054C37.3817696 12.9714751 37.6103333 13.1456007 37.8757691 13.1858509L41.3055371 13.7064777C41.9715338 13.8077593 42.2386108 14.6641686 41.7559903 15.1553735L39.2737385 17.6838044C39.0822658 17.8784926 38.9953919 18.1598061 39.04047 18.4348852L39.6260482 22.0050073C39.7401659 22.6981191 39.0428771 23.2280429 38.4467953 22.9007917L35.3789654 21.2154263C35.1437875 21.0851933 34.8580997 21.0851933 34.6229219 21.2154263L31.5550919 22.9009011C30.9590101 23.2279335 30.2617213 22.6981191 30.3759485 22.0051166L30.9615266 18.4348852C31.006933 18.1598061 30.9191838 17.8783832 30.7278205 17.6838044L28.246444 15.1553735C27.7639329 14.6641686 28.0300252 13.8077593 28.6967878 13.7064777L32.1261181 13.1858509C32.3907881 13.1456007 32.6195706 12.9714751 32.7382836 12.7210054L34.2718157 9.473322C34.5702942 8.842226 35.4321401 8.842226 35.7297433 9.473322L35.7298527 9.473322zM51.7298527 9.473322L53.2627283 12.7210054C53.3817696 12.9714751 53.6103333 13.1456007 53.8757691 13.1858509L57.3055371 13.7064777C57.9715338 13.8077593 58.2386108 14.6641686 57.7559903 15.1553735L55.2737385 17.6838044C55.0822658 17.8784926 54.9953919 18.1598061 55.04047 18.4348852L55.6260482 22.0050073C55.7401659 22.6981191 55.0428771 23.2280429 54.4467953 22.9007917L51.3789654 21.2154263C51.1437875 21.0851933 50.8580997 21.0851933 50.6229219 21.2154263L47.5550919 22.9009011C46.9590101 23.2279335 46.2617213 22.6981191 46.3759485 22.0051166L46.9615266 18.4348852C47.006933 18.1598061 46.9191838 17.8783832 46.7278205 17.6838044L44.246444 15.1553735C43.7639329 14.6641686 44.0300252 13.8077593 44.6967878 13.7064777L48.1261181 13.1858509C48.3907881 13.1456007 48.6195706 12.9714751 48.7382836 12.7210054L50.2718157 9.473322C50.5702942 8.842226 51.4321401 8.842226 51.7297433 9.473322L51.7298527 9.473322z"/>
</svg>
