<svg xmlns="http://www.w3.org/2000/svg" width="70" height="32" viewBox="0 0 70 32">
  <path fill="#50575D" fill-rule="evenodd" d="M35.7298527,9.473322 L37.2627283,12.7210054 C37.3817696,12.9714751 37.6103333,13.1456007 37.8757691,13.1858509 L41.3055371,13.7064777 C41.9715338,13.8077593 42.2386108,14.6641686 41.7559903,15.1553735 L39.2737385,17.6838044 C39.0822658,17.8784926 38.9953919,18.1598061 39.04047,18.4348852 L39.6260482,22.0050073 C39.7401659,22.6981191 39.0428771,23.2280429 38.4467953,22.9007917 L35.3789654,21.2154263 C35.1437875,21.0851933 34.8580997,21.0851933 34.6229219,21.2154263 L31.5550919,22.9009011 C30.9590101,23.2279335 30.2617213,22.6981191 30.3759485,22.0051166 L30.9615266,18.4348852 C31.006933,18.1598061 30.9191838,17.8783832 30.7278205,17.6838044 L28.246444,15.1553735 C27.7639329,14.6641686 28.0300252,13.8077593 28.6967878,13.7064777 L32.1261181,13.1858509 C32.3907881,13.1456007 32.6195706,12.9714751 32.7382836,12.7210054 L34.2718157,9.473322 C34.5702942,8.842226 35.4321401,8.842226 35.7297433,9.473322 L35.7298527,9.473322 Z"/>
</svg>
