<svg xmlns="http://www.w3.org/2000/svg" width="70" height="32" viewBox="0 0 70 32">
  <path fill="#CCC" fill-rule="evenodd" d="M15.345,21.375 C15.4550006,21.375 15.5799993,21.3350004 15.72,21.255 C15.8600007,21.1749996 15.9849995,21.0850005 16.095,20.985 L16.17,20.91 C16.2600004,20.7999994 16.305,20.6700007 16.305,20.52 C16.305,20.3699992 16.2600004,20.2450005 16.17,20.145 L15.75,19.68 C15.6599996,19.5699994 15.5800003,19.4250009 15.51,19.245 C15.4399997,19.0649991 15.405,18.9050007 15.405,18.765 L15.405,11.685 C15.405,11.5349992 15.3875002,11.4075005 15.3525,11.3025 C15.3174998,11.1974995 15.2650004,11.145 15.195,11.145 C15.1449998,11.145 15.1000002,11.0950005 15.06,10.995 C15.0199998,10.8949995 15,10.7700007 15,10.62 L15,10.29 C15,10.1499993 15.0199998,10.0275005 15.06,9.9225 C15.1000002,9.81749947 15.1449998,9.765 15.195,9.765 C15.2650004,9.765 15.3174998,9.72750037 15.3525,9.6525 C15.3875002,9.57749962 15.405,9.48500055 15.405,9.375 C15.405,9.2749995 15.4574995,9.18750037 15.5625,9.1125 C15.6675005,9.03749962 15.7899993,9 15.93,9 L16.275,9 C16.4250008,9 16.5499995,9.03749962 16.65,9.1125 C16.7500005,9.18750037 16.8,9.2749995 16.8,9.375 C16.8,9.48500055 16.8499995,9.57749962 16.95,9.6525 C17.0500005,9.72750037 17.1749992,9.765 17.325,9.765 L17.535,9.765 C17.6750007,9.765 17.7949995,9.72750037 17.895,9.6525 C17.9950005,9.57749962 18.045,9.48500055 18.045,9.375 C18.045,9.2749995 18.0949995,9.18750037 18.195,9.1125 C18.2950005,9.03749962 18.4149993,9 18.555,9 L18.915,9 C19.0550007,9 19.1774995,9.03749962 19.2825,9.1125 C19.3875005,9.18750037 19.44,9.2749995 19.44,9.375 C19.44,9.48500055 19.4599998,9.57749962 19.5,9.6525 C19.5400002,9.72750037 19.5849998,9.765 19.635,9.765 C19.6850003,9.765 19.7324998,9.81749947 19.7775,9.9225 C19.8225002,10.0275005 19.845,10.1499993 19.845,10.29 L19.845,10.62 C19.845,10.7700007 19.8225002,10.8949995 19.7775,10.995 C19.7324998,11.0950005 19.6850003,11.145 19.635,11.145 C19.5849998,11.145 19.5400002,11.1974995 19.5,11.3025 C19.4599998,11.4075005 19.44,11.5349992 19.44,11.685 L19.44,18.765 C19.44,18.9050007 19.4075003,19.0649991 19.3425,19.245 C19.2774997,19.4250009 19.1900006,19.5699994 19.08,19.68 L18.69,20.145 C18.5899995,20.2450005 18.54,20.3699992 18.54,20.52 C18.54,20.6700007 18.5899995,20.7999994 18.69,20.91 L18.765,20.985 C18.8550004,21.0850005 18.9724993,21.1749996 19.1175,21.255 C19.2625007,21.3350004 19.3799996,21.375 19.47,21.375 C19.5800006,21.375 19.6699997,21.4249995 19.74,21.525 C19.8100004,21.6250005 19.845,21.7499992 19.845,21.9 L19.845,22.245 C19.845,22.3850007 19.7925005,22.5074995 19.6875,22.6125 C19.5824995,22.7175005 19.4600007,22.77 19.32,22.77 L19.005,22.77 C18.8649993,22.77 18.7100009,22.7300004 18.54,22.65 C18.3699991,22.5699996 18.2350005,22.4750005 18.135,22.365 L17.775,21.945 C17.6649994,21.8449995 17.5450006,21.795 17.415,21.795 C17.2849993,21.795 17.1750004,21.8449995 17.085,21.945 L16.71,22.365 C16.6099995,22.4750005 16.4750009,22.5699996 16.305,22.65 C16.1349991,22.7300004 15.9800007,22.77 15.84,22.77 L15.51,22.77 C15.3699993,22.77 15.2500005,22.7175005 15.15,22.6125 C15.0499995,22.5074995 15,22.3850007 15,22.245 L15,21.9 C15,21.7499992 15.0349996,21.6250005 15.105,21.525 C15.1750004,21.4249995 15.2549996,21.375 15.345,21.375 Z M17.115,19.2 C17.1950004,19.2900004 17.2949994,19.335 17.415,19.335 C17.5350006,19.335 17.6349996,19.2900004 17.715,19.2 C17.8150005,19.0999995 17.8949997,18.9650008 17.955,18.795 C18.0150003,18.6249992 18.045,18.4700007 18.045,18.33 L18.045,11.685 C18.045,11.5349992 17.9950005,11.4075005 17.895,11.3025 C17.7949995,11.1974995 17.6750007,11.145 17.535,11.145 L17.325,11.145 C17.1749992,11.145 17.0500005,11.1974995 16.95,11.3025 C16.8499995,11.4075005 16.8,11.5349992 16.8,11.685 L16.8,18.33 C16.8,18.4700007 16.8299997,18.6249992 16.89,18.795 C16.9500003,18.9650008 17.0249996,19.0999995 17.115,19.2 Z M20.43,9.51 C20.43,9.3699993 20.4849995,9.2500005 20.595,9.15 C20.7050006,9.0499995 20.8299993,9 20.97,9 L24.495,9 C24.6350007,9 24.7549995,9.0499995 24.855,9.15 C24.9550005,9.2500005 25.005,9.3699993 25.005,9.51 L25.005,9.825 C25.005,9.9650007 24.9900002,10.134999 24.96,10.335 C24.9299999,10.535001 24.8900002,10.7049993 24.84,10.845 L23.88,13.74 C23.8199997,13.8800007 23.7750002,14.0324992 23.745,14.1975 C23.7149999,14.3625008 23.7,14.4949995 23.7,14.595 C23.7,14.6950005 23.7499995,14.7799996 23.85,14.85 C23.9500005,14.9200003 24.0749992,14.955 24.225,14.955 L24.495,14.955 C24.6350007,14.955 24.7549995,15.0074995 24.855,15.1125 C24.9550005,15.2175005 25.005,15.3399993 25.005,15.48 L25.005,15.81 C25.005,15.9600007 24.9550005,16.0874995 24.855,16.1925 C24.7549995,16.2975005 24.6350007,16.35 24.495,16.35 L24.225,16.35 C24.0749992,16.35 23.9500005,16.3999995 23.85,16.5 C23.7499995,16.6000005 23.7,16.7249992 23.7,16.875 L23.7,21.135 C23.7,21.2750007 23.6625004,21.4324991 23.5875,21.6075 C23.5124996,21.7825009 23.4200006,21.9149995 23.31,22.005 L22.965,22.395 C22.8549995,22.5050005 22.7150009,22.5949996 22.545,22.665 C22.3749992,22.7350003 22.2150008,22.77 22.065,22.77 L20.94,22.77 C20.7999993,22.77 20.6800005,22.7175005 20.58,22.6125 C20.4799995,22.5074995 20.43,22.3850007 20.43,22.245 L20.43,21.9 C20.43,21.7499992 20.4799995,21.6250005 20.58,21.525 C20.6800005,21.4249995 20.7999993,21.375 20.94,21.375 L21.78,21.375 C21.9300007,21.375 22.0549995,21.3250005 22.155,21.225 C22.2550005,21.1249995 22.305,21.0000007 22.305,20.85 L22.305,16.875 C22.305,16.7249992 22.2550005,16.6000005 22.155,16.5 C22.0549995,16.3999995 21.9300007,16.35 21.78,16.35 L20.97,16.35 C20.8299993,16.35 20.7050006,16.2975005 20.595,16.1925 C20.4849995,16.0874995 20.43,15.9600007 20.43,15.81 L20.43,15.48 C20.43,15.3399993 20.4849995,15.2175005 20.595,15.1125 C20.7050006,15.0074995 20.8299993,14.955 20.97,14.955 L21.78,14.955 C21.9300007,14.955 22.0549995,14.9100004 22.155,14.82 C22.2550005,14.7299995 22.305,14.6300005 22.305,14.52 C22.305,14.3999994 22.3199998,14.2475009 22.35,14.0625 C22.3800002,13.8774991 22.4199998,13.7150007 22.47,13.575 L23.4,10.875 C23.4400002,10.7349993 23.4250004,10.6175005 23.355,10.5225 C23.2849996,10.4274995 23.1850006,10.38 23.055,10.38 L20.97,10.38 C20.8299993,10.38 20.7050006,10.3300005 20.595,10.23 C20.4849995,10.1299995 20.43,10.0050007 20.43,9.855 L20.43,9.51 Z M29.87,21.375 C29.9800005,21.375 30.1049993,21.3350004 30.245,21.255 C30.3850007,21.1749996 30.5099994,21.0850005 30.62,20.985 L30.695,20.91 C30.7850004,20.7999994 30.83,20.6700007 30.83,20.52 C30.83,20.3699992 30.7850004,20.2450005 30.695,20.145 L30.275,19.68 C30.1849996,19.5699994 30.1050003,19.4250009 30.035,19.245 C29.9649996,19.0649991 29.93,18.9050007 29.93,18.765 L29.93,11.685 C29.93,11.5349992 29.9125002,11.4075005 29.8775,11.3025 C29.8424998,11.1974995 29.7900003,11.145 29.72,11.145 C29.6699997,11.145 29.6250002,11.0950005 29.585,10.995 C29.5449998,10.8949995 29.525,10.7700007 29.525,10.62 L29.525,10.29 C29.525,10.1499993 29.5449998,10.0275005 29.585,9.9225 C29.6250002,9.81749947 29.6699997,9.765 29.72,9.765 C29.7900003,9.765 29.8424998,9.72750037 29.8775,9.6525 C29.9125002,9.57749962 29.93,9.48500055 29.93,9.375 C29.93,9.2749995 29.9824995,9.18750037 30.0875,9.1125 C30.1925005,9.03749962 30.3149993,9 30.455,9 L30.8,9 C30.9500007,9 31.0749995,9.03749962 31.175,9.1125 C31.2750005,9.18750037 31.325,9.2749995 31.325,9.375 C31.325,9.48500055 31.3749995,9.57749962 31.475,9.6525 C31.5750005,9.72750037 31.6999992,9.765 31.85,9.765 L32.06,9.765 C32.2000007,9.765 32.3199995,9.72750037 32.42,9.6525 C32.5200005,9.57749962 32.57,9.48500055 32.57,9.375 C32.57,9.2749995 32.6199995,9.18750037 32.72,9.1125 C32.8200005,9.03749962 32.9399993,9 33.08,9 L33.44,9 C33.5800007,9 33.7024995,9.03749962 33.8075,9.1125 C33.9125005,9.18750037 33.965,9.2749995 33.965,9.375 C33.965,9.48500055 33.9849998,9.57749962 34.025,9.6525 C34.0650002,9.72750037 34.1099998,9.765 34.16,9.765 C34.2100003,9.765 34.2574998,9.81749947 34.3025,9.9225 C34.3475002,10.0275005 34.37,10.1499993 34.37,10.29 L34.37,10.62 C34.37,10.7700007 34.3475002,10.8949995 34.3025,10.995 C34.2574998,11.0950005 34.2100003,11.145 34.16,11.145 C34.1099998,11.145 34.0650002,11.1974995 34.025,11.3025 C33.9849998,11.4075005 33.965,11.5349992 33.965,11.685 L33.965,18.765 C33.965,18.9050007 33.9325003,19.0649991 33.8675,19.245 C33.8024997,19.4250009 33.7150005,19.5699994 33.605,19.68 L33.215,20.145 C33.1149995,20.2450005 33.065,20.3699992 33.065,20.52 C33.065,20.6700007 33.1149995,20.7999994 33.215,20.91 L33.29,20.985 C33.3800004,21.0850005 33.4974993,21.1749996 33.6425,21.255 C33.7875007,21.3350004 33.9049995,21.375 33.995,21.375 C34.1050005,21.375 34.1949996,21.4249995 34.265,21.525 C34.3350004,21.6250005 34.37,21.7499992 34.37,21.9 L34.37,22.245 C34.37,22.3850007 34.3175005,22.5074995 34.2125,22.6125 C34.1074995,22.7175005 33.9850007,22.77 33.845,22.77 L33.53,22.77 C33.3899993,22.77 33.2350008,22.7300004 33.065,22.65 C32.8949991,22.5699996 32.7600005,22.4750005 32.66,22.365 L32.3,21.945 C32.1899995,21.8449995 32.0700006,21.795 31.94,21.795 C31.8099993,21.795 31.7000004,21.8449995 31.61,21.945 L31.235,22.365 C31.1349995,22.4750005 31.0000008,22.5699996 30.83,22.65 C30.6599991,22.7300004 30.5050007,22.77 30.365,22.77 L30.035,22.77 C29.8949993,22.77 29.7750005,22.7175005 29.675,22.6125 C29.5749995,22.5074995 29.525,22.3850007 29.525,22.245 L29.525,21.9 C29.525,21.7499992 29.5599996,21.6250005 29.63,21.525 C29.7000003,21.4249995 29.7799995,21.375 29.87,21.375 Z M31.64,19.2 C31.7200004,19.2900004 31.8199994,19.335 31.94,19.335 C32.0600006,19.335 32.1599996,19.2900004 32.24,19.2 C32.3400005,19.0999995 32.4199997,18.9650008 32.48,18.795 C32.5400003,18.6249992 32.57,18.4700007 32.57,18.33 L32.57,11.685 C32.57,11.5349992 32.5200005,11.4075005 32.42,11.3025 C32.3199995,11.1974995 32.2000007,11.145 32.06,11.145 L31.85,11.145 C31.6999992,11.145 31.5750005,11.1974995 31.475,11.3025 C31.3749995,11.4075005 31.325,11.5349992 31.325,11.685 L31.325,18.33 C31.325,18.4700007 31.3549997,18.6249992 31.415,18.795 C31.4750003,18.9650008 31.5499995,19.0999995 31.64,19.2 Z M34.955,9.51 C34.955,9.3699993 35.0099994,9.2500005 35.12,9.15 C35.2300005,9.0499995 35.3549993,9 35.495,9 L39.02,9 C39.1600007,9 39.2799995,9.0499995 39.38,9.15 C39.4800005,9.2500005 39.53,9.3699993 39.53,9.51 L39.53,9.825 C39.53,9.9650007 39.5150002,10.134999 39.485,10.335 C39.4549999,10.535001 39.4150002,10.7049993 39.365,10.845 L38.405,13.74 C38.3449997,13.8800007 38.3000002,14.0324992 38.27,14.1975 C38.2399999,14.3625008 38.225,14.4949995 38.225,14.595 C38.225,14.6950005 38.2749995,14.7799996 38.375,14.85 C38.4750005,14.9200003 38.5999992,14.955 38.75,14.955 L39.02,14.955 C39.1600007,14.955 39.2799995,15.0074995 39.38,15.1125 C39.4800005,15.2175005 39.53,15.3399993 39.53,15.48 L39.53,15.81 C39.53,15.9600007 39.4800005,16.0874995 39.38,16.1925 C39.2799995,16.2975005 39.1600007,16.35 39.02,16.35 L38.75,16.35 C38.5999992,16.35 38.4750005,16.3999995 38.375,16.5 C38.2749995,16.6000005 38.225,16.7249992 38.225,16.875 L38.225,21.135 C38.225,21.2750007 38.1875004,21.4324991 38.1125,21.6075 C38.0374996,21.7825009 37.9450006,21.9149995 37.835,22.005 L37.49,22.395 C37.3799994,22.5050005 37.2400009,22.5949996 37.07,22.665 C36.8999991,22.7350003 36.7400008,22.77 36.59,22.77 L35.465,22.77 C35.3249993,22.77 35.2050005,22.7175005 35.105,22.6125 C35.0049995,22.5074995 34.955,22.3850007 34.955,22.245 L34.955,21.9 C34.955,21.7499992 35.0049995,21.6250005 35.105,21.525 C35.2050005,21.4249995 35.3249993,21.375 35.465,21.375 L36.305,21.375 C36.4550007,21.375 36.5799995,21.3250005 36.68,21.225 C36.7800005,21.1249995 36.83,21.0000007 36.83,20.85 L36.83,16.875 C36.83,16.7249992 36.7800005,16.6000005 36.68,16.5 C36.5799995,16.3999995 36.4550007,16.35 36.305,16.35 L35.495,16.35 C35.3549993,16.35 35.2300005,16.2975005 35.12,16.1925 C35.0099994,16.0874995 34.955,15.9600007 34.955,15.81 L34.955,15.48 C34.955,15.3399993 35.0099994,15.2175005 35.12,15.1125 C35.2300005,15.0074995 35.3549993,14.955 35.495,14.955 L36.305,14.955 C36.4550007,14.955 36.5799995,14.9100004 36.68,14.82 C36.7800005,14.7299995 36.83,14.6300005 36.83,14.52 C36.83,14.3999994 36.8449999,14.2475009 36.875,14.0625 C36.9050001,13.8774991 36.9449997,13.7150007 36.995,13.575 L37.925,10.875 C37.9650002,10.7349993 37.9500003,10.6175005 37.88,10.5225 C37.8099996,10.4274995 37.7100006,10.38 37.58,10.38 L35.495,10.38 C35.3549993,10.38 35.2300005,10.3300005 35.12,10.23 C35.0099994,10.1299995 34.955,10.0050007 34.955,9.855 L34.955,9.51 Z M44.395,21.375 C44.5050006,21.375 44.6299993,21.3350004 44.77,21.255 C44.9100007,21.1749996 45.0349995,21.0850005 45.145,20.985 L45.22,20.91 C45.3100005,20.7999994 45.355,20.6700007 45.355,20.52 C45.355,20.3699992 45.3100005,20.2450005 45.22,20.145 L44.8,19.68 C44.7099996,19.5699994 44.6300004,19.4250009 44.56,19.245 C44.4899997,19.0649991 44.455,18.9050007 44.455,18.765 L44.455,11.685 C44.455,11.5349992 44.4375002,11.4075005 44.4025,11.3025 C44.3674998,11.1974995 44.3150004,11.145 44.245,11.145 C44.1949998,11.145 44.1500002,11.0950005 44.11,10.995 C44.0699998,10.8949995 44.05,10.7700007 44.05,10.62 L44.05,10.29 C44.05,10.1499993 44.0699998,10.0275005 44.11,9.9225 C44.1500002,9.81749947 44.1949998,9.765 44.245,9.765 C44.3150004,9.765 44.3674998,9.72750037 44.4025,9.6525 C44.4375002,9.57749962 44.455,9.48500055 44.455,9.375 C44.455,9.2749995 44.5074995,9.18750037 44.6125,9.1125 C44.7175005,9.03749962 44.8399993,9 44.98,9 L45.325,9 C45.4750008,9 45.5999995,9.03749962 45.7,9.1125 C45.8000005,9.18750037 45.85,9.2749995 45.85,9.375 C45.85,9.48500055 45.8999995,9.57749962 46,9.6525 C46.1000005,9.72750037 46.2249993,9.765 46.375,9.765 L46.585,9.765 C46.7250007,9.765 46.8449995,9.72750037 46.945,9.6525 C47.0450005,9.57749962 47.095,9.48500055 47.095,9.375 C47.095,9.2749995 47.1449995,9.18750037 47.245,9.1125 C47.3450005,9.03749962 47.4649993,9 47.605,9 L47.965,9 C48.1050007,9 48.2274995,9.03749962 48.3325,9.1125 C48.4375005,9.18750037 48.49,9.2749995 48.49,9.375 C48.49,9.48500055 48.5099998,9.57749962 48.55,9.6525 C48.5900002,9.72750037 48.6349997,9.765 48.685,9.765 C48.7350002,9.765 48.7824998,9.81749947 48.8275,9.9225 C48.8725002,10.0275005 48.895,10.1499993 48.895,10.29 L48.895,10.62 C48.895,10.7700007 48.8725002,10.8949995 48.8275,10.995 C48.7824998,11.0950005 48.7350002,11.145 48.685,11.145 C48.6349997,11.145 48.5900002,11.1974995 48.55,11.3025 C48.5099998,11.4075005 48.49,11.5349992 48.49,11.685 L48.49,18.765 C48.49,18.9050007 48.4575003,19.0649991 48.3925,19.245 C48.3274997,19.4250009 48.2400006,19.5699994 48.13,19.68 L47.74,20.145 C47.6399995,20.2450005 47.59,20.3699992 47.59,20.52 C47.59,20.6700007 47.6399995,20.7999994 47.74,20.91 L47.815,20.985 C47.9050005,21.0850005 48.0224993,21.1749996 48.1675,21.255 C48.3125007,21.3350004 48.4299995,21.375 48.52,21.375 C48.6300005,21.375 48.7199996,21.4249995 48.79,21.525 C48.8600003,21.6250005 48.895,21.7499992 48.895,21.9 L48.895,22.245 C48.895,22.3850007 48.8425005,22.5074995 48.7375,22.6125 C48.6324995,22.7175005 48.5100007,22.77 48.37,22.77 L48.055,22.77 C47.9149993,22.77 47.7600008,22.7300004 47.59,22.65 C47.4199992,22.5699996 47.2850005,22.4750005 47.185,22.365 L46.825,21.945 C46.7149995,21.8449995 46.5950007,21.795 46.465,21.795 C46.3349994,21.795 46.2250005,21.8449995 46.135,21.945 L45.76,22.365 C45.6599995,22.4750005 45.5250008,22.5699996 45.355,22.65 C45.1849992,22.7300004 45.0300007,22.77 44.89,22.77 L44.56,22.77 C44.4199993,22.77 44.3000005,22.7175005 44.2,22.6125 C44.0999995,22.5074995 44.05,22.3850007 44.05,22.245 L44.05,21.9 C44.05,21.7499992 44.0849997,21.6250005 44.155,21.525 C44.2250004,21.4249995 44.3049996,21.375 44.395,21.375 Z M46.165,19.2 C46.2450004,19.2900004 46.3449994,19.335 46.465,19.335 C46.5850006,19.335 46.6849996,19.2900004 46.765,19.2 C46.8650005,19.0999995 46.9449997,18.9650008 47.005,18.795 C47.0650003,18.6249992 47.095,18.4700007 47.095,18.33 L47.095,11.685 C47.095,11.5349992 47.0450005,11.4075005 46.945,11.3025 C46.8449995,11.1974995 46.7250007,11.145 46.585,11.145 L46.375,11.145 C46.2249993,11.145 46.1000005,11.1974995 46,11.3025 C45.8999995,11.4075005 45.85,11.5349992 45.85,11.685 L45.85,18.33 C45.85,18.4700007 45.8799997,18.6249992 45.94,18.795 C46.0000003,18.9650008 46.0749996,19.0999995 46.165,19.2 Z M49.48,9.51 C49.48,9.3699993 49.5349995,9.2500005 49.645,9.15 C49.7550006,9.0499995 49.8799993,9 50.02,9 L53.545,9 C53.6850007,9 53.8049995,9.0499995 53.905,9.15 C54.0050005,9.2500005 54.055,9.3699993 54.055,9.51 L54.055,9.825 C54.055,9.9650007 54.0400002,10.134999 54.01,10.335 C53.9799999,10.535001 53.9400003,10.7049993 53.89,10.845 L52.93,13.74 C52.8699997,13.8800007 52.8250002,14.0324992 52.795,14.1975 C52.7649999,14.3625008 52.75,14.4949995 52.75,14.595 C52.75,14.6950005 52.7999995,14.7799996 52.9,14.85 C53.0000005,14.9200003 53.1249993,14.955 53.275,14.955 L53.545,14.955 C53.6850007,14.955 53.8049995,15.0074995 53.905,15.1125 C54.0050005,15.2175005 54.055,15.3399993 54.055,15.48 L54.055,15.81 C54.055,15.9600007 54.0050005,16.0874995 53.905,16.1925 C53.8049995,16.2975005 53.6850007,16.35 53.545,16.35 L53.275,16.35 C53.1249993,16.35 53.0000005,16.3999995 52.9,16.5 C52.7999995,16.6000005 52.75,16.7249992 52.75,16.875 L52.75,21.135 C52.75,21.2750007 52.7125004,21.4324991 52.6375,21.6075 C52.5624996,21.7825009 52.4700005,21.9149995 52.36,22.005 L52.015,22.395 C51.9049995,22.5050005 51.7650008,22.5949996 51.595,22.665 C51.4249992,22.7350003 51.2650008,22.77 51.115,22.77 L49.99,22.77 C49.8499993,22.77 49.7300005,22.7175005 49.63,22.6125 C49.5299995,22.5074995 49.48,22.3850007 49.48,22.245 L49.48,21.9 C49.48,21.7499992 49.5299995,21.6250005 49.63,21.525 C49.7300005,21.4249995 49.8499993,21.375 49.99,21.375 L50.83,21.375 C50.9800007,21.375 51.1049995,21.3250005 51.205,21.225 C51.3050005,21.1249995 51.355,21.0000007 51.355,20.85 L51.355,16.875 C51.355,16.7249992 51.3050005,16.6000005 51.205,16.5 C51.1049995,16.3999995 50.9800007,16.35 50.83,16.35 L50.02,16.35 C49.8799993,16.35 49.7550006,16.2975005 49.645,16.1925 C49.5349995,16.0874995 49.48,15.9600007 49.48,15.81 L49.48,15.48 C49.48,15.3399993 49.5349995,15.2175005 49.645,15.1125 C49.7550006,15.0074995 49.8799993,14.955 50.02,14.955 L50.83,14.955 C50.9800007,14.955 51.1049995,14.9100004 51.205,14.82 C51.3050005,14.7299995 51.355,14.6300005 51.355,14.52 C51.355,14.3999994 51.3699998,14.2475009 51.4,14.0625 C51.4300001,13.8774991 51.4699997,13.7150007 51.52,13.575 L52.45,10.875 C52.4900002,10.7349993 52.4750004,10.6175005 52.405,10.5225 C52.3349997,10.4274995 52.2350007,10.38 52.105,10.38 L50.02,10.38 C49.8799993,10.38 49.7550006,10.3300005 49.645,10.23 C49.5349995,10.1299995 49.48,10.0050007 49.48,9.855 L49.48,9.51 Z"/>
</svg>
