<svg xmlns="http://www.w3.org/2000/svg" width="70" height="32" viewBox="0 0 70 32">
  <path fill="#F8AC30" fill-rule="evenodd" d="M30.345,21.375 C30.4550006,21.375 30.5799993,21.3350004 30.72,21.255 C30.8600007,21.1749996 30.9849995,21.0850005 31.095,20.985 L31.17,20.91 C31.2600004,20.7999994 31.305,20.6700007 31.305,20.52 C31.305,20.3699992 31.2600004,20.2450005 31.17,20.145 L30.75,19.68 C30.6599996,19.5699994 30.5800003,19.4250009 30.51,19.245 C30.4399997,19.0649991 30.405,18.9050007 30.405,18.765 L30.405,11.685 C30.405,11.5349992 30.3875002,11.4075005 30.3525,11.3025 C30.3174998,11.1974995 30.2650004,11.145 30.195,11.145 C30.1449998,11.145 30.1000002,11.0950005 30.06,10.995 C30.0199998,10.8949995 30,10.7700007 30,10.62 L30,10.29 C30,10.1499993 30.0199998,10.0275005 30.06,9.9225 C30.1000002,9.81749947 30.1449998,9.765 30.195,9.765 C30.2650004,9.765 30.3174998,9.72750037 30.3525,9.6525 C30.3875002,9.57749962 30.405,9.48500055 30.405,9.375 C30.405,9.2749995 30.4574995,9.18750037 30.5625,9.1125 C30.6675005,9.03749962 30.7899993,9 30.93,9 L31.275,9 C31.4250008,9 31.5499995,9.03749962 31.65,9.1125 C31.7500005,9.18750037 31.8,9.2749995 31.8,9.375 C31.8,9.48500055 31.8499995,9.57749962 31.95,9.6525 C32.0500005,9.72750037 32.1749992,9.765 32.325,9.765 L32.535,9.765 C32.6750007,9.765 32.7949995,9.72750037 32.895,9.6525 C32.9950005,9.57749962 33.045,9.48500055 33.045,9.375 C33.045,9.2749995 33.0949995,9.18750037 33.195,9.1125 C33.2950005,9.03749962 33.4149993,9 33.555,9 L33.915,9 C34.0550007,9 34.1774995,9.03749962 34.2825,9.1125 C34.3875005,9.18750037 34.44,9.2749995 34.44,9.375 C34.44,9.48500055 34.4599998,9.57749962 34.5,9.6525 C34.5400002,9.72750037 34.5849998,9.765 34.635,9.765 C34.6850003,9.765 34.7324998,9.81749947 34.7775,9.9225 C34.8225002,10.0275005 34.845,10.1499993 34.845,10.29 L34.845,10.62 C34.845,10.7700007 34.8225002,10.8949995 34.7775,10.995 C34.7324998,11.0950005 34.6850003,11.145 34.635,11.145 C34.5849998,11.145 34.5400002,11.1974995 34.5,11.3025 C34.4599998,11.4075005 34.44,11.5349992 34.44,11.685 L34.44,18.765 C34.44,18.9050007 34.4075003,19.0649991 34.3425,19.245 C34.2774997,19.4250009 34.1900006,19.5699994 34.08,19.68 L33.69,20.145 C33.5899995,20.2450005 33.54,20.3699992 33.54,20.52 C33.54,20.6700007 33.5899995,20.7999994 33.69,20.91 L33.765,20.985 C33.8550004,21.0850005 33.9724993,21.1749996 34.1175,21.255 C34.2625007,21.3350004 34.3799996,21.375 34.47,21.375 C34.5800006,21.375 34.6699997,21.4249995 34.74,21.525 C34.8100004,21.6250005 34.845,21.7499992 34.845,21.9 L34.845,22.245 C34.845,22.3850007 34.7925005,22.5074995 34.6875,22.6125 C34.5824995,22.7175005 34.4600007,22.77 34.32,22.77 L34.005,22.77 C33.8649993,22.77 33.7100009,22.7300004 33.54,22.65 C33.3699991,22.5699996 33.2350005,22.4750005 33.135,22.365 L32.775,21.945 C32.6649995,21.8449995 32.5450006,21.795 32.415,21.795 C32.2849993,21.795 32.1750004,21.8449995 32.085,21.945 L31.71,22.365 C31.6099995,22.4750005 31.4750009,22.5699996 31.305,22.65 C31.1349991,22.7300004 30.9800007,22.77 30.84,22.77 L30.51,22.77 C30.3699993,22.77 30.2500005,22.7175005 30.15,22.6125 C30.0499995,22.5074995 30,22.3850007 30,22.245 L30,21.9 C30,21.7499992 30.0349996,21.6250005 30.105,21.525 C30.1750004,21.4249995 30.2549996,21.375 30.345,21.375 Z M32.115,19.2 C32.1950004,19.2900004 32.2949994,19.335 32.415,19.335 C32.5350006,19.335 32.6349996,19.2900004 32.715,19.2 C32.8150005,19.0999995 32.8949997,18.9650008 32.955,18.795 C33.0150003,18.6249992 33.045,18.4700007 33.045,18.33 L33.045,11.685 C33.045,11.5349992 32.9950005,11.4075005 32.895,11.3025 C32.7949995,11.1974995 32.6750007,11.145 32.535,11.145 L32.325,11.145 C32.1749992,11.145 32.0500005,11.1974995 31.95,11.3025 C31.8499995,11.4075005 31.8,11.5349992 31.8,11.685 L31.8,18.33 C31.8,18.4700007 31.8299997,18.6249992 31.89,18.795 C31.9500003,18.9650008 32.0249996,19.0999995 32.115,19.2 Z M35.43,9.51 C35.43,9.3699993 35.4849995,9.2500005 35.595,9.15 C35.7050006,9.0499995 35.8299993,9 35.97,9 L39.495,9 C39.6350007,9 39.7549995,9.0499995 39.855,9.15 C39.9550005,9.2500005 40.005,9.3699993 40.005,9.51 L40.005,9.825 C40.005,9.9650007 39.9900002,10.134999 39.96,10.335 C39.9299999,10.535001 39.8900002,10.7049993 39.84,10.845 L38.88,13.74 C38.8199997,13.8800007 38.7750001,14.0324992 38.745,14.1975 C38.7149998,14.3625008 38.7,14.4949995 38.7,14.595 C38.7,14.6950005 38.7499995,14.7799996 38.85,14.85 C38.9500005,14.9200003 39.0749992,14.955 39.225,14.955 L39.495,14.955 C39.6350007,14.955 39.7549995,15.0074995 39.855,15.1125 C39.9550005,15.2175005 40.005,15.3399993 40.005,15.48 L40.005,15.81 C40.005,15.9600007 39.9550005,16.0874995 39.855,16.1925 C39.7549995,16.2975005 39.6350007,16.35 39.495,16.35 L39.225,16.35 C39.0749992,16.35 38.9500005,16.3999995 38.85,16.5 C38.7499995,16.6000005 38.7,16.7249992 38.7,16.875 L38.7,21.135 C38.7,21.2750007 38.6625004,21.4324991 38.5875,21.6075 C38.5124996,21.7825009 38.4200005,21.9149995 38.31,22.005 L37.965,22.395 C37.8549995,22.5050005 37.7150009,22.5949996 37.545,22.665 C37.3749992,22.7350003 37.2150008,22.77 37.065,22.77 L35.94,22.77 C35.7999993,22.77 35.6800005,22.7175005 35.58,22.6125 C35.4799995,22.5074995 35.43,22.3850007 35.43,22.245 L35.43,21.9 C35.43,21.7499992 35.4799995,21.6250005 35.58,21.525 C35.6800005,21.4249995 35.7999993,21.375 35.94,21.375 L36.78,21.375 C36.9300007,21.375 37.0549995,21.3250005 37.155,21.225 C37.2550005,21.1249995 37.305,21.0000007 37.305,20.85 L37.305,16.875 C37.305,16.7249992 37.2550005,16.6000005 37.155,16.5 C37.0549995,16.3999995 36.9300007,16.35 36.78,16.35 L35.97,16.35 C35.8299993,16.35 35.7050006,16.2975005 35.595,16.1925 C35.4849995,16.0874995 35.43,15.9600007 35.43,15.81 L35.43,15.48 C35.43,15.3399993 35.4849995,15.2175005 35.595,15.1125 C35.7050006,15.0074995 35.8299993,14.955 35.97,14.955 L36.78,14.955 C36.9300007,14.955 37.0549995,14.9100004 37.155,14.82 C37.2550005,14.7299995 37.305,14.6300005 37.305,14.52 C37.305,14.3999994 37.3199999,14.2475009 37.35,14.0625 C37.3800002,13.8774991 37.4199998,13.7150007 37.47,13.575 L38.4,10.875 C38.4400002,10.7349993 38.4250004,10.6175005 38.355,10.5225 C38.2849997,10.4274995 38.1850006,10.38 38.055,10.38 L35.97,10.38 C35.8299993,10.38 35.7050006,10.3300005 35.595,10.23 C35.4849995,10.1299995 35.43,10.0050007 35.43,9.855 L35.43,9.51 Z"/>
</svg>
