<svg xmlns="http://www.w3.org/2000/svg" width="70" height="32" viewBox="0 0 70 32">
  <g fill="none" fill-rule="evenodd">
    <path fill="#CCC" fill-rule="nonzero" d="M24,9 C20.1340068,9 17,12.1340068 17,16 C17,19.8659932 20.1340068,23 24,23 L46,23 C49.8659932,23 53,19.8659932 53,16 C53,12.1340068 49.8659932,9 46,9 L24,9 Z M24,7 L46,7 C50.9705627,7 55,11.0294373 55,16 C55,20.9705627 50.9705627,25 46,25 L24,25 C19.0294373,25 15,20.9705627 15,16 C15,11.0294373 19.0294373,7 24,7 Z"/>
    <path stroke="#A6AAB2" stroke-width=".8" d="M42.4705547,19.9411094 C40.0067823,19.9411094 38,17.9343271 38,15.4705547 C38,13.0067823 40.0067823,11 42.4705547,11 C44.9343271,11 46.9411094,13.0067823 46.9411094,15.4705547 C46.9411094,17.9343271 44.9343271,19.9411094 42.4705547,19.9411094 Z M42.4705547,11.7450925 C40.4140995,11.7450925 38.7450925,13.4140995 38.7450925,15.4705547 C38.7450925,17.5270099 40.4140995,19.196017 42.4705547,19.196017 C44.5270099,19.196017 46.196017,17.5270099 46.196017,15.4705547 C46.196017,13.4140995 44.5270099,11.7450925 42.4705547,11.7450925 Z M45.2472659,18.1528875 C45.44099,17.9591635 45.6843868,18.0287055 45.8781109,18.2224295 L47.8153512,20.1596699 C48.0090753,20.3533939 48.0786172,20.5967908 47.8848932,20.7905148 C47.6911692,20.9842389 47.4825433,20.8799259 47.2888192,20.6862019 L45.3515789,18.7489615 C45.1578548,18.5552375 45.0535419,18.3466116 45.2472659,18.1528875 Z"/>
  </g>
</svg>
