<svg xmlns="http://www.w3.org/2000/svg" width="70" height="32" viewBox="0 0 70 32">
  <path fill="#50575D" fill-rule="evenodd" d="M4.74002418 1L4.74002418 9.92345462 2.41515518 9.92345462 2.41515518 4.07622782C2.0389609 4.3794632 1.6749984 4.62484079 1.32325675 4.81236794.971515103 4.99989508.53043393 5.17943966 0 5.35100705L0 3.35205745C.782484095 3.08473152 1.39002874 2.76354623 1.82265216 2.38849193 2.25527557 2.01343764 2.59384534 1.55061162 2.83837162 1L4.74002418 1zM7.23982265 5.50062902C7.23982265 3.8328344 7.5229046 2.66579466 8.08907699 1.9994748 8.65524937 1.33315493 9.51766181 1 10.6763402 1 11.2331077 1 11.6901769 1.0728153 12.0475615 1.21844808 12.404946 1.36408087 12.6964922 1.55360014 12.9222088 1.78701159 13.1479254 2.02042304 13.3256745 2.26580063 13.4554615 2.52315171 13.5852485 2.7805028 13.6896409 3.08074122 13.7686417 3.423876 13.9228813 4.07822605 14 4.76049543 14 5.47070463 14 7.06269041 13.7460727 8.22773521 13.2382104 8.96587398 12.7303481 9.70401275 11.8557096 10.0730766 10.6142684 10.0730766 9.91830903 10.0730766 9.35590702 9.95537515 8.92704555 9.71996873 8.49818407 9.48456231 8.1464477 9.13943774 7.87182588 8.68458466 7.67244291 8.36139958 7.5172651 7.91952043 7.40628779 7.35893396 7.29531048 6.79834749 7.23982265 6.1789187 7.23982265 5.50062902zM9.51954857 5.5066139C9.51954857 6.6237969 9.61265526 7.38686135 9.79887142 7.79583013 9.98508759 8.20479891 10.2550029 8.40928023 10.6086256 8.40928023 10.841866 8.40928023 11.0440674 8.32250035 11.2152358 8.14893799 11.3864042 7.97537563 11.5124274 7.70107142 11.5933091 7.32601712 11.6741909 6.95096283 11.7146312 6.36644549 11.7146312 5.57244757 11.7146312 4.4073853 11.6215245 3.62437146 11.4353083 3.22338256 11.2490922 2.82239366 10.9697721 2.62190221 10.5973398 2.62190221 10.2173836 2.62190221 9.94276586 2.82638354 9.77347844 3.23535231 9.60419101 3.64432109 9.51954857 4.40140072 9.51954857 5.5066139zM27 9.7733263C26.0933007 10.1781781 25.0116035 10.3806009 23.7548761 10.3806009 22.2198131 10.3806009 21.0242531 9.94834381 20.1681603 9.08381655 19.3120674 8.2192893 18.8840274 7.01318644 18.8840274 5.4654718 18.8840274 3.88823671 19.3152303 2.67475385 20.1776489 1.82498682 21.0400676.975219789 22.270419.550342646 23.8687401.550342646 24.8850868.550342646 25.8993096.670531218 26.9114391.910911966L26.9114391 2.43542435C25.7685763 2.03478977 24.8112848 1.83447549 24.0395361 1.83447549 23.0527099 1.83447549 22.2915156 2.14759834 21.7559304 2.77385345 21.2203452 3.40010856 20.9525567 4.28887142 20.9525567 5.44016869 20.9525567 6.57037993 21.2403767 7.45176278 21.8160253 8.0843437 22.3916739 8.71692462 23.1918768 9.03321033 24.2166579 9.03321033 25.1360088 9.03321033 26.0637802 8.80126747 27 8.3373748L27 9.7733263zM16.847127 3.74486031C16.3452795 3.74486031 15.9119681 3.56036031 15.5471798 3.19135477 15.1823914 2.82234924 15 2.38271209 15 1.87243015 15 1.35793101 15.1834457.917239578 15.5503426.550342646 15.9172396.183445714 16.357931 2.7533531e-14 16.8724302 2.7533531e-14 17.3869293 2.7533531e-14 17.8276207.182391429 18.1945177.547179758 18.5614146.911968086 18.7448603 1.35160523 18.7448603 1.86610438 18.7448603 2.39325514 18.5614146 2.83816371 18.1945177 3.20084344 17.8276207 3.56352316 17.378495 3.74486031 16.847127 3.74486031zM16.8597786 2.80864523C17.1254626 2.80864523 17.3500254 2.71797666 17.5334739 2.53663679 17.7169224 2.35529693 17.8086452 2.13389693 17.8086452 1.87243015 17.8086452 1.61518058 17.7169224 1.39483487 17.5334739 1.2113864 17.3500254 1.02793793 17.1296797.936215076 16.8724302.936215076 16.6151806.936215076 16.3948349 1.02793793 16.2113864 1.2113864 16.0279379 1.39483487 15.9362151 1.61518058 15.9362151 1.87243015 15.9362151 2.12967973 16.0268836 2.35002544 16.2082235 2.53347391 16.3895634 2.71692237 16.6067462 2.80864523 16.8597786 2.80864523z" transform="translate(22 11)"/>
</svg>
