<svg xmlns="http://www.w3.org/2000/svg" width="70" height="32" viewBox="0 0 70 32">
  <g fill="none" fill-rule="evenodd" transform="translate(18 7)">
    <path fill="#747E90" d="M19.9464286,17 L17.4714286,20 L14.9964286,17 L2.02857143,17 C0.924001929,17 0.0285714286,16.1045695 0.0285714286,15 L0.0285714286,2 C0.0285714286,0.8954305 0.924001929,2.02906125e-16 2.02857143,0 L32.9142857,0 C34.0188552,-2.02906125e-16 34.9142857,0.8954305 34.9142857,2 L34.9142857,15 C34.9142857,16.1045695 34.0188552,17 32.9142857,17 L19.9464286,17 Z"/>
    <path fill="#FFF" d="M10.8671875 5L10.8671875 12.2802734 8.97042411 12.2802734 8.97042411 7.50976562C8.66350293 7.7571627 8.36656114 7.95735601 8.07958984 8.11035156 7.79261854 8.26334712 7.43275886 8.40983003 7 8.54980469L7 6.91894531C7.63839605 6.70084526 8.13406632 6.43880361 8.48702567 6.1328125 8.83998502 5.82682139 9.11620994 5.449221 9.31570871 5L10.8671875 5zM12.9066685 8.671875C12.9066685 7.31119111 13.1376232 6.3590522 13.5995396 5.81542969 14.061456 5.27180718 14.7650622 5 15.7103795 5 16.1646228 5 16.5375264 5.05940696 16.8291016 5.17822266 17.1206767 5.29703835 17.358537 5.4516592 17.5426897 5.64208984 17.7268424 5.83252048 17.8718605 6.03271379 17.9777483 6.24267578 18.0836361 6.45263777 18.1688055 6.69758975 18.2332589 6.97753906 18.3590966 7.5113959 18.4220145 8.06803096 18.4220145 8.64746094 18.4220145 9.94629556 18.2148458 10.8968069 17.8005022 11.4990234 17.3861586 12.10124 16.6725776 12.4023438 15.6597377 12.4023438 15.0919335 12.4023438 14.6330933 12.3063161 14.2832031 12.1142578 13.933313 11.9221996 13.646346 11.6406269 13.4222935 11.2695312 13.2596253 11.0058581 13.1330222 10.6453473 13.0424805 10.1879883 12.9519387 9.73062922 12.9066685 9.22526318 12.9066685 8.671875zM14.7666016 8.67675781C14.7666016 9.5882207 14.8425634 10.2107731 14.9944894 10.5444336 15.1464154 10.8780941 15.366628 11.0449219 15.6551339 11.0449219 15.8454251 11.0449219 16.0103927 10.9741218 16.1500419 10.8325195 16.289691 10.6909173 16.392508 10.4671239 16.4584961 10.1611328 16.5244841 9.8551417 16.5574777 9.37825845 16.5574777 8.73046875 16.5574777 7.77994316 16.4815158 7.14111492 16.3295898 6.81396484 16.1776639 6.48681477 15.9497783 6.32324219 15.6459263 6.32324219 15.335936 6.32324219 15.1118869 6.49006995 14.9737723 6.82373047 14.8356578 7.15739099 14.7666016 7.7750606 14.7666016 8.67675781zM25.5651341 5L26.5083014 5 22.7222222 12 21.7879949 12 25.5651341 5zM20 6.72094508C20 6.41698443 20.0663041 6.12792815 20.1989144 5.85376756 20.3315247 5.57960697 20.5341621 5.36877468 20.8068327 5.22126437 21.0795033 5.07375405 21.4020841 5 21.7745849 5 22.3229061 5 22.7550005 5.15644799 23.0708812 5.46934866 23.3867619 5.78224933 23.5446999 6.19944397 23.5446999 6.72094508 23.5446999 7.24542621 23.3867619 7.66411082 23.0708812 7.97701149 22.7550005 8.28991216 22.3229061 8.44636015 21.7745849 8.44636015 21.4020841 8.44636015 21.0795033 8.3726061 20.8068327 8.22509579 20.5341621 8.07758547 20.3315247 7.86675318 20.1989144 7.59259259 20.0663041 7.31843201 20 7.02788574 20 6.72094508zM21.2560664 6.72988506C21.2560664 7.09940585 21.3156656 7.3676024 21.4348659 7.53448276 21.5123461 7.64474299 21.6255846 7.69987229 21.7745849 7.69987229 21.9235852 7.69987229 22.0353338 7.64474299 22.109834 7.53448276 22.2290342 7.3676024 22.2886335 7.09940585 22.2886335 6.72988506 22.2886335 6.36334427 22.2290342 6.09514772 22.109834 5.92528736 22.0353338 5.81800713 21.9235852 5.76436782 21.7745849 5.76436782 21.6255846 5.76436782 21.5123461 5.81800713 21.4348659 5.92528736 21.3156656 6.09216771 21.2560664 6.36036427 21.2560664 6.72988506zM24.7247765 10.265645C24.7247765 9.9587043 24.7903357 9.66890302 24.9214559 9.39623244 25.0525762 9.12356186 25.2552136 8.91272957 25.5293742 8.76372925 25.8035348 8.61472893 26.1253707 8.54022989 26.4948914 8.54022989 27.0461926 8.54022989 27.479777 8.69742286 27.7956577 9.01181354 28.1115384 9.32620421 28.2694764 9.74414384 28.2694764 10.265645 28.2694764 10.7871461 28.1115384 11.2050857 27.7956577 11.5194764 27.479777 11.833867 27.0461926 11.99106 26.4948914 11.99106 26.1253707 11.99106 25.8035348 11.916561 25.5293742 11.7675607 25.2552136 11.6185603 25.0525762 11.4077281 24.9214559 11.1350575 24.7903357 10.8623869 24.7247765 10.5725856 24.7247765 10.265645zM25.9808429 10.2745849C25.9808429 10.6441057 26.0404421 10.9123023 26.1596424 11.0791826 26.2341426 11.1864629 26.3458911 11.2401022 26.4948914 11.2401022 26.6438918 11.2401022 26.7571303 11.1864629 26.8346105 11.0791826 26.9538107 10.9123023 27.01341 10.6441057 27.01341 10.2745849 27.01341 9.90506414 26.9538107 9.63537761 26.8346105 9.46551724 26.7571303 9.35823701 26.6438918 9.3045977 26.4948914 9.3045977 26.3458911 9.3045977 26.2341426 9.35972699 26.1596424 9.46998723 26.0404421 9.63686759 25.9808429 9.90506414 25.9808429 10.2745849z"/>
  </g>
</svg>
