<svg xmlns="http://www.w3.org/2000/svg" width="70" height="32" viewBox="0 0 70 32">
  <g fill="none" fill-rule="evenodd">
    <path fill="#4D68FF" fill-rule="nonzero" d="M45,26 C39.4771525,26 35,21.5228475 35,16 C35,10.4771525 39.4771525,6 45,6 C50.5228475,6 55,10.4771525 55,16 C55,21.5228475 50.5228475,26 45,26 Z"/>
    <rect width="18" height="2" x="15" y="15" fill="#4D68FF" fill-rule="nonzero"/>
    <path fill="#FFF" d="M45.112,10 C46.2,10 47.112,10.304 47.816,10.944 C48.504,11.584 48.856,12.4 48.856,13.408 C48.856,14.4 48.472,15.296 47.736,16.112 C47.288,16.576 46.504,17.184 45.368,17.952 C44.136,18.768 43.4,19.488 43.16,20.112 L48.872,20.112 L48.872,21.648 L41,21.648 C41,20.512 41.368,19.52 42.136,18.656 C42.552,18.16 43.416,17.472 44.712,16.576 C45.48,16.032 46.024,15.6 46.344,15.264 C46.856,14.688 47.128,14.064 47.128,13.392 C47.128,12.752 46.952,12.272 46.6,11.952 C46.248,11.632 45.72,11.472 45.048,11.472 C44.328,11.472 43.784,11.712 43.416,12.208 C43.032,12.688 42.84,13.376 42.808,14.304 L41.064,14.304 C41.08,13.024 41.448,12 42.168,11.232 C42.904,10.4 43.896,10 45.112,10 Z"/>
  </g>
</svg>
