<svg xmlns="http://www.w3.org/2000/svg" width="70" height="32" viewBox="0 0 70 32">
  <g fill="#F22735" transform="translate(27 3)">
    <g transform="translate(0 10)">
      <path d="M8,16 C3.581722,16 0,12.418278 0,8 C0,3.581722 3.581722,0 8,0 C12.418278,0 16,3.581722 16,8 C16,12.418278 12.418278,16 8,16 Z M8,14.4 C11.5346224,14.4 14.4,11.5346224 14.4,8 C14.4,4.4653776 11.5346224,1.6 8,1.6 C4.4653776,1.6 1.6,4.4653776 1.6,8 C1.6,11.5346224 4.4653776,14.4 8,14.4 Z"/>
      <path d="M10.9020504,10.3441951 C11.127319,10.6036922 10.9375793,11 10.5897977,11 L9.92010928,11 C9.77884982,11 9.64465454,10.9392699 9.55488086,10.8342619 L7.99999731,9.02746561 L6.44225327,10.8375486 C6.35158978,10.9401739 6.21939201,11 6.07989072,11 L5.41020226,11 C5.06242066,11 4.87268099,10.6036922 5.09701819,10.3452727 L7.11555148,7.99999981 L5.0979496,5.65580488 C4.87268099,5.39630776 5.06242066,5 5.41020226,5 L6.07989072,5 C6.22115018,5 6.35534546,5.06073007 6.44511914,5.16573815 L8.00000269,6.97253439 L9.55774673,5.16245139 C9.64841022,5.0598261 9.78060799,5 9.92010928,5 L10.5897977,5 C10.9375793,5 11.127319,5.39630776 10.9029818,5.65472734 L8.88444852,8.00000019 L10.9020504,10.3441951 Z"/>
    </g>
    <rect width="9" height="2" x="3.5" y="3.5" transform="rotate(90 8 4.5)"/>
  </g>
</svg>
