<svg xmlns="http://www.w3.org/2000/svg" width="70" height="32" viewBox="0 0 70 32">
  <g fill="none" fill-rule="evenodd">
    <rect width="18" height="2" x="14" y="15" fill="#CCC" fill-rule="nonzero"/>
    <g transform="translate(36 6)">
      <rect width="20" height="20" fill="#000" opacity="0"/>
      <path fill="#A6AAB2" stroke="#A6AAB2" stroke-width=".5" d="M10.1230469,8.96484375 C10.0605469,8.88476562 9.93945312,8.88476562 9.87695312,8.96484375 L7.68945312,11.7324219 C7.609375,11.8339844 7.68164062,11.984375 7.8125,11.984375 L9.25585938,11.984375 L9.25585938,16.71875 C9.25585938,16.8046875 9.32617188,16.875 9.41210938,16.875 L10.5839844,16.875 C10.6699219,16.875 10.7402344,16.8046875 10.7402344,16.71875 L10.7402344,11.9863281 L12.1875,11.9863281 C12.3183594,11.9863281 12.390625,11.8359375 12.3105469,11.734375 L10.1230469,8.96484375 Z" transform="matrix(1 0 0 -1 0 25.78)"/>
      <path fill="#A6AAB2" stroke="#A6AAB2" stroke-width=".5" d="M15.8476562,7.16210938 C14.953125,4.80273438 12.6738281,3.125 10.0039063,3.125 C7.33398438,3.125 5.0546875,4.80078125 4.16015625,7.16015625 C2.48632812,7.59960938 1.25,9.125 1.25,10.9375 C1.25,13.0957031 2.99804688,14.84375 5.15429688,14.84375 L5.9375,14.84375 C6.0234375,14.84375 6.09375,14.7734375 6.09375,14.6875 L6.09375,13.515625 C6.09375,13.4296875 6.0234375,13.359375 5.9375,13.359375 L5.15429688,13.359375 C4.49609375,13.359375 3.87695312,13.0976563 3.41601562,12.6230469 C2.95703125,12.1503906 2.71289062,11.5136719 2.734375,10.8535156 C2.75195312,10.3378906 2.92773437,9.85351562 3.24609375,9.4453125 C3.57226562,9.02929687 4.02929687,8.7265625 4.53710937,8.59179687 L5.27734375,8.3984375 L5.54882812,7.68359375 C5.71679687,7.23828125 5.95117187,6.82226562 6.24609375,6.4453125 C6.53710937,6.0703125 6.8828125,5.74414062 7.26953125,5.47070312 C8.07226562,4.90625 9.01757812,4.60742188 10.0039062,4.60742188 C10.9902344,4.60742188 11.9355469,4.90625 12.7382812,5.47070312 C13.1269531,5.74414062 13.4707031,6.07226562 13.7617187,6.4453125 C14.0566406,6.82226562 14.2910156,7.24023437 14.4589844,7.68359375 L14.7285156,8.39648437 L15.4667969,8.59179687 C16.5253906,8.87695312 17.265625,9.83984375 17.265625,10.9375 C17.265625,11.5839844 17.0136719,12.1933594 16.5566406,12.6503906 C16.0996094,13.1074219 15.4921875,13.359375 14.8457031,13.359375 L14.0625,13.359375 C13.9765625,13.359375 13.90625,13.4296875 13.90625,13.515625 L13.90625,14.6875 C13.90625,14.7734375 13.9765625,14.84375 14.0625,14.84375 L14.8457031,14.84375 C17.0019531,14.84375 18.75,13.0957031 18.75,10.9375 C18.75,9.12695312 17.5175781,7.60351563 15.8476562,7.16210938 Z"/>
    </g>
  </g>
</svg>
