<svg xmlns="http://www.w3.org/2000/svg" width="70" height="32" viewBox="0 0 70 32">
  <g fill="none" fill-rule="evenodd">
    <rect width="18" height="2" x="34" y="15" fill="#F22735" fill-rule="nonzero"/>
    <path fill="#F22735" fill-rule="nonzero" d="M27.8367507,19.9069919 C28.2121983,20.3394871 27.8959656,21 27.3163296,21 L26.2001821,21 C25.9647497,21 25.7410909,20.8987832 25.5914681,20.7237698 L22.9999955,17.7124427 L20.4037554,20.7292477 C20.2526496,20.9002898 20.03232,21 19.7998179,21 L18.6836704,21 C18.1040344,21 17.7878017,20.3394871 18.161697,19.9087878 L21.5259191,15.9999997 L18.1632493,12.0930081 C17.7878017,11.6605129 18.1040344,11 18.6836704,11 L19.7998179,11 C20.0352503,11 20.2589091,11.1012168 20.4085319,11.2762302 L23.0000045,14.2875573 L25.5962446,11.2707523 C25.7473504,11.0997102 25.96768,11 26.2001821,11 L27.3163296,11 C27.8959656,11 28.2121983,11.6605129 27.838303,12.0912122 L24.4740809,16.0000003 L27.8367507,19.9069919 Z"/>
  </g>
</svg>
