<svg xmlns="http://www.w3.org/2000/svg" width="70" height="32" viewBox="0 0 70 32">
  <g fill="#56C22D" transform="translate(27 3)">
    <path d="M8,16 C3.581722,16 0,12.418278 0,8 C0,3.581722 3.581722,0 8,0 C12.418278,0 16,3.581722 16,8 C16,12.418278 12.418278,16 8,16 Z M8,14.4 C11.5346224,14.4 14.4,11.5346224 14.4,8 C14.4,4.4653776 11.5346224,1.6 8,1.6 C4.4653776,1.6 1.6,4.4653776 1.6,8 C1.6,11.5346224 4.4653776,14.4 8,14.4 Z"/>
    <path d="M10.4302767,5.23094248 C10.55274,5.08505338 10.7414767,5 10.9406659,5 L11.5634577,5 C11.926616,5 12.1318048,5.39046755 11.9049654,5.65237371 L7.55244988,10.7722801 C7.29183092,11.0760947 6.79411639,11.0760947 6.53455597,10.7711501 L4.09405311,7.90106956 C3.8693767,7.63655214 4.07257834,7.24797992 4.43565529,7.24797992 L5.05844702,7.24797992 C5.25697799,7.24797992 5.44383244,7.33243059 5.56744707,7.47727803 L7.04357134,9.21348419 L10.4302767,5.23094248 Z"/>
    <rect width="9" height="2" x="3.5" y="20.5" transform="rotate(90 8 21.5)"/>
  </g>
</svg>
