<svg xmlns="http://www.w3.org/2000/svg" width="70" height="32" viewBox="0 0 70 32">
  <g fill="none" fill-rule="evenodd">
    <path fill="#56C22D" fill-rule="nonzero" d="M25,26 C19.4771525,26 15,21.5228475 15,16 C15,10.4771525 19.4771525,6 25,6 C30.5228475,6 35,10.4771525 35,16 C35,21.5228475 30.5228475,26 25,26 Z M25,24 C29.418278,24 33,20.418278 33,16 C33,11.581722 29.418278,8 25,8 C20.581722,8 17,11.581722 17,16 C17,20.418278 20.581722,24 25,24 Z"/>
    <path fill="#56C22D" fill-rule="nonzero" d="M27.8416305,12.3464137 C28.0100176,12.1275801 28.2695304,12 28.5434156,12 L29.3997543,12 C29.899097,12 30.1812317,12.5857013 29.8693274,12.9785606 L23.8846186,20.6584202 C23.5262675,21.114142 22.84191,21.114142 22.4850145,20.6567252 L19.129323,16.3516043 C18.820393,15.9548282 19.0997952,15.3719699 19.599026,15.3719699 L20.4553647,15.3719699 C20.7283447,15.3719699 20.9852696,15.4986459 21.1552397,15.715917 L23.1849106,18.3202263 L27.8416305,12.3464137 Z"/>
    <rect width="18" height="2" x="37" y="15" fill="#56C22D" fill-rule="nonzero"/>
  </g>
</svg>
