<svg xmlns="http://www.w3.org/2000/svg" width="70" height="32" viewBox="0 0 70 32">
  <g fill="none" transform="rotate(90 19 23)">
    <path fill="#999" d="M18,12 C20.7614237,12 23,9.76142375 23,7 C23,4.23857625 20.7614237,2 18,2 C15.2385763,2 13,4.23857625 13,7 C13,9.76142375 15.2385763,12 18,12 Z M18,14 C14.1340068,14 11,10.8659932 11,7 C11,3.13400675 14.1340068,0 18,0 C21.8659932,0 25,3.13400675 25,7 C25,10.8659932 21.8659932,14 18,14 Z"/>
    <rect width="10" height="2" y="6" fill="#CCC"/>
  </g>
</svg>
