<svg xmlns="http://www.w3.org/2000/svg" width="70" height="32" viewBox="0 0 70 32">
  <g fill="none" fill-rule="evenodd" transform="translate(28 3)">
    <path fill="#4D68FF" fill-rule="nonzero" d="M8,26 C3.581722,26 0,22.418278 0,18 C0,13.581722 3.581722,10 8,10 C12.418278,10 16,13.581722 16,18 C16,22.418278 12.418278,26 8,26 Z"/>
    <rect width="9" height="2" x="3.5" y="3.5" fill="#4D68FF" fill-rule="nonzero" transform="rotate(90 8 4.5)"/>
    <path fill="#FFF" d="M8.098,12.5 C9.05,12.5 9.848,12.766 10.464,13.326 C11.066,13.886 11.374,14.6 11.374,15.482 C11.374,16.35 11.038,17.134 10.394,17.848 C10.002,18.254 9.316,18.786 8.322,19.458 C7.244,20.172 6.6,20.802 6.39,21.348 L11.388,21.348 L11.388,22.692 L4.5,22.692 C4.5,21.698 4.822,20.83 5.494,20.074 C5.858,19.64 6.614,19.038 7.748,18.254 C8.42,17.778 8.896,17.4 9.176,17.106 C9.624,16.602 9.862,16.056 9.862,15.468 C9.862,14.908 9.708,14.488 9.4,14.208 C9.092,13.928 8.63,13.788 8.042,13.788 C7.412,13.788 6.936,13.998 6.614,14.432 C6.278,14.852 6.11,15.454 6.082,16.266 L4.556,16.266 C4.57,15.146 4.892,14.25 5.522,13.578 C6.166,12.85 7.034,12.5 8.098,12.5 Z"/>
  </g>
</svg>
