<svg xmlns="http://www.w3.org/2000/svg" width="70" height="32" viewBox="0 0 70 32">
  <g fill="none" fill-rule="evenodd">
    <path fill="#F22735" fill-rule="nonzero" d="M34.7999638,14 L55,14 L55,18 L34.7999638,18 C33.8734231,22.5644806 29.8379158,26 25,26 C19.4771525,26 15,21.5228475 15,16 C15,10.4771525 19.4771525,6 25,6 C29.8379158,6 33.8734231,9.43551936 34.7999638,14 Z"/>
    <path fill="#FFF" fill-rule="nonzero" d="M28.8694005,19.1255935 C29.1697587,19.4715897 28.9167724,20 28.4530637,20 L27.5601457,20 C27.3717998,20 27.1928727,19.9190266 27.0731745,19.7790158 L24.9999964,17.3699541 L22.9230044,19.7833981 C22.8021197,19.9202319 22.625856,20 22.4398543,20 L21.5469363,20 C21.0832276,20 20.8302413,19.4715897 21.1293576,19.1270302 L23.8207353,15.9999997 L21.1305995,12.8744065 C20.8302413,12.5284103 21.0832276,12 21.5469363,12 L22.4398543,12 C22.6282002,12 22.8071273,12.0809734 22.9268255,12.2209842 L25.0000036,14.6300459 L27.0769956,12.2166019 C27.1978803,12.0797681 27.374144,12 27.5601457,12 L28.4530637,12 C28.9167724,12 29.1697587,12.5284103 28.8706424,12.8729698 L26.1792647,16.0000003 L28.8694005,19.1255935 Z"/>
  </g>
</svg>
