<svg xmlns="http://www.w3.org/2000/svg" width="70" height="32" viewBox="0 0 70 32">
  <g fill="none" fill-rule="evenodd">
    <path fill="#4D68FF" fill-rule="nonzero" d="M34.7999638,14 L55,14 L55,18 L34.7999638,18 C33.8734231,22.5644806 29.8379158,26 25,26 C19.4771525,26 15,21.5228475 15,16 C15,10.4771525 19.4771525,6 25,6 C29.8379158,6 33.8734231,9.43551936 34.7999638,14 Z"/>
    <path fill="#FFF" fill-rule="nonzero" d="M27.8416305,12.3464137 C28.0100176,12.1275801 28.2695304,12 28.5434156,12 L29.3997543,12 C29.899097,12 30.1812317,12.5857013 29.8693274,12.9785606 L23.8846186,20.6584202 C23.5262675,21.114142 22.84191,21.114142 22.4850145,20.6567252 L19.129323,16.3516043 C18.820393,15.9548282 19.0997952,15.3719699 19.599026,15.3719699 L20.4553647,15.3719699 C20.7283447,15.3719699 20.9852696,15.4986459 21.1552397,15.715917 L23.1849106,18.3202263 L27.8416305,12.3464137 Z"/>
  </g>
</svg>
