<svg xmlns="http://www.w3.org/2000/svg" width="70" height="32" viewBox="0 0 70 32">
  <g fill="none" fill-rule="evenodd">
    <path fill="#A6AAB2" stroke="#A6AAB2" stroke-width=".5" d="M4.65949058,4 L7.97589434,0.160736196 C8.03148358,0.0969325153 7.98473808,3.48732631e-16 7.89882743,3.48732631e-16 L6.89064069,3.48732631e-16 C6.83126127,3.48732631e-16 6.77440863,0.0257668712 6.73524348,0.0699386503 L4,3.23680982 L1.26475652,0.0699386503 C1.22685476,0.0257668712 1.17000212,0 1.10935931,0 L0.101172568,0 C0.0152619178,0 -0.0314835828,0.0969325153 0.0241056612,0.160736196 L3.34050942,4 L0.0241056612,7.8392638 C-0.0314835828,7.90306748 0.0152619178,8 0.101172568,8 L1.10935931,8 C1.16873873,8 1.22559137,7.97423313 1.26475652,7.93006135 L4,4.76319018 L6.73524348,7.93006135 C6.77314524,7.97423313 6.82999788,8 6.89064069,8 L7.89882743,8 C7.98473808,8 8.03148358,7.90306748 7.97589434,7.8392638 L4.65949058,4 Z" transform="translate(32 12)"/>
    <path fill="#A6AAB2" fill-rule="nonzero" d="M17.2105263 15.2105263L17.2105263 11.5C17.2105263 11.2238576 17.4343839 11 17.7105263 11L18.2894737 11C18.5656161 11 18.7894737 11.2238576 18.7894737 11.5L18.7894737 15.2105263 22.5 15.2105263C22.7761424 15.2105263 23 15.4343839 23 15.7105263L23 16.2894737C23 16.5656161 22.7761424 16.7894737 22.5 16.7894737L18.7894737 16.7894737 18.7894737 20.5C18.7894737 20.7761424 18.5656161 21 18.2894737 21L17.7105263 21C17.4343839 21 17.2105263 20.7761424 17.2105263 20.5L17.2105263 16.7894737 13.5 16.7894737C13.2238576 16.7894737 13 16.5656161 13 16.2894737L13 15.7105263C13 15.4343839 13.2238576 15.2105263 13.5 15.2105263L17.2105263 15.2105263zM57.0227366 16.5408458L51.3414719 20.7204698C51.0828911 20.9125079 50.7 20.7374351 50.7 20.4048252L50.7 19.4870543C50.7 19.332116 50.7743133 19.1862194 50.899145 19.0957822L55.1083649 15.9999998 50.897876 12.9032793C50.7745703 12.8115873 50.7 12.666929 50.7 12.5129457L50.7 11.5951748C50.7 11.2631636 51.0796395 11.0887309 51.3403837 11.2787258L57.0227002 15.4591274C57.3924491 15.7309949 57.3924333 16.2690629 57.0227366 16.5408458z"/>
    <rect width="1" height="12" x="26" y="10" fill="#E8E8E8" fill-rule="nonzero"/>
    <rect width="1" height="12" x="45" y="10" fill="#E8E8E8" fill-rule="nonzero"/>
  </g>
</svg>
