<svg xmlns="http://www.w3.org/2000/svg" width="70" height="32" viewBox="0 0 70 32">
  <g fill="none" fill-rule="evenodd">
    <path stroke="#4D68FF" stroke-width="2" d="M17,23 L53,23 L53,10 C53,9.44771525 52.5522847,9 52,9 L18,9 C17.4477153,9 17,9.44771525 17,10 L17,23 Z"/>
    <path fill="#4D68FF" d="M32.97,13.38 L32.97,14.78 L31.26,14.78 L31.26,19.65 L29.71,19.65 L29.71,14.78 L28,14.78 L28,13.38 L32.97,13.38 Z M34.41,19.75 C33.9033308,19.75 33.5316678,19.6233346 33.295,19.37 C33.0583321,19.1166654 32.94,18.7166694 32.94,18.17 C32.94,17.6099972 33.0816653,17.2166678 33.365,16.99 C33.6483347,16.7633322 34.1366632,16.65 34.83,16.65 C34.9900008,16.65 35.1549992,16.6583332 35.325,16.675 C35.4950008,16.6916668 35.6433327,16.7133332 35.77,16.74 L35.77,16.38 C35.77,16.2199992 35.7016674,16.1016671 35.565,16.025 C35.4283327,15.9483329 35.2200014,15.91 34.94,15.91 C34.6199984,15.91 34.3350012,15.9183332 34.085,15.935 C33.8349987,15.9516668 33.6066677,15.9799998 33.4,16.02 L33.4,14.79 C33.6466679,14.7299997 33.9333317,14.6850002 34.26,14.655 C34.5866683,14.6249999 34.9666645,14.61 35.4,14.61 C36.0133364,14.61 36.4783317,14.7466653 36.795,15.02 C37.1116683,15.2933347 37.27,15.696664 37.27,16.23 L37.27,19.65 L35.87,19.65 L35.82,19.23 L35.79,19.23 C35.5833323,19.3900008 35.3566679,19.5166662 35.11,19.61 C34.8633321,19.7033338 34.6300011,19.75 34.41,19.75 Z M35.03,17.64 C34.763332,17.64 34.5833338,17.6683331 34.49,17.725 C34.3966662,17.781667 34.35,17.8999991 34.35,18.08 C34.35,18.2466675 34.3883329,18.3616664 34.465,18.425 C34.5416671,18.4883337 34.6766657,18.52 34.87,18.52 C35.0166674,18.52 35.1699992,18.5000002 35.33,18.46 C35.4900008,18.4199998 35.636666,18.3700003 35.77,18.31 L35.77,17.7 C35.6899996,17.6799999 35.5900006,17.6650001 35.47,17.655 C35.3499994,17.6449999 35.2033342,17.64 35.03,17.64 Z M41.03,14.61 C41.6900033,14.61 42.1566653,14.8016648 42.43,15.185 C42.7033347,15.5683353 42.84,16.2199954 42.84,17.14 C42.84,18.0533379 42.6566685,18.7166646 42.29,19.13 C41.9233315,19.5433354 41.3300041,19.75 40.51,19.75 C40.0366643,19.75 39.5966687,19.7266669 39.19,19.68 C38.7833313,19.6333331 38.4233349,19.5633338 38.11,19.47 L38.11,13 L39.61,13 L39.61,14.97 C39.8366678,14.8566661 40.0716654,14.7683337 40.315,14.705 C40.5583345,14.6416663 40.7966655,14.61 41.03,14.61 Z M41.34,17.14 C41.34,16.6533309 41.2900005,16.3350007 41.19,16.185 C41.0899995,16.0349992 40.8566685,15.96 40.49,15.96 C40.3366659,15.96 40.1850008,15.9733332 40.035,16 C39.8849992,16.0266668 39.743334,16.0633331 39.61,16.11 L39.61,18.3 C39.7100005,18.3200001 39.8233327,18.3349999 39.95,18.345 C40.0766673,18.3550001 40.2266658,18.36 40.4,18.36 C40.800002,18.36 41.0566661,18.2850008 41.17,18.135 C41.2833339,17.9849993 41.34,17.6533359 41.34,17.14 Z"/>
  </g>
</svg>
