<svg xmlns="http://www.w3.org/2000/svg" width="70" height="32" viewBox="0 0 70 32">
  <path fill="#CCC" d="M49.8662178,11.5 C49.9513029,11.6470867 50,11.8178564 50,12 L50,27 C50,27.5522847 49.5522847,28 49,28 L21,28 C20.4477153,28 20,27.5522847 20,27 L20,12 C20,11.8178564 20.0486971,11.6470867 20.1337822,11.5 C20.0486971,11.3529133 20,11.1821436 20,11 L20,6 C20,5.44771525 20.4477153,5 21,5 L49,5 C49.5522847,5 50,5.44771525 50,6 L50,11 C50,11.1821436 49.9513029,11.3529133 49.8662178,11.5 Z M22,13 L22,26 L48,26 L48,13 L22,13 Z"/>
</svg>
