<svg xmlns="http://www.w3.org/2000/svg" width="70" height="32" viewBox="0 0 70 32">
  <g fill="none" fill-rule="evenodd">
    <rect width="28" height="4" x="20" y="20" fill="#4D68FF" fill-rule="nonzero" rx="1"/>
    <path fill="#4D68FF" d="M31.485,10.73 L31.485,12.13 L29.775,12.13 L29.775,17 L28.225,17 L28.225,12.13 L26.515,12.13 L26.515,10.73 L31.485,10.73 Z M32.925,17.1 C32.4183308,17.1 32.0466678,16.9733346 31.81,16.72 C31.5733321,16.4666654 31.455,16.0666694 31.455,15.52 C31.455,14.9599972 31.5966653,14.5666678 31.88,14.34 C32.1633347,14.1133322 32.6516632,14 33.345,14 C33.5050008,14 33.6699992,14.0083332 33.84,14.025 C34.0100008,14.0416668 34.1583327,14.0633332 34.285,14.09 L34.285,13.73 C34.285,13.5699992 34.2166674,13.4516671 34.08,13.375 C33.9433327,13.2983329 33.7350014,13.26 33.455,13.26 C33.1349984,13.26 32.8500012,13.2683332 32.6,13.285 C32.3499987,13.3016668 32.1216677,13.3299998 31.915,13.37 L31.915,12.14 C32.1616679,12.0799997 32.4483317,12.0350002 32.775,12.005 C33.1016683,11.9749998 33.4816645,11.96 33.915,11.96 C34.5283364,11.96 34.9933317,12.0966653 35.31,12.37 C35.6266683,12.6433347 35.785,13.046664 35.785,13.58 L35.785,17 L34.385,17 L34.335,16.58 L34.305,16.58 C34.0983323,16.7400008 33.8716679,16.8666662 33.625,16.96 C33.3783321,17.0533338 33.1450011,17.1 32.925,17.1 Z M33.545,14.99 C33.278332,14.99 33.0983338,15.0183331 33.005,15.075 C32.9116662,15.1316669 32.865,15.2499991 32.865,15.43 C32.865,15.5966675 32.9033329,15.7116663 32.98,15.775 C33.0566671,15.8383336 33.1916657,15.87 33.385,15.87 C33.5316674,15.87 33.6849992,15.8500002 33.845,15.81 C34.0050008,15.7699998 34.151666,15.7200003 34.285,15.66 L34.285,15.05 C34.2049996,15.0299999 34.1050006,15.0150001 33.985,15.005 C33.8649994,14.995 33.7183342,14.99 33.545,14.99 Z M39.545,11.96 C40.2050033,11.96 40.6716653,12.1516648 40.945,12.535 C41.2183347,12.9183353 41.355,13.5699954 41.355,14.49 C41.355,15.4033379 41.1716685,16.0666646 40.805,16.48 C40.4383315,16.8933354 39.8450041,17.1 39.025,17.1 C38.5516643,17.1 38.1116687,17.0766669 37.705,17.03 C37.2983313,16.9833331 36.9383349,16.9133338 36.625,16.82 L36.625,10.35 L38.125,10.35 L38.125,12.32 C38.3516678,12.2066661 38.5866654,12.1183337 38.83,12.055 C39.0733345,11.9916663 39.3116655,11.96 39.545,11.96 Z M39.855,14.49 C39.855,14.0033309 39.8050005,13.6850008 39.705,13.535 C39.6049995,13.3849992 39.3716685,13.31 39.005,13.31 C38.8516659,13.31 38.7000008,13.3233332 38.55,13.35 C38.3999993,13.3766668 38.258334,13.4133331 38.125,13.46 L38.125,15.65 C38.2250005,15.6700001 38.3383327,15.6849999 38.465,15.695 C38.5916673,15.705 38.7416658,15.71 38.915,15.71 C39.315002,15.71 39.5716661,15.6350007 39.685,15.485 C39.7983339,15.3349992 39.855,15.0033359 39.855,14.49 Z"/>
  </g>
</svg>
