<svg xmlns="http://www.w3.org/2000/svg" width="70" height="32" viewBox="0 0 70 32">
  <g fill="none" fill-rule="evenodd">
    <path fill="#E8E8E8" d="M18,8 L52,8 C53.1045695,8 54,8.8954305 54,10 L54,24 L16,24 L16,10 C16,8.8954305 16.8954305,8 18,8 Z"/>
    <path fill="#747E90" d="M32.485,12.73 L32.485,14.13 L30.775,14.13 L30.775,19 L29.225,19 L29.225,14.13 L27.515,14.13 L27.515,12.73 L32.485,12.73 Z M33.925,19.1 C33.4183308,19.1 33.0466678,18.9733346 32.81,18.72 C32.5733321,18.4666654 32.455,18.0666694 32.455,17.52 C32.455,16.9599972 32.5966653,16.5666678 32.88,16.34 C33.1633347,16.1133322 33.6516632,16 34.345,16 C34.5050008,16 34.6699992,16.0083332 34.84,16.025 C35.0100008,16.0416668 35.1583327,16.0633332 35.285,16.09 L35.285,15.73 C35.285,15.5699992 35.2166674,15.4516671 35.08,15.375 C34.9433327,15.2983329 34.7350014,15.26 34.455,15.26 C34.1349984,15.26 33.8500012,15.2683332 33.6,15.285 C33.3499987,15.3016668 33.1216677,15.3299998 32.915,15.37 L32.915,14.14 C33.1616679,14.0799997 33.4483317,14.0350002 33.775,14.005 C34.1016683,13.9749998 34.4816645,13.96 34.915,13.96 C35.5283364,13.96 35.9933317,14.0966653 36.31,14.37 C36.6266683,14.6433347 36.785,15.046664 36.785,15.58 L36.785,19 L35.385,19 L35.335,18.58 L35.305,18.58 C35.0983323,18.7400008 34.8716679,18.8666662 34.625,18.96 C34.3783321,19.0533338 34.1450011,19.1 33.925,19.1 Z M34.545,16.99 C34.278332,16.99 34.0983338,17.0183331 34.005,17.075 C33.9116662,17.1316669 33.865,17.2499991 33.865,17.43 C33.865,17.5966675 33.9033329,17.7116664 33.98,17.775 C34.0566671,17.8383336 34.1916657,17.87 34.385,17.87 C34.5316674,17.87 34.6849992,17.8500002 34.845,17.81 C35.0050008,17.7699998 35.151666,17.7200003 35.285,17.66 L35.285,17.05 C35.2049996,17.0299999 35.1050006,17.0150001 34.985,17.005 C34.8649994,16.995 34.7183342,16.99 34.545,16.99 Z M40.545,13.96 C41.2050033,13.96 41.6716653,14.1516648 41.945,14.535 C42.2183347,14.9183353 42.355,15.5699954 42.355,16.49 C42.355,17.4033379 42.1716685,18.0666646 41.805,18.48 C41.4383315,18.8933354 40.8450041,19.1 40.025,19.1 C39.5516643,19.1 39.1116687,19.0766669 38.705,19.03 C38.2983313,18.9833331 37.9383349,18.9133338 37.625,18.82 L37.625,12.35 L39.125,12.35 L39.125,14.32 C39.3516678,14.2066661 39.5866654,14.1183337 39.83,14.055 C40.0733345,13.9916663 40.3116655,13.96 40.545,13.96 Z M40.855,16.49 C40.855,16.0033309 40.8050005,15.6850008 40.705,15.535 C40.6049995,15.3849992 40.3716685,15.31 40.005,15.31 C39.8516659,15.31 39.7000008,15.3233332 39.55,15.35 C39.3999993,15.3766668 39.258334,15.4133331 39.125,15.46 L39.125,17.65 C39.2250005,17.6700001 39.3383327,17.6849999 39.465,17.695 C39.5916673,17.705 39.7416658,17.71 39.915,17.71 C40.315002,17.71 40.5716661,17.6350007 40.685,17.485 C40.7983339,17.3349992 40.855,17.0033359 40.855,16.49 Z"/>
  </g>
</svg>
