<svg xmlns="http://www.w3.org/2000/svg" width="70" height="32" viewBox="0 0 70 32">
  <g fill="none" fill-rule="evenodd">
    <rect width="40" height="20" x="15" y="6" fill="#4D68FF" rx="10"/>
    <path fill="#FFF" d="M30.952,10 L30.952,12.24 L28.216,12.24 L28.216,20.032 L25.736,20.032 L25.736,12.24 L23,12.24 L23,10 L30.952,10 Z M33.256,20.192 C32.4453293,20.192 31.8506686,19.9893354 31.472,19.584 C31.0933314,19.1786646 30.904,18.538671 30.904,17.664 C30.904,16.7679955 31.1306644,16.1386685 31.584,15.776 C32.0373356,15.4133315 32.8186611,15.232 33.928,15.232 C34.1840013,15.232 34.4479986,15.2453332 34.72,15.272 C34.9920014,15.2986668 35.2293323,15.3333331 35.432,15.376 L35.432,14.8 C35.432,14.5439987 35.3226678,14.3546673 35.104,14.232 C34.8853322,14.1093327 34.5520022,14.048 34.104,14.048 C33.5919974,14.048 33.136002,14.0613332 32.736,14.088 C32.335998,14.1146668 31.9706683,14.1599997 31.64,14.224 L31.64,12.256 C32.0346686,12.1599995 32.4933307,12.0880002 33.016,12.04 C33.5386693,11.9919998 34.1466632,11.968 34.84,11.968 C35.8213382,11.968 36.5653308,12.1866645 37.072,12.624 C37.5786692,13.0613355 37.832,13.7066624 37.832,14.56 L37.832,20.032 L35.592,20.032 L35.512,19.36 L35.464,19.36 C35.1333317,19.6160013 34.7706686,19.8186659 34.376,19.968 C33.9813314,20.1173341 33.6080018,20.192 33.256,20.192 Z M34.248,16.816 C33.8213312,16.816 33.5333341,16.8613329 33.384,16.952 C33.2346659,17.0426671 33.16,17.2319986 33.16,17.52 C33.16,17.786668 33.2213327,17.9706662 33.344,18.072 C33.4666673,18.1733338 33.6826651,18.224 33.992,18.224 C34.2266678,18.224 34.4719987,18.1920003 34.728,18.128 C34.9840013,18.0639997 35.2186656,17.9840005 35.432,17.888 L35.432,16.912 C35.3039994,16.8799998 35.144001,16.8560001 34.952,16.84 C34.759999,16.8239999 34.5253347,16.816 34.248,16.816 Z M42.744,22.624 C42.1786638,22.624 41.6373359,22.586667 41.12,22.512 C40.6026641,22.437333 40.1786683,22.3413339 39.848,22.224 L39.848,20.192 C40.1040013,20.266667 40.4906641,20.3306664 41.008,20.384 C41.5253359,20.4373336 42.0399974,20.464 42.552,20.464 C43.1280029,20.464 43.5226656,20.3786675 43.736,20.208 C43.9493344,20.0373325 44.0613333,19.722669 44.072,19.264 L44.072,18.88 C43.6453312,19.0826677 43.2346686,19.2346662 42.84,19.336 C42.4453314,19.4373338 42.0613352,19.488 41.688,19.488 C40.6746616,19.488 39.9573354,19.2026695 39.536,18.632 C39.1146646,18.0613305 38.904,17.0933402 38.904,15.728 C38.904,14.3733266 39.2053303,13.4080029 39.808,12.832 C40.4106697,12.2559971 41.4266595,11.968 42.856,11.968 C43.4213362,11.968 44.074663,11.9999997 44.816,12.064 C45.557337,12.1280003 46.1093315,12.197333 46.472,12.272 L46.472,18.512 C46.472,20.037341 46.1946694,21.103997 45.64,21.712 C45.0853306,22.320003 44.1200069,22.624 42.744,22.624 Z M42.856,14.128 C42.1413298,14.128 41.7040008,14.2079992 41.544,14.368 C41.3839992,14.5280008 41.304,14.9813296 41.304,15.728 C41.304,16.4000034 41.3733326,16.8239991 41.512,17 C41.6506674,17.1760009 41.986664,17.264 42.52,17.264 C42.7226677,17.264 42.9546654,17.2426669 43.216,17.2 C43.4773346,17.1573331 43.7626651,17.098667 44.072,17.024 L44.072,14.224 C43.9119992,14.1919998 43.7306677,14.1680001 43.528,14.152 C43.3253323,14.1359999 43.1013346,14.128 42.856,14.128 Z"/>
  </g>
</svg>
