<svg xmlns="http://www.w3.org/2000/svg" width="70" height="32" viewBox="0 0 70 32">
  <path fill="#9DA7B2" fill-rule="evenodd" stroke="#A6AAB2" d="M5.60249016,11 C4.98645635,11 4.3790298,10.9010097 3.79742503,10.7066506 C3.20106496,10.5074627 2.64528196,10.2116989 2.14729056,9.82901668 C0.136880827,8.28380158 -0.552929484,5.59899034 0.467645487,3.30169008 C1.35788197,1.29532485 3.37321013,0 5.60003094,0 C5.89390735,0 6.19147258,0.0229367867 6.48288977,0.06881036 C8.93595853,0.451492537 10.8307851,2.37214662 11.1554017,4.77447322 L11.2845106,4.6477173 C11.3632055,4.57287094 11.4677222,4.53182616 11.578387,4.53182616 C11.691511,4.53182616 11.7972573,4.57528534 11.8771818,4.65375329 C12.0394901,4.8131036 12.0407197,5.07265145 11.8821003,5.23441615 L10.9648124,6.13377963 C10.8861174,6.21104039 10.7779119,6.25570676 10.6660175,6.25570676 C10.5541232,6.25570676 10.4459176,6.21104039 10.3672227,6.13377963 L9.45116445,5.23441615 C9.29254496,5.07265145 9.29500418,4.8118964 9.45608288,4.65375329 C9.53600743,4.57528534 9.64175375,4.53182616 9.75487772,4.53182616 C9.86431287,4.53182616 9.96882958,4.57287094 10.0475245,4.6477173 L10.3229568,4.91812994 C10.0659686,2.89969271 8.5068252,1.26876646 6.44723113,0.904192274 C6.16811002,0.854697103 5.88284088,0.829345917 5.60003094,0.829345917 C3.73717422,0.829345917 2.0366258,1.90737489 1.26689095,3.57451712 C0.366817598,5.52776558 0.931207853,7.82385865 2.64036353,9.15781387 C3.47895646,9.81211589 4.53027164,10.1718613 5.60126055,10.1718613 C6.65503495,10.1718613 7.65347697,9.83988147 8.49084029,9.21213784 C8.56461679,9.15660667 8.65437821,9.12642669 8.74782844,9.12642669 C8.88062615,9.12642669 9.00235738,9.18557946 9.08351154,9.2893986 C9.2249165,9.47047849 9.18925786,9.73123354 9.0048166,9.87006146 C8.51174363,10.2406716 7.96333829,10.5255707 7.37681508,10.7175154 C6.80381757,10.9058385 6.20745749,11 5.60249016,11 C5.60249016,11 5.60249016,11 5.60249016,11 Z" transform="translate(29 11)"/>
</svg>
