<svg xmlns="http://www.w3.org/2000/svg" width="70" height="32" viewBox="0 0 70 32">
  <g fill="none" fill-rule="evenodd">
    <rect width="41.5" height="23.5" x="14.25" y="4.25" fill="#FFF" stroke="#CCC" stroke-width=".5" rx="2"/>
    <rect width="40" height="7" x="15" y="5" fill="#4D68FF" fill-rule="nonzero" opacity=".3"/>
    <rect width="1" height="24" x="28" y="4" fill="#CCC" fill-rule="nonzero"/>
    <rect width="1" height="24" x="42" y="4" fill="#CCC" fill-rule="nonzero"/>
    <rect width="3" height="5" x="18" y="6" fill="#4D68FF" fill-rule="nonzero"/>
    <rect width="3" height="5" x="32" y="13" fill="#A6AAB2" fill-rule="nonzero"/>
    <rect width="3" height="5" x="45" y="6" fill="#4D68FF" fill-rule="nonzero"/>
    <rect width="3" height="5" x="18" y="13" fill="#A6AAB2" fill-rule="nonzero"/>
    <rect width="3" height="5" x="32" y="6" fill="#4D68FF" fill-rule="nonzero"/>
    <rect width="3" height="5" x="45" y="13" fill="#A6AAB2" fill-rule="nonzero"/>
    <rect width="3" height="5" x="18" y="20" fill="#A6AAB2" fill-rule="nonzero"/>
    <rect width="3" height="5" x="32" y="20" fill="#A6AAB2" fill-rule="nonzero"/>
    <rect width="3" height="5" x="45" y="20" fill="#A6AAB2" fill-rule="nonzero"/>
    <rect width="3" height="5" x="22" y="6" fill="#4D68FF" fill-rule="nonzero"/>
    <rect width="3" height="5" x="36" y="13" fill="#A6AAB2" fill-rule="nonzero"/>
    <rect width="3" height="5" x="49" y="6" fill="#4D68FF" fill-rule="nonzero"/>
    <rect width="3" height="5" x="22" y="13" fill="#A6AAB2" fill-rule="nonzero"/>
    <rect width="3" height="5" x="36" y="6" fill="#4D68FF" fill-rule="nonzero"/>
    <rect width="3" height="5" x="49" y="13" fill="#A6AAB2" fill-rule="nonzero"/>
    <rect width="3" height="5" x="22" y="20" fill="#A6AAB2" fill-rule="nonzero"/>
    <rect width="3" height="5" x="36" y="20" fill="#A6AAB2" fill-rule="nonzero"/>
    <rect width="3" height="5" x="49" y="20" fill="#A6AAB2" fill-rule="nonzero"/>
  </g>
</svg>
