<svg xmlns="http://www.w3.org/2000/svg" width="70" height="32" viewBox="0 0 70 32">
  <g fill="none" fill-rule="evenodd">
    <rect width="46" height="20" x="12" y="6" fill="#4D68FF" fill-rule="nonzero" opacity=".3" rx="2"/>
    <path fill="#4D68FF" d="M22.976,17.976 C22.976,19.0000051 22.6933362,19.7866639 22.128,20.336 C21.5626638,20.8853361 20.7626718,21.16 19.728,21.16 C18.9386627,21.16 18.2720027,21.130667 17.728,21.072 C17.1839973,21.013333 16.7626682,20.9306672 16.464,20.824 L16.464,18.632 C16.8480019,18.706667 17.2453313,18.7599998 17.656,18.792 C18.0666687,18.8240002 18.5226642,18.84 19.024,18.84 C19.557336,18.84 19.9359989,18.7706674 20.16,18.632 C20.3840011,18.4933326 20.496,18.2640016 20.496,17.944 C20.496,17.5493314 20.392001,17.285334 20.184,17.152 C19.975999,17.018666 19.568003,16.952 18.96,16.952 C18.3733304,16.9626667 17.9386681,16.9813332 17.656,17.008 C17.3733319,17.0346668 17.1146678,17.0693331 16.88,17.112 L16.88,10.968 L22.336,10.968 L22.336,13.208 L19.36,13.208 L19.36,14.968 C19.5093341,14.9573333 19.6773324,14.9466667 19.864,14.936 C20.0506676,14.9253333 20.2293325,14.92 20.4,14.92 C21.3173379,14.92 21.975998,15.1679975 22.376,15.664 C22.776002,16.1600025 22.976,16.9306614 22.976,17.976 Z M27.28,10.808 C28.6986738,10.808 29.6799973,11.1653298 30.224,11.88 C30.7680027,12.5946702 31.04,13.8746574 31.04,15.72 C31.04,17.5973427 30.6560038,18.973329 29.888,19.848 C29.1199962,20.722671 27.9200082,21.16 26.288,21.16 C25.9679984,21.16 25.637335,21.1466668 25.296,21.12 C24.954665,21.0933332 24.7093341,21.0586669 24.56,21.016 L24.56,18.92 C24.752001,18.9413334 24.9973318,18.9599999 25.296,18.976 C25.5946682,18.9920001 25.9253315,19 26.288,19 C27.0240037,19 27.5493318,18.8613347 27.864,18.584 C28.1786682,18.3066653 28.3839995,17.8106702 28.48,17.096 C28.0959981,17.288001 27.7386683,17.4239996 27.408,17.504 C27.0773317,17.5840004 26.7360018,17.624 26.384,17.624 C25.4666621,17.624 24.7840022,17.357336 24.336,16.824 C23.8879978,16.290664 23.664,15.4800054 23.664,14.392 C23.664,13.2613277 23.9813302,12.3813365 24.616,11.752 C25.2506698,11.1226635 26.138661,10.808 27.28,10.808 Z M27.28,12.984 C26.8746646,12.984 26.5733343,13.087999 26.376,13.296 C26.1786657,13.504001 26.08,13.8266645 26.08,14.264 C26.08,14.7653358 26.1573326,15.1066658 26.312,15.288 C26.4666674,15.4693342 26.773331,15.56 27.232,15.56 C27.498668,15.56 27.7413322,15.5360002 27.96,15.488 C28.1786678,15.4399998 28.3786658,15.3680005 28.56,15.272 C28.5493333,14.3226619 28.4613342,13.7040014 28.296,13.416 C28.1306658,13.1279986 27.7920026,12.984 27.28,12.984 Z"/>
  </g>
</svg>
