<svg xmlns="http://www.w3.org/2000/svg" width="70" height="32" viewBox="0 0 70 32">
  <g fill="none" fill-rule="evenodd">
    <path fill="#CCC" fill-rule="nonzero" d="M37.3230717,23.5 L49,23.5 C50.9329966,23.5 52.5,21.9329966 52.5,20 L52.5,11 C52.5,9.06700338 50.9329966,7.5 49,7.5 L21,7.5 C19.0670034,7.5 17.5,9.06700338 17.5,11 L17.5,20 C17.5,21.9329966 19.0670034,23.5 21,23.5 L32.6769283,23.5 L35,26.2286874 L37.3230717,23.5 Z M35,27.7713126 L32.2149636,24.5 L21,24.5 C18.5147186,24.5 16.5,22.4852814 16.5,20 L16.5,11 C16.5,8.51471863 18.5147186,6.5 21,6.5 L49,6.5 C51.4852814,6.5 53.5,8.51471863 53.5,11 L53.5,20 C53.5,22.4852814 51.4852814,24.5 49,24.5 L37.7850364,24.5 L35,27.7713126 Z"/>
    <path fill="#747E90" d="M30.762598,12 L30.762598,18.8845646 L28.9171333,18.8845646 L28.9171333,14.3733509 C28.6185129,14.6073011 28.329602,14.7966132 28.0503919,14.9412929 C27.7711819,15.0859726 27.4210547,15.2244936 27,15.3568602 L27,13.8146438 C27.6211304,13.6083983 28.1033951,13.3605995 28.4468085,13.0712401 C28.7902219,12.7818807 29.0589763,12.4248042 29.2530795,12 L30.762598,12 Z M32.7469205,15.4722955 C32.7469205,14.1855696 32.971629,13.2851829 33.4210526,12.7711082 C33.8704763,12.2570335 34.5550533,12 35.474804,12 C35.9167622,12 36.2795805,12.056178 36.5632699,12.1685356 C36.8469592,12.2808933 37.0783866,12.4271099 37.2575588,12.60719 C37.436731,12.78727 37.577827,12.9765821 37.6808511,13.1751319 C37.7838751,13.3736817 37.866741,13.6053197 37.9294513,13.8700528 C38.0518856,14.3748926 38.1131019,14.9012725 38.1131019,15.4492084 C38.1131019,16.6774468 37.9115362,17.5762944 37.5083987,18.1457784 C37.1052611,18.7152623 36.4109792,19 35.4255319,19 C34.8730842,19 34.4266534,18.9091918 34.0862262,18.7275726 C33.745799,18.5459534 33.4665931,18.2796851 33.2486002,17.9287599 C33.0903314,17.6794183 32.9671524,17.3385026 32.8790594,16.9060026 C32.7909663,16.4735027 32.7469205,15.9956051 32.7469205,15.4722955 Z M34.556551,15.4769129 C34.556551,16.3388346 34.6304584,16.927549 34.7782755,17.2430739 C34.9260926,17.5585988 35.1403495,17.7163588 35.4210526,17.7163588 C35.6061973,17.7163588 35.7667033,17.649407 35.9025756,17.5155013 C36.0384479,17.3815956 36.1384842,17.1699663 36.2026876,16.8806069 C36.266891,16.5912475 36.2989922,16.1402845 36.2989922,15.5277045 C36.2989922,14.6288434 36.2250847,14.0247377 36.0772676,13.7153694 C35.9294505,13.4060011 35.7077282,13.2513193 35.4120941,13.2513193 C35.1104875,13.2513193 34.8924979,13.4090793 34.7581187,13.7246042 C34.6237395,14.0401291 34.556551,14.6242262 34.556551,15.4769129 Z M43,12 L43,18.8845646 L41.1545353,18.8845646 L41.1545353,14.3733509 C40.8559149,14.6073011 40.567004,14.7966132 40.287794,14.9412929 C40.0085839,15.0859726 39.6584568,15.2244936 39.237402,15.3568602 L39.237402,13.8146438 C39.8585324,13.6083983 40.3407971,13.3605995 40.6842105,13.0712401 C41.027624,12.7818807 41.2963783,12.4248042 41.4904815,12 L43,12 Z"/>
  </g>
</svg>
