<svg xmlns="http://www.w3.org/2000/svg" width="70" height="32" viewBox="0 0 70 32">
  <path fill="#9EA4AE" fill-rule="evenodd" d="M19.476,22.852 C19.3453327,22.852 19.2333338,22.8030005 19.14,22.705 C19.0466662,22.6069995 19,22.4926673 19,22.362 L19,17.518 C19,17.3873327 19.0466662,17.2753338 19.14,17.182 C19.2333338,17.0886662 19.3453327,17.042 19.476,17.042 L27.82,17.042 C27.9600007,17.042 28.0766662,17.0886662 28.17,17.182 C28.2633338,17.2753338 28.31,17.3873327 28.31,17.518 L28.31,22.362 C28.31,22.4926673 28.2633338,22.6069995 28.17,22.705 C28.0766662,22.8030005 27.9600007,22.852 27.82,22.852 L19.476,22.852 Z M21.184,13.92 C21.0626661,13.8639997 20.9086676,13.8150002 20.722,13.773 C20.5353324,13.7309998 20.3766673,13.71 20.246,13.71 L19.476,13.71 C19.3453327,13.71 19.2333338,13.6633338 19.14,13.57 C19.0466662,13.4766662 19,13.3600007 19,13.22 L19,12.912 C19,12.7719993 19.0466662,12.6553338 19.14,12.562 C19.2333338,12.4686662 19.3453327,12.422 19.476,12.422 L20.442,12.422 C20.5820007,12.422 20.7406658,12.4406665 20.918,12.478 C21.0953342,12.5153335 21.2446661,12.5619997 21.366,12.618 L23.032,13.36 C23.1626673,13.4253337 23.3119992,13.4556667 23.48,13.451 C23.6480008,13.4463333 23.7879994,13.406667 23.9,13.332 L26.322,12.002 C26.4526673,11.9366663 26.5086668,11.8830002 26.49,11.841 C26.4713332,11.7989998 26.3920007,11.778 26.252,11.778 L19.476,11.778 C19.3453327,11.778 19.2333338,11.7313338 19.14,11.638 C19.0466662,11.5446662 19,11.4280007 19,11.288 L19,10.364 C19,10.2613328 19.0466662,10.1750003 19.14,10.105 C19.2333338,10.0349996 19.3453327,10 19.476,10 L19.826,10 C19.9566673,10 20.0709995,10.0233331 20.169,10.07 C20.2670005,10.1166669 20.316,10.1726663 20.316,10.238 C20.316,10.3033337 20.3626662,10.3593331 20.456,10.406 C20.5493338,10.4526669 20.6659993,10.476 20.806,10.476 L27.806,10.476 C27.9460007,10.476 28.0649995,10.5249995 28.163,10.623 C28.2610005,10.7210005 28.31,10.8353327 28.31,10.966 L28.31,11.834 C28.31,11.9646673 28.2680004,12.0999993 28.184,12.24 C28.0999996,12.3800007 27.9973339,12.4826663 27.876,12.548 L25.356,13.976 C25.2253327,14.050667 25.1623333,14.1276663 25.167,14.207 C25.1716667,14.2863337 25.2393327,14.3586663 25.37,14.424 L26.602,14.97 C26.7233339,15.0260003 26.8749991,15.0749998 27.057,15.117 C27.2390009,15.1590002 27.3999993,15.18 27.54,15.18 L27.82,15.18 C27.9600007,15.18 28.0766662,15.2266662 28.17,15.32 C28.2633338,15.4133338 28.31,15.5253327 28.31,15.656 L28.31,15.978 C28.31,16.1180007 28.2633338,16.2369995 28.17,16.335 C28.0766662,16.4330005 27.9600007,16.482 27.82,16.482 L27.022,16.482 C26.8913327,16.482 26.7326676,16.4586669 26.546,16.412 C26.3593324,16.3653331 26.2053339,16.3186669 26.084,16.272 L23.942,15.236 C23.8113327,15.1799997 23.6620008,15.1543333 23.494,15.159 C23.3259992,15.1636667 23.1766673,15.1986663 23.046,15.264 L21.338,16.23 C21.2259994,16.2953337 21.0766676,16.3536664 20.89,16.405 C20.7033324,16.4563336 20.5446673,16.482 20.414,16.482 L19.504,16.482 C19.3639993,16.482 19.2473338,16.4330005 19.154,16.335 C19.0606662,16.2369995 19.014,16.1180007 19.014,15.978 L19.014,15.656 C19.014,15.5253327 19.0606662,15.4133338 19.154,15.32 C19.2473338,15.2266662 19.3639993,15.18 19.504,15.18 L20.036,15.18 C20.1853341,15.18 20.3486658,15.1590002 20.526,15.117 C20.7033342,15.0749998 20.8526661,15.016667 20.974,14.942 L21.618,14.578 C21.7486673,14.5126663 21.814,14.4380004 21.814,14.354 C21.814,14.2699996 21.7486673,14.1953337 21.618,14.13 L21.184,13.92 Z M20.302,21.06 C20.302,21.2000007 20.3486662,21.3166662 20.442,21.41 C20.5353338,21.5033338 20.6519993,21.55 20.792,21.55 L22.528,21.55 C22.6586673,21.55 22.7729995,21.5033338 22.871,21.41 C22.9690005,21.3166662 23.018,21.2000007 23.018,21.06 L23.018,20.92 C23.018,20.7799993 22.9690005,20.6610005 22.871,20.563 C22.7729995,20.4649995 22.6586673,20.416 22.528,20.416 L20.792,20.416 C20.6519993,20.416 20.5353338,20.4649995 20.442,20.563 C20.3486662,20.6610005 20.302,20.7799993 20.302,20.92 L20.302,21.06 Z M26.518,21.55 C26.6580007,21.55 26.7769995,21.5033338 26.875,21.41 C26.9730005,21.3166662 27.022,21.2000007 27.022,21.06 L27.022,20.92 C27.022,20.7799993 26.9730005,20.6610005 26.875,20.563 C26.7769995,20.4649995 26.6580007,20.416 26.518,20.416 L24.796,20.416 C24.6653327,20.416 24.5510005,20.4649995 24.453,20.563 C24.3549995,20.6610005 24.306,20.7799993 24.306,20.92 L24.306,21.06 C24.306,21.2000007 24.3549995,21.3166662 24.453,21.41 C24.5510005,21.5033338 24.6653327,21.55 24.796,21.55 L26.518,21.55 Z M20.792,18.33 C20.6519993,18.33 20.5353338,18.3789995 20.442,18.477 C20.3486662,18.5750005 20.302,18.6893327 20.302,18.82 L20.302,18.89 C20.302,19.0206673 20.3486662,19.1373328 20.442,19.24 C20.5353338,19.3426672 20.6519993,19.394 20.792,19.394 L22.528,19.394 C22.6586673,19.394 22.7729995,19.3426672 22.871,19.24 C22.9690005,19.1373328 23.018,19.0206673 23.018,18.89 L23.018,18.82 C23.018,18.6893327 22.9690005,18.5750005 22.871,18.477 C22.7729995,18.3789995 22.6586673,18.33 22.528,18.33 L20.792,18.33 Z M27.022,18.82 C27.022,18.6893327 26.9730005,18.5750005 26.875,18.477 C26.7769995,18.3789995 26.6580007,18.33 26.518,18.33 L24.796,18.33 C24.6653327,18.33 24.5510005,18.3789995 24.453,18.477 C24.3549995,18.5750005 24.306,18.6893327 24.306,18.82 L24.306,18.89 C24.306,19.0206673 24.3549995,19.1373328 24.453,19.24 C24.5510005,19.3426672 24.6653327,19.394 24.796,19.394 L26.518,19.394 C26.6580007,19.394 26.7769995,19.3426672 26.875,19.24 C26.9730005,19.1373328 27.022,19.0206673 27.022,18.89 L27.022,18.82 Z M29.71,22.04 C29.71,21.8999993 29.7263332,21.7833338 29.759,21.69 C29.7916668,21.5966662 29.8359997,21.55 29.892,21.55 C29.9480003,21.55 29.9923332,21.5033338 30.025,21.41 C30.0576668,21.3166662 30.074,21.2000007 30.074,21.06 L30.074,15.796 C30.074,15.6559993 30.1206662,15.5393338 30.214,15.446 C30.3073338,15.3526662 30.4193327,15.306 30.55,15.306 L30.886,15.306 C31.0166673,15.306 31.1286662,15.3526662 31.222,15.446 C31.3153338,15.5393338 31.362,15.6559993 31.362,15.796 L31.362,21.326 C31.362,21.4566673 31.3293337,21.6036658 31.264,21.767 C31.1986663,21.9303342 31.1193338,22.0539996 31.026,22.138 L30.662,22.502 C30.5686662,22.6046672 30.4566673,22.6886663 30.326,22.754 C30.1953327,22.8193337 30.092667,22.852 30.018,22.852 C29.9339996,22.852 29.861667,22.8030005 29.801,22.705 C29.740333,22.6069995 29.71,22.4926673 29.71,22.362 L29.71,22.04 Z M30.158,13.99 C30.0553328,13.8873328 30.004,13.7706673 30.004,13.64 C30.004,13.5093327 30.0553328,13.3926672 30.158,13.29 L30.368,13.066 C30.4613338,12.9633328 30.575666,12.912 30.711,12.912 C30.846334,12.912 30.9559996,12.9633328 31.04,13.066 L31.292,13.29 C31.3853338,13.3926672 31.432,13.5093327 31.432,13.64 C31.432,13.7706673 31.3853338,13.8873328 31.292,13.99 L31.04,14.214 C30.9559996,14.3166672 30.846334,14.368 30.711,14.368 C30.575666,14.368 30.4613338,14.3166672 30.368,14.214 L30.158,13.99 Z M32.314,12.94 C32.314,12.7999993 32.3629995,12.6833338 32.461,12.59 C32.5590005,12.4966662 32.6733327,12.45 32.804,12.45 L38.544,12.45 C38.6840007,12.45 38.8006662,12.4966662 38.894,12.59 C38.9873338,12.6833338 39.034,12.7999993 39.034,12.94 L39.034,13.262 C39.034,13.4020007 38.9873338,13.5186662 38.894,13.612 C38.8006662,13.7053338 38.6840007,13.752 38.544,13.752 L36.794,13.752 C36.6539993,13.752 36.5373338,13.7986662 36.444,13.892 C36.3506662,13.9853338 36.304,14.0973327 36.304,14.228 L36.304,16.37 C36.304,16.5100007 36.3506662,16.6289995 36.444,16.727 C36.5373338,16.8250005 36.6539993,16.874 36.794,16.874 L38.544,16.874 C38.6840007,16.874 38.8006662,16.9206662 38.894,17.014 C38.9873338,17.1073338 39.034,17.2239993 39.034,17.364 L39.034,17.686 C39.034,17.8166673 38.9873338,17.9286662 38.894,18.022 C38.8006662,18.1153338 38.6840007,18.162 38.544,18.162 L36.794,18.162 C36.6539993,18.162 36.5373338,18.2109995 36.444,18.309 C36.3506662,18.4070005 36.304,18.5213327 36.304,18.652 L36.304,21.06 C36.304,21.2000007 36.3506662,21.3166662 36.444,21.41 C36.5373338,21.5033338 36.6539993,21.55 36.794,21.55 L38.544,21.55 C38.6840007,21.55 38.8006662,21.5966662 38.894,21.69 C38.9873338,21.7833338 39.034,21.8999993 39.034,22.04 L39.034,22.362 C39.034,22.4926673 38.9873338,22.6069995 38.894,22.705 C38.8006662,22.8030005 38.6840007,22.852 38.544,22.852 L32.804,22.852 C32.6733327,22.852 32.5590005,22.8030005 32.461,22.705 C32.3629995,22.6069995 32.314,22.4926673 32.314,22.362 L32.314,22.04 C32.314,21.8999993 32.3629995,21.7833338 32.461,21.69 C32.5590005,21.5966662 32.6733327,21.55 32.804,21.55 L34.526,21.55 C34.6566673,21.55 34.7709995,21.5033338 34.869,21.41 C34.9670005,21.3166662 35.016,21.2000007 35.016,21.06 L35.016,18.652 C35.016,18.5213327 34.9670005,18.4070005 34.869,18.309 C34.7709995,18.2109995 34.6566673,18.162 34.526,18.162 L32.804,18.162 C32.6733327,18.162 32.5590005,18.1153338 32.461,18.022 C32.3629995,17.9286662 32.314,17.8166673 32.314,17.686 L32.314,17.364 C32.314,17.2239993 32.3629995,17.1073338 32.461,17.014 C32.5590005,16.9206662 32.6733327,16.874 32.804,16.874 L34.526,16.874 C34.6566673,16.874 34.7709995,16.8250005 34.869,16.727 C34.9670005,16.6289995 35.016,16.5100007 35.016,16.37 L35.016,14.228 C35.016,14.0973327 34.9670005,13.9853338 34.869,13.892 C34.7709995,13.7986662 34.6566673,13.752 34.526,13.752 L32.804,13.752 C32.6733327,13.752 32.5590005,13.7053338 32.461,13.612 C32.3629995,13.5186662 32.314,13.4020007 32.314,13.262 L32.314,12.94 Z M30.158,11.302 C30.0553328,11.2086662 30.004,11.094334 30.004,10.959 C30.004,10.823666 30.0553328,10.7093338 30.158,10.616 L30.368,10.406 C30.4613338,10.3033328 30.575666,10.252 30.711,10.252 C30.846334,10.252 30.9559996,10.3033328 31.04,10.406 L31.292,10.616 C31.3853338,10.7093338 31.432,10.823666 31.432,10.959 C31.432,11.094334 31.3853338,11.2086662 31.292,11.302 L31.04,11.54 C30.9559996,11.6426672 30.846334,11.694 30.711,11.694 C30.575666,11.694 30.4613338,11.6426672 30.368,11.54 L30.158,11.302 Z M37.732,10.196 C37.732,10.1399997 37.7809995,10.0933335 37.879,10.056 C37.9770005,10.0186665 38.0959993,10 38.236,10 L38.544,10 C38.6840007,10 38.8006662,10.030333 38.894,10.091 C38.9873338,10.151667 39.034,10.2286662 39.034,10.322 C39.034,10.4060004 39.0013337,10.5133327 38.936,10.644 C38.8706663,10.7746673 38.7866672,10.8866662 38.684,10.98 L38.348,11.344 C38.2453328,11.4280004 38.1146675,11.5049996 37.956,11.575 C37.7973325,11.6450004 37.6480007,11.68 37.508,11.68 L32.804,11.68 C32.6733327,11.68 32.5590005,11.6333338 32.461,11.54 C32.3629995,11.4466662 32.314,11.3300007 32.314,11.19 L32.314,10.868 C32.314,10.7279993 32.3629995,10.6113338 32.461,10.518 C32.5590005,10.4246662 32.6733327,10.378 32.804,10.378 L37.242,10.378 C37.3820007,10.378 37.4986662,10.3593335 37.592,10.322 C37.6853338,10.2846665 37.732,10.2426669 37.732,10.196 Z M42.898,15.012 L42.898,16.37 L41.652,16.37 L41.652,15.012 L42.898,15.012 Z M46.748,15.012 L46.748,16.37 L45.516,16.37 L45.516,15.012 L46.748,15.012 Z M50.598,15.012 L50.598,16.37 L49.366,16.37 L49.366,15.012 L50.598,15.012 Z"/>
</svg>
