<svg xmlns="http://www.w3.org/2000/svg" width="70" height="32" viewBox="0 0 70 32">
  <path fill="#363B40" fill-rule="evenodd" d="M33.496,18.872 L33.496,21.192 L27,21.192 L27,18.872 L30.408,15.272 C30.6320011,15.0479989 30.7893329,14.8373343 30.88,14.64 C30.9706671,14.4426657 31.016,14.2266678 31.016,13.992 C31.016,13.7466654 30.9466674,13.5600006 30.808,13.432 C30.6693326,13.3039994 30.466668,13.24 30.2,13.24 C29.858665,13.24 29.458669,13.2639998 29,13.312 C28.541331,13.3600002 28.0293362,13.4373328 27.464,13.544 L27.464,11.384 C27.8693354,11.2666661 28.3626638,11.1733337 28.944,11.104 C29.5253362,11.0346663 30.0986638,11 30.664,11 C31.5600045,11 32.2559975,11.2319977 32.752,11.696 C33.2480025,12.1600023 33.496,12.8026626 33.496,13.624 C33.496,14.1786694 33.4133342,14.6613313 33.248,15.072 C33.0826658,15.4826687 32.8026686,15.8906646 32.408,16.296 L29.944,18.872 L33.496,18.872 Z M42.104,16.76 L42.104,18.92 L41.016,18.92 L41.016,21.192 L38.536,21.192 L38.536,18.92 L34.392,18.92 L34.392,16.76 L35.528,11.16 L37.912,11.16 L36.904,16.76 L38.536,16.76 L38.536,12.92 L41.016,12.92 L41.016,16.76 L42.104,16.76 Z"/>
</svg>
