<svg xmlns="http://www.w3.org/2000/svg" width="70" height="32" viewBox="0 0 70 32">
  <g fill="none" fill-rule="evenodd">
    <g opacity=".3" transform="translate(19 10)">
      <rect width="12" height="12" fill="#4D63FF" rx="2"/>
      <path fill="#FFF" d="M8.93123651,4 L7.6952643,4 C7.611199,4 7.53142275,4.03494603 7.47995421,4.09474256 L4.5795708,7.59525597 L3.52004579,6.20548264 C3.46771944,6.14568611 3.388801,6.11074008 3.3047357,6.11074008 L2.06876349,6.11074008 C2.01129027,6.11074008 1.97955134,6.17053662 2.01472151,6.21091869 L4.36426071,8.90564572 C4.47406028,9.03145143 4.68508133,9.03145143 4.79573871,8.90564572 L8.98527849,4.09940203 C9.02044866,4.05979654 8.98870973,4 8.93123651,4 Z"/>
    </g>
    <rect width="5" height="8" x="34" y="12" fill="#A6AAB2" fill-rule="nonzero"/>
    <rect width="5" height="8" x="40" y="12" fill="#A6AAB2" fill-rule="nonzero"/>
    <rect width="5" height="8" x="46" y="12" fill="#A6AAB2" fill-rule="nonzero"/>
  </g>
</svg>
