<svg xmlns="http://www.w3.org/2000/svg" width="70" height="32" viewBox="0 0 70 32">
  <g fill="none" fill-rule="evenodd">
    <rect width="9" height="9" x="25" y="18" fill="#4D68FF" rx="2"/>
    <rect width="9" height="9" x="20" y="6" fill="#4D68FF" rx="2"/>
    <rect width="4" height="7" x="31" y="7" fill="#A6AAB2" fill-rule="nonzero"/>
    <rect width="4" height="7" x="36" y="19" fill="#A6AAB2" fill-rule="nonzero"/>
    <rect width="4" height="7" x="36" y="7" fill="#A6AAB2" fill-rule="nonzero"/>
    <rect width="4" height="7" x="41" y="19" fill="#A6AAB2" fill-rule="nonzero"/>
    <rect width="4" height="7" x="41" y="7" fill="#A6AAB2" fill-rule="nonzero"/>
    <rect width="4" height="7" x="46" y="19" fill="#A6AAB2" fill-rule="nonzero"/>
    <rect width="4" height="7" x="46" y="7" fill="#A6AAB2" fill-rule="nonzero"/>
    <rect width="4" height="7" x="51" y="19" fill="#A6AAB2" fill-rule="nonzero"/>
    <path fill="#FFF" d="M32.9312365 20L31.6952643 20C31.611199 20 31.5314228 20.034946 31.4799542 20.0947426L28.5795708 23.595256 27.5200458 22.2054826C27.4677194 22.1456861 27.388801 22.1107401 27.3047357 22.1107401L26.0687635 22.1107401C26.0112903 22.1107401 25.9795513 22.1705366 26.0147215 22.2109187L28.3642607 24.9056457C28.4740603 25.0314514 28.6850813 25.0314514 28.7957387 24.9056457L32.9852785 20.099402C33.0204487 20.0597965 32.9887097 20 32.9312365 20zM27.9312365 8L26.6952643 8C26.611199 8 26.5314228 8.03494603 26.4799542 8.09474256L23.5795708 11.595256 22.5200458 10.2054826C22.4677194 10.1456861 22.388801 10.1107401 22.3047357 10.1107401L21.0687635 10.1107401C21.0112903 10.1107401 20.9795513 10.1705366 21.0147215 10.2109187L23.3642607 12.9056457C23.4740603 13.0314514 23.6850813 13.0314514 23.7957387 12.9056457L27.9852785 8.09940203C28.0204487 8.05979654 27.9887097 8 27.9312365 8z"/>
    <g transform="translate(11 8)">
      <rect width="6" height="6" fill="#000" opacity="0"/>
      <path fill="#A6AAB2" d="M4.92421875,1.7578125 L1.07578125,1.7578125 C0.960351562,1.7578125 0.895898437,1.8796875 0.967382812,1.96289062 L2.89160156,4.19414062 C2.94667969,4.25800781 3.05273437,4.25800781 3.10839844,4.19414062 L5.03261719,1.96289062 C5.10410156,1.8796875 5.03964844,1.7578125 4.92421875,1.7578125 Z"/>
    </g>
  </g>
</svg>
