<svg xmlns="http://www.w3.org/2000/svg" width="70" height="32" viewBox="0 0 70 32">
  <g fill="none" fill-rule="evenodd">
    <rect width="16" height="11" x="27" y="4" fill="#4D68FF" fill-rule="nonzero" rx="2"/>
    <rect width="16" height="11" x="27" y="17" fill="#4D68FF" fill-rule="nonzero" opacity=".3" rx="2"/>
    <g transform="translate(33 7)">
      <rect width="5" height="5" fill="#000" opacity="0"/>
      <path fill="#FFF" stroke="#FFF" d="M3.73876953,2.37695313 L1.53759766,0.657714844 C1.51171875,0.637695312 1.47460938,0.655761719 1.47460938,0.688476562 L1.47460938,1.06591797 C1.47460938,1.08984375 1.48583984,1.11279297 1.50439453,1.12744141 L3.26220703,2.5 L1.50439453,3.87255859 C1.48535156,3.88720703 1.47460938,3.91015625 1.47460938,3.93408203 L1.47460938,4.31152344 C1.47460938,4.34423828 1.51220703,4.36230469 1.53759766,4.34228516 L3.73876953,2.62304687 C3.81884766,2.56054688 3.81884766,2.43945312 3.73876953,2.37695313 Z"/>
    </g>
    <g transform="matrix(-1 0 0 1 38 20)">
      <rect width="5" height="5" fill="#000" opacity="0"/>
      <path fill="#FFF" stroke="#FFF" d="M3.73876953,2.37695313 L1.53759766,0.657714844 C1.51171875,0.637695312 1.47460938,0.655761719 1.47460938,0.688476562 L1.47460938,1.06591797 C1.47460938,1.08984375 1.48583984,1.11279297 1.50439453,1.12744141 L3.26220703,2.5 L1.50439453,3.87255859 C1.48535156,3.88720703 1.47460938,3.91015625 1.47460938,3.93408203 L1.47460938,4.31152344 C1.47460938,4.34423828 1.51220703,4.36230469 1.53759766,4.34228516 L3.73876953,2.62304687 C3.81884766,2.56054688 3.81884766,2.43945312 3.73876953,2.37695313 Z"/>
    </g>
  </g>
</svg>
