<svg xmlns="http://www.w3.org/2000/svg" width="70" height="32" viewBox="0 0 70 32">
  <g fill="none" fill-rule="evenodd">
    <rect width="44" height="18" x="13" y="7" fill="#4D68FF" fill-rule="nonzero" opacity=".2" rx="9"/>
    <path fill="#50575D" d="M21.28,19.99 L21.28,14.9 C21.28,14.8066662 21.2666668,14.7250003 21.24,14.655 C21.2133332,14.5849997 21.1800002,14.55 21.14,14.55 C21.0999998,14.55 21.0666668,14.5150003 21.04,14.445 C21.0133332,14.3749996 21,14.2933338 21,14.2 L21,13.98 C21,13.8799995 21.0233331,13.7950003 21.07,13.725 C21.1166669,13.6549997 21.1699997,13.62 21.23,13.62 L21.87,13.62 C21.9633338,13.62 22.043333,13.6549997 22.11,13.725 C22.176667,13.7950003 22.21,13.8799995 22.21,13.98 L22.21,19.03 C22.21,19.1166671 22.2349998,19.2183327 22.285,19.335 C22.3350003,19.4516672 22.3899997,19.5399997 22.45,19.6 C22.5100003,19.6533336 22.5649998,19.6700001 22.615,19.65 C22.6650003,19.6299999 22.69,19.5733338 22.69,19.48 L22.69,19.34 C22.69,19.2399995 22.723333,19.1550003 22.79,19.085 C22.856667,19.0149997 22.9366662,18.98 23.03,18.98 L23.13,18.98 C23.2233338,18.98 23.3049997,18.946667 23.375,18.88 C23.4450004,18.813333 23.48,18.7300005 23.48,18.63 L23.48,17.06 C23.48,16.9599995 23.4450004,16.876667 23.375,16.81 C23.3049997,16.743333 23.2233338,16.71 23.13,16.71 L23.03,16.71 C22.9366662,16.71 22.856667,16.6750004 22.79,16.605 C22.723333,16.5349996 22.69,16.4566671 22.69,16.37 L22.69,16.13 C22.69,16.0299995 22.723333,15.946667 22.79,15.88 C22.856667,15.813333 22.9366662,15.78 23.03,15.78 L24.61,15.78 C24.7033338,15.78 24.7849996,15.7450003 24.855,15.675 C24.9250004,15.6049996 24.96,15.5200005 24.96,15.42 L24.96,14.58 C24.96,14.4799995 24.9250004,14.396667 24.855,14.33 C24.7849996,14.263333 24.7033338,14.23 24.61,14.23 L23.77,14.23 C23.6699995,14.23 23.5600006,14.2083335 23.44,14.165 C23.3199994,14.1216664 23.2233337,14.0633337 23.15,13.99 L22.95,13.82 C22.8766663,13.753333 22.8150003,13.6616673 22.765,13.545 C22.7149998,13.4283328 22.69,13.3233338 22.69,13.23 L22.69,12.54 C22.69,12.4399995 22.723333,12.3550004 22.79,12.285 C22.856667,12.2149996 22.9366662,12.18 23.03,12.18 L23.26,12.18 C23.3533338,12.18 23.4349997,12.2149996 23.505,12.285 C23.5750003,12.3550004 23.61,12.4399995 23.61,12.54 L23.61,12.95 C23.61,13.0433338 23.6449997,13.1266663 23.715,13.2 C23.7850004,13.2733337 23.8699995,13.31 23.97,13.31 L24.61,13.31 C24.7033338,13.31 24.7849996,13.2733337 24.855,13.2 C24.9250004,13.1266663 24.96,13.0433338 24.96,12.95 L24.96,12.35 C24.96,12.2499995 24.9949997,12.166667 25.065,12.1 C25.1350004,12.033333 25.2166662,12 25.31,12 L25.54,12 C25.6333338,12 25.7166663,12.033333 25.79,12.1 C25.8633337,12.166667 25.9,12.2499995 25.9,12.35 L25.9,12.95 C25.9,13.0433338 25.933333,13.1266663 26,13.2 C26.066667,13.2733337 26.1533328,13.31 26.26,13.31 L27.35,13.31 C27.4566672,13.31 27.543333,13.343333 27.61,13.41 C27.676667,13.476667 27.71,13.5566662 27.71,13.65 L27.71,13.88 C27.71,13.9733338 27.676667,14.0549996 27.61,14.125 C27.543333,14.1950004 27.4566672,14.23 27.35,14.23 L26.26,14.23 C26.1533328,14.23 26.066667,14.263333 26,14.33 C25.933333,14.396667 25.9,14.4799995 25.9,14.58 L25.9,15.42 C25.9,15.5200005 25.933333,15.6049996 26,15.675 C26.066667,15.7450003 26.1533328,15.78 26.26,15.78 L27.35,15.78 C27.4566672,15.78 27.543333,15.813333 27.61,15.88 C27.676667,15.946667 27.71,16.0299995 27.71,16.13 L27.71,16.37 C27.71,16.4566671 27.676667,16.5349996 27.61,16.605 C27.543333,16.6750004 27.4566672,16.71 27.35,16.71 L27.25,16.71 C27.1499995,16.71 27.066667,16.743333 27,16.81 C26.933333,16.876667 26.9,16.9599995 26.9,17.06 L26.9,18.63 C26.9,18.7300005 26.933333,18.813333 27,18.88 C27.066667,18.946667 27.1499995,18.98 27.25,18.98 L27.35,18.98 C27.4566672,18.98 27.543333,19.0149997 27.61,19.085 C27.676667,19.1550003 27.71,19.2399995 27.71,19.34 L27.71,19.56 C27.71,19.6600005 27.676667,19.7449997 27.61,19.815 C27.543333,19.8850004 27.4566672,19.92 27.35,19.92 L27.07,19.92 C26.9766662,19.92 26.8700006,19.8950002 26.75,19.845 C26.6299994,19.7949997 26.5333337,19.7333337 26.46,19.66 L26.21,19.41 C26.143333,19.343333 26.0866669,19.2533339 26.04,19.14 C25.9933331,19.0266661 25.97,18.9200005 25.97,18.82 L25.97,17.06 C25.97,16.9599995 25.9350004,16.876667 25.865,16.81 C25.7949997,16.743333 25.7133338,16.71 25.62,16.71 L24.76,16.71 C24.6666662,16.71 24.5833337,16.743333 24.51,16.81 C24.4366663,16.876667 24.4,16.9599995 24.4,17.06 L24.4,18.82 C24.4,18.9200005 24.3766669,19.0266661 24.33,19.14 C24.2833331,19.2533339 24.226667,19.343333 24.16,19.41 L23.91,19.66 C23.8366663,19.7333337 23.7433339,19.7949997 23.63,19.845 C23.5166661,19.8950002 23.4100005,19.92 23.31,19.92 L23.12,19.92 C23.0199995,19.92 22.9533335,19.9349999 22.92,19.965 C22.8866665,19.9950001 22.8933331,20.0366664 22.94,20.09 C22.9933336,20.1300002 23.0683329,20.1666665 23.165,20.2 C23.2616672,20.2333335 23.3599995,20.25 23.46,20.25 L27.35,20.25 C27.4566672,20.25 27.543333,20.283333 27.61,20.35 C27.676667,20.416667 27.71,20.4999995 27.71,20.6 L27.71,20.83 C27.71,20.9233338 27.676667,21.0049996 27.61,21.075 C27.543333,21.1450004 27.4566672,21.18 27.35,21.18 L23.18,21.18 C23.0866662,21.18 22.9800006,21.1566669 22.86,21.11 C22.7399994,21.0633331 22.6433337,21.006667 22.57,20.94 L22.39,20.77 C22.3166663,20.6966663 22.2300005,20.66 22.13,20.66 C22.0299995,20.66 21.9433337,20.6966663 21.87,20.77 L21.73,20.93 C21.6566663,21.0033337 21.5733338,21.0633331 21.48,21.11 C21.3866662,21.1566669 21.3033337,21.18 21.23,21.18 C21.1699997,21.18 21.1166669,21.1450004 21.07,21.075 C21.0233331,21.0049996 21,20.9233338 21,20.83 L21,20.6 C21,20.4999995 21.0133332,20.416667 21.04,20.35 C21.0666668,20.283333 21.0999998,20.25 21.14,20.25 C21.1800002,20.25 21.2133332,20.2233336 21.24,20.17 C21.2666668,20.1166664 21.28,20.056667 21.28,19.99 Z M21.24,12.87 C21.173333,12.7966663 21.14,12.7116672 21.14,12.615 C21.14,12.5183328 21.173333,12.4333337 21.24,12.36 L21.41,12.21 C21.476667,12.1366663 21.5599995,12.1 21.66,12.1 C21.7600005,12.1 21.8399997,12.1366663 21.9,12.21 L22.06,12.36 C22.1333337,12.4333337 22.17,12.5183328 22.17,12.615 C22.17,12.7116672 22.1333337,12.7966663 22.06,12.87 L21.9,13.02 C21.833333,13.0933337 21.7516672,13.13 21.655,13.13 C21.5583329,13.13 21.476667,13.0933337 21.41,13.02 L21.24,12.87 Z M34.02,12.92 C33.9266662,12.92 33.846667,12.9549996 33.78,13.025 C33.713333,13.0950003 33.68,13.1766662 33.68,13.27 L33.68,13.38 C33.68,13.4800005 33.713333,13.563333 33.78,13.63 C33.846667,13.696667 33.9266662,13.73 34.02,13.73 L34.98,13.73 C35.0733338,13.73 35.153333,13.763333 35.22,13.83 C35.286667,13.896667 35.32,13.9799995 35.32,14.08 L35.32,18.92 C35.32,19.0200005 35.286667,19.103333 35.22,19.17 C35.153333,19.236667 35.0733338,19.27 34.98,19.27 L34.75,19.27 C34.6499995,19.27 34.5650004,19.236667 34.495,19.17 C34.4249997,19.103333 34.39,19.0200005 34.39,18.92 L34.39,15.01 C34.39,14.9099995 34.356667,14.826667 34.29,14.76 C34.223333,14.693333 34.1400005,14.66 34.04,14.66 L32.39,14.66 C32.2966662,14.66 32.2150003,14.693333 32.145,14.76 C32.0749997,14.826667 32.04,14.9099995 32.04,15.01 L32.04,18.92 C32.04,19.0200005 32.006667,19.103333 31.94,19.17 C31.873333,19.236667 31.7933338,19.27 31.7,19.27 L31.47,19.27 C31.3699995,19.27 31.286667,19.236667 31.22,19.17 C31.153333,19.103333 31.12,19.0200005 31.12,18.92 L31.12,14.08 C31.12,13.9799995 31.153333,13.896667 31.22,13.83 C31.286667,13.763333 31.3699995,13.73 31.47,13.73 L32.4,13.73 C32.5000005,13.73 32.583333,13.696667 32.65,13.63 C32.716667,13.563333 32.75,13.4800005 32.75,13.38 L32.75,13.27 C32.75,13.1766662 32.716667,13.0950003 32.65,13.025 C32.583333,12.9549996 32.5000005,12.92 32.4,12.92 L31.47,12.92 C31.3699995,12.92 31.286667,12.886667 31.22,12.82 C31.153333,12.753333 31.12,12.6700005 31.12,12.57 L31.12,12.34 C31.12,12.2466662 31.153333,12.166667 31.22,12.1 C31.286667,12.033333 31.3699995,12 31.47,12 L34.98,12 C35.0733338,12 35.153333,12.033333 35.22,12.1 C35.286667,12.166667 35.32,12.2466662 35.32,12.34 L35.32,12.57 C35.32,12.6700005 35.286667,12.753333 35.22,12.82 C35.153333,12.886667 35.0733338,12.92 34.98,12.92 L34.02,12.92 Z M30.8,12.83 C30.7399997,12.896667 30.6633338,12.93 30.57,12.93 C30.4766662,12.93 30.3983337,12.963333 30.335,13.03 C30.2716664,13.096667 30.24,13.1799995 30.24,13.28 L30.24,19.9 C30.24,20.0000005 30.2716664,20.083333 30.335,20.15 C30.3983337,20.216667 30.4766662,20.25 30.57,20.25 C30.6633338,20.25 30.7416664,20.283333 30.805,20.35 C30.8683337,20.416667 30.9,20.4999995 30.9,20.6 L30.9,20.83 C30.9,20.9233338 30.8650004,21.0049996 30.795,21.075 C30.7249997,21.1450004 30.6433338,21.18 30.55,21.18 L28.99,21.18 C28.8966662,21.18 28.816667,21.1450004 28.75,21.075 C28.683333,21.0049996 28.65,20.9233338 28.65,20.83 L28.65,20.6 C28.65,20.4999995 28.6816664,20.416667 28.745,20.35 C28.8083337,20.283333 28.8866662,20.25 28.98,20.25 C29.0733338,20.25 29.153333,20.216667 29.22,20.15 C29.286667,20.083333 29.32,20.0000005 29.32,19.9 L29.32,13.28 C29.32,13.1799995 29.286667,13.096667 29.22,13.03 C29.153333,12.963333 29.0733338,12.93 28.98,12.93 C28.8866662,12.93 28.8083337,12.896667 28.745,12.83 C28.6816664,12.763333 28.65,12.6833338 28.65,12.59 L28.65,12.35 C28.65,12.2566662 28.683333,12.1750004 28.75,12.105 C28.816667,12.0349996 28.8966662,12 28.99,12 L30.55,12 C30.6433338,12 30.7249997,12.0349996 30.795,12.105 C30.8650004,12.1750004 30.9,12.2566662 30.9,12.35 L30.9,12.59 C30.9,12.6833338 30.866667,12.763333 30.8,12.83 Z M32.6,20.87 C32.5466664,20.9566671 32.4700005,21.0299997 32.37,21.09 C32.2699995,21.1500003 32.1733338,21.18 32.08,21.18 L31.47,21.18 C31.3699995,21.18 31.286667,21.1450004 31.22,21.075 C31.153333,21.0049996 31.12,20.9233338 31.12,20.83 L31.12,20.6 C31.12,20.4999995 31.153333,20.416667 31.22,20.35 C31.286667,20.283333 31.3699995,20.25 31.47,20.25 L31.56,20.25 C31.6533338,20.25 31.7516662,20.2200003 31.855,20.16 C31.9583338,20.0999997 32.0366664,20.0266671 32.09,19.94 L32.58,19.05 C32.6333336,18.9633329 32.6749999,18.8550007 32.705,18.725 C32.7350002,18.5949993 32.75,18.4833338 32.75,18.39 L32.75,15.68 C32.75,15.5799995 32.7849997,15.496667 32.855,15.43 C32.9250004,15.363333 33.0066662,15.33 33.1,15.33 L33.33,15.33 C33.4233338,15.33 33.5049997,15.363333 33.575,15.43 C33.6450004,15.496667 33.68,15.5799995 33.68,15.68 L33.68,18.38 C33.68,18.4733338 33.6949999,18.5833327 33.725,18.71 C33.7550002,18.8366673 33.7966664,18.9433329 33.85,19.03 L34.35,19.94 C34.4033336,20.0266671 34.4799995,20.0999997 34.58,20.16 C34.6800005,20.2200003 34.7766662,20.25 34.87,20.25 L34.98,20.25 C35.0733338,20.25 35.153333,20.283333 35.22,20.35 C35.286667,20.416667 35.32,20.4999995 35.32,20.6 L35.32,20.83 C35.32,20.9233338 35.286667,21.0049996 35.22,21.075 C35.153333,21.1450004 35.0733338,21.18 34.98,21.18 L34.36,21.18 C34.2666662,21.18 34.1666672,21.1500003 34.06,21.09 C33.9533328,21.0299997 33.8766669,20.9566671 33.83,20.87 L33.4,20.11 C33.3466664,20.0233329 33.286667,19.98 33.22,19.98 C33.153333,19.98 33.0933336,20.0233329 33.04,20.11 L32.6,20.87 Z M36.31,15.97 C36.31,15.8699995 36.343333,15.786667 36.41,15.72 C36.476667,15.653333 36.5599995,15.62 36.66,15.62 L42.6,15.62 C42.7000005,15.62 42.783333,15.653333 42.85,15.72 C42.916667,15.786667 42.95,15.8699995 42.95,15.97 L42.95,16.08 C42.95,16.1800005 42.916667,16.2649997 42.85,16.335 C42.783333,16.4050003 42.7000005,16.44 42.6,16.44 L36.66,16.44 C36.5599995,16.44 36.476667,16.4050003 36.41,16.335 C36.343333,16.2649997 36.31,16.1800005 36.31,16.08 L36.31,15.97 Z"/>
    <path fill="#747E90" fill-rule="nonzero" d="M3.99045877,3.00000059 L5.36493442,4.59118006 C5.67881192,4.95143932 5.415223,5.5 4.94941372,5.5 L4.44532034,5.5 C4.27049705,5.5 4.10302181,5.42448378 3.98922315,5.29185556 L2.99999231,4.14652182 L2.00649753,5.29674557 C1.89208113,5.42578825 1.72749885,5.5 1.55467966,5.5 L1.05058628,5.5 C0.584776997,5.5 0.321188076,4.95143932 0.633674282,4.59278381 L2.00954123,2.99999941 L0.635065578,1.40881994 C0.321188076,1.04856068 0.584776997,0.5 1.05058628,0.5 L1.55467966,0.5 C1.72950295,0.5 1.89697819,0.575516217 2.01077685,0.708144444 L3.00000769,1.85347818 L3.99350247,0.703254431 C4.10791887,0.574211754 4.27250115,0.5 4.44532034,0.5 L4.94941372,0.5 C5.415223,0.5 5.67881192,1.04856068 5.36632572,1.40721619 L3.99045877,3.00000059 Z" transform="translate(46 13)"/>
  </g>
</svg>
