<svg xmlns="http://www.w3.org/2000/svg" width="70" height="32" viewBox="0 0 70 32">
  <g fill="none" fill-rule="evenodd" transform="translate(15 7)">
    <rect width="40" height="18" fill="#F22735" rx="2"/>
    <path fill="#FFF" d="M11.84,13.26 C11.84,13.1599995 11.873333,13.076667 11.94,13.01 C12.006667,12.943333 12.0866662,12.91 12.18,12.91 L13.85,12.91 C13.9433338,12.91 14.0266663,12.876667 14.1,12.81 C14.1733337,12.743333 14.21,12.6600005 14.21,12.56 L14.21,5 C14.21,4.9066662 14.243333,4.826667 14.31,4.76 C14.376667,4.693333 14.4566662,4.66 14.55,4.66 L14.78,4.66 C14.8733338,4.66 14.9549997,4.693333 15.025,4.76 C15.0950004,4.826667 15.13,4.9066662 15.13,5 L15.13,6.6 C15.13,6.7000005 15.1649997,6.783333 15.235,6.85 C15.3050004,6.916667 15.3866662,6.95 15.48,6.95 L17.76,6.95 C17.8533338,6.95 17.933333,6.983333 18,7.05 C18.066667,7.116667 18.1,7.1999995 18.1,7.3 L18.1,7.52 C18.1,7.6200005 18.066667,7.70499965 18,7.775 C17.933333,7.84500035 17.8533338,7.88 17.76,7.88 L15.48,7.88 C15.3866662,7.88 15.3050004,7.913333 15.235,7.98 C15.1649997,8.046667 15.13,8.1299995 15.13,8.23 L15.13,12.56 C15.13,12.6600005 15.1649997,12.743333 15.235,12.81 C15.3050004,12.876667 15.3866662,12.91 15.48,12.91 L18.12,12.91 C18.2133338,12.91 18.2949997,12.943333 18.365,13.01 C18.4350004,13.076667 18.47,13.1599995 18.47,13.26 L18.47,13.49 C18.47,13.5833338 18.4350004,13.6649996 18.365,13.735 C18.2949997,13.8050004 18.2133338,13.84 18.12,13.84 L12.18,13.84 C12.0866662,13.84 12.006667,13.8050004 11.94,13.735 C11.873333,13.6649996 11.84,13.5833338 11.84,13.49 L11.84,13.26 Z M20.27,13.84 C20.1766662,13.84 20.096667,13.8050004 20.03,13.735 C19.963333,13.6649996 19.93,13.5833338 19.93,13.49 L19.93,8.06 C19.93,7.9666662 19.9083336,7.886667 19.865,7.82 C19.8216665,7.753333 19.7700003,7.72 19.71,7.72 C19.6499997,7.72 19.5983336,7.68500035 19.555,7.615 C19.5116665,7.54499965 19.49,7.4633338 19.49,7.37 L19.49,7.15 C19.49,7.0499995 19.523333,6.966667 19.59,6.9 C19.656667,6.833333 19.7366662,6.8 19.83,6.8 L20.1,6.8 C20.1933338,6.8 20.273333,6.76500035 20.34,6.695 C20.406667,6.62499965 20.44,6.5433338 20.44,6.45 L20.44,5 C20.44,4.9066662 20.4766663,4.826667 20.55,4.76 C20.6233337,4.693333 20.7066662,4.66 20.8,4.66 L21.02,4.66 C21.1133338,4.66 21.193333,4.693333 21.26,4.76 C21.326667,4.826667 21.36,4.9066662 21.36,5 L21.36,7.37 C21.36,7.4633338 21.3366669,7.54499965 21.29,7.615 C21.2433331,7.68500035 21.1833337,7.72 21.11,7.72 C21.0366663,7.72 20.9733336,7.753333 20.92,7.82 C20.8666664,7.886667 20.84,7.9666662 20.84,8.06 L20.84,13.49 C20.84,13.5833338 20.8083337,13.6649996 20.745,13.735 C20.6816664,13.8050004 20.6033338,13.84 20.51,13.84 L20.27,13.84 Z M23.95,4.75 C24.016667,4.8100003 24.05,4.8866662 24.05,4.98 C24.05,5.0733338 24.0849997,5.15166635 24.155,5.215 C24.2250004,5.27833365 24.3066662,5.31 24.4,5.31 L25.75,5.31 C25.8433338,5.31 25.9249997,5.343333 25.995,5.41 C26.0650004,5.476667 26.1,5.5599995 26.1,5.66 L26.1,5.88 C26.1,5.9800005 26.0650004,6.063333 25.995,6.13 C25.9249997,6.196667 25.8433338,6.23 25.75,6.23 L24.4,6.23 C24.3066662,6.23 24.2250004,6.263333 24.155,6.33 C24.0849997,6.396667 24.05,6.4799995 24.05,6.58 L24.05,7.57 C24.05,7.6633338 24.0849997,7.74499965 24.155,7.815 C24.2250004,7.88500035 24.3066662,7.92 24.4,7.92 L25.75,7.92 C25.8433338,7.92 25.9249997,7.95499965 25.995,8.025 C26.0650004,8.09500035 26.1,8.1766662 26.1,8.27 L26.1,8.49 C26.1,8.5833338 26.0650004,8.66499965 25.995,8.735 C25.9249997,8.80500035 25.8433338,8.84 25.75,8.84 L24.4,8.84 C24.3066662,8.84 24.2250004,8.87499965 24.155,8.945 C24.0849997,9.01500035 24.05,9.0966662 24.05,9.19 L24.05,9.94 C24.05,10.0333338 24.0849997,10.1166663 24.155,10.19 C24.2250004,10.2633337 24.3066662,10.3 24.4,10.3 L25.75,10.3 C25.8433338,10.3 25.9249997,10.333333 25.995,10.4 C26.0650004,10.466667 26.1,10.5466662 26.1,10.64 L26.1,13.49 C26.1,13.5833338 26.0650004,13.6649996 25.995,13.735 C25.9249997,13.8050004 25.8433338,13.84 25.75,13.84 L22.48,13.84 C22.3799995,13.84 22.296667,13.8050004 22.23,13.735 C22.163333,13.6649996 22.13,13.5833338 22.13,13.49 L22.13,13.27 C22.13,13.1699995 22.163333,13.086667 22.23,13.02 C22.296667,12.953333 22.3799995,12.92 22.48,12.92 L24.83,12.92 C24.9300005,12.92 25.013333,12.886667 25.08,12.82 C25.146667,12.753333 25.18,12.6700005 25.18,12.57 L25.18,11.56 C25.18,11.4666662 25.146667,11.386667 25.08,11.32 C25.013333,11.253333 24.9300005,11.22 24.83,11.22 L23.48,11.22 C23.3866662,11.22 23.3050004,11.1833337 23.235,11.11 C23.1649997,11.0366663 23.13,10.9533338 23.13,10.86 L23.13,9.19 C23.13,9.0966662 23.096667,9.01500035 23.03,8.945 C22.963333,8.87499965 22.8800005,8.84 22.78,8.84 L22.11,8.84 C22.0166662,8.84 21.9350004,8.80500035 21.865,8.735 C21.7949997,8.66499965 21.76,8.5833338 21.76,8.49 L21.76,8.27 C21.76,8.1766662 21.7949997,8.09500035 21.865,8.025 C21.9350004,7.95499965 22.0166662,7.92 22.11,7.92 L22.78,7.92 C22.8800005,7.92 22.963333,7.88500035 23.03,7.815 C23.096667,7.74499965 23.13,7.6633338 23.13,7.57 L23.13,6.58 C23.13,6.4799995 23.096667,6.396667 23.03,6.33 C22.963333,6.263333 22.8800005,6.23 22.78,6.23 L22.11,6.23 C22.0166662,6.23 21.9350004,6.196667 21.865,6.13 C21.7949997,6.063333 21.76,5.9800005 21.76,5.88 L21.76,5.66 C21.76,5.5599995 21.7949997,5.476667 21.865,5.41 C21.9350004,5.343333 22.0166662,5.31 22.11,5.31 L22.78,5.31 C22.8800005,5.31 22.963333,5.27833365 23.03,5.215 C23.096667,5.15166635 23.13,5.0733338 23.13,4.98 C23.13,4.8866662 23.1649997,4.8100003 23.235,4.75 C23.3050004,4.6899997 23.3866662,4.66 23.48,4.66 L23.7,4.66 C23.8000005,4.66 23.883333,4.6899997 23.95,4.75 Z"/>
  </g>
</svg>
