<svg xmlns="http://www.w3.org/2000/svg" width="70" height="32" viewBox="0 0 70 32">
  <g fill="none" fill-rule="evenodd">
    <g fill="#4D68FF" fill-rule="nonzero" transform="translate(22 4)">
      <g transform="translate(1)">
        <path d="M-1.13686838e-13,1 L-1.13686838e-13,0 L1,0 L1,1 L-1.13686838e-13,1 Z M2,1 L2,0 L3,0 L3,1 L2,1 Z M4,1 L4,0 L5,0 L5,1 L4,1 Z M6,1 L6,0 L7,0 L7,1 L6,1 Z M8,1 L8,0 L9,0 L9,1 L8,1 Z M10,1 L10,0 L11,0 L11,1 L10,1 Z M12,1 L12,0 L13,0 L13,1 L12,1 Z" transform="rotate(-180 6.5 .5)"/>
        <path d="M14,1 L14,0 L15,0 L15,1 L14,1 Z M16,1 L16,0 L17,0 L17,1 L16,1 Z M18,1 L18,0 L19,0 L19,1 L18,1 Z M20,1 L20,0 L21,0 L21,1 L20,1 Z M22,1 L22,0 L23,0 L23,1 L22,1 Z" transform="rotate(-180 18.5 .5)"/>
      </g>
      <g transform="translate(1 23)">
        <path d="M-1.13686838e-13,1 L-1.13686838e-13,0 L1,0 L1,1 L-1.13686838e-13,1 Z M2,1 L2,0 L3,0 L3,1 L2,1 Z M4,1 L4,0 L5,0 L5,1 L4,1 Z M6,1 L6,0 L7,0 L7,1 L6,1 Z M8,1 L8,0 L9,0 L9,1 L8,1 Z M10,1 L10,0 L11,0 L11,1 L10,1 Z M12,1 L12,0 L13,0 L13,1 L12,1 Z" transform="rotate(-180 6.5 .5)"/>
        <path d="M14,1 L14,0 L15,0 L15,1 L14,1 Z M16,1 L16,0 L17,0 L17,1 L16,1 Z M18,1 L18,0 L19,0 L19,1 L18,1 Z M20,1 L20,0 L21,0 L21,1 L20,1 Z M22,1 L22,0 L23,0 L23,1 L22,1 Z" transform="rotate(-180 18.5 .5)"/>
      </g>
      <g transform="rotate(90 12.5 13.5)">
        <path d="M-1.13686838e-13,1 L-1.13686838e-13,0 L1,0 L1,1 L-1.13686838e-13,1 Z M2,1 L2,0 L3,0 L3,1 L2,1 Z M4,1 L4,0 L5,0 L5,1 L4,1 Z M6,1 L6,0 L7,0 L7,1 L6,1 Z M8,1 L8,0 L9,0 L9,1 L8,1 Z M10,1 L10,0 L11,0 L11,1 L10,1 Z M12,1 L12,0 L13,0 L13,1 L12,1 Z" transform="rotate(-180 6.5 .5)"/>
        <path d="M14,1 L14,0 L15,0 L15,1 L14,1 Z M16,1 L16,0 L17,0 L17,1 L16,1 Z M18,1 L18,0 L19,0 L19,1 L18,1 Z M20,1 L20,0 L21,0 L21,1 L20,1 Z" transform="rotate(-180 17.5 .5)"/>
      </g>
      <g transform="rotate(90 -.5 1.5)">
        <path d="M-2.5243549e-29,1 L-2.5243549e-29,0 L1,0 L1,1 L-2.5243549e-29,1 Z M2,1 L2,0 L3,0 L3,1 L2,1 Z M4,1 L4,0 L5,0 L5,1 L4,1 Z M6,1 L6,0 L7,0 L7,1 L6,1 Z M8,1 L8,0 L9,0 L9,1 L8,1 Z M10,1 L10,0 L11,0 L11,1 L10,1 Z" transform="rotate(-180 5.5 .5)"/>
        <path d="M12,1 L12,0 L13,0 L13,1 L12,1 Z M14,1 L14,0 L15,0 L15,1 L14,1 Z M16,1 L16,0 L17,0 L17,1 L16,1 Z M18,1 L18,0 L19,0 L19,1 L18,1 Z M20,1 L20,0 L21,0 L21,1 L20,1 Z" transform="rotate(-180 16.5 .5)"/>
      </g>
    </g>
    <g transform="translate(29 10)">
      <rect width="12" height="12" fill="#000" opacity="0"/>
      <path fill="#4D68FF" stroke="#4D68FF" d="M10.6535156,2.45273438 L9.99257812,2.96953125 C9.09140625,1.81757812 7.68984375,1.078125 6.11601562,1.078125 C3.3984375,1.078125 1.19882813,3.27539062 1.1953125,5.99414062 C1.19179688,8.71523438 3.39609375,10.921875 6.11601562,10.921875 C8.240625,10.921875 10.0511719,9.57421875 10.7402344,7.68632813 C10.7578125,7.63710937 10.7320312,7.58203125 10.6828125,7.565625 L10.0183594,7.33710938 C9.9703125,7.32070313 9.91757812,7.3453125 9.9,7.39335938 C9.87890625,7.45195312 9.85546875,7.51054687 9.83085937,7.56796875 C9.628125,8.0484375 9.3375,8.4796875 8.9671875,8.85 C8.596875,9.2203125 8.165625,9.5109375 7.68632812,9.71484375 C7.190625,9.92460937 6.66210938,10.03125 6.11835937,10.03125 C5.5734375,10.03125 5.04609375,9.92460937 4.55039062,9.71484375 C4.07109375,9.51210937 3.63984375,9.22148437 3.26953125,8.85 C2.89921875,8.4796875 2.60859375,8.0484375 2.40585937,7.56796875 C2.19609375,7.07109375 2.08945312,6.54375 2.08945312,5.99882813 C2.08945312,5.45390625 2.19609375,4.9265625 2.40585937,4.4296875 C2.60859375,3.94921875 2.89921875,3.51796875 3.26953125,3.14765625 C3.63984375,2.77734375 4.07109375,2.48671875 4.55039062,2.2828125 C5.04609375,2.07304688 5.57460937,1.96640625 6.11835937,1.96640625 C6.66328125,1.96640625 7.190625,2.07304688 7.68632812,2.2828125 C8.165625,2.48554688 8.596875,2.77617188 8.9671875,3.14765625 C9.08320312,3.26367188 9.1921875,3.38671875 9.29296875,3.515625 L8.5875,4.06640625 C8.52539062,4.11445313 8.54648437,4.21289062 8.62265625,4.23164063 L10.6804687,4.73554688 C10.7390625,4.74960938 10.7964844,4.70507812 10.7964844,4.6453125 L10.8058594,2.52539062 C10.8046875,2.44804688 10.7144531,2.4046875 10.6535156,2.45273438 Z"/>
    </g>
  </g>
</svg>
