<svg xmlns="http://www.w3.org/2000/svg" width="70" height="32" viewBox="0 0 70 32">
  <g fill="none" fill-rule="evenodd" transform="translate(13 8)">
    <path fill="#A6AAB2" fill-rule="nonzero" d="M0 1L0 0 1 0 1 1 0 1zM2 1L2 0 3 0 3 1 2 1zM4 1L4 0 5 0 5 1 4 1zM6 1L6 0 7 0 7 1 6 1zM8 1L8 0 9 0 9 1 8 1zM10 1L10 0 11 0 11 1 10 1zM12 1L12 0 13 0 13 1 12 1zM14 1L14 0 15 0 15 1 14 1zM16 1L16 0 17 0 17 1 16 1zM18 1L18 0 19 0 19 1 18 1zM20 1L20 0 21 0 21 1 20 1zM22 1L22 0 23 0 23 1 22 1zM24 1L24 0 25 0 25 1 24 1zM26 1L26 0 27 0 27 1 26 1zM28 1L28 0 29 0 29 1 28 1zM30 1L30 0 31 0 31 1 30 1zM32 1L32 0 33 0 33 1 32 1zM34 1L34 0 35 0 35 1 34 1zM36 1L36 0 37 0 37 1 36 1zM38 1L38 0 39 0 39 1 38 1zM40 1L40 0 41 0 41 1 40 1zM42 1L42 0 43 0 43 1 42 1zM44 1L44 0 45 0 45 1 44 1zM0 16L0 15 1 15 1 16 0 16zM2 16L2 15 3 15 3 16 2 16zM4 16L4 15 5 15 5 16 4 16zM6 16L6 15 7 15 7 16 6 16zM8 16L8 15 9 15 9 16 8 16zM10 16L10 15 11 15 11 16 10 16zM12 16L12 15 13 15 13 16 12 16zM14 16L14 15 15 15 15 16 14 16zM16 16L16 15 17 15 17 16 16 16zM18 16L18 15 19 15 19 16 18 16zM20 16L20 15 21 15 21 16 20 16zM22 16L22 15 23 15 23 16 22 16zM24 16L24 15 25 15 25 16 24 16zM26 16L26 15 27 15 27 16 26 16zM28 16L28 15 29 15 29 16 28 16zM30 16L30 15 31 15 31 16 30 16zM32 16L32 15 33 15 33 16 32 16zM34 16L34 15 35 15 35 16 34 16zM36 16L36 15 37 15 37 16 36 16zM38 16L38 15 39 15 39 16 38 16zM40 16L40 15 41 15 41 16 40 16zM42 16L42 15 43 15 43 16 42 16zM44 16L44 15 45 15 45 16 44 16z"/>
    <g transform="translate(1 2)">
      <rect width="12" height="12" fill="#000" opacity="0"/>
      <path fill="#747E90" fill-rule="nonzero" stroke="#747E90" stroke-width=".5" d="M10.3125,3.496875 L6.10546875,3.496875 L4.73085937,2.18203125 C4.71328125,2.165625 4.68984375,2.15625 4.66640625,2.15625 L1.6875,2.15625 C1.48007812,2.15625 1.3125,2.32382813 1.3125,2.53125 L1.3125,9.46875 C1.3125,9.67617188 1.48007812,9.84375 1.6875,9.84375 L10.3125,9.84375 C10.5199219,9.84375 10.6875,9.67617188 10.6875,9.46875 L10.6875,3.871875 C10.6875,3.66445312 10.5199219,3.496875 10.3125,3.496875 Z M9.84375,9 L2.15625,9 L2.15625,3 L4.36523438,3 L5.76679688,4.340625 L9.84375,4.340625 L9.84375,9 Z"/>
    </g>
    <rect width="5" height="8" x="16" y="4" fill="#747E90" fill-rule="nonzero"/>
    <rect width="5" height="8" x="22" y="4" fill="#747E90" fill-rule="nonzero"/>
    <rect width="5" height="8" x="28" y="4" fill="#747E90" fill-rule="nonzero"/>
  </g>
</svg>
