<svg xmlns="http://www.w3.org/2000/svg" width="70" height="32" viewBox="0 0 70 32">
  <g fill="none" fill-rule="evenodd">
    <rect width="40" height="18" x="15" y="7" fill="#4D63FF" rx="2"/>
    <path fill="#FFF" d="M26.84,20.26 C26.84,20.1599995 26.873333,20.076667 26.94,20.01 C27.006667,19.943333 27.0866662,19.91 27.18,19.91 L28.85,19.91 C28.9433338,19.91 29.0266663,19.876667 29.1,19.81 C29.1733337,19.743333 29.21,19.6600005 29.21,19.56 L29.21,12 C29.21,11.9066662 29.243333,11.826667 29.31,11.76 C29.376667,11.693333 29.4566662,11.66 29.55,11.66 L29.78,11.66 C29.8733338,11.66 29.9549997,11.693333 30.025,11.76 C30.0950003,11.826667 30.13,11.9066662 30.13,12 L30.13,13.6 C30.13,13.7000005 30.1649996,13.783333 30.235,13.85 C30.3050004,13.916667 30.3866662,13.95 30.48,13.95 L32.76,13.95 C32.8533338,13.95 32.933333,13.983333 33,14.05 C33.066667,14.116667 33.1,14.1999995 33.1,14.3 L33.1,14.52 C33.1,14.6200005 33.066667,14.7049996 33,14.775 C32.933333,14.8450003 32.8533338,14.88 32.76,14.88 L30.48,14.88 C30.3866662,14.88 30.3050004,14.913333 30.235,14.98 C30.1649996,15.046667 30.13,15.1299995 30.13,15.23 L30.13,19.56 C30.13,19.6600005 30.1649996,19.743333 30.235,19.81 C30.3050004,19.876667 30.3866662,19.91 30.48,19.91 L33.12,19.91 C33.2133338,19.91 33.2949997,19.943333 33.365,20.01 C33.4350004,20.076667 33.47,20.1599995 33.47,20.26 L33.47,20.49 C33.47,20.5833338 33.4350004,20.6649996 33.365,20.735 C33.2949997,20.8050004 33.2133338,20.84 33.12,20.84 L27.18,20.84 C27.0866662,20.84 27.006667,20.8050004 26.94,20.735 C26.873333,20.6649996 26.84,20.5833338 26.84,20.49 L26.84,20.26 Z M35.27,20.84 C35.1766662,20.84 35.096667,20.8050004 35.03,20.735 C34.963333,20.6649996 34.93,20.5833338 34.93,20.49 L34.93,15.06 C34.93,14.9666662 34.9083336,14.886667 34.865,14.82 C34.8216665,14.753333 34.7700003,14.72 34.71,14.72 C34.6499997,14.72 34.5983335,14.6850003 34.555,14.615 C34.5116664,14.5449997 34.49,14.4633338 34.49,14.37 L34.49,14.15 C34.49,14.0499995 34.523333,13.966667 34.59,13.9 C34.656667,13.833333 34.7366662,13.8 34.83,13.8 L35.1,13.8 C35.1933338,13.8 35.273333,13.7650004 35.34,13.695 C35.406667,13.6249996 35.44,13.5433338 35.44,13.45 L35.44,12 C35.44,11.9066662 35.4766663,11.826667 35.55,11.76 C35.6233337,11.693333 35.7066662,11.66 35.8,11.66 L36.02,11.66 C36.1133338,11.66 36.193333,11.693333 36.26,11.76 C36.326667,11.826667 36.36,11.9066662 36.36,12 L36.36,14.37 C36.36,14.4633338 36.3366669,14.5449997 36.29,14.615 C36.2433331,14.6850003 36.1833337,14.72 36.11,14.72 C36.0366663,14.72 35.9733336,14.753333 35.92,14.82 C35.8666664,14.886667 35.84,14.9666662 35.84,15.06 L35.84,20.49 C35.84,20.5833338 35.8083337,20.6649996 35.745,20.735 C35.6816664,20.8050004 35.6033338,20.84 35.51,20.84 L35.27,20.84 Z M38.95,11.75 C39.016667,11.8100003 39.05,11.8866662 39.05,11.98 C39.05,12.0733338 39.0849997,12.1516664 39.155,12.215 C39.2250004,12.2783336 39.3066662,12.31 39.4,12.31 L40.75,12.31 C40.8433338,12.31 40.9249997,12.343333 40.995,12.41 C41.0650004,12.476667 41.1,12.5599995 41.1,12.66 L41.1,12.88 C41.1,12.9800005 41.0650004,13.063333 40.995,13.13 C40.9249997,13.196667 40.8433338,13.23 40.75,13.23 L39.4,13.23 C39.3066662,13.23 39.2250004,13.263333 39.155,13.33 C39.0849997,13.396667 39.05,13.4799995 39.05,13.58 L39.05,14.57 C39.05,14.6633338 39.0849997,14.7449997 39.155,14.815 C39.2250004,14.8850003 39.3066662,14.92 39.4,14.92 L40.75,14.92 C40.8433338,14.92 40.9249997,14.9549996 40.995,15.025 C41.0650004,15.0950003 41.1,15.1766662 41.1,15.27 L41.1,15.49 C41.1,15.5833338 41.0650004,15.6649996 40.995,15.735 C40.9249997,15.8050004 40.8433338,15.84 40.75,15.84 L39.4,15.84 C39.3066662,15.84 39.2250004,15.8749996 39.155,15.945 C39.0849997,16.0150004 39.05,16.0966662 39.05,16.19 L39.05,16.94 C39.05,17.0333338 39.0849997,17.1166663 39.155,17.19 C39.2250004,17.2633337 39.3066662,17.3 39.4,17.3 L40.75,17.3 C40.8433338,17.3 40.9249997,17.333333 40.995,17.4 C41.0650004,17.466667 41.1,17.5466662 41.1,17.64 L41.1,20.49 C41.1,20.5833338 41.0650004,20.6649996 40.995,20.735 C40.9249997,20.8050004 40.8433338,20.84 40.75,20.84 L37.48,20.84 C37.3799995,20.84 37.296667,20.8050004 37.23,20.735 C37.163333,20.6649996 37.13,20.5833338 37.13,20.49 L37.13,20.27 C37.13,20.1699995 37.163333,20.086667 37.23,20.02 C37.296667,19.953333 37.3799995,19.92 37.48,19.92 L39.83,19.92 C39.9300005,19.92 40.013333,19.886667 40.08,19.82 C40.146667,19.753333 40.18,19.6700005 40.18,19.57 L40.18,18.56 C40.18,18.4666662 40.146667,18.386667 40.08,18.32 C40.013333,18.253333 39.9300005,18.22 39.83,18.22 L38.48,18.22 C38.3866662,18.22 38.3050004,18.1833337 38.235,18.11 C38.1649996,18.0366663 38.13,17.9533338 38.13,17.86 L38.13,16.19 C38.13,16.0966662 38.096667,16.0150004 38.03,15.945 C37.963333,15.8749996 37.8800005,15.84 37.78,15.84 L37.11,15.84 C37.0166662,15.84 36.9350004,15.8050004 36.865,15.735 C36.7949997,15.6649996 36.76,15.5833338 36.76,15.49 L36.76,15.27 C36.76,15.1766662 36.7949997,15.0950003 36.865,15.025 C36.9350004,14.9549996 37.0166662,14.92 37.11,14.92 L37.78,14.92 C37.8800005,14.92 37.963333,14.8850003 38.03,14.815 C38.096667,14.7449997 38.13,14.6633338 38.13,14.57 L38.13,13.58 C38.13,13.4799995 38.096667,13.396667 38.03,13.33 C37.963333,13.263333 37.8800005,13.23 37.78,13.23 L37.11,13.23 C37.0166662,13.23 36.9350004,13.196667 36.865,13.13 C36.7949997,13.063333 36.76,12.9800005 36.76,12.88 L36.76,12.66 C36.76,12.5599995 36.7949997,12.476667 36.865,12.41 C36.9350004,12.343333 37.0166662,12.31 37.11,12.31 L37.78,12.31 C37.8800005,12.31 37.963333,12.2783336 38.03,12.215 C38.096667,12.1516664 38.13,12.0733338 38.13,11.98 C38.13,11.8866662 38.1649996,11.8100003 38.235,11.75 C38.3050004,11.6899997 38.3866662,11.66 38.48,11.66 L38.7,11.66 C38.8000005,11.66 38.883333,11.6899997 38.95,11.75 Z"/>
  </g>
</svg>
