<svg xmlns="http://www.w3.org/2000/svg" width="70" height="32" viewBox="0 0 70 32">
  <g fill="none" fill-rule="evenodd">
    <g fill="#A6AAB2" fill-rule="nonzero" transform="translate(23 4)">
      <path d="M-1.13686838e-13,1 L-1.13686838e-13,0 L1,0 L1,1 L-1.13686838e-13,1 Z M2,1 L2,0 L3,0 L3,1 L2,1 Z M4,1 L4,0 L5,0 L5,1 L4,1 Z M6,1 L6,0 L7,0 L7,1 L6,1 Z M8,1 L8,0 L9,0 L9,1 L8,1 Z M10,1 L10,0 L11,0 L11,1 L10,1 Z M12,1 L12,0 L13,0 L13,1 L12,1 Z" transform="rotate(-180 6.5 .5)"/>
      <path d="M14,1 L14,0 L15,0 L15,1 L14,1 Z M16,1 L16,0 L17,0 L17,1 L16,1 Z M18,1 L18,0 L19,0 L19,1 L18,1 Z M20,1 L20,0 L21,0 L21,1 L20,1 Z M22,1 L22,0 L23,0 L23,1 L22,1 Z" transform="rotate(-180 18.5 .5)"/>
    </g>
    <g fill="#A6AAB2" fill-rule="nonzero" transform="translate(23 27)">
      <path d="M-1.13686838e-13,1 L-1.13686838e-13,0 L1,0 L1,1 L-1.13686838e-13,1 Z M2,1 L2,0 L3,0 L3,1 L2,1 Z M4,1 L4,0 L5,0 L5,1 L4,1 Z M6,1 L6,0 L7,0 L7,1 L6,1 Z M8,1 L8,0 L9,0 L9,1 L8,1 Z M10,1 L10,0 L11,0 L11,1 L10,1 Z M12,1 L12,0 L13,0 L13,1 L12,1 Z" transform="rotate(-180 6.5 .5)"/>
      <path d="M14,1 L14,0 L15,0 L15,1 L14,1 Z M16,1 L16,0 L17,0 L17,1 L16,1 Z M18,1 L18,0 L19,0 L19,1 L18,1 Z M20,1 L20,0 L21,0 L21,1 L20,1 Z M22,1 L22,0 L23,0 L23,1 L22,1 Z" transform="rotate(-180 18.5 .5)"/>
    </g>
    <g fill="#A6AAB2" fill-rule="nonzero" transform="rotate(90 21.5 26.5)">
      <path d="M-1.13686838e-13,1 L-1.13686838e-13,0 L1,0 L1,1 L-1.13686838e-13,1 Z M2,1 L2,0 L3,0 L3,1 L2,1 Z M4,1 L4,0 L5,0 L5,1 L4,1 Z M6,1 L6,0 L7,0 L7,1 L6,1 Z M8,1 L8,0 L9,0 L9,1 L8,1 Z M10,1 L10,0 L11,0 L11,1 L10,1 Z M12,1 L12,0 L13,0 L13,1 L12,1 Z" transform="rotate(-180 6.5 .5)"/>
      <path d="M14,1 L14,0 L15,0 L15,1 L14,1 Z M16,1 L16,0 L17,0 L17,1 L16,1 Z M18,1 L18,0 L19,0 L19,1 L18,1 Z M20,1 L20,0 L21,0 L21,1 L20,1 Z" transform="rotate(-180 17.5 .5)"/>
    </g>
    <g fill="#A6AAB2" fill-rule="nonzero" transform="rotate(90 8.5 14.5)">
      <path d="M-2.5243549e-29,1 L-2.5243549e-29,0 L1,0 L1,1 L-2.5243549e-29,1 Z M2,1 L2,0 L3,0 L3,1 L2,1 Z M4,1 L4,0 L5,0 L5,1 L4,1 Z M6,1 L6,0 L7,0 L7,1 L6,1 Z M8,1 L8,0 L9,0 L9,1 L8,1 Z M10,1 L10,0 L11,0 L11,1 L10,1 Z" transform="rotate(-180 5.5 .5)"/>
      <path d="M12,1 L12,0 L13,0 L13,1 L12,1 Z M14,1 L14,0 L15,0 L15,1 L14,1 Z M16,1 L16,0 L17,0 L17,1 L16,1 Z M18,1 L18,0 L19,0 L19,1 L18,1 Z M20,1 L20,0 L21,0 L21,1 L20,1 Z" transform="rotate(-180 16.5 .5)"/>
    </g>
    <g transform="translate(29 10)">
      <rect width="12" height="12" fill="#000" opacity="0"/>
      <path fill="#747E90" fill-rule="nonzero" stroke="#747E90" stroke-width=".5" d="M10.875,1.875 L1.125,1.875 C0.917578125,1.875 0.75,2.04257813 0.75,2.25 L0.75,9.75 C0.75,9.95742187 0.917578125,10.125 1.125,10.125 L10.875,10.125 C11.0824219,10.125 11.25,9.95742187 11.25,9.75 L11.25,2.25 C11.25,2.04257813 11.0824219,1.875 10.875,1.875 Z M10.40625,9.28125 L1.59375,9.28125 L1.59375,8.81367188 L3.21679688,6.88828125 L4.97578125,8.97421875 L7.71210937,5.73046875 L10.40625,8.925 L10.40625,9.28125 Z M10.40625,7.76015625 L7.78359375,4.65 C7.74609375,4.60546875 7.678125,4.60546875 7.640625,4.65 L4.97578125,7.809375 L3.28828125,5.80898437 C3.25078125,5.76445312 3.1828125,5.76445312 3.1453125,5.80898437 L1.59375,7.64882813 L1.59375,2.71875 L10.40625,2.71875 L10.40625,7.76015625 Z M3.5625,5.34375 C4.13203125,5.34375 4.59375,4.88203125 4.59375,4.3125 C4.59375,3.74296875 4.13203125,3.28125 3.5625,3.28125 C2.99296875,3.28125 2.53125,3.74296875 2.53125,4.3125 C2.53125,4.88203125 2.99296875,5.34375 3.5625,5.34375 Z M3.5625,3.984375 C3.74414062,3.984375 3.890625,4.13085938 3.890625,4.3125 C3.890625,4.49414062 3.74414062,4.640625 3.5625,4.640625 C3.38085938,4.640625 3.234375,4.49414062 3.234375,4.3125 C3.234375,4.13085938 3.38085938,3.984375 3.5625,3.984375 Z"/>
    </g>
  </g>
</svg>
