<svg xmlns="http://www.w3.org/2000/svg" width="70" height="32" viewBox="0 0 70 32">
  <g fill="none" fill-rule="evenodd" transform="translate(18 7)">
    <path fill="#F22735" d="M0,0 L32,0 C33.1045695,-2.02906125e-16 34,0.8954305 34,2 L34,16 C34,17.1045695 33.1045695,18 32,18 L0,18 L0,0 Z"/>
    <path fill="#FFF" d="M10,12.6 C10,12.4999995 10.033333,12.416667 10.1,12.35 C10.166667,12.283333 10.2466662,12.25 10.34,12.25 L12.01,12.25 C12.1033338,12.25 12.1866663,12.216667 12.26,12.15 C12.3333337,12.083333 12.37,12.0000005 12.37,11.9 L12.37,4.34 C12.37,4.2466662 12.403333,4.166667 12.47,4.1 C12.536667,4.033333 12.6166662,4 12.71,4 L12.94,4 C13.0333338,4 13.1149997,4.033333 13.185,4.1 C13.2550003,4.166667 13.29,4.2466662 13.29,4.34 L13.29,5.94 C13.29,6.0400005 13.3249996,6.123333 13.395,6.19 C13.4650004,6.256667 13.5466662,6.29 13.64,6.29 L15.92,6.29 C16.0133338,6.29 16.093333,6.323333 16.16,6.39 C16.226667,6.456667 16.26,6.5399995 16.26,6.64 L16.26,6.86 C16.26,6.9600005 16.226667,7.04499965 16.16,7.115 C16.093333,7.18500035 16.0133338,7.22 15.92,7.22 L13.64,7.22 C13.5466662,7.22 13.4650004,7.253333 13.395,7.32 C13.3249996,7.386667 13.29,7.4699995 13.29,7.57 L13.29,11.9 C13.29,12.0000005 13.3249996,12.083333 13.395,12.15 C13.4650004,12.216667 13.5466662,12.25 13.64,12.25 L16.28,12.25 C16.3733338,12.25 16.4549997,12.283333 16.525,12.35 C16.5950004,12.416667 16.63,12.4999995 16.63,12.6 L16.63,12.83 C16.63,12.9233338 16.5950004,13.0049996 16.525,13.075 C16.4549997,13.1450004 16.3733338,13.18 16.28,13.18 L10.34,13.18 C10.2466662,13.18 10.166667,13.1450004 10.1,13.075 C10.033333,13.0049996 10,12.9233338 10,12.83 L10,12.6 Z M18.43,13.18 C18.3366662,13.18 18.256667,13.1450004 18.19,13.075 C18.123333,13.0049996 18.09,12.9233338 18.09,12.83 L18.09,7.4 C18.09,7.3066662 18.0683336,7.226667 18.025,7.16 C17.9816665,7.093333 17.9300003,7.06 17.87,7.06 C17.8099997,7.06 17.7583335,7.02500035 17.715,6.955 C17.6716665,6.88499965 17.65,6.8033338 17.65,6.71 L17.65,6.49 C17.65,6.3899995 17.683333,6.306667 17.75,6.24 C17.816667,6.173333 17.8966662,6.14 17.99,6.14 L18.26,6.14 C18.3533338,6.14 18.433333,6.10500035 18.5,6.035 C18.566667,5.96499965 18.6,5.8833338 18.6,5.79 L18.6,4.34 C18.6,4.2466662 18.6366663,4.166667 18.71,4.1 C18.7833337,4.033333 18.8666662,4 18.96,4 L19.18,4 C19.2733338,4 19.353333,4.033333 19.42,4.1 C19.486667,4.166667 19.52,4.2466662 19.52,4.34 L19.52,6.71 C19.52,6.8033338 19.4966669,6.88499965 19.45,6.955 C19.4033331,7.02500035 19.3433337,7.06 19.27,7.06 C19.1966663,7.06 19.1333336,7.093333 19.08,7.16 C19.0266664,7.226667 19,7.3066662 19,7.4 L19,12.83 C19,12.9233338 18.9683337,13.0049996 18.905,13.075 C18.8416664,13.1450004 18.7633338,13.18 18.67,13.18 L18.43,13.18 Z M22.11,4.09 C22.176667,4.1500003 22.21,4.2266662 22.21,4.32 C22.21,4.4133338 22.2449997,4.49166635 22.315,4.555 C22.3850004,4.61833365 22.4666662,4.65 22.56,4.65 L23.91,4.65 C24.0033338,4.65 24.0849997,4.683333 24.155,4.75 C24.2250004,4.816667 24.26,4.8999995 24.26,5 L24.26,5.22 C24.26,5.3200005 24.2250004,5.403333 24.155,5.47 C24.0849997,5.536667 24.0033338,5.57 23.91,5.57 L22.56,5.57 C22.4666662,5.57 22.3850004,5.603333 22.315,5.67 C22.2449997,5.736667 22.21,5.8199995 22.21,5.92 L22.21,6.91 C22.21,7.0033338 22.2449997,7.08499965 22.315,7.155 C22.3850004,7.22500035 22.4666662,7.26 22.56,7.26 L23.91,7.26 C24.0033338,7.26 24.0849997,7.29499965 24.155,7.365 C24.2250004,7.43500035 24.26,7.5166662 24.26,7.61 L24.26,7.83 C24.26,7.9233338 24.2250004,8.00499965 24.155,8.075 C24.0849997,8.14500035 24.0033338,8.18 23.91,8.18 L22.56,8.18 C22.4666662,8.18 22.3850004,8.21499965 22.315,8.285 C22.2449997,8.35500035 22.21,8.4366662 22.21,8.53 L22.21,9.28 C22.21,9.3733338 22.2449997,9.4566663 22.315,9.53 C22.3850004,9.6033337 22.4666662,9.64 22.56,9.64 L23.91,9.64 C24.0033338,9.64 24.0849997,9.673333 24.155,9.74 C24.2250004,9.806667 24.26,9.8866662 24.26,9.98 L24.26,12.83 C24.26,12.9233338 24.2250004,13.0049996 24.155,13.075 C24.0849997,13.1450004 24.0033338,13.18 23.91,13.18 L20.64,13.18 C20.5399995,13.18 20.456667,13.1450004 20.39,13.075 C20.323333,13.0049996 20.29,12.9233338 20.29,12.83 L20.29,12.61 C20.29,12.5099995 20.323333,12.426667 20.39,12.36 C20.456667,12.293333 20.5399995,12.26 20.64,12.26 L22.99,12.26 C23.0900005,12.26 23.173333,12.226667 23.24,12.16 C23.306667,12.093333 23.34,12.0100005 23.34,11.91 L23.34,10.9 C23.34,10.8066662 23.306667,10.726667 23.24,10.66 C23.173333,10.593333 23.0900005,10.56 22.99,10.56 L21.64,10.56 C21.5466662,10.56 21.4650004,10.5233337 21.395,10.45 C21.3249996,10.3766663 21.29,10.2933338 21.29,10.2 L21.29,8.53 C21.29,8.4366662 21.256667,8.35500035 21.19,8.285 C21.123333,8.21499965 21.0400005,8.18 20.94,8.18 L20.27,8.18 C20.1766662,8.18 20.0950004,8.14500035 20.025,8.075 C19.9549997,8.00499965 19.92,7.9233338 19.92,7.83 L19.92,7.61 C19.92,7.5166662 19.9549997,7.43500035 20.025,7.365 C20.0950004,7.29499965 20.1766662,7.26 20.27,7.26 L20.94,7.26 C21.0400005,7.26 21.123333,7.22500035 21.19,7.155 C21.256667,7.08499965 21.29,7.0033338 21.29,6.91 L21.29,5.92 C21.29,5.8199995 21.256667,5.736667 21.19,5.67 C21.123333,5.603333 21.0400005,5.57 20.94,5.57 L20.27,5.57 C20.1766662,5.57 20.0950004,5.536667 20.025,5.47 C19.9549997,5.403333 19.92,5.3200005 19.92,5.22 L19.92,5 C19.92,4.8999995 19.9549997,4.816667 20.025,4.75 C20.0950004,4.683333 20.1766662,4.65 20.27,4.65 L20.94,4.65 C21.0400005,4.65 21.123333,4.61833365 21.19,4.555 C21.256667,4.49166635 21.29,4.4133338 21.29,4.32 C21.29,4.2266662 21.3249996,4.1500003 21.395,4.09 C21.4650004,4.0299997 21.5466662,4 21.64,4 L21.86,4 C21.9600005,4 22.043333,4.0299997 22.11,4.09 Z"/>
  </g>
</svg>
