<svg xmlns="http://www.w3.org/2000/svg" width="70" height="32" viewBox="0 0 70 32">
  <g fill="none" fill-rule="evenodd">
    <circle cx="24" cy="16" r="7" fill="#56C22D" fill-rule="nonzero"/>
    <circle cx="46" cy="16" r="7" fill="#F22735" fill-rule="nonzero"/>
    <g transform="translate(20 12)">
      <rect width="8" height="8" fill="#000" opacity="0"/>
      <path fill="#FFF" stroke="#FFF" d="M7.125,1.484375 L6.57890625,1.484375 C6.50234375,1.484375 6.4296875,1.51953125 6.3828125,1.5796875 L3.16171875,5.66015625 L1.6171875,3.703125 C1.56953125,3.64296875 1.49765625,3.6078125 1.42109375,3.6078125 L0.875,3.6078125 C0.82265625,3.6078125 0.79375,3.66796875 0.82578125,3.70859375 L2.965625,6.41953125 C3.065625,6.54609375 3.2578125,6.54609375 3.35859375,6.41953125 L7.17421875,1.584375 C7.20625,1.54453125 7.17734375,1.484375 7.125,1.484375 Z"/>
    </g>
    <g transform="translate(42 12)">
      <rect width="8" height="8" fill="#000" opacity="0"/>
      <path fill="#FFF" stroke="#FFF" d="M4.4046875,4 L6.45546875,1.55546875 C6.48984375,1.51484375 6.4609375,1.453125 6.4078125,1.453125 L5.784375,1.453125 C5.74765625,1.453125 5.7125,1.46953125 5.68828125,1.49765625 L3.996875,3.5140625 L2.30546875,1.49765625 C2.28203125,1.46953125 2.246875,1.453125 2.209375,1.453125 L1.5859375,1.453125 C1.5328125,1.453125 1.50390625,1.51484375 1.53828125,1.55546875 L3.5890625,4 L1.53828125,6.44453125 C1.50390625,6.48515625 1.5328125,6.546875 1.5859375,6.546875 L2.209375,6.546875 C2.24609375,6.546875 2.28125,6.53046875 2.30546875,6.50234375 L3.996875,4.4859375 L5.68828125,6.50234375 C5.71171875,6.53046875 5.746875,6.546875 5.784375,6.546875 L6.4078125,6.546875 C6.4609375,6.546875 6.48984375,6.48515625 6.45546875,6.44453125 L4.4046875,4 Z"/>
    </g>
  </g>
</svg>
