<svg xmlns="http://www.w3.org/2000/svg" width="70" height="32" viewBox="0 0 70 32">
  <g fill="none" fill-rule="evenodd">
    <path fill="#4D63FF" d="M18,7 L50,7 C51.1045695,7 52,7.8954305 52,9 L52,23 C52,24.1045695 51.1045695,25 50,25 L18,25 L18,7 Z"/>
    <path fill="#FFF" d="M28,19.6 C28,19.4999995 28.033333,19.416667 28.1,19.35 C28.166667,19.283333 28.2466662,19.25 28.34,19.25 L30.01,19.25 C30.1033338,19.25 30.1866663,19.216667 30.26,19.15 C30.3333337,19.083333 30.37,19.0000005 30.37,18.9 L30.37,11.34 C30.37,11.2466662 30.403333,11.166667 30.47,11.1 C30.536667,11.033333 30.6166662,11 30.71,11 L30.94,11 C31.0333338,11 31.1149997,11.033333 31.185,11.1 C31.2550003,11.166667 31.29,11.2466662 31.29,11.34 L31.29,12.94 C31.29,13.0400005 31.3249996,13.123333 31.395,13.19 C31.4650004,13.256667 31.5466662,13.29 31.64,13.29 L33.92,13.29 C34.0133338,13.29 34.093333,13.323333 34.16,13.39 C34.226667,13.456667 34.26,13.5399995 34.26,13.64 L34.26,13.86 C34.26,13.9600005 34.226667,14.0449996 34.16,14.115 C34.093333,14.1850003 34.0133338,14.22 33.92,14.22 L31.64,14.22 C31.5466662,14.22 31.4650004,14.253333 31.395,14.32 C31.3249996,14.386667 31.29,14.4699995 31.29,14.57 L31.29,18.9 C31.29,19.0000005 31.3249996,19.083333 31.395,19.15 C31.4650004,19.216667 31.5466662,19.25 31.64,19.25 L34.28,19.25 C34.3733338,19.25 34.4549997,19.283333 34.525,19.35 C34.5950004,19.416667 34.63,19.4999995 34.63,19.6 L34.63,19.83 C34.63,19.9233338 34.5950004,20.0049996 34.525,20.075 C34.4549997,20.1450004 34.3733338,20.18 34.28,20.18 L28.34,20.18 C28.2466662,20.18 28.166667,20.1450004 28.1,20.075 C28.033333,20.0049996 28,19.9233338 28,19.83 L28,19.6 Z M36.43,20.18 C36.3366662,20.18 36.256667,20.1450004 36.19,20.075 C36.123333,20.0049996 36.09,19.9233338 36.09,19.83 L36.09,14.4 C36.09,14.3066662 36.0683336,14.226667 36.025,14.16 C35.9816665,14.093333 35.9300003,14.06 35.87,14.06 C35.8099997,14.06 35.7583336,14.0250003 35.715,13.955 C35.6716665,13.8849997 35.65,13.8033338 35.65,13.71 L35.65,13.49 C35.65,13.3899995 35.683333,13.306667 35.75,13.24 C35.816667,13.173333 35.8966662,13.14 35.99,13.14 L36.26,13.14 C36.3533338,13.14 36.433333,13.1050004 36.5,13.035 C36.566667,12.9649996 36.6,12.8833338 36.6,12.79 L36.6,11.34 C36.6,11.2466662 36.6366663,11.166667 36.71,11.1 C36.7833337,11.033333 36.8666662,11 36.96,11 L37.18,11 C37.2733338,11 37.353333,11.033333 37.42,11.1 C37.486667,11.166667 37.52,11.2466662 37.52,11.34 L37.52,13.71 C37.52,13.8033338 37.4966669,13.8849997 37.45,13.955 C37.4033331,14.0250003 37.3433337,14.06 37.27,14.06 C37.1966663,14.06 37.1333336,14.093333 37.08,14.16 C37.0266664,14.226667 37,14.3066662 37,14.4 L37,19.83 C37,19.9233338 36.9683337,20.0049996 36.905,20.075 C36.8416663,20.1450004 36.7633338,20.18 36.67,20.18 L36.43,20.18 Z M40.11,11.09 C40.176667,11.1500003 40.21,11.2266662 40.21,11.32 C40.21,11.4133338 40.2449996,11.4916664 40.315,11.555 C40.3850003,11.6183336 40.4666662,11.65 40.56,11.65 L41.91,11.65 C42.0033338,11.65 42.0849997,11.683333 42.155,11.75 C42.2250004,11.816667 42.26,11.8999995 42.26,12 L42.26,12.22 C42.26,12.3200005 42.2250004,12.403333 42.155,12.47 C42.0849997,12.536667 42.0033338,12.57 41.91,12.57 L40.56,12.57 C40.4666662,12.57 40.3850003,12.603333 40.315,12.67 C40.2449996,12.736667 40.21,12.8199995 40.21,12.92 L40.21,13.91 C40.21,14.0033338 40.2449996,14.0849997 40.315,14.155 C40.3850003,14.2250003 40.4666662,14.26 40.56,14.26 L41.91,14.26 C42.0033338,14.26 42.0849997,14.2949996 42.155,14.365 C42.2250004,14.4350003 42.26,14.5166662 42.26,14.61 L42.26,14.83 C42.26,14.9233338 42.2250004,15.0049996 42.155,15.075 C42.0849997,15.1450004 42.0033338,15.18 41.91,15.18 L40.56,15.18 C40.4666662,15.18 40.3850003,15.2149996 40.315,15.285 C40.2449996,15.3550004 40.21,15.4366662 40.21,15.53 L40.21,16.28 C40.21,16.3733338 40.2449996,16.4566663 40.315,16.53 C40.3850003,16.6033337 40.4666662,16.64 40.56,16.64 L41.91,16.64 C42.0033338,16.64 42.0849997,16.673333 42.155,16.74 C42.2250004,16.806667 42.26,16.8866662 42.26,16.98 L42.26,19.83 C42.26,19.9233338 42.2250004,20.0049996 42.155,20.075 C42.0849997,20.1450004 42.0033338,20.18 41.91,20.18 L38.64,20.18 C38.5399995,20.18 38.456667,20.1450004 38.39,20.075 C38.323333,20.0049996 38.29,19.9233338 38.29,19.83 L38.29,19.61 C38.29,19.5099995 38.323333,19.426667 38.39,19.36 C38.456667,19.293333 38.5399995,19.26 38.64,19.26 L40.99,19.26 C41.0900005,19.26 41.173333,19.226667 41.24,19.16 C41.306667,19.093333 41.34,19.0100005 41.34,18.91 L41.34,17.9 C41.34,17.8066662 41.306667,17.726667 41.24,17.66 C41.173333,17.593333 41.0900005,17.56 40.99,17.56 L39.64,17.56 C39.5466662,17.56 39.4650003,17.5233337 39.395,17.45 C39.3249996,17.3766663 39.29,17.2933338 39.29,17.2 L39.29,15.53 C39.29,15.4366662 39.256667,15.3550004 39.19,15.285 C39.123333,15.2149996 39.0400005,15.18 38.94,15.18 L38.27,15.18 C38.1766662,15.18 38.0950004,15.1450004 38.025,15.075 C37.9549997,15.0049996 37.92,14.9233338 37.92,14.83 L37.92,14.61 C37.92,14.5166662 37.9549997,14.4350003 38.025,14.365 C38.0950004,14.2949996 38.1766662,14.26 38.27,14.26 L38.94,14.26 C39.0400005,14.26 39.123333,14.2250003 39.19,14.155 C39.256667,14.0849997 39.29,14.0033338 39.29,13.91 L39.29,12.92 C39.29,12.8199995 39.256667,12.736667 39.19,12.67 C39.123333,12.603333 39.0400005,12.57 38.94,12.57 L38.27,12.57 C38.1766662,12.57 38.0950004,12.536667 38.025,12.47 C37.9549997,12.403333 37.92,12.3200005 37.92,12.22 L37.92,12 C37.92,11.8999995 37.9549997,11.816667 38.025,11.75 C38.0950004,11.683333 38.1766662,11.65 38.27,11.65 L38.94,11.65 C39.0400005,11.65 39.123333,11.6183336 39.19,11.555 C39.256667,11.4916664 39.29,11.4133338 39.29,11.32 C39.29,11.2266662 39.3249996,11.1500003 39.395,11.09 C39.4650003,11.0299997 39.5466662,11 39.64,11 L39.86,11 C39.9600005,11 40.043333,11.0299997 40.11,11.09 Z"/>
  </g>
</svg>
