<svg xmlns="http://www.w3.org/2000/svg" width="70" height="32" viewBox="0 0 70 32">
  <g fill="none" fill-rule="evenodd">
    <rect width="70" height="32"/>
    <g transform="translate(16 8)">
      <g transform="translate(13 2)">
        <rect width="12" height="12" fill="#000" opacity="0"/>
        <path fill="#F22735" fill-rule="nonzero" stroke="#F22735" stroke-width=".5" d="M4.6875,3.72304687 L5.55351563,3.72304687 L5.55351563,7.6875 C5.55351563,7.7390625 5.59570312,7.78125 5.64726563,7.78125 L6.35039063,7.78125 C6.40195313,7.78125 6.44414063,7.7390625 6.44414063,7.6875 L6.44414063,3.72304687 L7.3125,3.72304687 C7.39101563,3.72304687 7.434375,3.6328125 7.38632813,3.571875 L6.07382813,1.91015625 C6.03632812,1.86210937 5.96367188,1.86210937 5.92617187,1.91015625 L4.61367187,3.57070312 C4.565625,3.6328125 4.60898437,3.72304687 4.6875,3.72304687 Z M10.2890625,7.3359375 L9.5859375,7.3359375 C9.534375,7.3359375 9.4921875,7.378125 9.4921875,7.4296875 L9.4921875,9.234375 L2.5078125,9.234375 L2.5078125,7.4296875 C2.5078125,7.378125 2.465625,7.3359375 2.4140625,7.3359375 L1.7109375,7.3359375 C1.659375,7.3359375 1.6171875,7.378125 1.6171875,7.4296875 L1.6171875,9.75 C1.6171875,9.95742188 1.78476563,10.125 1.9921875,10.125 L10.0078125,10.125 C10.2152344,10.125 10.3828125,9.95742188 10.3828125,9.75 L10.3828125,7.4296875 C10.3828125,7.378125 10.340625,7.3359375 10.2890625,7.3359375 Z"/>
      </g>
      <path fill="#F22735" fill-rule="nonzero" d="M1,1 L1,0 L2,0 L2,1 L1,1 Z M3,1 L3,0 L4,0 L4,1 L3,1 Z M5,1 L5,0 L6,0 L6,1 L5,1 Z M7,1 L7,0 L8,0 L8,1 L7,1 Z M9,1 L9,0 L10,0 L10,1 L9,1 Z M11,1 L11,0 L12,0 L12,1 L11,1 Z M13,1 L13,0 L14,0 L14,1 L13,1 Z M15,1 L15,0 L16,0 L16,1 L15,1 Z M17,1 L17,0 L18,0 L18,1 L17,1 Z M19,1 L19,0 L20,0 L20,1 L19,1 Z M21,1 L21,0 L22,0 L22,1 L21,1 Z M23,1 L23,0 L24,0 L24,1 L23,1 Z M25,1 L25,0 L26,0 L26,1 L25,1 Z M27,1 L27,0 L28,0 L28,1 L27,1 Z M29,1 L29,0 L30,0 L30,1 L29,1 Z M31,1 L31,0 L32,0 L32,1 L31,1 Z M33,1 L33,0 L34,0 L34,1 L33,1 Z M35,1 L35,0 L36,0 L36,1 L35,1 Z"/>
      <path fill="#F22735" fill-rule="nonzero" d="M31,8 L31,7 L32,7 L32,8 L31,8 Z M33,8 L33,7 L34,7 L34,8 L33,8 Z M35,8 L35,7 L36,7 L36,8 L35,8 Z M37,8 L37,7 L38,7 L38,8 L37,8 Z M39,8 L39,7 L40,7 L40,8 L39,8 Z M41,8 L41,7 L42,7 L42,8 L41,8 Z M43,8 L43,7 L44,7 L44,8 L43,8 Z" transform="rotate(90 37.5 7.5)"/>
      <path fill="#F22735" fill-rule="nonzero" d="M-6,9 L-6,8 L-5,8 L-5,9 L-6,9 Z M-4,9 L-4,8 L-3,8 L-3,9 L-4,9 Z M-2,9 L-2,8 L-1,8 L-1,9 L-2,9 Z M-1.13686838e-13,9 L-1.13686838e-13,8 L1,8 L1,9 L-1.13686838e-13,9 Z M2,9 L2,8 L3,8 L3,9 L2,9 Z M4,9 L4,8 L5,8 L5,9 L4,9 Z M6,9 L6,8 L7,8 L7,9 L6,9 Z" transform="rotate(90 .5 8.5)"/>
      <path fill="#F22735" fill-rule="nonzero" d="M2,16 L2,15 L3,15 L3,16 L2,16 Z M4,16 L4,15 L5,15 L5,16 L4,16 Z M6,16 L6,15 L7,15 L7,16 L6,16 Z M8,16 L8,15 L9,15 L9,16 L8,16 Z M10,16 L10,15 L11,15 L11,16 L10,16 Z M12,16 L12,15 L13,15 L13,16 L12,16 Z M14,16 L14,15 L15,15 L15,16 L14,16 Z M16,16 L16,15 L17,15 L17,16 L16,16 Z M18,16 L18,15 L19,15 L19,16 L18,16 Z M20,16 L20,15 L21,15 L21,16 L20,16 Z M22,16 L22,15 L23,15 L23,16 L22,16 Z M24,16 L24,15 L25,15 L25,16 L24,16 Z M26,16 L26,15 L27,15 L27,16 L26,16 Z M28,16 L28,15 L29,15 L29,16 L28,16 Z M30,16 L30,15 L31,15 L31,16 L30,16 Z M32,16 L32,15 L33,15 L33,16 L32,16 Z M34,16 L34,15 L35,15 L35,16 L34,16 Z M36,16 L36,15 L37,15 L37,16 L36,16 Z"/>
    </g>
  </g>
</svg>
