<svg xmlns="http://www.w3.org/2000/svg" width="70" height="32" viewBox="0 0 70 32">
  <g fill="none" fill-rule="evenodd">
    <rect width="38" height="16" x="16" y="8" stroke="#CCC" stroke-width="2" rx="2"/>
    <g transform="translate(29 10)">
      <rect width="12" height="12" fill="#000" opacity="0"/>
      <path fill="#747E90" fill-rule="nonzero" stroke="#747E90" stroke-width=".5" d="M4.6875,3.72304687 L5.55351563,3.72304687 L5.55351563,7.6875 C5.55351563,7.7390625 5.59570312,7.78125 5.64726563,7.78125 L6.35039063,7.78125 C6.40195313,7.78125 6.44414063,7.7390625 6.44414063,7.6875 L6.44414063,3.72304687 L7.3125,3.72304687 C7.39101563,3.72304687 7.434375,3.6328125 7.38632813,3.571875 L6.07382813,1.91015625 C6.03632812,1.86210937 5.96367188,1.86210937 5.92617187,1.91015625 L4.61367187,3.57070312 C4.565625,3.6328125 4.60898437,3.72304687 4.6875,3.72304687 Z M10.2890625,7.3359375 L9.5859375,7.3359375 C9.534375,7.3359375 9.4921875,7.378125 9.4921875,7.4296875 L9.4921875,9.234375 L2.5078125,9.234375 L2.5078125,7.4296875 C2.5078125,7.378125 2.465625,7.3359375 2.4140625,7.3359375 L1.7109375,7.3359375 C1.659375,7.3359375 1.6171875,7.378125 1.6171875,7.4296875 L1.6171875,9.75 C1.6171875,9.95742188 1.78476563,10.125 1.9921875,10.125 L10.0078125,10.125 C10.2152344,10.125 10.3828125,9.95742188 10.3828125,9.75 L10.3828125,7.4296875 C10.3828125,7.378125 10.340625,7.3359375 10.2890625,7.3359375 Z"/>
    </g>
  </g>
</svg>
