<svg xmlns="http://www.w3.org/2000/svg" width="70" height="32" viewBox="0 0 70 32">
  <g fill="none" fill-rule="evenodd">
    <path fill="#4D63FF" d="M18,7 L50,7 C51.1045695,7 52,7.8954305 52,9 L52,23 C52,24.1045695 51.1045695,25 50,25 L18,25 L18,7 Z"/>
    <g transform="translate(29 10)">
      <rect width="12" height="12" fill="#000" opacity="0"/>
      <path fill="#FFF" stroke="#FFF" d="M10.6875,2.2265625 L9.86835937,2.2265625 C9.75351563,2.2265625 9.64453125,2.27929688 9.57421875,2.36953125 L4.74257812,8.49023437 L2.42578125,5.5546875 C2.35429687,5.46445312 2.24648437,5.41171875 2.13164062,5.41171875 L1.3125,5.41171875 C1.23398437,5.41171875 1.190625,5.50195312 1.23867187,5.56289062 L4.4484375,9.62929687 C4.5984375,9.81914062 4.88671875,9.81914062 5.03789062,9.62929687 L10.7613281,2.3765625 C10.809375,2.31679688 10.7660156,2.2265625 10.6875,2.2265625 Z"/>
    </g>
  </g>
</svg>
