<svg xmlns="http://www.w3.org/2000/svg" width="70" height="32" viewBox="0 0 70 32">
  <g fill="none" fill-rule="evenodd">
    <g transform="translate(29 10)">
      <rect width="12" height="12" fill="#000" opacity="0"/>
      <path fill="#747E90" fill-rule="nonzero" stroke="#747E90" stroke-width=".5" d="M4.6875,3.72304687 L5.55351563,3.72304687 L5.55351563,7.6875 C5.55351563,7.7390625 5.59570312,7.78125 5.64726563,7.78125 L6.35039063,7.78125 C6.40195313,7.78125 6.44414063,7.7390625 6.44414063,7.6875 L6.44414063,3.72304687 L7.3125,3.72304687 C7.39101563,3.72304687 7.434375,3.6328125 7.38632813,3.571875 L6.07382813,1.91015625 C6.03632812,1.86210937 5.96367188,1.86210937 5.92617187,1.91015625 L4.61367187,3.57070312 C4.565625,3.6328125 4.60898437,3.72304687 4.6875,3.72304687 Z M10.2890625,7.3359375 L9.5859375,7.3359375 C9.534375,7.3359375 9.4921875,7.378125 9.4921875,7.4296875 L9.4921875,9.234375 L2.5078125,9.234375 L2.5078125,7.4296875 C2.5078125,7.378125 2.465625,7.3359375 2.4140625,7.3359375 L1.7109375,7.3359375 C1.659375,7.3359375 1.6171875,7.378125 1.6171875,7.4296875 L1.6171875,9.75 C1.6171875,9.95742188 1.78476563,10.125 1.9921875,10.125 L10.0078125,10.125 C10.2152344,10.125 10.3828125,9.95742188 10.3828125,9.75 L10.3828125,7.4296875 C10.3828125,7.378125 10.340625,7.3359375 10.2890625,7.3359375 Z"/>
    </g>
    <path fill="#A6AAB2" fill-rule="nonzero" d="M17,9 L17,8 L18,8 L18,9 L17,9 Z M19,9 L19,8 L20,8 L20,9 L19,9 Z M21,9 L21,8 L22,8 L22,9 L21,9 Z M23,9 L23,8 L24,8 L24,9 L23,9 Z M25,9 L25,8 L26,8 L26,9 L25,9 Z M27,9 L27,8 L28,8 L28,9 L27,9 Z M29,9 L29,8 L30,8 L30,9 L29,9 Z M31,9 L31,8 L32,8 L32,9 L31,9 Z M33,9 L33,8 L34,8 L34,9 L33,9 Z M35,9 L35,8 L36,8 L36,9 L35,9 Z M37,9 L37,8 L38,8 L38,9 L37,9 Z M39,9 L39,8 L40,8 L40,9 L39,9 Z M41,9 L41,8 L42,8 L42,9 L41,9 Z M43,9 L43,8 L44,8 L44,9 L43,9 Z M45,9 L45,8 L46,8 L46,9 L45,9 Z M47,9 L47,8 L48,8 L48,9 L47,9 Z M49,9 L49,8 L50,8 L50,9 L49,9 Z M51,9 L51,8 L52,8 L52,9 L51,9 Z"/>
    <path fill="#A6AAB2" fill-rule="nonzero" d="M47,16 L47,15 L48,15 L48,16 L47,16 Z M49,16 L49,15 L50,15 L50,16 L49,16 Z M51,16 L51,15 L52,15 L52,16 L51,16 Z M53,16 L53,15 L54,15 L54,16 L53,16 Z M55,16 L55,15 L56,15 L56,16 L55,16 Z M57,16 L57,15 L58,15 L58,16 L57,16 Z M59,16 L59,15 L60,15 L60,16 L59,16 Z" transform="rotate(90 53.5 15.5)"/>
    <path fill="#A6AAB2" fill-rule="nonzero" d="M10,17 L10,16 L11,16 L11,17 L10,17 Z M12,17 L12,16 L13,16 L13,17 L12,17 Z M14,17 L14,16 L15,16 L15,17 L14,17 Z M16,17 L16,16 L17,16 L17,17 L16,17 Z M18,17 L18,16 L19,16 L19,17 L18,17 Z M20,17 L20,16 L21,16 L21,17 L20,17 Z M22,17 L22,16 L23,16 L23,17 L22,17 Z" transform="rotate(90 16.5 16.5)"/>
    <path fill="#A6AAB2" fill-rule="nonzero" d="M18,24 L18,23 L19,23 L19,24 L18,24 Z M20,24 L20,23 L21,23 L21,24 L20,24 Z M22,24 L22,23 L23,23 L23,24 L22,24 Z M24,24 L24,23 L25,23 L25,24 L24,24 Z M26,24 L26,23 L27,23 L27,24 L26,24 Z M28,24 L28,23 L29,23 L29,24 L28,24 Z M30,24 L30,23 L31,23 L31,24 L30,24 Z M32,24 L32,23 L33,23 L33,24 L32,24 Z M34,24 L34,23 L35,23 L35,24 L34,24 Z M36,24 L36,23 L37,23 L37,24 L36,24 Z M38,24 L38,23 L39,23 L39,24 L38,24 Z M40,24 L40,23 L41,23 L41,24 L40,24 Z M42,24 L42,23 L43,23 L43,24 L42,24 Z M44,24 L44,23 L45,23 L45,24 L44,24 Z M46,24 L46,23 L47,23 L47,24 L46,24 Z M48,24 L48,23 L49,23 L49,24 L48,24 Z M50,24 L50,23 L51,23 L51,24 L50,24 Z M52,24 L52,23 L53,23 L53,24 L52,24 Z"/>
  </g>
</svg>
