<?xml version="1.0" encoding="utf-8"?>
<!-- Generator: Adobe Illustrator 22.0.0, SVG Export Plug-In . SVG Version: 6.00 Build 0)  -->
<svg version="1.1" id="图层_1" xmlns="http://www.w3.org/2000/svg" xmlns:xlink="http://www.w3.org/1999/xlink" x="0px" y="0px"
	 viewBox="0 0 1024 1024" style="enable-background:new 0 0 1024 1024;" xml:space="preserve">
<style type="text/css">
	.st0{fill:#9DA7B2;}
</style>
<path class="st0" d="M888,64H136c-39.6,0-72,32.4-72,72v752c0,39.6,32.4,72,72,72h752c39.6,0,72-32.4,72-72V136
	C960,96.4,927.6,64,888,64z M693,642.1c14.1,14.1,14.1,36.9,0,50.9c-14.1,14.1-36.9,14.1-50.9,0L512,562.9L381.9,693
	c-14.1,14.1-36.9,14.1-50.9,0c-14.1-14.1-14.1-36.9,0-50.9L461.1,512L331,381.9c-14.1-14.1-14.1-36.9,0-50.9
	c14.1-14.1,36.9-14.1,50.9,0L512,461.1L642.1,331c14.1-14.1,36.9-14.1,50.9,0c14.1,14.1,14.1,36.9,0,50.9L562.9,512L693,642.1z"/>
</svg>
