<?xml version="1.0" encoding="utf-8"?>
<!-- Generator: Adobe Illustrator 22.0.0, SVG Export Plug-In . SVG Version: 6.00 Build 0)  -->
<svg version="1.1" id="图层_1" xmlns="http://www.w3.org/2000/svg" xmlns:xlink="http://www.w3.org/1999/xlink" x="0px" y="0px"
	 viewBox="0 0 1024 1024" style="enable-background:new 0 0 1024 1024;" xml:space="preserve">
<style type="text/css">
	.st0{fill:#9DA7B2;}
</style>
<path class="st0" d="M888.1,64h-752c-39.6,0-72,32.4-72,72v752c0,39.6,32.4,72,72,72h752c39.6,0,72-32.4,72-72V136
	C960.1,96.4,927.7,64,888.1,64z M731.5,409.5l-256,256c-7,7-16.2,10.5-25.5,10.5s-18.4-3.5-25.5-10.5l-128-128
	c-14.1-14.1-14.1-36.9,0-50.9c14.1-14.1,36.9-14.1,50.9,0L450,589.1l230.5-230.5c14.1-14.1,36.9-14.1,50.9,0
	C745.5,372.6,745.5,395.4,731.5,409.5z"/>
</svg>
