<?xml version="1.0" encoding="utf-8"?>
<!-- Generator: Adobe Illustrator 22.0.0, SVG Export Plug-In . SVG Version: 6.00 Build 0)  -->
<svg version="1.1" id="图层_1" xmlns="http://www.w3.org/2000/svg" xmlns:xlink="http://www.w3.org/1999/xlink" x="0px" y="0px"
	 viewBox="0 0 1024 1025" style="enable-background:new 0 0 1024 1025;" xml:space="preserve">
<style type="text/css">
	.st0{fill:#9DA7B2;}
</style>
<path class="st0" d="M511.5,1.4C229,1.4,0,230.5,0,513c0,282.5,229,511.5,511.5,511.5c282.5,0,511.5-229,511.5-511.5
	C1023.1,230.5,794,1.4,511.5,1.4z M72,513c0-108.7,39.4-208.1,104.8-284.8l619.6,619.6c-76.7,65.3-176.2,104.8-284.8,104.8
	C268.8,952.5,72,755.7,72,513z M847.2,796.8L227.7,177.3c76.6-64.8,175.6-103.9,283.8-103.9c242.7,0,439.5,196.8,439.5,439.5
	C951.1,621.1,912,720.2,847.2,796.8z"/>
</svg>
