<?xml version="1.0" encoding="utf-8"?>
<!-- Generator: Adobe Illustrator 22.0.0, SVG Export Plug-In . SVG Version: 6.00 Build 0)  -->
<svg version="1.1" id="图层_1" xmlns="http://www.w3.org/2000/svg" xmlns:xlink="http://www.w3.org/1999/xlink" x="0px" y="0px"
	 viewBox="0 0 1024 1025" style="enable-background:new 0 0 1024 1025;" xml:space="preserve">
<style type="text/css">
	.st0{fill:#9DA7B2;}
</style>
<path class="st0" d="M136.2,136.4L136.2,136.4L136.2,136.4 M136,136.5L136,136.5L136,136.5 M887.9,136.5c0,0,0.1,0.1,0.1,0.1
	l0,751.7c0,0-0.1,0.1-0.1,0.1l-751.7,0c0,0-0.1-0.1-0.1-0.1l0-751.7c0,0,0.1-0.1,0.1-0.1H887.9 M888,64.5H136c-39.6,0-72,32.4-72,72
	v752c0,39.6,32.4,72,72,72h752c39.6,0,72-32.4,72-72v-752C960,96.9,927.6,64.5,888,64.5L888,64.5z"/>
</svg>
