<?xml version="1.0" encoding="utf-8"?>
<!-- Generator: Adobe Illustrator 22.0.0, SVG Export Plug-In . SVG Version: 6.00 Build 0)  -->
<svg version="1.1" id="图层_1" xmlns="http://www.w3.org/2000/svg" xmlns:xlink="http://www.w3.org/1999/xlink" x="0px" y="0px"
	 viewBox="0 0 1024 1024" style="enable-background:new 0 0 1024 1024;" xml:space="preserve">
<style type="text/css">
	.st0{fill:#9DA7B2;}
</style>
<path class="st0" d="M728.1,548h-440c-19.9,0-36-16.1-36-36s16.1-36,36-36h440c19.9,0,36,16.1,36,36S748,548,728.1,548z
	 M134.3,135.9L134.3,135.9L134.3,135.9 M134.1,136L134.1,136L134.1,136 M885.9,136H134.2c0,0-0.1,0.1-0.1,0.1l0,751.7
	c0,0,0.1,0.1,0.1,0.1l751.7,0c0,0,0.1-0.1,0.1-0.1l0-751.7C886,136.1,886,136,885.9,136 M886.1,64c39.6,0,72,32.4,72,72v752
	c0,39.6-32.4,72-72,72h-752c-39.6,0-72-32.4-72-72V136c0-39.6,32.4-72,72-72H886.1L886.1,64z"/>
</svg>
