<?xml version="1.0" encoding="utf-8"?>
<!-- Generator: Adobe Illustrator 22.0.0, SVG Export Plug-In . SVG Version: 6.00 Build 0)  -->
<svg version="1.1" id="图层_1" xmlns="http://www.w3.org/2000/svg" xmlns:xlink="http://www.w3.org/1999/xlink" x="0px" y="0px"
	 viewBox="0 0 1024 1024" style="enable-background:new 0 0 1024 1024;" xml:space="preserve">
<style type="text/css">
	.st0{fill:#9DA7B2;}
</style>
<path class="st0" d="M766.1,512c0,19.9-16.1,36-36,36h-184v184c0,19.9-16.1,36-36,36s-36-16.1-36-36V548h-184c-19.9,0-36-16.1-36-36
	c0-19.9,16.1-36,36-36h184V292c0-19.9,16.1-36,36-36s36,16.1,36,36v184h184C749.9,476,766.1,492.1,766.1,512z M1022.1,512.5
	c0,282.5-229,511.5-511.5,511.5C228,1024-1,795-1,512.5S228,0.9,510.5,0.9C793,0.9,1022.1,230,1022.1,512.5z M950.1,512.5
	c0-242.7-196.8-439.5-439.5-439.5S71,269.7,71,512.5S267.8,952,510.5,952S950.1,755.2,950.1,512.5z"/>
</svg>
