<?xml version="1.0" encoding="utf-8"?>
<!-- Generator: Adobe Illustrator 22.0.0, SVG Export Plug-In . SVG Version: 6.00 Build 0)  -->
<svg version="1.1" id="图层_1" xmlns="http://www.w3.org/2000/svg" xmlns:xlink="http://www.w3.org/1999/xlink" x="0px" y="0px"
	 viewBox="0 0 1024 1024" style="enable-background:new 0 0 1024 1024;" xml:space="preserve">
<style type="text/css">
	.st0{fill:#9DA7B2;}
</style>
<path class="st0" d="M448,676c-9.2,0-18.4-3.5-25.5-10.5l-128-128c-14.1-14.1-14.1-36.9,0-50.9c14.1-14.1,36.9-14.1,50.9,0
	L448,589.1l230.5-230.5c14.1-14.1,36.9-14.1,50.9,0c14.1,14.1,14.1,36.9,0,50.9l-256,256C466.4,672.5,457.2,676,448,676z
	 M134.3,135.9L134.3,135.9L134.3,135.9 M134.1,136L134.1,136L134.1,136 M885.9,136H134.2c0,0-0.1,0.1-0.1,0.1l0,751.7
	c0,0,0.1,0.1,0.1,0.1l751.7,0c0,0,0.1-0.1,0.1-0.1l0-751.7C886,136.1,886,136,885.9,136 M886.1,64c39.6,0,72,32.4,72,72v752
	c0,39.6-32.4,72-72,72h-752c-39.6,0-72-32.4-72-72V136c0-39.6,32.4-72,72-72H886.1L886.1,64z"/>
</svg>
