<?xml version="1.0" encoding="utf-8"?>
<!-- Generator: Adobe Illustrator 22.0.0, SVG Export Plug-In . SVG Version: 6.00 Build 0)  -->
<svg version="1.1" id="图层_1" xmlns="http://www.w3.org/2000/svg" xmlns:xlink="http://www.w3.org/1999/xlink" x="0px" y="0px"
	 viewBox="0 0 1024 1024" style="enable-background:new 0 0 1024 1024;" xml:space="preserve">
<style type="text/css">
	.st0{fill:#9DA7B2;}
</style>
<path class="st0" d="M512.1,0C229.3,0,0.1,229.2,0.1,512s229.2,512,512,512s512-229.2,512-512S794.8,0,512.1,0z M732.1,548h-184v184
	c0,19.9-16.1,36-36,36s-36-16.1-36-36V548h-184c-19.9,0-36-16.1-36-36c0-19.9,16.1-36,36-36h184V292c0-19.9,16.1-36,36-36
	s36,16.1,36,36v184h184c19.9,0,36,16.1,36,36C768.1,531.9,751.9,548,732.1,548z"/>
</svg>
