<?xml version="1.0" encoding="utf-8"?>
<!-- Generator: Adobe Illustrator 22.0.0, SVG Export Plug-In . SVG Version: 6.00 Build 0)  -->
<svg version="1.1" id="图层_1" xmlns="http://www.w3.org/2000/svg" xmlns:xlink="http://www.w3.org/1999/xlink" x="0px" y="0px"
	 viewBox="0 0 1024 1024" style="enable-background:new 0 0 1024 1024;" xml:space="preserve">
<style type="text/css">
	.st0{fill:#9DA7B2;}
</style>
<path class="st0" d="M514,0C231.2,0,2,229.2,2,512s229.2,512,512,512s512-229.2,512-512S796.8,0,514,0z M514,836
	c-19.9,0-36-16.1-36-36s16.1-36,36-36s36,16.1,36,36S533.9,836,514,836z M550,672c0,19.9-16.1,36-36,36s-36-16.1-36-36V256
	c0-19.9,16.1-36,36-36s36,16.1,36,36V672z"/>
</svg>
