<?xml version="1.0" encoding="utf-8"?>
<!-- Generator: Adobe Illustrator 22.0.0, SVG Export Plug-In . SVG Version: 6.00 Build 0)  -->
<svg version="1.1" id="图层_1" xmlns="http://www.w3.org/2000/svg" xmlns:xlink="http://www.w3.org/1999/xlink" x="0px" y="0px"
	 viewBox="0 0 1024 1024" style="enable-background:new 0 0 1024 1024;" xml:space="preserve">
<style type="text/css">
	.st0{fill:#9DA7B2;}
</style>
<path class="st0" d="M876,150C676.1-50,351.9-50,152,150S-48,674.1,152,874S676.1,1074,876,874S1076,349.9,876,150z M644.1,693
	L514,562.9L383.9,693c-14.1,14.1-36.9,14.1-50.9,0c-14.1-14.1-14.1-36.9,0-50.9L463.1,512L333,381.9c-14.1-14.1-14.1-36.9,0-50.9
	c14.1-14.1,36.9-14.1,50.9,0L514,461.1L644.1,331c14.1-14.1,36.9-14.1,50.9,0c14.1,14.1,14.1,36.9,0,50.9L564.9,512L695,642.1
	c14.1,14.1,14.1,36.9,0,50.9C681,707.1,658.2,707.1,644.1,693z"/>
</svg>
