<?xml version="1.0" encoding="utf-8"?>
<!-- Generator: Adobe Illustrator 22.0.0, SVG Export Plug-In . SVG Version: 6.00 Build 0)  -->
<svg version="1.1" id="图层_1" xmlns="http://www.w3.org/2000/svg" xmlns:xlink="http://www.w3.org/1999/xlink" x="0px" y="0px"
	 viewBox="0 0 1024 1024" style="enable-background:new 0 0 1024 1024;" xml:space="preserve">
<style type="text/css">
	.st0{fill:#9DA7B2;}
</style>
<path class="st0" d="M510.1,0C227.3,0-1.9,229.2-1.9,512s229.2,512,512,512c282.8,0,512-229.2,512-512S792.8,0,510.1,0z M376.5,704
	c0,19.9-16.1,36-36,36s-36-16.1-36-36V320c0-19.9,16.1-36,36-36s36,16.1,36,36V704z M715.6,704c0,19.9-16.1,36-36,36s-36-16.1-36-36
	V320c0-19.9,16.1-36,36-36s36,16.1,36,36V704z"/>
</svg>
