<?xml version="1.0" encoding="utf-8"?>
<!-- Generator: Adobe Illustrator 22.0.0, SVG Export Plug-In . SVG Version: 6.00 Build 0)  -->
<svg version="1.1" id="图层_1" xmlns="http://www.w3.org/2000/svg" xmlns:xlink="http://www.w3.org/1999/xlink" x="0px" y="0px"
	 viewBox="0 0 1024 1024" style="enable-background:new 0 0 1024 1024;" xml:space="preserve">
<style type="text/css">
	.st0{fill:#9DA7B2;}
</style>
<path class="st0" d="M512.1,0C229.3,0,0.1,229.2,0.1,512s229.2,512,512,512s512-229.2,512-512S794.8,0,512.1,0z M729.5,409.5
	l-256,256c-7,7-16.2,10.5-25.5,10.5s-18.4-3.5-25.5-10.5l-128-128c-14.1-14.1-14.1-36.9,0-50.9c14.1-14.1,36.9-14.1,50.9,0
	l102.5,102.5l230.5-230.5c14.1-14.1,36.9-14.1,50.9,0C743.6,372.6,743.6,395.4,729.5,409.5z"/>
</svg>
