<?xml version="1.0" encoding="utf-8"?>
<!-- Generator: Adobe Illustrator 22.0.0, SVG Export Plug-In . SVG Version: 6.00 Build 0)  -->
<svg version="1.1" id="图层_1" xmlns="http://www.w3.org/2000/svg" xmlns:xlink="http://www.w3.org/1999/xlink" x="0px" y="0px"
	 viewBox="0 0 1024 1024" style="enable-background:new 0 0 1024 1024;" xml:space="preserve">
<style type="text/css">
	.st0{fill:#9DA7B2;}
</style>
<path class="st0" d="M548,754c0,19.9-16.1,36-36,36c-19.9,0-36-16.1-36-36s16.1-36,36-36C531.9,718,548,734.1,548,754z M548,630.1
	v-57.8C625.1,555.7,683,487,683,405c0-94.3-76.7-171-171-171s-171,76.7-171,171c0,19.9,16.1,36,36,36c19.9,0,36-16.1,36-36
	c0-54.6,44.4-99,99-99s99,44.4,99,99c0,54.6-44.4,99-99,99c-19.9,0-36,16.1-36,36v90c0,19.9,16.1,36,36,36S548,649.9,548,630.1z
	 M1023.1,512.5c0,282.5-229,511.5-511.5,511.5C229,1024,0,795,0,512.5S229,0.9,511.5,0.9C794,0.9,1023.1,230,1023.1,512.5z
	 M951.1,512.5c0-242.7-196.8-439.5-439.5-439.5S72,269.7,72,512.5S268.8,952,511.5,952S951.1,755.2,951.1,512.5z"/>
</svg>
