<?xml version="1.0" encoding="utf-8"?>
<!-- Generator: Adobe Illustrator 21.0.2, SVG Export Plug-In . SVG Version: 6.00 Build 0)  -->
<svg version="1.1" id="图层_1" xmlns="http://www.w3.org/2000/svg" xmlns:xlink="http://www.w3.org/1999/xlink" x="0px" y="0px"
	 viewBox="0 0 1024 1024" style="enable-background:new 0 0 1024 1024;" xml:space="preserve">
<style type="text/css">
	.st0{fill:#9DA7B2;}
</style>
<path class="st0" d="M763.7,763.7c-14.1,14.1-36.9,14.1-50.9,0L512,562.9L311.2,763.7c-14.1,14.1-36.9,14.1-50.9,0
	c-14.1-14.1-14.1-36.9,0-50.9L461.1,512L260.3,311.2c-14.1-14.1-14.1-36.9,0-50.9c14.1-14.1,36.9-14.1,50.9,0L512,461.1l200.8-200.8
	c14.1-14.1,36.9-14.1,50.9,0c14.1,14.1,14.1,36.9,0,50.9L562.9,512l200.8,200.8C777.8,726.9,777.8,749.7,763.7,763.7z"/>
</svg>
