<?xml version="1.0" encoding="utf-8"?>
<!-- Generator: Adobe Illustrator 22.0.0, SVG Export Plug-In . SVG Version: 6.00 Build 0)  -->
<svg version="1.1" id="图层_1" xmlns="http://www.w3.org/2000/svg" xmlns:xlink="http://www.w3.org/1999/xlink" x="0px" y="0px"
	 viewBox="0 0 1024 1024" style="enable-background:new 0 0 1024 1024;" xml:space="preserve">
<style type="text/css">
	.st0{fill:#9DA7B2;}
</style>
<path class="st0" d="M544,248.8c0,19.9-16.1,36-36,36s-36-16.1-36-36s16.1-36,36-36S544,229,544,248.8z M672,775.2
	c0-19.9-16.1-36-36-36l-88.3-1v-381c0-19.9-16.1-36-36-36H416c-19.9,0-36,16.1-36,36s16.1,36,36,36h59.7v345H388
	c-19.9,0-36,16.1-36,36s16.1,36,36,36l248,1C655.9,811.2,672,795,672,775.2z"/>
</svg>
