<?xml version="1.0" encoding="utf-8"?>
<!-- Generator: Adobe Illustrator 22.0.0, SVG Export Plug-In . SVG Version: 6.00 Build 0)  -->
<svg version="1.1" id="图层_1" xmlns="http://www.w3.org/2000/svg" xmlns:xlink="http://www.w3.org/1999/xlink" x="0px" y="0px"
	 viewBox="0 0 1024 1024" style="enable-background:new 0 0 1024 1024;" xml:space="preserve">
<style type="text/css">
	.st0{fill:#9DA7B2;}
</style>
<path class="st0" d="M510.1,0C227.3,0-1.9,229.2-1.9,512s229.2,512,512,512s512-229.2,512-512S792.8,0,510.1,0z M504.1,212.8
	c19.9,0,36,16.1,36,36c0,19.9-16.1,36-36,36c-19.9,0-36-16.1-36-36C468.1,229,484.2,212.8,504.1,212.8z M632.1,777l-248-1
	c-19.9,0-36-16.1-36-36s16.1-36,36-36h87.7V393.2h-59.7c-19.9,0-36-16.1-36-36s16.1-36,36-36h95.7c19.9,0,36,16.1,36,36V704l88.3,1
	c19.9,0,36,16.1,36,36S652,777,632.1,777z"/>
</svg>
