<?xml version="1.0" encoding="utf-8"?>
<!-- Generator: Adobe Illustrator 22.0.0, SVG Export Plug-In . SVG Version: 6.00 Build 0)  -->
<svg version="1.1" id="图层_1" xmlns="http://www.w3.org/2000/svg" xmlns:xlink="http://www.w3.org/1999/xlink" x="0px" y="0px"
	 viewBox="0 0 1024 1024" style="enable-background:new 0 0 1024 1024;" xml:space="preserve">
<style type="text/css">
	.st0{fill:#9DA7B2;}
</style>
<path class="st0" d="M476.9,965.8c-50.1,0-99.5-8.2-146.8-24.3c-48.5-16.6-93.6-41.1-134.1-73C33.1,740.1-22.1,518,61.7,328.3
	C134.3,164,297.2,57.8,476.7,57.8c25,0,50.1,2.1,74.9,6.2c199,33.2,351.4,193.2,375.9,392.1l14.8-14.7c6.4-6.2,14.9-9.6,23.8-9.6
	c9.1,0,17.7,3.6,24.2,10c13.1,13.1,13.3,34.6,0.4,48l-74.3,74.3c-6.3,6.4-15.2,10.1-24.2,10.1c-9,0-17.9-3.7-24.2-10.1l-74.2-74.2
	c-13.3-13.4-13.3-35.1,0-48.4c6.5-6.5,15.1-10,24.2-10c9.2,0,17.8,3.6,24.2,10l16.5,16.5c-23.2-165.4-150.8-298-317.1-326.2
	c-21.4-3.6-43.2-5.5-64.8-5.5c-152.1,0-290.3,89.9-352.1,228.9c-71.6,161.1-25,349.9,113.4,459.2c67.7,53.5,152.6,82.9,238.8,82.9
	c85.4,0,166.3-27.4,234.1-79.2l0.2-0.2c5.8-4.2,12.7-6.4,19.9-6.4c10.8,0,20.7,4.9,27.2,13.4c11.3,14.8,8.9,35.5-5.5,47.3l-0.2,0.2
	c-40,30.6-84.4,54.1-132,70C574.3,957.9,525.9,965.8,476.9,965.8z M608.1,677.2c-18.9,0-34.2-15.4-34.2-34.2V380.6
	c0-9.1,3.6-17.7,10-24.2c6.4-6.4,15.2-10,24.2-10c9.1,0,17.7,3.6,24.2,10c6.5,6.5,10,15.1,10,24.2v262.3
	C642.3,661.8,627,677.2,608.1,677.2z M345.8,677.2c-18.9,0-34.2-15.4-34.2-34.2V380.6c0-9.1,3.6-17.7,10-24.2
	c6.5-6.5,15.1-10,24.2-10c9.1,0,17.7,3.6,24.2,10c6.5,6.5,10,15.1,10,24.2v262.3C380,661.8,364.6,677.2,345.8,677.2z"/>
</svg>
