<?xml version="1.0" encoding="utf-8"?>
<!-- Generator: Adobe Illustrator 22.0.0, SVG Export Plug-In . SVG Version: 6.00 Build 0)  -->
<svg version="1.1" id="图层_1" xmlns="http://www.w3.org/2000/svg" xmlns:xlink="http://www.w3.org/1999/xlink" x="0px" y="0px"
	 viewBox="0 0 1024 1024" style="enable-background:new 0 0 1024 1024;" xml:space="preserve">
<style type="text/css">
	.st0{fill:#9DA7B2;}
</style>
<path class="st0" d="M448,676c-9.2,0-18.4-3.5-25.5-10.5l-128-128c-14.1-14.1-14.1-36.9,0-50.9c14.1-14.1,36.9-14.1,50.9,0
	L448,589.1l230.5-230.5c14.1-14.1,36.9-14.1,50.9,0c14.1,14.1,14.1,36.9,0,50.9l-256,256C466.4,672.5,457.2,676,448,676z
	 M1022.1,512.5c0,282.5-229,511.5-511.5,511.5C228,1024-1,795-1,512.5S228,0.9,510.5,0.9C793,0.9,1022.1,230,1022.1,512.5z
	 M950.1,512.5c0-242.7-196.8-439.5-439.5-439.5S71,269.7,71,512.5S267.8,952,510.5,952S950.1,755.2,950.1,512.5z"/>
</svg>
