<?xml version="1.0" encoding="utf-8"?>
<!-- Generator: Adobe Illustrator 22.0.0, SVG Export Plug-In . SVG Version: 6.00 Build 0)  -->
<svg version="1.1" id="图层_1" xmlns="http://www.w3.org/2000/svg" xmlns:xlink="http://www.w3.org/1999/xlink" x="0px" y="0px"
	 viewBox="0 0 1024 1024" style="enable-background:new 0 0 1024 1024;" xml:space="preserve">
<style type="text/css">
	.st0{fill:#9DA7B2;}
</style>
<path class="st0" d="M548,818c0,19.9-16.1,36-36,36s-36-16.1-36-36s16.1-36,36-36S548,798.1,548,818z M548,682v-58.8
	c47.2-7.4,90.8-29.5,125.2-64C716.3,516.2,740,458.9,740,398s-23.7-118.2-66.8-161.2C630.2,193.7,572.9,170,512,170
	s-118.2,23.7-161.2,66.8C307.7,279.8,284,337.1,284,398c0,19.9,16.1,36,36,36s36-16.1,36-36c0-86,70-156,156-156s156,70,156,156
	s-70,156-156,156c-19.9,0-36,16.1-36,36v92c0,19.9,16.1,36,36,36S548,701.9,548,682z"/>
</svg>
