<?xml version="1.0" encoding="utf-8"?>
<!-- Generator: Adobe Illustrator 22.0.0, SVG Export Plug-In . SVG Version: 6.00 Build 0)  -->
<svg version="1.1" id="图层_1" xmlns="http://www.w3.org/2000/svg" xmlns:xlink="http://www.w3.org/1999/xlink" x="0px" y="0px"
	 viewBox="0 0 1024 1024" style="enable-background:new 0 0 1024 1024;" xml:space="preserve">
<style type="text/css">
	.st0{fill:#9DA7B2;}
</style>
<path class="st0" d="M548,796c0,19.9-16.1,36-36,36s-36-16.1-36-36s16.1-36,36-36S548,776.1,548,796z M548,696V376
	c0-19.9-16.1-36-36-36s-36,16.1-36,36v320c0,19.9,16.1,36,36,36S548,715.9,548,696z M1005.1,914c18.1-31.3,18.1-68.7,0-100
	L598.6,110c-18.1-31.3-50.5-50-86.6-50s-68.5,18.7-86.6,50L18.9,814c-18.1,31.3-18.1,68.7,0,100c18.1,31.3,50.5,50,86.6,50h812.9
	C954.6,964,987,945.3,1005.1,914z M487.8,146c7.3-12.6,19.4-14,24.2-14s17,1.4,24.2,14l406.5,704c7.3,12.6,2.4,23.8,0,28
	s-9.7,14-24.2,14H105.5c-14.6,0-21.8-9.8-24.2-14s-7.3-15.4,0-28L487.8,146l-31.2-18L487.8,146z"/>
</svg>
