<?xml version="1.0" encoding="utf-8"?>
<!-- Generator: Adobe Illustrator 22.0.0, SVG Export Plug-In . SVG Version: 6.00 Build 0)  -->
<svg version="1.1" id="图层_1" xmlns="http://www.w3.org/2000/svg" xmlns:xlink="http://www.w3.org/1999/xlink" x="0px" y="0px"
	 viewBox="0 0 1024 1024" style="enable-background:new 0 0 1024 1024;" xml:space="preserve">
<style type="text/css">
	.st0{fill:#9DA7B2;}
</style>
<path class="st0" d="M691.6,691.6c-14.1,14.1-36.9,14.1-50.9,0L510.6,561.5L380.5,691.6c-14.1,14.1-36.9,14.1-50.9,0
	c-14.1-14.1-14.1-36.9,0-50.9l130.1-130.1L329.6,380.5c-14.1-14.1-14.1-36.9,0-50.9c14.1-14.1,36.9-14.1,50.9,0l130.1,130.1
	l130.1-130.1c14.1-14.1,36.9-14.1,50.9,0c14.1,14.1,14.1,36.9,0,50.9L561.5,510.6l130.1,130.1C705.7,654.8,705.7,677.6,691.6,691.6z
	 M1023.1,512.5c0,282.5-229,511.5-511.5,511.5C229,1024,0,795,0,512.5S229,0.9,511.5,0.9C794,0.9,1023.1,230,1023.1,512.5z
	 M951.1,512.5c0-242.7-196.8-439.5-439.5-439.5S72,269.7,72,512.5S268.8,952,511.5,952S951.1,755.2,951.1,512.5z"/>
</svg>
