<?xml version="1.0" encoding="utf-8"?>
<!-- Generator: Adobe Illustrator 21.0.2, SVG Export Plug-In . SVG Version: 6.00 Build 0)  -->
<svg version="1.1" id="图层_1" xmlns="http://www.w3.org/2000/svg" xmlns:xlink="http://www.w3.org/1999/xlink" x="0px" y="0px"
	 viewBox="0 0 1024 1024" style="enable-background:new 0 0 1024 1024;" xml:space="preserve">
<style type="text/css">
	.st0{fill:#9DA7B2;}
	.st1{fill:#999999;}
</style>
<path class="st0" d="M868,632c0,5.2-1.1,10.4-3.4,15.3C858.7,659.9,846,668,832,668H548v256c0,19.9-16.1,36-36,36s-36-16.1-36-36
	V668H192c-14,0-26.7-8.1-32.6-20.7c-5.9-12.6-4-27.6,4.9-38.3l320-384c6.8-8.2,17-13,27.7-13s20.8,4.7,27.7,13l320,384
	C865.2,615.6,868,623.7,868,632z M192,136h640c19.9,0,36-16.1,36-36s-16.1-36-36-36H192c-19.9,0-36,16.1-36,36S172.1,136,192,136z"
	/>
</svg>
