<?xml version="1.0" encoding="utf-8"?>
<!-- Generator: Adobe Illustrator 22.0.0, SVG Export Plug-In . SVG Version: 6.00 Build 0)  -->
<svg version="1.1" id="图层_1" xmlns="http://www.w3.org/2000/svg" xmlns:xlink="http://www.w3.org/1999/xlink" x="0px" y="0px"
	 viewBox="0 0 1024 1024" style="enable-background:new 0 0 1024 1024;" xml:space="preserve">
<style type="text/css">
	.st0{fill:#9DA7B2;}
</style>
<path class="st0" d="M544,868c-8.1,0-16.3-2.7-23-8.3l-384-320c-8.2-6.8-13-17-13-27.7c0-10.7,4.7-20.8,13-27.7l384-320
	c15.3-12.7,38-10.7,50.7,4.6c12.7,15.3,10.7,38-4.6,50.7L216.2,512L567,804.3c15.3,12.7,17.3,35.4,4.6,50.7
	C564.5,863.6,554.3,868,544,868z M891.7,855c12.7-15.3,10.7-38-4.6-50.7L536.2,512L887,219.7c15.3-12.7,17.3-35.4,4.6-50.7
	c-12.7-15.3-35.4-17.3-50.7-4.6l-384,320c-8.2,6.8-13,17-13,27.7c0,10.7,4.7,20.8,13,27.7l384,320c6.7,5.6,14.9,8.3,23,8.3
	C874.3,868,884.5,863.6,891.7,855z"/>
</svg>
