<?xml version="1.0" encoding="utf-8"?>
<!-- Generator: Adobe Illustrator 22.0.0, SVG Export Plug-In . SVG Version: 6.00 Build 0)  -->
<svg version="1.1" id="图层_1" xmlns="http://www.w3.org/2000/svg" xmlns:xlink="http://www.w3.org/1999/xlink" x="0px" y="0px"
	 viewBox="0 0 1024 1025" style="enable-background:new 0 0 1024 1025;" xml:space="preserve">
<style type="text/css">
	.st0{fill:#9DA7B2;}
</style>
<path class="st0" d="M1024,512.5c0-282.8-229.2-512-512-512S0,229.7,0,512.5s229.2,512,512,512S1024,795.3,1024,512.5z M555.5,771.7
	l-233-233c-7-7-10.5-16.2-10.5-25.5s3.5-18.4,10.5-25.5L557,253.3c14.1-14.1,36.9-14.1,50.9,0c14.1,14.1,14.1,36.9,0,50.9l-209,209
	l207.5,207.5c14.1,14.1,14.1,36.9,0,50.9C592.4,785.8,569.6,785.8,555.5,771.7z"/>
</svg>
