<?xml version="1.0" encoding="utf-8"?>
<!-- Generator: Adobe Illustrator 22.0.0, SVG Export Plug-In . SVG Version: 6.00 Build 0)  -->
<svg version="1.1" id="图层_1" xmlns="http://www.w3.org/2000/svg" xmlns:xlink="http://www.w3.org/1999/xlink" x="0px" y="0px"
	 viewBox="0 0 1024 1024" style="enable-background:new 0 0 1024 1024;" xml:space="preserve">
<style type="text/css">
	.st0{fill:#9DA7B2;}
</style>
<path class="st0" d="M858.1,840h-704c-19.9,0-36-16.1-36-36s16.1-36,36-36h704c19.9,0,36,16.1,36,36S877.9,840,858.1,840z
	 M894.1,220c0-19.9-16.1-36-36-36h-704c-19.9,0-36,16.1-36,36s16.1,36,36,36h704C877.9,256,894.1,239.9,894.1,220z M894.1,512
	c0-19.9-16.1-36-36-36h-512c-19.9,0-36,16.1-36,36s16.1,36,36,36h512C877.9,548,894.1,531.9,894.1,512z M307.5,665.5
	c14.1-14.1,14.1-36.9,0-50.9L205,512l102.5-102.5c14.1-14.1,14.1-36.9,0-50.9c-14.1-14.1-36.9-14.1-50.9,0l-128,128
	c-14.1,14.1-14.1,36.9,0,50.9l128,128c7,7,16.2,10.5,25.5,10.5S300.5,672.5,307.5,665.5z"/>
</svg>
