<?xml version="1.0" encoding="utf-8"?>
<!-- Generator: Adobe Illustrator 22.0.0, SVG Export Plug-In . SVG Version: 6.00 Build 0)  -->
<svg version="1.1" id="图层_1" xmlns="http://www.w3.org/2000/svg" xmlns:xlink="http://www.w3.org/1999/xlink" x="0px" y="0px"
	 viewBox="0 0 1024 1024" style="enable-background:new 0 0 1024 1024;" xml:space="preserve">
<style type="text/css">
	.st0{fill:#9DA7B2;}
</style>
<path class="st0" d="M886.1,887.8L886.1,887.8L886.1,887.8 M886.1,888L886.1,888L886.1,888 M886.1,136.1v751.7c0,0-0.1,0.1-0.1,0.1
	l-751.7,0c0,0-0.1-0.1-0.1-0.1l0-751.7c0,0,0.1-0.1,0.1-0.1l751.7,0C886,136,886,136.1,886.1,136.1 M958.1,136c0-39.6-32.4-72-72-72
	h-752c-39.6,0-72,32.4-72,72v752c0,39.6,32.4,72,72,72h752c39.6,0,72-32.4,72-72V136L958.1,136z M688.6,510.8
	c0-9.2-3.5-18.4-10.5-25.5L443.5,250.8c-14.1-14.1-36.9-14.1-50.9,0c-14.1,14.1-14.1,36.9,0,50.9l209,209L394.1,718.3
	c-14.1,14.1-14.1,36.9,0,50.9c14.1,14.1,36.9,14.1,50.9,0l233-233C685,529.2,688.6,520,688.6,510.8z"/>
</svg>
