<?xml version="1.0" encoding="utf-8"?>
<!-- Generator: Adobe Illustrator 22.0.0, SVG Export Plug-In . SVG Version: 6.00 Build 0)  -->
<svg version="1.1" id="图层_1" xmlns="http://www.w3.org/2000/svg" xmlns:xlink="http://www.w3.org/1999/xlink" x="0px" y="0px"
	 viewBox="0 0 1024 1024" style="enable-background:new 0 0 1024 1024;" xml:space="preserve">
<style type="text/css">
	.st0{fill:#9DA7B2;}
</style>
<path class="st0" d="M512,1024c282.8,0,512-229.2,512-512S794.8,0,512,0S0,229.2,0,512S229.2,1024,512,1024z M252.8,555.5l233-233
	c7-7,16.2-10.5,25.5-10.5s18.4,3.5,25.5,10.5L771.2,557c14.1,14.1,14.1,36.9,0,50.9c-14.1,14.1-36.9,14.1-50.9,0l-209-209
	L303.7,606.5c-14.1,14.1-36.9,14.1-50.9,0C238.7,592.4,238.7,569.6,252.8,555.5z"/>
</svg>
