<?xml version="1.0" encoding="utf-8"?>
<!-- Generator: Adobe Illustrator 22.0.0, SVG Export Plug-In . SVG Version: 6.00 Build 0)  -->
<svg version="1.1" id="图层_1" xmlns="http://www.w3.org/2000/svg" xmlns:xlink="http://www.w3.org/1999/xlink" x="0px" y="0px"
	 viewBox="0 0 1024 1024" style="enable-background:new 0 0 1024 1024;" xml:space="preserve">
<style type="text/css">
	.st0{fill:#9DA7B2;}
</style>
<path class="st0" d="M84.7,159.4c12.6-5.9,27.6-4,38.3,4.9l381,317.5V192c0-14,8.1-26.7,20.7-32.6c12.6-5.9,27.6-4,38.3,4.9l384,320
	c8.2,6.8,13,17,13,27.7s-4.7,20.8-13,27.7l-384,320c-6.6,5.5-14.8,8.3-23.1,8.3c-5.2,0-10.4-1.1-15.3-3.4
	C512.1,858.7,504,846,504,832V542.2L123,859.7c-6.6,5.5-14.8,8.3-23.1,8.3c-5.2,0-10.4-1.1-15.3-3.4C72.1,858.7,64,846,64,832V192
	C64,178,72.1,165.3,84.7,159.4z"/>
</svg>
