<?xml version="1.0" encoding="utf-8"?>
<!-- Generator: Adobe Illustrator 22.0.0, SVG Export Plug-In . SVG Version: 6.00 Build 0)  -->
<svg version="1.1" id="图层_1" xmlns="http://www.w3.org/2000/svg" xmlns:xlink="http://www.w3.org/1999/xlink" x="0px" y="0px"
	 viewBox="0 0 1024 1024" style="enable-background:new 0 0 1024 1024;" xml:space="preserve">
<style type="text/css">
	.st0{fill:#9DA7B2;}
</style>
<path class="st0" d="M293,804.3L643.8,512L293,219.7c-15.3-12.7-17.3-35.4-4.6-50.7c12.7-15.3,35.4-17.3,50.7-4.6l333,277.5v-266
	c0-19.9,16.1-36,36-36s36,16.1,36,36v672.3c0,19.9-16.1,36-36,36s-36-16.1-36-36v-266L339,859.7c-6.7,5.6-14.9,8.3-23,8.3
	c-10.3,0-20.6-4.4-27.7-13C275.6,839.8,277.7,817.1,293,804.3z"/>
</svg>
