<?xml version="1.0" encoding="utf-8"?>
<!-- Generator: Adobe Illustrator 22.0.0, SVG Export Plug-In . SVG Version: 6.00 Build 0)  -->
<svg version="1.1" id="图层_1" xmlns="http://www.w3.org/2000/svg" xmlns:xlink="http://www.w3.org/1999/xlink" x="0px" y="0px"
	 viewBox="0 0 1024 1024" style="enable-background:new 0 0 1024 1024;" xml:space="preserve">
<style type="text/css">
	.st0{fill:#9DA7B2;}
</style>
<path class="st0" d="M735.7,855c-7.1,8.5-17.4,13-27.7,13c-8.1,0-16.3-2.7-23-8.3L352,582.2v266c0,19.9-16.1,36-36,36
	s-36-16.1-36-36V175.9c0-19.9,16.1-36,36-36s36,16.1,36,36v266l333-277.5c15.3-12.7,38-10.7,50.7,4.6c12.7,15.3,10.7,38-4.6,50.7
	L380.2,512L731,804.3C746.3,817.1,748.4,839.8,735.7,855z"/>
</svg>
