<?xml version="1.0" encoding="utf-8"?>
<!-- Generator: Adobe Illustrator 21.0.2, SVG Export Plug-In . SVG Version: 6.00 Build 0)  -->
<svg version="1.1" id="图层_1" xmlns="http://www.w3.org/2000/svg" xmlns:xlink="http://www.w3.org/1999/xlink" x="0px" y="0px"
	 viewBox="0 0 1024 1024" style="enable-background:new 0 0 1024 1024;" xml:space="preserve">
<style type="text/css">
	.st0{fill:#9DA7B2;}
	.st1{fill:#999999;}
</style>
<path class="st0" d="M950.6,125.4L125.5,946c-14,14-36.9,14-50.9,0l0,0c-14-14-14-36.9,0-50.9l825-820.6c14-14,36.9-14,50.9,0v0
	C964.6,88.5,964.6,111.4,950.6,125.4z M947.9,400.8L947.9,400.8c-14-14-36.9-14-50.9,0L404.8,892.9c-14,14-14,36.9,0,50.9l0,0
	c14,14,36.9,14,50.9,0l492.1-492.1C961.9,437.7,961.9,414.8,947.9,400.8z M957.7,719.1L957.7,719.1c-14-14-36.9-14-50.9,0
	L722.7,903.1c-14,14-14,36.9,0,50.9l0,0c14,14,36.9,14,50.9,0L957.7,770C971.7,756,971.7,733.1,957.7,719.1z"/>
</svg>
