<?xml version="1.0" encoding="utf-8"?>
<!-- Generator: Adobe Illustrator 21.0.2, SVG Export Plug-In . SVG Version: 6.00 Build 0)  -->
<svg version="1.1" id="图层_1" xmlns="http://www.w3.org/2000/svg" xmlns:xlink="http://www.w3.org/1999/xlink" x="0px" y="0px"
	 viewBox="0 0 1024 1024" style="enable-background:new 0 0 1024 1024;" xml:space="preserve">
<style type="text/css">
	.st0{fill:#9DA7B2;}
</style>
<path class="st0" d="M823.6,203c-33.4-14.6-65.7-15-69.3-15H608c-19.9,0-36,16.1-36,36s16.1,36,36,36h146.1c1.1,0,22.4,0.6,42.1,9.7
	c22,10.1,31.8,25.7,31.8,50.3v191.7c-0.1,1.4-0.9,17.5-10,32.3c-11.7,18.9-32.5,28.1-63.7,28.1H572h-37.1H246.9l130.5-130.5
	c14.1-14.1,14.1-36.9,0-50.9c-7-7-16.2-10.5-25.5-10.5s-18.4,3.5-25.5,10.5l-192,192c-14.1,14.1-14.1,36.9,0,50.9l192,192
	c14.1,14.1,36.9,14.1,50.9,0c14.1-14.1,14.1-36.9,0-50.9L246.9,644h287.9H572h182.3c31.5,0,58.9-6.7,81.6-19.9
	c19.2-11.2,34.6-26.7,45.7-46.2c17.9-31.4,18.5-62.4,18.5-65.9V320C900,266.1,872.9,224.6,823.6,203z"/>
</svg>
