<?xml version="1.0" encoding="utf-8"?>
<!-- Generator: Adobe Illustrator 22.0.0, SVG Export Plug-In . SVG Version: 6.00 Build 0)  -->
<svg version="1.1" id="图层_1" xmlns="http://www.w3.org/2000/svg" xmlns:xlink="http://www.w3.org/1999/xlink" x="0px" y="0px"
	 viewBox="0 0 1024 1025" style="enable-background:new 0 0 1024 1025;" xml:space="preserve">
<style type="text/css">
	.st0{fill:#9DA7B2;}
</style>
<path class="st0" d="M518.5,858c-7-7-10.5-16.2-10.5-25.5s3.5-18.4,10.5-25.5l258.5-258.5H160c-19.9,0-36-16.1-36-36s16.1-36,36-36
	h617.1L518.5,218c-14.1-14.1-14.1-36.9,0-50.9c14.1-14.1,36.9-14.1,50.9,0l320,320c0.1,0.1,0.1,0.1,0.2,0.2c0.4,0.4,0.7,0.7,1,1.1
	c0.2,0.2,0.4,0.5,0.6,0.7c0.2,0.2,0.4,0.4,0.5,0.6c0.2,0.3,0.5,0.6,0.7,0.9c0.1,0.2,0.3,0.3,0.4,0.5c0.2,0.3,0.5,0.6,0.7,1
	c0.1,0.2,0.2,0.3,0.3,0.5c0.2,0.3,0.4,0.7,0.6,1c0.1,0.2,0.2,0.3,0.3,0.5c0.2,0.3,0.4,0.7,0.6,1c0.1,0.2,0.2,0.4,0.3,0.5
	c0.2,0.3,0.3,0.6,0.5,0.9c0.1,0.2,0.2,0.4,0.3,0.6c0.1,0.3,0.3,0.6,0.4,0.9c0.1,0.3,0.2,0.5,0.3,0.8c0.1,0.3,0.2,0.5,0.3,0.8
	c0.1,0.3,0.2,0.6,0.3,0.9c0.1,0.2,0.2,0.5,0.2,0.7c0.1,0.3,0.2,0.7,0.3,1c0.1,0.2,0.1,0.4,0.2,0.6c0.1,0.4,0.2,0.7,0.3,1.1
	c0,0.2,0.1,0.4,0.1,0.6c0.1,0.4,0.2,0.8,0.2,1.1c0,0.2,0.1,0.4,0.1,0.6c0.1,0.4,0.1,0.8,0.2,1.1c0,0.2,0.1,0.5,0.1,0.7
	c0,0.4,0.1,0.7,0.1,1.1c0,0.3,0,0.6,0.1,0.9c0,0.3,0,0.6,0.1,0.8c0.1,1.2,0.1,2.4,0,3.6c0,0.3,0,0.6-0.1,0.8c0,0.3,0,0.6-0.1,0.9
	c0,0.4-0.1,0.7-0.1,1.1c0,0.2-0.1,0.5-0.1,0.7c-0.1,0.4-0.1,0.8-0.2,1.1c0,0.2-0.1,0.4-0.1,0.6c-0.1,0.4-0.2,0.8-0.2,1.1
	c0,0.2-0.1,0.4-0.1,0.6c-0.1,0.4-0.2,0.7-0.3,1.1c-0.1,0.2-0.1,0.4-0.2,0.6c-0.1,0.3-0.2,0.7-0.3,1c-0.1,0.2-0.2,0.5-0.2,0.7
	c-0.1,0.3-0.2,0.6-0.3,0.9c-0.1,0.3-0.2,0.5-0.3,0.8c-0.1,0.3-0.2,0.5-0.3,0.8c-0.1,0.3-0.3,0.6-0.4,0.9c-0.1,0.2-0.2,0.4-0.3,0.6
	c-0.2,0.3-0.3,0.6-0.5,0.9c-0.1,0.2-0.2,0.4-0.3,0.5c-0.2,0.3-0.4,0.7-0.6,1c-0.1,0.2-0.2,0.3-0.3,0.5c-0.2,0.3-0.4,0.7-0.6,1
	c-0.1,0.2-0.2,0.3-0.3,0.5c-0.2,0.3-0.4,0.6-0.7,1c-0.1,0.2-0.3,0.3-0.4,0.5c-0.2,0.3-0.4,0.6-0.7,0.9c-0.2,0.2-0.4,0.4-0.5,0.6
	c-0.2,0.2-0.4,0.5-0.6,0.7c-0.3,0.4-0.7,0.7-1,1.1c-0.1,0.1-0.1,0.1-0.2,0.2l-320,320C555.4,872,532.6,872,518.5,858z"/>
</svg>
