<?xml version="1.0" encoding="utf-8"?>
<!-- Generator: Adobe Illustrator 22.0.0, SVG Export Plug-In . SVG Version: 6.00 Build 0)  -->
<svg version="1.1" id="图层_1" xmlns="http://www.w3.org/2000/svg" xmlns:xlink="http://www.w3.org/1999/xlink" x="0px" y="0px"
	 viewBox="0 0 1024 1025" style="enable-background:new 0 0 1024 1025;" xml:space="preserve">
<style type="text/css">
	.st0{fill:#9DA7B2;}
</style>
<path class="st0" d="M0,512.5c0,282.8,229.2,512,512,512s512-229.2,512-512S794.8,0.5,512,0.5S0,229.7,0,512.5z M468.5,253.3
	l233,233c7,7,10.5,16.2,10.5,25.5s-3.5,18.4-10.5,25.5L467,771.7c-14.1,14.1-36.9,14.1-50.9,0c-14.1-14.1-14.1-36.9,0-50.9l209-209
	L417.5,304.2c-14.1-14.1-14.1-36.9,0-50.9C431.6,239.2,454.4,239.2,468.5,253.3z"/>
</svg>
