<?xml version="1.0" encoding="utf-8"?>
<!-- Generator: Adobe Illustrator 22.0.0, SVG Export Plug-In . SVG Version: 6.00 Build 0)  -->
<svg version="1.1" id="图层_1" xmlns="http://www.w3.org/2000/svg" xmlns:xlink="http://www.w3.org/1999/xlink" x="0px" y="0px"
	 viewBox="0 0 1024 1025" style="enable-background:new 0 0 1024 1025;" xml:space="preserve">
<style type="text/css">
	.st0{fill:#9DA7B2;}
</style>
<path class="st0" d="M166.5,519c7-7,16.2-10.5,25.5-10.5s18.4,3.5,25.5,10.5L476,777.6V160.5c0-19.9,16.1-36,36-36s36,16.1,36,36
	v617.1L806.5,519c14.1-14.1,36.9-14.1,50.9,0c14.1,14.1,14.1,36.9,0,50.9l-320,320c-0.1,0.1-0.1,0.1-0.2,0.2c-0.4,0.4-0.7,0.7-1.1,1
	c-0.2,0.2-0.5,0.4-0.7,0.6c-0.2,0.2-0.4,0.4-0.6,0.5c-0.3,0.2-0.6,0.5-0.9,0.7c-0.2,0.1-0.3,0.3-0.5,0.4c-0.3,0.2-0.6,0.5-1,0.7
	c-0.2,0.1-0.3,0.2-0.5,0.3c-0.3,0.2-0.7,0.4-1,0.6c-0.2,0.1-0.3,0.2-0.5,0.3c-0.3,0.2-0.7,0.4-1,0.6c-0.2,0.1-0.4,0.2-0.5,0.3
	c-0.3,0.2-0.6,0.3-0.9,0.5c-0.2,0.1-0.4,0.2-0.6,0.3c-0.3,0.1-0.6,0.3-0.9,0.4c-0.3,0.1-0.5,0.2-0.8,0.3c-0.3,0.1-0.5,0.2-0.8,0.3
	c-0.3,0.1-0.6,0.2-0.9,0.3c-0.2,0.1-0.5,0.2-0.7,0.2c-0.3,0.1-0.7,0.2-1,0.3c-0.2,0.1-0.4,0.1-0.6,0.2c-0.4,0.1-0.7,0.2-1.1,0.3
	c-0.2,0-0.4,0.1-0.6,0.1c-0.4,0.1-0.8,0.2-1.1,0.2c-0.2,0-0.4,0.1-0.6,0.1c-0.4,0.1-0.8,0.1-1.1,0.2c-0.2,0-0.5,0.1-0.7,0.1
	c-0.4,0-0.7,0.1-1.1,0.1c-0.3,0-0.6,0-0.9,0.1c-0.3,0-0.6,0-0.8,0.1c-1.2,0.1-2.4,0.1-3.6,0c-0.3,0-0.6,0-0.8-0.1
	c-0.3,0-0.6,0-0.9-0.1c-0.4,0-0.7-0.1-1.1-0.1c-0.2,0-0.5-0.1-0.7-0.1c-0.4-0.1-0.8-0.1-1.1-0.2c-0.2,0-0.4-0.1-0.6-0.1
	c-0.4-0.1-0.8-0.2-1.1-0.2c-0.2,0-0.4-0.1-0.6-0.1c-0.4-0.1-0.7-0.2-1.1-0.3c-0.2-0.1-0.4-0.1-0.6-0.2c-0.3-0.1-0.7-0.2-1-0.3
	c-0.2-0.1-0.5-0.2-0.7-0.2c-0.3-0.1-0.6-0.2-0.9-0.3c-0.3-0.1-0.5-0.2-0.8-0.3c-0.3-0.1-0.5-0.2-0.8-0.3c-0.3-0.1-0.6-0.3-0.9-0.4
	c-0.2-0.1-0.4-0.2-0.6-0.3c-0.3-0.2-0.6-0.3-0.9-0.5c-0.2-0.1-0.4-0.2-0.5-0.3c-0.3-0.2-0.7-0.4-1-0.6c-0.2-0.1-0.3-0.2-0.5-0.3
	c-0.3-0.2-0.7-0.4-1-0.6c-0.2-0.1-0.3-0.2-0.5-0.3c-0.3-0.2-0.6-0.4-1-0.7c-0.2-0.1-0.3-0.3-0.5-0.4c-0.3-0.2-0.6-0.4-0.9-0.7
	c-0.2-0.2-0.4-0.4-0.6-0.5c-0.2-0.2-0.5-0.4-0.7-0.6c-0.4-0.3-0.7-0.7-1.1-1c-0.1-0.1-0.1-0.1-0.2-0.2l-320-320
	C152.5,555.9,152.5,533.1,166.5,519z"/>
</svg>
