<?xml version="1.0" encoding="utf-8"?>
<!-- Generator: Adobe Illustrator 22.0.0, SVG Export Plug-In . SVG Version: 6.00 Build 0)  -->
<svg version="1.1" id="图层_1" xmlns="http://www.w3.org/2000/svg" xmlns:xlink="http://www.w3.org/1999/xlink" x="0px" y="0px"
	 viewBox="0 0 1024 1024" style="enable-background:new 0 0 1024 1024;" xml:space="preserve">
<style type="text/css">
	.st0{fill:#9DA7B2;}
</style>
<path class="st0" d="M900,607.2l0,0.8v224c0,19.9-16.1,36-36,36s-36-16.1-36-36l0-224.8c0-15.8,0-63.8-23.6-107.3
	c-28.8-53-84-79.9-164.2-79.9H246.9l130.5,130.5c14.1,14.1,14.1,36.9,0,50.9c-7,7-16.2,10.5-25.5,10.5s-18.4-3.5-25.5-10.5l-192-192
	c-14.1-14.1-14.1-36.9,0-50.9l192-192c14.1-14.1,36.9-14.1,50.9,0c14.1,14.1,14.1,36.9,0,50.9L246.9,348h393.3
	c135.3,0,198.4,63.9,227.5,117.6C889.2,505.1,900,552.7,900,607.2z"/>
</svg>
