<?xml version="1.0" encoding="utf-8"?>
<!-- Generator: Adobe Illustrator 22.0.0, SVG Export Plug-In . SVG Version: 6.00 Build 0)  -->
<svg version="1.1" id="图层_1" xmlns="http://www.w3.org/2000/svg" xmlns:xlink="http://www.w3.org/1999/xlink" x="0px" y="0px"
	 viewBox="0 0 1024 1024" style="enable-background:new 0 0 1024 1024;" xml:space="preserve">
<style type="text/css">
	.st0{fill:#9DA7B2;}
</style>
<path class="st0" d="M810.3,131.3c141.5,111.6,212.1,298,175.9,477.1C941.2,831.4,739.1,996,511.8,996
	c-199,0-382.4-126.4-452.8-312.7c-72-190.6-14-411.4,142-542.2c4-3.4,8.1-6.7,12.2-9.9c14.6-11.4,35.3-10.3,48.4,2.8l0,0
	c15.5,15.5,13.9,41-3.3,54.5c-59.5,46.5-106.7,109-133.5,182.1c-59.6,162.4-8.2,349.2,125,459.2C383.4,940,577.3,954.3,725.3,864.3
	c147.2-89.5,224.8-266.1,190.1-435.1c-20-97.3-75.3-181.6-150.5-240.5c-17.2-13.4-18.6-39-3.2-54.4l0.2-0.2
	C775,121.1,795.8,119.9,810.3,131.3z M547.4,568.6v-505c0-19.7-16-35.6-35.6-35.6h0c-19.7,0-35.6,16-35.6,35.6v505
	c0,19.7,16,35.6,35.6,35.6h0C531.5,604.3,547.4,588.3,547.4,568.6z"/>
</svg>
