<?xml version="1.0" encoding="utf-8"?>
<!-- Generator: Adobe Illustrator 22.0.0, SVG Export Plug-In . SVG Version: 6.00 Build 0)  -->
<svg version="1.1" id="图层_1" xmlns="http://www.w3.org/2000/svg" xmlns:xlink="http://www.w3.org/1999/xlink" x="0px" y="0px"
	 viewBox="0 0 1024 1024" style="enable-background:new 0 0 1024 1024;" xml:space="preserve">
<style type="text/css">
	.st0{fill:#9DA7B2;}
</style>
<path class="st0" d="M829.5,320.5l-192,192c-7,7-16.2,10.5-25.5,10.5s-18.4-3.5-25.5-10.5c-14.1-14.1-14.1-36.9,0-50.9L717.1,331
	h-425c-1.3,0-42.5,0.8-82,21.2C160.3,378,136,422.1,136,487v64c0,19.9-16.1,36-36,36s-36-16.1-36-36v-64c0-51,12.1-95.1,36-131
	c19.4-29.2,46.3-52.5,79.9-69.2c55-27.5,109.8-27.8,112.1-27.8h425.1L583.5,125.5c-14.1-14.1-14.1-36.9,0-50.9
	c14.1-14.1,36.9-14.1,50.9,0l195,195C843.5,283.6,843.5,306.4,829.5,320.5z M194.5,754.5l195,195c14.1,14.1,36.9,14.1,50.9,0
	c14.1-14.1,14.1-36.9,0-50.9L306.9,765H732c2.3,0,57.1-0.3,112.1-27.8c33.5-16.8,60.4-40.1,79.9-69.2c23.9-35.9,36-79.9,36-131v-64
	c0-19.9-16.1-36-36-36s-36,16.1-36,36v64c0,64.9-24.3,109-74.2,134.8c-39.4,20.4-80.7,21.2-82,21.2h-425l130.5-130.5
	c14.1-14.1,14.1-36.9,0-50.9c-7-7-16.2-10.5-25.5-10.5s-18.4,3.5-25.5,10.5l-192,192C180.5,717.6,180.5,740.4,194.5,754.5z"/>
</svg>
