<?xml version="1.0" encoding="utf-8"?>
<!-- Generator: Adobe Illustrator 22.0.0, SVG Export Plug-In . SVG Version: 6.00 Build 0)  -->
<svg version="1.1" id="图层_1" xmlns="http://www.w3.org/2000/svg" xmlns:xlink="http://www.w3.org/1999/xlink" x="0px" y="0px"
	 viewBox="0 0 1024 1025" style="enable-background:new 0 0 1024 1025;" xml:space="preserve">
<style type="text/css">
	.st0{fill:#9DA7B2;}
</style>
<path class="st0" d="M312.5,514.2c0-9.2,3.5-18.4,10.5-25.5l234.5-234.5c14.1-14.1,36.9-14.1,50.9,0c14.1,14.1,14.1,36.9,0,50.9
	l-209,209l207.5,207.5c14.1,14.1,14.1,36.9,0,50.9c-14.1,14.1-36.9,14.1-50.9,0l-233-233C316,532.7,312.5,523.4,312.5,514.2z
	 M1023.5,512.5c0,282.5-229,511.5-511.5,511.5C229.5,1024,0.5,795,0.5,512.5S229.5,1,512,1C794.5,1,1023.5,230,1023.5,512.5z
	 M951.5,512.5C951.5,269.8,754.7,73,512,73S72.5,269.8,72.5,512.5S269.3,952,512,952S951.5,755.2,951.5,512.5z"/>
</svg>
