<?xml version="1.0" encoding="utf-8"?>
<!-- Generator: Adobe Illustrator 22.0.0, SVG Export Plug-In . SVG Version: 6.00 Build 0)  -->
<svg version="1.1" id="图层_1" xmlns="http://www.w3.org/2000/svg" xmlns:xlink="http://www.w3.org/1999/xlink" x="0px" y="0px"
	 viewBox="0 0 1024 1024" style="enable-background:new 0 0 1024 1024;" xml:space="preserve">
<style type="text/css">
	.st0{fill:#9DA7B2;}
</style>
<path class="st0" d="M885.8,888.1L885.8,888.1L885.8,888.1 M886.1,888L886.1,888L886.1,888 M134.2,888c0,0-0.1-0.1-0.1-0.1l0-751.7
	c0,0,0.1-0.1,0.1-0.1l751.7,0c0,0,0.1,0.1,0.1,0.1l0,751.7c0,0-0.1,0.1-0.1,0.1H134.2 M134.1,960h752c39.6,0,72-32.4,72-72V136
	c0-39.6-32.4-72-72-72h-752c-39.6,0-72,32.4-72,72v752C62.1,927.6,94.5,960,134.1,960L134.1,960z M534.3,680l233-233
	c14.1-14.1,14.1-36.9,0-50.9c-14.1-14.1-36.9-14.1-50.9,0L508.9,603.6l-209-209c-14.1-14.1-36.9-14.1-50.9,0
	c-14.1,14.1-14.1,36.9,0,50.9L483.4,680c7,7,16.2,10.5,25.5,10.5C518.1,690.5,527.3,687,534.3,680z"/>
</svg>
