<?xml version="1.0" encoding="utf-8"?>
<!-- Generator: Adobe Illustrator 22.0.0, SVG Export Plug-In . SVG Version: 6.00 Build 0)  -->
<svg version="1.1" id="图层_1" xmlns="http://www.w3.org/2000/svg" xmlns:xlink="http://www.w3.org/1999/xlink" x="0px" y="0px"
	 viewBox="0 0 1024 1024" style="enable-background:new 0 0 1024 1024;" xml:space="preserve">
<style type="text/css">
	.st0{fill:#9DA7B2;}
</style>
<path class="st0" d="M128,164L128,164c0-19.8,16.2-36,36-36h696c19.8,0,36,16.2,36,36v0c0,19.8-16.2,36-36,36H164
	C144.2,200,128,183.8,128,164z M383.4,432H860c19.8,0,36-16.2,36-36v0c0-19.8-16.2-36-36-36H383.4c-19.8,0-36,16.2-36,36v0
	C347.4,415.8,363.6,432,383.4,432z M164,664h696c19.8,0,36-16.2,36-36v0c0-19.8-16.2-36-36-36H164c-19.8,0-36,16.2-36,36v0
	C128,647.8,144.2,664,164,664z M438.3,896H860c19.8,0,36-16.2,36-36v0c0-19.8-16.2-36-36-36H438.3c-19.8,0-36,16.2-36,36v0
	C402.3,879.8,418.5,896,438.3,896z"/>
</svg>
