<?xml version="1.0" encoding="utf-8"?>
<!-- Generator: Adobe Illustrator 22.0.0, SVG Export Plug-In . SVG Version: 6.00 Build 0)  -->
<svg version="1.1" id="图层_1" xmlns="http://www.w3.org/2000/svg" xmlns:xlink="http://www.w3.org/1999/xlink" x="0px" y="0px"
	 viewBox="0 0 1024 1024" style="enable-background:new 0 0 1024 1024;" xml:space="preserve">
<style type="text/css">
	.st0{fill:#9DA7B2;}
</style>
<path class="st0" d="M124,804c0-19.9,16.1-36,36-36h704c19.9,0,36,16.1,36,36s-16.1,36-36,36H160C140.1,840,124,823.9,124,804z
	 M160,256h704c19.9,0,36-16.1,36-36s-16.1-36-36-36H160c-19.9,0-36,16.1-36,36S140.1,256,160,256z M160,548h512
	c19.9,0,36-16.1,36-36s-16.1-36-36-36H160c-19.9,0-36,16.1-36,36S140.1,548,160,548z M736,676c9.2,0,18.4-3.5,25.5-10.5l128-128
	c14.1-14.1,14.1-36.9,0-50.9l-128-128c-14.1-14.1-36.9-14.1-50.9,0c-14.1,14.1-14.1,36.9,0,50.9L813.1,512L710.5,614.5
	c-14.1,14.1-14.1,36.9,0,50.9C717.6,672.5,726.8,676,736,676z"/>
</svg>
