<?xml version="1.0" encoding="utf-8"?>
<!-- Generator: Adobe Illustrator 21.0.2, SVG Export Plug-In . SVG Version: 6.00 Build 0)  -->
<svg version="1.1" id="图层_1" xmlns="http://www.w3.org/2000/svg" xmlns:xlink="http://www.w3.org/1999/xlink" x="0px" y="0px"
	 viewBox="0 0 1024 1024" style="enable-background:new 0 0 1024 1024;" xml:space="preserve">
<style type="text/css">
	.st0{fill:#9DA7B2;}
	.st1{fill:#999999;}
</style>
<path class="st0" d="M868,616.4c0,8.1-2.7,16.3-8.3,23l-320,307.3c-6.8,8.2-17,13-27.7,13c-10.7,0-20.8-4.7-27.7-13l-320-307.3
	c-12.7-15.3-10.7-38,4.6-50.7c15.3-12.7,38-10.7,50.7,4.6L512,867.4l292.3-274.1c12.7-15.3,35.4-17.3,50.7-4.6
	C863.6,595.9,868,606.1,868,616.4z M868,406.5c0-8.1-2.7-16.3-8.3-23l-320-307c-6.8-8.2-17-13-27.7-13c-10.7,0-20.8,4.7-27.7,13
	l-320,307c-12.7,15.3-10.7,38,4.6,50.7c15.3,12.7,38,10.7,50.7-4.6L512,155.7l292.3,273.9c12.7,15.3,35.4,17.3,50.7,4.6
	C863.6,427,868,416.8,868,406.5z"/>
</svg>
