<?xml version="1.0" encoding="utf-8"?>
<!-- Generator: Adobe Illustrator 22.0.0, SVG Export Plug-In . SVG Version: 6.00 Build 0)  -->
<svg version="1.1" id="图层_1" xmlns="http://www.w3.org/2000/svg" xmlns:xlink="http://www.w3.org/1999/xlink" x="0px" y="0px"
	 viewBox="0 0 1024 1024" style="enable-background:new 0 0 1024 1024;" xml:space="preserve">
<style type="text/css">
	.st0{fill:#9DA7B2;}
</style>
<path class="st0" d="M136,960h752c39.6,0,72-32.4,72-72V136c0-39.6-32.4-72-72-72H136c-39.6,0-72,32.4-72,72v752
	C64,927.6,96.4,960,136,960z M250.8,387.6c14.1-14.1,36.9-14.1,50.9,0l209,209l207.5-207.5c14.1-14.1,36.9-14.1,50.9,0
	c14.1,14.1,14.1,36.9,0,50.9l-233,233c-7,7-16.2,10.5-25.5,10.5s-18.4-3.5-25.5-10.5L250.8,438.5
	C236.8,424.4,236.8,401.7,250.8,387.6z"/>
</svg>
