<?xml version="1.0" encoding="utf-8"?>
<!-- Generator: Adobe Illustrator 22.0.0, SVG Export Plug-In . SVG Version: 6.00 Build 0)  -->
<svg version="1.1" id="图层_1" xmlns="http://www.w3.org/2000/svg" xmlns:xlink="http://www.w3.org/1999/xlink" x="0px" y="0px"
	 viewBox="0 0 1024 1024" style="enable-background:new 0 0 1024 1024;" xml:space="preserve">
<style type="text/css">
	.st0{fill:#9DA7B2;}
</style>
<path class="st0" d="M860,200H164c-19.8,0-36-16.2-36-36v0c0-19.8,16.2-36,36-36h696c19.8,0,36,16.2,36,36v0
	C896,183.8,879.8,200,860,200z M676.6,396L676.6,396c0-19.8-16.2-36-36-36H164c-19.8,0-36,16.2-36,36v0c0,19.8,16.2,36,36,36h476.6
	C660.4,432,676.6,415.8,676.6,396z M896,628L896,628c0-19.8-16.2-36-36-36H164c-19.8,0-36,16.2-36,36v0c0,19.8,16.2,36,36,36h696
	C879.8,664,896,647.8,896,628z M621.7,860L621.7,860c0-19.8-16.2-36-36-36H164c-19.8,0-36,16.2-36,36v0c0,19.8,16.2,36,36,36h421.7
	C605.5,896,621.7,879.8,621.7,860z"/>
</svg>
