<?xml version="1.0" encoding="utf-8"?>
<!-- Generator: Adobe Illustrator 22.0.0, SVG Export Plug-In . SVG Version: 6.00 Build 0)  -->
<svg version="1.1" id="图层_1" xmlns="http://www.w3.org/2000/svg" xmlns:xlink="http://www.w3.org/1999/xlink" x="0px" y="0px"
	 viewBox="0 0 1024 1024" style="enable-background:new 0 0 1024 1024;" xml:space="preserve">
<style type="text/css">
	.st0{fill:#9DA7B2;}
</style>
<path class="st0" d="M858.1,407.2h-704c-14.6,0-27.7-8.8-33.3-22.2c-5.6-13.5-2.5-28.9,7.8-39.2l192-192c14.1-14.1,36.9-14.1,50.9,0
	c14.1,14.1,14.1,36.9,0,50.9L241,335.2h617.1c19.9,0,36,16.1,36,36S877.9,407.2,858.1,407.2z M118,619.2c0,19.9,16.1,36,36,36h617.1
	L640.6,785.7c-14.1,14.1-14.1,36.9,0,50.9c14.1,14.1,36.9,14.1,50.9,0l192-192c10.3-10.3,13.4-25.8,7.8-39.2
	c-5.6-13.5-18.7-22.2-33.3-22.2H154C134.2,583.2,118,599.3,118,619.2z"/>
</svg>
