<?xml version="1.0" encoding="utf-8"?>
<!-- Generator: Adobe Illustrator 22.0.0, SVG Export Plug-In . SVG Version: 6.00 Build 0)  -->
<svg version="1.1" id="图层_1" xmlns="http://www.w3.org/2000/svg" xmlns:xlink="http://www.w3.org/1999/xlink" x="0px" y="0px"
	 viewBox="0 0 1024 1024" style="enable-background:new 0 0 1024 1024;" xml:space="preserve">
<style type="text/css">
	.st0{fill:#9DA7B2;}
</style>
<path class="st0" d="M868,448c0,19.9-16.1,36-36,36H576c-0.6,0-1.2,0-1.8,0c-0.3,0-0.6,0-0.8-0.1c-0.3,0-0.6,0-0.9-0.1
	c-0.4,0-0.7-0.1-1.1-0.1c-0.2,0-0.5-0.1-0.7-0.1c-0.4-0.1-0.8-0.1-1.1-0.2c-0.2,0-0.4-0.1-0.6-0.1c-0.4-0.1-0.8-0.2-1.1-0.2
	c-0.2,0-0.4-0.1-0.6-0.1c-0.4-0.1-0.7-0.2-1.1-0.3c-0.2-0.1-0.4-0.1-0.6-0.2c-0.3-0.1-0.7-0.2-1-0.3c-0.2-0.1-0.5-0.2-0.7-0.2
	c-0.3-0.1-0.6-0.2-0.9-0.3c-0.3-0.1-0.5-0.2-0.8-0.3c-0.3-0.1-0.5-0.2-0.8-0.3c-0.3-0.1-0.6-0.3-0.9-0.4c-0.2-0.1-0.4-0.2-0.6-0.3
	c-0.3-0.2-0.6-0.3-1-0.5c-0.2-0.1-0.4-0.2-0.5-0.3c-0.3-0.2-0.7-0.4-1-0.6c-0.2-0.1-0.3-0.2-0.5-0.3c-0.3-0.2-0.7-0.4-1-0.7
	c-0.2-0.1-0.3-0.2-0.4-0.3c-0.3-0.2-0.7-0.5-1-0.7c-0.2-0.1-0.3-0.2-0.5-0.4c-0.3-0.2-0.6-0.5-0.9-0.7c-0.2-0.2-0.4-0.3-0.6-0.5
	c-0.2-0.2-0.5-0.4-0.7-0.6c-0.3-0.3-0.7-0.6-1-1c-0.1-0.1-0.2-0.2-0.3-0.2c-0.1-0.1-0.2-0.2-0.2-0.3c-0.3-0.3-0.7-0.7-1-1
	c-0.2-0.2-0.4-0.5-0.6-0.7c-0.2-0.2-0.4-0.4-0.5-0.6c-0.2-0.3-0.5-0.6-0.7-0.9c-0.1-0.2-0.3-0.3-0.4-0.5c-0.2-0.3-0.5-0.6-0.7-1
	c-0.1-0.2-0.2-0.3-0.3-0.5c-0.2-0.3-0.4-0.7-0.6-1c-0.1-0.2-0.2-0.3-0.3-0.5c-0.2-0.3-0.4-0.7-0.6-1c-0.1-0.2-0.2-0.4-0.3-0.5
	c-0.2-0.3-0.3-0.6-0.5-1c-0.1-0.2-0.2-0.4-0.3-0.6c-0.1-0.3-0.3-0.6-0.4-0.9c-0.1-0.3-0.2-0.5-0.3-0.8c-0.1-0.3-0.2-0.5-0.3-0.8
	c-0.1-0.3-0.2-0.6-0.3-0.9c-0.1-0.2-0.2-0.5-0.2-0.7c-0.1-0.3-0.2-0.7-0.3-1c-0.1-0.2-0.1-0.4-0.2-0.6c-0.1-0.4-0.2-0.7-0.3-1.1
	c0-0.2-0.1-0.4-0.1-0.6c-0.1-0.4-0.2-0.8-0.2-1.1c0-0.2-0.1-0.4-0.1-0.6c-0.1-0.4-0.1-0.8-0.2-1.1c0-0.2-0.1-0.5-0.1-0.7
	c0-0.3-0.1-0.7-0.1-1.1c0-0.3,0-0.6-0.1-0.9c0-0.3,0-0.6-0.1-0.8c0-0.6,0-1.2,0-1.8V195.9c0-19.9,16.1-36,36-36s36,16.1,36,36v165.2
	l194.5-194.5c14.1-14.1,36.9-14.1,50.9,0c14.1,14.1,14.1,36.9,0,50.9L662.9,412H832C851.9,412,868,428.1,868,448z M484,574.2
	c0-0.3,0-0.6-0.1-0.8c0-0.3,0-0.6-0.1-0.9c0-0.4-0.1-0.7-0.1-1.1c0-0.2-0.1-0.5-0.1-0.7c-0.1-0.4-0.1-0.8-0.2-1.1
	c0-0.2-0.1-0.4-0.1-0.6c-0.1-0.4-0.2-0.8-0.2-1.1c0-0.2-0.1-0.4-0.1-0.6c-0.1-0.4-0.2-0.7-0.3-1.1c-0.1-0.2-0.1-0.4-0.2-0.6
	c-0.1-0.3-0.2-0.7-0.3-1c-0.1-0.2-0.2-0.5-0.2-0.7c-0.1-0.3-0.2-0.6-0.3-0.9c-0.1-0.3-0.2-0.5-0.3-0.8c-0.1-0.3-0.2-0.5-0.3-0.8
	c-0.1-0.3-0.3-0.6-0.4-0.9c-0.1-0.2-0.2-0.4-0.3-0.6c-0.2-0.3-0.3-0.6-0.5-1c-0.1-0.2-0.2-0.4-0.3-0.5c-0.2-0.3-0.4-0.7-0.6-1
	c-0.1-0.2-0.2-0.3-0.3-0.5c-0.2-0.3-0.4-0.7-0.6-1c-0.1-0.2-0.2-0.3-0.3-0.5c-0.2-0.3-0.4-0.6-0.7-1c-0.1-0.2-0.3-0.3-0.4-0.5
	c-0.2-0.3-0.4-0.6-0.7-0.9c-0.2-0.2-0.4-0.4-0.5-0.6c-0.2-0.2-0.4-0.5-0.6-0.7c-0.3-0.4-0.7-0.7-1-1.1c-0.1-0.1-0.1-0.1-0.2-0.2
	c-0.1-0.1-0.1-0.1-0.2-0.2c-0.4-0.4-0.7-0.7-1.1-1c-0.2-0.2-0.5-0.4-0.7-0.6c-0.2-0.2-0.4-0.4-0.6-0.5c-0.3-0.2-0.6-0.5-0.9-0.7
	c-0.2-0.1-0.3-0.3-0.5-0.4c-0.3-0.2-0.6-0.5-1-0.7c-0.2-0.1-0.3-0.2-0.5-0.3c-0.3-0.2-0.7-0.4-1-0.6c-0.2-0.1-0.3-0.2-0.5-0.3
	c-0.3-0.2-0.7-0.4-1-0.6c-0.2-0.1-0.4-0.2-0.5-0.3c-0.3-0.2-0.6-0.3-0.9-0.5c-0.2-0.1-0.4-0.2-0.6-0.3c-0.3-0.1-0.6-0.3-0.9-0.4
	c-0.3-0.1-0.5-0.2-0.8-0.3c-0.3-0.1-0.5-0.2-0.8-0.3c-0.3-0.1-0.6-0.2-0.9-0.3c-0.2-0.1-0.5-0.2-0.7-0.2c-0.3-0.1-0.7-0.2-1-0.3
	c-0.2-0.1-0.4-0.1-0.6-0.2c-0.4-0.1-0.7-0.2-1.1-0.3c-0.2,0-0.4-0.1-0.6-0.1c-0.4-0.1-0.8-0.2-1.1-0.2c-0.2,0-0.4-0.1-0.6-0.1
	c-0.4-0.1-0.8-0.1-1.1-0.2c-0.2,0-0.5-0.1-0.7-0.1c-0.4,0-0.7-0.1-1.1-0.1c-0.3,0-0.6,0-0.9-0.1c-0.3,0-0.6,0-0.8-0.1
	c-0.6,0-1.2,0-1.8,0H192c-19.9,0-36,16.1-36,36s16.1,36,36,36h169.1L166.5,806.5c-14.1,14.1-14.1,36.9,0,50.9
	c7,7,16.2,10.5,25.5,10.5s18.4-3.5,25.5-10.5L412,662.9v165.2c0,19.9,16.1,36,36,36s36-16.1,36-36V576
	C484,575.4,484,574.8,484,574.2z"/>
</svg>
