<?xml version="1.0" encoding="utf-8"?>
<!-- Generator: Adobe Illustrator 22.0.0, SVG Export Plug-In . SVG Version: 6.00 Build 0)  -->
<svg version="1.1" id="图层_1" xmlns="http://www.w3.org/2000/svg" xmlns:xlink="http://www.w3.org/1999/xlink" x="0px" y="0px"
	 viewBox="0 0 1024 1024" style="enable-background:new 0 0 1024 1024;" xml:space="preserve">
<style type="text/css">
	.st0{fill:#9DA7B2;}
</style>
<path class="st0" d="M960,192v640c0,14-8.1,26.7-20.7,32.6c-4.9,2.3-10.1,3.4-15.3,3.4c-8.3,0-16.5-2.8-23.1-8.3L520,542.2V832
	c0,14-8.1,26.7-20.7,32.6c-4.9,2.3-10.1,3.4-15.3,3.4c-8.3,0-16.5-2.8-23.1-8.3l-384-320c-8.2-6.8-13-17-13-27.7s4.7-20.8,13-27.7
	l384-320c10.7-8.9,25.7-10.9,38.3-4.9C511.9,165.3,520,178,520,192v289.8l381-317.5c10.7-8.9,25.7-10.9,38.3-4.9
	C951.9,165.3,960,178,960,192z"/>
</svg>
