<?xml version="1.0" encoding="utf-8"?>
<!-- Generator: Adobe Illustrator 22.0.0, SVG Export Plug-In . SVG Version: 6.00 Build 0)  -->
<svg version="1.1" id="图层_1" xmlns="http://www.w3.org/2000/svg" xmlns:xlink="http://www.w3.org/1999/xlink" x="0px" y="0px"
	 viewBox="0 0 1024 1024" style="enable-background:new 0 0 1024 1024;" xml:space="preserve">
<style type="text/css">
	.st0{fill:#9DA7B2;}
</style>
<path class="st0" d="M64,136v752c0,39.6,32.4,72,72,72h752c39.6,0,72-32.4,72-72V136c0-39.6-32.4-72-72-72H136
	C96.4,64,64,96.4,64,136z M636.4,250.8c14.1,14.1,14.1,36.9,0,50.9l-209,209l207.5,207.5c14.1,14.1,14.1,36.9,0,50.9
	c-14.1,14.1-36.9,14.1-50.9,0l-233-233c-7-7-10.5-16.2-10.5-25.5s3.5-18.4,10.5-25.5l234.5-234.5
	C599.6,236.8,622.3,236.8,636.4,250.8z"/>
</svg>
