<?xml version="1.0" encoding="utf-8"?>
<!-- Generator: Adobe Illustrator 22.0.0, SVG Export Plug-In . SVG Version: 6.00 Build 0)  -->
<svg version="1.1" id="图层_1" xmlns="http://www.w3.org/2000/svg" xmlns:xlink="http://www.w3.org/1999/xlink" x="0px" y="0px"
	 viewBox="0 0 1024 1024" style="enable-background:new 0 0 1024 1024;" xml:space="preserve">
<style type="text/css">
	.st0{fill:#9DA7B2;}
</style>
<path class="st0" d="M136.2,135.9L136.2,135.9L136.2,135.9 M136,136L136,136L136,136 M887.9,136c0,0,0.1,0.1,0.1,0.1l0,751.7
	c0,0-0.1,0.1-0.1,0.1l-751.7,0c0,0-0.1-0.1-0.1-0.1l0-751.7c0,0,0.1-0.1,0.1-0.1H887.9 M888,64H136c-39.6,0-72,32.4-72,72v752
	c0,39.6,32.4,72,72,72h752c39.6,0,72-32.4,72-72V136C960,96.4,927.6,64,888,64L888,64z M487.7,344l-233,233
	c-14.1,14.1-14.1,36.9,0,50.9c14.1,14.1,36.9,14.1,50.9,0l207.5-207.5l209,209c14.1,14.1,36.9,14.1,50.9,0
	c14.1-14.1,14.1-36.9,0-50.9L538.7,344c-7-7-16.2-10.5-25.5-10.5S494.8,337,487.7,344z"/>
</svg>
