<?xml version="1.0" encoding="utf-8"?>
<!-- Generator: Adobe Illustrator 22.0.0, SVG Export Plug-In . SVG Version: 6.00 Build 0)  -->
<svg version="1.1" id="图层_1" xmlns="http://www.w3.org/2000/svg" xmlns:xlink="http://www.w3.org/1999/xlink" x="0px" y="0px"
	 viewBox="0 0 1024 1024" style="enable-background:new 0 0 1024 1024;" xml:space="preserve">
<style type="text/css">
	.st0{fill:#9DA7B2;}
</style>
<path class="st0" d="M740,192v640c0,19.9-16.1,36-36,36s-36-16.1-36-36V588.9L343,859.7c-6.6,5.5-14.8,8.3-23.1,8.3
	c-5.2,0-10.4-1.1-15.3-3.4C292.1,858.7,284,846,284,832V192c0-14,8.1-26.7,20.7-32.6c12.6-5.9,27.6-4,38.3,4.9l325,270.8V192
	c0-19.9,16.1-36,36-36S740,172.1,740,192z"/>
</svg>
