<?xml version="1.0" encoding="utf-8"?>
<!-- Generator: Adobe Illustrator 22.0.0, SVG Export Plug-In . SVG Version: 6.00 Build 0)  -->
<svg version="1.1" id="图层_1" xmlns="http://www.w3.org/2000/svg" xmlns:xlink="http://www.w3.org/1999/xlink" x="0px" y="0px"
	 viewBox="0 0 1024 1024" style="enable-background:new 0 0 1024 1024;" xml:space="preserve">
<style type="text/css">
	.st0{fill:#9DA7B2;}
</style>
<path class="st0" d="M156.3,465.6C185.4,411.9,248.5,348,383.8,348h393.3L646.5,217.5c-14.1-14.1-14.1-36.9,0-50.9
	c14.1-14.1,36.9-14.1,50.9,0l192,192c14.1,14.1,14.1,36.9,0,50.9l-192,192c-7,7-16.2,10.5-25.5,10.5s-18.4-3.5-25.5-10.5
	c-14.1-14.1-14.1-36.9,0-50.9L777.1,420H383.8c-80.2,0-135.5,26.9-164.2,79.9C196,543.4,196,591.4,196,607.2l0,224.8
	c0,19.9-16.1,36-36,36s-36-16.1-36-36V608l0-0.8C124,552.7,134.8,505.1,156.3,465.6z"/>
</svg>
