<?xml version="1.0" encoding="utf-8"?>
<!-- Generator: Adobe Illustrator 22.0.0, SVG Export Plug-In . SVG Version: 6.00 Build 0)  -->
<svg version="1.1" id="图层_1" xmlns="http://www.w3.org/2000/svg" xmlns:xlink="http://www.w3.org/1999/xlink" x="0px" y="0px"
	 viewBox="0 0 1024 1024" style="enable-background:new 0 0 1024 1024;" xml:space="preserve">
<style type="text/css">
	.st0{fill:#9DA7B2;}
</style>
<path class="st0" d="M960,888V136c0-39.6-32.4-72-72-72H136c-39.6,0-72,32.4-72,72v752c0,39.6,32.4,72,72,72h752
	C927.6,960,960,927.6,960,888z M387.6,773.2c-14.1-14.1-14.1-36.9,0-50.9l209-209L389.1,305.7c-14.1-14.1-14.1-36.9,0-50.9
	c14.1-14.1,36.9-14.1,50.9,0l233,233c7,7,10.5,16.2,10.5,25.5s-3.5,18.4-10.5,25.5L438.5,773.2C424.4,787.2,401.7,787.2,387.6,773.2
	z"/>
</svg>
