<?xml version="1.0" encoding="utf-8"?>
<!-- Generator: Adobe Illustrator 22.0.0, SVG Export Plug-In . SVG Version: 6.00 Build 0)  -->
<svg version="1.1" id="图层_1" xmlns="http://www.w3.org/2000/svg" xmlns:xlink="http://www.w3.org/1999/xlink" x="0px" y="0px"
	 viewBox="0 0 1024 1025" style="enable-background:new 0 0 1024 1025;" xml:space="preserve">
<style type="text/css">
	.st0{fill:#9DA7B2;}
</style>
<path class="st0" d="M512,0C229,0-0.5,229.5-0.5,512.5S229,1025,512,1025s512.5-229.5,512.5-512.5S795,0,512,0z M713.9,537.1
	L433.3,761.6c-5.7,4.6-12.7,6.9-19.7,6.9c-4.6,0-9.3-1-13.7-3.1c-10.9-5.3-17.9-16.3-17.9-28.4V288.1c0-12.1,7-23.2,17.9-28.4
	c10.9-5.3,23.9-3.8,33.4,3.8l280.5,224.4c7.5,6,11.8,15.1,11.8,24.6C725.7,522.1,721.4,531.2,713.9,537.1z"/>
</svg>
