<?xml version="1.0" encoding="utf-8"?>
<!-- Generator: Adobe Illustrator 22.0.0, SVG Export Plug-In . SVG Version: 6.00 Build 0)  -->
<svg version="1.1" id="图层_1" xmlns="http://www.w3.org/2000/svg" xmlns:xlink="http://www.w3.org/1999/xlink" x="0px" y="0px"
	 viewBox="0 0 1024 1024" style="enable-background:new 0 0 1024 1024;" xml:space="preserve">
<style type="text/css">
	.st0{fill:#9DA7B2;}
</style>
<path class="st0" d="M134,136.2L134,136.2L134,136.2 M134,136L134,136L134,136 M134.1,887.9V136.1c0,0,0.1-0.1,0.1-0.1l751.7,0
	c0,0,0.1,0.1,0.1,0.1l0,751.7c0,0-0.1,0.1-0.1,0.1l-751.7,0C134.1,888,134.1,887.9,134.1,887.9 M62.1,888c0,39.6,32.4,72,72,72h752
	c39.6,0,72-32.4,72-72V136c0-39.6-32.4-72-72-72h-752c-39.6,0-72,32.4-72,72V888L62.1,888z M331.6,513.2c0,9.2,3.5,18.4,10.5,25.5
	l234.5,234.5c14.1,14.1,36.9,14.1,50.9,0c14.1-14.1,14.1-36.9,0-50.9l-209-209L626,305.7c14.1-14.1,14.1-36.9,0-50.9
	c-14.1-14.1-36.9-14.1-50.9,0l-233,233C335.1,494.8,331.6,504,331.6,513.2z"/>
</svg>
