<?xml version="1.0" encoding="utf-8"?>
<!-- Generator: Adobe Illustrator 22.0.0, SVG Export Plug-In . SVG Version: 6.00 Build 0)  -->
<svg version="1.1" id="图层_1" xmlns="http://www.w3.org/2000/svg" xmlns:xlink="http://www.w3.org/1999/xlink" x="0px" y="0px"
	 viewBox="0 0 1024 1024" style="enable-background:new 0 0 1024 1024;" xml:space="preserve">
<style type="text/css">
	.st0{fill:#9DA7B2;}
</style>
<path class="st0" d="M60,607.7c0-19.9,16.1-36,36-36h497.1L462.5,441.2c-14.1-14.1-14.1-36.9,0-50.9c14.1-14.1,36.9-14.1,50.9,0
	l192,192c10.3,10.3,13.4,25.8,7.8,39.2c-5.6,13.5-18.7,22.2-33.3,22.2H96C76.1,643.7,60,627.6,60,607.7z M892,64H140
	c-39.6,0-72,32.4-72,72v212c0,19.9,16.1,36,36,36h0c19.9,0,36-16.1,36-36V136.1c0.1-0.1,0.1-0.1,0.1-0.1h751.7
	c0.1,0.1,0.1,0.1,0.1,0.1l0,751.7c-0.1,0.1-0.1,0.1-0.1,0.1l-751.7,0c-0.1-0.1-0.1-0.1-0.1-0.1V740c0-19.9-16.1-36-36-36h0
	c-19.9,0-36,16.1-36,36v148c0,39.6,32.4,72,72,72h752c39.6,0,72-32.4,72-72V136C964,96.4,931.6,64,892,64z"/>
</svg>
