<?xml version="1.0" encoding="utf-8"?>
<!-- Generator: Adobe Illustrator 22.0.0, SVG Export Plug-In . SVG Version: 6.00 Build 0)  -->
<svg version="1.1" id="图层_1" xmlns="http://www.w3.org/2000/svg" xmlns:xlink="http://www.w3.org/1999/xlink" x="0px" y="0px"
	 viewBox="0 0 1024 1025" style="enable-background:new 0 0 1024 1025;" xml:space="preserve">
<style type="text/css">
	.st0{fill:#9DA7B2;}
</style>
<path class="st0" d="M413.1,769.5c-4.6,0-9.3-1-13.7-3.1c-10.9-5.3-17.9-16.3-17.9-28.4V289c0-12.1,7-23.2,17.9-28.4
	c10.9-5.3,23.9-3.8,33.4,3.8l280.5,224.4c7.5,6,11.8,15.1,11.8,24.6s-4.4,18.7-11.8,24.6L432.9,762.6
	C427.1,767.1,420.2,769.5,413.1,769.5z M512,1C229.5,1,0.5,230,0.5,512.5S229.5,1024,512,1024c282.5,0,511.5-229,511.5-511.5
	S794.5,1,512,1z M512,952C269.3,952,72.5,755.2,72.5,512.5S269.3,73,512,73s439.5,196.8,439.5,439.5S754.7,952,512,952z"/>
</svg>
