<?xml version="1.0" encoding="utf-8"?>
<!-- Generator: Adobe Illustrator 22.0.0, SVG Export Plug-In . SVG Version: 6.00 Build 0)  -->
<svg version="1.1" id="图层_1" xmlns="http://www.w3.org/2000/svg" xmlns:xlink="http://www.w3.org/1999/xlink" x="0px" y="0px"
	 viewBox="0 0 1024 1024" style="enable-background:new 0 0 1024 1024;" xml:space="preserve">
<style type="text/css">
	.st0{fill:#9DA7B2;}
	.st1{fill:none;stroke:#A5A5A5;stroke-width:72;stroke-linecap:round;stroke-linejoin:round;stroke-miterlimit:10;}
</style>
<path class="st0" d="M245.9,448.2l265.9,164.2L327.7,765.8L64,594.1L245.9,448.2z M776.6,746.9V805L512.9,962.7v0.6l-0.5-0.6
	l-0.6,0.6v-0.6L248.6,805v-58.1l79.1,51.7l184.1-152.9v-1.1l0.6,0.6l0.5-0.6v1.1l184.6,152.9L776.6,746.9z M327.7,131.2l184.1,153.4
	L245.9,448.2L64,302.9L327.7,131.2z M777.7,448.2L959.6,594L696.4,765.7L511.8,612.3L777.7,448.2z M696.4,131.2l263.2,171.7
	L777.7,448.2L511.8,284.6L696.4,131.2z M696.4,131.2"/>
</svg>
