<?xml version="1.0" encoding="utf-8"?>
<!-- Generator: Adobe Illustrator 22.0.0, SVG Export Plug-In . SVG Version: 6.00 Build 0)  -->
<svg version="1.1" id="图层_1" xmlns="http://www.w3.org/2000/svg" xmlns:xlink="http://www.w3.org/1999/xlink" x="0px" y="0px"
	 viewBox="0 0 1024 1024" style="enable-background:new 0 0 1024 1024;" xml:space="preserve">
<style type="text/css">
	.st0{fill:#9DA7B2;}
	.st1{fill:none;stroke:#A5A5A5;stroke-width:72;stroke-linecap:round;stroke-linejoin:round;stroke-miterlimit:10;}
</style>
<path class="st0" d="M825.7,826.7H693.3V619.3c0-49.5-1-113.1-69-113.1c-69,0-79.6,53.8-79.6,109.5v211.1H412.3V400.1h127.2v58.1
	h1.7c17.8-33.5,61-68.9,125.5-68.9c134.1,0,158.9,88.3,158.9,203.2L825.7,826.7L825.7,826.7z M262.8,341.8c-20.4,0-40-8.1-54.4-22.5
	c-14.4-14.4-22.5-34-22.5-54.4c0-42.5,34.5-76.9,76.9-76.8c42.5,0,76.9,34.5,76.9,76.9C339.7,307.4,305.3,341.8,262.8,341.8
	L262.8,341.8z M329.2,826.7H196.4V400.1h132.8V826.7z M891.9,64.9H130c-36.5,0-66,28.8-66,64.4v765.2c0,35.6,29.5,64.4,66,64.4
	h761.8c36.4,0,66.2-28.8,66.2-64.4V129.3c0-35.6-29.8-64.4-66.2-64.4H891.9z M891.9,64.9"/>
</svg>
