<?xml version="1.0" encoding="utf-8"?>
<!-- Generator: Adobe Illustrator 22.0.0, SVG Export Plug-In . SVG Version: 6.00 Build 0)  -->
<svg version="1.1" id="图层_1" xmlns="http://www.w3.org/2000/svg" xmlns:xlink="http://www.w3.org/1999/xlink" x="0px" y="0px"
	 viewBox="0 0 1024 1024" style="enable-background:new 0 0 1024 1024;" xml:space="preserve">
<style type="text/css">
	.st0{fill:#9DA7B2;}
	.st1{fill:none;stroke:#A5A5A5;stroke-width:72;stroke-linecap:round;stroke-linejoin:round;stroke-miterlimit:10;}
</style>
<path class="st0" d="M510.9,447.9h421.8c4.6,26,7,50.8,7,74.5c0,84.2-17.6,159.3-52.9,225.5c-35.3,66.1-85.6,117.8-151,155.1
	c-65.4,37.2-140.3,55.8-224.9,55.8c-60.9,0-118.9-11.7-174-35.2c-55.1-23.5-102.6-55.2-142.5-95.1c-40-40-71.7-87.5-95.1-142.5
	c-23.5-55.1-35.2-113-35.2-174c0-60.9,11.7-118.9,35.2-174c23.5-55.1,55.2-102.6,95.1-142.5c40-40,87.5-71.7,142.5-95.1
	c55.1-23.5,113-35.2,174-35.2c116.4,0,216.2,39,299.6,116.9L688.9,298.9c-47.7-46.2-107-69.2-178-69.2c-50,0-96.3,12.6-138.8,37.8
	c-42.5,25.2-76.1,59.5-100.9,102.7c-24.8,43.2-37.2,90.5-37.2,141.7c0,51.2,12.4,98.4,37.2,141.7c24.8,43.2,58.5,77.5,100.9,102.7
	c42.5,25.2,88.7,37.8,138.8,37.8c33.8,0,64.8-4.7,93.1-14c28.3-9.3,51.6-21,69.8-34.9c18.2-13.9,34.1-29.8,47.7-47.7
	c13.6-17.9,23.5-34.7,30-50.6c6.4-15.9,10.8-31,13.1-45.4H510.8L510.9,447.9L510.9,447.9z M510.9,447.9"/>
</svg>
