<?xml version="1.0" encoding="utf-8"?>
<!-- Generator: Adobe Illustrator 22.0.0, SVG Export Plug-In . SVG Version: 6.00 Build 0)  -->
<svg version="1.1" id="图层_1" xmlns="http://www.w3.org/2000/svg" xmlns:xlink="http://www.w3.org/1999/xlink" x="0px" y="0px"
	 viewBox="0 0 1024 1024" style="enable-background:new 0 0 1024 1024;" xml:space="preserve">
<style type="text/css">
	.st0{fill:#9DA7B2;}
	.st1{fill:none;stroke:#A5A5A5;stroke-width:72;stroke-linecap:round;stroke-linejoin:round;stroke-miterlimit:10;}
</style>
<path class="st0" d="M927.3,382.6c-1.8,7.5-6.1,18.4-12.3,31.7h0.1l-0.7,1.2C878.7,492,785.5,642,785.5,642s-0.1-0.4-0.5-0.9
	l-27.2,47.5h131.3l-250.8,334l56.9-227.2H591.9l35.9-150.2c-29,7-63.3,16.7-104,29.8c0,0-55,32.3-158.5-62.1
	c0,0-69.7-61.5-29.3-76.9c17.2-6.5,83.5-14.8,135.7-21.9c70.5-9.5,113.9-14.6,113.9-14.6s-217.4,3.3-269-4.9
	c-51.6-8.1-117-94.3-130.9-170.1c0,0-21.5-41.6,46.4-21.9C300,322.3,581,379.2,581,379.2S215.5,267,191.2,239.6
	c-24.3-27.4-71.6-149.5-65.4-224.5c0,0,2.7-18.7,21.8-13.7c0,0,270.2,123.7,455,191.4C787.4,260.5,948,295,927.3,382.6L927.3,382.6z
	 M927.3,382.6"/>
</svg>
