<?xml version="1.0" encoding="utf-8"?>
<!-- Generator: Adobe Illustrator 22.0.0, SVG Export Plug-In . SVG Version: 6.00 Build 0)  -->
<svg version="1.1" id="图层_1" xmlns="http://www.w3.org/2000/svg" xmlns:xlink="http://www.w3.org/1999/xlink" x="0px" y="0px"
	 viewBox="0 0 1024 1024" style="enable-background:new 0 0 1024 1024;" xml:space="preserve">
<style type="text/css">
	.st0{fill:#9DA7B2;}
	.st1{fill:none;stroke:#A5A5A5;stroke-width:72;stroke-linecap:round;stroke-linejoin:round;stroke-miterlimit:10;}
</style>
<path class="st0" d="M512,46.8c263.4,0,477,213.6,477,477c0,210.5-136.5,389.3-327.4,451.9c-24.4,4.8-32.8-10.1-32.8-22.7
	c0-15.5,0.6-66.8,0.6-130.6c0-44.7-15.5-73.9-32.2-88.2c106.1-11.7,217.6-52.1,217.6-235.3c0-52.1-18.5-94.6-48.9-128
	c4.8-12,20.9-60.5-4.8-126.2c0,0-39.9-12.8-130.6,48.9c-38.2-10.6-78.7-15.9-119.2-16.1c-40.5,0.2-81.1,5.5-119.2,16.1
	C300.9,231.9,261,244.7,261,244.7c-25.6,65.7-9.5,114.2-4.2,126.2c-30.6,33.4-49.1,75.9-49.1,128c0,182.8,111.3,223.8,217.3,235.7
	c-13.6,11.9-25.9,33-30.2,63.8c-27.3,12.2-96.4,33.3-138.9-39.7c0,0-25.2-45.8-73.1-49.1c0,0-46.5-0.6-3.3,29
	c0,0,31.4,14.7,53.1,69.8c0,0,28,92.8,160.7,64c0.2,39.7,0.6,69.8,0.6,81.1c0,12.7-8.7,27.4-32.6,22.9
	C171.7,913.3,35,734.6,35,523.8C35,260.4,248.5,46.8,512,46.8"/>
</svg>
