<?xml version="1.0" encoding="utf-8"?>
<!-- Generator: Adobe Illustrator 22.0.0, SVG Export Plug-In . SVG Version: 6.00 Build 0)  -->
<svg version="1.1" id="图层_1" xmlns="http://www.w3.org/2000/svg" xmlns:xlink="http://www.w3.org/1999/xlink" x="0px" y="0px"
	 viewBox="0 0 1024 1024" style="enable-background:new 0 0 1024 1024;" xml:space="preserve">
<style type="text/css">
	.st0{fill:#9DA7B2;}
	.st1{fill:none;stroke:#A5A5A5;stroke-width:72;stroke-linecap:round;stroke-linejoin:round;stroke-miterlimit:10;}
</style>
<path class="st0" d="M741.1,581.5h218.2c1.7-15.1,2.3-30.6,2.3-46.4c0-74.2-19.9-143.7-54.7-203.6c35.9-95.5,34.7-176.6-13.5-225
	C847.8,60.9,725,68.3,586.2,129.8c-10.3-0.8-20.6-1.2-31.1-1.2c-190.5,0-350.3,131.1-394.5,307.7c59.8-76.5,122.6-132,206.6-172.4
	c-7.6,7.2-52.2,51.4-59.7,58.9C86.1,544.3,16.3,833.5,91.4,908.6c57.1,57.1,160.6,47.5,279.5-10.8c55.3,28.1,117.9,44,184.2,44
	c178.5,0,329.9-114.9,384.7-275H719.9c-30.3,55.8-89.4,93.8-157.4,93.8c-67.9,0-127.1-38-157.4-93.8c-13.4-25.2-21.2-54.1-21.2-84.7
	v-0.7H741.1z M384.3,474.2c5-89.8,79.7-161.4,170.8-161.4c91.1,0,165.8,71.6,170.8,161.4H384.3z M891.5,151.6
	c31,31.3,30.2,88.9,3.7,160.9c-45.4-69.3-111.4-123.8-189.3-155C789.2,121.8,857,117,891.5,151.6L891.5,151.6z M148.8,894.4
	c-39.5-39.6-27.6-122.6,23.3-222.6c31.7,89,93.5,163.7,173.2,211.8C257,923.6,184.8,930.4,148.8,894.4L148.8,894.4z M148.8,894.4"/>
</svg>
