<?xml version="1.0" encoding="utf-8"?>
<!-- Generator: Adobe Illustrator 22.0.0, SVG Export Plug-In . SVG Version: 6.00 Build 0)  -->
<svg version="1.1" id="图层_1" xmlns="http://www.w3.org/2000/svg" xmlns:xlink="http://www.w3.org/1999/xlink" x="0px" y="0px"
	 viewBox="0 0 1024 1024" style="enable-background:new 0 0 1024 1024;" xml:space="preserve">
<style type="text/css">
	.st0{fill:#9DA7B2;}
	.st1{fill:none;stroke:#A5A5A5;stroke-width:72;stroke-linecap:round;stroke-linejoin:round;stroke-miterlimit:10;}
</style>
<path class="st0" d="M684.8,339.3c2.7,0,5.4,0.1,7.9,0.3c0.3,0,0.5,0,0.8,0.1c19.5,1.4,38.1,5.3,55.3,11.8c6,2.4,11.7,5.1,17,8.1
	c-12.3,14.4-23.5,30-33.2,46.8c-0.2,0.4-0.5,0.9-0.7,1.3c-22.9,41.2-34.8,87.8-34.5,134.9c0,0.1,0,0.3,0,0.4
	c0.8,56.7,15.9,107.7,45,151.4c17.6,26.8,39.2,50,64.4,69.3c-10.6,22.5-22.5,43.7-35.6,63.3c-16.4,23.9-28.2,40.2-36.3,49.8
	c-11.1,13.2-21.5,23.1-30.8,29.3c0,0-0.1,0.1-0.1,0.1c-5.1,3.4-11.2,5.2-17.5,5.2c-1,0-2.1,0-3.1,0.1c-0.7,0-1.4,0-2.1,0
	c-4.8,0-9.6-0.7-14.4-2c-9-3-17.6-6.2-25.6-9.7c-14.3-6.5-29.2-12.1-44.3-16.6c-0.8-0.2-1.5-0.4-2.3-0.6c-20.6-5.4-42-8.1-63.3-8.1
	l-0.8,0c-21.6,0-43,2.7-63.6,8c-0.6,0.2-1.2,0.3-1.8,0.5c-15.1,4.3-29.5,9.5-44.2,15.8l-0.7,0.3c-10.9,4.5-22.2,9.2-26,10.6
	c-6.5,1.9-13.1,3.1-19.7,3.7c-3.3-0.2-7.2-0.9-12.4-3.4c-1.2-0.9-2.5-1.8-3.8-2.7c-12.3-8.2-23.2-18.3-32.4-29.9
	c-0.4-0.5-0.7-0.9-1.1-1.4c-13-15.7-25.5-32.7-37-50.5c-0.3-0.5-0.7-1-1-1.5c-26.3-38.4-46.8-80.4-61-124.7
	c-0.1-0.2-0.2-0.5-0.2-0.7c-17.2-51.7-25.6-100.4-25.6-148.6c0-48.7,10.1-90.8,29.9-125.3c0.3-0.4,0.5-0.9,0.7-1.3
	c13.3-24.3,32.9-44.6,56.6-58.8c0.3-0.2,0.6-0.4,1-0.6c22.5-13.9,48.3-21.6,74.6-22.3c7.5,0.1,16.3,1.3,25.5,3.5
	c8.4,2.4,20.8,7,35.1,12.3c10.2,3.9,18.2,7.1,24,9.4c6.8,2.7,11.2,4.5,15.2,5.8c19.3,7.1,37.9,10.7,55.1,10.7
	c13.5,0,28.9-2.8,47-8.4c0.6-0.2,1.3-0.4,1.9-0.6l1.6-0.6c6.4-2.2,18-6.1,33.5-12.8c9.1-3.3,17-6.3,23.9-9c3.4-1.3,6.4-2.4,9.1-3.4
	c10.8-3.2,21.6-6.2,29.6-7.4C671.5,339.9,678.4,339.3,684.8,339.3 M684.8,267.3c-10.3,0-20.9,0.9-31.5,2.5
	c-12.7,2-26.8,5.9-41.4,10.3c-9.6,3.5-21.6,8.3-36.9,13.8c-15.4,6.7-26.2,10.3-31.9,12.2c-10.1,3.2-19.1,5.1-25.4,5.1
	c-8.3,0-18.9-2-31.5-6.7c-3.9-1.2-15.8-6.3-37.4-14.6c-17-6.3-30.7-11.4-42.2-14.6c-15.8-3.9-30.7-5.9-44.5-5.9
	c-39.6,0.8-78.3,12.2-111.9,33.1c-34.7,20.8-63.3,50.5-82.8,86c-26.1,45.3-39.5,99.3-39.5,161.2c0,55.4,9.6,112.1,29.3,171.3
	c16.4,50.9,40,99.2,70.2,143.3c12.8,19.9,26.8,39.1,41.9,57.3c13.8,17.6,30.4,32.9,49,45.3l-0.5,0.5c19,11.8,38.1,17.7,58.6,17.7
	c13.2-0.8,26.3-3.1,39-6.9c6.3-2,17.1-6.5,33.7-13.4c11.7-5.1,23.5-9.3,35.7-12.8c14.6-3.7,30-5.7,45.7-5.7c0.3,0,0.5,0,0.8,0
	c15.2,0,30.4,1.9,45.1,5.8c12.2,3.6,24.1,8.1,35.7,13.4c11,4.8,22.3,9,33.7,12.7c11.5,3.3,23.5,5.1,35.5,5.1c1.7,0,3.5,0,5.2-0.1
	c20.4,0,40.3-5.9,57.2-17.2c15.4-10.1,30.7-24.3,46.5-43.2c10.2-12.2,23.6-30.7,40.6-55.6c19.3-28.8,35.6-59.2,49.3-91
	c6-14.2,11.2-28.6,16-43.4c-10.2-3.7-20.9-9.5-33.1-17.7c-24.1-15.8-44.7-36.4-60.5-60.5c-21.7-32.5-32.5-70-33.1-112.7
	c-0.3-34.7,8.5-69,25.4-99.3c13-22.3,29.3-42.4,48.5-59.3c8.9-8,18.3-15.4,28.6-21.7c-24.2-35.9-56.6-61.1-96.8-77.2
	c-22.9-8.7-48.5-14.6-76.5-16.6C694.1,267.5,689.5,267.3,684.8,267.3L684.8,267.3z M587.7,239.4c24.1-12.2,45.4-29.2,62.5-49.7
	c17-20.7,30.3-44.2,39.4-69.4c9.9-28.4,13-54.8,9.9-81.6C675.8,40,651,47,625,60.4c-24.4,12.2-46.1,29.2-64.2,49.7
	c-17.3,19.7-30,41.8-39.4,66.2c-10.6,28.7-14.6,54.8-10.6,80.3c25.5,1.9,51-3.8,77.8-17.2L587.7,239.4z"/>
</svg>
