<?xml version="1.0" encoding="utf-8"?>
<!-- Generator: Adobe Illustrator 22.0.0, SVG Export Plug-In . SVG Version: 6.00 Build 0)  -->
<svg version="1.1" id="图层_1" xmlns="http://www.w3.org/2000/svg" xmlns:xlink="http://www.w3.org/1999/xlink" x="0px" y="0px"
	 viewBox="0 0 1024 1024" style="enable-background:new 0 0 1024 1024;" xml:space="preserve">
<style type="text/css">
	.st0{fill:#9DA7B2;}
	.st1{fill:none;stroke:#A5A5A5;stroke-width:72;stroke-linecap:round;stroke-linejoin:round;stroke-miterlimit:10;}
</style>
<path class="st0" d="M296.1,191.4c30,0,57.2,2.6,81.9,8c24.6,5.5,45.7,14.1,63.4,26c17.5,12,31.3,27.7,41,47.8
	c9.6,20.1,14.5,44.8,14.5,73.8c0,31.6-7.3,58-21.6,79.4c-14.4,21.3-35.7,38.4-64.1,52.1c38.7,11.1,67.3,30.7,86.3,58.5
	c19.1,28.2,28.4,61.9,28.4,100.7c0,32-5.5,59.3-17.5,82.4c-12,23.5-28.6,42.7-49.5,57.6c-20.5,14.9-44.8,25.6-71.3,32.7
	c-26.6,7.2-54,10.8-81.5,10.8H0V191.7h296.1V191.4z M723,710.4c18.8,18.3,45.8,27.4,80.8,27.4c25.2,0,46.9-6.3,65.3-19.1
	c18.1-12.4,29-26,33.3-40.1h110.4c-17.2,54.6-44.7,93.9-81.1,117.4c-36.3,23.9-80.4,35.4-131.4,35.4c-35.7,0-67.6-5.5-97-17.1
	c-27.6-10.9-52.6-27.5-73.4-48.7c-20.3-21.8-36-47.5-46-75.5c-10.8-29.4-15.9-61.9-15.9-96.9c0-34.3,5.8-65.7,17.2-95.2
	c11.5-29.9,27.5-54.6,47.8-76.4c21.1-21.8,45.4-38.2,74.1-51c28.7-12.8,59.8-18.5,94.7-18.5c38.8,0,72.1,7,101.6,22.3
	c27.9,14.2,52.1,34.7,70.8,59.7c18.8,25,32,53.8,40.1,86.2c8.1,32,10.7,65.7,9,101.6H695.2c0,35.8,12,69.6,30.3,88.1l-3.4,1.3
	L723,710.4z M285.9,712.6c13.5,0,26.5-1.3,38.7-4c12.4-2.6,23.4-7,32.6-12.8c9-5.8,16.6-14,22.2-24.9c5.5-10.2,8.1-24.3,8.1-41
	c0-32-9.4-55.1-27.3-69.1c-18.3-13.7-42.3-20.5-72.1-20.5H138.3v172.8h147.7v-1.3V712.6z M866.6,471.4c-15-16.4-40.1-25.3-70.7-25.3
	c-20,0-36.5,3.2-49.8,10.2c-12.9,6.4-23.5,14.9-31.6,25.2c-8.1,10.2-13.5,20.5-16.7,32c-3.2,11.1-5.1,21.3-5.8,30.3h203.2
	c-3-32-14.1-55.5-29-72.1v0.4L866.6,471.4z M278.3,445.2c24.5,0,44.8-5.7,60.8-17.6c16-11.5,23.6-30.7,23.6-57.1
	c0-14.7-3-26.7-7.7-36.1c-5.5-9.4-12.8-16.6-21.3-21.8c-9-5.3-19.2-9-30.7-11c-11.8-2.2-23.8-3.2-35.8-3.2H137.8v146.8L278.3,445.2
	L278.3,445.2z M666.5,233.6h254.7v62.1H666.5v-62.6V233.6z M666.5,233.6"/>
</svg>
