<?xml version="1.0" encoding="utf-8"?>
<!-- Generator: Adobe Illustrator 22.0.0, SVG Export Plug-In . SVG Version: 6.00 Build 0)  -->
<svg version="1.1" id="图层_1" xmlns="http://www.w3.org/2000/svg" xmlns:xlink="http://www.w3.org/1999/xlink" x="0px" y="0px"
	 viewBox="0 0 1024 1024" style="enable-background:new 0 0 1024 1024;" xml:space="preserve">
<style type="text/css">
	.st0{fill:#9DA7B2;}
	.st1{fill:none;stroke:#A5A5A5;stroke-width:72;stroke-linecap:round;stroke-linejoin:round;stroke-miterlimit:10;}
</style>
<path class="st0" d="M229.5,577.1c-12,9.7-24.9,23.8-28.7,41.8c-5.1,24.6-1.1,55.3,22.6,79.4c28.7,29.2,72.3,37.2,91.2,38.6
	c51.2,3.7,105.8-21.7,146.9-50.6c16.1-11.4,43.7-34.2,70.1-69.4c-59.1-30.5-132.9-64.3-211.8-61C279.4,557.6,250.6,566,229.5,577.1
	L229.5,577.1z M979.2,712.1c26.1-61.3,40.6-128.6,40.6-199.3c0-281.2-228.7-509.9-509.9-509.9C228.7,2.9,0,231.7,0,512.9
	c0,281.2,228.7,509.9,509.9,509.9c169.7,0,320.2-83.4,412.9-211.3c-87.6-43.6-232.1-115.3-321-158.6
	c-42.5,48.4-105.2,96.9-176.1,118c-44.5,13.2-84.7,18.3-126.7,9.7c-41.6-8.5-72.2-28-90-47.5c-9.1-10-19.5-22.6-27.1-37.7
	c0.7,1.9,1.2,3,1.2,3s-4.3-7.5-7.7-19.4c-1.7-5.8-2.9-11.8-3.3-18.1c-0.4-4.1-0.4-8.5-0.2-13c-0.4-7.7-0.1-15.7,1.7-24
	c4.2-20.2,12.8-43.6,35-65.4c48.9-47.8,114.3-50.4,148.2-50.2c50.2,0.3,137.5,22.3,210.9,48.2c20.4-43.3,33.4-89.7,41.8-120.6H304.1
	v-33h156.9v-66.1H271v-33h189.9v-66c0-9.1,1.8-16.5,16.5-16.5h74.3v82.6h206.4v33H551.8V403h165.1c0,0-16.6,92.4-68.4,183.6
	C763.5,627.6,925.5,691,979.2,712.1L979.2,712.1z M979.2,712.1"/>
</svg>
