<?xml version="1.0" encoding="utf-8"?>
<!-- Generator: Adobe Illustrator 22.0.0, SVG Export Plug-In . SVG Version: 6.00 Build 0)  -->
<svg version="1.1" id="图层_1" xmlns="http://www.w3.org/2000/svg" xmlns:xlink="http://www.w3.org/1999/xlink" x="0px" y="0px"
	 viewBox="0 0 1024 1024" style="enable-background:new 0 0 1024 1024;" xml:space="preserve">
<style type="text/css">
	.st0{fill:#9DA7B2;}
	.st1{fill:none;stroke:#A5A5A5;stroke-width:72;stroke-linecap:round;stroke-linejoin:round;stroke-miterlimit:10;}
</style>
<path class="st0" d="M638.2,525.1c0,61.6-12.9,116.4-38.6,164.6c-25.8,48.1-62.5,85.7-110.1,112.8c-47.7,27.1-102.3,40.6-163.9,40.6
	c-44.1,0-86.3-8.6-126.6-25.8c-40.3-17.2-74.9-40.3-103.9-69.3c-29-29-52.1-63.7-69.3-103.9C8.6,603.9,0,561.7,0,517.5
	c0-44.1,8.6-86.3,25.8-126.6C42.9,350.7,66,316.1,95,287c29-29,63.7-52.1,103.9-69.3c40.3-17.2,82.5-25.8,126.6-25.8
	c84.7,0,157.4,28.4,218.1,85.3l-88.4,84.8c-34.6-33.5-77.9-50.2-129.7-50.2c-36.4,0-70.1,9.2-101,27.5
	c-30.9,18.4-55.4,43.3-73.5,74.8s-27.1,66-27.1,103.3c0,37.3,9,71.7,27.1,103.3c18.1,31.5,42.6,56.5,73.5,74.8
	c30.9,18.4,64.6,27.5,101,27.5c24.6,0,47.1-3.4,67.7-10.2c20.6-6.8,37.5-15.3,50.9-25.5c13.3-10.2,24.9-21.8,34.9-34.9
	c9.9-13,17.2-25.3,21.8-36.9c4.6-11.5,7.8-22.5,9.5-32.9H325.5V470.9h307.3C636.4,489.6,638.2,507.6,638.2,525.1L638.2,525.1z
	 M930.5,470.9v-92.8h-93.3v92.8h-92.8v93.3h92.8V657h93.3v-92.8h92.8v-93.3H930.5z"/>
</svg>
