<?xml version="1.0" encoding="utf-8"?>
<!-- Generator: Adobe Illustrator 22.0.0, SVG Export Plug-In . SVG Version: 6.00 Build 0)  -->
<svg version="1.1" id="图层_1" xmlns="http://www.w3.org/2000/svg" xmlns:xlink="http://www.w3.org/1999/xlink" x="0px" y="0px"
	 viewBox="0 0 1024 1024" style="enable-background:new 0 0 1024 1024;" xml:space="preserve">
<style type="text/css">
	.st0{fill:#9DA7B2;}
	.st1{fill:none;stroke:#A5A5A5;stroke-width:72;stroke-linecap:round;stroke-linejoin:round;stroke-miterlimit:10;}
</style>
<path class="st0" d="M478.3,621.6c-35-23.7-70.3-47-105.3-70.7c-4.6-3.1-7.8-3.4-12.6-0.1l-88.8,59.8c71.2,47.5,213,142.1,213,142.1
	V629.8C484.5,627,481,623.4,478.3,621.6L478.3,621.6z M478.3,621.6 M372.8,477c35.3-23.2,70.5-46.7,105.4-70.5
	c3.4-2.3,6.3-8,6.4-12.2V276c0,0-141.8,94-213.2,141.6c31.3,20.9,61,40.9,90.9,60.4C364.7,479.6,370.1,478.7,372.8,477L372.8,477z
	 M372.8,477 M543.6,405.4c36.1,24.5,72.4,48.7,108.9,72.7c2.1,1.4,6.7,1.4,8.8,0l90.9-60.5L539.4,275.4v121.9
	C539.5,400.1,541.3,403.8,543.6,405.4L543.6,405.4z M543.6,405.4 M516.8,453.4c-2.8-1.8-8.3-1.2-10.8,0.4
	c-11,6.8-21.6,14.2-32.4,21.4c-18.9,12.6-58,38.9-58,38.9l88.8,59.1c4,2.6,10.1,2.8,14.3,0.3l89.2-59.4
	C607.9,514.1,530,462.2,516.8,453.4L516.8,453.4z M516.8,453.4 M249.1,468.8v90.5l67.7-45.3L249.1,468.8z M249.1,468.8 M512,0
	C229.2,0,0,229.2,0,512c0,282.8,229.2,512,512,512c282.8,0,512-229.2,512-512C1024,229.2,794.8,0,512,0L512,0z M829.7,605.7
	c0,13.2-6.1,22.6-17.2,29.9c-94,62.4-188,125.1-281.8,187.9c-13.4,9-25.5,8.6-38.8-0.3c-93.2-62.4-186.8-124.7-280.3-186.7
	c-11.7-7.7-17.4-17.3-17.4-31.4V422.9c0-14,5.8-23.6,17.4-31.4c93.5-62,187.3-124.3,280.5-186.7c13.3-8.9,25.4-9.2,38.7-0.2
	c93.8,62.8,187.7,125.4,281.7,187.9c10.7,7.1,17,15.9,17,28.9V605.7z M829.7,605.7 M649.7,551.4c-34.4,23.4-69,46.5-103.7,69.3
	c-5.5,3.6-6.6,7.6-6.5,14.1v117.4l212.7-141.7L664,551.3C658.7,547.7,655,547.8,649.7,551.4L649.7,551.4z M649.7,551.4 M772.6,559.3
	v-90.5l-67.6,45.4L772.6,559.3z M772.6,559.3"/>
</svg>
