<?xml version="1.0" encoding="utf-8"?>
<!-- Generator: Adobe Illustrator 22.0.0, SVG Export Plug-In . SVG Version: 6.00 Build 0)  -->
<svg version="1.1" id="图层_1" xmlns="http://www.w3.org/2000/svg" xmlns:xlink="http://www.w3.org/1999/xlink" x="0px" y="0px"
	 viewBox="0 0 1024 1024" style="enable-background:new 0 0 1024 1024;" xml:space="preserve">
<style type="text/css">
	.st0{fill:#9DA7B2;}
	.st1{fill:none;stroke:#A5A5A5;stroke-width:72;stroke-linecap:round;stroke-linejoin:round;stroke-miterlimit:10;}
</style>
<path class="st0" d="M510.6,0.9C228.6,0.9,0,229.5,0,511.5c0,282,228.6,510.6,510.6,510.6c282,0,510.6-228.6,510.6-510.6
	C1021.2,229.5,792.6,0.9,510.6,0.9z M747.2,443.5c-1.1,4.5-3.7,11-7.4,19h0.1l-0.4,0.7c-21.4,45.8-77.4,135.8-77.4,135.8
	s-0.1-0.2-0.3-0.6l-16.3,28.5h78.8L573.8,826.9L608,690.8h-62l21.5-90c-17.4,4.2-38,10-62.4,17.8c0,0-33,19.3-95.1-37.2
	c0,0-41.9-36.9-17.6-46.1c10.3-3.9,50.1-8.9,81.4-13.1c42.3-5.7,68.3-8.7,68.3-8.7s-130.5,2-161.4-2.9c-31-4.9-70.2-56.5-78.6-101.9
	c0,0-12.9-24.9,27.8-13.1c40.7,11.8,209.4,45.9,209.4,45.9s-219.4-67.2-234-83.6c-14.6-16.4-43-89.6-39.3-134.5
	c0,0,1.6-11.2,13.1-8.2c0,0,162.2,74.1,273.1,114.7C663.3,370.3,759.7,391,747.2,443.5z"/>
</svg>
