<?xml version="1.0" encoding="utf-8"?>
<!-- Generator: Adobe Illustrator 22.0.0, SVG Export Plug-In . SVG Version: 6.00 Build 0)  -->
<svg version="1.1" id="图层_1" xmlns="http://www.w3.org/2000/svg" xmlns:xlink="http://www.w3.org/1999/xlink" x="0px" y="0px"
	 viewBox="0 0 1024 1025" style="enable-background:new 0 0 1024 1025;" xml:space="preserve">
<style type="text/css">
	.st0{fill:#9DA7B2;}
	.st1{fill:none;stroke:#A5A5A5;stroke-width:72;stroke-linecap:round;stroke-linejoin:round;stroke-miterlimit:10;}
</style>
<path class="st0" d="M510.3,0.5c-12.6,0-25.2,0.5-37.6,1.4l-27.5,212.8c-17.3,4-33.5,11.1-47.4,18.7c32.9-17.3,69.9-26,111-26
	c66.1,0,121.4,22.3,165.9,67c37.6,37.8,59.3,83.2,65.1,136.4h-94c-5.1-27-17.5-50.4-37.1-70.1c-26.6-26.6-59.9-39.9-99.8-39.9
	c-39.9,0-73.3,13.3-100,39.9c-15.5,15.4-26.5,33.2-32.9,53.2v-0.2c-6.6,17.8-23.7,30.5-43.7,30.5c-25.8,0-46.7-20.9-46.7-46.7
	c0-5.8,1.1-11.4,3.1-16.5h0c4.1-12.1,9.2-23.7,15.3-34.9c-0.1,0.2-0.2,0.3-0.3,0.5l8.9-179.4l36,120.1c0,0-2,2.6-5.2,6.7
	c5.5-5.5,11.1-10.6,16.9-15.4c0.1-0.2,0.2-0.5,0.3-0.7L472.3,1.9C207.1,21.4-1.9,242.6-1.9,512.8c0,282.9,229.3,512.3,512.3,512.3
	s512.3-229.3,512.3-512.3S793.2,0.5,510.3,0.5z M741.8,672.7c0,65.8-22.3,121.1-67,165.9c-44.6,44.8-99.9,67.2-165.7,67.2
	c-48.5,0-92.1-13.1-130.9-39.2c-38.8-26.2-67.3-61.7-85.5-106.6l89.4-28.6c24.7,54,67,81.1,126.9,81.1c39.9,0,73.2-13.3,99.8-39.9
	c26.6-26.6,39.9-59.9,39.9-99.8v-46.3c-41.4,30.8-88,46.3-139.7,46.3c-66.1,0-121.5-22.2-166.1-66.7c-43.3-43.2-65.6-96.5-66.8-160
	h93.1c1.3,37.3,14.4,68.7,39.8,93.9c26.7,26.6,60.1,39.9,100,39.9c39.9,0,73.2-13.3,99.8-39.9c25.3-25.3,38.4-56.6,39.6-93.9h93.2
	V672.7z"/>
</svg>
