<?xml version="1.0" encoding="utf-8"?>
<!-- Generator: Adobe Illustrator 22.0.0, SVG Export Plug-In . SVG Version: 6.00 Build 0)  -->
<svg version="1.1" id="图层_1" xmlns="http://www.w3.org/2000/svg" xmlns:xlink="http://www.w3.org/1999/xlink" x="0px" y="0px"
	 viewBox="0 0 1024 1024" style="enable-background:new 0 0 1024 1024;" xml:space="preserve">
<style type="text/css">
	.st0{fill:#9DA7B2;}
	.st1{fill:none;stroke:#A5A5A5;stroke-width:72;stroke-linecap:round;stroke-linejoin:round;stroke-miterlimit:10;}
</style>
<path class="st0" d="M678.2,381.4l264.9-66.2c27.8,61.5,42.2,128.2,42.2,195.7c0,260.2-214.2,474.4-474.6,474.4
	c-11.9,0-23.9-0.4-35.8-1.3l193.5-329.2c14-14.8,25.8-31.7,34.7-50.1c28.1-59.4,27.5-128.4-1.7-187.3
	C695,404.6,687.2,392.6,678.2,381.4L678.2,381.4z M550.4,719.7l-83.7,263.6C225.6,959.5,38.7,754.2,38.7,511.1
	c0-94.1,28-186.1,80.4-264.2l190.7,330.4c7.1,21.3,44.1,101.8,121,131.2C470.1,723.6,511.2,727.5,550.4,719.7L550.4,719.7z
	 M510.9,339.2c-79.1,0.7-153,60.9-168.9,138.5c-11.3,57.8,7,117.5,48.8,159c47.9,46.8,123.9,62.2,186.7,36.6
	c55.5-22.7,97.4-76,106.1-135.3c10.7-73.2-31.1-151.2-98.4-182.6C562,344.6,536.6,339.1,510.9,339.2L510.9,339.2z M316.6,431.6
	L127.8,234.4C217.1,111.5,359.9,38.7,511.9,38.7c179.9,0,344.9,102.2,425,263.3H534c-71.4-4.9-129.7,20.5-168.2,57.3
	C344.5,379.7,327.8,404.3,316.6,431.6L316.6,431.6z M316.6,431.6"/>
</svg>
