<?xml version="1.0" encoding="utf-8"?>
<!-- Generator: Adobe Illustrator 22.0.0, SVG Export Plug-In . SVG Version: 6.00 Build 0)  -->
<svg version="1.1" id="图层_1" xmlns="http://www.w3.org/2000/svg" xmlns:xlink="http://www.w3.org/1999/xlink" x="0px" y="0px"
	 viewBox="0 0 1024 1024" style="enable-background:new 0 0 1024 1024;" xml:space="preserve">
<style type="text/css">
	.st0{fill:#9DA7B2;}
	.st1{fill:none;stroke:#A5A5A5;stroke-width:72;stroke-linecap:round;stroke-linejoin:round;stroke-miterlimit:10;}
</style>
<path class="st0" d="M318.3,967c-18.6-12.4-35.2-27.7-49-45.3c-15.1-18.2-29.1-37.4-41.9-57.3c-30.2-44.1-53.8-92.4-70.2-143.3
	c-19.7-59.2-29.3-115.9-29.3-171.3c0-61.9,13.4-115.9,39.5-161.2c19.5-35.5,48-65.2,82.8-86c33.7-20.9,72.3-32.3,111.9-33.1
	c13.8,0,28.8,2,44.5,5.9c11.4,3.2,25.2,8.3,42.2,14.6c21.7,8.3,33.5,13.4,37.4,14.6c12.6,4.7,23.3,6.7,31.5,6.7
	c6.3,0,15.4-2,25.4-5.1c5.7-2,16.6-5.5,31.9-12.2c15.2-5.5,27.3-10.2,36.9-13.8c14.6-4.3,28.7-8.3,41.4-10.3
	c15.4-2.4,30.6-3.2,45.2-2c28,2,53.6,7.9,76.5,16.6c40.2,16.2,72.6,41.4,96.8,77.2c-10.2,6.3-19.7,13.6-28.6,21.7
	c-19.2,17-35.5,37.1-48.5,59.3c-16.9,30.4-25.6,64.6-25.4,99.3c0.6,42.7,11.4,80.2,33.1,112.7c15.8,24.1,36.4,44.7,60.5,60.5
	c12.2,8.3,22.9,14,33.1,17.7c-4.7,14.8-9.9,29.2-16,43.4c-13.7,31.8-30,62.3-49.3,91c-17,24.8-30.4,43.4-40.6,55.6
	c-15.8,18.9-31.1,33.1-46.5,43.2c-17,11.2-36.9,17.2-57.2,17.2c-13.8,0.6-27.6-1.2-40.8-5c-11.4-3.7-22.7-8-33.7-12.7
	c-11.6-5.3-23.5-9.8-35.7-13.4c-15-3.9-30.4-5.9-45.9-5.8c-15.8,0-31.1,2-45.7,5.7c-12.2,3.5-24,7.7-35.7,12.8
	c-16.6,6.9-27.4,11.4-33.7,13.4c-12.7,3.8-25.8,6.1-39,6.9c-20.5,0-39.6-5.9-58.6-17.7L318.3,967z M588.4,239.4
	c-26.8,13.4-52.3,19.1-77.8,17.2c-3.9-25.5,0-51.6,10.6-80.3c9.5-24.4,22.1-46.5,39.4-66.2c18.1-20.5,39.8-37.4,64.2-49.7
	C651,47,675.8,40,699.4,38.8c3.2,26.8,0,53.2-9.9,81.6c-9.1,25.2-22.4,48.7-39.4,69.4c-17.1,20.5-38.4,37.4-62.5,49.7L588.4,239.4z
	 M588.4,239.4"/>
</svg>
