<?xml version="1.0" encoding="utf-8"?>
<!-- Generator: Adobe Illustrator 22.0.0, SVG Export Plug-In . SVG Version: 6.00 Build 0)  -->
<svg version="1.1" id="图层_1" xmlns="http://www.w3.org/2000/svg" xmlns:xlink="http://www.w3.org/1999/xlink" x="0px" y="0px"
	 viewBox="0 0 1024 1024" style="enable-background:new 0 0 1024 1024;" xml:space="preserve">
<style type="text/css">
	.st0{fill:#9DA7B2;}
	.st1{fill:none;stroke:#A5A5A5;stroke-width:72;stroke-linecap:round;stroke-linejoin:round;stroke-miterlimit:10;}
</style>
<path class="st0" d="M429.9,866.3c-169.3,16.6-315.7-59.9-326.7-171.2c-11-111.1,117.5-214.9,287-231.7
	c169.4-16.8,315.6,59.8,326.6,171.1c11,110.7-117.5,215-286.8,231.6L429.9,866.3z M385.3,734.1c-16.3,26.2-51.4,37.6-77.9,25.6
	c-26.1-11.9-33.8-42.2-17.3-67.8c16.1-25.3,50.1-36.7,76.3-25.6C393,677.5,401.4,707.7,385.3,734.1L385.3,734.1z M439.4,664.9
	c-6,10.1-19.1,15-29.3,10.8c-10-3.8-13.3-15.4-7.5-25c5.9-9.7,18.6-14.7,28.6-10.2c10.2,3.8,13.4,15.3,7.7,25.6L439.4,664.9z
	 M446.9,549.1c-80.6-21-171.7,19.2-206.8,90.2c-35.6,72.6-1.1,152.9,80.3,179.3c84.4,27.2,183.9-14.5,218.5-92.8
	C573,649.4,530.3,570.7,446.9,549.1L446.9,549.1z M768.9,497c-14.7-4.5-24.3-7.7-17.2-26.2c16-41.6,17.9-76.8,0-102.4
	c-33.3-47.3-124.1-44.8-228.4-1.3c0,0-32.6,14.1-24.3-11.5c16-51.8,13.4-94.7-11.5-119.6c-57-56.9-207.3,1.9-335.9,131.1
	C55.7,463.8,0,566.1,0,654.5C0,824,217.1,926.8,429.4,926.8c278.3,0,463.6-161.8,463.6-290.4c0-77.6-65.9-121.5-124.1-139.8V497z
	 M850.1,280.2c-31.6-35.3-79.7-50.9-126-41c-8.8,1.7-16.5,6.9-21.4,14.4c-4.9,7.5-6.7,16.6-4.8,25.3c4,18,21.7,29.4,39.7,25.6
	c22.5-4.9,45.9,2.7,61.4,19.8c16,17.9,19.8,41.6,13.5,62.7c-2.8,8.5-2,17.7,2.1,25.6c4.1,7.9,11.2,13.9,19.7,16.6
	c17.6,5.1,36.2-4.5,42.2-21.8c14.5-44.9,4-94.1-27.5-129.2L850.1,280.2z M953.1,186.7c-67.1-74.8-166.3-103-257.8-83.8
	c-10.1,2.1-19,8.1-24.6,16.8c-5.6,8.6-7.6,19.2-5.5,29.3c2.1,10.1,8.1,19,16.8,24.6c8.7,5.7,19.2,7.6,29.3,5.5
	c67.1-14.6,136.9,7.9,182.9,58.9c45.9,51,61.3,122.6,40.3,188c-3.3,9.8-2.5,20.6,2.2,29.9c4.7,9.3,12.9,16.3,22.8,19.4
	c20.4,7,42.2-4.4,49.3-24.9c29.7-92.3,8-193.5-57-265.5L953.1,186.7z M953.1,186.7"/>
</svg>
