<?xml version="1.0" encoding="utf-8"?>
<!-- Generator: Adobe Illustrator 22.0.0, SVG Export Plug-In . SVG Version: 6.00 Build 0)  -->
<svg version="1.1" id="图层_1" xmlns="http://www.w3.org/2000/svg" xmlns:xlink="http://www.w3.org/1999/xlink" x="0px" y="0px"
	 viewBox="0 0 1024 1024" style="enable-background:new 0 0 1024 1024;" xml:space="preserve">
<style type="text/css">
	.st0{fill:#9DA7B2;}
	.st1{fill:none;stroke:#A5A5A5;stroke-width:72;stroke-linecap:round;stroke-linejoin:round;stroke-miterlimit:10;}
</style>
<path class="st0" d="M880.9,575.7l-96.8-64.1l96.8-64.1 M549.2,848.4V669.1L716,557.8l134.1,89.9 M510.9,602.5l-136.1-90.9
	l136.1-90.9L647,511.7 M472.7,848.4L171.8,647.7l134.1-89.9l166.9,111.2 M141,447.6l96.8,64.1L141,575.7 M472.7,174.9v179.3
	L305.8,465.5l-134.1-89.9 M549.2,174.9l300.9,200.6L716,465.5L549.2,354.2 M957.9,370.6v-2c0-1,0-2-1.5-3c0-0.5,0-1.5-0.5-3
	c0,0-0.5,0-1-2c0-0.5-0.5-1-1-1.5c0-1-0.5-2-1-2.5c-0.5-1-1-1.5-1-2c-0.5-1-1.5-1.5-2-2.5c-0.5-0.5-0.5-1-1-1.5c0-0.5-0.2-1-0.6-1.4
	c-0.4-0.4-0.9-0.6-1.4-0.6l-1.5-1.5c-0.7-0.8-1.5-1.5-2.5-2l-1.5-1.5c-0.5,0-0.5,0-0.5-0.5L532.3,71.2c-13-8.4-29.7-8.4-42.7,0
	L80.9,343.3c0,0.5,0,0.5-0.5,0.5l-1.5,1.5c-1,0.5-1.5,1-2.5,2l-1.5,1.5l-2,2c-0.5,0.5-0.5,1-1,1.5c-0.5,1-1.5,1.5-2,2.5
	c0,0.5-0.5,1-1,2c-0.5,0.5-1,1.5-1,2.5c-0.5,0.5-1,1-1,1.5c-0.5,2-0.5,2-1,2c-0.5,1.5-0.5,2.5-0.5,3c-1.5,1-1.5,2-1.5,3v286.1
	c0,1,0,2,1.5,3c0,0.5,0,1.5,0.5,3c0.5,0,0.5,0,1,2c0,0.5,0.5,1,1,1.5c0,1,0.5,2,1,2.5c0.5,1,1,1.5,1,2c0.5,1,1.5,1.5,2,2.5
	c0.5,0.5,0.5,1,1,1.5c1,0.5,1.5,1.5,2,2l1.5,1.5c1,1,1.5,1.5,2.5,2l1.5,1.5c0.5,0,0.5,0,0.5,0.5l408.7,272.1
	c6.5,4.5,13.9,6.5,21.4,6.5c7.5,0,14.9-2,21.4-6.5L941,680c0-0.5,0-0.5,0.5-0.5l1.5-1.5c1-0.5,1.5-1,2.5-2l1.5-1.5
	c0.5-0.5,1-1.5,2-2c0.5-0.5,0.5-1,1-1.5c0.5-1,1.5-1.5,2-2.5c0-0.5,0.5-1,1-2c0.5-0.5,1-1.5,1-2.5c0.5-0.5,1-1,1-1.5c0.5-2,1-2,1-2
	c0.5-1.5,0.5-2.5,0.5-3c1.5-1,1.5-2,1.5-3V370.6z M957.9,370.6"/>
</svg>
