<?xml version="1.0" encoding="utf-8"?>
<!-- Generator: Adobe Illustrator 22.0.0, SVG Export Plug-In . SVG Version: 6.00 Build 0)  -->
<svg version="1.1" id="图层_1" xmlns="http://www.w3.org/2000/svg" xmlns:xlink="http://www.w3.org/1999/xlink" x="0px" y="0px"
	 viewBox="0 0 1024 1024" style="enable-background:new 0 0 1024 1024;" xml:space="preserve">
<style type="text/css">
	.st0{fill:#9DA7B2;}
	.st1{fill:none;stroke:#A5A5A5;stroke-width:72;stroke-linecap:round;stroke-linejoin:round;stroke-miterlimit:10;}
</style>
<path class="st0" d="M618.3,631.6c0,0,25.7-36.7,51.4-110.2c27.5-73.4,31.2-113.8,31.2-113.8l-209.3-1.8v-71.6l253.4-1.8v-51.4
	H491.6V165.2H366.7v113.8H126.2v51.4l236.8-1.8v77.1H173.9v40.4H565c0,0-3.7,33-18.4,73.4c-16.5,40.4-31.2,75.3-31.2,75.3
	s-183.6-64.3-280.9-64.3C137.2,530.6,19.7,571,8.7,683c-11,112,55.1,174.4,148.7,196.5c91.8,22,178.1,0,253.4-36.7
	c75.3-36.7,148.7-119.3,148.7-119.3l389.2,189.1c0,0,23.9-36.7,42.2-71.6c18.4-34.9,33-73.4,33-73.4L618.3,631.6L618.3,631.6z
	 M218,817C80.3,817,52.8,749.1,52.8,701.4c0-47.7,29.4-101,145-108.3c115.7-7.3,273.6,82.6,273.6,82.6S355.7,817,218,817L218,817z
	 M218,817"/>
</svg>
