<?xml version="1.0" encoding="utf-8"?>
<!-- Generator: Adobe Illustrator 22.0.0, SVG Export Plug-In . SVG Version: 6.00 Build 0)  -->
<svg version="1.1" id="图层_1" xmlns="http://www.w3.org/2000/svg" xmlns:xlink="http://www.w3.org/1999/xlink" x="0px" y="0px"
	 viewBox="0 0 1024 1024" style="enable-background:new 0 0 1024 1024;" xml:space="preserve">
<style type="text/css">
	.st0{fill:#9DA7B2;}
	.st1{fill:none;stroke:#A5A5A5;stroke-width:72;stroke-linecap:round;stroke-linejoin:round;stroke-miterlimit:10;}
</style>
<path class="st0" d="M746.4,608.9c0-19.4-3.8-37.2-11.4-53.3c-7.6-16.1-17-29.4-28.3-39.9c-11.3-10.5-25.5-20-42.5-28.6
	c-17.1-8.5-33.1-15.2-48.1-19.8c-15-4.7-32-9.1-51-13.4l-60.6-14c-11.7-2.7-20.2-4.8-25.6-6.1c-5.4-1.4-12.2-3.6-20.4-6.7
	c-8.2-3.1-14-6.2-17.5-9.3c-3.5-3.1-6.7-7.2-9.6-12.2c-2.9-5.1-4.4-10.9-4.4-17.5c0-29.9,28-44.9,83.9-44.9c16.7,0,31.7,2.3,44.9,7
	c13.2,4.7,23.7,10.2,31.5,16.6c7.8,6.4,15.1,12.9,22.1,19.5c7,6.6,14.8,12.2,23.3,16.9c8.5,4.7,17.9,7,28,7c18.3,0,32.9-6.2,44-18.6
	c11.1-12.4,16.6-27.4,16.6-44.9c0-21.4-10.9-40.7-32.6-58c-21.8-17.3-49.3-30.4-82.8-39.3c-33.4-8.9-68.8-13.4-106.1-13.4
	c-26.4,0-52.1,3-76.9,9c-24.9,6-48.1,15.2-69.6,27.4c-21.6,12.2-38.9,29.1-51.9,50.7c-13,21.6-19.5,46.5-19.5,74.9
	c0,23.7,3.7,44.4,11.1,62.1c7.4,17.7,18.3,32.3,32.6,44c14.4,11.7,29.9,21.1,46.6,28.3c16.7,7.2,36.7,13.5,60,18.9l85.1,21
	c35,8.5,56.7,15.5,65.3,21c12.4,7.8,18.6,19.4,18.6,35c0,15.1-7.8,27.7-23.3,37.6c-15.5,9.9-35.9,14.9-61.2,14.9
	c-19.8,0-37.6-3.1-53.3-9.3c-15.7-6.2-28.4-13.7-37.9-22.4c-9.5-8.7-18.4-17.5-26.5-26.2c-8.2-8.7-17.1-16.2-26.8-22.4
	c-9.7-6.2-20.2-9.3-31.5-9.3c-19.4,0-34.1,5.8-44,17.5c-9.9,11.7-14.9,26.2-14.9,43.7c0,35.7,23.7,66.3,71.1,91.8
	C400.5,769.3,457,782,522.7,782c28.4,0,55.6-3.6,81.6-10.8c26-7.2,49.8-17.6,71.4-31.2c21.6-13.6,38.8-31.8,51.6-54.5
	C740,662.9,746.4,637.3,746.4,608.9L746.4,608.9z M958,735.4c0,61.8-21.9,114.5-65.6,158.2c-43.7,43.7-96.4,65.6-158.2,65.6
	c-50.5,0-96-15.5-136.4-46.6c-29.9,6.2-59.1,9.3-87.4,9.3c-55.6,0-108.7-10.8-159.4-32.3c-50.7-21.6-94.4-50.7-131.1-87.4
	c-36.7-36.7-65.8-80.4-87.4-131.1c-21.6-50.7-32.3-103.8-32.3-159.4c0-28.4,3.1-57.5,9.3-87.4c-31.1-40.4-46.6-85.9-46.6-136.4
	c0-61.8,21.9-114.5,65.6-158.2c43.7-43.7,96.4-65.6,158.2-65.6c50.5,0,96,15.5,136.4,46.6c29.9-6.2,59.1-9.3,87.4-9.3
	c55.6,0,108.7,10.8,159.4,32.3c50.7,21.6,94.4,50.7,131.1,87.4c36.7,36.7,65.8,80.4,87.4,131.1c21.6,50.7,32.3,103.8,32.3,159.4
	c0,28.4-3.1,57.5-9.3,87.4C942.4,639.4,958,684.9,958,735.4L958,735.4z M958,735.4"/>
</svg>
