<?xml version="1.0" encoding="utf-8"?>
<!-- Generator: Adobe Illustrator 22.0.0, SVG Export Plug-In . SVG Version: 6.00 Build 0)  -->
<svg version="1.1" id="图层_1" xmlns="http://www.w3.org/2000/svg" xmlns:xlink="http://www.w3.org/1999/xlink" x="0px" y="0px"
	 viewBox="0 0 1024 1024" style="enable-background:new 0 0 1024 1024;" xml:space="preserve">
<style type="text/css">
	.st0{fill:#9DA7B2;}
	.st1{fill:none;stroke:#A5A5A5;stroke-width:72;stroke-linecap:round;stroke-linejoin:round;stroke-miterlimit:10;}
</style>
<path class="st0" d="M164.1,409.3c-5.5,12.9,1.8,22.1,0,71.7c0,12.9-58.8,75.4-82.7,139.7C57.5,683.3,55.7,749.4,90.6,777
	c34.9,25.7,68-86.4,73.5-69.9c1.8,7.4,3.7,14.7,7.4,22.1c11,31.3,31.3,64.3,58.8,95.6c5.5,7.4-34.9,18.4-58.8,58.8
	c-23.9,40.4,7.4,114,126.9,114c154.4,0,187.5-53.3,191.2-53.3h23.9c14.7,0,9.2,1.8,22.1,0c7.4,0,82.7,64.3,185.7,53.3
	c176.5-18.4,148.9-77.2,136-114c-14.7-38.6-66.2-57-62.5-58.8c42.3-46,49.6-75.4,62.5-117.7c5.5-18.4,46,97.4,79.1,69.9
	c12.9-11,38.6-57,12.9-156.3c-25.7-97.4-77.2-121.3-75.4-139.7c1.8-38.6,1.8-64.3-1.8-71.7c-9.2-33.1-29.4-25.7-29.4-33.1
	c0-194.9-145.2-351.1-325.4-351.1c-180.2,0-325.4,158.1-325.4,351.1C189.9,390.9,175.2,379.9,164.1,409.3L164.1,409.3z M164.1,409.3
	"/>
</svg>
