<?xml version="1.0" encoding="utf-8"?>
<!-- Generator: Adobe Illustrator 22.0.0, SVG Export Plug-In . SVG Version: 6.00 Build 0)  -->
<svg version="1.1" id="图层_1" xmlns="http://www.w3.org/2000/svg" xmlns:xlink="http://www.w3.org/1999/xlink" x="0px" y="0px"
	 viewBox="0 0 1024 1024" style="enable-background:new 0 0 1024 1024;" xml:space="preserve">
<style type="text/css">
	.st0{fill:#9DA7B2;}
	.st1{fill:none;stroke:#A5A5A5;stroke-width:72;stroke-linecap:round;stroke-linejoin:round;stroke-miterlimit:10;}
</style>
<path class="st0" d="M1003.5,578.5c-26-58.8-74.9-105.5-131.8-134.3c-100.3-50.8-225.1-50.5-325.2,1.3
	c-69.5,35.7-127.6,99.6-144,177.4c-13.6,57.3-1.4,119,29,168.8c45.2,75.1,127,123.1,211.9,138.4c61.5,12.5,125.2,5.1,184.9-12.2
	c35.9,13.9,67.9,36.4,102.6,53.1c-9-30.1-18.6-59.9-28.8-89.6c39-27.7,74.4-62.3,95.6-105.7C1029.4,715.5,1031.3,640.7,1003.5,578.5
	L1003.5,578.5z M580.5,175c-106.4-59.8-238.8-68.8-353.2-27.5C152.1,174.6,84,224.9,42,293.3C3.9,355.1-10.4,432.1,8,502.9
	C26.4,581.3,80.9,647.1,147,691c-12.8,36.2-24.9,72.4-36.4,108.9c41.6-21.7,83.1-44.5,124.7-66.5c49.9,16,102.9,23.8,156,22.1
	c-13.8-40.4-17.5-83.6-10.9-125.8c9.6-58.4,41.6-111.9,85-151.5c73.6-68.8,177.8-97.9,276.9-90.8c-18.6-91-82.5-167.9-163-212.3
	L580.5,175L580.5,175z M654.3,600.8c-8.9,27.8-49.3,36.1-68.8,15c-21.6-19.6-13.2-60.4,15.1-69.2
	C631.9,533.4,668.1,569.5,654.3,600.8L654.3,600.8z M858.7,604.7c-10.9,25-48.6,30.8-67.2,11.5c-8.9-8.1-11.5-20.4-14.7-31.1
	c4.4-19.5,17.9-39.8,39.6-40.7c30.1-4.2,57,32.9,41.6,60.4L858.7,604.7L858.7,604.7z M553.7,329.6c0.3,41-54.3,66.5-85,38.7
	c-31.8-22.8-22.8-78.3,14.6-89.8c33.5-13.4,73,14.7,70.4,50.5L553.7,329.6z M295.5,340c-7.3,35.6-55,52.8-83,28.9
	c-32.4-22.8-23.3-79.3,14.7-90.8C264.4,263.7,306.7,301.5,295.5,340L295.5,340z M295.5,340"/>
</svg>
