<?xml version="1.0" encoding="utf-8"?>
<!-- Generator: Adobe Illustrator 22.0.0, SVG Export Plug-In . SVG Version: 6.00 Build 0)  -->
<svg version="1.1" id="图层_1" xmlns="http://www.w3.org/2000/svg" xmlns:xlink="http://www.w3.org/1999/xlink" x="0px" y="0px"
	 viewBox="0 0 1024 1024" style="enable-background:new 0 0 1024 1024;" xml:space="preserve">
<style type="text/css">
	.st0{fill:#9DA7B2;}
	.st1{fill:none;stroke:#A5A5A5;stroke-width:72;stroke-linecap:round;stroke-linejoin:round;stroke-miterlimit:10;}
</style>
<path class="st0" d="M510.4,1.2C228.5,1.2,0,229.7,0,511.6c0,281.9,228.5,510.4,510.4,510.4c281.9,0,510.4-228.5,510.4-510.4
	C1020.8,229.7,792.3,1.2,510.4,1.2L510.4,1.2z M463.1,766c-130.5,0-263.8-63.2-263.8-167.2c0-54.4,34.4-117.2,93.8-176.6
	c79.2-79.2,171.6-115.3,206.3-80.5c15.3,15.3,16.8,41.8,7,73.5c-5.1,15.9,15,7.1,15,7.2c64-26.8,119.9-28.4,140.3,0.8
	c10.9,15.5,9.9,37.3-0.2,62.6c-4.6,11.6,1.4,13.4,10.3,16.1c36.1,11.2,76.2,38.2,76.2,85.9C747.9,666.7,634.1,766,463.1,766
	L463.1,766z M699.3,435.4c4.2-13,1.6-27.9-8.3-38.8c-9.8-10.9-24.3-15-37.7-12.2v0c-11.2,2.4-22.2-4.7-24.6-15.9
	c-2.4-11.2,4.7-22.2,15.9-24.6c27.4-5.8,57.1,2.6,77.2,24.9c20.1,22.3,25.5,52.7,16.9,79.3c-3.5,10.9-15.2,16.8-26.1,13.4
	C701.7,458,695.8,446.3,699.3,435.4L699.3,435.4z M820,474.4C820,474.4,820,474.5,820,474.4c-4.1,12.7-17.7,19.6-30.3,15.6
	c-12.7-4.1-19.6-17.6-15.5-30.3l0,0c12.6-38.9,4.6-83.3-24.7-115.8c-29.4-32.5-72.6-45-112.6-36.5c-13,2.8-25.8-5.5-28.6-18.5
	c-2.8-13,5.5-25.8,18.5-28.6h0c56.2-12,117.1,5.5,158.4,51.3C826.5,357.3,837.7,419.7,820,474.4L820,474.4z M638.7,577.9
	c-6.7-68.3-96.6-115.4-200.7-105.1c-104.1,10.3-183,74-176.3,142.4c6.8,68.3,96.6,115.4,200.7,105.1
	C566.5,710,645.4,646.2,638.7,577.9L638.7,577.9z M529.3,633.9c-21.2,48-82.3,73.7-134.2,56.9c-50-16.2-71.2-65.6-49.3-110.1
	c21.5-43.6,77.5-68.3,127-55.4C524.1,538.6,550.3,587,529.3,633.9L529.3,633.9z M423.4,597.3c-16.1-6.8-37,0.2-46.9,15.8
	c-10.1,15.7-5.3,34.3,10.7,41.6c16.2,7.4,37.8,0.4,47.9-15.7C444.9,622.8,439.7,604.3,423.4,597.3L423.4,597.3z M463.1,580.9
	c-6.2-2.5-13.9,0.5-17.5,6.6c-3.5,6.1-1.6,13.1,4.6,15.6c6.3,2.6,14.4-0.4,18-6.6C471.7,590.2,469.4,583.2,463.1,580.9L463.1,580.9z
	 M463.1,580.9"/>
</svg>
