<?xml version="1.0" encoding="utf-8"?>
<!-- Generator: Adobe Illustrator 22.0.0, SVG Export Plug-In . SVG Version: 6.00 Build 0)  -->
<svg version="1.1" id="图层_1" xmlns="http://www.w3.org/2000/svg" xmlns:xlink="http://www.w3.org/1999/xlink" x="0px" y="0px"
	 viewBox="0 0 1024 1024" style="enable-background:new 0 0 1024 1024;" xml:space="preserve">
<style type="text/css">
	.st0{fill:#9DA7B2;}
	.st1{fill:none;stroke:#A5A5A5;stroke-width:72;stroke-linecap:round;stroke-linejoin:round;stroke-miterlimit:10;}
</style>
<path class="st0" d="M886.1,64h-752c-39.8,0-72,32.2-72,72v752c0,39.8,32.2,72,72,72h752c39.8,0,72-32.2,72-72V136
	C958.1,96.2,925.8,64,886.1,64z M812.7,355.3h-24.2c-4.3,0-9,2.5-14,7.5c-5,5-7.5,9.5-7.5,13.6v300.2c0,4.1,2.4,8.4,7.3,12.8
	c4.9,4.4,9.6,6.6,14.1,6.6h24.2v71.2H593.9V696h45.7V380.5h-2.1l-107,386.8h-82.8L342.1,380.5h-2.7V696h46v71.2H202.1V696h23.5
	c4.8,0,9.7-2.2,14.7-6.6c5-4.4,7.5-8.7,7.5-12.8V376.4c0-4.1-2.5-8.6-7.5-13.6c-5-5-9.9-7.5-14.7-7.5h-23.5V284h229l75.3,279.8h2
	l76-279.8h228.3V355.3z"/>
</svg>
