<?xml version="1.0" encoding="utf-8"?>
<!-- Generator: Adobe Illustrator 22.0.0, SVG Export Plug-In . SVG Version: 6.00 Build 0)  -->
<svg version="1.1" id="图层_1" xmlns="http://www.w3.org/2000/svg" xmlns:xlink="http://www.w3.org/1999/xlink" x="0px" y="0px"
	 viewBox="0 0 1024 1025" style="enable-background:new 0 0 1024 1025;" xml:space="preserve">
<style type="text/css">
	.st0{fill:#9DA7B2;}
	.st1{fill:none;stroke:#A5A5A5;stroke-width:72;stroke-linecap:round;stroke-linejoin:round;stroke-miterlimit:10;}
</style>
<path class="st0" d="M270.1,753.5C270.1,753.5,270.1,753.5,270.1,753.5C270.1,753.5,270.1,753.5,270.1,753.5z M121.2,725.6
	c0.3-0.1,0.7-0.2,1-0.3C121.9,725.5,121.6,725.6,121.2,725.6z M124.4,724.7c0.4-0.2,0.8-0.3,1.1-0.5
	C125.2,724.4,124.8,724.6,124.4,724.7z M90.8,677.3c-0.3,0.3-0.5,0.7-0.8,1C90.3,677.9,90.6,677.6,90.8,677.3z M88.9,680.3
	c-0.2,0.3-0.4,0.6-0.5,1C88.6,680.9,88.8,680.6,88.9,680.3z M127.4,723.2c0.4-0.2,0.7-0.5,1.1-0.7
	C128.1,722.8,127.8,723,127.4,723.2z M132.3,718.8c0.3-0.3,0.5-0.7,0.8-1C132.9,718.1,132.6,718.4,132.3,718.8z M134.2,715.8
	c0.2-0.3,0.4-0.6,0.5-1C134.6,715.1,134.4,715.4,134.2,715.8z M117.9,726c-1.2,0-2.5-0.1-3.7-0.4C115.4,725.8,116.6,726,117.9,726z
	 M95.8,672.8c-0.4,0.2-0.7,0.5-1.1,0.7C95,673.3,95.4,673,95.8,672.8z M93.1,674.8c-0.3,0.3-0.7,0.6-1,0.9
	C92.5,675.4,92.8,675.1,93.1,674.8z M131,720.3c-0.3,0.3-0.6,0.6-1,0.9C130.4,721,130.7,720.7,131,720.3z M98.7,671.3
	c-0.4,0.2-0.8,0.3-1.1,0.5C98,671.7,98.3,671.5,98.7,671.3z M681.4,649.2c-0.8-1.2-1.5-2.5-2.2-3.9l-2.3-5.1
	c-1.4-3.2-2.2-6.5-2.5-9.7c-49.3,20.3-100.5,36.2-152.1,50.1c-61.9,16.5-124.7,30-187.9,41.6l5.7,28.7
	c63.4-13.4,126.5-28.7,188.8-47.1C580.6,688.4,631.9,671,681.4,649.2z M581.1,533l-0.3,0.2c2.4-0.6,4.8-1.1,7.2-1.7
	c16.6-4.3,33.2-9.1,49.6-15.1c8.2-3.1,16.3-6.4,24.3-10.6c6.6-3.5,13.2-7.3,19.3-12.6c-0.8-1.8-1.5-3.8-1.7-5.8l-1.8-14.9
	c-1.2,2-2.8,4.1-4.6,5.8c-4.9,4.8-11.8,8.9-18.9,12.4c-7.2,3.5-14.8,6.5-22.6,9.2c-15,5.2-30.6,9.4-46.3,13.1
	C588.9,519.7,587.3,528.2,581.1,533z M701.3,504.5c-0.8,0.1-1.6,0.1-2.4,0.1c-5.2,0-10-2.1-13.5-5.5c-3.8,2.3-7.7,4.5-11.7,6.5
	c-14.3,7.2-29.6,13.1-45.1,18.3c-31.1,10.3-63.2,18.1-95.6,25c-64.8,13.5-130.5,23-196.4,31.1c-4.1,0.5-8.2,0.9-12.4,1.4
	c-5.1,3.8-11.3,5.9-17.9,5.9c-4.2,0-8.2-0.9-12-2.5c-51.9,5.7-104,10.4-156.1,14.8l2.7,29.2c66.4-7.1,132.8-14.6,198.9-24.3
	c66.1-9.6,132.2-20.7,197.5-35.9c32.7-7.7,65.2-16.3,97.1-27.7c15.9-5.8,31.7-12.2,47-20.3c7.6-4.1,15.1-8.6,22.2-14.1
	c1.1-0.9,2.2-1.8,3.4-2.7L701.3,504.5z M283.7,577.1c-5.7-5.7-8.8-13.2-8.8-21.3c0-0.6,0.1-1.2,0.1-1.8c-31.2,2.5-62.4,4.7-93.6,6.7
	L80,566.4l1.8,29.2l101.7-7.9c33.9-2.9,67.7-6,101.5-9.5L283.7,577.1z M553.6,534.5l-4.2-5.4c-1.8-2.4-2.8-5.1-3.2-7.8
	c-20.5,3.9-41.2,7.3-61.9,10.4c-48.9,7.1-98.1,12.5-147.3,17.1c0.6,2.3,0.9,4.7,0.9,7.2c0,6.3-2,12.3-5.6,17.4
	c51.9-5.8,103.6-12.6,155.2-21.2c23.7-4,47.3-8.4,70.8-13.6C556.5,537.5,554.9,536.2,553.6,534.5z M275.4,687
	c57.7-9.7,115.2-20.7,172.3-33.7l-4.6-3.2c-5.2-3.5-8.7-8.8-9.8-15c-0.3-1.4-0.4-2.7-0.4-4.1c-53.7,10.5-107.7,19.3-161.9,27
	L275.4,687z M725.6,784.1c-3-7.4-2.9-15.6,0.2-23l0.8-1.8c0.3-0.6,0.6-1.2,0.9-1.8C676.9,779,624.8,797.2,572,813.3l9,27.9
	c49-16.7,97.5-35.1,144.9-56.5C725.8,784.5,725.7,784.3,725.6,784.1z M811.7,656.9c26.7-17.8,52.3-37.8,74.1-61.9
	c12.5-13.8,23.8-29.3,32.5-46c-2.3-1-4.4-2.6-6-4.8l-4.3-6c-8.8,16.8-20.6,32.3-33.8,46.2C853,606.4,828,625,801.7,641.4
	C748.9,674,690.9,698.3,632,719.2c-59.1,20.7-119.5,37.7-180.5,52.4l7.3,28.4c61.2-16.7,122-35.6,181.4-58.4
	C699.5,718.6,758,692.2,811.7,656.9z M975.2,600.5c-17.1,26.9-38.9,50.3-62.6,71c-39.6,34.4-84.1,61.9-130.2,85.9
	c-3.1-5.8-8.1-10.6-14.6-13.3l-1.8-0.8c-1.3-0.5-2.6-1-3.9-1.3c49.3-23.1,97-50,138.9-84.2c23.3-19.2,44.7-40.8,61.5-65.6
	c26.9-37.6,41.2-93.9,31.2-125.7c-4.7-12.9-15.9-23.3-28-31.5c-12.3-8.3-26.1-14.9-40.1-20.6c-14.1-5.8-28.6-10.7-43.2-15.2
	c-9.1-2.8-18.3-5.4-27.5-7.9c8.8,2.7,17.6,5.5,26.3,8.7c13.8,5,27.5,10.6,40.7,17.5c13.1,7,26.1,15.2,36.5,27.1
	c5.1,6,9.5,13,11.8,21c1.2,3.9,1.8,8.1,1.9,12.2c0.1,3.8,0.2,7.5,0.1,11.3c-0.4,15.1-2.8,30.1-7.2,44.6c-8.8,29-24.9,55.2-44.3,77.9
	c-19.4,22.8-42,42.4-65.9,60c-23.9,17.5-49.1,33-74.9,47.2c-51.8,28.2-106,51.2-161,71.5l-9.6-27.7c54.7-18,108.6-38.6,159.9-64.2
	c25.6-12.8,50.6-27,74.1-43c23.5-16,45.7-34,64.8-54.8c19-20.7,34.9-44.5,43.9-71c4.5-13.2,7.2-27,8.1-41c0.2-3.5,0.3-7,0.3-10.5
	c0-3.2-0.5-6.3-1.3-9.3c-1.7-6-5-11.7-9.3-16.8c-8.7-10.2-20.6-18.1-32.9-24.8c-12.5-6.7-25.7-12.3-39.2-17.3
	c-14.1-5.2-28.6-9.8-43.1-14.1c21.7,7.3,43.2,15.8,63.4,27.9c7,4.3,13.7,9.1,19.9,14.9c6.1,5.8,11.7,12.7,15.2,21
	c1.7,4.1,2.9,8.6,3.4,13.1c0.5,4.7,0.1,8.8,0,12.9c-0.4,6.8-1.3,13.5-2.7,20.2c-4.1-2.2-9-2.3-13.3-0.1c1.7-6.9,2.9-13.9,3.6-21
	c0.2-3.8,0.6-7.6,0.3-10.8c-0.3-3.3-1.1-6.6-2.4-9.7c-5.3-12.7-17.4-22.7-30.1-30.7c-24-14.7-51.3-24.5-78.7-33.4
	c5.4,2,10.9,4.1,16.2,6.4c14.3,6,28.5,12.9,41.7,22.1c6.5,4.6,12.9,9.9,18.3,16.3c5.4,6.4,9.8,14.3,11.4,23.2
	c0.8,4.3,0.8,9.2,0.4,13.2c-0.3,4-0.9,8-1.6,12c-1.4,7.9-3.6,15.7-6.3,23.3c-5.6,15.1-13.7,29.1-23.2,41.8
	c-19.1,25.5-43.4,46.1-68.9,64.1c-51.5,35.7-108.4,61.4-166,83.6c-57.8,22.1-116.8,40.2-176.4,56.2l-7.1-28.4
	c59.3-14,118-30,175.4-50c22-7.7,43.8-16,65.3-25c3.9,2,8.2,3.1,12.8,3.1c4.1,0,8-0.9,11.7-2.6l5.1-2.3c8.2-3.8,13.8-11,15.7-19.2
	c18.3-9.2,36.2-19.2,53.4-30.4c25-16.5,48.6-35.4,67-58.4c9.2-11.5,17-24,22.4-37.5c2.7-6.7,4.9-13.7,6.4-20.8
	c0.7-3.5,1.3-7.1,1.7-10.7c0.5-3.6,0.4-6.5-0.1-9.7c-2.1-12.6-12.6-23.5-24.3-31.9c-11.9-8.5-25.4-15.2-39.2-21.2
	c-11.2-4.8-22.6-9.1-34.2-13.1c11.3,4.7,22.5,9.9,33.3,16c7.2,4.2,14.3,8.8,20.9,14.4c6.5,5.6,12.7,12.2,16.9,20.5
	c2.1,4.1,3.6,8.8,4.3,13.5c0.7,4.7,0.3,9.9-0.4,14c-1.3,8.5-3.6,16.8-6.8,24.7C852.4,523,843,537.3,832,550
	c-11,12.7-23.3,23.9-36.4,34.1c-18.6,14.4-38.4,26.8-58.8,38c-0.3-0.9-0.6-1.8-1-2.6l-2.3-5.1c-1.4-3.1-3.4-5.8-5.8-8.2
	c20.2-10.4,39.8-21.9,58-35.3c25.1-18.6,48.1-41.1,60.2-69.2c3-7,5.2-14.2,6.6-21.6c1.5-7.1,0.7-13.3-2.4-19.5
	c-6.2-12.4-19.1-22-32.4-29.8c-16.2-9.3-33.7-16.8-51.6-23.5c0,0,0.1,0,0.1,0c15.5,7.1,31.1,15,44.8,26.7c6.8,5.9,13.2,13,17.2,22.1
	c2,4.5,3.2,9.6,3.3,14.7c0.2,5.1-0.9,10.3-2,14.4c-4.6,17.7-14.3,33.3-25.7,46.6c-23.3,26.6-52.7,45.5-82.7,61.9
	c-2.8,1.5-5.7,3-8.5,4.4c-1.6-0.3-3.2-0.5-4.9-0.5h0c-4.1,0-8,0.9-11.7,2.6l-5.1,2.3c-5.7,2.6-10.2,7-13,12.1
	c-16.5,7.3-33.3,14-50.2,20.3C564,658.6,498.6,676.5,432.8,692c-65.8,15.4-132.2,28.2-198.7,39.4l-4.5-28.9
	c66.3-9.6,132.4-20.8,197.9-34.5c10.8-2.3,21.6-4.6,32.4-7.1c2.9,1.2,5.9,1.9,9.1,1.9c6.9,0,13.3-3,17.7-8.1
	C532,643.9,577,631.6,621,616.5c31.5-10.9,62.5-23.1,92-38.1c29.2-15.1,57.8-32.7,79.4-56.4c10.7-11.8,19.4-25.4,23.7-40.3
	c1.2-3.9,1.8-7,1.7-10.4c-0.1-3.3-0.8-6.6-2.1-9.8c-2.6-6.4-7.6-12.2-13.5-17.4c-11.8-10.3-26.5-18.1-41.4-25.1
	c-6.6-3-13.3-5.9-20.1-8.6c9.5,4.7,18.8,9.9,27.6,16.1c6.8,4.9,13.5,10.5,19,17.7c5.5,7,9.8,16.4,9.6,26.5c0,4.9-1.2,9.9-2.7,14
	c-1.4,4.2-3.2,8.2-5.2,12.1c-4.1,7.7-9.2,14.7-14.8,21c-11.2,12.7-24.4,23.1-38.1,32.2c-27.5,18.2-57.1,31.8-87.1,43.9
	c-50.1,19.8-101.7,34.9-153.6,48l1.3-1.9c3.5-5.2,4.8-11.4,3.6-17.6c-0.4-1.9-1-3.6-1.7-5.3c48.7-11.2,96.9-24.2,143.5-41.2
	c29.5-10.9,58.6-23.5,84.9-39.9c13.1-8.3,25.5-17.6,35.7-28.6c5.1-5.5,9.6-11.4,13.2-17.7c3.4-6.4,6.5-13.3,6.5-19.2
	c0.5-12.3-10.3-24-22.4-32.7c-12.3-8.9-26.3-16-40.6-22.4c-1.7-0.8-3.5-1.5-5.2-2.2c9.2,4.9,18.2,10.5,26.7,17.4
	c6.7,5.6,13.2,12.2,17.7,21c2.2,4.4,3.7,9.4,4,14.6c0.3,5.2-0.6,10.4-2.2,15c-6.9,17.9-20,30.4-33.5,40.8
	c-13.7,10.3-28.4,18.6-43.4,26c-30.1,14.6-61.4,25.6-92.9,35.4c-32.4,9.9-65,18.4-97.9,25.9c-0.7-0.6-1.3-1.2-2.1-1.7l-12.6-8.6
	c-3.9-2.7-8.5-4.1-13.2-4.1h0c-7.8,0-15,3.8-19.4,10.3l-8.6,12.6c-0.9,1.3-1.6,2.6-2.2,4c-12,2.4-24,4.8-36,7.1
	c-64.5,12.1-129.4,22.1-194.3,30.8l-3.5-29.1c64.8-7.1,129.4-15.5,193.6-25.9c64.2-10.5,128.2-22.9,190.5-40.3
	c31.1-8.8,61.9-18.8,91-32.1c14.5-6.6,28.6-14.2,41.2-23.2c12.5-9,23.9-20.1,29-32.9c2.3-6.1,2-12.1-0.9-18
	c-2.8-5.9-7.9-11.4-13.7-16.3c-11.7-9.7-25.9-17.4-40.3-24.2c-1.7-0.8-3.5-1.6-5.2-2.4c8.7,4.9,17.1,10.5,25,17.4
	c5.2,4.8,10.5,10.4,14,17.6c-3.2-2.3-7.1-3.8-11.4-3.8h0c-0.8,0-1.6,0-2.4,0.1l-6.9,0.8c-1.1-1.2-2.3-2.4-3.6-3.6
	c-11.3-10.2-25.8-18.2-40.3-25.4c-1.8-0.9-3.7-1.7-5.6-2.6c8.9,5.1,17.6,10.9,25.7,18.3c3.4,3.2,6.7,6.8,9.5,11
	c0.8,1.2,1.6,2.5,2.3,3.9c-4.4,1-8.3,3.3-11.1,6.9c-0.8,1-1.5,2.1-2,3.2c-1.5-4.5-5.1-9.3-9.6-13.5c-11.2-10.5-26-18.7-40.7-26.2
	c-29.9-14.8-61.6-26.8-93.2-38.8c-19.9-7.6-39.9-15-59.7-23c2.3-5.7,0.4-12.4-4.8-16l-11.6-7.9c-2.2-1.5-4.8-2.3-7.4-2.3h0
	c-4.4,0-8.5,2.2-11,5.8l-2.8,4.1c-14.7-7-29.5-14.3-42.9-25.4c-3.5-3-6.9-6.3-9.8-10.5c-2.9-4.1-5.3-9.4-5.3-15.5
	c0-3,0.6-5.9,1.7-8.6c1-2.2,1.9-4.3,3.1-6.4c2.3-4.1,4.8-8,7.8-11.5c11.8-14.2,27.4-23.6,43.1-31c15.9-7.3,32.4-12.6,49-16.8
	c33.3-8.4,67.2-13.1,101.1-16.3c67.8-6.3,135.8-7,203.7-6.3c53.5,0.6,106.9,2.4,160.3,4.4c5.1,0.1,10.3,0.3,15.4,0.5
	c9.3,0.3,18.5,0.7,27.8,1.2c-17.3-0.3-34.7-0.7-52-1c-44.4-0.1-88.7,1.9-132.8,6.4c-30.6,3.2-61.2,7.8-91.1,14.8
	c-29.8,7.2-59.5,16.6-85.1,33c-6.3,4.1-12.3,8.7-17.7,13.9c-5.2,5.2-10.3,11-13.3,17.3c-3,6.4-2.8,13.3,1,19
	c3.7,5.8,9.7,10.3,16.1,14.1c5.4,3.2,11.2,5.9,17.1,8.4l-1.7,2c-1,1.2-1.8,2.5-2.4,3.9c-5.6-2.5-11.2-5.3-16.5-8.5
	c-6.7-4.2-13.5-9.1-18.1-16.5c-2.3-3.6-3.8-8-3.9-12.5c-0.2-4.5,1-8.8,2.8-12.6c3.7-7.7,9.2-13.5,14.9-19.1
	c5.8-5.5,12.2-10.2,18.8-14.4c26.9-16.5,57.1-25.5,87.2-32.4c5.7-1.3,11.5-2.4,17.3-3.5c-0.3,0.1-0.7,0.1-1,0.2
	c-28.5,4.9-56.9,11.2-83.9,21.3c-13.5,5.1-26.6,11.1-38.6,18.7c-11.9,7.6-23,17.2-30.2,28.7c-3.4,5.7-4.8,12.1-2.5,17.9
	c2.2,5.8,7.2,10.6,12.7,14.7c11.3,8,24.8,13.5,38.2,18.4c0.8,0.3,1.6,0.5,2.4,0.8c-2.7,6.9-1,15.1,5,20.2l4.1,3.5
	c3.2,2.7,7.3,4.2,11.5,4.2c5.3,0,10.2-2.3,13.6-6.3l3.5-4.1c2.8-3.3,4.2-7.4,4.1-11.6c10.6,3.1,21.2,5.8,31.9,8.5
	c27.7,6.8,55.7,12.8,83.7,19l-10.9,25.7l30.1,12.8l12.8-30.1l-5.6-2.4c23.5,5.4,47,11.2,70.2,18c14.9,4.4,29.7,9.2,44.2,15
	c14.5,5.8,28.9,12.4,42.3,21.2c13.1,8.8,26.2,20.1,32.5,36.5C1017.6,495.9,1002.7,562.3,975.2,600.5z M420.5,317.3
	c-4.2-3.4-8.1-7.3-11.4-12.2c-2.7-4.1-4.8-9.5-4.6-15.2c0.1-2.8,0.7-5.6,1.7-8.1c1-2.6,2.1-4.2,3.1-6.3
	c9.1-15.7,23.3-26.9,38.1-35.3c-2.1,0.9-4.2,1.8-6.2,2.8c-14.7,7.2-28.7,16.3-38.4,28.6c-2.5,3-4.5,6.3-6.3,9.6
	c-0.9,1.7-1.6,3.5-2.4,5.1c-0.5,1.3-0.8,2.6-0.7,3.8c-0.1,5,4.8,11.2,10.8,16C409.1,310.3,414.7,313.9,420.5,317.3z M446.9,319.7
	c-1.9-1.4-3.8-2.9-5.6-4.6c-3.3-3-6.5-6.4-9-10.6c-2.5-4.1-4.3-9.4-4-14.8c0.2-5.4,2.6-10.4,4.8-13.9c2.2-3.8,4.8-7.4,7.6-10.8
	c5.7-6.6,12.3-12.3,19.2-17.2c5.7-4,11.7-7.5,17.8-10.6c-8.5,3.5-16.8,7.4-24.7,12c-13.8,8.1-26.3,18.6-33.6,31.9
	c-0.7,1.6-1.9,3.6-2.3,4.9c-0.5,1.4-0.8,2.8-0.8,4.1c-0.1,2.7,0.9,5.5,2.8,8.3c3.8,5.6,10.1,10.5,16.7,14.8
	C439.4,315.5,443.1,317.6,446.9,319.7z M473.7,322.2c-0.3-0.2-0.6-0.4-0.9-0.6c-6.8-4.9-13.7-10.5-18.1-19.2
	c-2.2-4.3-3.2-9.6-2.4-14.6c0.6-5,3.1-9.5,5.3-13c4.5-7.3,10.3-13.7,16.7-19.1c10.7-9.1,22.7-16,35.2-21.6c-0.4,0.1-0.8,0.3-1.2,0.4
	c-15,5.6-29.6,12.5-42.3,21.7c-6.3,4.6-12.1,9.8-17,15.7c-2.3,3-4.6,6.1-6.3,9.3c-2,3.5-3.1,6.1-3.2,9c-0.3,5.6,3.9,11.5,9.5,16.4
	c5.6,4.9,12.3,9.1,19.3,12.8C469.9,320.4,471.8,321.3,473.7,322.2z M501.8,325.3c-0.6-0.4-1.2-0.7-1.8-1.1
	c-7.3-4.8-14.7-10.2-20-18.4c-2.6-4.1-4.4-9.3-4.3-14.5c0-5.3,1.9-10.2,4.4-14.3c4.7-7.7,10.7-14.4,17.3-20.2
	c13.3-11.5,28.8-19.5,44.6-25.9c-7.4,2.5-14.6,5.2-21.8,8.3c-14.3,6.2-28.1,13.9-39.5,24c-5.7,5-10.6,10.8-14.4,17.1
	c-4.2,6.3-5.1,11.9-2.2,17.6c2.9,5.7,8.7,10.7,14.8,15c6.2,4.3,13.1,7.9,20.1,11.3C499.9,324.5,500.9,324.9,501.8,325.3z M588.9,334
	c-3.3-1.5-6.7-3-9.9-4.7c-7.2-3.7-14.3-7.9-20.6-13.5c-3.2-2.8-6.1-6.1-8.4-9.9c-2.3-3.8-3.8-8.5-3.8-13.2c0-9.6,5.5-17.4,10.6-23.5
	c5.3-6.3,11.5-11.8,18-16.6c13.1-9.6,27.7-16.6,42.6-22.3c10.6-4,21.4-7.4,32.3-10.3c-7,1.6-14,3.4-21,5.4
	c-14.6,4.1-29,9.1-42.7,15.3c-10.6,4.9-20.9,10.6-30.1,17.6c-0.2-1.1-0.4-2.1-0.8-3.2c-0.5-1.5-1.3-2.9-2.1-4.2
	c9.4-6.7,19.7-12,30.1-16.6c9.5-4.1,19.1-7.6,28.9-10.6c-1,0.3-2,0.5-2.9,0.8c-15.4,4.2-30.6,9.2-45.1,15.8c-4.8,2.2-9.5,4.5-14.1,7
	c-1.4-1.3-2.9-2.4-4.7-3.3c-1.1-0.5-2.2-0.9-3.4-1.3c6.2-3.5,12.6-6.6,19.1-9.4c5-2.1,10-4,15-5.8c-10.5,3.1-20.9,6.7-30.9,11
	c-2.7,1.1-5.3,2.4-8,3.6c-0.1,0-0.2,0-0.3,0c-6.7,0-12.9,3.5-16.4,9.1c-6,3.7-11.8,7.9-17,12.6c-6,5.4-11.2,11.5-15.1,18.2
	c-3.9,6.3-3.9,12.9,0,18.8c3.8,6,10.3,10.9,17.1,15.2c6.8,4.2,14.2,7.9,21.8,11.2c1,0.4,2,0.8,3,1.2c-2.4-1.3-4.8-2.7-7.2-4.2
	c-7-4.6-14-9.8-19.1-17.6c-2.5-3.9-4.3-8.6-4.4-13.6c-0.2-5,1.3-9.8,3.4-13.8c4.1-7.1,9-13,14.6-18.4c-0.2,3.5,0.7,6.9,2.2,9.9
	c-3.5,4-6.6,8.2-9,12.5c-3.3,6.2-3.1,12.7,0.8,18.5c3.8,5.8,10,10.5,16.5,14.6c6.6,4.1,13.6,7.6,20.9,10.8c3.4,1.5,6.9,2.9,10.4,4.3
	c-5.9-2.9-11.6-6.1-17.1-10c-6.5-4.6-13-10.2-16.9-18.4c-1.8-4.1-2.7-8.9-2.1-13.4c0.5-4.1,2-7.9,3.9-11.2c0.5,0.3,0.9,0.6,1.4,0.9
	c2,1,4.2,1.6,6.4,1.8c-3.5,6.1-5,12.5-1.9,18.4c2.7,5.8,8.2,10.7,14.2,14.8c6,4.1,12.6,7.6,19.4,10.7
	C573.7,328.2,581.3,331.2,588.9,334z M619.1,336.5c-11.4-4.5-22.6-9.6-32.9-17.1c-6-4.5-12.1-10.1-15.1-18.1
	c-1.5-3.9-1.8-8.4-1.1-12.5c0.7-4.1,2.3-7.9,4.4-11.3c8.4-13.1,20.2-22.7,32.8-30.5c12.6-7.8,26.2-13.7,40-18.6
	c13.6-4.8,27.5-8.7,41.5-11.9c-23.5,4.8-46.8,10.9-69,19.7c-14.4,5.8-28.5,12.8-40.7,22.1c-6.1,4.6-11.7,9.8-16.5,15.7
	c-4.8,5.9-8.7,12.2-8.6,18.7c0,6.5,4.2,12.5,9.7,17.2c5.5,4.8,12.2,8.7,19,12.2C594.3,327.8,606.6,332.3,619.1,336.5z M567.2,499.4
	c-3.4,0-6.8,1.1-9.7,3.3l-5.4,4.2c-6.9,5.4-8.1,15.3-2.7,22.2l4.2,5.4c3.1,4,7.8,6.1,12.5,6.1c3.4,0,6.8-1.1,9.7-3.3l5.4-4.2
	c6.9-5.4,8.1-15.3,2.7-22.2l-4.2-5.4C576.6,501.5,571.9,499.4,567.2,499.4 M567.2,492.2c7.1,0,13.8,3.2,18.1,8.9l4.2,5.4
	c7.8,10,6,24.5-4,32.3l-5.4,4.2c-4.1,3.2-9,4.9-14.1,4.9c-7.1,0-13.8-3.2-18.1-8.9l-4.2-5.4c-3.8-4.8-5.4-10.9-4.7-17
	c0.8-6.1,3.8-11.5,8.7-15.3l5.4-4.2C557.2,493.8,562,492.2,567.2,492.2L567.2,492.2L567.2,492.2z M564.9,136l-4.7,22.6l22.6,4.7
	l4.7-22.6L564.9,136 M559.3,127.4l7.1,1.5l22.6,4.7l7.1,1.5l-1.5,7.1l-4.7,22.6l-1.5,7.1l-7.1-1.5l-22.6-4.7l-7.1-1.5l1.5-7.1
	l4.7-22.6L559.3,127.4L559.3,127.4z M927,503.9c-2.9,0-5.8,0.9-8.3,2.7l-10.3,7.3c-6.5,4.6-8,13.5-3.4,20l7.3,10.3
	c2.8,3.9,7.2,6,11.7,6c2.9,0,5.8-0.9,8.3-2.7l10.3-7.3c6.5-4.6,8-13.5,3.4-20l-7.3-10.3C935.9,506,931.5,503.9,927,503.9 M927,496.7
	c7,0,13.5,3.4,17.6,9.1l7.3,10.3c3.3,4.7,4.6,10.4,3.7,16.1c-1,5.7-4.1,10.6-8.8,14l-10.3,7.3c-3.7,2.6-8,4-12.5,4
	c-7,0-13.5-3.4-17.6-9.1l-7.3-10.3c-3.3-4.7-4.6-10.4-3.7-16.1c1-5.7,4.1-10.6,8.8-14l10.3-7.3C918.2,498,922.5,496.7,927,496.7
	L927,496.7L927,496.7z M790.4,361.5l-12.8,30.1l30.1,12.8l12.8-30.1L790.4,361.5 M786.6,352l6.6,2.8l30.1,12.8l6.6,2.8l-2.8,6.6
	l-12.8,30.1l-2.8,6.6l-6.6-2.8l-30.1-12.8l-6.6-2.8l2.8-6.6l12.8-30.1L786.6,352L786.6,352z M744.2,242.1l-9.5-2.4
	c-3.4-0.8-6.9,1.2-7.7,4.7l-2.4,9.5c-0.8,3.4,1.2,6.9,4.7,7.7l9.5,2.4c3.4,0.8,6.9-1.2,7.7-4.7l2.4-9.5
	C749.7,246.4,747.6,242.9,744.2,242.1z M990.7,430.8l13.1,4.8c4.7,1.7,9.9-0.7,11.6-5.4l4.8-13.1c1.7-4.7-0.7-9.9-5.4-11.6
	l-13.1-4.8c-4.7-1.7-9.9,0.7-11.6,5.4l-4.8,13.1C983.6,423.9,986,429.1,990.7,430.8z M999.8,604.9l13.3,1.4c4.8,0.5,9-3,9.5-7.7
	l1.4-13.3c0.5-4.8-3-9-7.7-9.5l-13.3-1.4c-4.8-0.5-9,3-9.5,7.7l-1.4,13.3C991.6,600.1,995,604.4,999.8,604.9z M0,546.5l18.9,37.6
	l37.6-18.9l-18.9-37.6L0,546.5z M276.2,762.5c-0.6-2.9-3.2-5-6.1-5c-0.4,0-0.8,0-1.3,0.1l-30.4,6.2c-3.4,0.7-5.5,4-4.9,7.4l6.2,30.4
	c0.6,2.9,3.2,5,6.1,5c0.4,0,0.8,0,1.3-0.1l30.4-6.2c1.6-0.3,3-1.3,4-2.7c0.9-1.4,1.2-3.1,0.9-4.7L276.2,762.5z M510.5,869.9l20,0
	c7.2,0,13-5.8,13-13v-20c0-7.2-5.8-13-13-13h-20c-7.2,0-13,5.8-13,13v20C497.5,864.1,503.3,869.9,510.5,869.9z M452.9,197.2
	l-3.8-14.5c-1.4-5.2-6.7-8.3-11.9-7l-14.5,3.8c-5.2,1.4-8.3,6.7-7,11.9l3.8,14.5c1.4,5.2,6.7,8.3,11.9,7l14.5-3.8
	C451.1,207.7,454.2,202.4,452.9,197.2z M44.2,781.2c-2.9-1.1-6-1.6-9.1-1.6c-11,0-20.9,6.9-24.7,17.3c-2.4,6.6-2.1,13.8,0.8,20.2
	c3,6.4,8.2,11.2,14.8,13.7c2.9,1.1,6,1.6,9.1,1.6c11,0,20.9-6.9,24.7-17.3C64.8,801.4,57.8,786.2,44.2,781.2z M124.2,677.7l-16-3.4
	c-1-0.2-2-0.3-2.9-0.3c-6.7,0-12.6,4.8-13.9,11.3l-3.4,16c-1.6,7.7,3.3,15.3,11,16.9l16,3.4c1,0.2,2,0.3,2.9,0.3
	c6.7,0,12.6-4.8,13.9-11.3l3.4-16C136.8,686.9,131.9,679.4,124.2,677.7z M392.6,885.8c3-5.4,3.8-11.6,2.1-17.6
	c-2.8-10-11.9-16.9-22.3-16.9c-2.1,0-4.2,0.3-6.3,0.9c-6,1.7-10.9,5.6-13.9,10.9c-3,5.4-3.8,11.6-2.1,17.6
	c2.8,10,11.9,16.9,22.3,16.9c2.1,0,4.2-0.3,6.3-0.9C384.6,895,389.5,891.1,392.6,885.8z M728.4,473.1l-0.1-0.5
	c-1.4-12-12.3-20.6-24.4-19.1l-0.5,0.1c-12,1.4-20.6,12.3-19.1,24.4l0.1,0.5c1.4,12,12.3,20.6,24.4,19.1l0.5-0.1
	C721.3,496,729.8,485.1,728.4,473.1z M324.1,573.6L324.1,573.6c9.8-9.8,9.8-25.7,0-35.4h0c-9.8-9.8-25.7-9.8-35.4,0h0
	c-9.8,9.8-9.8,25.7,0,35.4l0,0C298.4,583.3,314.3,583.3,324.1,573.6z M487.6,642.9L487.6,642.9c7.8-11.4,4.8-27-6.6-34.8h0
	c-11.4-7.8-27-4.8-34.8,6.6l0,0c-7.8,11.4-4.8,27,6.6,34.8l0,0C464.2,657.3,479.8,654.3,487.6,642.9z M777.8,782.1L777.8,782.1
	c5.4-12.7-0.5-27.5-13.3-32.9h0c-12.7-5.4-27.5,0.5-32.9,13.3h0c-5.4,12.7,0.5,27.5,13.3,32.9h0
	C757.7,800.7,772.4,794.8,777.8,782.1z M467.2,364.3l0.9-1.3c4.8-7.1,3-16.7-4.1-21.5l-1.3-0.9c-7.1-4.8-16.7-3-21.5,4.1l-0.9,1.3
	c-4.8,7.1-3,16.7,4.1,21.5l1.3,0.9C452.8,373.2,462.4,371.3,467.2,364.3z M543.5,247.6L543.5,247.6c-7.7-3.7-17-0.5-20.7,7.2v0
	c-3.7,7.7-0.5,17,7.2,20.7h0c7.7,3.7,17,0.5,20.7-7.2v0C554.4,260.6,551.2,251.3,543.5,247.6z M638.8,328.2L638.8,328.2
	c-5.9,7-5,17.4,2,23.3l0,0c7,5.9,17.4,5,23.3-2l0,0c5.9-7,5-17.4-2-23.3l0,0C655.1,320.3,644.7,321.2,638.8,328.2z M716.8,652.6
	L716.8,652.6c12.6-5.8,18.1-20.6,12.4-33.2l0,0c-5.8-12.6-20.6-18.1-33.2-12.4h0c-12.6,5.8-18.1,20.6-12.4,33.2v0
	C689.3,652.8,704.2,658.4,716.8,652.6z"/>
</svg>
