<?xml version="1.0" encoding="utf-8"?>
<!-- Generator: Adobe Illustrator 22.0.0, SVG Export Plug-In . SVG Version: 6.00 Build 0)  -->
<svg version="1.1" id="图层_1" xmlns="http://www.w3.org/2000/svg" xmlns:xlink="http://www.w3.org/1999/xlink" x="0px" y="0px"
	 viewBox="0 0 1024 1024" style="enable-background:new 0 0 1024 1024;" xml:space="preserve">
<style type="text/css">
	.st0{fill:#9DA7B2;}
	.st1{fill:none;stroke:#A5A5A5;stroke-width:72;stroke-linecap:round;stroke-linejoin:round;stroke-miterlimit:10;}
</style>
<path class="st0" d="M908.7,64.9C936,64.9,958,87,958,114.2v795.4c0,27.3-22.1,49.3-49.4,49.3H680.9V613.1h116.2l17.3-135.2H680.9
	v-86.1c0-39.1,10.9-66,66.8-66h71.6V205.2c-12.4-1.6-54.8-5.3-104.2-5.3c-103,0-173.6,62.8-173.6,178.2v99.6H424.9v134.9h116.6
	v346.2H113.3c-27.2,0-49.3-22.1-49.3-49.3V114.2c0-27.2,22.1-49.3,49.3-49.3H908.7"/>
</svg>
