<?xml version="1.0" encoding="utf-8"?>
<!-- Generator: Adobe Illustrator 22.0.0, SVG Export Plug-In . SVG Version: 6.00 Build 0)  -->
<svg version="1.1" id="图层_1" xmlns="http://www.w3.org/2000/svg" xmlns:xlink="http://www.w3.org/1999/xlink" x="0px" y="0px"
	 viewBox="0 0 1024 1024" style="enable-background:new 0 0 1024 1024;" xml:space="preserve">
<style type="text/css">
	.st0{fill:#9DA7B2;}
	.st1{fill:none;stroke:#A5A5A5;stroke-width:72;stroke-linecap:round;stroke-linejoin:round;stroke-miterlimit:10;}
</style>
<path class="st0" d="M949.2,397.6c0-22.8-12.2-43.8-31.9-55.1c-19.7-11.4-44-11.3-63.7,0c-19.7,11.4-31.8,32.4-31.8,55.2v266.7
	c0,34.9,28.6,63.8,63.9,63.8c35.1,0,63.6-28.9,63.6-63.8V397.2h-0.4L949.2,397.6z M227.4,346.1l0.2,413.6
	c0,38.1,30.3,68.5,67.8,68.5h45.8v141.3c0,35.3,28.4,63.9,63.3,63.9c34.9,0,63.2-28.4,63.8-63.2V828.8h85.9v141.3
	c0.1,35.1,28.6,63.5,63.7,63.4c35.1-0.1,63.5-28.6,63.4-63.7V828.5h46.4c37.5,0,67.8-30.6,67.8-68V345.6l-570,0.4l1.7,0.1H227.4z
	 M643,219.8c-8.9,0.6-17.5-3.9-22.1-11.6c-4.7-7.7-4.7-17.3,0-25c4.6-7.7,13.1-12.2,22.1-11.6c12.7,0.7,22.7,11.3,22.7,24
	C665.7,208.5,655.8,219.1,643,219.8 M381.9,219.8c-9.8,0-18.6-5.9-22.3-15c-3.7-9.1-1.5-19.5,5.5-26.4c7-6.9,17.5-8.8,26.5-4.9
	c9,3.9,14.7,12.9,14.5,22.7c0,6.5-2.6,12.8-7.2,17.3c-4.6,4.6-10.9,7.1-17.4,7.1 M652.5,95.7l44.3-81.5c2.6-4.5,0.6-9.7-3.3-12.3
	c-4.5-2.1-9.8-0.4-12.2,3.9l-45.2,81.9c-37.4-17.5-80-27.1-124.5-27.1s-86.9,9.3-124.6,26l-44.6-82c-2.4-4.3-7.7-5.8-12-3.4
	c-4.3,1.9-5.9,7.8-3.4,11.6l44.4,80.8c-87.5,45.1-146.5,131-146.5,229.7h574.2c0-98.7-58.9-184.5-146.3-229.7 M138.5,333.6
	c-35.2,0-63.8,28.7-63.8,63.9v266.8c0,35.2,28.6,63.8,63.8,63.8c35.2,0,63.8-28.6,63.8-63.8V397.6c0-35.1-28.4-63.7-63.3-63.7"/>
</svg>
