<?xml version="1.0" encoding="utf-8"?>
<!-- Generator: Adobe Illustrator 22.0.0, SVG Export Plug-In . SVG Version: 6.00 Build 0)  -->
<svg version="1.1" id="图层_1" xmlns="http://www.w3.org/2000/svg" xmlns:xlink="http://www.w3.org/1999/xlink" x="0px" y="0px"
	 viewBox="0 0 1024 1024" style="enable-background:new 0 0 1024 1024;" xml:space="preserve">
<style type="text/css">
	.st0{fill:#9DA7B2;}
	.st1{fill:none;stroke:#A5A5A5;stroke-width:72;stroke-linecap:round;stroke-linejoin:round;stroke-miterlimit:10;}
</style>
<path class="st0" d="M479,194.1c0,20.4-14.8,35.1-35.1,35.1c-20.4,0-35.1-14.8-35.1-35.1c0-20.4,14.8-35.1,35.1-35.1
	C464.2,159,479,173.7,479,194.1z M580.1,159c-20.4,0-35.1,14.8-35.1,35.1c0,20.4,14.8,35.1,35.1,35.1c20.4,0,35.1-14.8,35.1-35.1
	C615.3,173.7,600.5,159,580.1,159z M887.8,330.3v317.9c0,22-8.2,42.3-23.2,57.3c-15,15-35.3,23.2-57.3,23.2c-3.7,0-7.1-0.3-10.3-0.8
	v56.5c0,31.9-25.9,57.8-57.8,57.8h-33v101.1c0,22-8.2,42.3-23.2,57.3c-15,15-35.3,23.2-57.3,23.2c-22,0-42.3-8.2-57.3-23.2
	S545,965.4,545,943.5V842.3h-66v101.1c0,22-8.2,42.3-23.2,57.3s-35.3,23.2-57.3,23.2c-22,0-42.3-8.2-57.3-23.2s-23.2-35.3-23.2-57.3
	V842.3h-33c-31.9,0-57.8-25.9-57.8-57.8v-58.8c-3.2,0.5-6.6,0.8-10.3,0.8c-22,0-42.3-8.2-57.3-23.2c-15-15-23.2-35.3-23.2-57.3
	V328.1c0-22,8.2-42.3,23.2-57.3c15-15,35.3-23.2,57.3-23.2c3.7,0,7.1,0.3,10.3,0.8v-0.8h6c5.1-32.3,18.6-63.9,39.3-91.8
	c19.7-26.5,45.8-49.8,76.3-67.9l-23.4-33.5c-4.5-5-7.3-12.4-7.3-19.2C317.9,14.8,332.7,0,353,0c10.8,0,21.4,6.3,28.4,16.8l30.9,44.5
	c32.1-10.4,66.3-15.8,99.6-15.8c33.3,0,67.5,5.5,99.6,15.8l30.9-44.5C649.6,6.3,660.2,0,671,0c20.4,0,35.1,14.8,35.1,35.1
	c0,3.8-0.8,7.1-1.5,9.8c-0.4,1.4-0.8,3.1-0.8,3.8v3.9l-26.3,37.6c29.4,18.2,55.1,41.4,74.7,67.8c20.8,27.9,34.7,59.5,40.7,91.8h4.1
	v0.8c3.2-0.5,6.6-0.8,10.3-0.8c22,0,42.3,8.2,57.3,23.2S887.8,308.3,887.8,330.3z M796.9,648.2c0,6.7,3.6,10.3,10.3,10.3
	c6.7,0,10.3-3.6,10.3-10.3V330.3c0-6.7-3.6-10.3-10.3-10.3c-6.7,0-10.3,3.6-10.3,10.3V648.2z M635.8,943.5V842.3h-20.6v101.1
	c0,6.7,3.6,10.3,10.3,10.3C632.3,953.7,635.8,950.2,635.8,943.5z M408.7,943.5V842.3h-20.6v101.1c0,6.7,3.6,10.3,10.3,10.3
	C405.2,953.7,408.7,950.2,408.7,943.5z M297.3,320v452h429.3V320H297.3z M721.5,249.8C701,172.4,614,115.7,512,115.7
	c-102,0-189,56.7-209.5,134.1H721.5z M206.5,648.2c0,6.7,3.6,10.3,10.3,10.3c6.7,0,10.3-3.6,10.3-10.3V330.3
	c0-6.7-3.6-10.3-10.3-10.3c-6.7,0-10.3,3.6-10.3,10.3V648.2z"/>
</svg>
