<?xml version="1.0" encoding="utf-8"?>
<!-- Generator: Adobe Illustrator 22.0.0, SVG Export Plug-In . SVG Version: 6.00 Build 0)  -->
<svg version="1.1" id="图层_1" xmlns="http://www.w3.org/2000/svg" xmlns:xlink="http://www.w3.org/1999/xlink" x="0px" y="0px"
	 viewBox="0 0 1024 1024" style="enable-background:new 0 0 1024 1024;" xml:space="preserve">
<style type="text/css">
	.st0{fill:#9DA7B2;}
	.st1{fill:none;stroke:#A5A5A5;stroke-width:72;stroke-linecap:round;stroke-linejoin:round;stroke-miterlimit:10;}
</style>
<path class="st0" d="M662.1,511c0-41.2-14.6-76.3-43.7-105.4c-29.1-29.1-64.2-43.7-105.4-43.7c-41.2,0-76.3,14.6-105.4,43.7
	C378.6,434.7,364,469.8,364,511c0,41.2,14.6,76.3,43.7,105.4c29.1,29.1,64.2,43.7,105.4,43.7c41.2,0,76.3-14.6,105.4-43.7
	C647.6,587.3,662.1,552.2,662.1,511L662.1,511z M742.5,511c0,63.7-22.3,117.8-67,162.5c-44.7,44.6-98.8,67-162.5,67
	c-63.7,0-117.8-22.3-162.5-67c-44.7-44.7-67-98.8-67-162.5c0-63.6,22.3-117.8,67-162.5c44.7-44.7,98.8-67,162.5-67
	c63.7,0,117.8,22.3,162.5,67C720.2,393.2,742.5,447.3,742.5,511L742.5,511z M805.4,272.3c0,14.8-5.2,27.4-15.7,37.9
	c-10.5,10.5-23.1,15.7-37.9,15.7s-27.4-5.2-37.9-15.7c-10.5-10.5-15.7-23.1-15.7-37.9c0-14.8,5.2-27.4,15.7-37.9
	c10.5-10.5,23.1-15.7,37.9-15.7s27.4,5.2,37.9,15.7C800.2,244.9,805.4,257.5,805.4,272.3L805.4,272.3z M513,144.1
	c-2.7,0-17.6-0.1-44.6-0.3c-27-0.2-47.5-0.2-61.4,0c-14,0.2-32.7,0.8-56.2,1.8c-23.5,1-43.5,2.9-60,5.8
	c-16.5,2.9-30.4,6.5-41.6,10.8c-19.4,7.8-36.5,19-51.2,33.8c-14.7,14.8-26,31.8-33.8,51.2c-4.3,11.3-7.8,25.1-10.8,41.6
	c-2.9,16.5-4.9,36.5-5.8,60c-1,23.5-1.6,42.2-1.8,56.2c-0.2,14-0.2,34.5,0,61.4c0.2,27,0.3,41.8,0.3,44.5c0,2.7-0.1,17.6-0.3,44.5
	c-0.2,27-0.2,47.5,0,61.4c0.2,14,0.8,32.7,1.8,56.2c1,23.5,2.9,43.5,5.8,60c2.9,16.5,6.5,30.4,10.8,41.6c7.8,19.4,19,36.5,33.8,51.2
	c14.8,14.7,31.8,26,51.2,33.8c11.3,4.3,25.1,7.9,41.6,10.8c16.5,2.9,36.5,4.9,60,5.8c23.5,1,42.2,1.6,56.2,1.8
	c14,0.2,34.5,0.2,61.4,0c27-0.2,41.8-0.3,44.6-0.3c2.7,0,17.6,0.1,44.5,0.3c27,0.2,47.5,0.2,61.4,0c14-0.2,32.7-0.8,56.2-1.8
	c23.5-1,43.5-2.9,60-5.8c16.5-2.9,30.4-6.5,41.6-10.8c19.4-7.8,36.5-19,51.2-33.8c14.7-14.8,26-31.8,33.8-51.2
	c4.3-11.3,7.8-25.1,10.8-41.6c2.9-16.5,4.9-36.5,5.8-60c1-23.5,1.6-42.2,1.8-56.2c0.2-14,0.2-34.5,0-61.4c-0.2-27-0.3-41.8-0.3-44.5
	c0-2.7,0.1-17.6,0.3-44.5c0.2-27,0.2-47.5,0-61.4c-0.2-14-0.8-32.7-1.8-56.2c-1-23.5-2.9-43.5-5.8-60c-2.9-16.5-6.5-30.4-10.8-41.6
	c-7.8-19.4-19-36.5-33.8-51.2c-14.8-14.7-31.8-26-51.2-33.8c-11.3-4.3-25.1-7.8-41.6-10.8c-16.5-2.9-36.5-4.9-60-5.8
	c-23.5-1-42.2-1.6-56.2-1.8c-14-0.2-34.5-0.2-61.4,0C530.6,144,515.8,144.1,513,144.1L513,144.1z M960.3,511
	c0,88.9-1,150.4-2.9,184.6c-3.9,80.7-28,143.3-72.2,187.5c-44.2,44.3-106.7,68.3-187.5,72.2c-34.2,1.9-95.7,2.9-184.6,2.9
	c-88.9,0-150.5-1-184.6-2.9c-80.7-3.9-143.3-28-187.5-72.2c-44.3-44.2-68.3-106.7-72.2-187.5c-1.9-34.2-2.9-95.7-2.9-184.6
	c0-88.9,1-150.5,2.9-184.6c3.9-80.7,28-143.3,72.2-187.5c44.2-44.3,106.7-68.3,187.5-72.2c34.2-1.9,95.7-2.9,184.6-2.9
	c88.9,0,150.5,1,184.6,2.9c80.7,3.9,143.3,28,187.5,72.2c44.3,44.2,68.3,106.7,72.2,187.5C959.3,360.5,960.3,422.1,960.3,511
	L960.3,511z M960.3,511"/>
</svg>
