<?xml version="1.0" encoding="utf-8"?>
<!-- Generator: Adobe Illustrator 22.0.0, SVG Export Plug-In . SVG Version: 6.00 Build 0)  -->
<svg version="1.1" id="图层_1" xmlns="http://www.w3.org/2000/svg" xmlns:xlink="http://www.w3.org/1999/xlink" x="0px" y="0px"
	 viewBox="0 0 1024 1024" style="enable-background:new 0 0 1024 1024;" xml:space="preserve">
<style type="text/css">
	.st0{fill:#9DA7B2;}
	.st1{fill:none;stroke:#A5A5A5;stroke-width:72;stroke-linecap:round;stroke-linejoin:round;stroke-miterlimit:10;}
</style>
<path class="st0" d="M511.5,996.3c-267,0-484.4-217.4-484.4-484.4c0-267,217.4-484.4,484.4-484.4c267,0,484.4,217.4,484.4,484.4
	C996,778.9,778.6,996.3,511.5,996.3L511.5,996.3z M920.1,578.2c-14.1-4.4-128-38.5-257.7-17.7c54.1,148.7,76.2,269.8,80.4,295
	c94.8-64,159.1-164.4,177.4-277.3H920.1z M673.2,893.4c-6.2-36.3-30.3-162.8-88.4-313.7l-2.7,0.8
	c-233.7,81.3-317.3,243.2-324.6,258.4c72.4,56.8,161.9,87.6,253.9,87.4c57.3,0,111.8-11.7,161.5-32.9L673.2,893.4z M204.1,789.2
	c9.4-16.2,122.9-204.1,336.4-273.1c5.4-1.8,10.9-3.4,16.3-4.8c-10.5-23.6-21.8-47.1-33.6-70.2C316.5,502.8,116.1,500.2,98,499.8
	l-0.2,12.6c0,106.3,40.3,203.3,106.3,276.7L204.1,789.2z M106.4,427.7c18.6,0.3,189.1,1,382.6-50.4C442.2,294.9,391,215,335.6,138
	c-117.5,55.3-202.3,162.4-229.1,289.4L106.4,427.7z M414.6,110.3c11.4,15.3,86.6,117.6,154.3,242.2
	c147.1-55.1,209.5-138.9,216.9-149.4C710.3,135.7,612.7,98.5,511.5,98.7c-33.3,0-65.8,4-96.9,11.5V110.3z M831.9,250.9
	c-8.8,11.7-78.1,100.6-231.1,163.1c9.7,19.8,19,39.8,27.5,60c3.2,7.3,6.1,14.5,8.9,21.4c137.7-17.4,274.5,10.5,288.2,13.3
	c-0.8-97.7-35.5-187.3-93.3-257.6L831.9,250.9z M831.9,250.9"/>
</svg>
