<?xml version="1.0" encoding="utf-8"?>
<!-- Generator: Adobe Illustrator 22.0.0, SVG Export Plug-In . SVG Version: 6.00 Build 0)  -->
<svg version="1.1" id="图层_1" xmlns="http://www.w3.org/2000/svg" xmlns:xlink="http://www.w3.org/1999/xlink" x="0px" y="0px"
	 viewBox="0 0 1024 1025" style="enable-background:new 0 0 1024 1025;" xml:space="preserve">
<style type="text/css">
	.st0{fill:#9DA7B2;}
	.st1{fill:none;stroke:#A5A5A5;stroke-width:72;stroke-linecap:round;stroke-linejoin:round;stroke-miterlimit:10;}
</style>
<path class="st0" d="M372.7,654.3h305.8c-1,7.3-2.7,14.5-4.9,21.7H336.6c-10.3,5.4-21.2,10.6-32.7,15.6h363.7
	c-3.4,7.7-7.4,15.3-11.9,22.7H245.6c-15.6,5.4-31.1,10.3-46.1,14.6H646c-5.8,8.1-12.2,16-19.1,23.7H58.8
	c-8.9-7.7-17.2-15.6-24.5-23.7H61c-4.8-4.2-9.2-9.1-12.9-14.6H22.3c-0.1-0.1,13.1-0.2,25.5-0.4c-0.4-0.7-0.9-1.3-1.3-2
	c-31-49.8-81.6-156.9-10.4-294.3c125.6-242.2,429.6-259.3,542.9-268.9c0,0-66.3,20.4-138.8,58.5h135.3c-4.9,3.1-9.7,6.3-14.4,9.5
	H422.7c-15.2,8.5-30.4,17.7-45.1,27.7H525c-4,3.5-7.8,7-11.4,10.5h-151c-11.5,8.4-22.7,17.4-33.1,26.7h161.2
	c-2.6,3.8-5,7.7-7.1,11.6H317.3c-8.3,8.2-16,16.8-22.9,25.7h179.8c-0.8,4.2-1.3,8.4-1.4,12.6H285.3c-5.3,7.9-10,16-14,24.4
	c-0.1,0.1-0.1,0.2-0.1,0.3h204.6c1.2,4.6,2.8,9.1,4.7,13.6H266.4c-1.8,7.7-2.4,15.6-1.8,23.7h228.5c3.2,4.9,6.6,9.7,10.3,14.6H266.7
	c1.6,7.6,4,15.1,7.1,22.7h248.6h0.2c4.7,5.2,9.7,10.4,14.8,15.6H280.9c3.8,7.4,8.1,14.6,12.8,21.7h265.5
	c5.7,5.5,11.5,11.1,17.3,16.6h-271c5.5,7.3,11.3,14.2,17,20.6h275.4c5.9,5.8,11.8,11.7,17.4,17.6H339.1c8,8,15.5,14.7,21.5,19.6
	h272.6c5.3,6.2,10.3,12.4,14.9,18.6H384.4c6.7,6,12,12.1,15.7,18.6h260.4c3.9,6.5,7.2,13,10,19.7H406.7c0.4,3.2,0.6,6.6,0.5,10.2
	c-0.1,2.4-0.5,4.9-1.3,7.4h270.5c1.7,6.8,2.7,13.7,3,20.7h-287C387,643.3,380.4,648.8,372.7,654.3z M110.9,790.8h477
	c9.1-7.9,18-16.1,26.4-24.7H75.5C86.7,774.7,98.6,782.9,110.9,790.8z M178.4,829.1h360.2c11.3-7.9,22.8-16.5,34.3-25.7H131.4
	C147,812.6,162.9,821.2,178.4,829.1z M262.1,867.3h216.3c12.3-7.1,27.2-16.1,43.3-26.7H201.8C224.6,851.5,245.5,860.5,262.1,867.3z
	 M328,890.8c21.4,4.1,68.3,6.6,95.6,0.9c12.6-5.1,26.7-9,35.8-13.8H288.7C295.2,880.3,315.2,888.4,328,890.8z M508.6,178.4h116.5
	c5.4-2.9,10.9-5.7,16.4-8.5H537.7C527.9,172.7,518.2,175.6,508.6,178.4z M1007.9,556.3c-51.8,209.8-284.8,381.2-577.8,380
	c76.2-16.4,249.3-140.6,264.2-251.2C710,568.2,583.7,524.7,520.6,449.6c-108.6-129.3,0.6-182.2,96.9-236.8
	c79.6-45.2,216.2-86.8,261.1-99.9c9.2-2.7,19,0.3,25.1,7.7C942.5,167.6,1068.2,312,1007.9,556.3z M910.7,394.7
	c9.8,0,9.8-15.2,0-15.2C900.9,379.5,900.9,394.7,910.7,394.7z M782.1,608c6.5,0,6.5-10.1,0-10.1C775.5,597.8,775.5,608,782.1,608z
	 M638.3,402.5c-9.8,0-9.8,15.2,0,15.2C648.1,417.7,648.1,402.5,638.3,402.5z M687.4,287.5c-16.3,0-16.4,25.4,0,25.4
	C703.7,312.8,703.7,287.5,687.4,287.5z M712.7,790.6c-6.5,0-6.5,10.1,0,10.1C719.3,800.8,719.3,790.6,712.7,790.6z M728,433.8
	c-6.5,0-6.5,10.1,0,10.1C734.5,443.9,734.5,433.8,728,433.8z M746,353.1c-9.8,0-9.8,15.2,0,15.2C755.8,368.3,755.8,353.1,746,353.1z
	 M766.9,514.1c9.8,0,9.8-15.2,0-15.2C757.1,498.9,757,514.1,766.9,514.1z M774.5,721.5c-6.5,0-6.5,10.1,0,10.1
	C781,731.6,781,721.5,774.5,721.5z M784.2,644.3c-9.8,0-9.8,15.2,0,15.2C794,659.6,794,644.3,784.2,644.3z M817.6,341.6
	c16.3,0,16.4-25.4,0-25.4C801.3,316.2,801.2,341.6,817.6,341.6z M817.2,506c-6.5,0-6.5,10.1,0,10.1C823.7,516.2,823.7,506,817.2,506
	z M827.7,689.2c-6.5,0-6.5,10.1,0,10.1C834.3,699.3,834.3,689.2,827.7,689.2z M831.4,410c-9.8,0-9.8,15.2,0,15.2
	C841.2,425.2,841.2,410,831.4,410z M831.4,221.5c-16.3,0-16.4,25.4,0,25.4C847.7,246.9,847.8,221.5,831.4,221.5z M848,633.3
	c-6.5,0-6.5,10.1,0,10.1C854.6,643.5,854.6,633.3,848,633.3z M853.8,550.2c-9.8,0-9.8,15.2,0,15.2
	C863.6,565.4,863.6,550.2,853.8,550.2z M884.2,652.4c-6.5,0-6.5,10.1,0,10.1C890.8,662.5,890.8,652.4,884.2,652.4z M883.6,292.5
	c-9.8,0-9.8,15.2,0,15.2C893.4,307.8,893.4,292.5,883.6,292.5z M904.6,459.7c9.8,0,9.8-15.2,0-15.2
	C894.8,444.5,894.8,459.7,904.6,459.7z M910.7,534.8c13.1,0,13.1-20.3,0-20.3C897.6,514.5,897.6,534.8,910.7,534.8z M918.7,579.6
	c-9.8,0-9.8,15.2,0,15.2C928.5,594.9,928.5,579.6,918.7,579.6z M951.2,474.4c-6.5,0-6.5,10.1,0,10.1
	C957.7,484.5,957.8,474.4,951.2,474.4z"/>
</svg>
