<?xml version="1.0" encoding="utf-8"?>
<!-- Generator: Adobe Illustrator 22.0.0, SVG Export Plug-In . SVG Version: 6.00 Build 0)  -->
<svg version="1.1" id="图层_1" xmlns="http://www.w3.org/2000/svg" xmlns:xlink="http://www.w3.org/1999/xlink" x="0px" y="0px"
	 viewBox="0 0 1024 1024" style="enable-background:new 0 0 1024 1024;" xml:space="preserve">
<style type="text/css">
	.st0{fill:#9DA7B2;}
	.st1{fill:none;stroke:#A5A5A5;stroke-width:72;stroke-linecap:round;stroke-linejoin:round;stroke-miterlimit:10;}
</style>
<path class="st0" d="M886.2,151.4v268.2H545V202.3L886.2,151.4 M356.5,228.5v196.7H138V258.8L356.5,228.5 M886.2,608.2v269
	L545,829.6V608.2H886.2 M356.5,608.2v196.7L138,774.6V608.2H356.5 M958.2,67.8L473,140.3v351.3h485.2V67.8L958.2,67.8z M428.5,145.9
	L66,196v301.2h362.5V145.9L428.5,145.9z M958.2,536.2H473v356.1L958.2,960V536.2L958.2,536.2z M428.5,536.2H66v301.1l362.5,50.3
	V536.2L428.5,536.2z"/>
</svg>
