<?xml version="1.0" encoding="utf-8"?>
<!-- Generator: Adobe Illustrator 22.0.0, SVG Export Plug-In . SVG Version: 6.00 Build 0)  -->
<svg version="1.1" id="图层_1" xmlns="http://www.w3.org/2000/svg" xmlns:xlink="http://www.w3.org/1999/xlink" x="0px" y="0px"
	 viewBox="0 0 1024 1024" style="enable-background:new 0 0 1024 1024;" xml:space="preserve">
<style type="text/css">
	.st0{fill:#9DA7B2;}
	.st1{fill:none;stroke:#A5A5A5;stroke-width:72;stroke-linecap:round;stroke-linejoin:round;stroke-miterlimit:10;}
</style>
<path class="st0" d="M225.8,536c97.2-20.9,83.8-137.2,81-162.6c-4.8-39.1-50.9-107.5-113.4-102c-78.6,6.9-90,120.7-90,120.7
	C92.7,444.5,128.8,556.8,225.8,536 M406.2,340.8c53.6,0,97-61.8,97-138.2c0-76-43.2-137.8-96.8-137.8s-97.2,61.5-97.2,137.8
	c0,76.3,43.6,138.2,97.2,138.2 M637.5,350c71.9,9.7,117.8-67,127.1-125.1c9.3-57.7-37.2-125.1-87.9-136.7
	c-51-11.8-114,69.8-120.3,122.9c-6.7,65.2,9.3,130,80.8,139.2 M921.7,447.9c0-27.8-22.8-111.5-108.4-111.5
	c-85.5,0-97.2,78.9-97.2,134.8c0,53.3,4.4,127.4,111.2,125.1c106.3-2.6,94.7-120.7,94.7-148.6 M813.7,691.3c0,0-111.2-86-176-178.8
	c-87.9-136.9-212.8-81.2-254.5-11.8c-41.7,70.1-106.5,114-115.6,125.8c-9.3,11.5-134.1,78.9-106.3,201.8
	C189.3,951.3,286.4,949,286.4,949s71.5,7.1,154.9-11.5c83.4-18.6,154.9,4.5,154.9,4.5s193.9,65.2,247.6-60
	c53-125.5-30.2-190.3-30.2-190.3"/>
</svg>
