<?xml version="1.0" encoding="utf-8"?>
<!-- Generator: Adobe Illustrator 22.0.0, SVG Export Plug-In . SVG Version: 6.00 Build 0)  -->
<svg version="1.1" id="图层_1" xmlns="http://www.w3.org/2000/svg" xmlns:xlink="http://www.w3.org/1999/xlink" x="0px" y="0px"
	 viewBox="0 0 1024 1024" style="enable-background:new 0 0 1024 1024;" xml:space="preserve">
<style type="text/css">
	.st0{fill:#9DA7B2;}
	.st1{fill:none;stroke:#A5A5A5;stroke-width:72;stroke-linecap:round;stroke-linejoin:round;stroke-miterlimit:10;}
</style>
<path class="st0" d="M234.7,334.3c145,74.3,268.8,69,268.8,69s-46-162.7,97.3-235.2c143.2-72.5,244,49.5,244,49.5
	s24.8-7.1,44.2-14.1c19.5-7.1,46-19.5,46-19.5l-44.2,79.6l69-7.1c0,0-8.8,12.4-35.4,37.1c-26.5,24.8-38.9,38.9-38.9,38.9
	s10.6,196.3-93.7,348.4C689.2,832.9,554.8,923.1,362,942.6C169.3,962,41.9,882.4,41.9,882.4s84.9-5.3,137.9-24.8
	c53.1-21.2,130.9-76,130.9-76s-109.6-33.6-150.3-72.5c-40.7-38.9-49.5-61.9-49.5-61.9l109.6-1.8c0,0-114.9-61.9-146.8-109.6
	c-31.8-47.7-37.1-95.5-37.1-95.5l83.1,33.6c0,0-69-95.5-79.6-168c-10.6-74.3,12.4-113.2,12.4-113.2S89.7,260,234.7,334.3
	L234.7,334.3z M234.7,334.3"/>
</svg>
