<?xml version="1.0" encoding="utf-8"?>
<!-- Generator: Adobe Illustrator 22.0.0, SVG Export Plug-In . SVG Version: 6.00 Build 0)  -->
<svg version="1.1" id="图层_1" xmlns="http://www.w3.org/2000/svg" xmlns:xlink="http://www.w3.org/1999/xlink" x="0px" y="0px"
	 viewBox="0 0 1024 1025" style="enable-background:new 0 0 1024 1025;" xml:space="preserve">
<style type="text/css">
	.st0{fill:#9DA7B2;}
	.st1{fill:none;stroke:#A5A5A5;stroke-width:72;stroke-linecap:round;stroke-linejoin:round;stroke-miterlimit:10;}
</style>
<path class="st0" d="M695.9,414.3c-41.8,31.7-95.8,50.8-154.8,50.8c-132.5,0-240-96.5-240-215.5c0-119,107.4-215.5,240-215.5
	c59,0,113,19.1,154.8,50.8c-15.2-3.4-31.1-5.2-47.5-5.2c-106.4,0-192.7,76.1-192.7,169.9S542,419.5,648.4,419.5
	C664.8,419.5,680.7,417.7,695.9,414.3z M786.2,269.1c-65.9-33.7-142.9-53-225-53c-11.6,0-23.1,0.4-34.5,1.1
	c44,10.6,84.6,28.4,120.1,51.9H786.2z M745.6,369.1h169.9c-25-28.7-54.6-54.3-87.8-76H678.9C705.3,315.2,727.8,340.9,745.6,369.1z
	 M979.3,472.1c-10.9-26.8-25.2-52.3-42.3-76H760.6c11.8,23.9,20.3,49.4,25,76H979.3z M786,568.1h216.8c-2.2-23.7-6.9-46.7-13.8-69
	H789.1c0.6,7.3,0.9,14.6,0.9,22C789.9,537.1,788.6,552.8,786,568.1z M997,668.1c4.7-22.4,7.2-45.4,7.2-69c0-2.2,0-4.4-0.1-6.7H780.7
	c-7,26.7-17.9,52.1-32.1,75.7H997z M979.8,724.8c4.2-10.6,8-21.4,11.2-32.3H732.4c-8.3,11.3-17.5,22.1-27.4,32.3H979.8z
	 M950.9,781.5c6.6-10.5,12.6-21.3,18.1-32.3h-290c-14.1,11.8-29.3,22.6-45.4,32.3H950.9z M916.3,828.1c6.3-7.3,12.3-14.7,17.9-22.3
	H585.4c-23.1,9.6-47.5,17.2-72.9,22.3H916.3z M351.5,828.1c-91.9-18.6-170.2-68.3-220-135.8c14.4,49.8,40.1,95.8,74.7,135.8H351.5z
	 M860.5,881.5c11.5-9.2,22.5-18.8,32.9-29H229c10.4,10.2,21.4,19.8,32.9,29H860.5z M786.8,928.8c13.8-7.1,27.1-14.7,39.8-23H295.8
	c12.8,8.3,26.1,15.9,39.8,23H786.8z M391.9,953.1c52.2,18.7,109.4,29,169.3,29c60,0,117.2-10.3,169.3-29H391.9z M93.3,647.1v-4.8
	c-10.2,0.6-14.9-3.5-14.2-12.5v-22.6l22.6-34.7c5.3-7.7,11.2-11.6,17.9-11.6v-5.8H83.3v5.8c6.6,0,10.8,0.8,12.6,2.4
	c1.7,1.9,1.2,4.8-1.6,8.7L76,600.9l-18.9-29.4c-2.8-3.9-3.5-6.6-2.1-8.2c1.1-1.6,4.2-2.4,9.5-2.4v-5.8H19.8v5.8
	c5.3,0.6,10.2,4,14.7,10.1L59.7,612v17.8c0.7,9-3.9,13.2-13.7,12.5v4.8H93.3z M181.6,556.6c-7-2.2-13.8-3.4-20.5-3.4
	c-21,0.6-31.9,9.6-32.6,27c0,12.5,7.5,21.4,22.6,26.5c17.9,6.4,26.8,14,26.8,22.6c-0.7,9.3-6.7,14.3-17.9,14.9
	c-11.9,0.3-20.1-8.8-24.7-27.4l-6.3,1l2.1,29.9l8.9-1.9c7,2.2,13.7,3.4,20,3.4c23.5-0.3,35.4-9.5,35.7-27.4
	c0.3-12.2-8.9-21.8-27.8-28.9c-14.4-5.1-21.4-11.6-21-19.3c0.3-9.3,5.1-14.1,14.2-14.4c10.8,0,18.9,8.7,24.2,26l6.3-2.4l-2.1-28.4
	L181.6,556.6z M262.4,556.6c-7-2.2-13.8-3.4-20.5-3.4c-21,0.6-31.9,9.6-32.6,27c0,12.5,7.5,21.4,22.6,26.5
	c17.9,6.4,26.8,14,26.8,22.6c-0.7,9.3-6.7,14.3-17.9,14.9c-11.9,0.3-20.1-8.8-24.7-27.4l-6.3,1l2.1,29.9l8.9-1.9
	c7,2.2,13.7,3.4,20,3.4c23.5-0.3,35.4-9.5,35.7-27.4c0.3-12.2-8.9-21.8-27.8-28.9c-14.4-5.1-21.4-11.6-21-19.3
	c0.3-9.3,5.1-14.1,14.2-14.4c10.8,0,18.9,8.7,24.2,26l6.3-2.4l-2.1-28.4L262.4,556.6z M357.3,647.1v-4.8
	c-10.2,0.6-14.9-3.5-14.2-12.5v-68.9h6.3c9.8-1,17.3,8.5,22.6,28.4l6.3-1.4l-2.1-32.7h-85.1l-2.1,33.2l6.3,1.4
	c4.5-19.9,12.1-29.5,22.6-28.9h5.8v68.4c0.7,9.3-3.9,13.6-13.7,13v4.8H357.3z M391.5,642.3v4.8h76.2l2.6-29.4l-6.3-1.9
	c-4.2,18.6-12.3,27.4-24.2,26.5H423v-39h12.1c8.7,0,13.7,4.5,14.7,13.5h5.8V584h-5.8c-0.4,9.3-5.3,13.6-14.7,13H423v-36.1h16.8
	c11.6-0.3,19.3,7.4,23.1,23.1l6.3-1.4l-3.2-27.4h-74.6v5.8c8.7-0.6,12.8,3.9,12.1,13.5v54.9C404,638.6,399.9,642.9,391.5,642.3z
	 M563.5,558c-8.8-3.2-16.8-4.8-24.2-4.8c-31.2,1-47.1,17.2-47.8,48.6c0.3,31.1,16.3,46.9,47.8,47.2c19.3-0.3,32.4-8.7,39.4-25
	l-6.8-2.9c-6.7,14.1-17.2,21.2-31.5,21.2c-18.2-0.6-27.5-14.6-27.8-41.9c0.7-26.3,10-40.1,27.8-41.4c13.7-1,23.1,9.3,28.4,30.8
	l6.8-1.9l-2.6-31.8L563.5,558z M695.8,647.1v-4.8c-8.8,0.6-13-3.7-12.6-13v-54.9c-0.7-9.6,3.3-14.1,12.1-13.5v-5.8h-43.1v5.8
	c8.1-0.6,11.9,3.9,11.6,13.5v21.2h-40.4v-21.2c-0.7-9.6,3.2-14.1,11.6-13.5v-5.8h-43.1v5.8c8.7-1,12.8,3.5,12.1,13.5v55.4
	c0.3,8.7-3.9,12.8-12.6,12.5v4.8h44.1v-4.8c-8.8,0.6-12.8-3.5-12.1-12.5v-27.4h40.4v27c0.7,9.3-3.3,13.6-12.1,13v4.8H695.8z"/>
</svg>
