<?xml version="1.0" encoding="utf-8"?>
<!-- Generator: Adobe Illustrator 22.0.0, SVG Export Plug-In . SVG Version: 6.00 Build 0)  -->
<svg version="1.1" id="图层_1" xmlns="http://www.w3.org/2000/svg" xmlns:xlink="http://www.w3.org/1999/xlink" x="0px" y="0px"
	 viewBox="0 0 1024 1024" style="enable-background:new 0 0 1024 1024;" xml:space="preserve">
<style type="text/css">
	.st0{fill:#9DA7B2;}
	.st1{fill:none;stroke:#A5A5A5;stroke-width:72;stroke-linecap:round;stroke-linejoin:round;stroke-miterlimit:10;}
</style>
<path class="st0" d="M743.6,368.1c-23.8-8.6-48.9-13-74.2-12.8c-81.8,0-139.6,41.3-140,100.4c-0.5,43.5,41.1,67.9,72.5,82.5
	c32.3,14.9,43.1,24.3,43,37.7c-0.2,20.3-25.8,29.5-49.5,29.5c-32.7,0-50.6-4.6-78-16l-10.2-4.7l-11.6,68.1
	c19.9,8.3,55.7,15.4,92.7,16c87,0,143.9-41,144.5-104c0.7-34.7-21.7-61-69.1-82.6c-28.7-14.1-46.6-23.5-46.6-37.8
	c0-12.6,15.3-26.1,47.3-26.1c21.3-0.5,42.4,3.5,62,11.6l7.7,3.4l11.6-65.8L743.6,368.1z M956,360.8h-63.9
	c-19.9,0-34.8,5.4-43.5,25.2l-123,278.5h87l17.4-45.6l106.1,0.1c2.6,10.7,10.2,45.5,10.2,45.5h76.7L956,360.8z M411.8,358.3h82.8
	l-51.8,303.9h-82.9L411.8,358.3L411.8,358.3z M201.2,525.7l8.6,42.2l81-207.1h87.8L248.2,664.1h-87.6L89,407.2
	c-1.2-4.2-3.9-7.9-7.7-10.1C55.6,383.7,28.3,373.6,0,367l1.1-6.4h133.5c18.1,0.7,32.6,6.4,37.6,25.7l29.1,139.5V525.7z M853.7,556.7
	l33-85c-0.4,0.9,6.8-17.6,11-29l5.7,26.2l19.1,87.7L853.7,556.7L853.7,556.7z M853.7,556.7"/>
</svg>
