<?xml version="1.0" encoding="utf-8"?>
<!-- Generator: Adobe Illustrator 22.0.0, SVG Export Plug-In . SVG Version: 6.00 Build 0)  -->
<svg version="1.1" id="图层_1" xmlns="http://www.w3.org/2000/svg" xmlns:xlink="http://www.w3.org/1999/xlink" x="0px" y="0px"
	 viewBox="0 0 1024 1024" style="enable-background:new 0 0 1024 1024;" xml:space="preserve">
<style type="text/css">
	.st0{fill:#9DA7B2;}
	.st1{fill:none;stroke:#9DA7B2;stroke-width:72;stroke-linecap:round;stroke-linejoin:round;stroke-miterlimit:10;}
	.st2{fill:none;}
</style>
<path class="st0" d="M937,362.9L659.1,85.1C645.6,71.6,627.3,64,608.2,64H502.1h-240h-128c-39.8,0-72,32.2-72,72v752
	c0,39.8,32.2,72,72,72h752c39.8,0,72-32.2,72-72V413.8C958.1,394.7,950.5,376.4,937,362.9z M502.1,136L502.1,136l0,368c0,0,0,0,0,0
	h-240c0,0,0,0,0,0V136c0,0,0,0,0,0H502.1z M886.1,888C886.1,888,886.1,888,886.1,888l-752,0c0,0,0,0,0,0V136c0,0,0,0,0,0h56v368
	c0,39.8,32.2,72,72,72h240c39.8,0,72-32.2,72-72V136h34.2l277.8,277.8V888z M354.1,384h92c19.9,0,36,16.1,36,36s-16.1,36-36,36h-92
	c-19.9,0-36-16.1-36-36S334.2,384,354.1,384z"/>
</svg>
