<?xml version="1.0" encoding="utf-8"?>
<!-- Generator: Adobe Illustrator 22.0.0, SVG Export Plug-In . SVG Version: 6.00 Build 0)  -->
<svg version="1.1" id="图层_1" xmlns="http://www.w3.org/2000/svg" xmlns:xlink="http://www.w3.org/1999/xlink" x="0px" y="0px"
	 viewBox="0 0 1024 1024" style="enable-background:new 0 0 1024 1024;" xml:space="preserve">
<style type="text/css">
	.st0{fill:#9DA7B2;}
	.st1{fill:none;stroke:#9DA7B2;stroke-width:72;stroke-linecap:round;stroke-linejoin:round;stroke-miterlimit:10;}
	.st2{fill:none;}
</style>
<path class="st0" d="M368.2,396.9c0,27.1-21.9,49-49,49s-49-21.9-49-49s21.9-49,49-49S368.2,369.8,368.2,396.9z M511.2,347.9
	c-27.1,0-49,21.9-49,49s21.9,49,49,49c27.1,0,49-21.9,49-49S538.2,347.9,511.2,347.9z M703.2,347.9c-27.1,0-49,21.9-49,49
	s21.9,49,49,49s49-21.9,49-49S730.2,347.9,703.2,347.9z M886.1,64.3h-41h-72h-639c-39.8,0-72,32.2-72,72v349.3v99v48
	c0,31.9,21,60,51.5,69l33.8,9.2l37.2-64.5l-50.5-13.8V136.3h752v496.3h-128v170.7l-188.3-51.5l42.4,73.4c2.7,4.8,4.9,9.6,6.4,14.6
	l119,32.6c6.7,2,13.6,3,20.5,3c15.3,0,30.5-4.9,43.1-14.3c18.2-13.6,28.9-35,28.9-57.7v-98.7h56c39.8,0,72-32.2,72-72V136.3
	C958.1,96.5,925.8,64.3,886.1,64.3z M346.3,565.2c-1.8,0-2.2,0.8-2.6,1.5L156,891.7c-0.4,0.8-0.9,1.5,0,3.1c0.9,1.5,1.8,1.5,2.6,1.5
	h375.3c0.9,0,1.8,0,2.6-1.5c0.9-1.5,0.4-2.3,0-3.1l-187.6-325C348.5,566,348,565.2,346.3,565.2 M346.3,501.2
	c22.6,0,45.2,11.2,58.1,33.5l187.6,325c25.8,44.7-6.5,100.6-58.1,100.6H158.6c-51.6,0-83.9-55.9-58.1-100.6l187.6-325
	C301.1,512.4,323.7,501.2,346.3,501.2L346.3,501.2z M378.3,756.4v-87c0-17.7-14.3-32-32-32s-32,14.3-32,32v87c0,17.7,14.3,32,32,32
	S378.3,774,378.3,756.4z M346.3,810.1c-17.7,0-32,14.3-32,32c0,17.7,14.3,32,32,32c17.7,0,32-14.3,32-32
	C378.3,824.5,363.9,810.1,346.3,810.1z"/>
</svg>
