<?xml version="1.0" encoding="utf-8"?>
<!-- Generator: Adobe Illustrator 22.0.0, SVG Export Plug-In . SVG Version: 6.00 Build 0)  -->
<svg version="1.1" id="图层_1" xmlns="http://www.w3.org/2000/svg" xmlns:xlink="http://www.w3.org/1999/xlink" x="0px" y="0px"
	 viewBox="0 0 1024 1024" style="enable-background:new 0 0 1024 1024;" xml:space="preserve">
<style type="text/css">
	.st0{fill:#9DA7B2;}
	.st1{fill:none;stroke:#9DA7B2;stroke-width:72;stroke-linecap:round;stroke-linejoin:round;stroke-miterlimit:10;}
	.st2{fill:none;}
</style>
<path class="st0" d="M65,368.5c19.9,0,36-16.1,36-36v-164l211.1,192.9c-58.8,74-90.5,169.8-81.6,271.5
	c18.4,210.7,204.1,366.7,414.8,348.3S1011.9,777,993.6,566.2C975.2,355.5,789.5,199.6,578.7,218c-83.2,7.3-157.9,40.6-216.6,91.3
	L147.6,113.5H319c19.9,0,36-16.1,36-36s-16.1-36-36-36H65c-19.9,0-36,16.1-36,36v255C29,352.4,45.1,368.5,65,368.5z M584.8,287.9
	c172.1-15,323.7,112.3,338.7,284.4c15,172.1-112.3,323.7-284.4,338.7c-172.1,15-323.7-112.3-338.7-284.4
	C285.4,454.6,412.8,302.9,584.8,287.9z"/>
</svg>
