<?xml version="1.0" encoding="utf-8"?>
<!-- Generator: Adobe Illustrator 22.0.0, SVG Export Plug-In . SVG Version: 6.00 Build 0)  -->
<svg version="1.1" id="图层_1" xmlns="http://www.w3.org/2000/svg" xmlns:xlink="http://www.w3.org/1999/xlink" x="0px" y="0px"
	 viewBox="0 0 1024 1024" style="enable-background:new 0 0 1024 1024;" xml:space="preserve">
<style type="text/css">
	.st0{fill:#9DA7B2;}
	.st1{fill:none;stroke:#9DA7B2;stroke-width:72;stroke-linecap:round;stroke-linejoin:round;stroke-miterlimit:10;}
	.st2{fill:none;}
</style>
<path class="st0" d="M560.8,71.1l1.8,107.4c1.2,75,63.3,135.1,138.3,133.9c23.7-0.4,47-7.1,67.6-19.4l92.2-55.2l57.6,96.1L826,389.1
	c-42.2,25.3-66.9,69.7-66.1,118.9c0.8,49.2,26.9,92.8,69.9,116.7l93.9,52.2l-54.4,97.9l-93.9-52.2c-20.9-11.6-44.5-17.6-68.2-17.2
	c-75,1.2-135.1,63.3-133.9,138.3l1.8,107.4l-112,1.8l-1.8-107.4c-1.2-75-63.3-135.1-138.3-133.9c-23.7,0.4-47,7.1-67.6,19.4
	l-92.2,55.2l-57.6-96.1l92.2-55.2c42.2-25.3,66.9-69.7,66.1-118.9c-0.8-49.2-26.9-92.8-69.9-116.7l-93.9-52.2l54.4-97.9l93.9,52.2
	c20.9,11.6,44.5,17.6,68.2,17.2c75-1.2,135.1-63.3,133.9-138.3L448.8,73L560.8,71.1 M567.6-1l-128,2.1c-35.3,0.6-63.5,29.7-62.9,65
	l1.9,115.4c0.6,37.4-29.6,64.6-63,65.1c-10.7,0.2-21.6-2.4-32-8.1l-100.9-56.1c-10.2-5.7-21.2-8.2-32.1-8.1
	c-22.1,0.4-43.4,12.2-55,32.9L33.4,319.2c-17.2,30.9-6,69.9,24.8,87l100.9,56.1c43.1,23.9,44.1,85.5,1.8,110.8l-99,59.3
	c-30.3,18.2-40.2,57.5-22,87.8l65.8,109.8c12.2,20.3,33.9,31.5,56,31.1c10.9-0.2,21.8-3.1,31.8-9.1l99-59.3
	c10.2-6.1,21.1-9,31.8-9.2c33.4-0.5,64.5,25.7,65.1,63l1.9,115.4c0.6,35.3,29.7,63.5,65,62.9l128-2.1c35.3-0.6,63.5-29.7,62.9-65
	l-1.9-115.4c-0.6-37.4,29.6-64.6,63-65.1c10.7-0.2,21.6,2.4,32,8.1l100.9,56.1c10.2,5.7,21.2,8.2,32.1,8.1
	c22.1-0.4,43.4-12.2,55-32.9l62.2-111.9c17.2-30.9,6-69.9-24.8-87l-100.9-56.1c-43.1-23.9-44.1-85.5-1.8-110.8l99-59.3
	c30.3-18.2,40.2-57.5,22-87.8l-65.8-109.8c-12.2-20.3-33.9-31.5-56-31.1c-10.9,0.2-21.8,3.1-31.8,9.1l-99,59.3
	c-10.2,6.1-21.1,9-31.8,9.2c-33.4,0.5-64.5-25.7-65.1-63L632.7,62C632.1,26.6,603-1.6,567.6-1L567.6-1z M510.6,424
	c48.5-0.8,88.6,38,89.4,86.6s-38,88.6-86.6,89.4s-88.6-38-89.4-86.6C423.2,464.9,462,424.8,510.6,424 M509.4,352
	C421,353.5,350.6,426.3,352,514.6S426.3,673.4,514.6,672c88.4-1.4,158.8-74.2,157.4-162.6C670.5,421,597.7,350.6,509.4,352
	L509.4,352z"/>
</svg>
