<?xml version="1.0" encoding="utf-8"?>
<!-- Generator: Adobe Illustrator 22.0.0, SVG Export Plug-In . SVG Version: 6.00 Build 0)  -->
<svg version="1.1" id="图层_1" xmlns="http://www.w3.org/2000/svg" xmlns:xlink="http://www.w3.org/1999/xlink" x="0px" y="0px"
	 viewBox="0 0 1024 1024" style="enable-background:new 0 0 1024 1024;" xml:space="preserve">
<style type="text/css">
	.st0{fill:#9DA7B2;}
	.st1{fill:none;stroke:#9DA7B2;stroke-width:72;stroke-linecap:round;stroke-linejoin:round;stroke-miterlimit:10;}
	.st2{fill:none;}
</style>
<path class="st0" d="M920.5,180h-41v-48c0-39.8-32.2-72-72-72h-704c-39.8,0-72,32.2-72,72v469.3c0,39.8,32.2,72,72,72h41v48
	c0,31.9,21,60,51.5,69l576,170.7c6.7,2,13.6,3,20.5,3c15.3,0,30.5-4.9,43.1-14.3c18.2-13.6,28.9-35,28.9-57.7v-98.7h56
	c39.8,0,72-32.2,72-72V252C992.5,212.2,960.3,180,920.5,180z M144.5,252v349.3h-41V132h704v48h-591C176.8,180,144.5,212.2,144.5,252
	z M920.5,721.3h-128V892l-576-170.7V252h704V721.3z M431.1,497c0,27.1-21.9,49-49,49s-49-21.9-49-49s21.9-49,49-49
	S431.1,469.9,431.1,497z M623.1,497c0,27.1-21.9,49-49,49s-49-21.9-49-49s21.9-49,49-49S623.1,469.9,623.1,497z M815.1,497
	c0,27.1-21.9,49-49,49s-49-21.9-49-49s21.9-49,49-49S815.1,469.9,815.1,497z"/>
</svg>
