<?xml version="1.0" encoding="utf-8"?>
<!-- Generator: Adobe Illustrator 22.0.0, SVG Export Plug-In . SVG Version: 6.00 Build 0)  -->
<svg version="1.1" id="图层_1" xmlns="http://www.w3.org/2000/svg" xmlns:xlink="http://www.w3.org/1999/xlink" x="0px" y="0px"
	 viewBox="0 0 1024 1024" style="enable-background:new 0 0 1024 1024;" xml:space="preserve">
<style type="text/css">
	.st0{fill:#9DA7B2;}
	.st1{fill:none;stroke:#9DA7B2;stroke-width:72;stroke-linecap:round;stroke-linejoin:round;stroke-miterlimit:10;}
	.st2{fill:none;}
</style>
<path class="st0" d="M1024,476h-1.7C1004.9,222,802,18.9,548,1.3V0h-27.9c-2.7-1.4-5.4-2.8-8.1-4.1c-2.7,1.4-5.4,2.7-8.1,4.1H476
	v1.3C210.3,19.7,0.5,241.1,0.5,511.5s209.8,491.8,475.5,510.3v2.2h27.9c2.7,1.4,5.4,2.8,8.1,4.1c2.7-1.4,5.4-2.7,8.1-4.1H548v-2.2
	c253.7-17.6,456.4-220.2,474.2-473.8h1.8V476z M950.1,476H830.9c-5-80.8-26.6-157-61.5-225.4c21.4-12.5,41.9-26.5,61.2-41.9
	C897.9,279.5,941.8,372.7,950.1,476z M700.5,749.9c-47.7-18.9-99-30.9-152.5-34.6V548h210.7c-3.9,55.3-16.7,109.1-38.3,160.2
	C714.4,722.4,707.7,736.4,700.5,749.9z M303.6,708.2C282,657.1,269.1,603.3,265.3,548H476v167.3c-53.5,3.7-104.7,15.7-152.5,34.6
	C316.3,736.4,309.6,722.4,303.6,708.2z M319.2,282.4c48.9,19.9,101.7,32.5,156.8,36.3V476H265.3c3.9-55.3,16.7-109.1,38.3-160.2
	C308.4,304.5,313.6,293.3,319.2,282.4z M548,101.1c22.8,16.2,44.3,34.4,64.4,54.5c20,20,38.2,41.5,54.5,64.3
	c-37.4,14.1-77.3,23.2-118.8,26.6V101.1z M653.7,95.3c44.3,15.1,85.5,37.1,122.2,64.7c-13.8,10.4-28.2,19.9-43.2,28.6
	C709.7,154.8,683.2,123.5,653.7,95.3z M411.6,155.6c20.1-20.1,41.6-38.3,64.4-54.5v145.4c-41.5-3.4-81.4-12.5-118.9-26.6
	C373.4,197.2,391.6,175.7,411.6,155.6z M291.3,188.6c-15-8.7-29.4-18.3-43.1-28.6c36.7-27.6,77.9-49.6,122.2-64.7
	C340.8,123.5,314.3,154.8,291.3,188.6z M476,787.5v135.4c-22.8-16.2-44.3-34.4-64.4-54.5c-17.7-17.7-34-36.5-48.7-56.4
	C398.7,799.1,436.6,790.7,476,787.5z M368.8,927.2c-40.8-14-78.8-33.9-113.1-58.6c13-9.4,26.6-18.1,40.6-26
	C317.7,873.1,342,901.4,368.8,927.2z M727.7,842.6c14,7.9,27.6,16.6,40.6,26c-34.3,24.7-72.4,44.6-113.1,58.6
	C682,901.4,706.3,873.1,727.7,842.6z M612.4,868.4c-20.1,20.1-41.6,38.3-64.4,54.5V787.6c39.4,3.2,77.3,11.6,113.1,24.5
	C646.3,831.9,630.1,850.7,612.4,868.4z M548,476V318.7c55.1-3.8,107.9-16.4,156.8-36.3c5.6,10.9,10.8,22.1,15.6,33.4
	c21.6,51.1,34.4,104.8,38.3,160.2H548z M193.4,208.7c19.3,15.4,39.7,29.4,61.2,41.9C219.7,319,198.1,395.2,193.1,476H73.9
	C82.2,372.7,126.1,279.5,193.4,208.7z M74,548h119.2c5.2,83.8,28.3,162.8,65.5,233.1c-20.7,11.8-40.4,25-59.1,39.5
	C129,749.3,82.7,654,74,548z M824.5,820.6c-18.7-14.5-38.5-27.7-59.1-39.5c37.2-70.3,60.3-149.3,65.5-233.1H950
	C941.3,654,895,749.3,824.5,820.6z"/>
</svg>
