<?xml version="1.0" encoding="utf-8"?>
<!-- Generator: Adobe Illustrator 22.0.0, SVG Export Plug-In . SVG Version: 6.00 Build 0)  -->
<svg version="1.1" id="图层_1" xmlns="http://www.w3.org/2000/svg" xmlns:xlink="http://www.w3.org/1999/xlink" x="0px" y="0px"
	 viewBox="0 0 1024 1024" style="enable-background:new 0 0 1024 1024;" xml:space="preserve">
<style type="text/css">
	.st0{fill:#9DA7B2;}
	.st1{fill:none;stroke:#9DA7B2;stroke-width:72;stroke-linecap:round;stroke-linejoin:round;stroke-miterlimit:10;}
	.st2{fill:none;}
</style>
<path class="st0" d="M576,924c0,19.9-16.1,36-36,36H137.6c-39.8,0-72-32.2-72-72V136c0-39.8,32.2-72,72-72h752c39.8,0,72,32.2,72,72
	v404.3c0,19.9-16.1,36-36,36h0c-19.9,0-36-16.1-36-36V136h-752v752h0H540C559.9,888,576,904.1,576,924L576,924z M704,645.3
	c0,24.2-27.9,37.8-46.9,22.8c-36.2-28.6-81.9-45.2-143.1-45.2c-151.2,0-208.7,101.1-260.8,233.5c-7.8,19.8-32.8,26.1-49,12.2l0,0
	c-8.5-7.3-11.4-19.1-7.4-29.5c53.3-136.6,120-244.4,254.5-269.4c7.6-1.4,8.3-12.1,0.9-14.4c-84.6-26.8-145.9-105.9-145.9-199.3
	c0-114.3,91.7-207.1,205.6-209C628.6,145,725.3,241,724.2,357.8c-0.9,96.3-66.9,177.1-156.2,200.3c-5.4,1.4-5.1,9.2,0.4,10
	c49.9,7.9,90.6,27,124.8,54.5C700,628.2,704,636.5,704,645.3L704,645.3z M515.1,506.1c83.1,0.1,150.4-67.3,150.3-150.3
	c-0.1-81.7-68.5-150.1-150.1-150.1C432.3,205.6,364.9,272.9,365,356C365,437.6,433.4,506,515.1,506.1z M957.5,734.5l-128-128
	c-14.1-14.1-36.9-14.1-50.9,0c-14.1,14.1-14.1,36.9,0,50.9l66.5,66.5H804c-40,0-81.3,18.4-113.5,50.5C658.4,806.6,640,848,640,888
	c0,64,0,100,0,100c0,19.9,16.1,36,36,36c0,0,0,0,0,0c19.9,0,36-16.1,36-36c0,0,0-36,0-100c0-20.7,11-44.1,29.5-62.5
	S783.3,796,804,796h41.1l-66.5,66.5c-14.1,14.1-14.1,36.9,0,50.9c7,7,16.2,10.5,25.5,10.5s18.4-3.5,25.5-10.5l128-128
	C971.5,771.4,971.5,748.6,957.5,734.5z"/>
</svg>
