<?xml version="1.0" encoding="utf-8"?>
<!-- Generator: Adobe Illustrator 22.0.0, SVG Export Plug-In . SVG Version: 6.00 Build 0)  -->
<svg version="1.1" id="图层_1" xmlns="http://www.w3.org/2000/svg" xmlns:xlink="http://www.w3.org/1999/xlink" x="0px" y="0px"
	 viewBox="0 0 1024 1024" style="enable-background:new 0 0 1024 1024;" xml:space="preserve">
<style type="text/css">
	.st0{fill:#9DA7B2;}
	.st1{fill:none;stroke:#9DA7B2;stroke-width:72;stroke-linecap:round;stroke-linejoin:round;stroke-miterlimit:10;}
	.st2{fill:none;}
</style>
<path class="st0" d="M896,72c0-39.8-32.2-72-72-72H201c-39.8,0-72,32.2-72,72v249.8c0,11.7,2.8,22.8,7.8,32.6
	c-5,9.8-7.8,20.9-7.8,32.6v249.8c0,11.7,2.8,22.8,7.8,32.6c-5,9.8-7.8,20.9-7.8,32.6V952c0,39.8,32.2,72,72,72h623
	c39.8,0,72-32.2,72-72V702.2c0-11.7-2.8-22.8-7.8-32.6c5-9.8,7.8-20.9,7.8-32.6V387.1c0-11.7-2.8-22.8-7.8-32.6
	c5-9.8,7.8-20.9,7.8-32.6V72z M201,72h623h0v243.1H201V72z M824,630.2H201V393.8h623V630.2z M824,952H201c0,0,0,0,0,0V708.9h623V952
	z M320,164c0,19.9-16.1,36-36,36s-36-16.1-36-36s16.1-36,36-36S320,144.1,320,164z M320,484c0,19.9-16.1,36-36,36s-36-16.1-36-36
	s16.1-36,36-36S320,464.1,320,484z M320,804c0,19.9-16.1,36-36,36s-36-16.1-36-36s16.1-36,36-36S320,784.1,320,804z"/>
</svg>
