<?xml version="1.0" encoding="utf-8"?>
<!-- Generator: Adobe Illustrator 22.0.0, SVG Export Plug-In . SVG Version: 6.00 Build 0)  -->
<svg version="1.1" id="图层_1" xmlns="http://www.w3.org/2000/svg" xmlns:xlink="http://www.w3.org/1999/xlink" x="0px" y="0px"
	 viewBox="0 0 1024 1024" style="enable-background:new 0 0 1024 1024;" xml:space="preserve">
<style type="text/css">
	.st0{fill:#9DA7B2;}
	.st1{fill:none;stroke:#9DA7B2;stroke-width:72;stroke-linecap:round;stroke-linejoin:round;stroke-miterlimit:10;}
	.st2{fill:none;}
</style>
<path class="st0" d="M453.2,478.5H351.5c-2.8,0-5,2.3-5,5v224c0,14.4,7.8,22.2,24,22.2h104.6c18,0,29.5-4.8,33.7-13.8
	c2.8-5.6,5.2-14.9,7.2-27.8c2.6-16.9,19.9-27.4,36.1-21.9v0c12.4,4.2,20.2,16.6,18.6,29.6c-4.7,39-11.3,63.3-20.5,72.5
	c-9.6,9.6-29.5,14.4-58.3,14.4H345.8c-37.9,0-56.5-18-56.5-54.1V455.2c0-4.5-5.4-6.7-8.6-3.6l0,0c-5.1,5.1-12.1,7.7-19.2,7.1
	c-7.1-0.6-13.7-4.2-17.9-10c-9.6-13.2-8-31.4,3.7-42.7c8.4-8.2,15.2-14.9,20.4-20.3c37.6-39.4,72.1-81.6,103.1-126.3
	c8.2-11.8,21.7-18.9,36.1-18.9h0c12.1,0,23.6,5,31.9,13.8c41.9,44.5,82.1,90.5,120.4,138.1c10.5,13.2,8.5,32.4-4.5,43.2
	c-4.9,3.7-11,5.3-17,4.5c-6.1-0.8-11.5-4-15.2-8.9c-5.6-7.3-11.2-14.7-16.8-21.9c-35.2-45.3-65.6-82.2-91.8-110.1
	c-2.2-2.3-6-2-7.8,0.6c-28.3,41.4-59.5,81.4-94.6,119.9c-2.9,3.2-0.6,8.4,3.7,8.4h174.9c13.3,0,24,10.8,24,24v141.9
	c-0.6,33-18.6,50.4-54.5,52.9c-0.1,0-0.3,0-0.4,0c-16.4,0-32.2-0.3-47.3-0.9c-11.4-0.4-21.1-8.3-23.9-19.3v0
	c-4.4-16.8,8.9-33.1,26.3-32.2c8.1,0.4,15.8,0.7,23,0.7c13.8,0,21-7.2,21-20.4v-91.2C458.3,480.8,456,478.5,453.2,478.5z
	 M631.1,290.4c15.4,0,28,12.5,28,27.9v315.1c0,15.4-12.5,28-28,28c-15.4,0-28-12.5-28-28v-315C603.1,302.9,615.6,290.4,631.1,290.4
	L631.1,290.4z M707.1,786.9H637c-12.1,0-22.6-8.3-25.5-20v0c-4.1-17,9.3-33.2,26.8-32.3c16.9,0.8,33.2,1.3,49,1.3
	c14.4,0,21.6-9,21.6-26.5V267.9c0-10.2,5.4-19.6,14.3-24.7c8.8-5.1,19.7-5.1,28.6,0c8.8,5.1,14.3,14.5,14.3,24.7v456
	C766.1,765.9,746.2,787,707.1,786.9L707.1,786.9z M707.1,786.9 M512,0.5C229.5,0.5,0.5,229.5,0.5,512s229,511.5,511.5,511.5
	c282.5,0,511.5-229,511.5-511.5S794.5,0.5,512,0.5z M512,951.5C269.3,951.5,72.5,754.7,72.5,512S269.3,72.5,512,72.5
	S951.5,269.3,951.5,512S754.7,951.5,512,951.5z"/>
</svg>
