<?xml version="1.0" encoding="utf-8"?>
<!-- Generator: Adobe Illustrator 22.0.0, SVG Export Plug-In . SVG Version: 6.00 Build 0)  -->
<svg version="1.1" id="图层_1" xmlns="http://www.w3.org/2000/svg" xmlns:xlink="http://www.w3.org/1999/xlink" x="0px" y="0px"
	 viewBox="0 0 1024 1024" style="enable-background:new 0 0 1024 1024;" xml:space="preserve">
<style type="text/css">
	.st0{fill:#9DA7B2;}
	.st1{fill:none;stroke:#9DA7B2;stroke-width:72;stroke-linecap:round;stroke-linejoin:round;stroke-miterlimit:10;}
	.st2{fill:none;}
</style>
<path class="st0" d="M923.6,156h-106v-56c0-19.9-16.1-36-36-36s-36,16.1-36,36v56h-106c-19.9,0-36,16.1-36,36v128
	c0,19.9,16.1,36,36,36h106v128c0,19.9,16.1,36,36,36s36-16.1,36-36V356h106c19.9,0,36-16.1,36-36V192
	C959.6,172.1,943.4,156,923.6,156z M675.6,284v-56h70v56H675.6z M887.6,284h-70v-56h70V284z M885,885.5c14.1-14,14.1-36.8,0.1-50.9
	L176.3,124c-14-14.1-36.8-14.1-50.9-0.1c-14.1,14-14.1,36.8-0.1,50.9l708.8,710.5c7,7.1,16.3,10.6,25.5,10.6
	C868.7,896,877.9,892.5,885,885.5z M453,846.6l-128-320c-5.5-13.7-18.7-22.6-33.4-22.6h-64c-14.7,0-28,9-33.4,22.6l-128,320
	c-7.4,18.5,1.6,39.4,20.1,46.8c18.5,7.4,39.4-1.6,46.8-20.1L175.1,768H344l42.1,105.4c5.6,14.1,19.1,22.6,33.4,22.6
	c4.5,0,9-0.8,13.4-2.6C451.4,886,460.4,865.1,453,846.6z M203.9,696l48-120h15.3l48,120H203.9z"/>
</svg>
