<?xml version="1.0" encoding="utf-8"?>
<!-- Generator: Adobe Illustrator 22.0.0, SVG Export Plug-In . SVG Version: 6.00 Build 0)  -->
<svg version="1.1" id="图层_1" xmlns="http://www.w3.org/2000/svg" xmlns:xlink="http://www.w3.org/1999/xlink" x="0px" y="0px"
	 viewBox="0 0 1024 1024" style="enable-background:new 0 0 1024 1024;" xml:space="preserve">
<style type="text/css">
	.st0{fill:#9DA7B2;}
	.st1{fill:none;stroke:#9DA7B2;stroke-width:72;stroke-linecap:round;stroke-linejoin:round;stroke-miterlimit:10;}
	.st2{fill:none;}
</style>
<path class="st0" d="M452,376h353.1l-66.5-66.5c-14.1-14.1-14.1-36.9,0-50.9c14.1-14.1,36.9-14.1,50.9,0l128,128
	c0,0,0.1,0.1,0.1,0.1c0.4,0.4,0.7,0.8,1.1,1.2c0.2,0.2,0.4,0.5,0.6,0.7c0.2,0.2,0.4,0.4,0.6,0.7c0.2,0.3,0.5,0.6,0.7,0.9
	c0.1,0.2,0.3,0.3,0.4,0.5c0.2,0.3,0.5,0.6,0.7,1c0.1,0.2,0.2,0.3,0.3,0.5c0.2,0.3,0.4,0.7,0.6,1c0.1,0.2,0.2,0.3,0.3,0.5
	c0.2,0.3,0.4,0.7,0.6,1c0.1,0.2,0.2,0.4,0.3,0.5c0.2,0.3,0.3,0.6,0.5,1c0.1,0.2,0.2,0.4,0.3,0.6c0.1,0.3,0.3,0.6,0.4,0.9
	c0.1,0.3,0.2,0.5,0.3,0.8c0.1,0.3,0.2,0.5,0.3,0.8c0.1,0.3,0.2,0.6,0.3,0.9c0.1,0.2,0.2,0.5,0.2,0.7c0.1,0.3,0.2,0.7,0.3,1
	c0.1,0.2,0.1,0.4,0.2,0.6c0.1,0.4,0.2,0.7,0.3,1.1c0,0.2,0.1,0.4,0.1,0.6c0.1,0.4,0.2,0.8,0.2,1.1c0,0.2,0.1,0.4,0.1,0.6
	c0.1,0.4,0.1,0.8,0.2,1.1c0,0.2,0.1,0.5,0.1,0.7c0,0.3,0.1,0.7,0.1,1c0,0.3,0,0.6,0.1,0.9c0,0.3,0,0.6,0.1,0.8c0,0.6,0,1.2,0,1.8v0
	c0,0,0,0,0,0c0,0.6,0,1.2,0,1.8c0,0.3,0,0.6-0.1,0.8c0,0.3,0,0.6-0.1,0.9c0,0.4-0.1,0.7-0.1,1.1c0,0.2-0.1,0.5-0.1,0.7
	c-0.1,0.4-0.1,0.8-0.2,1.1c0,0.2-0.1,0.4-0.1,0.6c-0.1,0.4-0.2,0.8-0.2,1.1c0,0.2-0.1,0.4-0.1,0.6c-0.1,0.4-0.2,0.7-0.3,1.1
	c-0.1,0.2-0.1,0.4-0.2,0.6c-0.1,0.3-0.2,0.7-0.3,1c-0.1,0.2-0.2,0.5-0.2,0.7c-0.1,0.3-0.2,0.6-0.3,0.9c-0.1,0.3-0.2,0.5-0.3,0.8
	c-0.1,0.3-0.2,0.5-0.3,0.8c-0.1,0.3-0.3,0.6-0.4,0.9c-0.1,0.2-0.2,0.4-0.3,0.6c-0.2,0.3-0.3,0.6-0.5,1c-0.1,0.2-0.2,0.4-0.3,0.5
	c-0.2,0.3-0.4,0.7-0.6,1c-0.1,0.2-0.2,0.3-0.3,0.5c-0.2,0.3-0.4,0.7-0.6,1c-0.1,0.2-0.2,0.3-0.3,0.5c-0.2,0.3-0.4,0.6-0.7,1
	c-0.1,0.2-0.3,0.3-0.4,0.5c-0.2,0.3-0.4,0.6-0.7,0.9c-0.2,0.2-0.4,0.4-0.5,0.6c-0.2,0.2-0.4,0.5-0.6,0.7c-0.3,0.4-0.7,0.7-1,1.1
	c-0.1,0.1-0.1,0.1-0.2,0.2l-128,128c-7,7-16.2,10.5-25.5,10.5s-18.4-3.5-25.5-10.5c-14.1-14.1-14.1-36.9,0-50.9l66.5-66.5H452
	c-19.9,0-36-16.1-36-36C416,392.1,432.1,376,452,376z M892,576L892,576c19.9,0,36,16.1,36,36v331.9c0,44.1-36,80.1-80.1,80.1H176.1
	C132,1024,96,988,96,943.9V80.6c0-44.1,36-80.1,80.1-80.1h671.8c44.1,0,80.1,36,80.1,80.1V156c0,19.9-16.1,36-36,36h0
	c-19.9,0-36-16.1-36-36V80.6c0-4.5-3.6-8.1-8.1-8.1H176.1c-4.5,0-8.1,3.6-8.1,8.1v587.9h120c9.5,0,18.7,3.8,25.5,10.5l117.5,117.5
	h162.2L710.5,679c6.8-6.8,15.9-10.5,25.5-10.5h120V612C856,592.1,872.1,576,892,576z M856,740.5H750.9L633.5,857.9
	c-6.8,6.8-15.9,10.5-25.5,10.5H416c-9.5,0-18.7-3.8-25.5-10.5L273.1,740.5H168v203.4c0,4.3,3.8,8.1,8.1,8.1h671.8
	c4.3,0,8.1-3.8,8.1-8.1V740.5z"/>
</svg>
