<?xml version="1.0" encoding="utf-8"?>
<!-- Generator: Adobe Illustrator 22.0.0, SVG Export Plug-In . SVG Version: 6.00 Build 0)  -->
<svg version="1.1" id="图层_1" xmlns="http://www.w3.org/2000/svg" xmlns:xlink="http://www.w3.org/1999/xlink" x="0px" y="0px"
	 viewBox="0 0 1024 1024" style="enable-background:new 0 0 1024 1024;" xml:space="preserve">
<style type="text/css">
	.st0{fill:#9DA7B2;}
	.st1{fill:none;stroke:#9DA7B2;stroke-width:72;stroke-linecap:round;stroke-linejoin:round;stroke-miterlimit:10;}
	.st2{fill:none;}
</style>
<path class="st0" d="M833.4,754.6l-256-640C572,101,558.7,92,544,92h-64c-14.7,0-28,9-33.4,22.6l-256,640
	c-7.4,18.5,1.6,39.4,20.1,46.8c18.5,7.4,39.4-1.6,46.8-20.1L350.8,548c0.4,0,0.8,0,1.2,0h320c0.4,0,0.8,0,1.2,0l93.4,233.4
	c5.6,14.1,19.1,22.6,33.4,22.6c4.5,0,9-0.8,13.4-2.6C831.8,794,840.8,773.1,833.4,754.6z M379.6,476l124.8-312h15.3l124.8,312H379.6
	z M832,932H192c-19.9,0-36-16.1-36-36s16.1-36,36-36h640c19.9,0,36,16.1,36,36S851.9,932,832,932z"/>
</svg>
