<?xml version="1.0" encoding="utf-8"?>
<!-- Generator: Adobe Illustrator 22.0.0, SVG Export Plug-In . SVG Version: 6.00 Build 0)  -->
<svg version="1.1" id="图层_1" xmlns="http://www.w3.org/2000/svg" xmlns:xlink="http://www.w3.org/1999/xlink" x="0px" y="0px"
	 viewBox="0 0 1024 1024" style="enable-background:new 0 0 1024 1024;" xml:space="preserve">
<style type="text/css">
	.st0{fill:#9DA7B2;}
	.st1{fill:none;stroke:#9DA7B2;stroke-width:72;stroke-linecap:round;stroke-linejoin:round;stroke-miterlimit:10;}
	.st2{fill:none;}
</style>
<path class="st0" d="M1011.5,514.5l-476-448c-14.1-14.1-36.9-14.1-50.9,0l-476,448c-10.3,10.3-13.4,25.8-7.8,39.2S19.5,576,34.1,576
	h92v348c0,19.9,16.1,36,36,36h696c19.9,0,36-16.1,36-36V576h92c14.6,0,27.7-8.8,33.3-22.2S1021.8,524.8,1011.5,514.5z M858,504
	c-19.9,0-36,16.1-36,36v348h-624V540c0-19.9-16.1-36-36-36H121l389.1-361.1L899.1,504H858z M510.1,489.1l102.5-102.5
	c14.1-14.1,36.9-14.1,50.9,0c14.1,14.1,14.1,36.9,0,50.9L546.1,554.9V568h92c19.9,0,36,16.1,36,36s-16.1,36-36,36h-92v156
	c0,19.9-16.1,36-36,36s-36-16.1-36-36V640h-92c-19.9,0-36-16.1-36-36s16.1-36,36-36h92v-13.1L356.6,437.5
	c-14.1-14.1-14.1-36.9,0-50.9c14.1-14.1,36.9-14.1,50.9,0L510.1,489.1z"/>
</svg>
