<?xml version="1.0" encoding="utf-8"?>
<!-- Generator: Adobe Illustrator 22.0.0, SVG Export Plug-In . SVG Version: 6.00 Build 0)  -->
<svg version="1.1" id="图层_1" xmlns="http://www.w3.org/2000/svg" xmlns:xlink="http://www.w3.org/1999/xlink" x="0px" y="0px"
	 viewBox="0 0 1024 1024" style="enable-background:new 0 0 1024 1024;" xml:space="preserve">
<style type="text/css">
	.st0{fill:#9DA7B2;}
	.st1{fill:none;stroke:#9DA7B2;stroke-width:72;stroke-linecap:round;stroke-linejoin:round;stroke-miterlimit:10;}
	.st2{fill:none;}
</style>
<path class="st0" d="M512,96l135.2,273.9l302.2,43.9L730.7,627l51.6,301L512,785.9L241.7,928l51.6-301L74.6,413.8l302.2-43.9L512,96
	 M512,24c-27.4,0-52.4,15.6-64.6,40.1L329,304.1L64.2,342.5c-27.1,3.9-49.7,22.9-58.1,49c-8.5,26.1-1.4,54.7,18.2,73.8l191.6,186.8
	l-45.2,263.7c-4.6,27,6.5,54.3,28.6,70.4c12.5,9.1,27.4,13.8,42.3,13.8c11.5,0,23-2.7,33.5-8.3L512,867.2l236.8,124.5
	c10.5,5.5,22,8.3,33.5,8.3c14.9,0,29.8-4.6,42.3-13.8c22.2-16.1,33.3-43.4,28.6-70.4l-45.2-263.7l191.6-186.8
	c19.6-19.1,26.7-47.7,18.2-73.8c-8.5-26.1-31-45.1-58.1-49L695,304.1L576.6,64.1C564.4,39.6,539.4,24,512,24L512,24z"/>
</svg>
