<?xml version="1.0" encoding="utf-8"?>
<!-- Generator: Adobe Illustrator 22.0.0, SVG Export Plug-In . SVG Version: 6.00 Build 0)  -->
<svg version="1.1" id="图层_1" xmlns="http://www.w3.org/2000/svg" xmlns:xlink="http://www.w3.org/1999/xlink" x="0px" y="0px"
	 viewBox="0 0 1024 1024" style="enable-background:new 0 0 1024 1024;" xml:space="preserve">
<style type="text/css">
	.st0{fill:#9DA7B2;}
	.st1{fill:none;stroke:#9DA7B2;stroke-width:72;stroke-linecap:round;stroke-linejoin:round;stroke-miterlimit:10;}
	.st2{fill:none;}
</style>
<path class="st0" d="M275.2,55.2c-58.8,0-114,22.9-155.6,64.4c-41.6,41.6-64.4,96.8-64.4,155.6c0,58.8,22.9,114,64.4,155.6
	c41.6,41.6,96.8,64.4,155.6,64.4h148c39.8,0,72-32.2,72-72v-148c0-58.8-22.9-114-64.4-155.6C389.2,78.1,334,55.2,275.2,55.2z
	 M423.2,423.2h-148c-81.7,0-148-66.3-148-148c0-81.7,66.3-148,148-148c81.7,0,148,66.3,148,148V423.2z M600.8,495.2h148
	c58.8,0,114-22.9,155.6-64.4c41.6-41.6,64.4-96.8,64.4-155.6c0-58.8-22.9-114-64.4-155.6c-41.6-41.6-96.8-64.4-155.6-64.4
	c-58.8,0-114,22.9-155.6,64.4c-41.6,41.6-64.4,96.8-64.4,155.6v148C528.8,463,561,495.2,600.8,495.2z M600.8,275.2
	c0-81.7,66.3-148,148-148c81.7,0,148,66.3,148,148c0,81.7-66.3,148-148,148h-148V275.2z M423.2,528.8h-148
	c-58.8,0-114,22.9-155.6,64.4C78.1,634.8,55.2,690,55.2,748.8s22.9,114,64.4,155.6c41.6,41.6,96.8,64.4,155.6,64.4
	c58.8,0,114-22.9,155.6-64.4c41.6-41.6,64.4-96.8,64.4-155.6v-148C495.2,561,463,528.8,423.2,528.8z M423.2,748.8
	c0,81.7-66.3,148-148,148c-81.7,0-148-66.3-148-148s66.3-148,148-148h148V748.8z M748.8,528.8c-58.8,0-114,22.9-155.6,64.4
	c-41.6,41.6-64.4,96.8-64.4,155.6c0,58.8,22.9,114,64.4,155.6c41.6,41.6,96.8,64.4,155.6,64.4s114-22.9,155.6-64.4
	c41.6-41.6,64.4-96.8,64.4-155.6s-22.9-114-64.4-155.6C862.8,551.7,807.6,528.8,748.8,528.8z M748.8,896.8c-81.7,0-148-66.3-148-148
	s66.3-148,148-148s148,66.3,148,148S830.5,896.8,748.8,896.8z"/>
</svg>
