<?xml version="1.0" encoding="utf-8"?>
<!-- Generator: Adobe Illustrator 22.0.0, SVG Export Plug-In . SVG Version: 6.00 Build 0)  -->
<svg version="1.1" id="图层_1" xmlns="http://www.w3.org/2000/svg" xmlns:xlink="http://www.w3.org/1999/xlink" x="0px" y="0px"
	 viewBox="0 0 1024 1024" style="enable-background:new 0 0 1024 1024;" xml:space="preserve">
<style type="text/css">
	.st0{fill:#9DA7B2;}
	.st1{fill:none;stroke:#9DA7B2;stroke-width:72;stroke-linecap:round;stroke-linejoin:round;stroke-miterlimit:10;}
	.st2{fill:none;}
</style>
<path class="st0" d="M928,964H96c-19.9,0-36-16.1-36-36s16.1-36,36-36h832c19.9,0,36,16.1,36,36S947.9,964,928,964z M241.4,264h-79
	v496h79V264 M274.6,192c21.4,0,38.8,17.4,38.8,38.8v562.4c0,21.4-17.4,38.8-38.8,38.8H129.2c-21.4,0-38.8-17.4-38.8-38.8V230.8
	c0-21.4,17.4-38.8,38.8-38.8H274.6L274.6,192z M551.5,136h-79v624h79V136 M581,64c23.5,0,42.5,19,42.5,42.5v683
	c0,23.5-19,42.5-42.5,42.5H443c-23.5,0-42.5-19-42.5-42.5v-683c0-23.5,19-42.5,42.5-42.5H581L581,64z M859.5,455h-79v305h79V455
	 M899,383c17.9,0,32.5,14.5,32.5,32.5v384c0,17.9-14.5,32.5-32.5,32.5H741c-17.9,0-32.5-14.5-32.5-32.5v-384
	c0-17.9,14.5-32.5,32.5-32.5H899L899,383z"/>
</svg>
