<?xml version="1.0" encoding="utf-8"?>
<!-- Generator: Adobe Illustrator 22.0.0, SVG Export Plug-In . SVG Version: 6.00 Build 0)  -->
<svg version="1.1" id="图层_1" xmlns="http://www.w3.org/2000/svg" xmlns:xlink="http://www.w3.org/1999/xlink" x="0px" y="0px"
	 viewBox="0 0 1024 1024" style="enable-background:new 0 0 1024 1024;" xml:space="preserve">
<style type="text/css">
	.st0{fill:#9DA7B2;}
	.st1{fill:none;stroke:#9DA7B2;stroke-width:72;stroke-linecap:round;stroke-linejoin:round;stroke-miterlimit:10;}
	.st2{fill:none;}
</style>
<path class="st0" d="M512,64.2c-141.4,0-256,114.6-256,256s114.6,256,256,256c141.4,0,256-114.6,256-256S653.4,64.2,512,64.2z
	 M512,504.2c-101.6,0-184-82.4-184-184s82.4-184,184-184c101.6,0,184,82.4,184,184S613.6,504.2,512,504.2z M131,949.2
	c-10.2-10.2-13.3-25.4-8-38.7c74.6-190.2,170.9-334.3,387.5-334.3c216.4,0,311.8,144.4,386.6,334.2c5.3,13.4,2.2,28.6-8,38.8l0,0
	c-18.4,18.4-49.5,11.8-59-12.4c-64.2-163.1-133.6-288.6-319.5-288.6c-186.1,0-256.4,125.1-320.5,288.5
	C180.6,961,149.4,967.6,131,949.2L131,949.2z"/>
</svg>
