<?xml version="1.0" encoding="utf-8"?>
<!-- Generator: Adobe Illustrator 22.0.0, SVG Export Plug-In . SVG Version: 6.00 Build 0)  -->
<svg version="1.1" id="图层_1" xmlns="http://www.w3.org/2000/svg" xmlns:xlink="http://www.w3.org/1999/xlink" x="0px" y="0px"
	 viewBox="0 0 1024 1024" style="enable-background:new 0 0 1024 1024;" xml:space="preserve">
<style type="text/css">
	.st0{fill:#9DA7B2;}
	.st1{fill:none;stroke:#9DA7B2;stroke-width:72;stroke-linecap:round;stroke-linejoin:round;stroke-miterlimit:10;}
	.st2{fill:none;}
</style>
<path class="st0" d="M922.9,519.8c-36-35.5-78.1-64.1-125.3-84.9c-37.4-16.5-78-28.1-120.7-34.6c-42.9-6.5-79.3-6.4-102.4-5.2
	L447.4,144.7l23.5-71.9c4.5-13.8,0.3-29-10.8-38.5s-26.7-11.4-39.7-4.8l-139.1,70.6l-32.1,16.3l-139.1,70.6
	c-13,6.6-20.7,20.4-19.6,34.9c1.1,14.5,10.9,26.9,24.7,31.4l71.9,23.5l127.1,250.4c-14.6,17.9-36.1,47.3-56.2,85.7
	c-19.9,38.2-34.5,77.9-43.3,117.9c-11,50.4-12.9,101.2-5.4,151.2c1.7,11.4,8.8,21.4,19.1,26.7c10.3,5.3,22.5,5.3,32.8,0.1
	l294.3-149.4c0.3,0.7,0.6,1.3,0.9,2l110.3,217.2c9,17.7,30.7,24.8,48.4,15.8l0,0c17.7-9,24.8-30.7,15.8-48.4L620.7,728.8
	c-0.3-0.7-0.7-1.3-1.1-1.9l294.3-149.4c10.3-5.2,17.5-15.1,19.3-26.6S931.1,527.9,922.9,519.8z M571,670.8l-32.1,16.3L276.8,820.2
	c0.1-57.6,14.8-115.2,44-171.9c28.9-56.1,61.9-90.2,62.2-90.5c10.9-11,13.4-27.7,6.4-41.5L244.5,231c-4.3-8.5-11.8-15-20.9-17.9
	l-3.4-1.1l61.6-31.3l32.1-16.3l61.6-31.3l-1.1,3.4c-3,9.1-2.2,19,2.1,27.5l144.9,285.3c7,13.8,22,21.6,37.3,19.3
	c0.5-0.1,47.4-6.6,109.8,3.2c63,9.9,118.2,32,164.7,65.9L571,670.8z"/>
</svg>
