<?xml version="1.0" encoding="utf-8"?>
<!-- Generator: Adobe Illustrator 22.0.0, SVG Export Plug-In . SVG Version: 6.00 Build 0)  -->
<svg version="1.1" id="图层_1" xmlns="http://www.w3.org/2000/svg" xmlns:xlink="http://www.w3.org/1999/xlink" x="0px" y="0px"
	 viewBox="0 0 1024 1024" style="enable-background:new 0 0 1024 1024;" xml:space="preserve">
<style type="text/css">
	.st0{fill:#9DA7B2;}
	.st1{fill:none;stroke:#9DA7B2;stroke-width:72;stroke-linecap:round;stroke-linejoin:round;stroke-miterlimit:10;}
	.st2{fill:none;}
</style>
<path class="st0" d="M136,548v340h752V136H546.7c-19.9,0-36-16.1-36-36v0c0-19.9,16.1-36,36-36H888c39.8,0,72,32.2,72,72v752
	c0,39.8-32.2,72-72,72H136c-39.8,0-72-32.2-72-72V548c0-19.9,16.1-36,36-36h0C119.9,512,136,528.1,136,548z M570.7,517.8L187.3,136
	h168.6c19.9,0,36-16.1,36-36s-16.1-36-36-36H100c0,0,0,0-0.1,0c-0.4,0-0.8,0-1.2,0c-0.7,0-1.5,0.1-2.2,0.1c-0.1,0-0.1,0-0.2,0
	c-0.5,0-1,0.1-1.4,0.2c-0.1,0-0.2,0-0.3,0c-0.5,0.1-0.9,0.2-1.4,0.2c-0.1,0-0.2,0-0.3,0.1c-0.4,0.1-0.9,0.2-1.3,0.3
	c-0.1,0-0.3,0.1-0.4,0.1c-0.4,0.1-0.8,0.2-1.2,0.3c-0.2,0-0.3,0.1-0.5,0.1c-0.4,0.1-0.7,0.2-1.1,0.4C88.2,66,88,66,87.8,66.1
	c-0.3,0.1-0.6,0.2-1,0.4c-0.2,0.1-0.5,0.2-0.7,0.3c-0.3,0.1-0.5,0.2-0.8,0.4c-0.3,0.1-0.6,0.2-0.8,0.4c-0.2,0.1-0.4,0.2-0.7,0.3
	c-0.3,0.2-0.6,0.3-0.9,0.5c-0.2,0.1-0.3,0.2-0.5,0.3c-0.3,0.2-0.7,0.4-1,0.6c-0.1,0.1-0.3,0.2-0.4,0.3c-0.4,0.2-0.7,0.4-1.1,0.7
	c-0.1,0.1-0.2,0.2-0.4,0.3c-0.4,0.2-0.7,0.5-1.1,0.8c-0.1,0.1-0.2,0.2-0.4,0.3c-0.3,0.3-0.7,0.5-1,0.8c-0.1,0.1-0.3,0.2-0.4,0.4
	c-0.4,0.4-0.9,0.8-1.3,1.2c-0.3,0.3-0.6,0.5-0.9,0.8c0,0,0,0-0.1,0.1c-0.2,0.2-0.3,0.3-0.5,0.5c-0.2,0.2-0.5,0.5-0.7,0.7
	c-0.2,0.2-0.4,0.5-0.6,0.7c-0.2,0.2-0.4,0.4-0.5,0.6c-0.2,0.3-0.4,0.6-0.7,0.8c-0.1,0.2-0.3,0.3-0.4,0.5c-0.2,0.3-0.4,0.6-0.7,0.9
	c-0.1,0.2-0.2,0.3-0.3,0.5c-0.2,0.3-0.4,0.7-0.6,1c-0.1,0.2-0.2,0.3-0.3,0.5c-0.2,0.3-0.4,0.7-0.6,1c-0.1,0.2-0.2,0.4-0.3,0.5
	c-0.2,0.3-0.3,0.6-0.5,1c-0.1,0.2-0.2,0.4-0.3,0.6c-0.1,0.3-0.3,0.6-0.4,0.9c-0.1,0.2-0.2,0.5-0.3,0.7c-0.1,0.3-0.2,0.5-0.3,0.8
	c-0.1,0.3-0.2,0.6-0.3,0.9c-0.1,0.2-0.2,0.5-0.3,0.7c-0.1,0.3-0.2,0.6-0.3,1c-0.1,0.2-0.1,0.5-0.2,0.7c-0.1,0.3-0.2,0.7-0.3,1
	C65,91.6,65,91.8,64.9,92c-0.1,0.4-0.2,0.7-0.2,1.1c0,0.2-0.1,0.5-0.1,0.7c-0.1,0.3-0.1,0.7-0.2,1c0,0.3-0.1,0.5-0.1,0.8
	c0,0.3-0.1,0.6-0.1,1c0,0.3,0,0.6-0.1,0.9c0,0.3,0,0.5-0.1,0.8c0,0.4,0,0.8,0,1.2c0,0.2,0,0.3,0,0.5v256.5c0,19.9,16.1,36,36,36
	s36-16.1,36-36v-170l384,382.4c7,7,16.2,10.5,25.4,10.5c9.3,0,18.5-3.5,25.5-10.6C584.9,554.6,584.8,531.8,570.7,517.8z"/>
</svg>
