<?xml version="1.0" encoding="utf-8"?>
<!-- Generator: Adobe Illustrator 21.0.2, SVG Export Plug-In . SVG Version: 6.00 Build 0)  -->
<svg version="1.1" id="图层_1" xmlns="http://www.w3.org/2000/svg" xmlns:xlink="http://www.w3.org/1999/xlink" x="0px" y="0px"
	 viewBox="0 0 1024 1024" style="enable-background:new 0 0 1024 1024;" xml:space="preserve">
<style type="text/css">
	.st0{fill:#9DA7B2;}
</style>
<path class="st0" d="M824,384h5.1c3.7-19.7,5.7-40,5.7-60.7C834.8,144.7,690,0,511.5,0C333,0,188.2,144.7,188.2,323.3
	c0,20.8,2,41,5.7,60.7h5.1c-39.8,0-72,32.2-72,72v496c0,39.8,32.2,72,72,72h625c39.8,0,72-32.2,72-72V456
	C896,416.2,863.8,384,824,384z M543.5,695.4V800c0,17.7-14.3,32-32,32c-17.7,0-32-14.3-32-32V695.4c-19.1-11.1-32-31.7-32-55.4
	c0-35.3,28.7-64,64-64s64,28.7,64,64C575.5,663.7,562.6,684.3,543.5,695.4z M267.6,384c-4.9-19.7-7.4-40-7.4-60.7
	c0-34,6.6-66.9,19.7-97.8c12.7-29.9,30.8-56.8,53.9-79.9s50-41.2,79.9-53.9C444.6,78.6,477.5,72,511.5,72c34,0,66.9,6.6,97.8,19.7
	c29.9,12.7,56.8,30.8,79.9,53.9c23.1,23.1,41.2,50,53.9,79.9c13.1,30.9,19.7,63.8,19.7,97.8c0,20.7-2.5,41-7.4,60.7H267.6z"/>
</svg>
