<?xml version="1.0" encoding="utf-8"?>
<!-- Generator: Adobe Illustrator 22.0.0, SVG Export Plug-In . SVG Version: 6.00 Build 0)  -->
<svg version="1.1" id="图层_1" xmlns="http://www.w3.org/2000/svg" xmlns:xlink="http://www.w3.org/1999/xlink" x="0px" y="0px"
	 viewBox="0 0 1024 1024" style="enable-background:new 0 0 1024 1024;" xml:space="preserve">
<style type="text/css">
	.st0{fill:#9DA7B2;}
	.st1{fill:none;stroke:#9DA7B2;stroke-width:72;stroke-linecap:round;stroke-linejoin:round;stroke-miterlimit:10;}
	.st2{fill:none;}
</style>
<path class="st0" d="M256,192c0,35.3-28.7,64-64,64s-64-28.7-64-64s28.7-64,64-64S256,156.7,256,192z M192,448
	c-35.3,0-64,28.7-64,64s28.7,64,64,64s64-28.7,64-64S227.3,448,192,448z M192,768c-35.3,0-64,28.7-64,64s28.7,64,64,64
	s64-28.7,64-64S227.3,768,192,768z M896,192c0-19.9-16.1-36-36-36H348c-19.9,0-36,16.1-36,36s16.1,36,36,36h512
	C879.9,228,896,211.9,896,192z M896,512c0-19.9-16.1-36-36-36H348c-19.9,0-36,16.1-36,36s16.1,36,36,36h512
	C879.9,548,896,531.9,896,512z M896,832c0-19.9-16.1-36-36-36H348c-19.9,0-36,16.1-36,36s16.1,36,36,36h512
	C879.9,868,896,851.9,896,832z"/>
</svg>
