<?xml version="1.0" encoding="utf-8"?>
<!-- Generator: Adobe Illustrator 22.0.0, SVG Export Plug-In . SVG Version: 6.00 Build 0)  -->
<svg version="1.1" id="图层_1" xmlns="http://www.w3.org/2000/svg" xmlns:xlink="http://www.w3.org/1999/xlink" x="0px" y="0px"
	 viewBox="0 0 1024 1024" style="enable-background:new 0 0 1024 1024;" xml:space="preserve">
<style type="text/css">
	.st0{fill:#9DA7B2;}
	.st1{fill:none;stroke:#9DA7B2;stroke-width:72;stroke-linecap:round;stroke-linejoin:round;stroke-miterlimit:10;}
	.st2{fill:none;}
</style>
<path class="st0" d="M952,128H72c-39.6,0-72,32.4-72,72v624c0,39.6,32.4,72,72,72h880c39.6,0,72-32.4,72-72V200
	C1024,160.4,991.6,128,952,128z M670,824l-312,0V320h312V824z M72,823.9L72,320h214v504l-213.9,0C72.1,824,72,823.9,72,823.9z
	 M951.9,824H742V320h210l0,503.9C952,823.9,951.9,824,951.9,824z"/>
</svg>
