<?xml version="1.0" encoding="utf-8"?>
<!-- Generator: Adobe Illustrator 22.0.0, SVG Export Plug-In . SVG Version: 6.00 Build 0)  -->
<svg version="1.1" id="图层_1" xmlns="http://www.w3.org/2000/svg" xmlns:xlink="http://www.w3.org/1999/xlink" x="0px" y="0px"
	 viewBox="0 0 1024 1024" style="enable-background:new 0 0 1024 1024;" xml:space="preserve">
<style type="text/css">
	.st0{fill:#9DA7B2;}
	.st1{fill:none;stroke:#9DA7B2;stroke-width:72;stroke-linecap:round;stroke-linejoin:round;stroke-miterlimit:10;}
	.st2{fill:none;}
</style>
<path class="st0" d="M958.1,256c0-70.7-57.3-128-128-128s-128,57.3-128,128c0,58.3,39,107.5,92.4,123c-0.2,1.6-0.4,3.3-0.4,5v156
	H545.2V122.5l67.5,67c7,7,16.2,10.5,25.4,10.5c9.3,0,18.5-3.5,25.5-10.6c14-14.1,13.9-36.9-0.2-50.9l-128.8-128
	c-0.1-0.1-0.2-0.2-0.3-0.3c-0.2-0.2-0.3-0.3-0.5-0.5c-0.5-0.4-0.9-0.9-1.4-1.3c-0.1-0.1-0.2-0.2-0.3-0.3c-0.6-0.5-1.3-1-1.9-1.5
	c-0.1-0.1-0.2-0.1-0.2-0.2c-0.7-0.5-1.3-0.9-2-1.3c0,0,0,0-0.1,0c-2.3-1.4-4.8-2.5-7.3-3.3c0,0-0.1,0-0.1,0
	c-1.6-0.5-3.2-0.9-4.9-1.2c-0.2,0-0.3-0.1-0.5-0.1c-0.8-0.1-1.5-0.2-2.3-0.3c0,0-0.1,0-0.1,0C511.8,0.1,511,0,510.2,0
	c-0.2,0-0.4,0-0.6,0c-0.8,0-1.5,0-2.3,0c-0.1,0-0.1,0-0.2,0c-0.7,0-1.5,0.1-2.2,0.2c-0.2,0-0.3,0-0.5,0.1c-1.6,0.2-3.2,0.5-4.8,1
	c-0.1,0-0.1,0-0.2,0.1c-1.6,0.5-3.2,1-4.8,1.7c0,0-0.1,0-0.1,0c-1.5,0.7-3,1.5-4.5,2.4c-0.1,0-0.1,0.1-0.2,0.1c-1.4,0.9-2.7,1.9-4,3
	c-0.1,0.1-0.3,0.2-0.4,0.4c-0.6,0.5-1.2,1.1-1.8,1.7c0,0,0,0,0,0c0,0,0,0,0,0l-127.2,128c-14,14.1-13.9,36.9,0.2,50.9
	c14.1,14,36.9,13.9,50.9-0.2l65.6-66.1V668H226.1V512c0-1.7-0.1-3.4-0.4-5c53.3-15.4,92.4-64.6,92.4-123c0-70.7-57.3-128-128-128
	s-128,57.3-128,128c0,58.3,39,107.5,92.4,123c-0.2,1.6-0.4,3.3-0.4,5v192c0,19.9,16.1,36,36,36h283.2v33.4
	c-52.7,15.8-91.2,64.7-91.2,122.6c0,70.7,57.3,128,128,128s128-57.3,128-128c0-58.5-39.2-107.8-92.8-123.1v-61.2
	c0.5-2.5,0.8-5.1,0.8-7.7s-0.3-5.2-0.8-7.7V612h284.8c19.9,0,36-16.1,36-36V384c0-1.7-0.1-3.4-0.4-5
	C919,363.5,958.1,314.3,958.1,256z M134.1,384c0-30.9,25.1-56,56-56s56,25.1,56,56s-25.1,56-56,56S134.1,414.9,134.1,384z
	 M566.1,896c0,30.9-25.1,56-56,56s-56-25.1-56-56s25.1-56,56-56S566.1,865.1,566.1,896z M830.1,312c-30.9,0-56-25.1-56-56
	s25.1-56,56-56s56,25.1,56,56S860.9,312,830.1,312z"/>
</svg>
