<?xml version="1.0" encoding="utf-8"?>
<!-- Generator: Adobe Illustrator 22.0.0, SVG Export Plug-In . SVG Version: 6.00 Build 0)  -->
<svg version="1.1" id="图层_1" xmlns="http://www.w3.org/2000/svg" xmlns:xlink="http://www.w3.org/1999/xlink" x="0px" y="0px"
	 viewBox="0 0 1024 1024" style="enable-background:new 0 0 1024 1024;" xml:space="preserve">
<style type="text/css">
	.st0{fill:#9DA7B2;}
	.st1{fill:none;stroke:#9DA7B2;stroke-width:72;stroke-linecap:round;stroke-linejoin:round;stroke-miterlimit:10;}
	.st2{fill:none;}
</style>
<path class="st0" d="M136,90.4L136,90.4L136,90.4 M136.1,90.5L136.1,90.5L136.1,90.5 M440,90.5v176H136v-176H440 M440,18.5H136
	c-39.8,0-72,32.2-72,72v176c0,39.8,32.2,72,72,72h304c39.8,0,72-32.2,72-72v-176C512,50.7,479.8,18.5,440,18.5L440,18.5z M584,658.7
	L584,658.7L584,658.7 M584.1,658.8L584.1,658.8L584.1,658.8 M888,658.8v176H584v-176H888 M888,586.8H584c-39.8,0-72,32.2-72,72v176
	c0,39.8,32.2,72,72,72h304c39.8,0,72-32.2,72-72v-176C960,619,927.8,586.8,888,586.8L888,586.8z M823.8,455.7c0,12.1-0.7,24-2,35.7
	c-2.4,20.8,13.9,39.1,34.9,39.1h0c17.8,0,32.9-13.3,34.9-30.9c1.6-14.4,2.5-29,2.5-43.8c0-211.6-172.5-383.6-384.1-383
	c-21.1,0.1-41.7,1.8-61.9,5.2v71.4c20.4-4.2,41.4-6.3,63-6.3C683.7,143,823.8,283,823.8,455.7z M512,768.5c-0.3,0-0.7,0-1,0
	c-172.7,0-312.8-140-312.8-312.8c0-5.5,0.1-41.9,0.4-47.3c1-20.1-15-36.9-35.1-36.9h0c-18.7,0-34.1,14.7-35.1,33.4
	c-0.3,6.6-0.5,44.2-0.5,50.8c0,211.9,172,383.5,384,383c0,0,0,0,0,0V768.5z M448,401.5L448,401.5c0-19.9-16.1-36-36-36H164
	c-19.9,0-36,16.1-36,36v0c0,19.9,16.1,36,36,36h248C431.9,437.5,448,421.4,448,401.5z M896,969.5L896,969.5c0-19.9-16.1-36-36-36
	H612c-19.9,0-36,16.1-36,36v0c0,19.9,16.1,36,36,36h248C879.9,1005.5,896,989.4,896,969.5z"/>
</svg>
