<?xml version="1.0" encoding="utf-8"?>
<!-- Generator: Adobe Illustrator 22.0.0, SVG Export Plug-In . SVG Version: 6.00 Build 0)  -->
<svg version="1.1" id="图层_1" xmlns="http://www.w3.org/2000/svg" xmlns:xlink="http://www.w3.org/1999/xlink" x="0px" y="0px"
	 viewBox="0 0 1024 1024" style="enable-background:new 0 0 1024 1024;" xml:space="preserve">
<style type="text/css">
	.st0{fill:#9DA7B2;}
	.st1{fill:none;stroke:#9DA7B2;stroke-width:72;stroke-linecap:round;stroke-linejoin:round;stroke-miterlimit:10;}
	.st2{fill:none;}
</style>
<path class="st0" d="M72.2,202L72.2,202L72.2,202 M72,202L72,202L72,202 M951.9,202.1c0,0,0.1,0.1,0.1,0.1l0,621.7
	c0,0-0.1,0.1-0.1,0.1l-879.7,0c0,0-0.1-0.1-0.1-0.1l0-621.7c0,0,0.1-0.1,0.1-0.1H951.9 M952,130.1H72c-39.6,0-72,32.4-72,72V824
	c0,39.6,32.4,72,72,72h880c39.6,0,72-32.4,72-72V202.1C1024,162.5,991.6,130.1,952,130.1L952,130.1z M880.5,731.4
	c15.2-9.1,20.1-28.7,11-43.9l-192-320c-5.5-9.1-15.2-14.9-25.8-15.5c-10.6-0.6-20.9,4.2-27.2,12.8L468.2,602.3l-170.1-56.7
	c-11.5-3.8-24.2-0.8-32.7,7.7l-128,128c-12.5,12.5-12.5,32.8,0,45.3c12.5,12.5,32.8,12.5,45.3,0l114-114l173.2,57.7
	c13.1,4.4,27.5-0.1,35.7-11.2L669,441.3l167.5,279.2c6,10,16.6,15.5,27.5,15.5C869.6,736,875.3,734.5,880.5,731.4z M256,320
	c-53,0-96,43-96,96s43,96,96,96s96-43,96-96S309,320,256,320z M256,448c-17.7,0-32-14.3-32-32s14.3-32,32-32c17.7,0,32,14.3,32,32
	S273.7,448,256,448z"/>
</svg>
