<?xml version="1.0" encoding="utf-8"?>
<!-- Generator: Adobe Illustrator 22.0.0, SVG Export Plug-In . SVG Version: 6.00 Build 0)  -->
<svg version="1.1" id="图层_1" xmlns="http://www.w3.org/2000/svg" xmlns:xlink="http://www.w3.org/1999/xlink" x="0px" y="0px"
	 viewBox="0 0 1024 1024" style="enable-background:new 0 0 1024 1024;" xml:space="preserve">
<style type="text/css">
	.st0{fill:#9DA7B2;}
	.st1{fill:none;stroke:#9DA7B2;stroke-width:72;stroke-linecap:round;stroke-linejoin:round;stroke-miterlimit:10;}
	.st2{fill:none;}
</style>
<path class="st0" d="M386.4,192c18.6,0,37,3,54.6,9c38.3,12.9,71.7,39,99.2,77.3c14,19.5,36,30,58.6,30c12,0,24.2-3,35.3-9.3
	c17.8-10.1,37.3-15.4,56.4-15.4c17.3,0,33.5,4.2,48.3,12.5c14.1,7.9,26.5,20.3,34.9,34.9c10.6,18.5,15.3,40.6,13.9,65.7
	c-1.8,33.2,19.3,63.3,51.1,72.9c39,11.7,68.7,33.3,88.2,64c16.9,26.7,25,58.8,22.7,90.5c-2.5,34.6-17.6,68.3-41.6,92.4
	c-13.1,13.2-28.9,23.6-46.7,30.8c-20.7,8.4-44.5,12.7-70.7,12.7c-218.1,0-579.5-1.2-594.8-1.2l-0.2,0c-0.1,0-0.1,0-0.2,0
	c-14.9,0-29.4-2.7-43.1-8.1c-13.5-5.3-25.9-13-36.9-22.9c-23.1-20.8-38.6-50.1-43.5-82.7c-2.5-16.5-4-49.5,14.3-84.9
	c17.2-33.4,47.3-59.9,89.5-78.8c31.5-14.1,48.5-48.6,40.6-82.2c-5-21.1-6-42-3.2-62c2.6-18.5,8.5-36.4,17.6-53.1
	c17.6-32.4,46.1-59,80.4-75.1C335.1,197.7,360.5,192,386.4,192 M386.4,120c-36.1,0-72.2,8-106,23.9
	C186.9,187.7,117.1,292,146.2,415.7C21.4,471.7-11.2,577,0.7,655.9C16.1,757.3,98,830.8,195.5,830.8c6.7,0,373,1.2,595.2,1.2
	c148.5,0,223.8-105.1,230.8-202.7c6.4-89.2-42.3-192.6-161.9-228.6c4.6-84.5-38.5-141-85.5-167.4c-26-14.6-54.7-21.7-83.5-21.7
	c-31.4,0-63,8.4-91.8,24.7c-36.1-50.4-82-85.8-134.7-103.6C438.8,124.2,412.6,120,386.4,120L386.4,120z"/>
</svg>
