<?xml version="1.0" encoding="utf-8"?>
<!-- Generator: Adobe Illustrator 22.0.0, SVG Export Plug-In . SVG Version: 6.00 Build 0)  -->
<svg version="1.1" id="图层_1" xmlns="http://www.w3.org/2000/svg" xmlns:xlink="http://www.w3.org/1999/xlink" x="0px" y="0px"
	 viewBox="0 0 1024 1024" style="enable-background:new 0 0 1024 1024;" xml:space="preserve">
<style type="text/css">
	.st0{fill:#9DA7B2;}
	.st1{fill:none;stroke:#9DA7B2;stroke-width:72;stroke-linecap:round;stroke-linejoin:round;stroke-miterlimit:10;}
	.st2{fill:none;}
</style>
<path class="st0" d="M400,64H141.5C98.7,64,64,98.7,64,141.5V400c0,42.8,34.7,77.5,77.5,77.5H400c42.8,0,77.5-34.7,77.5-77.5V141.5
	C477.5,98.7,442.8,64,400,64z M405.5,400c0,3.1-2.5,5.5-5.5,5.5H141.5c-3.1,0-5.5-2.5-5.5-5.5V141.5c0-3.1,2.5-5.5,5.5-5.5H400
	c3.1,0,5.5,2.5,5.5,5.5V400z M330.8,270.8c0,33.1-26.9,60-60,60s-60-26.9-60-60s26.9-60,60-60S330.8,237.6,330.8,270.8z M882.5,64
	H624c-42.8,0-77.5,34.7-77.5,77.5V400c0,42.8,34.7,77.5,77.5,77.5h258.5c42.8,0,77.5-34.7,77.5-77.5V141.5
	C960,98.7,925.3,64,882.5,64z M888,400c0,3.1-2.5,5.5-5.5,5.5H624c-3.1,0-5.5-2.5-5.5-5.5V141.5c0-3.1,2.5-5.5,5.5-5.5h258.5
	c3.1,0,5.5,2.5,5.5,5.5V400z M813.2,270.8c0,33.1-26.9,60-60,60s-60-26.9-60-60s26.9-60,60-60S813.2,237.6,813.2,270.8z M400,546.5
	H141.5C98.7,546.5,64,581.2,64,624v258.5c0,42.8,34.7,77.5,77.5,77.5H400c42.8,0,77.5-34.7,77.5-77.5V624
	C477.5,581.2,442.8,546.5,400,546.5z M405.5,882.5c0,3.1-2.5,5.5-5.5,5.5H141.5c-3.1,0-5.5-2.5-5.5-5.5V624c0-3.1,2.5-5.5,5.5-5.5
	H400c3.1,0,5.5,2.5,5.5,5.5V882.5z M330.8,753.2c0,33.1-26.9,60-60,60s-60-26.9-60-60s26.9-60,60-60S330.8,720.1,330.8,753.2z
	 M602,960c-0.1,0-0.2,0-0.2,0c-19.9-0.1-35.9-16.3-35.8-36.2l2-320c0.1-19.8,16.2-35.8,36-35.8h128c19.9,0,36,16.1,36,36v156h120
	V604c0-19.9,16.1-36,36-36s36,16.1,36,36v192c0,19.9-16.1,36-36,36H732c-19.9,0-36-16.1-36-36V640h-56.2L638,924.2
	C637.9,944,621.8,960,602,960z M922,960H730c-19.9,0-36-16.1-36-36s16.1-36,36-36h192c19.9,0,36,16.1,36,36S941.9,960,922,960z"/>
</svg>
