<?xml version="1.0" encoding="utf-8"?>
<!-- Generator: Adobe Illustrator 22.0.0, SVG Export Plug-In . SVG Version: 6.00 Build 0)  -->
<svg version="1.1" id="图层_1" xmlns="http://www.w3.org/2000/svg" xmlns:xlink="http://www.w3.org/1999/xlink" x="0px" y="0px"
	 viewBox="0 0 1024 1024" style="enable-background:new 0 0 1024 1024;" xml:space="preserve">
<style type="text/css">
	.st0{fill:#9DA7B2;}
	.st1{fill:none;stroke:#9DA7B2;stroke-width:72;stroke-linecap:round;stroke-linejoin:round;stroke-miterlimit:10;}
	.st2{fill:none;}
</style>
<path class="st0" d="M860,228H348c-19.9,0-36-16.1-36-36s16.1-36,36-36h512c19.9,0,36,16.1,36,36S879.9,228,860,228z M896,512
	c0-19.9-16.1-36-36-36H348c-19.9,0-36,16.1-36,36s16.1,36,36,36h512C879.9,548,896,531.9,896,512z M896,832c0-19.9-16.1-36-36-36
	H348c-19.9,0-36,16.1-36,36s16.1,36,36,36h512C879.9,868,896,851.9,896,832z M149.6,177.5c9.3-4,18.3-8.5,27-13.5v116.2
	c0,8.5,6.9,15.4,15.4,15.4h14.3c8.5,0,15.4-6.9,15.4-15.4V143.4c0-8.5-6.9-15.4-15.4-15.4h-21.9c-2.8,0-5.5,0.7-7.8,2.1
	c-12.3,7.4-25.2,13.7-38.7,18.9c-5.9,2.3-9.9,8-9.9,14.4v0C128,174.5,139.4,181.9,149.6,177.5z M151.4,576h92.3
	c6.8,0,12.3-5.5,12.3-12.3l0,0c0-6.8-5.5-12.3-12.3-12.3h-76.1c7.4-7.6,16.9-15.5,28.4-23.7c39.3-30.9,58.9-56.2,58.9-75.8
	c-2-29.7-22.7-45.5-62-47.3c-33.9,1.6-53.9,13.1-60,34.6c-2.2,7.8,3.7,15.6,11.9,15.6h15.5c5.5,0,10.2-3.6,11.8-8.9
	c3.1-10.1,10-15.7,20.7-16.7c13.5,1.3,21,8.5,22.3,21.8c0.7,13.3-21.3,37.6-66,72.9c-5.2,4.3-9.6,7.9-13,10.8
	c-5.3,4.4-8.3,11-8.3,17.9v0C128,565.5,138.5,576,151.4,576z M129.6,863c5.6,22,25.9,33,60.9,33c39.5-2.5,61.4-17,65.6-43.6
	c-0.7-23.3-12.8-38.5-36.4-45.5c22.2-5,34-18.9,35.4-41.7c-2.8-24.6-23.6-38.8-62.4-42.6c-32.2,1-52,11.3-59.3,30.9
	c-3,7.9,3,16.4,11.4,16.4H161c5,0,9.6-3,11.4-7.8c3.1-8.5,9.8-13.5,20.1-15c14.6,0.6,22.2,8.2,22.9,22.7c0,15.3-11.2,24-33.7,26.1
	c-6.3,0.6-11,5.8-11,12.1v0.2c0,6.4,4.9,11.6,11.3,12.1c21.7,1.8,32.8,10.8,33.4,27.2c-1.4,16.4-9.4,24.9-23.9,25.6
	c-11.5-1-18.7-6.5-21.5-16.5c-1.5-5.3-6.2-9.1-11.8-9.1h-16.8C133.4,847.7,127.6,855.2,129.6,863z"/>
</svg>
