<?xml version="1.0" encoding="utf-8"?>
<!-- Generator: Adobe Illustrator 22.0.0, SVG Export Plug-In . SVG Version: 6.00 Build 0)  -->
<svg version="1.1" id="图层_1" xmlns="http://www.w3.org/2000/svg" xmlns:xlink="http://www.w3.org/1999/xlink" x="0px" y="0px"
	 viewBox="0 0 1024 1024" style="enable-background:new 0 0 1024 1024;" xml:space="preserve">
<style type="text/css">
	.st0{fill:#9DA7B2;}
	.st1{fill:none;stroke:#9DA7B2;stroke-width:72;stroke-linecap:round;stroke-linejoin:round;stroke-miterlimit:10;}
	.st2{fill:none;}
</style>
<path class="st0" d="M62.1,164c0-19.9,16.1-36,36-36h824c19.9,0,36,16.1,36,36s-16.1,36-36,36h-824C78.2,200,62.1,183.9,62.1,164z
	 M98.1,896h824c19.9,0,36-16.1,36-36s-16.1-36-36-36h-824c-19.9,0-36,16.1-36,36S78.2,896,98.1,896z M822.1,392h-624v240h624V392
	 M832.3,320c34.1,0,61.7,27.6,61.7,61.7v260.6c0,34.1-27.6,61.7-61.7,61.7H187.8c-34.1,0-61.7-27.6-61.7-61.7V381.7
	c0-34.1,27.6-61.7,61.7-61.7H832.3L832.3,320z"/>
</svg>
