<?xml version="1.0" encoding="utf-8"?>
<!-- Generator: Adobe Illustrator 22.0.0, SVG Export Plug-In . SVG Version: 6.00 Build 0)  -->
<svg version="1.1" id="图层_1" xmlns="http://www.w3.org/2000/svg" xmlns:xlink="http://www.w3.org/1999/xlink" x="0px" y="0px"
	 viewBox="0 0 1024 1024" style="enable-background:new 0 0 1024 1024;" xml:space="preserve">
<style type="text/css">
	.st0{fill:#9DA7B2;}
	.st1{fill:none;stroke:#9DA7B2;stroke-width:72;stroke-linecap:round;stroke-linejoin:round;stroke-miterlimit:10;}
	.st2{fill:none;}
</style>
<path class="st0" d="M1005.1,288.3c-11.7-6.3-25.8-5.6-36.9,1.7l-138.1,91.2V200c0-39.8-32.2-72-72-72H72c-39.8,0-72,32.2-72,72v624
	c0,39.8,32.2,72,72,72h686.1c39.8,0,72-32.2,72-72V642.6l138.2,90.5c6,3.9,12.8,5.9,19.7,5.9c5.9,0,11.8-1.4,17.1-4.3
	c11.6-6.3,18.9-18.4,18.9-31.7V320C1024,306.8,1016.7,294.6,1005.1,288.3z M72,824V200h686.1v247.6c0,0.1,0,0.1,0,0.2v128.7
	c0,0,0,0,0,0V824H72z M952,636.4l-121.9-79.9v-89.2L952,386.9V636.4z"/>
</svg>
