<?xml version="1.0" encoding="utf-8"?>
<!-- Generator: Adobe Illustrator 22.0.0, SVG Export Plug-In . SVG Version: 6.00 Build 0)  -->
<svg version="1.1" id="图层_1" xmlns="http://www.w3.org/2000/svg" xmlns:xlink="http://www.w3.org/1999/xlink" x="0px" y="0px"
	 viewBox="0 0 1024 1024" style="enable-background:new 0 0 1024 1024;" xml:space="preserve">
<style type="text/css">
	.st0{fill:#9DA7B2;}
	.st1{fill:none;stroke:#9DA7B2;stroke-width:72;stroke-linecap:round;stroke-linejoin:round;stroke-miterlimit:10;}
	.st2{fill:none;}
</style>
<path class="st0" d="M727.5,317.5c-14.1,14.1-36.9,14.1-50.9,0L546.1,186.9V676c0,19.9-16.1,36-36,36s-36-16.1-36-36V186
	L342.9,315.1c-14.2,14-37,13.8-50.9-0.4c-13.9-14.2-13.8-37,0.4-50.9L484.8,74.3c0.1-0.1,0.3-0.3,0.4-0.4c0.3-0.2,0.5-0.5,0.8-0.7
	c0.2-0.2,0.4-0.4,0.6-0.5c0.2-0.2,0.5-0.4,0.7-0.6c0.2-0.2,0.5-0.4,0.7-0.6c0.2-0.2,0.4-0.3,0.6-0.5c0.3-0.2,0.5-0.4,0.8-0.6
	c0.2-0.1,0.4-0.3,0.6-0.4c0.3-0.2,0.6-0.4,0.9-0.6c0.2-0.1,0.4-0.3,0.6-0.4c0.3-0.2,0.6-0.3,0.9-0.5c0.2-0.1,0.4-0.2,0.6-0.4
	c0.3-0.2,0.6-0.3,0.9-0.4c0.2-0.1,0.5-0.2,0.7-0.4c0.3-0.1,0.5-0.2,0.8-0.4c0.3-0.1,0.5-0.2,0.8-0.3c0.2-0.1,0.5-0.2,0.7-0.3
	c0.3-0.1,0.6-0.2,0.9-0.3c0.2-0.1,0.5-0.2,0.7-0.2c0.3-0.1,0.7-0.2,1-0.3c0.2-0.1,0.4-0.1,0.6-0.2c0.4-0.1,0.7-0.2,1.1-0.3
	c0.2,0,0.4-0.1,0.6-0.1c0.4-0.1,0.7-0.2,1.1-0.2c0.2,0,0.4-0.1,0.6-0.1c0.4-0.1,0.7-0.1,1.1-0.2c0.2,0,0.5-0.1,0.7-0.1
	c0.3,0,0.7-0.1,1-0.1c0.3,0,0.6,0,0.9-0.1c0.3,0,0.5,0,0.8-0.1c0.6,0,1.2,0,1.8,0c0,0,0,0,0,0s0,0,0,0c0,0,0,0,0,0
	c0.6,0,1.2,0,1.8,0c0.3,0,0.6,0,0.9,0.1c0.3,0,0.6,0,0.9,0.1c0.4,0,0.7,0.1,1.1,0.1c0.2,0,0.4,0.1,0.7,0.1c0.4,0.1,0.8,0.1,1.2,0.2
	c0.2,0,0.4,0.1,0.6,0.1c0.4,0.1,0.8,0.2,1.2,0.3c0.2,0,0.4,0.1,0.5,0.1c0.4,0.1,0.7,0.2,1.1,0.3c0.2,0.1,0.4,0.1,0.6,0.2
	c0.3,0.1,0.7,0.2,1,0.3c0.2,0.1,0.4,0.1,0.7,0.2c0.3,0.1,0.6,0.2,0.9,0.3c0.3,0.1,0.5,0.2,0.7,0.3c0.3,0.1,0.5,0.2,0.8,0.3
	c0.3,0.1,0.6,0.2,0.8,0.4c0.2,0.1,0.5,0.2,0.7,0.3c0.3,0.2,0.6,0.3,0.9,0.5c0.2,0.1,0.4,0.2,0.6,0.3c0.3,0.2,0.6,0.4,1,0.6
	c0.2,0.1,0.3,0.2,0.5,0.3c0.3,0.2,0.6,0.4,1,0.6c0.2,0.1,0.3,0.2,0.5,0.4c0.3,0.2,0.6,0.4,0.9,0.7c0.2,0.1,0.4,0.3,0.6,0.4
	c0.3,0.2,0.6,0.4,0.8,0.6c0.2,0.2,0.5,0.4,0.7,0.6c0.2,0.2,0.4,0.4,0.6,0.5c0.4,0.4,0.9,0.8,1.3,1.2l192,192
	C741.6,280.6,741.6,303.4,727.5,317.5z M886.1,612l0,275.9c-0.1,0.1-0.1,0.1-0.1,0.1l-751.7,0c-0.1-0.1-0.1-0.1-0.1-0.1l0-275.9
	c0-19.9-16.1-36-36-36h0c-19.9,0-36,16.1-36,36v276c0,39.6,32.4,72,72,72h752c39.6,0,72-32.4,72-72V612c0-19.9-16.1-36-36-36h0
	C902.2,576,886.1,592.1,886.1,612z"/>
</svg>
