<?xml version="1.0" encoding="utf-8"?>
<!-- Generator: Adobe Illustrator 22.0.0, SVG Export Plug-In . SVG Version: 6.00 Build 0)  -->
<svg version="1.1" id="图层_1" xmlns="http://www.w3.org/2000/svg" xmlns:xlink="http://www.w3.org/1999/xlink" x="0px" y="0px"
	 viewBox="0 0 1024 1024" style="enable-background:new 0 0 1024 1024;" xml:space="preserve">
<style type="text/css">
	.st0{fill:#9DA7B2;}
	.st1{fill:none;stroke:#9DA7B2;stroke-width:72;stroke-linecap:round;stroke-linejoin:round;stroke-miterlimit:10;}
	.st2{fill:none;}
</style>
<path class="st0" d="M641.9,455.3h-73.8L698.2,96h91.3l126.2,359.3h-77.7l-27.2-75.7H669.1L641.9,455.3z M688.5,319.4h102.9
	l-48.6-153.4H741L688.5,319.4z M604,928v-60.2l178.7-238.9h-167v-60.2h260.3v60.2L699.2,867.8h180.6V928H604z M315,114.1
	c-0.3,0.3-0.5,0.9-0.5,1.4v689.6L183.9,674.5c-14.1-14.1-36.9-14.1-50.9,0c-14.1,14.1-14.1,36.9,0,50.9L331.5,924
	c0.2,0.2,0.5,0.4,0.8,0.6c29.8,12,54.1-8.3,54.1-32.5V132C386.5,100.8,346.7,78.8,315,114.1z"/>
</svg>
