<?xml version="1.0" encoding="utf-8"?>
<!-- Generator: Adobe Illustrator 22.0.0, SVG Export Plug-In . SVG Version: 6.00 Build 0)  -->
<svg version="1.1" id="图层_1" xmlns="http://www.w3.org/2000/svg" xmlns:xlink="http://www.w3.org/1999/xlink" x="0px" y="0px"
	 viewBox="0 0 1024 1024" style="enable-background:new 0 0 1024 1024;" xml:space="preserve">
<style type="text/css">
	.st0{fill:#9DA7B2;}
	.st1{fill:none;stroke:#9DA7B2;stroke-width:72;stroke-linecap:round;stroke-linejoin:round;stroke-miterlimit:10;}
</style>
<path class="st0" d="M932.7,534.5c19-23.6,29.6-52.9,29.6-83.4c0-23.5-6.7-46.8-19.3-67.3c-11.7-19.1-28.4-35.4-48.2-47.1
	c-11.1-6.6-23.8-10.1-36.7-10.1H581.7l7-139.4c1.9-37.3-15.3-72.8-46-95.1c-18.9-13.7-41.7-20.9-65.8-20.9c-0.1,0-0.2,0-0.4,0
	c-26.3,0.1-51.2,8.4-72.3,24c-21.2,15.7-36.7,38.2-43.9,63.2h0l-98.1,344.1c-5.4-1.3-11-2-16.7-2H134.1c-39.8,0-72,32.2-72,72v308
	c0,39.8,32.2,72,72,72h111.4c13.3,0,25.7-3.6,36.4-9.9c10.6,6.2,23,9.8,36.2,9.8h465.1c9.9,0,19.7-2.1,28.8-6
	c49.1-21.4,80.8-69.4,80.8-122.2c0-14.2-2.2-27.9-6.4-41c19-23.5,29.6-52.8,29.6-83.4c0-14.2-2.2-27.9-6.4-41
	c19-23.5,29.6-52.8,29.6-83.4C939.2,561.3,937,547.6,932.7,534.5z M245.4,880.6H134.1v-308h111.4V880.6z M868.4,497.8l-24.5,20.6
	l15.6,27.5c5.2,9.1,7.7,19.1,7.7,29.6c0,17.9-8.1,34.9-22,46.6l-24.5,20.6l15.6,27.5c5.2,9.1,7.7,19.1,7.7,29.6
	c0,17.9-8.1,34.9-22,46.6l-24.5,20.6l15.6,27.5c5.2,9.1,7.7,19.1,7.7,29.6c0,24.3-14.8,46.2-37.6,56.2H318.1V569.1l111.4-390.9
	c5.8-20.5,25.2-34.9,47.3-35c8.5,0,16.9,2.4,23.6,7.3c11.1,8,17,20.2,16.4,33.1L506,398.7h352.1c19.9,11.8,32.3,31.8,32.3,52.5
	C890.4,469,882.3,485.9,868.4,497.8z"/>
</svg>
