<?xml version="1.0" encoding="utf-8"?>
<!-- Generator: Adobe Illustrator 22.0.0, SVG Export Plug-In . SVG Version: 6.00 Build 0)  -->
<svg version="1.1" id="图层_1" xmlns="http://www.w3.org/2000/svg" xmlns:xlink="http://www.w3.org/1999/xlink" x="0px" y="0px"
	 viewBox="0 0 1024 1024" style="enable-background:new 0 0 1024 1024;" xml:space="preserve">
<style type="text/css">
	.st0{fill:#9DA7B2;}
	.st1{fill:none;stroke:#9DA7B2;stroke-width:72;stroke-linecap:round;stroke-linejoin:round;stroke-miterlimit:10;}
	.st2{fill:none;}
</style>
<path class="st0" d="M993.8,962L790.7,758.9c77.4-80.5,125-189.9,125-310.4c0-247.4-200.6-448-448-448s-448,200.6-448,448
	s200.6,448,448,448c101,0,194.1-33.4,269-89.8l206.1,206.1c14.1,14.1,36.9,14.1,50.9,0v0C1007.8,998.8,1007.8,976,993.8,962z
	 M90.4,448.5c0-208.4,168.9-377.3,377.3-377.3S845,240.2,845,448.5S676,825.8,467.7,825.8S90.4,656.9,90.4,448.5z M723.7,453.2
	c0,19.9-16.1,36-36,36h-184v184c0,19.9-16.1,36-36,36s-36-16.1-36-36v-184h-184c-19.9,0-36-16.1-36-36c0-19.9,16.1-36,36-36h184
	v-184c0-19.9,16.1-36,36-36s36,16.1,36,36v184h184C707.6,417.2,723.7,433.3,723.7,453.2z"/>
</svg>
