<?xml version="1.0" encoding="utf-8"?>
<!-- Generator: Adobe Illustrator 22.0.0, SVG Export Plug-In . SVG Version: 6.00 Build 0)  -->
<svg version="1.1" id="图层_1" xmlns="http://www.w3.org/2000/svg" xmlns:xlink="http://www.w3.org/1999/xlink" x="0px" y="0px"
	 viewBox="0 0 1024 1024" style="enable-background:new 0 0 1024 1024;" xml:space="preserve">
<style type="text/css">
	.st0{fill:#9DA7B2;}
	.st1{fill:none;stroke:#9DA7B2;stroke-width:72;stroke-linecap:round;stroke-linejoin:round;stroke-miterlimit:10;}
	.st2{fill:none;}
</style>
<path class="st0" d="M584,128v768L202,704H72V320h130L584,128 M584,56c-11.1,0-22.1,2.5-32.3,7.7L184.9,248H72
	c-39.8,0-72,32.2-72,72v384c0,39.8,32.2,72,72,72h112.9l366.7,184.3c10.2,5.1,21.3,7.7,32.3,7.7c13.1,0,26.2-3.6,37.8-10.7
	C643.1,944.2,656,921,656,896V128c0-25-12.9-48.2-34.2-61.3C610.2,59.6,597.1,56,584,56L584,56z M706,95.2L706,95.2
	c0,13,7,25.1,18.4,31.4c36.1,19.9,69.2,44.8,98.7,74.3c40.4,40.4,72.2,87.5,94.3,139.9C940.4,395,952,452.6,952,512
	s-11.6,117-34.5,171.2c-22.2,52.4-53.9,99.4-94.3,139.9c-29.5,29.5-62.6,54.4-98.7,74.3c-11.4,6.3-18.4,18.4-18.4,31.4v0
	c0,27.4,29.4,44.8,53.4,31.5C917.2,873.1,1024,705,1024,512S917.2,150.9,759.4,63.7C735.4,50.4,706,67.7,706,95.2z M2,466.5
	c-1.3,15-2,30.2-2,45.5s0.7,30.5,2,45.5V466.5z M706,250.8L706,250.8c0,10.3,4.5,20.2,12.2,27c4.9,4.3,9.7,8.8,14.4,13.5
	c28.7,28.7,51.2,62.1,66.9,99.2C815.8,429,824,469.8,824,512s-8.2,83-24.5,121.4c-15.7,37.1-38.2,70.5-66.9,99.2
	c-4.7,4.7-9.5,9.2-14.4,13.5c-7.8,6.8-12.2,16.7-12.2,27v0c0,30.9,36.5,47.6,59.6,27.2C845.6,729.9,896,626.9,896,512
	s-50.4-217.9-130.4-288.3C742.5,203.3,706,220,706,250.8z"/>
</svg>
