<?xml version="1.0" encoding="utf-8"?>
<!-- Generator: Adobe Illustrator 22.0.0, SVG Export Plug-In . SVG Version: 6.00 Build 0)  -->
<svg version="1.1" id="图层_1" xmlns="http://www.w3.org/2000/svg" xmlns:xlink="http://www.w3.org/1999/xlink" x="0px" y="0px"
	 viewBox="0 0 1024 1024" style="enable-background:new 0 0 1024 1024;" xml:space="preserve">
<style type="text/css">
	.st0{fill:#9DA7B2;}
	.st1{fill:none;stroke:#9DA7B2;stroke-width:72;stroke-linecap:round;stroke-linejoin:round;stroke-miterlimit:10;}
	.st2{fill:none;}
</style>
<path class="st0" d="M831.7,674.1c-70.7-23.7-146.3,4.7-185.1,64.5l-187-62.7c16.7-57.5,5.2-117.1-26.9-163.2l202.9-179.2
	c10.7,6.7,22.3,12.3,34.8,16.5c83.8,28.1,174.5-17,202.6-100.8S856,74.7,772.2,46.6s-174.5,17-202.6,100.8
	c-15.7,46.8-8.5,95.7,15.4,134.7L381.1,462.2c-13.6-9-28.6-16.4-44.8-21.8c-100.5-33.7-209.4,20.4-243.1,121s20.4,209.4,121,243.1
	c79.3,26.6,163.7-1.4,212.4-63.8L622,806.2c-9.2,74,34.6,146.6,107.9,171.2c83.8,28.1,174.5-17,202.6-100.8
	C960.6,792.9,915.5,702.2,831.7,674.1z M749.3,114.8c46,15.4,70.9,65.4,55.4,111.4c-15.4,46-65.4,70.9-111.4,55.4
	s-70.9-65.4-55.4-111.4S703.3,99.4,749.3,114.8z M328.7,729.8c-28.7,14.3-61.2,16.5-91.6,6.3s-55-31.6-69.3-60.3
	c-14.3-28.7-16.5-61.2-6.3-91.6c10.2-30.4,31.6-55,60.3-69.3c28.7-14.3,61.2-16.5,91.6-6.3c30.4,10.2,55,31.6,69.3,60.3
	c14.3,28.7,16.5,61.2,6.3,91.6C378.8,690.9,357.4,715.5,328.7,729.8z M752.8,909.2c-46-15.4-70.9-65.4-55.4-111.4
	c15.4-46,65.4-70.9,111.4-55.4c46,15.4,70.9,65.4,55.4,111.4C848.8,899.8,798.8,924.6,752.8,909.2z"/>
</svg>
