<?xml version="1.0" encoding="utf-8"?>
<!-- Generator: Adobe Illustrator 22.0.0, SVG Export Plug-In . SVG Version: 6.00 Build 0)  -->
<svg version="1.1" id="图层_1" xmlns="http://www.w3.org/2000/svg" xmlns:xlink="http://www.w3.org/1999/xlink" x="0px" y="0px"
	 viewBox="0 0 1024 1024" style="enable-background:new 0 0 1024 1024;" xml:space="preserve">
<style type="text/css">
	.st0{fill:#9DA7B2;}
	.st1{fill:none;stroke:#9DA7B2;stroke-width:72;stroke-linecap:round;stroke-linejoin:round;stroke-miterlimit:10;}
	.st2{fill:none;}
</style>
<path class="st0" d="M278.1,504c0,39.8-32.2,72-72,72s-72-32.2-72-72s32.2-72,72-72S278.1,464.2,278.1,504z M526.1,432
	c-39.8,0-72,32.2-72,72s32.2,72,72,72s72-32.2,72-72S565.8,432,526.1,432z M830.1,432c-39.8,0-72,32.2-72,72s32.2,72,72,72
	c39.8,0,72-32.2,72-72S869.8,432,830.1,432z"/>
</svg>
