<?xml version="1.0" encoding="utf-8"?>
<!-- Generator: Adobe Illustrator 22.0.0, SVG Export Plug-In . SVG Version: 6.00 Build 0)  -->
<svg version="1.1" id="图层_1" xmlns="http://www.w3.org/2000/svg" xmlns:xlink="http://www.w3.org/1999/xlink" x="0px" y="0px"
	 viewBox="0 0 1024 1024" style="enable-background:new 0 0 1024 1024;" xml:space="preserve">
<style type="text/css">
	.st0{fill:#9DA7B2;}
	.st1{fill:none;stroke:#9DA7B2;stroke-width:72;stroke-linecap:round;stroke-linejoin:round;stroke-miterlimit:10;}
	.st2{fill:none;}
</style>
<path class="st0" d="M646.2,68.6L646.2,68.6c0-25.3,25.3-42.6,49-33.6c136.5,52,245,160.7,296.7,297.4c8.9,23.6-8.4,48.9-33.6,48.9
	h0c-15,0-28.4-9.3-33.7-23.3c-44.4-117.5-137.7-211-255.1-255.7C655.5,97,646.2,83.6,646.2,68.6z M1024.7,513.2
	c0,310.8-277.2,556.9-597.8,504.5C229.9,985.5,41,796.6,8.8,599.5C-43.6,278.9,202.4,1.7,513.2,1.7c0.1,0,0.2,0,0.4,0
	c19.7,0,35.7,16.2,35.6,35.9l0,2.3v437.3c0,0.1,0.1,0.2,0.2,0.2l210.9,0.5v0.5h229.5C1009,478.3,1024.7,494,1024.7,513.2
	L1024.7,513.2z M951.2,550.3l-438.1-1.1c-19.8,0-35.9-16.2-35.9-36V75.2C251.3,93.5,73.7,282.6,73.7,513.2
	c0,242.7,196.8,439.5,439.5,439.5C743.5,952.7,932.4,775.7,951.2,550.3z"/>
</svg>
