<?xml version="1.0" encoding="utf-8"?>
<!-- Generator: Adobe Illustrator 21.0.2, SVG Export Plug-In . SVG Version: 6.00 Build 0)  -->
<svg version="1.1" id="图层_1" xmlns="http://www.w3.org/2000/svg" xmlns:xlink="http://www.w3.org/1999/xlink" x="0px" y="0px"
	 viewBox="0 0 1024 1024" style="enable-background:new 0 0 1024 1024;" xml:space="preserve">
<style type="text/css">
	.st0{fill:#9DA7B2;}
	.st1{fill:#9EA6B0;}
</style>
<path class="st0" d="M832,128H320c-35.3,0-64,30.9-64,68.9v758.2c0,38.1,28.7,68.9,64,68.9h284h72h28l192-206.8V196.9
	C896,158.9,867.3,128,832,128z M328,952V200h496v532H640c-19.9,0-36,16.1-36,36v184H328z M676,948.3V804h134L676,948.3z M736,68H224
	c-15.4,0-28,12.6-28,28v764c0,19.9-16.1,36-36,36s-36-16.1-36-36V96C124,40.9,168.9-4,224-4h512c19.9,0,36,16.1,36,36
	S755.9,68,736,68z M384,412c0-19.9,16.1-36,36-36h312c19.9,0,36,16.1,36,36s-16.1,36-36,36H420C400.1,448,384,431.9,384,412z
	 M604,640H420c-19.9,0-36-16.1-36-36s16.1-36,36-36h184c19.9,0,36,16.1,36,36S623.9,640,604,640z"/>
</svg>
