<?xml version="1.0" encoding="utf-8"?>
<!-- Generator: Adobe Illustrator 22.0.0, SVG Export Plug-In . SVG Version: 6.00 Build 0)  -->
<svg version="1.1" id="图层_1" xmlns="http://www.w3.org/2000/svg" xmlns:xlink="http://www.w3.org/1999/xlink" x="0px" y="0px"
	 viewBox="0 0 1024 1024" style="enable-background:new 0 0 1024 1024;" xml:space="preserve">
<style type="text/css">
	.st0{fill:#9DA7B2;}
	.st1{fill:none;stroke:#9DA7B2;stroke-width:72;stroke-linecap:round;stroke-linejoin:round;stroke-miterlimit:10;}
	.st2{fill:none;}
</style>
<path class="st0" d="M729.5,509.5l-192,192c-0.4,0.4-0.9,0.8-1.3,1.2c-0.2,0.2-0.4,0.4-0.6,0.5c-0.2,0.2-0.5,0.4-0.7,0.6
	c-0.3,0.2-0.5,0.4-0.8,0.6c-0.2,0.1-0.4,0.3-0.6,0.4c-0.3,0.2-0.6,0.4-0.9,0.7c-0.2,0.1-0.3,0.2-0.5,0.4c-0.3,0.2-0.6,0.4-1,0.6
	c-0.2,0.1-0.3,0.2-0.5,0.3c-0.3,0.2-0.6,0.4-1,0.6c-0.2,0.1-0.4,0.2-0.6,0.3c-0.3,0.2-0.6,0.3-0.9,0.5c-0.2,0.1-0.5,0.2-0.7,0.3
	c-0.3,0.1-0.6,0.3-0.8,0.4c-0.3,0.1-0.5,0.2-0.8,0.3c-0.2,0.1-0.5,0.2-0.7,0.3c-0.3,0.1-0.6,0.2-0.9,0.3c-0.2,0.1-0.4,0.1-0.7,0.2
	c-0.3,0.1-0.7,0.2-1,0.3c-0.2,0.1-0.4,0.1-0.6,0.2c-0.4,0.1-0.7,0.2-1.1,0.3c-0.2,0-0.4,0.1-0.5,0.1c-0.4,0.1-0.8,0.2-1.2,0.3
	c-0.2,0-0.4,0.1-0.6,0.1c-0.4,0.1-0.8,0.1-1.2,0.2c-0.2,0-0.4,0.1-0.7,0.1c-0.4,0-0.7,0.1-1.1,0.1c-0.3,0-0.6,0-0.9,0.1
	c-0.3,0-0.6,0-0.9,0.1c-0.6,0-1.2,0-1.8,0c0,0,0,0,0,0c0,0,0,0,0,0s0,0,0,0c-0.6,0-1.2,0-1.8,0c-0.3,0-0.5,0-0.8-0.1
	c-0.3,0-0.6,0-0.9-0.1c-0.3,0-0.7-0.1-1-0.1c-0.2,0-0.5-0.1-0.7-0.1c-0.4-0.1-0.7-0.1-1.1-0.2c-0.2,0-0.4-0.1-0.6-0.1
	c-0.4-0.1-0.7-0.2-1.1-0.2c-0.2,0-0.4-0.1-0.6-0.1c-0.4-0.1-0.7-0.2-1.1-0.3c-0.2-0.1-0.4-0.1-0.6-0.2c-0.3-0.1-0.7-0.2-1-0.3
	c-0.2-0.1-0.5-0.2-0.7-0.2c-0.3-0.1-0.6-0.2-0.9-0.3c-0.3-0.1-0.5-0.2-0.7-0.3c-0.3-0.1-0.5-0.2-0.8-0.3c-0.3-0.1-0.5-0.2-0.8-0.4
	c-0.2-0.1-0.5-0.2-0.7-0.4c-0.3-0.1-0.6-0.3-0.9-0.4c-0.2-0.1-0.4-0.2-0.6-0.4c-0.3-0.2-0.6-0.3-0.9-0.5c-0.2-0.1-0.4-0.2-0.6-0.4
	c-0.3-0.2-0.6-0.4-0.9-0.6c-0.2-0.1-0.4-0.3-0.6-0.4c-0.3-0.2-0.5-0.4-0.8-0.6c-0.2-0.2-0.4-0.3-0.6-0.5c-0.2-0.2-0.5-0.4-0.7-0.6
	c-0.2-0.2-0.5-0.4-0.7-0.6c-0.2-0.2-0.4-0.4-0.6-0.5c-0.3-0.2-0.5-0.5-0.8-0.7c-0.1-0.1-0.3-0.3-0.4-0.4L294.3,512.2
	c-14.2-13.9-14.3-36.7-0.4-50.9c13.9-14.2,36.7-14.3,50.9-0.4L476,590V100c0-19.9,16.1-36,36-36s36,16.1,36,36v489.1l130.5-130.5
	c14.1-14.1,36.9-14.1,50.9,0C743.5,472.6,743.5,495.4,729.5,509.5z M888,612l0,275.9c-0.1,0.1-0.1,0.1-0.1,0.1l-751.7,0
	c-0.1-0.1-0.1-0.1-0.1-0.1l0-275.9c0-19.9-16.1-36-36-36h0c-19.9,0-36,16.1-36,36v276c0,39.6,32.4,72,72,72h752
	c39.6,0,72-32.4,72-72V612c0-19.9-16.1-36-36-36h0C904.1,576,888,592.1,888,612z"/>
</svg>
