<?xml version="1.0" encoding="utf-8"?>
<!-- Generator: Adobe Illustrator 22.0.0, SVG Export Plug-In . SVG Version: 6.00 Build 0)  -->
<svg version="1.1" id="图层_1" xmlns="http://www.w3.org/2000/svg" xmlns:xlink="http://www.w3.org/1999/xlink" x="0px" y="0px"
	 viewBox="0 0 1024 1024" style="enable-background:new 0 0 1024 1024;" xml:space="preserve">
<style type="text/css">
	.st0{fill:#9DA7B2;}
	.st1{fill:none;stroke:#9DA7B2;stroke-width:72;stroke-linecap:round;stroke-linejoin:round;stroke-miterlimit:10;}
	.st2{fill:none;}
</style>
<path class="st0" d="M198.1,455.9L198.1,455.9L198.1,455.9 M198.1,456L198.1,456L198.1,456 M823.1,456L823.1,456
	C823.1,456,823.1,456,823.1,456v496c0,0,0,0,0,0h-625c0,0,0,0,0,0V456v0H823.1 M823.1,384h-625c-39.8,0-72,32.2-72,72v496
	c0,39.8,32.2,72,72,72h625c39.8,0,72-32.2,72-72V456C895.1,416.2,862.8,384,823.1,384L823.1,384z M574.6,640c0-35.3-28.7-64-64-64
	s-64,28.7-64,64c0,23.7,12.9,44.3,32,55.4V800c0,17.7,14.3,32,32,32l0,0c17.7,0,32-14.3,32-32V695.4
	C561.7,684.3,574.6,663.7,574.6,640z M710,120.1c15.4-15.4,13.7-40.9-3.7-54.1C652,24.6,584.1,0,510.6,0
	C332,0,187.3,144.7,187.3,323.3c0,20.8,2,41,5.7,60.7h73.7c-4.9-19.7-7.4-40-7.4-60.7c0-34,6.6-66.9,19.7-97.8
	c12.7-29.9,30.8-56.8,53.9-79.9s50-41.2,79.9-53.9C443.7,78.6,476.6,72,510.6,72s66.9,6.6,97.8,19.7c19.4,8.2,37.5,18.7,54.2,31.4
	C676.9,134.1,697.1,132.9,710,120.1L710,120.1z"/>
</svg>
