<?xml version="1.0" encoding="utf-8"?>
<!-- Generator: Adobe Illustrator 22.0.0, SVG Export Plug-In . SVG Version: 6.00 Build 0)  -->
<svg version="1.1" id="图层_1" xmlns="http://www.w3.org/2000/svg" xmlns:xlink="http://www.w3.org/1999/xlink" x="0px" y="0px"
	 viewBox="0 0 1024 1024" style="enable-background:new 0 0 1024 1024;" xml:space="preserve">
<style type="text/css">
	.st0{fill:#9DA7B2;}
	.st1{fill:none;stroke:#9DA7B2;stroke-width:72;stroke-linecap:round;stroke-linejoin:round;stroke-miterlimit:10;}
	.st2{fill:none;}
</style>
<path class="st0" d="M1013.5,514.5l-476-448c-14.1-14.1-36.9-14.1-50.9,0l-476,448c-10.3,10.3-13.4,25.8-7.8,39.2S21.4,576,36,576
	h92v348c0,19.9,16.1,36,36,36h696c19.9,0,36-16.1,36-36V576h92c14.6,0,27.7-8.8,33.3-22.2S1023.8,524.8,1013.5,514.5z M604,888H420
	V612c0-19.9,16.1-36,36-36h112c19.9,0,36,16.1,36,36V888z M860,504c-19.9,0-36,16.1-36,36v348H676V612c0-59.6-48.4-108-108-108H456
	c-59.6,0-108,48.4-108,108v276H200V540c0-19.9-16.1-36-36-36h-41.1L512,142.9L901.1,504H860z"/>
</svg>
