<?xml version="1.0" encoding="utf-8"?>
<!-- Generator: Adobe Illustrator 22.0.0, SVG Export Plug-In . SVG Version: 6.00 Build 0)  -->
<svg version="1.1" id="图层_1" xmlns="http://www.w3.org/2000/svg" xmlns:xlink="http://www.w3.org/1999/xlink" x="0px" y="0px"
	 viewBox="0 0 1024 1025" style="enable-background:new 0 0 1024 1025;" xml:space="preserve">
<style type="text/css">
	.st0{fill:#9DA7B2;}
	.st1{fill:none;stroke:#9DA7B2;stroke-width:72;stroke-linecap:round;stroke-linejoin:round;stroke-miterlimit:10;}
	.st2{fill:none;}
</style>
<path class="st0" d="M732,704.5H456c-19.9,0-36-16.1-36-36s16.1-36,36-36h276c19.9,0,36,16.1,36,36S751.9,704.5,732,704.5z
	 M768,832.5c0-19.9-16.1-36-36-36H456c-19.9,0-36,16.1-36,36s16.1,36,36,36h276C751.9,868.5,768,852.4,768,832.5z M392,668.5
	c0-19.9-16.1-36-36-36h-64c-19.9,0-36,16.1-36,36s16.1,36,36,36h64C375.9,704.5,392,688.4,392,668.5z M392,832.5
	c0-19.9-16.1-36-36-36h-64c-19.9,0-36,16.1-36,36s16.1,36,36,36h64C375.9,868.5,392,852.4,392,832.5z M665.5,138.5l-128-128
	c-14.1-14.1-36.9-14.1-50.9,0l-128,128c-14.1,14.1-14.1,36.9,0,50.9c14.1,14.1,36.9,14.1,50.9,0l66.5-66.5V484c0,19.9,16.1,36,36,36
	c19.9,0,36-16.1,36-36V122.9l66.5,66.5c7,7,16.2,10.5,25.5,10.5s18.4-3.5,25.5-10.5C679.5,175.4,679.5,152.6,665.5,138.5z
	 M824,128.5h-84c-19.9,0-36,16.1-36,36v0c0,19.9,16.1,36,36,36h84h0v752H200c0,0,0,0,0,0v-752h84c19.9,0,36-16.1,36-36v0
	c0-19.9-16.1-36-36-36h-84c-39.8,0-72,32.2-72,72v752c0,39.8,32.2,72,72,72h624c39.8,0,72-32.2,72-72v-752
	C896,160.7,863.8,128.5,824,128.5z"/>
</svg>
