<?xml version="1.0" encoding="utf-8"?>
<!-- Generator: Adobe Illustrator 22.0.0, SVG Export Plug-In . SVG Version: 6.00 Build 0)  -->
<svg version="1.1" id="图层_1" xmlns="http://www.w3.org/2000/svg" xmlns:xlink="http://www.w3.org/1999/xlink" x="0px" y="0px"
	 viewBox="0 0 1024 1024" style="enable-background:new 0 0 1024 1024;" xml:space="preserve">
<style type="text/css">
	.st0{fill:#9DA7B2;}
	.st1{fill:none;stroke:#9DA7B2;stroke-width:72;stroke-linecap:round;stroke-linejoin:round;stroke-miterlimit:10;}
	.st2{fill:none;}
</style>
<path class="st0" d="M782.6,71.4c9.9,0,19.7,2,28.8,6c49.1,21.4,80.8,69.4,80.8,122.2c0,14.2-2.2,27.9-6.4,41
	c19,23.5,29.6,52.8,29.6,83.4c0,14.2-2.2,27.9-6.4,41c19,23.5,29.6,52.8,29.6,83.4c0,14.2-2.2,27.9-6.4,41
	c19,23.6,29.6,52.9,29.6,83.4c0,45.9-25.9,89.7-67.5,114.4c-11.1,6.6-23.8,10.1-36.7,10.1H581.1l7,139.5c1.9,37.3-15.3,72.8-46,95
	c-18.9,13.7-41.7,21-65.9,21c-0.1,0-0.2,0-0.4,0c-26.3-0.1-51.2-8.4-72.3-24c-21.2-15.7-36.8-38.2-43.9-63.2L248.2,474.4
	c-1.8-6.4-2.8-13.1-2.8-19.7V143.4c0-39.8,32.2-72,72-72H782.6z M184.8,71.4H98.2c-19.9,0-36,16.3-36,36.4v319.4
	c0,20.1,16.1,36.4,36,36.4h86.6c19.9,0,36-16.3,36-36.4V107.8C220.8,87.7,204.7,71.4,184.8,71.4z"/>
</svg>
