<?xml version="1.0" encoding="utf-8"?>
<!-- Generator: Adobe Illustrator 22.0.0, SVG Export Plug-In . SVG Version: 6.00 Build 0)  -->
<svg version="1.1" id="图层_1" xmlns="http://www.w3.org/2000/svg" xmlns:xlink="http://www.w3.org/1999/xlink" x="0px" y="0px"
	 viewBox="0 0 1024 1024" style="enable-background:new 0 0 1024 1024;" xml:space="preserve">
<style type="text/css">
	.st0{fill:#9DA7B2;}
	.st1{fill:none;stroke:#9DA7B2;stroke-width:72;stroke-linecap:round;stroke-linejoin:round;stroke-miterlimit:10;}
	.st2{fill:none;}
</style>
<path class="st0" d="M776.6,909.7C710,740.6,627,607.6,456.7,580.5c-6.7-1.1-7.1-10.6-0.5-12.3c109.2-28.4,190-127.1,191.3-244.9
	c1.6-141.5-114.4-258.9-256-258.9c-141.4,0-256,114.6-256,256c0,114.4,75.1,211.3,178.7,244.1c9.1,2.9,8.3,15.9-1.1,17.7
	C149.3,612.8,67.6,743.7,2.5,909.7c-5.2,13.4-2.1,28.6,8,38.7l0,0c18.4,18.4,49.5,11.8,59-12.5c64.1-163.4,134.3-288.5,320.5-288.5
	c185.9,0,255.3,125.5,319.5,288.6c9.5,24.2,40.6,30.8,59,12.4l0,0C778.8,938.3,781.9,923,776.6,909.7z M207.5,320.5
	c0-101.6,82.4-184,184-184c101.6,0,184,82.4,184,184c0,101.6-82.4,184-184,184C289.9,504.5,207.5,422.1,207.5,320.5z M1009.6,948.4
	c-18.4,18.4-49.5,11.8-59-12.4c-56.9-144.6-118-259.6-260.6-283.8c0,0-0.1,0-0.1,0c-39.3-33.2-42.4-36.9-96.9-69.4
	c-10.1-6.3-10.4-11.3,1.5-20.9c0,0,0,0,0,0c25.4-24,31-25.1,49.7-57.7c0-0.1,0.1-0.1,0.1-0.1c96-6.2,172-86,172-183.6
	c0-97.6-76-177.5-172.1-183.6c-0.1,0-0.1,0-0.1-0.1c-21.2-26.9-40.8-45.3-72.9-64.7c-0.1-0.1-0.1-0.3,0-0.3
	c28.8-7.8,32-7.4,58.9-7.3c157.8,0.3,279.9,141,254.9,296.9c-15.1,94-81.3,170.8-169.2,201.2c-10.8,3.7-9.9,19.3,1.3,21.7
	c157.1,33.9,236.3,163,300.2,325.5C1022.9,923,1019.8,938.3,1009.6,948.4z"/>
</svg>
