<?xml version="1.0" encoding="utf-8"?>
<!-- Generator: Adobe Illustrator 22.0.0, SVG Export Plug-In . SVG Version: 6.00 Build 0)  -->
<svg version="1.1" id="图层_1" xmlns="http://www.w3.org/2000/svg" xmlns:xlink="http://www.w3.org/1999/xlink" x="0px" y="0px"
	 viewBox="0 0 1024 1024" style="enable-background:new 0 0 1024 1024;" xml:space="preserve">
<style type="text/css">
	.st0{fill:#9DA7B2;}
	.st1{fill:none;stroke:#9DA7B2;stroke-width:72;stroke-linecap:round;stroke-linejoin:round;stroke-miterlimit:10;}
	.st2{fill:none;}
</style>
<path class="st0" d="M512.9,0c-247.4,0-448,86-448,192v640c0,106,200.6,192,448,192s448-86,448-192V192C960.9,86,760.3,0,512.9,0z
	 M888.9,832c0,6-5.3,14.9-14.5,24.2c-11,11.1-32.6,28.1-73.1,45.4c-35.7,15.3-79.5,27.9-126.9,36.5c-51,9.2-105.4,13.9-161.5,13.9
	s-110.5-4.7-161.5-13.9c-47.3-8.6-91.2-21.2-126.9-36.5c-40.5-17.4-62.1-34.3-73.1-45.4c-9.2-9.3-14.5-18.1-14.5-24.2v-87.6
	c79.9,52.7,218.4,87.6,376,87.6s296.1-34.9,376-87.6V832z M888.9,640c0,6-5.3,14.9-14.5,24.2c-11,11.1-32.6,28.1-73.1,45.4
	c-35.7,15.3-79.5,27.9-126.9,36.5c-51,9.2-105.4,13.9-161.5,13.9s-110.5-4.7-161.5-13.9c-47.3-8.6-91.2-21.2-126.9-36.5
	c-40.5-17.4-62.1-34.3-73.1-45.4c-9.2-9.3-14.5-18.1-14.5-24.2v-87.6c79.9,52.7,218.4,87.6,376,87.6s296.1-34.9,376-87.6V640z
	 M888.9,448c0,6-5.3,14.9-14.5,24.2c-11,11.1-32.6,28.1-73.1,45.4c-35.7,15.3-79.5,27.9-126.9,36.5c-51,9.2-105.4,13.9-161.5,13.9
	s-110.5-4.7-161.5-13.9c-47.3-8.6-91.2-21.2-126.9-36.5c-40.5-17.4-62.1-34.3-73.1-45.4c-9.2-9.3-14.5-18.1-14.5-24.2V296.4
	c79.9,52.7,218.4,87.6,376,87.6s296.1-34.9,376-87.6V448z M874.4,216.2c-11,11.1-32.6,28.1-73.1,45.4
	c-35.7,15.3-79.5,27.9-126.9,36.5c-51,9.2-105.4,13.9-161.5,13.9s-110.5-4.7-161.5-13.9c-47.3-8.6-91.2-21.2-126.9-36.5
	c-40.5-17.4-62.1-34.3-73.1-45.4c-9.2-9.3-14.5-18.1-14.5-24.2s5.3-14.9,14.5-24.2c11-11.1,32.6-28.1,73.1-45.4
	c35.7-15.3,79.5-27.9,126.9-36.5c51-9.2,105.4-13.9,161.5-13.9s110.5,4.7,161.5,13.9c47.3,8.6,91.2,21.2,126.9,36.5
	c40.5,17.4,62.1,34.3,73.1,45.4c9.2,9.3,14.5,18.1,14.5,24.2S883.6,206.9,874.4,216.2z"/>
</svg>
