<?xml version="1.0" encoding="utf-8"?>
<!-- Generator: Adobe Illustrator 22.0.0, SVG Export Plug-In . SVG Version: 6.00 Build 0)  -->
<svg version="1.1" id="图层_1" xmlns="http://www.w3.org/2000/svg" xmlns:xlink="http://www.w3.org/1999/xlink" x="0px" y="0px"
	 viewBox="0 0 1024 1024" style="enable-background:new 0 0 1024 1024;" xml:space="preserve">
<style type="text/css">
	.st0{fill:#9DA7B2;}
	.st1{fill:none;stroke:#9DA7B2;stroke-width:72;stroke-linecap:round;stroke-linejoin:round;stroke-miterlimit:10;}
	.st2{fill:none;}
</style>
<path class="st0" d="M200,645.1V860h732c19.9,0,36,16.1,36,36s-16.1,36-36,36H164c-19.9,0-36-16.1-36-36V719.8l-66.4,68.8
	c-7,7.1-16.3,10.7-25.6,10.7c-9.1,0-18.3-3.5-25.3-10.4c-14.2-14-14.3-36.8-0.4-50.9L128,616.3V128c0-19.9,16.1-36,36-36
	s36,16.1,36,36v413.7l186.4-193c6.7-6.8,15.9-10.7,25.5-10.7c0,0,0.1,0,0.1,0c9.5,0,18.7,3.8,25.5,10.5L604,515l358.5-358.5
	c14.1-14.1,36.9-14.1,50.9,0c14.1,14.1,14.1,36.9,0,50.9l-384,384c-14.1,14.1-36.9,14.1-50.9,0L412.2,425L200,645.1z"/>
</svg>
