<?xml version="1.0" encoding="utf-8"?>
<!-- Generator: Adobe Illustrator 21.0.2, SVG Export Plug-In . SVG Version: 6.00 Build 0)  -->
<svg version="1.1" id="图层_1" xmlns="http://www.w3.org/2000/svg" xmlns:xlink="http://www.w3.org/1999/xlink" x="0px" y="0px"
	 viewBox="0 0 1024 1024" style="enable-background:new 0 0 1024 1024;" xml:space="preserve">
<style type="text/css">
	.st0{fill:#9DA7B2;}
	.st1{fill:#9EA6B0;}
</style>
<path class="st1" d="M738,264.5H294.1c-19.9,0-36-16.1-36-36s16.1-36,36-36H738c19.9,0,36,16.1,36,36S757.9,264.5,738,264.5z
	 M294.1,384.5c-19.9,0-36,16.1-36,36s16.1,36,36,36h184c19.9,0,36-16.1,36-36s-16.1-36-36-36H294.1z M414,952H202V72h624v276
	c0,19.9,16.1,36,36,36l0,0c19.9,0,36-16.1,36-36V64c0-35.3-28.7-64-64-64H194c-35.3,0-64,28.7-64,64v896c0,35.3,28.7,64,64,64h220
	c19.9,0,36-16.1,36-36l0,0C450,968.1,433.9,952,414,952z M504.5,801L504.5,801c12.6-7.3,19.7-21.5,17.7-36
	c-1.4-10.1-2.2-20.4-2.2-30.8c0-57.7,22.5-111.9,63.3-152.7c40.8-40.8,95-63.3,152.7-63.3c48,0,93.6,15.6,131,44.3l-29.6,29.6
	c-10.1,10.1-2.9,27.3,11.3,27.3h107.1c8.8,0,16-7.2,16-16V496.3c0-14.3-17.2-21.4-27.3-11.3l-26.3,26.3
	c-49.9-40.8-113.7-65.3-183.2-65C576.1,446.7,447,577.1,448,736.1c0.1,13.2,1.1,26.1,2.9,38.8C454.4,800.2,482.4,813.7,504.5,801z
	 M1023.8,723.6c-0.6-16.2-2.5-32-5.7-47.4c-4.9-24-32-36.1-53.2-23.8v0c-13.4,7.8-20.3,23.2-17.2,38.5c2.9,14.1,4.3,28.6,4.3,43.4
	c0,67.7-31,130.7-86.2,172.8c-29,22.1-63.3,36.3-99.4,41.2c-67.6,9.2-132.8-12.5-180.5-58.7l27.3-27.3c10.1-10.1,2.9-27.3-11.3-27.3
	H494.8c-8.8,0-16,7.2-16,16v107.1c0,14.3,17.2,21.4,27.3,11.3l28.9-28.9c49.7,48.5,116.8,79.1,191.1,81.7
	C892.6,1027.7,1029.8,890,1023.8,723.6z"/>
</svg>
