<?xml version="1.0" encoding="utf-8"?>
<!-- Generator: Adobe Illustrator 22.0.0, SVG Export Plug-In . SVG Version: 6.00 Build 0)  -->
<svg version="1.1" id="图层_1" xmlns="http://www.w3.org/2000/svg" xmlns:xlink="http://www.w3.org/1999/xlink" x="0px" y="0px"
	 viewBox="0 0 1024 1024" style="enable-background:new 0 0 1024 1024;" xml:space="preserve">
<style type="text/css">
	.st0{fill:#9DA7B2;}
	.st1{fill:none;stroke:#9DA7B2;stroke-width:72;stroke-linecap:round;stroke-linejoin:round;stroke-miterlimit:10;}
	.st2{fill:none;}
</style>
<path class="st0" d="M726,21.2C712.5,7.6,694.2,0,675,0H264c-39.8,0-72,32.2-72,72v376c0,19.9,16.1,36,36,36h0c19.9,0,36-16.1,36-36
	l0-376h340v248c0,19.9,16.1,36,36,36h248l0,596l-244.1,0c-19.9,0-36,16.1-36,36v0c0,19.9,16.1,36,36,36H888c39.8,0,72-32.2,72-72
	V285.7c0-19.1-7.6-37.3-21-50.8L726,21.2z M676,284V73l210.3,211H676z M504,512H136c-39.8,0-72,32.2-72,72v368c0,39.8,32.2,72,72,72
	h368c39.8,0,72-32.2,72-72V584C576,544.2,543.8,512,504,512z M201.2,801.4c-1.4,41.8-22.6,63.3-63.7,64.7
	c-31.2,0.5-50.9-11.8-59.3-36.9c-4.2-12.7,5.5-25.7,18.8-25.7c9.2,0,17.3,6.3,19.2,15.3c2.8,13.1,9.9,19.6,21.2,19.6
	c13.7,0,21.2-11.6,22.6-34.9c0-0.7,0.3-1.7,1-3.1V694.1c0-11.1,9-20,20-20s20,9,20,20V801.4z M304.9,791.1h-29.8V844
	c0,11.1-9,20-20,20c-11.1,0-20-9-20-20V674h58.5c51.3-0.7,77,18.8,77,58.5C369.3,769.5,347.4,789,304.9,791.1z M562.7,857.8
	c-13.7,4.1-27.7,6.2-42.1,6.2c-11,1.4-25.3,2.1-43.1,2.1c-58.2-2.7-88-34.9-89.3-96.5c1.4-61.6,31.1-94.8,89.3-99.6
	c41.1,0,67.9,10,80.3,30.1c8.5,13.8-1.7,31.5-17.9,31.5c-8.7,0-16.4-5.5-19.5-13.6c-4.7-12.1-16.6-18.2-35.7-18.2
	c-35.6,1.4-53.4,24.6-53.4,69.8s17.8,68.1,53.4,68.8c10.3,0,22.2-1,35.9-3.1c0.7,0,1.4-0.3,2.1-1v-40h-37v-31.8h77V857.8z
	 M327.5,732.6c0.7,21.2-12.7,30.5-40,27.7c-6.2-0.7-10.3-1-12.3-1v-53.4c2.1,0.7,6.2,0.7,12.3,0
	C314.2,705.2,327.5,714.1,327.5,732.6z"/>
</svg>
