<?xml version="1.0" encoding="utf-8"?>
<!-- Generator: Adobe Illustrator 22.0.0, SVG Export Plug-In . SVG Version: 6.00 Build 0)  -->
<svg version="1.1" id="图层_1" xmlns="http://www.w3.org/2000/svg" xmlns:xlink="http://www.w3.org/1999/xlink" x="0px" y="0px"
	 viewBox="0 0 1024 1024" style="enable-background:new 0 0 1024 1024;" xml:space="preserve">
<style type="text/css">
	.st0{fill:#9DA7B2;}
	.st1{fill:none;stroke:#9DA7B2;stroke-width:72;stroke-linecap:round;stroke-linejoin:round;stroke-miterlimit:10;}
	.st2{fill:none;}
</style>
<g>
	<path class="st0" d="M512.5,129.2c-211.5,0-383,171.5-383,383s171.5,383,383,383s383-171.5,383-383S724.1,129.2,512.5,129.2z
		 M512.5,825c-172.7,0-312.8-140-312.8-312.8s140-312.8,312.8-312.8s312.8,140,312.8,312.8S685.3,825,512.5,825z M882.8,274.3
		c-34.4-53.3-80-98.8-133.4-133c-19.2-12.3-22.4-39-6.6-55.4l0,0c12-12.4,31-14.5,45.5-5.2c62.1,39.7,115.1,92.5,155,154.5
		c9.4,14.6,7.2,33.8-5.4,45.8l0,0C921.4,296.5,895,293.3,882.8,274.3z M87.9,281.5L87.9,281.5c-12.6-11.9-14.8-31.1-5.4-45.7
		c39.9-62,92.8-114.9,154.8-154.7c14.5-9.3,33.5-7.2,45.5,5.2l0,0c15.8,16.4,12.6,43.1-6.5,55.4c-53.4,34.2-99,79.7-133.2,133.1
		C130.8,293.8,104.3,297,87.9,281.5z M748.4,961H274.8c-19.9,0-36-16.1-36-36s16.1-36,36-36h473.6c19.9,0,36,16.1,36,36
		S768.3,961,748.4,961z M662.7,576h-174c-10.3,0-20.1-4.4-26.9-12.1c-6.8-7.7-10-18-8.8-28.2l23.8-197.1
		c2.4-19.7,20.3-33.8,40.1-31.4c19.7,2.4,33.8,20.3,31.4,40.1l-19,156.8h133.4c19.9,0,36,16.1,36,36S682.6,576,662.7,576z"/>
</g>
</svg>
