<?xml version="1.0" encoding="utf-8"?>
<!-- Generator: Adobe Illustrator 22.0.0, SVG Export Plug-In . SVG Version: 6.00 Build 0)  -->
<svg version="1.1" id="图层_1" xmlns="http://www.w3.org/2000/svg" xmlns:xlink="http://www.w3.org/1999/xlink" x="0px" y="0px"
	 viewBox="0 0 1024 1024" style="enable-background:new 0 0 1024 1024;" xml:space="preserve">
<style type="text/css">
	.st0{fill:#9DA7B2;}
	.st1{fill:none;stroke:#9DA7B2;stroke-width:72;stroke-linecap:round;stroke-linejoin:round;stroke-miterlimit:10;}
	.st2{fill:none;}
</style>
<path class="st0" d="M90.1,886.9c-19.9,0-36-16.1-36-36V173.1c0-19.9,16.1-36,36-36s36,16.1,36,36v677.9
	C126.1,870.8,109.9,886.9,90.1,886.9z M846.2,479.8l-128-64c-17.8-8.9-39.4-1.7-48.3,16.1c-7.7,15.4-3.3,33.7,9.6,44.1H340.7
	c12.9-10.4,17.3-28.7,9.6-44.1c-8.9-17.8-30.5-25-48.3-16.1l-128,64c-12.2,6.1-19.9,18.6-19.9,32.2c0,13.6,7.7,26.1,19.9,32.2
	l128,64c5.2,2.6,10.7,3.8,16.1,3.8c13.2,0,25.9-7.3,32.2-19.9c7.7-15.4,3.3-33.7-9.6-44.1h338.7c-12.9,10.4-17.3,28.7-9.6,44.1
	c6.3,12.6,19,19.9,32.2,19.9c5.4,0,10.9-1.2,16.1-3.8l128-64c12.2-6.1,19.9-18.6,19.9-32.2C866.1,498.4,858.3,485.9,846.2,479.8z
	 M958.1,850.9V173.1c0-19.9-16.1-36-36-36s-36,16.1-36,36v677.9c0,19.9,16.1,36,36,36S958.1,870.8,958.1,850.9z"/>
</svg>
