<?xml version="1.0" encoding="utf-8"?>
<!-- Generator: Adobe Illustrator 22.0.0, SVG Export Plug-In . SVG Version: 6.00 Build 0)  -->
<svg version="1.1" id="图层_1" xmlns="http://www.w3.org/2000/svg" xmlns:xlink="http://www.w3.org/1999/xlink" x="0px" y="0px"
	 viewBox="0 0 1024 1024" style="enable-background:new 0 0 1024 1024;" xml:space="preserve">
<style type="text/css">
	.st0{fill:#9DA7B2;}
	.st1{fill:none;stroke:#9DA7B2;stroke-width:72;stroke-linecap:round;stroke-linejoin:round;stroke-miterlimit:10;}
	.st2{fill:none;}
</style>
<path class="st0" d="M448,320H320c-19.9,0-36-16.1-36-36s16.1-36,36-36h128c19.9,0,36,16.1,36,36S467.9,320,448,320z M740,512
	c0-19.9-16.1-36-36-36H320c-19.9,0-36,16.1-36,36s16.1,36,36,36h384C723.9,548,740,531.9,740,512z M740,732c0-19.9-16.1-36-36-36
	H320c-19.9,0-36,16.1-36,36s16.1,36,36,36h384C723.9,768,740,751.9,740,732z M662,21.2l213,213.7c13.4,13.5,21,31.8,21,50.8V952
	c0,39.6-32.4,72-72,72H200c-39.6,0-72-32.4-72-72V72c0-39.6,32.4-72,72-72h411C630.2,0,648.5,7.6,662,21.2z M612,73v211h210.3
	L612,73z M824,951.9l0-595.9H576c-19.9,0-36-16.1-36-36V72H200.1c-0.1,0.1-0.1,0.1-0.1,0.1l0,879.7c0.1,0.1,0.1,0.1,0.1,0.1l623.7,0
	C823.9,951.9,823.9,951.9,824,951.9z"/>
</svg>
