<?xml version="1.0" encoding="utf-8"?>
<!-- Generator: Adobe Illustrator 21.0.2, SVG Export Plug-In . SVG Version: 6.00 Build 0)  -->
<svg version="1.1" id="图层_1" xmlns="http://www.w3.org/2000/svg" xmlns:xlink="http://www.w3.org/1999/xlink" x="0px" y="0px"
	 viewBox="0 0 1024 1024" style="enable-background:new 0 0 1024 1024;" xml:space="preserve">
<style type="text/css">
	.st0{fill:#9DA7B2;}
</style>
<path class="st0" d="M954,128H668.3h-43.7h-36.8l-67.6,135.2c-5.1,10.1-5.1,22.1,0,32.2L584,422.9l-37.3,144
	c-1.4,5.4-1.5,11-0.4,16.5l20.7,97.4l-73.9-56l24.9-129.3c2.3-11.7-1.5-23.8-9.9-32.3L448.7,404v-54.9c0-9.5-3.8-18.7-10.5-25.5
	l-67.3-67.3L285,128h-46.8h-39.9H74c-39.6,0-72,32.4-72,72v621.9c0,39.6,32.4,72,72,72h880c39.6,0,72-32.4,72-72V200
	C1026,160.4,993.6,128,954,128z M954,821.8c0,0-0.1,0.1-0.1,0.1l-879.7,0c0,0-0.1-0.1-0.1-0.1l0-621.7c0,0,0.1-0.1,0.1-0.1h172.4
	l66.4,99.3c1.3,2,2.8,3.8,4.5,5.4l59.3,59.3v54.9c0,9.5,3.8,18.7,10.5,25.5l56.3,56.3l-16.4,85.3l-127.1-42.4
	c-11.5-3.8-24.2-0.8-32.7,7.7l-128,128c-12.5,12.5-12.5,32.8,0,45.3c12.5,12.5,32.8,12.5,45.3,0l114-114l120.5,40.2
	c2.2,7,6.5,13.4,12.6,18l168.7,128c6.4,4.9,14.1,7.3,21.8,7.3c6.7,0,13.4-1.9,19.3-5.6c12.7-8.1,19-23.2,15.9-37.9l-39-183.7
	l26.7-103.1l25.9-34.5l167.5,279.2c6,10,16.6,15.5,27.5,15.5c5.6,0,11.3-1.5,16.4-4.6c15.2-9.1,20.1-28.7,11-43.9l-192-320
	c-5.5-9.1-15.2-14.9-25.8-15.5c-10.6-0.6-20.9,4.2-27.2,12.8L640,374l-47.4-94.7l39.6-79.3h321.6c0,0,0.1,0.1,0.1,0.1L954,821.8z
	 M258,509.9c53,0,96-43,96-96s-43-96-96-96s-96,43-96,96S205,509.9,258,509.9z M258,381.9c17.7,0,32,14.3,32,32s-14.3,32-32,32
	c-17.7,0-32-14.3-32-32S240.3,381.9,258,381.9z"/>
</svg>
