<?xml version="1.0" encoding="utf-8"?>
<!-- Generator: Adobe Illustrator 22.0.0, SVG Export Plug-In . SVG Version: 6.00 Build 0)  -->
<svg version="1.1" id="图层_1" xmlns="http://www.w3.org/2000/svg" xmlns:xlink="http://www.w3.org/1999/xlink" x="0px" y="0px"
	 viewBox="0 0 1024 1024" style="enable-background:new 0 0 1024 1024;" xml:space="preserve">
<style type="text/css">
	.st0{fill:#9DA7B2;}
	.st1{fill:none;stroke:#9DA7B2;stroke-width:72;stroke-linecap:round;stroke-linejoin:round;stroke-miterlimit:10;}
	.st2{fill:none;}
</style>
<path class="st0" d="M512,288.2l68.3,134.2L733,443.9L622.5,548.4L648.6,696L512,626.3L375.4,696l26.1-147.5L291,443.9l152.7-21.5
	L512,288.2 M512,216.2c-27.1,0-51.9,15.2-64.2,39.4l-51.3,100.8L281,372.6c-27.4,3.9-50.1,23.1-58.5,49.4
	c-8.4,26.4-1,55.2,19.1,74.2l82.3,77.8l-19.3,109.4c-4.8,26.9,6.1,54.2,28.1,70.4c12.6,9.4,27.7,14.1,42.8,14.1
	c11.2,0,22.4-2.6,32.7-7.9l103.9-53l103.9,53c10.3,5.3,21.5,7.9,32.7,7.9c15.1,0,30.2-4.8,42.8-14.1c22-16.2,32.8-43.5,28.1-70.4
	l-19.3-109.4l82.3-77.8c20.1-19,27.5-47.8,19.1-74.2c-8.4-26.4-31.2-45.6-58.5-49.4l-115.6-16.3l-51.3-100.8
	C563.9,231.4,539.1,216.2,512,216.2L512,216.2z M512,1.9C229.5,1.9,0.5,230.9,0.5,513.4S229.5,1025,512,1025
	c282.5,0,511.5-229,511.5-511.5S794.5,1.9,512,1.9z M512,953C269.3,953,72.5,756.2,72.5,513.4S269.3,73.9,512,73.9
	s439.5,196.8,439.5,439.5S754.7,953,512,953z"/>
</svg>
