<?xml version="1.0" encoding="utf-8"?>
<!-- Generator: Adobe Illustrator 22.0.0, SVG Export Plug-In . SVG Version: 6.00 Build 0)  -->
<svg version="1.1" id="图层_1" xmlns="http://www.w3.org/2000/svg" xmlns:xlink="http://www.w3.org/1999/xlink" x="0px" y="0px"
	 viewBox="0 0 1024 1025" style="enable-background:new 0 0 1024 1025;" xml:space="preserve">
<style type="text/css">
	.st0{fill:#9DA7B2;}
	.st1{fill:none;stroke:#9DA7B2;stroke-width:72;stroke-linecap:round;stroke-linejoin:round;stroke-miterlimit:10;}
	.st2{fill:none;}
</style>
<path class="st0" d="M508.6,701.3L508.6,701.3c106.9,0,193.5-86.6,193.5-193.5v-282c0-106.9-86.6-193.5-193.5-193.5h0
	c-106.9,0-193.5,86.6-193.5,193.5v282C315.1,614.6,401.7,701.3,508.6,701.3z M387.1,225.8c0-32.5,12.6-63,35.6-85.9
	c22.9-22.9,53.5-35.6,85.9-35.6c32.5,0,63,12.6,85.9,35.6c22.9,22.9,35.6,53.5,35.6,85.9v282c0,32.5-12.6,63-35.6,85.9
	c-22.9,22.9-53.5,35.6-85.9,35.6c-32.5,0-63-12.6-85.9-35.6c-22.9-22.9-35.6-53.5-35.6-85.9V225.8z M544.5,826.7
	c0,0.5,0.1,1.1,0.1,1.6l1.1,92.4h156.4c19.9,0,36,16.1,36,36s-16.1,36-36,36h-384c-19.9,0-36-16.1-36-36s16.1-36,36-36h155.6
	l-1.1-91.6c0-0.8,0-1.6,0.1-2.4c-161.1-17.9-286.5-154.5-286.5-320.4v-53.6c0-19.9,16.1-36,36-36l0,0c19.9,0,36,16.1,36,36v53.6
	c0,33.8,6.6,66.6,19.6,97.4c12.6,29.8,30.7,56.6,53.7,79.6c23,23,49.8,41.1,79.6,53.7c30.8,13,63.6,19.6,97.4,19.6
	c33.8,0,66.6-6.6,97.4-19.6c29.8-12.6,56.6-30.7,79.6-53.7c23-23,41.1-49.8,53.7-79.6c13-30.8,19.6-63.6,19.6-97.4v-53.6
	c0-19.9,16.1-36,36-36l0,0c19.9,0,36,16.1,36,36v53.6C830.9,672.3,705.6,808.9,544.5,826.7z"/>
</svg>
