<?xml version="1.0" encoding="utf-8"?>
<!-- Generator: Adobe Illustrator 22.0.0, SVG Export Plug-In . SVG Version: 6.00 Build 0)  -->
<svg version="1.1" id="图层_1" xmlns="http://www.w3.org/2000/svg" xmlns:xlink="http://www.w3.org/1999/xlink" x="0px" y="0px"
	 viewBox="0 0 1024 1024" style="enable-background:new 0 0 1024 1024;" xml:space="preserve">
<style type="text/css">
	.st0{fill:#9DA7B2;}
	.st1{fill:none;stroke:#9DA7B2;stroke-width:72;stroke-linecap:round;stroke-linejoin:round;stroke-miterlimit:10;}
	.st2{fill:none;}
</style>
<path class="st0" d="M617.5,455.3L617.5,455.3c-24,0-40.8-23.9-32.6-46.5l105-290c5-13.7,18-22.9,32.6-22.9h42.4
	c14.7,0,27.8,9.3,32.7,23.2l101.9,290c7.9,22.5-8.8,46.2-32.7,46.2h-4.4c-14.6,0-27.7-9.2-32.6-23l-19-52.8H669.1l-19,52.8
	C645.2,446.1,632.1,455.3,617.5,455.3z M688.5,319.4h102.9l-48.6-153.4H741L688.5,319.4z M604,897.9v-20.1c0-6.5,2.1-12.8,6-18
	l172.7-230.9H645.8c-16.6,0-30.1-13.5-30.1-30.1v0c0-16.6,13.5-30.1,30.1-30.1h200.1c16.6,0,30.1,13.5,30.1,30.1V619
	c0,6.4-2.1,12.7-5.9,17.9L699.2,867.8h150.5c16.6,0,30.1,13.5,30.1,30.1v0c0,16.6-13.5,30.1-30.1,30.1H634.1
	C617.5,928,604,914.5,604,897.9z M386.5,892V132c0-14.6-8.8-27.7-22.2-33.3c-13.5-5.6-28.9-2.5-39.2,7.8l-192,192
	c-14.1,14.1-14.1,36.9,0,50.9c14.1,14.1,36.9,14.1,50.9,0l130.5-130.5V892c0,19.9,16.1,36,36,36S386.5,911.9,386.5,892z"/>
</svg>
