<?xml version="1.0" encoding="utf-8"?>
<!-- Generator: Adobe Illustrator 22.0.0, SVG Export Plug-In . SVG Version: 6.00 Build 0)  -->
<svg version="1.1" id="图层_1" xmlns="http://www.w3.org/2000/svg" xmlns:xlink="http://www.w3.org/1999/xlink" x="0px" y="0px"
	 viewBox="0 0 1024 1024" style="enable-background:new 0 0 1024 1024;" xml:space="preserve">
<style type="text/css">
	.st0{fill:#9DA7B2;}
	.st1{fill:none;stroke:#9DA7B2;stroke-width:72;stroke-linecap:round;stroke-linejoin:round;stroke-miterlimit:10;}
	.st2{fill:none;}
</style>
<path class="st0" d="M860,952h-57.3c-2.5-43.4-9.9-120.2-32.1-197.9C743.2,658.3,704,597.6,661.3,560H768c19.9,0,36-16.1,36-36
	c0-19.9-16.1-36-36-36H628.8c54.9-33.5,107.6-98.4,141.8-218.1c22.2-77.7,29.6-154.4,32.1-197.9H860c19.9,0,36-16.1,36-36
	S879.9,0,860,0H164c-19.9,0-36,16.1-36,36s16.1,36,36,36h57.3c2.5,43.4,9.9,120.2,32.1,197.9c34.2,119.7,86.9,184.7,141.8,218.1H256
	c-19.9,0-36,16.1-36,36c0,19.9,16.1,36,36,36h106.7c-42.7,37.6-81.9,98.3-109.3,194.1c-22.2,77.7-29.6,154.4-32.1,197.9H164
	c-19.9,0-36,16.1-36,36s16.1,36,36,36h696c19.9,0,36-16.1,36-36S879.9,952,860,952z M323,251.3C303.2,182.6,296,112.8,293.5,72
	h437.1c-2.5,40.5-9.6,109.5-29.2,178.1C663.9,381.4,600.1,448,512,448C424.1,448,360.5,381.8,323,251.3z M323,772.7
	C360.5,642.2,424.1,576,512,576c88.1,0,151.9,66.6,189.4,197.9C721,842.5,728,911.5,730.6,952H293.5
	C296,911.2,303.2,841.4,323,772.7z"/>
</svg>
