<?xml version="1.0" encoding="utf-8"?>
<!-- Generator: Adobe Illustrator 22.0.0, SVG Export Plug-In . SVG Version: 6.00 Build 0)  -->
<svg version="1.1" id="图层_1" xmlns="http://www.w3.org/2000/svg" xmlns:xlink="http://www.w3.org/1999/xlink" x="0px" y="0px"
	 viewBox="0 0 1024 1024" style="enable-background:new 0 0 1024 1024;" xml:space="preserve">
<style type="text/css">
	.st0{fill:#9DA7B2;}
	.st1{fill:none;stroke:#9DA7B2;stroke-width:72;stroke-linecap:round;stroke-linejoin:round;stroke-miterlimit:10;}
	.st2{fill:none;}
</style>
<path class="st0" d="M134.1,327.9L134.1,327.9L134.1,327.9 M134.1,328L134.1,328L134.1,328 M694.1,328L694.1,328
	C694.1,328,694.1,328,694.1,328v560c0,0,0,0,0,0h-560c0,0,0,0,0,0V328c0,0,0,0,0,0H694.1 M694.1,256h-560c-39.8,0-72,32.2-72,72v560
	c0,39.8,32.2,72,72,72h560c39.8,0,72-32.2,72-72V328C766.1,288.2,733.8,256,694.1,256L694.1,256z M886.1,64h-560
	c-39.8,0-72,32.2-72,72v56c0,19.9,16.1,36,36,36h0c19.9,0,36-16.1,36-36v-56c0,0,0,0,0,0h560h0v560c0,0,0,0,0,0h-56
	c-19.9,0-36,16.1-36,36v0c0,19.9,16.1,36,36,36h56c39.8,0,72-32.2,72-72V136C958.1,96.2,925.8,64,886.1,64z M610.1,576h-156V420
	c0-19.9-16.1-36-36-36s-36,16.1-36,36v156h-156c-19.9,0-36,16.1-36,36s16.1,36,36,36h156v156c0,19.9,16.1,36,36,36s36-16.1,36-36
	V648h156c19.9,0,36-16.1,36-36S629.9,576,610.1,576z"/>
</svg>
