<?xml version="1.0" encoding="utf-8"?>
<!-- Generator: Adobe Illustrator 22.0.0, SVG Export Plug-In . SVG Version: 6.00 Build 0)  -->
<svg version="1.1" id="图层_1" xmlns="http://www.w3.org/2000/svg" xmlns:xlink="http://www.w3.org/1999/xlink" x="0px" y="0px"
	 viewBox="0 0 1024 1024" style="enable-background:new 0 0 1024 1024;" xml:space="preserve">
<style type="text/css">
	.st0{fill:#9DA7B2;}
	.st1{fill:none;stroke:#9DA7B2;stroke-width:72;stroke-linecap:round;stroke-linejoin:round;stroke-miterlimit:10;}
	.st2{fill:none;}
</style>
<path class="st0" d="M826,836.9c-54.4-138-122.1-246.7-261.1-268.7c-5.5-0.9-5.8-8.6-0.4-10c89.1-23.2,155.1-103.8,156.2-199.9
	c1.3-115.6-93.4-211.4-209-211.4c-115.4,0-209,93.6-209,209c0,93.4,61.3,172.5,145.9,199.3c7.4,2.3,6.8,13-0.9,14.4
	C313.9,594.5,247.2,701.4,194,836.9c-4.3,10.9-1.7,23.3,6.6,31.6l0,0c15,15,40.4,9.6,48.2-10.2c52.3-133.4,109.7-235.5,261.6-235.5
	c151.8,0,208.4,102.4,260.9,235.6c7.8,19.8,33.2,25.1,48.2,10.1l0,0C827.8,860.2,830.3,847.8,826,836.9z M361.4,355.8
	c0-83,67.3-150.2,150.2-150.2c83,0,150.2,67.3,150.2,150.2c0,83-67.3,150.2-150.2,150.2C428.7,506.1,361.4,438.8,361.4,355.8z
	 M134.1,135.9L134.1,135.9L134.1,135.9 M134.1,136L134.1,136L134.1,136 M886.1,136v752l0,0h-752c0,0,0,0,0,0V136l0,0H886.1
	 M886.1,64h-752c-39.8,0-72,32.2-72,72v752c0,39.8,32.2,72,72,72h752c39.8,0,72-32.2,72-72V136C958.1,96.2,925.8,64,886.1,64
	L886.1,64z"/>
</svg>
