<?xml version="1.0" encoding="utf-8"?>
<!-- Generator: Adobe Illustrator 22.0.0, SVG Export Plug-In . SVG Version: 6.00 Build 0)  -->
<svg version="1.1" id="图层_1" xmlns="http://www.w3.org/2000/svg" xmlns:xlink="http://www.w3.org/1999/xlink" x="0px" y="0px"
	 viewBox="0 0 1024 1024" style="enable-background:new 0 0 1024 1024;" xml:space="preserve">
<style type="text/css">
	.st0{fill:#9DA7B2;}
	.st1{fill:none;stroke:#9DA7B2;stroke-width:72;stroke-linecap:round;stroke-linejoin:round;stroke-miterlimit:10;}
	.st2{fill:none;}
</style>
<path class="st0" d="M512,0.5C229.5,0.5,0.5,229.5,0.5,512s229,511.5,511.5,511.5c282.5,0,511.5-229,511.5-511.5S794.5,0.5,512,0.5z
	 M512,951.5C269.3,951.5,72.5,754.7,72.5,512S269.3,72.5,512,72.5S951.5,269.3,951.5,512S754.7,951.5,512,951.5z M548,548v56h90.1
	c19.9,0,36,16.1,36,36s-16.1,36-36,36H548v92c0,19.9-16.1,36-36,36s-36-16.1-36-36v-92h-93.9c-19.9,0-36-16.1-36-36s16.1-36,36-36
	H476v-56H354.1c-19.9,0-36-16.1-36-36s16.1-36,36-36H476v-13.1L358.5,345.5c-14.1-14.1-14.1-36.9,0-50.9c14.1-14.1,36.9-14.1,50.9,0
	L512,397.1l102.5-102.5c14.1-14.1,36.9-14.1,50.9,0c14.1,14.1,14.1,36.9,0,50.9L548,462.9V476h118.1c19.9,0,36,16.1,36,36
	s-16.1,36-36,36H548z"/>
</svg>
