<?xml version="1.0" encoding="utf-8"?>
<!-- Generator: Adobe Illustrator 22.0.0, SVG Export Plug-In . SVG Version: 6.00 Build 0)  -->
<svg version="1.1" id="图层_1" xmlns="http://www.w3.org/2000/svg" xmlns:xlink="http://www.w3.org/1999/xlink" x="0px" y="0px"
	 viewBox="0 0 1024 1024" style="enable-background:new 0 0 1024 1024;" xml:space="preserve">
<style type="text/css">
	.st0{fill:#9DA7B2;}
	.st1{fill:none;stroke:#9DA7B2;stroke-width:72;stroke-linecap:round;stroke-linejoin:round;stroke-miterlimit:10;}
	.st2{fill:none;}
</style>
<path class="st0" d="M896,92H128c-19.9,0-36,16.1-36,36s16.1,36,36,36h156v604c0,40.1,18.4,71.5,51.9,88.2
	c22.5,11.2,44,11.8,48.1,11.8h238.9c23.1,38.3,65.2,64,113.1,64c72.8,0,132-59.2,132-132s-59.2-132-132-132
	c-71.4,0-129.8,57.1-131.9,128H384.4c-2.8-0.1-10.9-1.2-17.5-4.8C361.2,788,356,783,356,768V548h266.9c23.1,38.3,65.2,64,113.1,64
	c72.8,0,132-59.2,132-132s-59.2-132-132-132c-71.4,0-129.8,57.1-131.9,128H356V164h540c19.9,0,36-16.1,36-36S915.9,92,896,92z
	 M736,740c33.1,0,60,26.9,60,60s-26.9,60-60,60s-60-26.9-60-60S702.9,740,736,740z M384.1,796c0,0,0.1,0,0.2,0H384
	C384,796,384,796,384.1,796z M736,420c33.1,0,60,26.9,60,60s-26.9,60-60,60s-60-26.9-60-60S702.9,420,736,420z"/>
</svg>
