<?xml version="1.0" encoding="utf-8"?>
<!-- Generator: Adobe Illustrator 22.0.0, SVG Export Plug-In . SVG Version: 6.00 Build 0)  -->
<svg version="1.1" id="图层_1" xmlns="http://www.w3.org/2000/svg" xmlns:xlink="http://www.w3.org/1999/xlink" x="0px" y="0px"
	 viewBox="0 0 1024 1024" style="enable-background:new 0 0 1024 1024;" xml:space="preserve">
<style type="text/css">
	.st0{fill:#9DA7B2;}
	.st1{fill:none;stroke:#9DA7B2;stroke-width:72;stroke-linecap:round;stroke-linejoin:round;stroke-miterlimit:10;}
	.st2{fill:none;}
</style>
<path class="st0" d="M922.6,312.3c-28.1-10.5-55.4-13.3-68.6-14V78c0-14.6-8.8-27.7-22.2-33.3c-13.5-5.6-28.9-2.5-39.2,7.8
	c-92.7,92.7-219.2,137.1-308.9,158C384.5,233.6,306.7,234,306,234h-64c-51,0-95.1,12.1-131,36c-29.2,19.4-52.5,46.3-69.2,79.9
	C14.3,404.9,14,459.7,14,462s0.3,57.1,27.8,112.1c16.8,33.5,40.1,60.4,69.2,79.9c19.6,13,41.5,22.6,65.8,28.5
	c3.9,19.4,10,42.7,19.5,68.2c15.1,40.4,36,78.4,61.9,113c32.3,43.1,72.6,80.9,119.8,112.4c6.1,4.1,13,6,20,6c8.6,0,17.1-3,23.8-9
	c12.2-10.8,15.7-28.5,8.4-43.1c-0.3-0.6-31.1-62.5-54-131.3c-26.2-78.6-26.8-96.9-21.3-105.8c93.7,8.5,301.6,42.5,437.7,178.6
	c6.9,6.9,16.1,10.5,25.5,10.5c4.6,0,9.3-0.9,13.8-2.7c13.5-5.6,22.2-18.7,22.2-33.3V561.7c13.3-0.7,40.5-3.5,68.6-14
	C979,526.6,1010,484.8,1010,430S979,333.4,922.6,312.3z M107.2,543.8c-20-38.7-21.1-79.1-21.2-81.8c0.1-2.7,1.2-43.2,21.2-81.8
	C133,330.3,177.1,306,242,306h64v312h-64C177.1,618,133,593.7,107.2,543.8z M264.8,728.2c-5.2-13.6-9.3-26.5-12.4-38.2h27.7
	c0.1,4.7,0.4,10.1,1,16.3c2.4,26.5,9,57.6,19.6,92.8C286.4,776.9,274.4,753.2,264.8,728.2z M782,462v305.7
	c-33-24.5-69.6-46.3-109.6-65.2c-52.8-25-111.4-45-174.3-59.5c-50-11.5-94.5-17.7-128.1-21.1V302.1c33.6-3.3,78.1-9.5,128.1-21.1
	c62.9-14.5,121.6-34.5,174.3-59.5c39.9-18.9,76.6-40.7,109.6-65.2V462z M898.7,479.8c-17,6.6-34.7,9-44.7,9.8V462v-91.6
	c9.6,0.8,26.7,3,43.4,9.3c36,13.5,40.6,34,40.6,50.3C938,446.1,933.5,466.2,898.7,479.8z"/>
</svg>
