<?xml version="1.0" encoding="utf-8"?>
<!-- Generator: Adobe Illustrator 22.0.0, SVG Export Plug-In . SVG Version: 6.00 Build 0)  -->
<svg version="1.1" id="图层_1" xmlns="http://www.w3.org/2000/svg" xmlns:xlink="http://www.w3.org/1999/xlink" x="0px" y="0px"
	 viewBox="0 0 1024 1024" style="enable-background:new 0 0 1024 1024;" xml:space="preserve">
<style type="text/css">
	.st0{fill:#9DA7B2;}
	.st1{fill:none;stroke:#9DA7B2;stroke-width:72;stroke-linecap:round;stroke-linejoin:round;stroke-miterlimit:10;}
	.st2{fill:none;}
</style>
<path class="st0" d="M202,71.9L202,71.9L202,71.9 M202.1,72L202.1,72L202.1,72 M826,72L826,72L826,72v880l0,0H202l0,0V72l0,0H826
	 M826,0H202c-39.8,0-72,32.2-72,72v880c0,39.8,32.2,72,72,72h624c39.8,0,72-32.2,72-72V72C898,32.2,865.8,0,826,0L826,0z M706,192
	v128H322V192H706 M738,128H290c-17.7,0-32,14.3-32,32v192c0,17.7,14.3,32,32,32h448c17.7,0,32-14.3,32-32V160
	C770,142.3,755.7,128,738,128L738,128z M386,530.1v-52.1c0-16.5-13.5-29.9-29.9-29.9h-68.1c-16.5,0-29.9,13.5-29.9,29.9v52.1
	c0,16.5,13.5,29.9,29.9,29.9h68.1C372.5,560,386,546.5,386,530.1z M578,530.1v-52.1c0-16.5-13.5-29.9-29.9-29.9h-68.1
	c-16.5,0-29.9,13.5-29.9,29.9v52.1c0,16.5,13.5,29.9,29.9,29.9h68.1C564.5,560,578,546.5,578,530.1z M770,530.1v-52.1
	c0-16.5-13.5-29.9-29.9-29.9h-68.1c-16.5,0-29.9,13.5-29.9,29.9v52.1c0,16.5,13.5,29.9,29.9,29.9h68.1
	C756.5,560,770,546.5,770,530.1z M386,698.1v-52.1c0-16.5-13.5-29.9-29.9-29.9h-68.1c-16.5,0-29.9,13.5-29.9,29.9v52.1
	c0,16.5,13.5,29.9,29.9,29.9h68.1C372.5,728,386,714.5,386,698.1z M578,698.1v-52.1c0-16.5-13.5-29.9-29.9-29.9h-68.1
	c-16.5,0-29.9,13.5-29.9,29.9v52.1c0,16.5,13.5,29.9,29.9,29.9h68.1C564.5,728,578,714.5,578,698.1z M770,698.1v-52.1
	c0-16.5-13.5-29.9-29.9-29.9h-68.1c-16.5,0-29.9,13.5-29.9,29.9v52.1c0,16.5,13.5,29.9,29.9,29.9h68.1
	C756.5,728,770,714.5,770,698.1z M386,866.1v-52.1c0-16.5-13.5-29.9-29.9-29.9h-68.1c-16.5,0-29.9,13.5-29.9,29.9v52.1
	c0,16.5,13.5,29.9,29.9,29.9h68.1C372.5,896,386,882.5,386,866.1z M578,866.1v-52.1c0-16.5-13.5-29.9-29.9-29.9h-68.1
	c-16.5,0-29.9,13.5-29.9,29.9v52.1c0,16.5,13.5,29.9,29.9,29.9h68.1C564.5,896,578,882.5,578,866.1z M770,866.1v-52.1
	c0-16.5-13.5-29.9-29.9-29.9h-68.1c-16.5,0-29.9,13.5-29.9,29.9v52.1c0,16.5,13.5,29.9,29.9,29.9h68.1
	C756.5,896,770,882.5,770,866.1z"/>
</svg>
