<?xml version="1.0" encoding="utf-8"?>
<!-- Generator: Adobe Illustrator 22.0.0, SVG Export Plug-In . SVG Version: 6.00 Build 0)  -->
<svg version="1.1" id="图层_1" xmlns="http://www.w3.org/2000/svg" xmlns:xlink="http://www.w3.org/1999/xlink" x="0px" y="0px"
	 viewBox="0 0 1024 1024" style="enable-background:new 0 0 1024 1024;" xml:space="preserve">
<style type="text/css">
	.st0{fill:#9DA7B2;}
	.st1{fill:none;stroke:#9DA7B2;stroke-width:72;stroke-linecap:round;stroke-linejoin:round;stroke-miterlimit:10;}
	.st2{fill:none;}
</style>
<path class="st0" d="M974.1,961.4L771,758.4c77.4-80.5,125-189.9,125-310.4C896,200.6,695.4,0,448,0S0.1,200.6,0.1,448
	s200.6,448,448,448c101,0,194.1-33.4,269-89.8l206.1,206.1c14.1,14.1,36.9,14.1,50.9,0v0C988.2,998.3,988.2,975.5,974.1,961.4z
	 M70.7,448C70.7,239.6,239.7,70.7,448,70.7S825.3,239.6,825.3,448S656.4,825.3,448,825.3S70.7,656.3,70.7,448z"/>
</svg>
