<?xml version="1.0" encoding="utf-8"?>
<!-- Generator: Adobe Illustrator 22.0.0, SVG Export Plug-In . SVG Version: 6.00 Build 0)  -->
<svg version="1.1" id="图层_1" xmlns="http://www.w3.org/2000/svg" xmlns:xlink="http://www.w3.org/1999/xlink" x="0px" y="0px"
	 viewBox="0 0 1024 1024" style="enable-background:new 0 0 1024 1024;" xml:space="preserve">
<style type="text/css">
	.st0{fill:#9DA7B2;}
	.st1{fill:none;stroke:#9DA7B2;stroke-width:72;stroke-linecap:round;stroke-linejoin:round;stroke-miterlimit:10;}
	.st2{fill:none;}
</style>
<path class="st0" d="M702.1,0.3c-5-0.2-9.9-0.3-14.8-0.3C521.2,0,382.9,130.7,375,298.3c-4.7,100.9,38.9,192.8,110.4,253.4
	l-162.9,218L192,672.2c-15.9-11.9-38.5-8.6-50.4,7.3c-11.9,15.9-8.6,38.5,7.3,50.4l130.5,97.5l-82.6,110.5L80.9,852.8
	c-16-11.8-38.6-8.3-50.3,7.7c-11.8,16-8.3,38.6,7.7,50.3L183,1017c6.4,4.7,13.9,7,21.3,7c10.9,0,21.7-5,28.8-14.5l312.3-417.9
	c38.5,19.6,81.6,31.6,127.5,33.7c5,0.2,9.9,0.3,14.8,0.3c166.1,0,304.4-130.7,312.3-298.3C1008.1,154.8,874.7,8.4,702.1,0.3z
	 M928.1,324.1c-2.9,62.3-29.4,120.2-74.5,163.2c-45,42.8-103.9,66.4-165.8,66.4c-3.8,0-7.7-0.1-11.5-0.3
	c-64.3-3-123.5-30.8-166.8-78.4C466.2,427.5,444,365.9,447,301.6c2.9-62.3,29.4-120.2,74.5-163.2C566.5,95.6,625.4,72,687.3,72
	c3.8,0,7.6,0.1,11.5,0.3c64.3,3,123.5,30.8,166.8,78.4C908.9,198.2,931.1,259.8,928.1,324.1z"/>
</svg>
