<?xml version="1.0" encoding="utf-8"?>
<!-- Generator: Adobe Illustrator 22.0.0, SVG Export Plug-In . SVG Version: 6.00 Build 0)  -->
<svg version="1.1" id="图层_1" xmlns="http://www.w3.org/2000/svg" xmlns:xlink="http://www.w3.org/1999/xlink" x="0px" y="0px"
	 viewBox="0 0 1024 1024" style="enable-background:new 0 0 1024 1024;" xml:space="preserve">
<style type="text/css">
	.st0{fill:#9DA7B2;}
	.st1{fill:none;stroke:#9DA7B2;stroke-width:72;stroke-linecap:round;stroke-linejoin:round;stroke-miterlimit:10;}
	.st2{fill:none;}
</style>
<path class="st0" d="M352.1,576.3c-0.3,0-0.7,0-1,0c-11.7-0.3-22.5-6.3-29-16L218.6,404.9l-159,159.8c-14,14.1-36.8,14.2-50.9,0.1
	c-14.1-14-14.2-36.8-0.1-50.9l190.1-191c7.6-7.7,18.3-11.5,29-10.4c10.7,1.1,20.5,6.9,26.5,15.9L353.8,478l161.5-215.3
	c7-9.3,18.1-14.7,29.8-14.4c11.7,0.3,22.5,6.3,29,16l106.2,159.3l283.3-231.5c15.5-12.4,38.2-9.9,50.6,5.6
	c12.4,15.5,9.9,38.2-5.6,50.6l-313.9,256c-7.9,6.3-18,9-28,7.5c-10-1.5-18.8-7.2-24.4-15.6l-99.8-149.7L380.9,561.9
	C374.1,571,363.4,576.3,352.1,576.3z M886.1,64.3h-752c-39.8,0-72,32.2-72,72v297.9l72-72.4V136.3h752h0v87.1l72-58.8v-28.3
	C958.1,96.5,925.8,64.3,886.1,64.3z M886.1,696.3h-752c0,0,0,0,0,0V521.2l-72,72.4v102.7c0,39.8,32.2,72,72,72h340v128h-156
	c-19.9,0-36,16.1-36,36s16.1,36,36,36h384c19.9,0,36-16.1,36-36s-16.1-36-36-36h-156v-128h340c39.8,0,72-32.2,72-72V315.4l-72,58.7
	V696.3z"/>
</svg>
