<?xml version="1.0" encoding="utf-8"?>
<!-- Generator: Adobe Illustrator 22.0.0, SVG Export Plug-In . SVG Version: 6.00 Build 0)  -->
<svg version="1.1" id="图层_1" xmlns="http://www.w3.org/2000/svg" xmlns:xlink="http://www.w3.org/1999/xlink" x="0px" y="0px"
	 viewBox="0 0 1024 1024" style="enable-background:new 0 0 1024 1024;" xml:space="preserve">
<style type="text/css">
	.st0{fill:#9DA7B2;}
	.st1{fill:none;stroke:#9DA7B2;stroke-width:72;stroke-linecap:round;stroke-linejoin:round;stroke-miterlimit:10;}
	.st2{fill:none;}
</style>
<path class="st0" d="M804.2,791l102.5-102.5c14.1-14.1,14.1-36.9,0-50.9c-14.1-14.1-36.9-14.1-50.9,0L753.3,740.1l-93-93l0.8-0.7
	C726.1,577.7,766,485,766,383C766,171.5,594.5,0,383,0S0,171.5,0,383c0,211.5,171.5,383,383,383c83.2,0,160.1-26.5,222.9-71.5
	l96.5,96.5L599.9,893.5c-14.1,14.1-14.1,36.9,0,50.9c7,7,16.2,10.5,25.5,10.5s18.4-3.5,25.5-10.5l102.5-102.5l102.5,102.5
	c7,7,16.2,10.5,25.5,10.5s18.4-3.5,25.5-10.5c14.1-14.1,14.1-36.9,0-50.9L804.2,791z M70.3,383c0-172.7,140-312.8,312.8-312.8
	s312.8,140,312.8,312.8S555.7,695.8,383,695.8S70.3,555.7,70.3,383z"/>
</svg>
