<?xml version="1.0" encoding="utf-8"?>
<!-- Generator: Adobe Illustrator 22.0.0, SVG Export Plug-In . SVG Version: 6.00 Build 0)  -->
<svg version="1.1" id="图层_1" xmlns="http://www.w3.org/2000/svg" xmlns:xlink="http://www.w3.org/1999/xlink" x="0px" y="0px"
	 viewBox="0 0 1024 1024" style="enable-background:new 0 0 1024 1024;" xml:space="preserve">
<style type="text/css">
	.st0{fill:#9DA7B2;}
	.st1{fill:none;stroke:#9DA7B2;stroke-width:72;stroke-linecap:round;stroke-linejoin:round;stroke-miterlimit:10;}
	.st2{fill:none;}
</style>
<path class="st0" d="M512.5,0C230,0,0.9,229,0.9,511.5s229,511.5,511.5,511.5c282.5,0,511.5-229,511.5-511.5S795,0,512.5,0z
	 M512.5,951.1c-242.7,0-439.5-196.8-439.5-439.5S269.7,72,512.5,72S952,268.8,952,511.5S755.2,951.1,512.5,951.1z M268.1,291
	c0-6.2,2.5-12.2,6.9-16.6c4.4-4.4,10.4-6.9,16.6-6.9h192.3v-6c0-15.6,12.6-28.2,28.2-28.2c15.6,0,28.2,12.6,28.2,28.2v6h189.9
	c12.9,0,23.4,10.5,23.4,23.4c0,12.9-10.5,23.4-23.4,23.4H540.3v27.6h159.5c8.3,0,15.9,4.4,20,11.6c4.1,7.2,4.1,16,0,23.1
	c-4.1,7.2-11.8,11.6-20,11.6H540.3v28.2h208.2c13.4,0,24.3,10.9,24.3,24.3c0,13.4-10.9,24.3-24.3,24.3H275.6
	c-13.4,0-24.3-10.9-24.3-24.3c0-13.4,10.9-24.3,24.3-24.3h208.2v-28.2H322.5c-8.3,0-15.9-4.4-20-11.6c-4.1-7.2-4.1-16,0-23.1
	c4.1-7.2,11.8-11.6,20-11.6h161.3v-27.6H291.5c-6.2,0-12.2-2.5-16.6-6.9C270.6,303.2,268.1,297.2,268.1,291L268.1,291z M703.2,527.8
	v121.1c0,9.8-5.2,18.8-13.7,23.7c-8.5,4.9-18.9,4.9-27.3,0c-8.5-4.9-13.7-13.9-13.7-23.7v-89.2c0-4.8-1.9-9.4-5.3-12.7
	c-3.4-3.4-8-5.3-12.7-5.3H391.9c-4.8,0-9.4,1.9-12.7,5.3c-3.4,3.4-5.3,8-5.3,12.7v94c0,9.8-5.2,18.8-13.7,23.7
	c-8.5,4.9-18.9,4.9-27.3,0c-8.5-4.9-13.7-13.9-13.7-23.7V527.8c0-9.6,3.8-18.7,10.6-25.5c6.8-6.8,15.9-10.6,25.5-10.6h311.9
	c9.6,0,18.7,3.8,25.5,10.6C699.4,509,703.2,518.2,703.2,527.8L703.2,527.8z M537.9,669.9c6.8-10.2,19.7-14.6,31.4-10.5
	c35.3,12.2,78,29.4,128.1,51.7l38.5,17.7c6.7,3.1,11.7,9,13.8,16.1c2,7.1,0.9,14.7-3.2,20.9c-9.2,14-27.5,18.7-42.3,10.9
	c-10.1-5.4-20.3-10.7-30.5-15.9c-39.6-19.3-80.4-36.1-122.1-50.3C534.8,704.7,528.1,684.7,537.9,669.9L537.9,669.9z M485,566.8
	l21.8,2.1c18.8,1.8,31.4,20.1,26.6,38.4c-11.3,42.7-32.6,78-64,106.1c-26.7,24.4-68.9,44.6-127.2,60.8c-7,2-16.7,4.4-29,7.2
	c-16.6,3.9-33.7-4.8-40.3-20.5c-2.8-6.6-2.5-14.1,0.9-20.4c3.3-6.3,9.3-10.9,16.3-12.4c10.8-2.3,19.4-4.2,25.7-5.8
	c47.5-12.3,83.6-28,108.6-46.7C456.8,649.8,477.2,613.7,485,566.8L485,566.8z M485,566.8"/>
</svg>
