<?xml version="1.0" encoding="utf-8"?>
<!-- Generator: Adobe Illustrator 22.0.0, SVG Export Plug-In . SVG Version: 6.00 Build 0)  -->
<svg version="1.1" id="图层_1" xmlns="http://www.w3.org/2000/svg" xmlns:xlink="http://www.w3.org/1999/xlink" x="0px" y="0px"
	 viewBox="0 0 1024 1024" style="enable-background:new 0 0 1024 1024;" xml:space="preserve">
<style type="text/css">
	.st0{fill:#9DA7B2;}
	.st1{fill:none;stroke:#9DA7B2;stroke-width:72;stroke-linecap:round;stroke-linejoin:round;stroke-miterlimit:10;}
	.st2{fill:none;}
</style>
<path class="st0" d="M646.4,428.5L420.1,654.8c-14.1,14.1-36.9,14.1-50.9,0c-14.1-14.1-14.1-36.9,0-50.9l226.3-226.3
	c14.1-14.1,36.9-14.1,50.9,0C660.4,391.7,660.4,414.5,646.4,428.5z M484,611.2c0.9,5,1.3,10.1,1.3,15.3c0,23.6-9.1,45.7-25.6,62.2
	L325.3,823.1c-16.5,16.5-38.6,25.6-62.2,25.6c-23.6,0-45.7-9.1-62.2-25.6c-16.5-16.5-25.6-38.6-25.6-62.2c0-23.6,9.1-45.7,25.6-62.2
	l134.4-134.4c16.5-16.5,38.6-25.6,62.2-25.6c5.4,0,10.8,0.5,16,1.4l56.3-56.3c-60-30.3-135.5-20.4-185.4,29.5L150,647.8
	c-62.2,62.2-62.2,164,0,226.3l0,0c62.2,62.2,164,62.2,226.3,0l134.4-134.4c49.8-49.8,59.7-125,29.8-184.9L484,611.2z M647.8,150
	L510.6,287.1c-50,50-59.8,125.4-29.5,185.4l56.3-56.3c-0.9-5.2-1.4-10.6-1.4-16c0-23.6,9.1-45.7,25.6-62.2l137.1-137.1
	c16.5-16.5,38.6-25.6,62.2-25.6c23.6,0,45.7,9.1,62.2,25.6c16.5,16.5,25.6,38.6,25.6,62.2c0,23.6-9.1,45.7-25.6,62.2L686,462.5
	C669.5,479,647.4,488,623.8,488c-5.2,0-10.3-0.5-15.3-1.3L552,543.2c59.9,29.9,135.1,20,184.9-29.8L874,376.2
	c62.2-62.2,62.2-164,0-226.3l0,0C811.8,87.7,710,87.7,647.8,150z"/>
</svg>
