<?xml version="1.0" encoding="utf-8"?>
<!-- Generator: Adobe Illustrator 22.0.0, SVG Export Plug-In . SVG Version: 6.00 Build 0)  -->
<svg version="1.1" id="图层_1" xmlns="http://www.w3.org/2000/svg" xmlns:xlink="http://www.w3.org/1999/xlink" x="0px" y="0px"
	 viewBox="0 0 1024 1024" style="enable-background:new 0 0 1024 1024;" xml:space="preserve">
<style type="text/css">
	.st0{fill:#9DA7B2;}
	.st1{fill:none;stroke:#9DA7B2;stroke-width:72;stroke-linecap:round;stroke-linejoin:round;stroke-miterlimit:10;}
	.st2{fill:none;}
</style>
<path class="st0" d="M510.1,362c-58.8,0-114,22.9-155.6,64.4c-41.6,41.6-64.4,96.8-64.4,155.6c0,58.8,22.9,114,64.4,155.6
	C396,779.1,451.3,802,510.1,802s114-22.9,155.6-64.4c41.6-41.6,64.4-96.8,64.4-155.6s-22.9-114-64.4-155.6
	C624.1,384.9,568.8,362,510.1,362z M510.1,730c-81.7,0-148-66.3-148-148s66.3-148,148-148s148,66.3,148,148S591.8,730,510.1,730z
	 M945.9,192H806.6c-0.3-1-0.6-2.1-0.9-3.1l-28-84c-8-24-36.8-40.9-69.9-40.9H308.3c-33,0-61.8,16.9-69.9,40.9l-28,84
	c-0.3,1-0.6,2.1-0.9,3.1H74.2c-42,0-76.1,34.1-76.1,76.1v615.8c0,42,34.1,76.1,76.1,76.1h871.8c42,0,76.1-34.1,76.1-76.1V268.1
	C1022.1,226.1,988,192,945.9,192z M303.9,136.4c1.2-0.2,2.7-0.4,4.5-0.4h399.6c1.7,0,3.2,0.2,4.5,0.4l15.9,47.6H288L303.9,136.4z
	 M950.1,883.9c0,2.3-1.8,4.1-4.1,4.1H74.2c-2.3,0-4.1-1.8-4.1-4.1V268.1c0-2.3,1.8-4.1,4.1-4.1h871.8c2.3,0,4.1,1.8,4.1,4.1V883.9z
	 M832.1,352c0,19.9-16.1,36-36,36s-36-16.1-36-36s16.1-36,36-36S832.1,332.1,832.1,352z"/>
</svg>
