<?xml version="1.0" encoding="utf-8"?>
<!-- Generator: Adobe Illustrator 22.0.0, SVG Export Plug-In . SVG Version: 6.00 Build 0)  -->
<svg version="1.1" id="图层_1" xmlns="http://www.w3.org/2000/svg" xmlns:xlink="http://www.w3.org/1999/xlink" x="0px" y="0px"
	 viewBox="0 0 1024 1024" style="enable-background:new 0 0 1024 1024;" xml:space="preserve">
<style type="text/css">
	.st0{fill:#9DA7B2;}
	.st1{fill:none;stroke:#9DA7B2;stroke-width:72;stroke-linecap:round;stroke-linejoin:round;stroke-miterlimit:10;}
	.st2{fill:none;}
</style>
<path class="st0" d="M540,103.2c210.4,17.1,375.9,193.2,375.9,408.1c0,226.1-183.3,409.4-409.4,409.4c-89.5,0-172.3-28.7-239.7-77.5
	L532,533.6c5.2-6.1,8.1-13.8,8.1-21.8V103.2 M540,31.2c-18,0-35.5,6.8-48.8,19.1C476.4,63.9,468,83.1,468,103.2v394.3L212.1,796.5
	c-13.1,15.3-19.2,35.3-16.8,55.3c2.4,20,13,38.1,29.3,49.8c40.2,29,84.3,51.6,131.2,67.1c48.5,16,99.2,24.1,150.7,24.1
	c65,0,128-12.7,187.4-37.9c57.3-24.3,108.8-59,153-103.1c44.2-44.2,78.9-95.7,103.1-153c25.1-59.4,37.9-122.5,37.9-187.4
	c0-121.7-45.5-237.9-128.2-327.1C777.5,95.5,666,41.2,545.9,31.5C543.9,31.3,542,31.2,540,31.2L540,31.2z M196.7,788.4L196.7,788.4
	c11.3-13.3,11.3-32.7,0-46c-56.1-65.8-89.9-151.2-89.9-244.5c0-186,134.6-340.6,311.7-371.6c17-3,29.4-17.6,29.4-34.8v0
	c0-21.9-19.7-38.6-41.3-34.8C196.1,93.3,36.1,276.9,36.1,497.9c0,110.8,40.2,212.2,106.9,290.4C157.1,804.9,182.6,804.9,196.7,788.4
	z"/>
</svg>
