<?xml version="1.0" encoding="utf-8"?>
<!-- Generator: Adobe Illustrator 22.0.0, SVG Export Plug-In . SVG Version: 6.00 Build 0)  -->
<svg version="1.1" id="图层_1" xmlns="http://www.w3.org/2000/svg" xmlns:xlink="http://www.w3.org/1999/xlink" x="0px" y="0px"
	 viewBox="0 0 1024 1024" style="enable-background:new 0 0 1024 1024;" xml:space="preserve">
<style type="text/css">
	.st0{fill:#9DA7B2;}
	.st1{fill:none;stroke:#9DA7B2;stroke-width:72;stroke-linecap:round;stroke-linejoin:round;stroke-miterlimit:10;}
	.st2{fill:none;}
</style>
<path class="st0" d="M896,622H694V402h202c19.9,0,36-16.1,36-36s-16.1-36-36-36H694V128c0-19.9-16.1-36-36-36c-19.9,0-36,16.1-36,36
	v202H402V128c0-19.9-16.1-36-36-36c-19.9,0-36,16.1-36,36v202H128c-19.9,0-36,16.1-36,36s16.1,36,36,36h202v220H128
	c-19.9,0-36,16.1-36,36s16.1,36,36,36h202v202c0,19.9,16.1,36,36,36c19.9,0,36-16.1,36-36V694h220v202c0,19.9,16.1,36,36,36
	c19.9,0,36-16.1,36-36V694h202c19.9,0,36-16.1,36-36S915.9,622,896,622z M402,622V402h220v220H402z"/>
</svg>
