<?xml version="1.0" encoding="utf-8"?>
<!-- Generator: Adobe Illustrator 21.0.2, SVG Export Plug-In . SVG Version: 6.00 Build 0)  -->
<svg version="1.1" id="图层_1" xmlns="http://www.w3.org/2000/svg" xmlns:xlink="http://www.w3.org/1999/xlink" x="0px" y="0px"
	 viewBox="0 0 1024 1024" style="enable-background:new 0 0 1024 1024;" xml:space="preserve">
<style type="text/css">
	.st0{fill:#9DA7B2;}
</style>
<path class="st0" d="M64,164c0-19.9,16.1-36,36-36h312c19.9,0,36,16.1,36,36s-16.1,36-36,36H100C80.1,200,64,183.9,64,164z M100,432
	h312c19.9,0,36-16.1,36-36s-16.1-36-36-36H100c-19.9,0-36,16.1-36,36S80.1,432,100,432z M100,664h824c19.9,0,36-16.1,36-36
	s-16.1-36-36-36H100c-19.9,0-36,16.1-36,36S80.1,664,100,664z M100,896h824c19.9,0,36-16.1,36-36s-16.1-36-36-36H100
	c-19.9,0-36,16.1-36,36S80.1,896,100,896z M668,448c-9.2,0-18.4-3.5-25.5-10.5l-128-128c-14.1-14.1-14.1-36.9,0-50.9
	c14.1-14.1,36.9-14.1,50.9,0L668,361.1l230.5-230.5c14.1-14.1,36.9-14.1,50.9,0c14.1,14.1,14.1,36.9,0,50.9l-256,256
	C686.4,444.5,677.2,448,668,448z"/>
</svg>
