<?xml version="1.0" encoding="utf-8"?>
<!-- Generator: Adobe Illustrator 22.0.0, SVG Export Plug-In . SVG Version: 6.00 Build 0)  -->
<svg version="1.1" id="图层_1" xmlns="http://www.w3.org/2000/svg" xmlns:xlink="http://www.w3.org/1999/xlink" x="0px" y="0px"
	 viewBox="0 0 1024 1025" style="enable-background:new 0 0 1024 1025;" xml:space="preserve">
<style type="text/css">
	.st0{fill:#9DA7B2;}
	.st1{fill:none;stroke:#9DA7B2;stroke-width:72;stroke-linecap:round;stroke-linejoin:round;stroke-miterlimit:10;}
	.st2{fill:none;}
</style>
<path class="st0" d="M198.1,200.5v540c0,19.9-16.1,36-36,36s-36-16.1-36-36v-540h-28c-19.9,0-36-16.1-36-36s16.1-36,36-36h28v-28
	c0-19.9,16.1-36,36-36s36,16.1,36,36v28h540c19.9,0,36,16.1,36,36s-16.1,36-36,36H198.1z M922.1,824.5h-28v-540
	c0-19.9-16.1-36-36-36s-36,16.1-36,36v540h-540c-19.9,0-36,16.1-36,36s16.1,36,36,36h540v28c0,19.9,16.1,36,36,36s36-16.1,36-36v-28
	h28c19.9,0,36-16.1,36-36S941.9,824.5,922.1,824.5z"/>
</svg>
