<?xml version="1.0" encoding="utf-8"?>
<!-- Generator: Adobe Illustrator 22.0.0, SVG Export Plug-In . SVG Version: 6.00 Build 0)  -->
<svg version="1.1" id="图层_1" xmlns="http://www.w3.org/2000/svg" xmlns:xlink="http://www.w3.org/1999/xlink" x="0px" y="0px"
	 viewBox="0 0 1024 1024" style="enable-background:new 0 0 1024 1024;" xml:space="preserve">
<style type="text/css">
	.st0{fill:#9DA7B2;}
	.st1{fill:none;stroke:#9DA7B2;stroke-width:72;stroke-linecap:round;stroke-linejoin:round;stroke-miterlimit:10;}
	.st2{fill:none;}
</style>
<path class="st0" d="M964,512c0,19.9-16.1,36-36,36H800c61.2,47.3,68,102.1,68,124c0,37.6-18.5,100.1-70.5,152.1
	c-29.6,29.6-66.7,52.9-110.4,69.1c-50,18.6-108.9,28.1-175.1,28.1c-64.9,0-123.6-9.1-174.5-27.1c-41.8-14.8-78.5-35.5-108.9-61.6
	c-11.4-9.7-21-19.5-29.2-28.9c-20.4-23.3-4-59.8,27-59.8h0c10.4,0,20.3,4.5,27.1,12.3c6.9,7.9,15.3,16.3,25.4,24.7
	c54.4,44.7,135,68.4,233.1,68.4c103.6,0,184.7-26.3,234.5-76.1C785.7,734.1,796,689.9,796,672c0-9.1-3.2-40.9-44.9-70.7
	C717,577,647.9,548,512,548H96c-19.9,0-36-16.1-36-36s16.1-36,36-36h128c-61.2-47.3-68-102.1-68-124c0-37.6,18.5-100.1,70.5-152.1
	c29.6-29.6,66.7-52.9,110.4-69.1c50-18.6,108.9-28.1,175.1-28.1c64.9,0,123.6,9.1,174.5,27.1c41.8,14.8,78.5,35.5,108.9,61.6
	c12.8,11,23.4,22,32.3,32.4c19.8,23.4,3.1,59.3-27.5,59.3l0,0c-10.7,0-20.8-4.8-27.7-13c-7.2-8.6-16.2-17.8-27.4-27
	c-54.4-44.7-135-68.4-233.1-68.4c-103.6,0-184.7,26.3-234.5,76.1C238.3,289.9,228,334.1,228,352c0,9.1,3.2,40.9,44.9,70.7
	C307,447,376.1,476,512,476h416C947.9,476,964,492.1,964,512z"/>
</svg>
