<?xml version="1.0" encoding="utf-8"?>
<!-- Generator: Adobe Illustrator 22.0.0, SVG Export Plug-In . SVG Version: 6.00 Build 0)  -->
<svg version="1.1" id="图层_1" xmlns="http://www.w3.org/2000/svg" xmlns:xlink="http://www.w3.org/1999/xlink" x="0px" y="0px"
	 viewBox="0 0 1024 1024" style="enable-background:new 0 0 1024 1024;" xml:space="preserve">
<style type="text/css">
	.st0{fill:#9DA7B2;}
	.st1{fill:none;stroke:#9DA7B2;stroke-width:72;stroke-linecap:round;stroke-linejoin:round;stroke-miterlimit:10;}
	.st2{fill:none;}
</style>
<path class="st0" d="M512,348.5c7.1,0,13.9,2.8,18.9,7.8c5,5,7.8,11.8,7.8,18.9v373.7c0,9.5-5.1,18.4-13.3,23.1
	c-8.3,4.8-18.4,4.8-26.7,0c-8.3-4.8-13.3-13.6-13.3-23.1V375.2C485.3,360.4,497.3,348.5,512,348.5L512,348.5z M661.1,348.7
	c-15,0-27.4,11.7-28.4,26.7l-24,367.2c-0.5,6.9,2,13.7,6.7,18.7c4.7,5.1,11.4,7.9,18.3,7.9c15,0,27.4-11.7,28.4-26.6l24-367.2
	c0.5-6.9-2-13.7-6.7-18.7C674.6,351.6,668,348.8,661.1,348.7L661.1,348.7z M362.9,348.5c-6.9,0-13.6,2.8-18.3,7.9
	c-4.7,5.1-7.2,11.9-6.7,18.8l24,367.1c1,15,13.4,26.7,28.4,26.7c6.9,0,13.6-2.9,18.3-7.9c4.7-5.1,7.2-11.9,6.7-18.8l-24-367.2
	C390.4,360.1,377.9,348.5,362.9,348.5L362.9,348.5z M512,348.5 M932,164c0,19.9-16.1,36-36,36h-24c0,2.1-0.1,4.3-0.3,6.5l-57.6,696
	c-3.3,37.1-34.4,65.5-71.7,65.5H281.6c-37.3,0-68.4-28.4-71.7-65.5l-57.6-696c-0.2-2.2-0.3-4.3-0.3-6.5h-24c-19.9,0-36-16.1-36-36
	s16.1-36,36-36h96h140.8c-0.3-2.6-0.5-5.3-0.5-8c0-25.6,9.6-49.8,27-68.3c18.2-19.3,43.8-30.4,70.2-30.4h100.8
	c26.4,0,51.9,11.1,70.2,30.4c17.4,18.5,27,42.7,27,68.3c0,2.7-0.2,5.4-0.5,8H800h96C915.9,128,932,144.1,932,164z M436.4,120h151.2
	c0-7.1-2.7-13.9-7.4-18.9c-4.7-5-11.1-7.8-17.8-7.8H461.6c-6.7,0-13.1,2.8-17.8,7.8C439,106.1,436.4,112.9,436.4,120z M800,200H224
	l57.6,696h460.8L800,200z"/>
</svg>
