<?xml version="1.0" encoding="utf-8"?>
<!-- Generator: Adobe Illustrator 22.0.0, SVG Export Plug-In . SVG Version: 6.00 Build 0)  -->
<svg version="1.1" id="图层_1" xmlns="http://www.w3.org/2000/svg" xmlns:xlink="http://www.w3.org/1999/xlink" x="0px" y="0px"
	 viewBox="0 0 1024 1024" style="enable-background:new 0 0 1024 1024;" xml:space="preserve">
<style type="text/css">
	.st0{fill:#9DA7B2;}
	.st1{fill:none;stroke:#9DA7B2;stroke-width:72;stroke-linecap:round;stroke-linejoin:round;stroke-miterlimit:10;}
	.st2{fill:none;}
</style>
<path class="st0" d="M384,100L384,100c0,19.9-16.1,36-36,36H136v0v212c0,19.9-16.1,36-36,36h0c-19.9,0-36-16.1-36-36V136
	c0-39.8,32.2-72,72-72h212C367.9,64,384,80.1,384,100z M888,64H676c-19.9,0-36,16.1-36,36v0c0,19.9,16.1,36,36,36h212v212
	c0,19.9,16.1,36,36,36h0c19.9,0,36-16.1,36-36V136C960,96.2,927.8,64,888,64z M136,888L136,888l0-212c0-19.9-16.1-36-36-36h0
	c-19.9,0-36,16.1-36,36v212c0,39.8,32.2,72,72,72h212c19.9,0,36-16.1,36-36v0c0-19.9-16.1-36-36-36H136z M924,640
	c-19.9,0-36,16.1-36,36v212c0,0,0,0,0,0H676c-19.9,0-36,16.1-36,36v0c0,19.9,16.1,36,36,36h212c39.8,0,72-32.2,72-72V676
	C960,656.1,943.9,640,924,640L924,640z M964,512c0-19.9-16.1-36-36-36H96c-19.9,0-36,16.1-36,36s16.1,36,36,36h832
	C947.9,548,964,531.9,964,512z"/>
</svg>
