<?xml version="1.0" encoding="utf-8"?>
<!-- Generator: Adobe Illustrator 22.0.0, SVG Export Plug-In . SVG Version: 6.00 Build 0)  -->
<svg version="1.1" id="图层_1" xmlns="http://www.w3.org/2000/svg" xmlns:xlink="http://www.w3.org/1999/xlink" x="0px" y="0px"
	 viewBox="0 0 1024 1024" style="enable-background:new 0 0 1024 1024;" xml:space="preserve">
<style type="text/css">
	.st0{fill:#9DA7B2;}
	.st1{fill:none;stroke:#9DA7B2;stroke-width:72;stroke-linecap:round;stroke-linejoin:round;stroke-miterlimit:10;}
	.st2{fill:none;}
</style>
<path class="st0" d="M494.1,209.9c-54.4-54.4-142.9-54.4-197.3,0c-54.4,54.4-54.4,142.9,0,197.3c26.3,26.3,61.4,40.9,98.6,40.9
	c37.3,0,72.3-14.5,98.6-40.9c26.3-26.3,40.9-61.4,40.9-98.6C535,271.2,520.5,236.2,494.1,209.9z M395.5,376
	c-37.3,0-67.5-30.2-67.5-67.5s30.2-67.5,67.5-67.5s67.5,30.2,67.5,67.5S432.8,376,395.5,376z M958.5,577.4l12.5-12.5
	c28.1-28.1,28.1-73.7,0-101.8L518.5,10.5C511.7,3.8,502.6,0,493,0H131c-19.9,0-36,16.1-36,36v347.9V398v126.9
	c0,9.5,3.8,18.7,10.5,25.5l452.5,452.5c28.1,28.1,73.7,28.1,101.8,0L971,691.8c28.1-28.1,28.1-73.7,0-101.8L958.5,577.4z M167,108
	c0-19.9,16.1-36,36-36h260.2c9.5,0,18.7,3.8,25.5,10.5l406,406c14.1,14.1,14.1,36.9,0,50.9L634.5,799.7c-14.1,14.1-36.9,14.1-50.9,0
	l-406-406c-6.8-6.8-10.5-15.9-10.5-25.5V108z M894.7,666.3L634.5,926.5c-14.1,14.1-36.9,14.1-50.9,0l-406-406
	c-6.8-6.8-10.5-15.9-10.5-25.5v-10.1L558.1,876c28.1,28.1,73.7,28.1,101.8,0l244.2-244.2C907.1,643.8,904,657,894.7,666.3z"/>
</svg>
