<?xml version="1.0" encoding="utf-8"?>
<!-- Generator: Adobe Illustrator 22.0.0, SVG Export Plug-In . SVG Version: 6.00 Build 0)  -->
<svg version="1.1" id="图层_1" xmlns="http://www.w3.org/2000/svg" xmlns:xlink="http://www.w3.org/1999/xlink" x="0px" y="0px"
	 viewBox="0 0 1024 1024" style="enable-background:new 0 0 1024 1024;" xml:space="preserve">
<style type="text/css">
	.st0{fill:#9DA7B2;}
	.st1{fill:none;stroke:#9DA7B2;stroke-width:72;stroke-linecap:round;stroke-linejoin:round;stroke-miterlimit:10;}
	.st2{fill:none;}
</style>
<path class="st0" d="M448,320H320c-19.9,0-36-16.1-36-36s16.1-36,36-36h128c19.9,0,36,16.1,36,36S467.9,320,448,320z M740,512
	c0-19.9-16.1-36-36-36H320c-19.9,0-36,16.1-36,36s16.1,36,36,36h384C723.9,548,740,531.9,740,512z M512,732c0-19.9-16.1-36-36-36
	H320c-19.9,0-36,16.1-36,36s16.1,36,36,36h156C495.9,768,512,751.9,512,732z M476,952c19.9,0,36,16.1,36,36v0c0,19.9-16.1,36-36,36
	H200c-39.6,0-72-32.4-72-72V72c0-39.6,32.4-72,72-72h411c19.1,0,37.5,7.6,51,21.2l213,213.7c13.4,13.5,21,31.8,21,50.8v290.6
	c0,19.9-16.1,36-36,36h0c-19.9,0-36-16.1-36-36l0-220.3H576c-19.9,0-36-16.1-36-36V72H200.1c-0.1,0.1-0.1,0.1-0.1,0.1l0,879.7
	c0.1,0.1,0.1,0.1,0.1,0.1H476z M612,284h210.3L612,73V284z M885.5,734.5l-128-128c-14.1-14.1-36.9-14.1-50.9,0
	c-14.1,14.1-14.1,36.9,0,50.9l66.5,66.5H732c-40,0-81.3,18.4-113.5,50.5C586.4,806.6,568,848,568,888c0,64,0,100,0,100
	c0,19.9,16.1,36,36,36c0,0,0,0,0,0c19.9,0,36-16.1,36-36c0,0,0-36,0-100c0-20.7,11-44.1,29.5-62.5S711.3,796,732,796h41.1
	l-66.5,66.5c-14.1,14.1-14.1,36.9,0,50.9c7,7,16.2,10.5,25.5,10.5s18.4-3.5,25.5-10.5l128-128C899.5,771.4,899.5,748.6,885.5,734.5z
	"/>
</svg>
