<?xml version="1.0" encoding="utf-8"?>
<!-- Generator: Adobe Illustrator 22.0.0, SVG Export Plug-In . SVG Version: 6.00 Build 0)  -->
<svg version="1.1" id="图层_1" xmlns="http://www.w3.org/2000/svg" xmlns:xlink="http://www.w3.org/1999/xlink" x="0px" y="0px"
	 viewBox="0 0 1024 1024" style="enable-background:new 0 0 1024 1024;" xml:space="preserve">
<style type="text/css">
	.st0{fill:#9DA7B2;}
	.st1{fill:none;stroke:#9DA7B2;stroke-width:72;stroke-linecap:round;stroke-linejoin:round;stroke-miterlimit:10;}
	.st2{fill:none;}
</style>
<path class="st0" d="M886.1,104v376c-37.6,15.7-64,52.8-64,96v344h-624V576c0-43.2-26.4-80.3-64-96V104h114.4
	c17.5,144.4,128.1,256,261.6,256s244.1-111.6,261.6-256H886.1 M926.3,32H733.5C716,32,702,46.2,702.1,63.7c0,0.1,0,0.2,0,0.3
	c0,123.7-86,224-192,224s-192-100.3-192-224c0-0.1,0-0.2,0-0.3c0-17.5-14-31.7-31.4-31.7H93.8c-17.5,0-31.8,14.2-31.8,31.8V512
	c0,17.7,14.3,32,32,32c17.7,0,32,14.3,32,32v384.2c0,17.5,14.2,31.8,31.8,31.8h704.5c17.5,0,31.8-14.2,31.8-31.8V576
	c0-17.7,14.3-32,32-32c17.7,0,32-14.3,32-32V63.8C958.1,46.2,943.8,32,926.3,32L926.3,32z"/>
</svg>
