<?xml version="1.0" encoding="utf-8"?>
<!-- Generator: Adobe Illustrator 22.0.0, SVG Export Plug-In . SVG Version: 6.00 Build 0)  -->
<svg version="1.1" id="图层_1" xmlns="http://www.w3.org/2000/svg" xmlns:xlink="http://www.w3.org/1999/xlink" x="0px" y="0px"
	 viewBox="0 0 1024 1024" style="enable-background:new 0 0 1024 1024;" xml:space="preserve">
<style type="text/css">
	.st0{fill:#9DA7B2;}
	.st1{fill:none;stroke:#9DA7B2;stroke-width:72;stroke-linecap:round;stroke-linejoin:round;stroke-miterlimit:10;}
	.st2{fill:none;}
</style>
<path class="st0" d="M541,353.4v320c0,19.9-16.1,36-36,36s-36-16.1-36-36v-320c0-19.9,16.1-36,36-36S541,333.5,541,353.4z
	 M428.5,720L325.3,823.1c-16.5,16.5-38.6,25.6-62.2,25.6c-23.6,0-45.7-9.1-62.2-25.6c-16.5-16.5-25.6-38.6-25.6-62.2
	c0-23.6,9.1-45.7,25.6-62.2l134.4-134.4c16.5-16.5,38.6-25.6,62.2-25.6c10.8,0,21.2,1.9,31,5.5v-74.5
	c-50.6-9.9-105.1,4.7-144.1,43.7L150,647.8c-62.2,62.2-62.2,164,0,226.3l0,0c62.2,62.2,164,62.2,226.3,0l52.2-52.2V720z M647.8,150
	l-66.3,66.3v101.8l117.2-117.2c16.5-16.5,38.6-25.6,62.2-25.6c23.6,0,45.7,9.1,62.2,25.6c16.5,16.5,25.6,38.6,25.6,62.2
	c0,23.6-9.1,45.7-25.6,62.2L686,462.5C669.5,479,647.4,488,623.8,488c-15.1,0-29.5-3.7-42.3-10.7l0,77c53.6,14.5,113.5,0.9,155.4-41
	L874,376.2c62.2-62.2,62.2-164,0-226.3l0,0C811.8,87.7,710,87.7,647.8,150z"/>
</svg>
