<?xml version="1.0" encoding="utf-8"?>
<!-- Generator: Adobe Illustrator 21.0.2, SVG Export Plug-In . SVG Version: 6.00 Build 0)  -->
<svg version="1.1" id="图层_1" xmlns="http://www.w3.org/2000/svg" xmlns:xlink="http://www.w3.org/1999/xlink" x="0px" y="0px"
	 viewBox="0 0 1024 1024" style="enable-background:new 0 0 1024 1024;" xml:space="preserve">
<style type="text/css">
	.st0{fill:#9DA7B2;}
</style>
<path class="st0" d="M315.5,793.5c14.1-14,14.1-36.8,0.1-50.9L86.7,512.9l228.9-231.6c14-14.1,13.8-36.9-0.3-50.9
	c-14.1-14-36.9-13.8-50.9,0.3l-254.1,257c-13.9,14.1-13.9,36.7,0.1,50.7l254.1,255c7,7.1,16.3,10.6,25.5,10.6
	C299.2,804,308.4,800.5,315.5,793.5z M733.9,804c9.2,0,18.5-3.5,25.5-10.6l254.1-255c14-14,14-36.7,0.1-50.7l-254.1-257
	c-14-14.1-36.8-14.3-50.9-0.3c-14.1,14-14.3,36.8-0.3,50.9l228.9,231.6L708.4,742.6c-14,14.1-14,36.9,0.1,50.9
	C715.6,800.5,724.8,804,733.9,804z"/>
</svg>
