<?xml version="1.0" encoding="utf-8"?>
<!-- Generator: Adobe Illustrator 22.0.0, SVG Export Plug-In . SVG Version: 6.00 Build 0)  -->
<svg version="1.1" id="图层_1" xmlns="http://www.w3.org/2000/svg" xmlns:xlink="http://www.w3.org/1999/xlink" x="0px" y="0px"
	 viewBox="0 0 1024 1024" style="enable-background:new 0 0 1024 1024;" xml:space="preserve">
<style type="text/css">
	.st0{fill:#9DA7B2;}
	.st1{fill:none;stroke:#9DA7B2;stroke-width:72;stroke-linecap:round;stroke-linejoin:round;stroke-miterlimit:10;}
	.st2{fill:none;}
</style>
<path class="st0" d="M548,864c0,19.9-16.1,36-36,36H192c-19.9,0-36-16.1-36-36s16.1-36,36-36h124V196H132v92c0,19.9-16.1,36-36,36
	s-36-16.1-36-36V160c0-19.9,16.1-36,36-36h512c19.9,0,36,16.1,36,36v128c0,19.9-16.1,36-36,36s-36-16.1-36-36v-92H388v632h124
	C531.9,828,548,844.1,548,864z M928,380H608c-19.9,0-36,16.1-36,36v64c0,19.9,16.1,36,36,36s36-16.1,36-36v-28h88v376h-28
	c-19.9,0-36,16.1-36,36s16.1,36,36,36h128c19.9,0,36-16.1,36-36s-16.1-36-36-36h-28V452h88v28c0,19.9,16.1,36,36,36s36-16.1,36-36
	v-64C964,396.1,947.9,380,928,380z"/>
</svg>
