<?xml version="1.0" encoding="utf-8"?>
<!-- Generator: Adobe Illustrator 22.0.0, SVG Export Plug-In . SVG Version: 6.00 Build 0)  -->
<svg version="1.1" id="图层_1" xmlns="http://www.w3.org/2000/svg" xmlns:xlink="http://www.w3.org/1999/xlink" x="0px" y="0px"
	 viewBox="0 0 1024 1024" style="enable-background:new 0 0 1024 1024;" xml:space="preserve">
<style type="text/css">
	.st0{fill:#9DA7B2;}
	.st1{fill:none;stroke:#9DA7B2;stroke-width:72;stroke-linecap:round;stroke-linejoin:round;stroke-miterlimit:10;}
	.st2{fill:none;}
</style>
<path class="st0" d="M1030.1,384c0-5.9-1.4-11.5-4-16.5V200c0-39.8-32.2-72-72-72h-880c-39.8,0-72,32.2-72,72v167.5
	c-2.6,4.9-4,10.5-4,16.5s1.4,11.5,4,16.5V824c0,39.8,32.2,72,72,72h880c39.8,0,72-32.2,72-72V400.5
	C1028.6,395.5,1030.1,389.9,1030.1,384z M74.1,200h880h0v148h-880V200C74.1,200,74.1,200,74.1,200z M954.1,824h-880c0,0,0,0,0,0V420
	h880V824C954.1,824,954.1,824,954.1,824z M354.1,708h-192c-19.9,0-36-16.1-36-36s16.1-36,36-36h192c19.9,0,36,16.1,36,36
	S373.9,708,354.1,708z"/>
</svg>
