<?xml version="1.0" encoding="utf-8"?>
<!-- Generator: Adobe Illustrator 22.0.0, SVG Export Plug-In . SVG Version: 6.00 Build 0)  -->
<svg version="1.1" id="图层_1" xmlns="http://www.w3.org/2000/svg" xmlns:xlink="http://www.w3.org/1999/xlink" x="0px" y="0px"
	 viewBox="0 0 1024 1024" style="enable-background:new 0 0 1024 1024;" xml:space="preserve">
<style type="text/css">
	.st0{fill:#9DA7B2;}
	.st1{fill:none;stroke:#9DA7B2;stroke-width:72;stroke-linecap:round;stroke-linejoin:round;stroke-miterlimit:10;}
	.st2{fill:none;}
</style>
<path class="st0" d="M484,740c0,19.9-16.1,36-36,36H320c-19.9,0-36-16.1-36-36s16.1-36,36-36h128C467.9,704,484,720.1,484,740z
	 M704,476H320c-19.9,0-36,16.1-36,36s16.1,36,36,36h384c19.9,0,36-16.1,36-36S723.9,476,704,476z M704,256H320
	c-19.9,0-36,16.1-36,36s16.1,36,36,36h384c19.9,0,36-16.1,36-36S723.9,256,704,256z M611,1024H200c-39.6,0-72-32.4-72-72V72
	c0-39.6,32.4-72,72-72l624,0c39.6,0,72,32.4,72,72v666.3c0,19.1-7.6,37.3-21,50.8l-213,213.7C648.5,1016.4,630.2,1024,611,1024z
	 M822.3,740H612v211L822.3,740z M823.9,72l-623.7,0c-0.1,0.1-0.1,0.1-0.1,0.1l0,879.7c0.1,0.1,0.1,0.1,0.1,0.1H540V704
	c0-19.9,16.1-36,36-36h248l0-595.9C823.9,72.1,823.9,72.1,823.9,72z"/>
</svg>
