<?xml version="1.0" encoding="utf-8"?>
<!-- Generator: Adobe Illustrator 22.0.0, SVG Export Plug-In . SVG Version: 6.00 Build 0)  -->
<svg version="1.1" id="图层_1" xmlns="http://www.w3.org/2000/svg" xmlns:xlink="http://www.w3.org/1999/xlink" x="0px" y="0px"
	 viewBox="0 0 1024 1025" style="enable-background:new 0 0 1024 1025;" xml:space="preserve">
<style type="text/css">
	.st0{fill:#9DA7B2;}
	.st1{fill:none;stroke:#9DA7B2;stroke-width:72;stroke-linecap:round;stroke-linejoin:round;stroke-miterlimit:10;}
	.st2{fill:none;}
</style>
<path class="st0" d="M924,448.5L924,448.5c19.9,0,36,16.1,36,36v404c0,39.8-32.2,72-72,72H136c-39.8,0-72-32.2-72-72v-404
	c0-19.9,16.1-36,36-36h0c19.9,0,36,16.1,36,36v404c0,0,0,0,0,0h752v-404C888,464.6,904.1,448.5,924,448.5z M222,724.5l87.2-130.8
	l40.7,122.2c4.8,14.3,18,24.2,33.1,24.6c15.1,0.5,28.9-8.6,34.5-22.6L520,461.4l90,135.1c6.7,10,17.9,16,30,16s23.3-6,30-16l256-384
	c11-16.5,6.6-38.9-10-49.9c-16.5-11-38.9-6.6-49.9,10L640,511.6l-98-147.1c-7.4-11.1-20.4-17.2-33.7-15.8s-24.7,10-29.7,22.4
	l-91.5,228.8l-32.9-98.8c-4.3-13-15.7-22.5-29.4-24.3c-13.6-1.8-27.1,4.3-34.7,15.7l-128,192c-11,16.5-6.6,38.9,10,49.9
	c6.1,4.1,13.1,6,19.9,6C203.6,740.5,215,734.9,222,724.5z"/>
</svg>
