<?xml version="1.0" encoding="utf-8"?>
<!-- Generator: Adobe Illustrator 22.0.0, SVG Export Plug-In . SVG Version: 6.00 Build 0)  -->
<svg version="1.1" id="图层_1" xmlns="http://www.w3.org/2000/svg" xmlns:xlink="http://www.w3.org/1999/xlink" x="0px" y="0px"
	 viewBox="0 0 1024 1024" style="enable-background:new 0 0 1024 1024;" xml:space="preserve">
<style type="text/css">
	.st0{fill:#9DA7B2;}
	.st1{fill:none;stroke:#9DA7B2;stroke-width:72;stroke-linecap:round;stroke-linejoin:round;stroke-miterlimit:10;}
	.st2{fill:none;}
</style>
<path class="st0" d="M847.9,0H176.1C132,0,96,36,96,80.1v863.3c0,44.1,36,80.1,80.1,80.1h671.8c44.1,0,80.1-36,80.1-80.1V80.1
	C928,36,892,0,847.9,0z M176.1,72h671.8c4.3,0,8.1,3.8,8.1,8.1V668H736c-9.5,0-18.7,3.8-25.5,10.5L593.1,796H430.9L313.5,678.5
	c-6.8-6.8-15.9-10.5-25.5-10.5H168V80.1C168,75.8,171.8,72,176.1,72z M847.9,951.5H176.1c-4.3,0-8.1-3.8-8.1-8.1V740h105.1
	l117.5,117.5c6.8,6.8,15.9,10.5,25.5,10.5h192c9.5,0,18.7-3.8,25.5-10.5L750.9,740H856v203.4C856,947.7,852.2,951.5,847.9,951.5z
	 M704,320H320c-19.9,0-36-16.1-36-36s16.1-36,36-36h384c19.9,0,36,16.1,36,36S723.9,320,704,320z M704,484H320
	c-19.9,0-36-16.1-36-36s16.1-36,36-36h384c19.9,0,36,16.1,36,36S723.9,484,704,484z M608,648H416c-19.9,0-36-16.1-36-36
	s16.1-36,36-36h192c19.9,0,36,16.1,36,36S627.9,648,608,648z"/>
</svg>
