<?xml version="1.0" encoding="utf-8"?>
<!-- Generator: Adobe Illustrator 22.0.0, SVG Export Plug-In . SVG Version: 6.00 Build 0)  -->
<svg version="1.1" id="图层_1" xmlns="http://www.w3.org/2000/svg" xmlns:xlink="http://www.w3.org/1999/xlink" x="0px" y="0px"
	 viewBox="0 0 1024 1024" style="enable-background:new 0 0 1024 1024;" xml:space="preserve">
<style type="text/css">
	.st0{fill:#9DA7B2;}
	.st1{fill:none;stroke:#9DA7B2;stroke-width:72;stroke-linecap:round;stroke-linejoin:round;stroke-miterlimit:10;}
	.st2{fill:none;}
</style>
<path class="st0" d="M382.1,548c0,19.9-16.1,36-36,36h-64c-19.9,0-36-16.1-36-36s16.1-36,36-36h64C365.9,512,382.1,528.1,382.1,548z
	 M538.1,512h-64c-19.9,0-36,16.1-36,36s16.1,36,36,36h64c19.9,0,36-16.1,36-36S557.9,512,538.1,512z M730.1,512h-64
	c-19.9,0-36,16.1-36,36s16.1,36,36,36h64c19.9,0,36-16.1,36-36S749.9,512,730.1,512z M346.1,696h-64c-19.9,0-36,16.1-36,36
	s16.1,36,36,36h64c19.9,0,36-16.1,36-36S365.9,696,346.1,696z M538.1,696h-64c-19.9,0-36,16.1-36,36s16.1,36,36,36h64
	c19.9,0,36-16.1,36-36S557.9,696,538.1,696z M730.1,696h-64c-19.9,0-36,16.1-36,36s16.1,36,36,36h64c19.9,0,36-16.1,36-36
	S749.9,696,730.1,696z M958.1,200v688c0,39.6-32.4,72-72,72h-752c-39.6,0-72-32.4-72-72V200c0-39.6,32.4-72,72-72h56v72h-55.9
	c0,0-0.1,0.1-0.1,0.1V348h752V200.1c0,0-0.1-0.1-0.1-0.1h-55.9v-72h56C925.7,128,958.1,160.4,958.1,200z M886.1,887.9l0-467.9h-752
	l0,467.9c0,0,0.1,0.1,0.1,0.1l751.7,0C886,888,886,887.9,886.1,887.9z M638.1,128h-256v72h256V128z M289.8,256c19.9,0,36-16.1,36-36
	V90c0-19.9-16.1-36-36-36s-36,16.1-36,36v130C253.8,239.9,269.9,256,289.8,256z M733.8,256c19.9,0,36-16.1,36-36V90
	c0-19.9-16.1-36-36-36s-36,16.1-36,36v130C697.8,239.9,713.9,256,733.8,256z"/>
</svg>
