<?xml version="1.0" encoding="utf-8"?>
<!-- Generator: Adobe Illustrator 22.0.0, SVG Export Plug-In . SVG Version: 6.00 Build 0)  -->
<svg version="1.1" id="图层_1" xmlns="http://www.w3.org/2000/svg" xmlns:xlink="http://www.w3.org/1999/xlink" x="0px" y="0px"
	 viewBox="0 0 1024 1024" style="enable-background:new 0 0 1024 1024;" xml:space="preserve">
<style type="text/css">
	.st0{fill:#9DA7B2;}
	.st1{fill:none;stroke:#9DA7B2;stroke-width:72;stroke-linecap:round;stroke-linejoin:round;stroke-miterlimit:10;}
	.st2{fill:none;}
</style>
<path class="st0" d="M516,262v496h-79V262H516 M549.2,190H403.8c-21.4,0-38.8,17.4-38.8,38.8v562.4c0,21.4,17.4,38.8,38.8,38.8
	h145.4c21.4,0,38.8-17.4,38.8-38.8V228.8C588,207.4,570.6,190,549.2,190L549.2,190z M208,134v624h-79V134H208 M237.5,62h-138
	C76,62,57,81,57,104.5v683C57,811,76,830,99.5,830h138c23.5,0,42.5-19,42.5-42.5v-683C280,81,261,62,237.5,62L237.5,62z M700.5,926
	c0-19.9-16.1-36-36-36H66.3c-23.1,0-41.8,16.1-41.8,36s18.7,36,41.8,36h598.2C684.4,962,700.5,945.9,700.5,926L700.5,926z
	 M860,573.3L860,573.3c19.9,0,36-16.1,36-36V413.5c0-17.9-14.5-32.5-32.5-32.5h-158c-17.9,0-32.5,14.5-32.5,32.5v255.6
	c0,19.9,16.1,36,36,36h0c19.9,0,36-16.1,36-36V453h79v84.3C824,557.2,840.1,573.3,860,573.3z M988,764.2h-89.8v-89.8
	c0-19.9-16.1-36-36-36s-36,16.1-36,36v89.8h-89.8c-19.9,0-36,16.1-36,36s16.1,36,36,36h89.8V926c0,19.9,16.1,36,36,36s36-16.1,36-36
	v-89.8H988c19.9,0,36-16.1,36-36S1007.9,764.2,988,764.2z"/>
</svg>
