<?xml version="1.0" encoding="utf-8"?>
<!-- Generator: Adobe Illustrator 22.0.0, SVG Export Plug-In . SVG Version: 6.00 Build 0)  -->
<svg version="1.1" id="图层_1" xmlns="http://www.w3.org/2000/svg" xmlns:xlink="http://www.w3.org/1999/xlink" x="0px" y="0px"
	 viewBox="0 0 1024 1024" style="enable-background:new 0 0 1024 1024;" xml:space="preserve">
<style type="text/css">
	.st0{fill:#9DA7B2;}
	.st1{fill:none;stroke:#9DA7B2;stroke-width:72;stroke-linecap:round;stroke-linejoin:round;stroke-miterlimit:10;}
	.st2{fill:none;}
</style>
<path class="st0" d="M317.4,952.6c-39.8,0-72-32.2-72-72V569.3c0-6.7,0.9-13.3,2.8-19.7l111.4-390.9c7.1-25.1,22.7-47.5,43.9-63.2
	c21-15.6,46-23.9,72.3-24c0.1,0,0.2,0,0.4,0c24.2,0,47,7.3,65.9,21c30.7,22.2,47.9,57.7,46,95l-7,139.5h276.4
	c12.9,0,25.6,3.5,36.7,10.1c41.7,24.7,67.5,68.5,67.5,114.4c0,30.5-10.6,59.8-29.6,83.4c4.3,13.1,6.4,26.8,6.4,41
	c0,30.6-10.6,59.9-29.6,83.4c4.3,13.1,6.4,26.8,6.4,41c0,30.6-10.6,59.9-29.6,83.4c4.3,13.1,6.4,26.8,6.4,41
	c0,52.8-31.7,100.7-80.8,122.2c-9.1,4-18.9,6-28.8,6H317.4z M220.8,916.2V596.8c0-20.1-16.1-36.4-36-36.4H98.2
	c-19.9,0-36,16.3-36,36.4v319.4c0,20.1,16.1,36.4,36,36.4h86.6C204.7,952.6,220.8,936.3,220.8,916.2z"/>
</svg>
