<?xml version="1.0" encoding="utf-8"?>
<!-- Generator: Adobe Illustrator 22.0.0, SVG Export Plug-In . SVG Version: 6.00 Build 0)  -->
<svg version="1.1" id="图层_1" xmlns="http://www.w3.org/2000/svg" xmlns:xlink="http://www.w3.org/1999/xlink" x="0px" y="0px"
	 viewBox="0 0 1024 1024" style="enable-background:new 0 0 1024 1024;" xml:space="preserve">
<style type="text/css">
	.st0{fill:#9DA7B2;}
	.st1{fill:none;stroke:#9DA7B2;stroke-width:72;stroke-linecap:round;stroke-linejoin:round;stroke-miterlimit:10;}
	.st2{fill:none;}
</style>
<path class="st0" d="M796,128c19.9,0,36,16.1,36,36v348c0,176-144,320-320,320h0c-176,0-320-144-320-320V164c0-19.9,16.1-36,36-36h0
	c19.9,0,36,16.1,36,36v348c0,33.3,6.6,65.6,19.5,96.1c12.5,29.5,30.5,56.1,53.4,79c22.9,22.9,49.5,40.8,79,53.4
	c30.5,13,62.8,19.5,96.1,19.5c33.3,0,65.6-6.6,96.1-19.5c29.5-12.5,56.1-30.5,79-53.4c22.9-22.9,40.8-49.5,53.4-79
	c13-30.5,19.5-62.8,19.5-96.1V164C760,144.1,776.1,128,796,128L796,128z M836,896c0-19.9-16.1-36-36-36H224c-19.9,0-36,16.1-36,36
	s16.1,36,36,36h576C819.9,932,836,915.9,836,896z"/>
</svg>
