<?xml version="1.0" encoding="utf-8"?>
<!-- Generator: Adobe Illustrator 22.0.0, SVG Export Plug-In . SVG Version: 6.00 Build 0)  -->
<svg version="1.1" id="图层_1" xmlns="http://www.w3.org/2000/svg" xmlns:xlink="http://www.w3.org/1999/xlink" x="0px" y="0px"
	 viewBox="0 0 1024 1024" style="enable-background:new 0 0 1024 1024;" xml:space="preserve">
<style type="text/css">
	.st0{fill:#9DA7B2;}
	.st1{fill:none;stroke:#9DA7B2;stroke-width:72;stroke-linecap:round;stroke-linejoin:round;stroke-miterlimit:10;}
	.st2{fill:none;}
</style>
<path class="st0" d="M369,433c0,27.1-21.9,49-49,49s-49-21.9-49-49s21.9-49,49-49S369,405.9,369,433z M512,384
	c-27.1,0-49,21.9-49,49s21.9,49,49,49s49-21.9,49-49S539.1,384,512,384z M704,384c-27.1,0-49,21.9-49,49s21.9,49,49,49
	s49-21.9,49-49S731.1,384,704,384z M960,192v496c0,39.8-32.2,72-72,72h-80v98.7c0,22.7-10.7,44.1-28.9,57.7
	c-12.6,9.4-27.7,14.3-43.1,14.3c-6.8,0-13.7-1-20.5-3L115.5,757C85,748,64,719.9,64,688v-48v-98.7V351V192c0-39.8,32.2-72,72-72h277
	h338h72h65C927.8,120,960,152.2,960,192z M888,192H136v496l600,170.7V688h152V192z"/>
</svg>
