<?xml version="1.0" encoding="utf-8"?>
<!-- Generator: Adobe Illustrator 21.0.2, SVG Export Plug-In . SVG Version: 6.00 Build 0)  -->
<svg version="1.1" id="图层_1" xmlns="http://www.w3.org/2000/svg" xmlns:xlink="http://www.w3.org/1999/xlink" x="0px" y="0px"
	 viewBox="0 0 1024 1024" style="enable-background:new 0 0 1024 1024;" xml:space="preserve">
<style type="text/css">
	.st0{fill:#9DA7B2;}
	.st1{fill:#9EA6B0;}
</style>
<path class="st1" d="M672,264.5H228.1c-19.9,0-36-16.1-36-36s16.1-36,36-36H672c19.9,0,36,16.1,36,36S691.9,264.5,672,264.5z
	 M228.1,384.5c-19.9,0-36,16.1-36,36s16.1,36,36,36h184c19.9,0,36-16.1,36-36s-16.1-36-36-36H228.1z M823.1,669.9
	c-11.9-11.9-31.1-11.9-43,0L641.6,801.6l-77.7-77.7c-11.9-11.9-31.1-11.9-43,0c-11.9,11.9-11.9,31.1,0,43l99.2,99.2
	c5.9,5.9,13.7,8.9,21.5,8.9s15.6-3,21.5-8.9l160-153.2C835,701,835,681.7,823.1,669.9z M960,736c0,159.1-128.9,288-288,288
	S384,895.1,384,736s128.9-288,288-288S960,576.9,960,736z M888,736c0-57.7-22.5-111.9-63.3-152.7c-40.8-40.8-95-63.3-152.7-63.3
	s-111.9,22.5-152.7,63.3c-40.8,40.8-63.3,95-63.3,152.7s22.5,111.9,63.3,152.7c40.8,40.8,95,63.3,152.7,63.3s111.9-22.5,152.7-63.3
	C865.5,847.9,888,793.7,888,736z M348,952H136V72h624v276c0,19.9,16.1,36,36,36l0,0c19.9,0,36-16.1,36-36V64c0-35.3-28.7-64-64-64
	H128C92.7,0,64,28.7,64,64v896c0,35.3,28.7,64,64,64h220c19.9,0,36-16.1,36-36l0,0C384,968.1,367.9,952,348,952z"/>
</svg>
