<?xml version="1.0" encoding="utf-8"?>
<!-- Generator: Adobe Illustrator 22.0.0, SVG Export Plug-In . SVG Version: 6.00 Build 0)  -->
<svg version="1.1" id="图层_1" xmlns="http://www.w3.org/2000/svg" xmlns:xlink="http://www.w3.org/1999/xlink" x="0px" y="0px"
	 viewBox="0 0 1024 1024" style="enable-background:new 0 0 1024 1024;" xml:space="preserve">
<style type="text/css">
	.st0{fill:#9DA7B2;}
	.st1{fill:none;stroke:#9DA7B2;stroke-width:72;stroke-linecap:round;stroke-linejoin:round;stroke-miterlimit:10;}
	.st2{fill:none;}
</style>
<path class="st0" d="M941.2,448.2c0-30.6-10.6-59.9-29.6-83.4c4.3-13.1,6.4-26.8,6.4-41c0-30.6-10.6-59.9-29.6-83.4
	c4.3-13.1,6.4-26.8,6.4-41c0-52.8-31.7-100.7-80.8-122.2c-9.1-4-18.9-6-28.8-6H320.1c-13.2,0-25.6,3.6-36.2,9.8
	c-10.7-6.3-23.1-9.9-36.4-9.9H136.1c-39.8,0-72,32.2-72,72v308c0,39.8,32.2,72,72,72h111.4c5.8,0,11.4-0.7,16.7-2l98.1,344.1h0
	c7.1,25.1,22.7,47.5,43.9,63.2c21,15.6,46,23.9,72.3,24c0.1,0,0.2,0,0.4,0c24.2,0,46.9-7.2,65.8-20.9c30.8-22.3,48-57.8,46-95.1
	l-7-139.4h276.4c12.9,0,25.6-3.5,36.7-10.1c19.8-11.7,36.5-28,48.2-47.1c12.6-20.6,19.3-43.8,19.3-67.3c0-30.5-10.6-59.8-29.6-83.4
	C939,476.1,941.2,462.4,941.2,448.2z M247.4,451.1H136.1v-308h111.4V451.1z M892.4,572.6c0,20.7-12.3,40.7-32.3,52.5H508l10.8,215.1
	c0.7,12.9-5.3,25.1-16.4,33.1c-6.7,4.9-15.1,7.3-23.6,7.3c-22.1-0.1-41.4-14.5-47.3-35L320.1,454.6V143.3h465.1
	c22.8,10,37.6,31.9,37.6,56.2c0,10.5-2.6,20.5-7.7,29.6l-15.6,27.5l24.5,20.6c13.9,11.7,22,28.7,22,46.6c0,10.5-2.6,20.5-7.7,29.6
	L822.7,381l24.5,20.6c13.9,11.7,22,28.7,22,46.6c0,10.5-2.6,20.5-7.7,29.6l-15.6,27.5l24.5,20.6
	C884.3,537.8,892.4,554.7,892.4,572.6z"/>
</svg>
