<?xml version="1.0" encoding="utf-8"?>
<!-- Generator: Adobe Illustrator 22.0.0, SVG Export Plug-In . SVG Version: 6.00 Build 0)  -->
<svg version="1.1" id="图层_1" xmlns="http://www.w3.org/2000/svg" xmlns:xlink="http://www.w3.org/1999/xlink" x="0px" y="0px"
	 viewBox="0 0 1024 1025" style="enable-background:new 0 0 1024 1025;" xml:space="preserve">
<style type="text/css">
	.st0{fill:#9DA7B2;}
	.st1{fill:none;stroke:#9DA7B2;stroke-width:72;stroke-linecap:round;stroke-linejoin:round;stroke-miterlimit:10;}
	.st2{fill:none;}
</style>
<path class="st0" d="M615.9,947.5c-15.6,0-30.9-6.1-42.4-17.6l-151-151c-14.1-14.1-14.1-36.9,0-50.9c14.1-14.1,36.9-14.1,50.9,0
	L604,858.5V433.5c0-8.2,2.8-16.1,7.9-22.5l209.2-261.5h0H202.9c0,0,0,0,0,0L412.1,411c5.1,6.4,7.9,14.3,7.9,22.5v128
	c0,19.9-16.1,36-36,36s-36-16.1-36-36V446.1L146.7,194.4c-17.4-21.8-20.8-51-8.7-76.2s37-40.8,64.9-40.8h618.2
	c27.9,0,52.8,15.6,64.9,40.8s8.8,54.4-8.7,76.2L676,446.1v441.4c0,24.4-14.5,46.1-37,55.4C631.5,946,623.7,947.5,615.9,947.5z"/>
</svg>
