<?xml version="1.0" encoding="utf-8"?>
<!-- Generator: Adobe Illustrator 22.0.0, SVG Export Plug-In . SVG Version: 6.00 Build 0)  -->
<svg version="1.1" id="图层_1" xmlns="http://www.w3.org/2000/svg" xmlns:xlink="http://www.w3.org/1999/xlink" x="0px" y="0px"
	 viewBox="0 0 1024 1024" style="enable-background:new 0 0 1024 1024;" xml:space="preserve">
<style type="text/css">
	.st0{fill:#9DA7B2;}
	.st1{fill:none;stroke:#9DA7B2;stroke-width:72;stroke-linecap:round;stroke-linejoin:round;stroke-miterlimit:10;}
	.st2{fill:none;}
</style>
<path class="st0" d="M757.1,387.8h-222c-19.8,0-36-16.2-36-36v0c0-19.8,16.2-36,36-36h222c19.8,0,36,16.2,36,36v0
	C793.1,371.6,776.9,387.8,757.1,387.8z M793.1,512L793.1,512c0-19.8-16.2-36-36-36h-222c-19.8,0-36,16.2-36,36v0
	c0,19.8,16.2,36,36,36h222C776.9,548,793.1,531.8,793.1,512z M793.1,672.2L793.1,672.2c0-19.8-16.2-36-36-36h-222
	c-19.8,0-36,16.2-36,36v0c0,19.8,16.2,36,36,36h222C776.9,708.2,793.1,692,793.1,672.2z M886.1,55.9H316c-39.6,0-72,32.4-72,72V219
	c0,19.9,16.1,36,36,36h0c19.9,0,36-16.1,36-36v-91c0.1-0.1,0.1-0.1,0.1-0.1h569.8c0.1,0.1,0.1,0.1,0.1,0.1l0,768
	c-0.1,0.1-0.1,0.1-0.1,0.1l-569.8,0c-0.1-0.1-0.1-0.1-0.1-0.1V740.5c0-19.9-16.1-36-36-36h0c-19.9,0-36,16.1-36,36v155.6
	c0,39.6,32.4,72,72,72h570.1c39.6,0,72-32.4,72-72V127.9C958.1,88.3,925.7,55.9,886.1,55.9z M417.1,476H184l66.5-66.5
	c14.1-14.1,14.1-36.9,0-50.9c-14.1-14.1-36.9-14.1-50.9,0l-128,128c0,0-0.1,0.1-0.1,0.1c-0.4,0.4-0.7,0.8-1.1,1.2
	c-0.2,0.2-0.4,0.5-0.6,0.7c-0.2,0.2-0.4,0.4-0.6,0.7c-0.2,0.3-0.5,0.6-0.7,0.9c-0.1,0.2-0.3,0.3-0.4,0.5c-0.2,0.3-0.5,0.6-0.7,1
	c-0.1,0.2-0.2,0.3-0.3,0.5c-0.2,0.3-0.4,0.7-0.6,1c-0.1,0.2-0.2,0.3-0.3,0.5c-0.2,0.3-0.4,0.7-0.6,1c-0.1,0.2-0.2,0.4-0.3,0.5
	c-0.2,0.3-0.3,0.6-0.5,1c-0.1,0.2-0.2,0.4-0.3,0.6c-0.1,0.3-0.3,0.6-0.4,0.9c-0.1,0.3-0.2,0.5-0.3,0.8c-0.1,0.3-0.2,0.5-0.3,0.8
	c-0.1,0.3-0.2,0.6-0.3,0.9c-0.1,0.2-0.2,0.5-0.2,0.7c-0.1,0.3-0.2,0.7-0.3,1c-0.1,0.2-0.1,0.4-0.2,0.6c-0.1,0.4-0.2,0.7-0.3,1.1
	c0,0.2-0.1,0.4-0.1,0.6c-0.1,0.4-0.2,0.8-0.2,1.1c0,0.2-0.1,0.4-0.1,0.6c-0.1,0.4-0.1,0.8-0.2,1.1c0,0.2-0.1,0.5-0.1,0.7
	c0,0.3-0.1,0.7-0.1,1c0,0.3,0,0.6-0.1,0.9c0,0.3,0,0.6-0.1,0.8c0,0.6,0,1.2,0,1.8v0c0,0,0,0,0,0c0,0.6,0,1.2,0,1.8
	c0,0.3,0,0.6,0.1,0.8c0,0.3,0,0.6,0.1,0.9c0,0.4,0.1,0.7,0.1,1.1c0,0.2,0.1,0.5,0.1,0.7c0.1,0.4,0.1,0.8,0.2,1.1
	c0,0.2,0.1,0.4,0.1,0.6c0.1,0.4,0.2,0.8,0.2,1.1c0,0.2,0.1,0.4,0.1,0.6c0.1,0.4,0.2,0.7,0.3,1.1c0.1,0.2,0.1,0.4,0.2,0.6
	c0.1,0.3,0.2,0.7,0.3,1c0.1,0.2,0.2,0.5,0.2,0.7c0.1,0.3,0.2,0.6,0.3,0.9c0.1,0.3,0.2,0.5,0.3,0.8c0.1,0.3,0.2,0.5,0.3,0.8
	c0.1,0.3,0.3,0.6,0.4,0.9c0.1,0.2,0.2,0.4,0.3,0.6c0.2,0.3,0.3,0.6,0.5,1c0.1,0.2,0.2,0.4,0.3,0.5c0.2,0.3,0.4,0.7,0.6,1
	c0.1,0.2,0.2,0.3,0.3,0.5c0.2,0.3,0.4,0.7,0.6,1c0.1,0.2,0.2,0.3,0.3,0.5c0.2,0.3,0.4,0.6,0.7,1c0.1,0.2,0.3,0.3,0.4,0.5
	c0.2,0.3,0.4,0.6,0.7,0.9c0.2,0.2,0.4,0.4,0.5,0.6c0.2,0.2,0.4,0.5,0.6,0.7c0.3,0.4,0.7,0.7,1,1.1c0.1,0.1,0.1,0.1,0.2,0.2l128,128
	c7,7,16.2,10.5,25.5,10.5s18.4-3.5,25.5-10.5c14.1-14.1,14.1-36.9,0-50.9L184,548h233.1c19.9,0,36-16.1,36-36
	C453.1,492.1,437,476,417.1,476z"/>
</svg>
