<?xml version="1.0" encoding="utf-8"?>
<!-- Generator: Adobe Illustrator 22.0.0, SVG Export Plug-In . SVG Version: 6.00 Build 0)  -->
<svg version="1.1" id="图层_1" xmlns="http://www.w3.org/2000/svg" xmlns:xlink="http://www.w3.org/1999/xlink" x="0px" y="0px"
	 viewBox="0 0 1024 1024" style="enable-background:new 0 0 1024 1024;" xml:space="preserve">
<style type="text/css">
	.st0{fill:#9DA7B2;}
	.st1{fill:none;stroke:#9DA7B2;stroke-width:72;stroke-linecap:round;stroke-linejoin:round;stroke-miterlimit:10;}
	.st2{fill:none;}
</style>
<path class="st0" d="M640,72c1.2,0,2.4,0,3.5,0c23.3,0.3,46.1,3,68.4,8.3L619,173.2c-13.5,13.5-21.1,31.8-21.1,50.9
	s7.6,37.4,21.1,50.9l128,128c13.5,13.5,31.8,21.1,50.9,21.1c19.1,0,37.4-7.6,50.9-21.1l94.1-94.1c5.9,24.1,9,48.9,9,74.2
	c0.1,41.8-8,82.4-24,120.7c-15.5,37-37.8,70.4-66.2,99.2c-28.4,28.8-61.5,51.5-98.3,67.5C725.5,687,685,695.6,643.2,696
	c-1.1,0-2.1,0-3.2,0c-47.1,0-92.4-10.2-134.5-30.4c-9.9-4.7-20.5-7.1-31.1-7.1c-18.7,0-37.1,7.3-50.9,21.1L167.4,935.8
	C157,946.2,142.9,952,127.8,952c-15.1,0-29.1-5.8-39.6-16.2C77.8,925.3,72,911.2,72,896.2c0-15.1,5.8-29.1,16.2-39.6l256.1-256.1
	c21.6-21.6,27.2-54.5,14-82c-20.6-43.1-30.8-89.4-30.4-137.7c0.4-41.7,9-82.2,25.5-120.2c15.9-36.8,38.6-69.8,67.3-98.2
	c28.7-28.4,62-50.6,99-66.2C557.9,80.1,598.4,72,640,72C640,72,640,72,640,72 M987.7,264.2L987.7,264.2L987.7,264.2 M640,0
	C430.3,0,258.1,169.7,256,380c-0.6,60.7,12.9,118.3,37.4,169.5L37.3,805.6c-49.8,49.8-49.8,131.2,0,181v0
	c24.9,24.9,57.7,37.3,90.5,37.3c32.8,0,65.6-12.4,90.5-37.3l256.1-256.1c50.1,24,106.3,37.4,165.6,37.4c1.3,0,2.6,0,4,0
	c210.4-2.1,380.6-174.6,380-385c-0.2-57.3-12.9-111.7-35.5-160.5c-5.6-12-17.3-18.6-29.1-18.6c-8.1,0-16.2,3-22.6,9.4L797.9,352.1
	l-128-128L808.1,86c15.8-15.8,11-42.5-9.4-51.8C751.6,12.8,699.4,0.6,644.4,0C642.9,0,641.5,0,640,0L640,0z"/>
</svg>
