<?xml version="1.0" encoding="utf-8"?>
<!-- Generator: Adobe Illustrator 22.0.0, SVG Export Plug-In . SVG Version: 6.00 Build 0)  -->
<svg version="1.1" id="图层_1" xmlns="http://www.w3.org/2000/svg" xmlns:xlink="http://www.w3.org/1999/xlink" x="0px" y="0px"
	 viewBox="0 0 1024 1024" style="enable-background:new 0 0 1024 1024;" xml:space="preserve">
<style type="text/css">
	.st0{fill:#9DA7B2;}
	.st1{fill:none;stroke:#9DA7B2;stroke-width:72;stroke-linecap:round;stroke-linejoin:round;stroke-miterlimit:10;}
	.st2{fill:none;}
</style>
<path class="st0" d="M223.5,290.2h-69.1c-19.9,0-36-16.1-36-36s16.1-36,36-36h69.1c19.9,0,36,16.1,36,36S243.4,290.2,223.5,290.2z
	 M259.5,549.4c0-19.9-16.1-36-36-36h-69.1c-19.9,0-36,16.1-36,36s16.1,36,36,36h69.1C243.4,585.4,259.5,569.3,259.5,549.4z
	 M259.5,768.6c0-19.9-16.1-36-36-36h-69.1c-19.9,0-36,16.1-36,36s16.1,36,36,36h69.1C243.4,804.6,259.5,788.5,259.5,768.6z
	 M905.6,254.2c0-19.9-16.1-36-36-36H340.5c-19.9,0-36,16.1-36,36s16.1,36,36,36h529.1C889.4,290.2,905.6,274.1,905.6,254.2z
	 M905.6,549.4c0-19.9-16.1-36-36-36H340.5c-19.9,0-36,16.1-36,36s16.1,36,36,36h529.1C889.4,585.4,905.6,569.3,905.6,549.4z
	 M905.6,768.6c0-19.9-16.1-36-36-36H340.5c-19.9,0-36,16.1-36,36s16.1,36,36,36h529.1C889.4,804.6,905.6,788.5,905.6,768.6z"/>
</svg>
