<?xml version="1.0" encoding="utf-8"?>
<!-- Generator: Adobe Illustrator 21.0.2, SVG Export Plug-In . SVG Version: 6.00 Build 0)  -->
<svg version="1.1" id="图层_1" xmlns="http://www.w3.org/2000/svg" xmlns:xlink="http://www.w3.org/1999/xlink" x="0px" y="0px"
	 viewBox="0 0 1024 1024" style="enable-background:new 0 0 1024 1024;" xml:space="preserve">
<style type="text/css">
	.st0{fill:#9DA7B2;}
	.st1{fill:#9EA6B0;}
</style>
<path class="st1" d="M672,264.5H228.1c-19.9,0-36-16.1-36-36s16.1-36,36-36H672c19.9,0,36,16.1,36,36S691.9,264.5,672,264.5z
	 M228.1,384.5c-19.9,0-36,16.1-36,36s16.1,36,36,36h184c19.9,0,36-16.1,36-36s-16.1-36-36-36H228.1z M960,736
	c0,159.1-128.9,288-288,288S384,895.1,384,736s128.9-288,288-288S960,576.9,960,736z M888,736c0-57.7-22.5-111.9-63.3-152.7
	S729.7,520,672,520s-111.9,22.5-152.7,63.3c-40.8,40.8-63.3,95-63.3,152.7s22.5,111.9,63.3,152.7c40.8,40.8,95,63.3,152.7,63.3
	s111.9-22.5,152.7-63.3C865.5,847.9,888,793.7,888,736z M348,952H136V72h624v276c0,19.9,16.1,36,36,36l0,0c19.9,0,36-16.1,36-36V64
	c0-35.3-28.7-64-64-64H128C92.7,0,64,28.7,64,64v896c0,35.3,28.7,64,64,64h220c19.9,0,36-16.1,36-36l0,0
	C384,968.1,367.9,952,348,952z M785,623c-12.1-12.1-31.8-12.1-43.9,0l-69,69l-68.7-68.7c-12.1-12.1-31.8-12.1-43.9,0
	c-12.1,12.1-12.1,31.8,0,43.9l68.7,68.7l-68.7,68.7c-12.1,12.1-12.1,31.8,0,43.9s31.8,12.1,43.9,0l68.7-68.7l68.9,68.9
	c12.1,12.1,31.8,12.1,43.9,0c12.1-12.1,12.1-31.8,0-43.9L715.9,736l69-69C797.1,654.8,797.1,635.2,785,623z"/>
</svg>
