<?xml version="1.0" encoding="utf-8"?>
<!-- Generator: Adobe Illustrator 22.0.0, SVG Export Plug-In . SVG Version: 6.00 Build 0)  -->
<svg version="1.1" id="图层_1" xmlns="http://www.w3.org/2000/svg" xmlns:xlink="http://www.w3.org/1999/xlink" x="0px" y="0px"
	 viewBox="0 0 1024 1024" style="enable-background:new 0 0 1024 1024;" xml:space="preserve">
<style type="text/css">
	.st0{fill:#9DA7B2;}
	.st1{fill:none;stroke:#9DA7B2;stroke-width:72;stroke-linecap:round;stroke-linejoin:round;stroke-miterlimit:10;}
	.st2{fill:none;}
</style>
<path class="st0" d="M941.6,234.9l-213-213.7C715.1,7.6,696.7,0,677.6,0h-411c-39.6,0-72,32.4-72,72v376c0,19.9,16.1,36,36,36h0
	c19.9,0,36-16.1,36-36l0-375.9c0.1-0.1,0.1-0.1,0.1-0.1h339.9v248c0,19.9,16.1,36,36,36h248l0,595.9c-0.1,0.1-0.1,0.1-0.1,0.1
	l-243.9,0c-19.9,0-36,16.1-36,36v0c0,19.9,16.1,36,36,36h244.1c39.6,0,72-32.4,72-72V285.7C962.5,266.7,955,248.4,941.6,234.9z
	 M678.5,284V73l210.3,211H678.5z M389.8,648h0.7C390.5,648,390.2,648,389.8,648z M390.5,768h-0.7C390.2,768,390.5,768,390.5,768z
	 M500.1,512h-368c-39.8,0-72,32.2-72,72v368c0,39.8,32.2,72,72,72h368c39.8,0,72-32.2,72-72V584C572.1,544.2,539.8,512,500.1,512z
	 M156.4,790h-29.7v52.7c0,11-8.9,20-20,20s-20-8.9-20-20V693.3c0-11,8.9-20,20-20h38.4c51.2-0.7,76.8,18.8,76.8,58.3
	C220.5,768.5,198.7,788,156.4,790z M311,862.7h-46.5c-9.9,0-18-8.1-18-18V691.3c0-9.9,8.1-18,18-18H311
	c62.8,0.7,94.5,32.4,95.2,95.2C405.5,831.3,373.7,862.7,311,862.7z M541.8,705.1h-66v45h60.9c8.8,0,15.9,7.1,15.9,15.9
	s-7.1,15.9-15.9,15.9h-60.9v65c0,8.8-7.1,15.9-15.9,15.9h-8.2c-8.8,0-15.9-7.1-15.9-15.9V689.2c0-8.8,7.1-15.9,15.9-15.9h90.1
	c8.8,0,15.9,7.1,15.9,15.9S550.5,705.1,541.8,705.1z M363.2,768.5c0.7,43-17.8,63.8-55.3,62.4h-21.5V705.1h21.5
	C345.4,704.4,363.8,725.5,363.2,768.5z M178.9,731.7c0.7,21.2-12.6,30.4-39.9,27.6c-6.1-0.7-10.2-1-12.3-1v-53.2
	c2,0.7,6.1,0.7,12.3,0C165.6,704.4,178.9,713.2,178.9,731.7z"/>
</svg>
