<?xml version="1.0" encoding="utf-8"?>
<!-- Generator: Adobe Illustrator 22.0.0, SVG Export Plug-In . SVG Version: 6.00 Build 0)  -->
<svg version="1.1" id="图层_1" xmlns="http://www.w3.org/2000/svg" xmlns:xlink="http://www.w3.org/1999/xlink" x="0px" y="0px"
	 viewBox="0 0 1024 1024" style="enable-background:new 0 0 1024 1024;" xml:space="preserve">
<style type="text/css">
	.st0{fill:#9DA7B2;}
	.st1{fill:none;stroke:#9DA7B2;stroke-width:72;stroke-linecap:round;stroke-linejoin:round;stroke-miterlimit:10;}
	.st2{fill:none;}
</style>
<path class="st0" d="M938.1,628.9L627,940c-28.1,28.1-73.7,28.1-101.8,0L72.6,487.5c-6.8-6.8-10.5-15.9-10.5-25.5V100
	c0-19.9,16.1-36,36-36h362c9.5,0,18.7,3.8,25.5,10.5l452.5,452.5C966.2,555.2,966.2,600.8,938.1,628.9z M601.5,863.7l260.2-260.2
	c14.1-14.1,14.1-36.9,0-50.9l-406-406c-6.8-6.8-15.9-10.5-25.5-10.5H170.1c-19.9,0-36,16.1-36,36v260.2c0,9.5,3.8,18.7,10.5,25.5
	l406,406C564.7,877.7,587.5,877.7,601.5,863.7z M471.1,273.9c-54.4-54.4-142.9-54.4-197.3,0c-54.4,54.4-54.4,142.9,0,197.3
	c26.3,26.3,61.4,40.9,98.6,40.9c37.3,0,72.3-14.5,98.6-40.9c26.3-26.3,40.9-61.4,40.9-98.6C512,335.2,497.5,300.2,471.1,273.9z
	 M372.5,440c-37.3,0-67.5-30.2-67.5-67.5s30.2-67.5,67.5-67.5s67.5,30.2,67.5,67.5S409.8,440,372.5,440z"/>
</svg>
