<?xml version="1.0" encoding="utf-8"?>
<!-- Generator: Adobe Illustrator 22.0.0, SVG Export Plug-In . SVG Version: 6.00 Build 0)  -->
<svg version="1.1" id="图层_1" xmlns="http://www.w3.org/2000/svg" xmlns:xlink="http://www.w3.org/1999/xlink" x="0px" y="0px"
	 viewBox="0 0 1024 1024" style="enable-background:new 0 0 1024 1024;" xml:space="preserve">
<style type="text/css">
	.st0{fill:#9DA7B2;}
	.st1{fill:none;stroke:#9DA7B2;stroke-width:72;stroke-linecap:round;stroke-linejoin:round;stroke-miterlimit:10;}
	.st2{fill:none;}
</style>
<path class="st0" d="M886,594H726.2c-33.3,0-62.3-22.9-70-55.3c-11.3-47.5-27.3-114.7-37.4-157.4c-5.4-22.6,0.2-46.6,15.4-64.2
	c25.2-29.2,40.3-67.3,39.9-108.9C673,117.9,598.2,44.9,507.9,46C418.4,47.1,346,120.3,346,210c0,41,15.2,78.6,40.2,107.4
	c15.1,17.3,20.6,41,15.3,63.4c-10.1,42.6-26.2,110.3-37.5,157.9c-7.7,32.4-36.7,55.3-70,55.3H134c-39.6,0-72,32.4-72,72v184h896V666
	C958,626.4,925.6,594,886,594z M510,118c50.7,0,92,41.3,92,92c0,50.7-41.3,92-92,92s-92-41.3-92-92C418,159.3,459.3,118,510,118z
	 M476.9,374h66.2l51.4,220h-169L476.9,374z M886,777.9c0,0-0.1,0.1-0.1,0.1l-751.7,0c0,0-0.1-0.1-0.1-0.1l0-111.7
	c0,0,0.1-0.1,0.1-0.1H394h232h259.9c0,0,0.1,0.1,0.1,0.1L886,777.9z M926,978H98c-19.9,0-36-16.1-36-36s16.1-36,36-36h828
	c19.9,0,36,16.1,36,36S945.9,978,926,978z"/>
</svg>
