<?xml version="1.0" encoding="utf-8"?>
<!-- Generator: Adobe Illustrator 22.0.0, SVG Export Plug-In . SVG Version: 6.00 Build 0)  -->
<svg version="1.1" id="图层_1" xmlns="http://www.w3.org/2000/svg" xmlns:xlink="http://www.w3.org/1999/xlink" x="0px" y="0px"
	 viewBox="0 0 1024 1024" style="enable-background:new 0 0 1024 1024;" xml:space="preserve">
<style type="text/css">
	.st0{fill:#9DA7B2;}
	.st1{fill:none;stroke:#9DA7B2;stroke-width:72;stroke-linecap:round;stroke-linejoin:round;stroke-miterlimit:10;}
	.st2{fill:none;}
</style>
<path class="st0" d="M199.5,455.9L199.5,455.9L199.5,455.9 M199.6,456L199.6,456L199.6,456 M824.5,456L824.5,456
	C824.5,456,824.5,456,824.5,456v496c0,0,0,0,0,0h-625c0,0,0,0,0,0V456v0H824.5 M824.5,384h-625c-39.8,0-72,32.2-72,72v496
	c0,39.8,32.2,72,72,72h625c39.8,0,72-32.2,72-72V456C896.5,416.2,864.3,384,824.5,384L824.5,384z M268.1,384
	c-4.9-19.7-7.4-40-7.4-60.7c0-34,6.6-66.9,19.7-97.8c12.7-29.9,30.8-56.8,53.9-79.9s50-41.2,79.9-53.9C445.1,78.6,478,72,512,72
	c34,0,66.9,6.6,97.8,19.7c29.9,12.7,56.8,30.8,79.9,53.9c23.1,23.1,41.2,50,53.9,79.9c13.1,30.9,19.7,63.8,19.7,97.8
	c0,20.7-2.5,41-7.4,60.7h73.7c3.7-19.7,5.7-40,5.7-60.7C835.3,144.7,690.5,0,512,0C333.5,0,188.7,144.7,188.7,323.3
	c0,20.8,2,41,5.7,60.7H268.1z M576,640c0-35.3-28.7-64-64-64s-64,28.7-64,64c0,23.7,12.9,44.3,32,55.4V800c0,17.7,14.3,32,32,32l0,0
	c17.7,0,32-14.3,32-32V695.4C563.1,684.3,576,663.7,576,640z"/>
</svg>
