<?xml version="1.0" encoding="utf-8"?>
<!-- Generator: Adobe Illustrator 22.0.0, SVG Export Plug-In . SVG Version: 6.00 Build 0)  -->
<svg version="1.1" id="图层_1" xmlns="http://www.w3.org/2000/svg" xmlns:xlink="http://www.w3.org/1999/xlink" x="0px" y="0px"
	 viewBox="0 0 1024 1024" style="enable-background:new 0 0 1024 1024;" xml:space="preserve">
<style type="text/css">
	.st0{fill:#9DA7B2;}
	.st1{fill:none;stroke:#9DA7B2;stroke-width:72;stroke-linecap:round;stroke-linejoin:round;stroke-miterlimit:10;}
	.st2{fill:none;}
</style>
<path class="st0" d="M963.6,352H960v-56c0-39.8-32.2-72-72-72H554.7l-34.5-103.4c-4.9-14.7-18.7-24.6-34.2-24.6H36
	c-19.9,0-36,16.1-36,36v92v28v612h0.2c-2.4,36,23.2,64,60.3,64H862c39.8,0,77.7-32.2,84.7-72l76.2-432
	C1029.9,384.2,1003.3,352,963.6,352z M72,224v-56h388.1l19,56h-0.7l23.6,72h386v56H162c-39.8,0-77.7,32.2-84.7,72L72,454V296V224z
	 M875.8,843.5c-0.4,2.1-2.3,5.6-5.8,8.6c-3.4,2.9-6.7,3.9-8,3.9l-787.8,0l74-419.5c0.4-2.1,2.3-5.6,5.8-8.6c3.4-2.9,6.7-3.9,8-3.9
	h787.8L875.8,843.5z"/>
</svg>
