<?xml version="1.0" encoding="utf-8"?>
<!-- Generator: Adobe Illustrator 22.0.0, SVG Export Plug-In . SVG Version: 6.00 Build 0)  -->
<svg version="1.1" id="图层_1" xmlns="http://www.w3.org/2000/svg" xmlns:xlink="http://www.w3.org/1999/xlink" x="0px" y="0px"
	 viewBox="0 0 1024 1024" style="enable-background:new 0 0 1024 1024;" xml:space="preserve">
<style type="text/css">
	.st0{fill:#9DA7B2;}
	.st1{fill:none;stroke:#9DA7B2;stroke-width:72;stroke-linecap:round;stroke-linejoin:round;stroke-miterlimit:10;}
	.st2{fill:none;}
</style>
<path class="st0" d="M993.8,962.2L790.7,759.2c77.4-80.5,125-189.9,125-310.4c0-247.4-200.6-448-448-448s-448,200.6-448,448
	s200.6,448,448,448c101,0,194.1-33.4,269-89.8l206.1,206.1c14.1,14.1,36.9,14.1,50.9,0v0C1007.8,999.1,1007.8,976.3,993.8,962.2z
	 M90.4,448.8c0-208.4,168.9-377.3,377.3-377.3S845,240.4,845,448.8S676,826.1,467.7,826.1S90.4,657.1,90.4,448.8z M701.5,484.8h-448
	c-19.9,0-36-16.1-36-36s16.1-36,36-36h448c19.9,0,36,16.1,36,36S721.4,484.8,701.5,484.8z"/>
</svg>
