<?xml version="1.0" encoding="utf-8"?>
<!-- Generator: Adobe Illustrator 22.0.0, SVG Export Plug-In . SVG Version: 6.00 Build 0)  -->
<svg version="1.1" id="图层_1" xmlns="http://www.w3.org/2000/svg" xmlns:xlink="http://www.w3.org/1999/xlink" x="0px" y="0px"
	 viewBox="0 0 1024 1024" style="enable-background:new 0 0 1024 1024;" xml:space="preserve">
<style type="text/css">
	.st0{fill:#9DA7B2;}
	.st1{fill:none;stroke:#9DA7B2;stroke-width:72;stroke-linecap:round;stroke-linejoin:round;stroke-miterlimit:10;}
	.st2{fill:none;}
</style>
<path class="st0" d="M337.1,966.7c-72.7,0-141-28.3-192.4-79.7c-50.9-50.9-79.2-118.6-79.7-190.6c-0.5-72,27-140.1,77.3-191.6
	c0,0,392.1-392.2,392.1-392.2c36.4-36.4,84.8-56.5,136.4-56.5c51.5,0,99.9,20.1,136.4,56.5c36.4,36.4,56.5,84.8,56.5,136.4
	s-20.1,99.9-56.5,136.4L452.5,740.1c-21.5,21.5-50,33.3-80.4,33.3c-30.4,0-58.9-11.8-80.4-33.3c-44.3-44.3-44.3-116.4,0-160.7
	l242.7-242.7c0.2-0.2,0.4-0.4,0.6-0.6c6.4-6.2,14.8-9.5,23.8-9.5c9.2,0,17.8,3.6,24.3,10.1c6.5,6.5,10.1,15.1,10.1,24.3
	c0,9.2-3.6,17.8-10.1,24.3L340.4,628c-8.5,8.5-13.1,19.7-13.1,31.7s4.7,23.2,13.1,31.7c8.5,8.5,19.7,13.1,31.7,13.1
	s23.2-4.7,31.7-13.1c0,0,354.8-354.8,354.8-354.8c32.2-31.1,45.2-77.3,33.8-120.6c-11.3-43.3-45.3-77.2-88.6-88.6
	c-10.3-2.7-20.8-4-31.4-4c-33.5,0-66,13.8-89.2,37.9c0,0-392.2,392.1-392.2,392.1c-51.2,51.2-71.3,126.4-52.6,196.3
	c18.7,69.9,73.8,125,143.7,143.7c17.2,4.6,34.9,6.9,52.6,6.9c54.3,0,105.3-21.1,143.7-59.5c0,0,317.4-317.4,317.5-317.5
	c6.4-6.2,14.9-9.7,23.9-9.7c9.2,0,17.8,3.6,24.3,10.1c13.2,13.2,13.4,34.8,0.4,48.2c0,0-317.6,317.5-317.6,317.5
	C475.9,939.3,408.5,966.7,337.1,966.7z"/>
</svg>
