<?xml version="1.0" encoding="utf-8"?>
<!-- Generator: Adobe Illustrator 22.0.0, SVG Export Plug-In . SVG Version: 6.00 Build 0)  -->
<svg version="1.1" id="图层_1" xmlns="http://www.w3.org/2000/svg" xmlns:xlink="http://www.w3.org/1999/xlink" x="0px" y="0px"
	 viewBox="0 0 1024 1024" style="enable-background:new 0 0 1024 1024;" xml:space="preserve">
<style type="text/css">
	.st0{fill:#9DA7B2;}
	.st1{fill:none;stroke:#9DA7B2;stroke-width:72;stroke-linecap:round;stroke-linejoin:round;stroke-miterlimit:10;}
	.st2{fill:none;}
</style>
<path class="st0" d="M862.1,736c-10.9,0-21.5-5.5-27.5-15.5L667.1,441.3L503.6,659.2c-8.3,11-22.7,15.5-35.7,11.2l-173.2-57.7
	l-114,114c-12.5,12.5-32.8,12.5-45.3,0c-12.5-12.5-12.5-32.8,0-45.3l128-128c8.6-8.6,21.2-11.6,32.7-7.7l170.1,56.7l178.2-237.5
	c6.4-8.5,16.6-13.3,27.2-12.8c10.6,0.5,20.3,6.4,25.8,15.5l192,320c9.1,15.2,4.2,34.8-11,43.9C873.4,734.5,867.7,736,862.1,736z
	 M350,416c0,53-43,96-96,96s-96-43-96-96s43-96,96-96S350,363,350,416z M286,416c0-17.7-14.3-32-32-32c-17.7,0-32,14.3-32,32
	s14.3,32,32,32C271.7,448,286,433.7,286,416z M950.1,484l0,339.9c-0.1,0.1-0.1,0.1-0.1,0.1l-879.7,0c-0.1-0.1-0.1-0.1-0.1-0.1
	l0-621.7c0.1-0.1,0.1-0.1,0.1-0.1h595.9c19.9,0,36-16.1,36-36v0c0-19.9-16.1-36-36-36h-596c-39.6,0-72,32.4-72,72V824
	c0,39.6,32.4,72,72,72h880c39.6,0,72-32.4,72-72V484c0-19.9-16.1-36-36-36h0C966.2,448,950.1,464.1,950.1,484z M988,220h-60v-60
	c0-19.9-16.1-36-36-36s-36,16.1-36,36v60h-60c-19.9,0-36,16.1-36,36s16.1,36,36,36h60v60c0,19.9,16.1,36,36,36s36-16.1,36-36v-60h60
	c19.9,0,36-16.1,36-36S1007.9,220,988,220z"/>
</svg>
