<?xml version="1.0" encoding="utf-8"?>
<!-- Generator: Adobe Illustrator 22.0.0, SVG Export Plug-In . SVG Version: 6.00 Build 0)  -->
<svg version="1.1" id="图层_1" xmlns="http://www.w3.org/2000/svg" xmlns:xlink="http://www.w3.org/1999/xlink" x="0px" y="0px"
	 viewBox="0 0 1024 1025" style="enable-background:new 0 0 1024 1025;" xml:space="preserve">
<style type="text/css">
	.st0{fill:#9DA7B2;}
	.st1{fill:none;stroke:#9DA7B2;stroke-width:72;stroke-linecap:round;stroke-linejoin:round;stroke-miterlimit:10;}
	.st2{fill:none;}
</style>
<path class="st0" d="M623.6,931c-47.8,0-97.6-11.2-148.5-33.5c-73.3-32.1-150-88-228-166c-78-78-133.9-154.7-166-228
	c-28-63.9-38.6-126.1-31.3-184.8C67.5,174.2,185,102.1,190,99.1c14.1-8.5,32.2-6.3,43.9,5.4l161,160.4c8.9,8.9,12.8,21.8,9.8,34
	c-3,12.2-11.9,21.9-23.9,25.6c-2.6,0.9-43.1,16.1-51.4,52c-9.6,41.8,24.7,104.3,96.5,176c71.7,71.5,134.5,105.7,176.9,96.2
	c36.1-8.1,51.7-47.6,52.6-50.2c3.9-11.9,13.6-20.6,25.7-23.5c12.2-2.9,24.9,1,33.8,9.9l159,159.6c11.6,11.7,13.9,29.8,5.4,43.9
	c-3,5-75,122.5-219.5,140.3C647.9,930.3,635.8,931,623.6,931z M205.1,177.4c-8,6.9-17.5,15.8-27.1,26.8
	c-32.4,36.9-51.5,78.6-56.9,124.1c-12.4,104,47.2,222.5,176.9,352.2c130.1,130.1,248.9,189.6,353.2,176.8
	c45.9-5.7,88-25.4,125.1-58.6c10.1-9.1,18.4-17.9,24.8-25.4L696.8,668.8c-20.7,25.8-47.3,43-77.2,50c-33.1,7.7-69.6,2.9-108.3-14.3
	c-42-18.6-87.8-52.6-136.2-100.9c-48.6-48.4-82.7-94.2-101.4-136c-17.3-38.7-22.1-75.1-14.2-108.1c7.1-29.9,24.7-56.4,51.1-76.9
	L205.1,177.4z M944.2,103.5c-20.2-11.6-44.9-12.6-66.2-2.8c-0.7,0.3-1.4,0.7-2,1l-40.9,22.5C822.1,106,800.7,94,776.5,94h-240
	c-39.8,0-72,32.2-72,72v112c0,39.8,32.2,72,72,72h240c24.2,0,45.6-12,58.7-30.3l40.9,22.5c0.7,0.4,1.3,0.7,2,1
	c9.7,4.5,20.1,6.7,30.5,6.7c12.4,0,24.7-3.2,35.7-9.5c20.2-11.6,32.2-31.7,32.2-53.7V157.2C976.5,135.2,964.4,115.1,944.2,103.5z
	 M784.5,278c0,4.4-3.6,8-8,8h-240c-4.4,0-8-3.6-8-8V166c0-4.4,3.6-8,8-8h240c4.4,0,8,3.6,8,8V278z M912.5,286.8c0,0.5,0,2.1-1.9,3.2
	c-1.4,0.8-2.6,0.6-3.3,0.4L848.5,258V186l58.8-32.4c0.7-0.2,1.9-0.4,3.3,0.4c1.9,1.1,1.9,2.6,1.9,3.2V286.8z"/>
</svg>
