<?xml version="1.0" encoding="utf-8"?>
<!-- Generator: Adobe Illustrator 22.0.0, SVG Export Plug-In . SVG Version: 6.00 Build 0)  -->
<svg version="1.1" id="图层_1" xmlns="http://www.w3.org/2000/svg" xmlns:xlink="http://www.w3.org/1999/xlink" x="0px" y="0px"
	 viewBox="0 0 1024 1024" style="enable-background:new 0 0 1024 1024;" xml:space="preserve">
<style type="text/css">
	.st0{fill:#9DA7B2;}
	.st1{fill:none;stroke:#9DA7B2;stroke-width:72;stroke-linecap:round;stroke-linejoin:round;stroke-miterlimit:10;}
	.st2{fill:none;}
</style>
<path class="st0" d="M704,93.9L704,93.9c0,13.2,7.3,25.3,18.9,31.7C858.7,199.7,951,343.5,952,508.9
	c1.4,242.8-195.8,441.7-438.7,442.2C270.2,951.5,72.9,754.6,72.9,511.5c0-165.6,91.6-309.8,226.9-384.7
	c11.4-6.3,18.4-18.4,18.4-31.4v0c0-27.5-29.6-44.8-53.6-31.4C106.6,151.6-0.1,320.6,1,514.3c1.5,282.7,233.9,511.4,516.6,508.7
	c280.2-2.7,506.4-230.7,506.4-511.5c0-193.8-107.8-362.4-266.7-449.2C733.3,49.2,704,66.5,704,93.9z M548,348V36
	c0-19.9-16.1-36-36-36h0c-19.9,0-36,16.1-36,36v312c0,19.9,16.1,36,36,36h0C531.9,384,548,367.9,548,348z"/>
</svg>
