<?xml version="1.0" encoding="utf-8"?>
<!-- Generator: Adobe Illustrator 22.0.0, SVG Export Plug-In . SVG Version: 6.00 Build 0)  -->
<svg version="1.1" id="图层_1" xmlns="http://www.w3.org/2000/svg" xmlns:xlink="http://www.w3.org/1999/xlink" x="0px" y="0px"
	 viewBox="0 0 1024 1024" style="enable-background:new 0 0 1024 1024;" xml:space="preserve">
<style type="text/css">
	.st0{fill:#9DA7B2;}
	.st1{fill:none;stroke:#9DA7B2;stroke-width:72;stroke-linecap:round;stroke-linejoin:round;stroke-miterlimit:10;}
	.st2{fill:none;}
</style>
<path class="st0" d="M50.1,896H12c-6.6,0-12-5.4-12-12l0-744c0-6.6,5.4-12,12-12h38.1c6.6,0,12,5.4,12,12v744
	C62.1,890.6,56.7,896,50.1,896z M1022.1,884V140c0-6.6-5.4-12-12-12h-104c-6.6,0-12,5.4-12,12v744c0,6.6,5.4,12,12,12h104
	C1016.7,896,1022.1,890.6,1022.1,884z M254.1,756V140c0-6.6-5.4-12-12-12H140c-6.6,0-12,5.4-12,12v616c0,6.6,5.4,12,12,12h102.1
	C248.7,768,254.1,762.6,254.1,756z M254.1,884v-40c0-6.6-5.4-12-12-12H140c-6.6,0-12,5.4-12,12v40c0,6.6,5.4,12,12,12h102.1
	C248.7,896,254.1,890.6,254.1,884z M382.1,737V159c0-17.1-13.9-31-31-31h0c-17.1,0-31,13.9-31,31V737c0,17.1,13.9,31,31,31h0
	C368.2,768,382.1,754.1,382.1,737z M382.1,884v-40c0-6.6-5.4-12-12-12H332c-6.6,0-12,5.4-12,12v40c0,6.6,5.4,12,12,12h38.1
	C376.7,896,382.1,890.6,382.1,884z M510.1,756V140c0-6.6-5.4-12-12-12H460c-6.6,0-12,5.4-12,12v616c0,6.6,5.4,12,12,12h38.1
	C504.7,768,510.1,762.6,510.1,756z M510.1,884v-40c0-6.6-5.4-12-12-12H460c-6.6,0-12,5.4-12,12v40c0,6.6,5.4,12,12,12h38.1
	C504.7,896,510.1,890.6,510.1,884z M830.1,756V140c0-6.6-5.4-12-12-12H588c-6.6,0-12,5.4-12,12v616c0,6.6,5.4,12,12,12h230.1
	C824.7,768,830.1,762.6,830.1,756z M830.1,884v-40c0-6.6-5.4-12-12-12H588c-6.6,0-12,5.4-12,12v40c0,6.6,5.4,12,12,12h230.1
	C824.7,896,830.1,890.6,830.1,884z"/>
</svg>
