<?xml version="1.0" encoding="utf-8"?>
<!-- Generator: Adobe Illustrator 22.0.0, SVG Export Plug-In . SVG Version: 6.00 Build 0)  -->
<svg version="1.1" id="图层_1" xmlns="http://www.w3.org/2000/svg" xmlns:xlink="http://www.w3.org/1999/xlink" x="0px" y="0px"
	 viewBox="0 0 1024 1024" style="enable-background:new 0 0 1024 1024;" xml:space="preserve">
<style type="text/css">
	.st0{fill:#9DA7B2;}
	.st1{fill:none;stroke:#9DA7B2;stroke-width:72;stroke-linecap:round;stroke-linejoin:round;stroke-miterlimit:10;}
	.st2{fill:none;}
</style>
<path class="st0" d="M613,0H202c-39.6,0-72,32.4-72,72v880c0,39.6,32.4,72,72,72h624c39.6,0,72-32.4,72-72V285.7
	c0-19.1-7.6-37.3-21-50.8L664,21.2C650.5,7.6,632.2,0,613,0z M824.3,284H614V73L824.3,284z M825.9,952l-623.7,0
	c-0.1-0.1-0.1-0.1-0.1-0.1l0-879.7c0.1-0.1,0.1-0.1,0.1-0.1H542v248c0,19.9,16.1,36,36,36h248l0,595.9
	C825.9,951.9,825.9,951.9,825.9,952z M510,796c-19.9,0-36-16.1-36-36v-96c0-19.9,16.1-36,36-36c33,0,44.9-15.1,51-26.5
	c8-14.9,8.9-31.1,9-33.5c-0.1-2.4-1-18.6-9-33.5c-6.1-11.4-18-26.5-51-26.5s-44.9,15.1-51,26.5c-8.6,16.1-9,33.6-9,33.8l0-0.3h-72
	c0-3.3,0.4-33.4,15.8-64.1C415.7,460.1,457,436,510,436s94.3,24.1,116.2,67.9c15.4,30.7,15.8,60.8,15.8,64.1s-0.4,33.4-15.8,64.1
	c-16.6,33.3-44.5,55.2-80.2,63.8V760C546,779.9,529.9,796,510,796z M546,860c0,19.9-16.1,36-36,36s-36-16.1-36-36s16.1-36,36-36
	S546,840.1,546,860z"/>
</svg>
