<?xml version="1.0" encoding="utf-8"?>
<!-- Generator: Adobe Illustrator 22.0.0, SVG Export Plug-In . SVG Version: 6.00 Build 0)  -->
<svg version="1.1" id="图层_1" xmlns="http://www.w3.org/2000/svg" xmlns:xlink="http://www.w3.org/1999/xlink" x="0px" y="0px"
	 viewBox="0 0 1024 1024" style="enable-background:new 0 0 1024 1024;" xml:space="preserve">
<style type="text/css">
	.st0{fill:#9DA7B2;}
	.st1{fill:none;stroke:#9DA7B2;stroke-width:72;stroke-linecap:round;stroke-linejoin:round;stroke-miterlimit:10;}
	.st2{fill:none;}
</style>
<path class="st0" d="M512,954.5c-6.8,0-13.6-1.9-19.5-5.8c-4.9-3.2-121.5-78.9-239.9-186.7C88.6,612.8,5.5,479.4,5.5,365.7
	c0-47.9,7.8-91.5,23-129.5c14.8-36.9,36.7-68.7,65-94.3c52.2-47.3,124.2-72.3,208.1-72.3c47.5,0,94.7,11.6,136.5,33.4
	c27.1,14.2,52.1,32.7,73.8,54.6c21.6-21.9,46.6-40.4,73.8-54.6c41.9-21.9,89.1-33.4,136.5-33.4c79.1,0,153.5,30.8,209.4,86.8
	c55.9,55.9,86.8,130.3,86.8,209.4c0,108.9-83.1,240.8-246.8,391.9C653.3,866.8,536.9,945.1,532,948.4C526,952.5,519,954.5,512,954.5
	z M301.7,141.5c-67.4,0-224.2,21.8-224.2,224.2c0,91.2,77,209.6,222.8,342.5c86.1,78.5,173.3,140.7,211.4,166.8
	c38-26.9,125.5-91.1,211.8-170.8c66.2-61.2,118.8-119.3,156.3-172.9c44.3-63.3,66.8-119,66.8-165.6c0-123.6-100.6-224.2-224.2-224.2
	c-71.2,0-139,34.6-181.2,92.6c-6.8,9.3-17.6,14.8-29.1,14.8c0,0,0,0,0,0c-11.5,0-22.3-5.5-29.1-14.8
	C440.7,176.1,372.9,141.5,301.7,141.5z"/>
</svg>
