<?xml version="1.0" encoding="utf-8"?>
<!-- Generator: Adobe Illustrator 22.0.0, SVG Export Plug-In . SVG Version: 6.00 Build 0)  -->
<svg version="1.1" id="图层_1" xmlns="http://www.w3.org/2000/svg" xmlns:xlink="http://www.w3.org/1999/xlink" x="0px" y="0px"
	 viewBox="0 0 1024 1024" style="enable-background:new 0 0 1024 1024;" xml:space="preserve">
<style type="text/css">
	.st0{fill:#9DA7B2;}
	.st1{fill:none;stroke:#9DA7B2;stroke-width:72;stroke-linecap:round;stroke-linejoin:round;stroke-miterlimit:10;}
	.st2{fill:none;}
</style>
<path class="st0" d="M444.8,1012.1c-19.9,0-36-16.1-36-36V47.9c0-19.9,16.1-36,36-36s36,16.1,36,36v928.3
	C480.8,996,464.7,1012.1,444.8,1012.1z M615.8,976.1V47.9c0-19.9-16.1-36-36-36s-36,16.1-36,36v928.3c0,19.9,16.1,36,36,36
	S615.8,996,615.8,976.1z M356,476H122.9l66.5-66.5c14.1-14.1,14.1-36.9,0-50.9c-14.1-14.1-36.9-14.1-50.9,0l-128,128
	c-0.1,0.1-0.2,0.2-0.2,0.3c-0.3,0.3-0.7,0.7-1,1c-0.2,0.2-0.4,0.5-0.6,0.7c-0.2,0.2-0.4,0.4-0.5,0.6c-0.2,0.3-0.5,0.6-0.7,0.9
	c-0.1,0.2-0.3,0.3-0.4,0.5c-0.2,0.3-0.5,0.6-0.7,1c-0.1,0.2-0.2,0.3-0.3,0.5c-0.2,0.3-0.4,0.7-0.6,1c-0.1,0.2-0.2,0.3-0.3,0.5
	c-0.2,0.3-0.4,0.7-0.6,1c-0.1,0.2-0.2,0.4-0.3,0.5c-0.2,0.3-0.3,0.6-0.5,1c-0.1,0.2-0.2,0.4-0.3,0.6c-0.1,0.3-0.3,0.6-0.4,0.9
	c-0.1,0.3-0.2,0.5-0.3,0.8c-0.1,0.3-0.2,0.5-0.3,0.8c-0.1,0.3-0.2,0.6-0.3,0.9c-0.1,0.2-0.2,0.5-0.2,0.7c-0.1,0.3-0.2,0.7-0.3,1
	c-0.1,0.2-0.1,0.4-0.2,0.6c-0.1,0.4-0.2,0.7-0.3,1.1c0,0.2-0.1,0.4-0.1,0.6c-0.1,0.4-0.2,0.8-0.2,1.1c0,0.2-0.1,0.4-0.1,0.6
	c-0.1,0.4-0.1,0.8-0.2,1.1c0,0.2-0.1,0.5-0.1,0.7c0,0.3-0.1,0.7-0.1,1.1c0,0.3,0,0.6-0.1,0.9c0,0.3,0,0.6-0.1,0.8
	c-0.1,1.2-0.1,2.4,0,3.6c0,0.3,0,0.6,0.1,0.8c0,0.3,0,0.6,0.1,0.9c0,0.4,0.1,0.7,0.1,1.1c0,0.2,0.1,0.5,0.1,0.7
	c0.1,0.4,0.1,0.8,0.2,1.1c0,0.2,0.1,0.4,0.1,0.6c0.1,0.4,0.2,0.8,0.2,1.1c0,0.2,0.1,0.4,0.1,0.6c0.1,0.4,0.2,0.7,0.3,1.1
	c0.1,0.2,0.1,0.4,0.2,0.6c0.1,0.3,0.2,0.7,0.3,1c0.1,0.2,0.2,0.5,0.2,0.7c0.1,0.3,0.2,0.6,0.3,0.9c0.1,0.3,0.2,0.5,0.3,0.8
	c0.1,0.3,0.2,0.5,0.3,0.8c0.1,0.3,0.3,0.6,0.4,0.9c0.1,0.2,0.2,0.4,0.3,0.6c0.2,0.3,0.3,0.6,0.5,1c0.1,0.2,0.2,0.4,0.3,0.5
	c0.2,0.3,0.4,0.7,0.6,1c0.1,0.2,0.2,0.3,0.3,0.5c0.2,0.3,0.4,0.7,0.6,1c0.1,0.2,0.2,0.3,0.3,0.5c0.2,0.3,0.5,0.7,0.7,1
	c0.1,0.2,0.3,0.3,0.4,0.5c0.2,0.3,0.5,0.6,0.7,0.9c0.2,0.2,0.4,0.4,0.5,0.6c0.2,0.2,0.4,0.5,0.6,0.7c0.3,0.4,0.6,0.7,1,1
	c0.1,0.1,0.2,0.2,0.2,0.3l128,128c7,7,16.2,10.5,25.5,10.5s18.4-3.5,25.5-10.5c14.1-14.1,14.1-36.9,0-50.9L122.9,548H356
	c19.9,0,36-16.1,36-36S375.9,476,356,476z M632,512c0,19.9,16.1,36,36,36h233.1l-66.5,66.5c-14.1,14.1-14.1,36.9,0,50.9
	c7,7,16.2,10.5,25.5,10.5s18.4-3.5,25.5-10.5l128-128c0.1-0.1,0.2-0.2,0.2-0.3c0.3-0.3,0.7-0.7,1-1c0.2-0.2,0.4-0.5,0.6-0.7
	c0.2-0.2,0.4-0.4,0.5-0.6c0.2-0.3,0.5-0.6,0.7-0.9c0.1-0.2,0.3-0.3,0.4-0.5c0.2-0.3,0.5-0.6,0.7-1c0.1-0.2,0.2-0.3,0.3-0.5
	c0.2-0.3,0.4-0.7,0.6-1c0.1-0.2,0.2-0.3,0.3-0.5c0.2-0.3,0.4-0.7,0.6-1c0.1-0.2,0.2-0.4,0.3-0.5c0.2-0.3,0.3-0.6,0.5-1
	c0.1-0.2,0.2-0.4,0.3-0.6c0.1-0.3,0.3-0.6,0.4-0.9c0.1-0.3,0.2-0.5,0.3-0.8c0.1-0.3,0.2-0.5,0.3-0.8c0.1-0.3,0.2-0.6,0.3-0.9
	c0.1-0.2,0.2-0.5,0.2-0.7c0.1-0.3,0.2-0.7,0.3-1c0.1-0.2,0.1-0.4,0.2-0.6c0.1-0.4,0.2-0.7,0.3-1.1c0-0.2,0.1-0.4,0.1-0.6
	c0.1-0.4,0.2-0.8,0.2-1.1c0-0.2,0.1-0.4,0.1-0.6c0.1-0.4,0.1-0.8,0.2-1.1c0-0.2,0.1-0.5,0.1-0.7c0-0.3,0.1-0.7,0.1-1.1
	c0-0.3,0-0.6,0.1-0.9c0-0.3,0-0.6,0.1-0.8c0.1-1.2,0.1-2.4,0-3.6c0-0.3,0-0.6-0.1-0.8c0-0.3,0-0.6-0.1-0.9c0-0.4-0.1-0.7-0.1-1.1
	c0-0.2-0.1-0.5-0.1-0.7c-0.1-0.4-0.1-0.8-0.2-1.1c0-0.2-0.1-0.4-0.1-0.6c-0.1-0.4-0.2-0.8-0.2-1.1c0-0.2-0.1-0.4-0.1-0.6
	c-0.1-0.4-0.2-0.7-0.3-1.1c-0.1-0.2-0.1-0.4-0.2-0.6c-0.1-0.3-0.2-0.7-0.3-1c-0.1-0.2-0.2-0.5-0.2-0.7c-0.1-0.3-0.2-0.6-0.3-0.9
	c-0.1-0.3-0.2-0.5-0.3-0.8c-0.1-0.3-0.2-0.5-0.3-0.8c-0.1-0.3-0.3-0.6-0.4-0.9c-0.1-0.2-0.2-0.4-0.3-0.6c-0.2-0.3-0.3-0.6-0.5-1
	c-0.1-0.2-0.2-0.4-0.3-0.5c-0.2-0.3-0.4-0.7-0.6-1c-0.1-0.2-0.2-0.3-0.3-0.5c-0.2-0.3-0.4-0.7-0.6-1c-0.1-0.2-0.2-0.3-0.3-0.5
	c-0.2-0.3-0.5-0.7-0.7-1c-0.1-0.2-0.3-0.3-0.4-0.5c-0.2-0.3-0.5-0.6-0.7-0.9c-0.2-0.2-0.4-0.4-0.5-0.6c-0.2-0.2-0.4-0.5-0.6-0.7
	c-0.3-0.4-0.6-0.7-1-1c-0.1-0.1-0.2-0.2-0.2-0.3l-128-128c-14.1-14.1-36.9-14.1-50.9,0c-14.1,14.1-14.1,36.9,0,50.9l66.5,66.5H668
	C648.1,476,632,492.1,632,512z"/>
</svg>
