<?xml version="1.0" encoding="utf-8"?>
<!-- Generator: Adobe Illustrator 22.0.0, SVG Export Plug-In . SVG Version: 6.00 Build 0)  -->
<svg version="1.1" id="图层_1" xmlns="http://www.w3.org/2000/svg" xmlns:xlink="http://www.w3.org/1999/xlink" x="0px" y="0px"
	 viewBox="0 0 1024 1024" style="enable-background:new 0 0 1024 1024;" xml:space="preserve">
<style type="text/css">
	.st0{fill:#9DA7B2;}
	.st1{fill:none;stroke:#9DA7B2;stroke-width:72;stroke-linecap:round;stroke-linejoin:round;stroke-miterlimit:10;}
	.st2{fill:none;}
</style>
<g>
	<path class="st0" d="M898.5,323.8C869.2,140.4,703.2,0,511.8,0c-191.4,0-357,140.4-386.3,323.8C53.9,339.7,0,403.8,0,480v128
		c0,88,72,160,160,160h0c88,0,160-72,160-160V480c0-75.4-52.8-139-123.3-155.7c28.5-144.7,162.4-254,315-254
		c152.7,0,287,109.4,315.5,254C756.8,341,704,404.6,704,480v128c0,59,32.4,110.9,80.3,138.6c-0.1,0.5-0.3,0.9-0.4,1.4
		c-11.1,41.1-38.3,74.6-80.7,99.5c-10.2,6-20.1,10.8-29.1,14.5c-18.2-21.8-45.6-35.8-76-35.8H482.9c-54.4,0-98.9,44.5-98.9,98.9v0
		c0,54.4,44.5,98.9,98.9,98.9h115.1c52.6,0,96-41.6,98.8-93.6c12.2-4.9,26.1-11.3,40.4-19.5c59.5-34.2,99.6-83.7,115.9-143.3
		c3.6,0.2,7.2,0.4,10.8,0.4h0c88,0,160-72,160-160V480C1024,403.8,970.1,339.7,898.5,323.8z M248,480v128c0,23.3-9.2,45.4-25.9,62.1
		C205.4,686.8,183.3,696,160,696c-23.3,0-45.4-9.2-62.1-25.9C81.2,653.4,72,631.3,72,608V480c0-23.3,9.2-45.4,25.9-62.1
		c16.7-16.7,38.8-25.9,62.1-25.9c23.3,0,45.4,9.2,62.1,25.9C238.8,434.6,248,456.7,248,480z M598.1,952H482.9
		c-14.6,0-26.9-12.3-26.9-26.9c0-14.6,12.3-26.9,26.9-26.9h115.1c14.6,0,26.9,12.3,26.9,26.9C625,939.7,612.7,952,598.1,952z
		 M952,608c0,23.3-9.2,45.4-25.9,62.1C909.4,686.8,887.3,696,864,696c-23.3,0-45.4-9.2-62.1-25.9C785.2,653.4,776,631.3,776,608V480
		c0-23.3,9.2-45.4,25.9-62.1c16.7-16.7,38.8-25.9,62.1-25.9c23.3,0,45.4,9.2,62.1,25.9c16.7,16.7,25.9,38.8,25.9,62.1V608z"/>
</g>
</svg>
