<?xml version="1.0" encoding="utf-8"?>
<!-- Generator: Adobe Illustrator 22.0.0, SVG Export Plug-In . SVG Version: 6.00 Build 0)  -->
<svg version="1.1" id="图层_1" xmlns="http://www.w3.org/2000/svg" xmlns:xlink="http://www.w3.org/1999/xlink" x="0px" y="0px"
	 viewBox="0 0 1024 1024" style="enable-background:new 0 0 1024 1024;" xml:space="preserve">
<style type="text/css">
	.st0{fill:#9DA7B2;}
	.st1{fill:none;stroke:#9DA7B2;stroke-width:72;stroke-linecap:round;stroke-linejoin:round;stroke-miterlimit:10;}
	.st2{fill:none;}
</style>
<path class="st0" d="M552,864c0,19.9-16.1,36-36,36H196c-19.9,0-36-16.1-36-36s16.1-36,36-36h124V196H136v92c0,19.9-16.1,36-36,36
	s-36-16.1-36-36V160c0-19.9,16.1-36,36-36h512c19.9,0,36,16.1,36,36v128c0,19.9-16.1,36-36,36s-36-16.1-36-36v-92H392v632h124
	C535.9,828,552,844.1,552,864z M912.1,699.8c-15.4-7.7-33.7-3.3-44.1,9.6V306.6c6.9,8.6,17.3,13.4,28,13.4c5.4,0,10.9-1.2,16.1-3.8
	c17.8-8.9,25-30.5,16.1-48.3l-63.7-127.4c-0.1-0.2-0.2-0.3-0.2-0.5l0-0.1c0,0,0,0,0,0c-0.4-0.7-0.8-1.4-1.2-2.1c0,0,0-0.1-0.1-0.1
	c-0.4-0.7-0.8-1.4-1.3-2c-0.1-0.1-0.1-0.2-0.2-0.3c-0.4-0.5-0.8-1.1-1.2-1.6c-0.1-0.1-0.2-0.3-0.3-0.4c-0.5-0.6-0.9-1.1-1.4-1.7
	c-0.1-0.1-0.2-0.2-0.3-0.3c-0.4-0.4-0.8-0.9-1.3-1.3c-0.2-0.1-0.3-0.3-0.5-0.4c-0.5-0.5-1.1-1-1.6-1.4c0,0,0,0,0,0
	c-0.6-0.5-1.2-0.9-1.8-1.4c-0.1-0.1-0.2-0.2-0.4-0.2c-0.6-0.4-1.2-0.8-1.8-1.2c0,0,0,0-0.1,0c-0.7-0.4-1.4-0.8-2.1-1.2c0,0,0,0,0,0
	c-0.7-0.4-1.4-0.7-2.2-1c0,0,0,0-0.1,0c-1.5-0.6-3-1.2-4.6-1.7c-0.1,0-0.1,0-0.2,0c-1.5-0.4-3.1-0.8-4.7-1c-0.1,0-0.2,0-0.3,0
	c-0.6-0.1-1.3-0.2-2-0.2c-0.2,0-0.4,0-0.6,0c-0.8,0-1.5-0.1-2.3-0.1s-1.5,0-2.3,0.1c-0.2,0-0.4,0-0.6,0c-0.7,0.1-1.3,0.1-2,0.2
	c-0.1,0-0.2,0-0.3,0c-1.6,0.2-3.2,0.6-4.7,1c-0.1,0-0.1,0-0.2,0c-1.6,0.5-3.1,1-4.6,1.7c0,0,0,0-0.1,0c-0.7,0.3-1.5,0.7-2.2,1
	c0,0,0,0,0,0c-0.7,0.4-1.4,0.8-2.1,1.2c0,0,0,0-0.1,0c-0.6,0.4-1.2,0.8-1.8,1.2c-0.1,0.1-0.2,0.2-0.4,0.2c-0.6,0.4-1.2,0.9-1.8,1.4
	c0,0,0,0,0,0c-0.6,0.5-1.1,0.9-1.6,1.4c-0.2,0.1-0.3,0.3-0.5,0.4c-0.4,0.4-0.9,0.9-1.3,1.3c-0.1,0.1-0.2,0.2-0.3,0.3
	c-0.5,0.5-1,1.1-1.4,1.7c-0.1,0.1-0.2,0.3-0.3,0.4c-0.4,0.5-0.8,1-1.2,1.6c-0.1,0.1-0.1,0.2-0.2,0.3c-0.5,0.7-0.9,1.3-1.3,2
	c0,0,0,0.1-0.1,0.1c-0.4,0.7-0.8,1.4-1.2,2.1c0,0,0,0,0,0l0,0.1c-0.1,0.2-0.2,0.3-0.2,0.5l-63.7,127.4c-8.9,17.8-1.7,39.4,16.1,48.3
	c15.4,7.7,33.7,3.3,44.1-9.6v402.7c-10.4-12.9-28.7-17.3-44.1-9.6c-17.8,8.9-25,30.5-16.1,48.3l64,128c6.1,12.2,18.6,19.9,32.2,19.9
	s26.1-7.7,32.2-19.9l64-128C937.1,730.3,929.9,708.7,912.1,699.8z"/>
</svg>
