<?xml version="1.0" encoding="utf-8"?>
<!-- Generator: Adobe Illustrator 22.0.0, SVG Export Plug-In . SVG Version: 6.00 Build 0)  -->
<svg version="1.1" id="图层_1" xmlns="http://www.w3.org/2000/svg" xmlns:xlink="http://www.w3.org/1999/xlink" x="0px" y="0px"
	 viewBox="0 0 1024 1024" style="enable-background:new 0 0 1024 1024;" xml:space="preserve">
<style type="text/css">
	.st0{fill:#9DA7B2;}
	.st1{fill:none;stroke:#9DA7B2;stroke-width:72;stroke-linecap:round;stroke-linejoin:round;stroke-miterlimit:10;}
	.st2{fill:none;}
</style>
<path class="st0" d="M1012.4,296.9C736.1,20.6,288,20.6,11.7,296.9c-15.6,15.6-15.6,40.8,0,56.3c15.6,15.6,40.8,15.6,56.3,0
	c245.2-245.2,642.9-245.2,888.1,0c15.6,15.6,40.8,15.6,56.3,0C1027.9,337.7,1027.9,312.5,1012.4,296.9L1012.4,296.9z M161.7,468.1
	c-15.6,15.6-15.6,40.8,0,56.3c15.6,15.6,40.8,15.6,56.3,0c162.3-162.3,425.6-162.3,587.9,0c15.6,15.6,40.8,15.6,56.3,0
	c15.6-15.6,15.6-40.8,0-56.3C668.8,274.7,355.2,274.7,161.7,468.1L161.7,468.1z M712.8,649.6l0.2-0.2
	c-110.6-110.6-289.8-110.6-400.2,0c-15.6,15.6-15.6,40.8,0,56.3c15.6,15.6,40.8,15.6,56.3,0c79.5-79.5,208.3-79.5,287.7,0l0.2-0.2
	c0.9,1.1,1.9,2.2,3,3.3c15.6,15.6,40.8,15.6,56.3,0c15.6-15.6,15.6-40.8,0-56.3C715,651.5,713.9,650.6,712.8,649.6L712.8,649.6z
	 M453.4,874.6c0,33,26.7,59.7,59.7,59.7c33,0,59.7-26.7,59.7-59.7c0-33-26.7-59.7-59.7-59.7C480.1,814.9,453.4,841.6,453.4,874.6
	L453.4,874.6z M453.4,874.6"/>
</svg>
