<?xml version="1.0" encoding="utf-8"?>
<!-- Generator: Adobe Illustrator 22.0.0, SVG Export Plug-In . SVG Version: 6.00 Build 0)  -->
<svg version="1.1" id="图层_1" xmlns="http://www.w3.org/2000/svg" xmlns:xlink="http://www.w3.org/1999/xlink" x="0px" y="0px"
	 viewBox="0 0 1024 1024" style="enable-background:new 0 0 1024 1024;" xml:space="preserve">
<style type="text/css">
	.st0{fill:#9DA7B2;}
	.st1{fill:none;stroke:#9DA7B2;stroke-width:72;stroke-linecap:round;stroke-linejoin:round;stroke-miterlimit:10;}
	.st2{fill:none;}
</style>
<path class="st0" d="M935.1,234.9l-213-213.7C708.6,7.6,690.3,0,671.1,0h-411c-39.6,0-72,32.4-72,72v376c0,19.9,16.1,36,36,36h0
	c19.9,0,36-16.1,36-36l0-375.9c0.1-0.1,0.1-0.1,0.1-0.1h339.9v248c0,19.9,16.1,36,36,36h248l0,595.9c-0.1,0.1-0.1,0.1-0.1,0.1
	l-243.9,0c-19.9,0-36,16.1-36,36v0c0,19.9,16.1,36,36,36h244.1c39.6,0,72-32.4,72-72V285.7C956.1,266.7,948.6,248.4,935.1,234.9z
	 M672.1,284V73l210.3,211H672.1z M504.1,512h-368c-39.8,0-72,32.2-72,72v368c0,39.8,32.2,72,72,72h368c39.8,0,72-32.2,72-72V584
	C576.1,544.2,543.8,512,504.1,512z M512.3,656.1l-128,256c-6.1,12.3-18.6,19.9-32.2,19.9c-0.9,0-1.7,0-2.6-0.1
	c-14.5-1-27-10.7-31.6-24.5l-29.8-89.5l-29.8,89.5c-4.9,14.7-18.7,24.6-34.2,24.6s-29.3-9.9-34.2-24.6l-64-192
	c-6.3-18.9,3.9-39.2,22.8-45.5c18.9-6.3,39.2,3.9,45.5,22.8l29.8,89.5l29.8-89.5c4.9-14.7,18.7-24.6,34.2-24.6s29.3,9.9,34.2,24.6
	l36.5,109.5l89.1-178.3c8.9-17.8,30.5-25,48.3-16.1C513.9,616.7,521.1,638.3,512.3,656.1z"/>
</svg>
