<?xml version="1.0" encoding="utf-8"?>
<!-- Generator: Adobe Illustrator 21.0.2, SVG Export Plug-In . SVG Version: 6.00 Build 0)  -->
<svg version="1.1" id="图层_1" xmlns="http://www.w3.org/2000/svg" xmlns:xlink="http://www.w3.org/1999/xlink" x="0px" y="0px"
	 viewBox="0 0 1024 1024" style="enable-background:new 0 0 1024 1024;" xml:space="preserve">
<style type="text/css">
	.st0{fill:#9DA7B2;}
</style>
<path class="st0" d="M704,448c0,19.9-16.1,36-36,36H484v184c0,19.9-16.1,36-36,36s-36-16.1-36-36V484H228c-19.9,0-36-16.1-36-36
	c0-19.9,16.1-36,36-36h184V228c0-19.9,16.1-36,36-36s36,16.1,36,36v184h184C687.9,412,704,428.1,704,448z M960,255.9V888
	c0,39.6-32.4,72-72,72H255.9c-39.6,0-72-32.4-72-72v-47.9H136c-39.6,0-72-32.4-72-72V136c0-39.6,32.4-72,72-72h632.1
	c39.6,0,72,32.4,72,72v47.9H888C927.6,183.9,960,216.3,960,255.9z M136.1,768.1l631.9,0c0,0,0.1-0.1,0.1-0.1l0-631.9
	c0,0-0.1-0.1-0.1-0.1H136.1c0,0-0.1,0.1-0.1,0.1l0,631.9C136,768,136.1,768.1,136.1,768.1z M888,256c0,0-0.1-0.1-0.1-0.1h-47.7
	v512.3c0,39.6-32.4,72-72,72H255.9v47.7c0,0,0.1,0.1,0.1,0.1l631.9,0c0,0,0.1-0.1,0.1-0.1L888,256z"/>
</svg>
