<?xml version="1.0" encoding="utf-8"?>
<!-- Generator: Adobe Illustrator 22.0.0, SVG Export Plug-In . SVG Version: 6.00 Build 0)  -->
<svg version="1.1" id="图层_1" xmlns="http://www.w3.org/2000/svg" xmlns:xlink="http://www.w3.org/1999/xlink" x="0px" y="0px"
	 viewBox="0 0 1024 1024" style="enable-background:new 0 0 1024 1024;" xml:space="preserve">
<style type="text/css">
	.st0{fill:#9DA7B2;}
	.st1{fill:none;stroke:#9DA7B2;stroke-width:72;stroke-linecap:round;stroke-linejoin:round;stroke-miterlimit:10;}
	.st2{fill:none;}
</style>
<path class="st0" d="M823.2,200.9c40.4,40.4,72.2,87.5,94.3,139.9c22.9,54.2,34.6,111.8,34.6,171.3c0,8.8-0.3,17.5-0.8,26.2
	c-1.2,20.4,15.2,37.5,35.6,37.5h0.7c18.9,0,34.5-14.7,35.6-33.6c0.6-10,0.9-20,0.9-30.2c0-269.9-208.8-491-473.8-510.6
	c-20.7-1.5-38.2,14.8-38.2,35.6v0.7c0,18.7,14.5,34.2,33.2,35.6c47.7,3.5,94,14.7,138,33.3C735.7,128.7,782.7,160.4,823.2,200.9z"/>
</svg>
