<?xml version="1.0" encoding="utf-8"?>
<!-- Generator: Adobe Illustrator 22.0.0, SVG Export Plug-In . SVG Version: 6.00 Build 0)  -->
<svg version="1.1" id="图层_1" xmlns="http://www.w3.org/2000/svg" xmlns:xlink="http://www.w3.org/1999/xlink" x="0px" y="0px"
	 viewBox="0 0 1024 1025" style="enable-background:new 0 0 1024 1025;" xml:space="preserve">
<style type="text/css">
	.st0{fill:#9DA7B2;}
	.st1{fill:none;stroke:#9DA7B2;stroke-width:72;stroke-linecap:round;stroke-linejoin:round;stroke-miterlimit:10;}
	.st2{fill:none;}
</style>
<path class="st0" d="M526.4,68.2L526.4,68.2L526.4,68.2 M513.5,77.1c111,75,279.4,112.4,374.5,120.3v420.7
	c0,29.5-9.5,59.6-28.3,89.4c-17.6,28-43.3,55.3-74.2,79c-45.5,35-190.5,114-272,157.1c-96.8-50.1-234.2-124.9-272.9-156.2
	c-31.2-25.3-57.2-53.2-75-80.9C146,676.2,136,646.2,136,617.5v-420C231.1,189.6,400.6,152.2,513.5,77.1 M513.8,0.2
	c-10.3,0-20.6,3.2-29.4,9.5c-102,73.5-272.1,110.5-361.4,116.5C89.7,128.5,64,156.1,64,189.3v428.2c0,93.5,65.9,173,131.4,226
	s318.6,181.3,318.6,181.3s246.3-128,315.5-181.1C898.6,790.5,960,711.3,960,618.2V189.3c0-33.2-25.7-60.8-58.9-63.1
	C812,120.2,642.5,83.2,542.7,9.7C534.1,3.3,524,0.2,513.8,0.2L513.8,0.2z M732,476.5H548v-184c0-19.9-16.1-36-36-36s-36,16.1-36,36
	v184H292c-19.9,0-36,16.1-36,36c0,19.9,16.1,36,36,36h184v184c0,19.9,16.1,36,36,36s36-16.1,36-36v-184h184c19.9,0,36-16.1,36-36
	C768,492.6,751.9,476.5,732,476.5z"/>
</svg>
