<?xml version="1.0" encoding="utf-8"?>
<!-- Generator: Adobe Illustrator 22.0.0, SVG Export Plug-In . SVG Version: 6.00 Build 0)  -->
<svg version="1.1" id="图层_1" xmlns="http://www.w3.org/2000/svg" xmlns:xlink="http://www.w3.org/1999/xlink" x="0px" y="0px"
	 viewBox="0 0 1024 1024" style="enable-background:new 0 0 1024 1024;" xml:space="preserve">
<style type="text/css">
	.st0{fill:#9DA7B2;}
	.st1{fill:none;stroke:#9DA7B2;stroke-width:72;stroke-linecap:round;stroke-linejoin:round;stroke-miterlimit:10;}
	.st2{fill:none;}
</style>
<path class="st0" d="M510.5,0.9C228,0.9-1,230-1,512.5S228,1024,510.5,1024c282.5,0,511.5-229,511.5-511.5S793,0.9,510.5,0.9z
	 M510.5,952C267.8,952,71,755.2,71,512.5S267.8,72.9,510.5,72.9s439.5,196.8,439.5,439.5S753.3,952,510.5,952z M805.8,306.3
	l-197.4,39.5c-28.3-16.4-61.2-25.9-96.3-25.9c-106.1,0-192.1,86-192.1,192.1c0,3.6,0.1,7.2,0.3,10.8L198.1,685.7
	c-11.2,14.9,1.9,35.7,20.2,32l197.4-39.5c28.3,16.4,61.2,25.9,96.3,25.9c106.1,0,192.1-86,192.1-192.1c0-3.6-0.1-7.2-0.3-10.8
	l122.2-162.9C837.1,323.5,824,302.7,805.8,306.3z M512,617.6c-58.3,0-105.6-47.3-105.6-105.6S453.7,406.4,512,406.4
	S617.6,453.7,617.6,512S570.3,617.6,512,617.6z"/>
</svg>
