<?xml version="1.0" encoding="utf-8"?>
<!-- Generator: Adobe Illustrator 22.0.0, SVG Export Plug-In . SVG Version: 6.00 Build 0)  -->
<svg version="1.1" id="图层_1" xmlns="http://www.w3.org/2000/svg" xmlns:xlink="http://www.w3.org/1999/xlink" x="0px" y="0px"
	 viewBox="0 0 1024 1024" style="enable-background:new 0 0 1024 1024;" xml:space="preserve">
<style type="text/css">
	.st0{fill:#9DA7B2;}
	.st1{fill:none;stroke:#9DA7B2;stroke-width:72;stroke-linecap:round;stroke-linejoin:round;stroke-miterlimit:10;}
	.st2{fill:none;}
</style>
<path class="st0" d="M896,428v40c0,6.6-5.4,12-12,12h-40c-6.6,0-12-5.4-12-12v-40c0-6.6,5.4-12,12-12h40
	C890.6,416,896,421.4,896,428z M1024,365v399c0,19.9-16.1,36-36,36H768v120c0,39.6-32.4,72-72,72H328c-39.6,0-72-32.4-72-72V800H36
	c-19.9,0-36-16.1-36-36V365c0-42.5,34.5-77,77-77h179V104c0-39.6,32.4-72,72-72h368c39.6,0,72,32.4,72,72v184h179
	C989.5,288,1024,322.5,1024,365z M328,288h368l0-183.9c0,0-0.1-0.1-0.1-0.1H328.1c0,0-0.1,0.1-0.1,0.1L328,288z M696,552.1
	c0,0-0.1-0.1-0.1-0.1H328.1c0,0-0.1,0.1-0.1,0.1l0,367.7c0,0,0.1,0.1,0.1,0.1l367.7,0c0,0,0.1-0.1,0.1-0.1L696,552.1z M952,365
	c0-2.7-2.2-5-5-5H77c-2.7,0-5,2.2-5,5v363h184V552c0-39.6,32.4-72,72-72h368c39.6,0,72,32.4,72,72v176h184V365z"/>
</svg>
