<?xml version="1.0" encoding="utf-8"?>
<!-- Generator: Adobe Illustrator 22.0.0, SVG Export Plug-In . SVG Version: 6.00 Build 0)  -->
<svg version="1.1" id="图层_1" xmlns="http://www.w3.org/2000/svg" xmlns:xlink="http://www.w3.org/1999/xlink" x="0px" y="0px"
	 viewBox="0 0 1024 1024" style="enable-background:new 0 0 1024 1024;" xml:space="preserve">
<style type="text/css">
	.st0{fill:#9DA7B2;}
	.st1{fill:none;stroke:#9DA7B2;stroke-width:72;stroke-linecap:round;stroke-linejoin:round;stroke-miterlimit:10;}
	.st2{fill:none;}
</style>
<path class="st0" d="M1024,734.5c0,19.9-16.1,36-36,36h-89.8v89.8c0,19.9-16.1,36-36,36s-36-16.1-36-36v-89.8h-89.8
	c-19.9,0-36-16.1-36-36s16.1-36,36-36h89.8v-89.8c0-19.9,16.1-36,36-36s36,16.1,36,36v89.8H988C1007.9,698.5,1024,714.7,1024,734.5z
	 M642,860.3L642,860.3c0,19.9-16.1,36-36,36H72c-39.8,0-72-32.2-72-72v-540v-28v-92c0-19.9,16.1-36,36-36h450.1
	c15.5,0,29.3,9.9,34.2,24.6l34.5,103.4H952c39.8,0,72,32.2,72,72v148c0,19.9-16.1,36-36,36h0c-19.9,0-36-16.1-36-36v-148H72v496h534
	C625.9,824.3,642,840.4,642,860.3z M72,256.3h407.1l-19-56H72V256.3z"/>
</svg>
