<?xml version="1.0" encoding="utf-8"?>
<!-- Generator: Adobe Illustrator 22.0.0, SVG Export Plug-In . SVG Version: 6.00 Build 0)  -->
<svg version="1.1" id="图层_1" xmlns="http://www.w3.org/2000/svg" xmlns:xlink="http://www.w3.org/1999/xlink" x="0px" y="0px"
	 viewBox="0 0 1024 1024" style="enable-background:new 0 0 1024 1024;" xml:space="preserve">
<style type="text/css">
	.st0{fill:#9DA7B2;}
	.st1{fill:none;stroke:#9DA7B2;stroke-width:72;stroke-linecap:round;stroke-linejoin:round;stroke-miterlimit:10;}
	.st2{fill:none;}
</style>
<path class="st0" d="M933.1,234.9l-213-213.7C706.6,7.6,688.3,0,669.1,0h-411c-39.6,0-72,32.4-72,72v376c0,19.9,16.1,36,36,36h0
	c19.9,0,36-16.1,36-36l0-375.9c0.1-0.1,0.1-0.1,0.1-0.1h339.9v248c0,19.9,16.1,36,36,36h248l0,595.9c-0.1,0.1-0.1,0.1-0.1,0.1
	l-243.9,0c-19.9,0-36,16.1-36,36v0c0,19.9,16.1,36,36,36h244.1c39.6,0,72-32.4,72-72V285.7C954.1,266.7,946.6,248.4,933.1,234.9z
	 M670.1,284V73l210.3,211H670.1z M502.1,512h-368c-39.8,0-72,32.2-72,72v368c0,39.8,32.2,72,72,72h368c39.8,0,72-32.2,72-72V584
	C574.1,544.2,541.8,512,502.1,512z M479.9,633.6L359.5,774.9L415.5,917c7.3,18.5-1.8,39.4-20.3,46.7c-4.3,1.7-8.8,2.5-13.2,2.5
	c-14.4,0-27.9-8.6-33.5-22.8l-42-106.5L211,949.1c-7.1,8.4-17.2,12.6-27.4,12.6c-8.3,0-16.6-2.8-23.3-8.6
	c-15.1-12.9-16.9-35.6-4-50.8l120.5-141.3L220.6,619c-7.3-18.5,1.8-39.4,20.3-46.7c18.5-7.3,39.4,1.8,46.7,20.3l42,106.5l95.6-112.1
	c12.9-15.1,35.6-16.9,50.8-4S492.8,618.5,479.9,633.6z"/>
</svg>
