<?xml version="1.0" encoding="utf-8"?>
<!-- Generator: Adobe Illustrator 22.0.0, SVG Export Plug-In . SVG Version: 6.00 Build 0)  -->
<svg version="1.1" id="图层_1" xmlns="http://www.w3.org/2000/svg" xmlns:xlink="http://www.w3.org/1999/xlink" x="0px" y="0px"
	 viewBox="0 0 1024 1024" style="enable-background:new 0 0 1024 1024;" xml:space="preserve">
<style type="text/css">
	.st0{fill:#9DA7B2;}
	.st1{fill:none;stroke:#9DA7B2;stroke-width:72;stroke-linecap:round;stroke-linejoin:round;stroke-miterlimit:10;}
	.st2{fill:none;}
</style>
<path class="st0" d="M446.1,932c-2,0-4-0.2-6-0.5c-19.6-3.3-32.9-21.8-29.6-41.4l128-768c3.3-19.6,21.8-32.9,41.4-29.6
	c19.6,3.3,32.9,21.8,29.6,41.4l-128,768C478.6,919.5,463.4,932,446.1,932z M315.5,793.5c14.1-14,14.1-36.8,0.1-50.9L86.7,512.9
	l228.9-231.6c14-14.1,13.8-36.9-0.3-50.9c-14.1-14-36.9-13.8-50.9,0.3l-254.1,257c-13.9,14.1-13.9,36.7,0.1,50.7l254.1,255
	c7,7.1,16.3,10.6,25.5,10.6C299.2,804,308.4,800.5,315.5,793.5z M733.9,804c9.2,0,18.5-3.5,25.5-10.6l254.1-255
	c14-14,14-36.7,0.1-50.7l-254.1-257c-14-14.1-36.8-14.3-50.9-0.3c-14.1,14-14.3,36.8-0.3,50.9l228.9,231.6L708.4,742.6
	c-14,14.1-14,36.9,0.1,50.9C715.6,800.5,724.8,804,733.9,804z"/>
</svg>
