<?xml version="1.0" encoding="utf-8"?>
<!-- Generator: Adobe Illustrator 22.0.0, SVG Export Plug-In . SVG Version: 6.00 Build 0)  -->
<svg version="1.1" id="图层_1" xmlns="http://www.w3.org/2000/svg" xmlns:xlink="http://www.w3.org/1999/xlink" x="0px" y="0px"
	 viewBox="0 0 1024 1024" style="enable-background:new 0 0 1024 1024;" xml:space="preserve">
<style type="text/css">
	.st0{fill:#9DA7B2;}
	.st1{fill:none;stroke:#9DA7B2;stroke-width:72;stroke-linecap:round;stroke-linejoin:round;stroke-miterlimit:10;}
	.st2{fill:none;}
</style>
<path class="st0" d="M791.9,821.5l-128,128c-0.1,0.1-0.2,0.2-0.3,0.3c-0.2,0.2-0.3,0.3-0.5,0.5c-0.5,0.5-1,0.9-1.5,1.3
	c-0.1,0.1-0.2,0.2-0.3,0.2c-0.6,0.5-1.3,1-1.9,1.5c-0.1,0.1-0.2,0.1-0.3,0.2c-1.4,1-2.9,1.9-4.4,2.6c0,0,0,0,0,0
	c-3.4,1.7-7,2.9-10.7,3.4c-0.1,0-0.2,0-0.3,0c-0.3,0-0.7,0.1-1,0.1c-0.2,0-0.5,0.1-0.7,0.1c-0.1,0-0.2,0-0.3,0
	c-1,0.1-2.1,0.1-3.1,0.1c-0.5,0-1,0-1.5,0c-0.1,0-0.2,0-0.3,0c-0.2,0-0.4,0-0.6,0c-0.4,0-0.8,0-1.2-0.1c0,0-0.1,0-0.1,0
	c-7.4-0.7-14.6-3.8-20.5-9.1c-0.4-0.4-0.9-0.8-1.3-1.3l-128-128c-14.1-14.1-14.1-36.9,0-50.9c14.1-14.1,36.9-14.1,50.9,0l66.5,66.5
	V540c0-19.9,16.1-36,36-36s36,16.1,36,36v297.1l66.5-66.5c14.1-14.1,36.9-14.1,50.9,0C805.9,784.6,805.9,807.4,791.9,821.5z
	 M859.6,400.7c4.6-84.5-38.5-141-85.5-167.4c-26-14.6-54.7-21.7-83.5-21.7c-31.4,0-63,8.4-91.8,24.7c-36.1-50.4-82-85.8-134.7-103.6
	c-25.2-8.5-51.4-12.8-77.6-12.8c-36.1,0-72.2,8-106,23.9C186.9,187.7,117.1,292,146.2,415.7C21.4,471.7-11.2,577,0.7,655.9
	C16.1,757.3,98,830.8,195.5,830.8c3.3,0,95.6,0.3,214.9,0.6c19.9,0,36.1-16.1,36.1-36v0c0-19.8-16.1-36-35.9-36
	c-116.3-0.3-207.1-0.6-214.6-0.6l-0.2,0c-0.1,0-0.1,0-0.2,0c-14.9,0-29.4-2.7-43.1-8.1c-13.5-5.3-25.9-13-36.9-22.9
	c-23.1-20.8-38.6-50.1-43.5-82.7c-2.5-16.5-4-49.5,14.3-84.9c17.2-33.4,47.3-59.9,89.5-78.8c31.5-14.1,48.5-48.6,40.6-82.2
	c-5-21.1-6-42-3.2-62c2.6-18.5,8.5-36.4,17.6-53.1c17.6-32.4,46.1-59,80.4-75.1c24.2-11.3,49.5-17.1,75.5-17.1c18.6,0,37,3,54.6,9
	c38.3,12.9,71.7,39,99.2,77.3c14,19.5,36,30,58.6,30c12,0,24.2-3,35.3-9.3c17.8-10.1,37.3-15.4,56.4-15.4c17.3,0,33.5,4.2,48.3,12.5
	c14.1,7.9,26.5,20.3,34.9,34.9c10.7,18.6,15.4,40.9,13.9,66.2c-1.9,33.1,19.7,62.8,51.4,72.4c38.9,11.8,68.5,33.3,87.9,63.9
	c16.9,26.7,25,58.8,22.7,90.5c-2.5,34.6-17.6,68.3-41.6,92.4c-13.1,13.2-28.9,23.6-46.7,30.8c-2.5,1-5.1,2-7.7,2.9
	c-14.5,5-24.3,18.7-24.3,34v0c0,24.8,24.4,42.1,47.8,34c91.5-31.6,138.7-112.6,144.2-189C1027.9,540.1,979.2,436.7,859.6,400.7z"/>
</svg>
