<?xml version="1.0" encoding="utf-8"?>
<!-- Generator: Adobe Illustrator 22.0.0, SVG Export Plug-In . SVG Version: 6.00 Build 0)  -->
<svg version="1.1" id="图层_1" xmlns="http://www.w3.org/2000/svg" xmlns:xlink="http://www.w3.org/1999/xlink" x="0px" y="0px"
	 viewBox="0 0 1024 1024" style="enable-background:new 0 0 1024 1024;" xml:space="preserve">
<style type="text/css">
	.st0{fill:#9DA7B2;}
	.st1{fill:none;stroke:#9DA7B2;stroke-width:72;stroke-linecap:round;stroke-linejoin:round;stroke-miterlimit:10;}
	.st2{fill:none;}
</style>
<path class="st0" d="M935.1,234.9l-213-213.7C708.6,7.6,690.2,0,671.1,0h-411c-39.6,0-72,32.4-72,72v376c0,19.9,16.1,36,36,36h0
	c19.9,0,36-16.1,36-36l0-375.9c0.1-0.1,0.1-0.1,0.1-0.1h339.9v248c0,19.9,16.1,36,36,36h248l0,595.9c-0.1,0.1-0.1,0.1-0.1,0.1
	L640,952c-19.9,0-36,16.1-36,36v0c0,19.9,16.1,36,36,36h244.1c39.6,0,72-32.4,72-72V285.7C956.1,266.7,948.5,248.4,935.1,234.9z
	 M672.1,284V73l210.3,211H672.1z M383.3,648h0.7C384,648,383.8,648,383.3,648z M384,768h-0.7C383.8,768,384,768,384,768z M504,512
	H136c-39.8,0-72,32.2-72,72v368c0,39.8,32.2,72,72,72h368c39.8,0,72-32.2,72-72V584C576,544.2,543.8,512,504,512z M437.6,820.8
	C413.2,839.1,388.7,840,384,840H228v91.3c0,18.6-15.2,35.5-33.8,36.6c-20.9,1.3-38.2-15.3-38.2-35.9V612c0-19.9,16.1-36,36-36h192
	c4.7,0,29.2,0.9,53.6,19.2C458.8,611.1,484,643.5,484,708S458.8,804.9,437.6,820.8z M412,708c0,25.4-5.6,44.5-15.7,53.6
	c-5.8,5.2-11.9,6.2-13.2,6.4H228V648h155.1c1.4,0.2,7.5,1.2,13.2,6.4C406.4,663.5,412,682.6,412,708z"/>
</svg>
