<?xml version="1.0" encoding="utf-8"?>
<!-- Generator: Adobe Illustrator 22.0.0, SVG Export Plug-In . SVG Version: 6.00 Build 0)  -->
<svg version="1.1" id="图层_1" xmlns="http://www.w3.org/2000/svg" xmlns:xlink="http://www.w3.org/1999/xlink" x="0px" y="0px"
	 viewBox="0 0 1024 1024" style="enable-background:new 0 0 1024 1024;" xml:space="preserve">
<style type="text/css">
	.st0{fill:#9DA7B2;}
	.st1{fill:none;stroke:#9DA7B2;stroke-width:72;stroke-linecap:round;stroke-linejoin:round;stroke-miterlimit:10;}
	.st2{fill:none;}
</style>
<path class="st0" d="M864.8,712.9h-24.5V453.2c0-151.3-102.9-279-242.3-316.8c4.7-11.2,7.2-23.4,7.2-35.9c0-3.1-0.2-6.2-0.5-9.3
	c-4.4-43.9-39.4-78.9-83.3-83.3c-3.1-0.3-6.2-0.5-9.3-0.5c-24.9,0-48.2,9.7-65.8,27.3c-17.6,17.6-27.3,41-27.3,65.8
	c0,3.1,0.2,6.2,0.5,9.3c0.9,9.3,3.3,18.3,6.7,26.6c-139.5,37.8-242.4,165.6-242.4,316.9v259.7h-24.5c-51.3,0-93.1,41.8-93.1,93.1
	c0,51.3,41.8,93.1,93.1,93.1H358l20.1,37.5c26.5,49.4,77.8,80.1,133.9,80.1v-63.5l0,0v63.5c56,0,107.3-30.7,133.8-80.1L666,899
	h198.8c51.3,0,93.1-41.8,93.1-93.1C957.8,754.7,916.1,712.9,864.8,712.9z M514.2,79.5c9.9,1,17.8,9,18.8,18.8
	c1.3,13.3-9.8,24.4-23.1,23.1c-9.9-1-17.8-9-18.8-18.8C489.7,89.3,500.9,78.2,514.2,79.5z M255.8,453.2
	c0-141.3,115-256.2,256.2-256.2c141.3,0,256.2,115,256.2,256.2v256.2H255.8V453.2z M512.1,944.6L512,953L512.1,944.6h-0.1
	c-29.7,0-56.6-16.5-70.4-42.1h140.9C568.7,928.1,541.7,944.6,512.1,944.6z M864.8,827H159.2c-11.6,0-21.1-9.5-21.1-21.1
	c0-11.6,9.5-21.1,21.1-21.1h705.5c11.6,0,21.1,9.5,21.1,21.1C885.8,817.6,876.4,827,864.8,827z"/>
</svg>
