<?xml version="1.0" encoding="utf-8"?>
<!-- Generator: Adobe Illustrator 22.0.0, SVG Export Plug-In . SVG Version: 6.00 Build 0)  -->
<svg version="1.1" id="图层_1" xmlns="http://www.w3.org/2000/svg" xmlns:xlink="http://www.w3.org/1999/xlink" x="0px" y="0px"
	 viewBox="0 0 1024 1025" style="enable-background:new 0 0 1024 1025;" xml:space="preserve">
<style type="text/css">
	.st0{fill:#9DA7B2;}
	.st1{fill:none;stroke:#9DA7B2;stroke-width:72;stroke-linecap:round;stroke-linejoin:round;stroke-miterlimit:10;}
	.st2{fill:none;}
</style>
<path class="st0" d="M977,647.2h-47.6c0.4-2.2,0.6-4.4,0.6-6.7v-128c0-19.9-16.1-36-36-36h-348v-92c0-2.3-0.2-4.5-0.6-6.7h55
	c24.8,0,45-20.2,45-45V109.5c0-24.8-20.2-45-45-45H423.5c-24.8,0-45,20.2-45,45v223.2c0,24.8,20.2,45,45,45h51.1
	c-0.4,2.2-0.6,4.4-0.6,6.7v92h-348c-19.9,0-36,16.1-36,36v128c0,2.3,0.2,4.5,0.6,6.7H43.1c-24.8,0-45,20.2-45,45v223.2
	c0,24.8,20.2,45,45,45H220c24.8,0,45-20.2,45-45V692.2c0-24.8-20.2-45-45-45h-58.6c0.4-2.2,0.6-4.4,0.6-6.7v-92h312v92
	c0,2.3,0.2,4.5,0.6,6.7h-51.1c-24.8,0-45,20.2-45,45v223.2c0,24.8,20.2,45,45,45h176.9c24.8,0,45-20.2,45-45V692.2
	c0-24.8-20.2-45-45-45h-55c0.4-2.2,0.6-4.4,0.6-6.7v-92h312v92c0,2.3,0.2,4.5,0.6,6.7h-58.6c-24.8,0-45,20.2-45,45v223.2
	c0,24.8,20.2,45,45,45H977c24.8,0,45-20.2,45-45V692.2C1022.1,667.4,1001.8,647.2,977,647.2z M450.5,136.5h123v169.3h-123V136.5z
	 M193.1,888.5h-123V719.2h123V888.5z M573.5,888.5h-123V719.2h123V888.5z M950.1,888.5h-123V719.2h123V888.5z"/>
</svg>
