<?xml version="1.0" encoding="utf-8"?>
<!-- Generator: Adobe Illustrator 22.0.0, SVG Export Plug-In . SVG Version: 6.00 Build 0)  -->
<svg version="1.1" id="图层_1" xmlns="http://www.w3.org/2000/svg" xmlns:xlink="http://www.w3.org/1999/xlink" x="0px" y="0px"
	 viewBox="0 0 1024 1024" style="enable-background:new 0 0 1024 1024;" xml:space="preserve">
<style type="text/css">
	.st0{fill:#9DA7B2;}
	.st1{fill:none;stroke:#9DA7B2;stroke-width:72;stroke-linecap:round;stroke-linejoin:round;stroke-miterlimit:10;}
	.st2{fill:none;}
</style>
<path class="st0" d="M511.9,804c-90.7,0-176-24.7-260.6-75.7c-75.1-45.2-141.2-105.9-201.4-164.7C35.8,549.8,28,531.5,28,512
	s7.8-37.8,21.9-51.6c60.2-58.9,126.3-119.5,201.4-164.7c84.6-50.9,169.9-75.7,260.6-75.7c90.8,0,176.2,24.7,261,75.7
	c76,45.6,141.7,106.2,201.4,164.8c14,13.8,21.7,32.1,21.7,51.5s-7.7,37.7-21.7,51.5c-59.7,58.6-125.4,119.2-201.4,164.8
	C688.1,779.3,602.8,804,511.9,804z M100.1,512c0,0,0.1,0.1,0.1,0.1C214.1,623.4,339.7,732,511.9,732
	c173.6,0,298.7-108.6,411.9-219.8c0.1-0.1,0.1-0.1,0.2-0.2c0,0-0.1-0.1-0.2-0.2C810.6,400.6,685.5,292,511.9,292
	c-172.3,0-297.9,108.6-411.7,219.9C100.1,511.9,100.1,512,100.1,512z M924,512.1L924,512.1L924,512.1z M924,511.9L924,511.9
	L924,511.9z M512,676c-90.4,0-164-73.6-164-164s73.6-164,164-164s164,73.6,164,164S602.4,676,512,676z M512,420
	c-50.7,0-92,41.3-92,92s41.3,92,92,92s92-41.3,92-92S562.7,420,512,420z"/>
</svg>
