<?xml version="1.0" encoding="utf-8"?>
<!-- Generator: Adobe Illustrator 22.0.0, SVG Export Plug-In . SVG Version: 6.00 Build 0)  -->
<svg version="1.1" id="图层_1" xmlns="http://www.w3.org/2000/svg" xmlns:xlink="http://www.w3.org/1999/xlink" x="0px" y="0px"
	 viewBox="0 0 1024 1025" style="enable-background:new 0 0 1024 1025;" xml:space="preserve">
<style type="text/css">
	.st0{fill:#9DA7B2;}
	.st1{fill:none;stroke:#9DA7B2;stroke-width:72;stroke-linecap:round;stroke-linejoin:round;stroke-miterlimit:10;}
	.st2{fill:none;}
</style>
<path class="st0" d="M896,416.5c0-206-162.3-374.1-365.9-383.6C296.4,22.1,114.4,207,128.8,440.5c5.6,90,42.1,171.5,99,234.2
	l285.7,317.8c0,0,279.8-314.7,279.8-314.7l0,0C857.1,609.3,896,517.4,896,416.5z M513.3,879.9L281.1,623.2
	c-46.3-50.6-76-116.5-80.5-189.1c-11.7-188.6,136.2-337.9,326-329.2C692.2,112.5,824,248.3,824,414.6c0,81.5-31.6,155.7-83.4,211h0
	L513.3,879.9z M512,254c-79,0-143,64-143,143s64,143,143,143s143-64,143-143S591,254,512,254z M512,468c-39.2,0-71-31.8-71-71
	s31.8-71,71-71s71,31.8,71,71S551.2,468,512,468z"/>
</svg>
