<?xml version="1.0" encoding="utf-8"?>
<!-- Generator: Adobe Illustrator 22.0.0, SVG Export Plug-In . SVG Version: 6.00 Build 0)  -->
<svg version="1.1" id="图层_1" xmlns="http://www.w3.org/2000/svg" xmlns:xlink="http://www.w3.org/1999/xlink" x="0px" y="0px"
	 viewBox="0 0 1024 1024" style="enable-background:new 0 0 1024 1024;" xml:space="preserve">
<style type="text/css">
	.st0{fill:#9DA7B2;}
	.st1{fill:none;stroke:#9DA7B2;stroke-width:72;stroke-linecap:round;stroke-linejoin:round;stroke-miterlimit:10;}
	.st2{fill:none;}
</style>
<path class="st0" d="M708.5,471c37.4-35.2,61.5-89.9,61.5-151c0-105.6-72-192-160-192h-19.2H482H278.8c-39.8,0-72,32.2-72,72v248v64
	v312c0,39.8,32.2,72,72,72h152h160h17.4c123.7,0,226.4-101.2,225.8-225C833.6,583.5,782.4,507.5,708.5,471z M278.8,200H482h108.8
	H610c28.1,0,48.2,19.1,57.7,30.5C687,253.6,698,286.2,698,320s-11,66.4-30.3,89.5c-9.5,11.4-29.6,30.5-57.7,30.5h-19.2H482H278.8
	V200z M717.3,779.3C688.5,808.1,650.4,824,610,824h-19.2h-160h-152V520h152h160H610c40.4,0,78.5,15.9,107.3,44.7
	C746.1,593.5,762,631.6,762,672S746.1,750.5,717.3,779.3z"/>
</svg>
