<?xml version="1.0" encoding="utf-8"?>
<!-- Generator: Adobe Illustrator 22.0.0, SVG Export Plug-In . SVG Version: 6.00 Build 0)  -->
<svg version="1.1" id="图层_1" xmlns="http://www.w3.org/2000/svg" xmlns:xlink="http://www.w3.org/1999/xlink" x="0px" y="0px"
	 viewBox="0 0 1024 1024" style="enable-background:new 0 0 1024 1024;" xml:space="preserve">
<style type="text/css">
	.st0{fill:#9DA7B2;}
	.st1{fill:none;stroke:#9DA7B2;stroke-width:72;stroke-linecap:round;stroke-linejoin:round;stroke-miterlimit:10;}
	.st2{fill:none;}
</style>
<path class="st0" d="M509.5,0.9C227,0.9-2,230-2,512.5S227,1024,509.5,1024c282.5,0,511.5-229,511.5-511.5S792,0.9,509.5,0.9z
	 M382,384c0,35.3-28.7,64-64,64s-64-28.7-64-64s28.7-64,64-64S382,348.7,382,384z M766,384c0,35.3-28.7,64-64,64s-64-28.7-64-64
	s28.7-64,64-64S766,348.7,766,384z M735.5,594.5C784.5,643.6,802,701.9,802,740c0,19.9-16.1,36-36,36s-36-16.1-36-36
	c0-24.4-14.1-63.1-45.5-94.5C644.3,605.3,584,584,510,584s-134.3,21.3-174.5,61.5C304.1,676.9,290,715.6,290,740
	c0,19.9-16.1,36-36,36s-36-16.1-36-36c0-38.1,17.5-96.4,66.5-145.5C322.2,556.9,391.9,512,510,512S697.8,556.9,735.5,594.5z"/>
</svg>
