<?xml version="1.0" encoding="utf-8"?>
<!-- Generator: Adobe Illustrator 22.0.0, SVG Export Plug-In . SVG Version: 6.00 Build 0)  -->
<svg version="1.1" id="图层_1" xmlns="http://www.w3.org/2000/svg" xmlns:xlink="http://www.w3.org/1999/xlink" x="0px" y="0px"
	 viewBox="0 0 1024 1024" style="enable-background:new 0 0 1024 1024;" xml:space="preserve">
<style type="text/css">
	.st0{fill:#9DA7B2;}
	.st1{fill:none;stroke:#9DA7B2;stroke-width:72;stroke-linecap:round;stroke-linejoin:round;stroke-miterlimit:10;}
	.st2{fill:none;}
</style>
<path class="st0" d="M939,234.9L726,21.2C712.5,7.6,694.2,0,675,0H264c-39.6,0-72,32.4-72,72v376c0,19.9,16.1,36,36,36h0
	c19.9,0,36-16.1,36-36l0-375.9c0.1-0.1,0.1-0.1,0.1-0.1H604v248c0,19.9,16.1,36,36,36h248l0,595.9c-0.1,0.1-0.1,0.1-0.1,0.1
	l-243.9,0c-19.9,0-36,16.1-36,36v0c0,19.9,16.1,36,36,36H888c39.6,0,72-32.4,72-72V285.7C960,266.7,952.4,248.4,939,234.9z M676,284
	V73l210.3,211H676z M504,512H136c-39.8,0-72,32.2-72,72v368c0,39.8,32.2,72,72,72h368c39.8,0,72-32.2,72-72V584
	C576,544.2,543.8,512,504,512z M488.7,930.9c-19.3,4.8-38.8-6.9-43.7-26.2l-40.4-161.6l-84.5,169c-6.5,13-20.2,20.8-34.8,19.8
	c-14.5-1-27-10.7-31.6-24.5L224,817.8l-29.8,89.5c-5,15.1-19.1,24.6-34.1,24.6c-3.8,0-7.6-0.6-11.4-1.9
	c-18.9-6.3-29.1-26.7-22.8-45.5l64-192c4.9-14.7,18.7-24.6,34.2-24.6s29.3,9.9,34.2,24.6l36.5,109.5l89.1-178.3
	c6.7-13.5,21.1-21.3,36.1-19.7c15,1.6,27.3,12.4,31,27.1l64,256C519.7,906.6,508,926.1,488.7,930.9z"/>
</svg>
