<?xml version="1.0" encoding="utf-8"?>
<!-- Generator: Adobe Illustrator 21.0.2, SVG Export Plug-In . SVG Version: 6.00 Build 0)  -->
<svg version="1.1" id="图层_1" xmlns="http://www.w3.org/2000/svg" xmlns:xlink="http://www.w3.org/1999/xlink" x="0px" y="0px"
	 viewBox="0 0 1024 1024" style="enable-background:new 0 0 1024 1024;" xml:space="preserve">
<style type="text/css">
	.st0{fill:#9DA7B2;}
</style>
<path class="st0" d="M64,164c0-19.9,16.1-36,36-36h312c19.9,0,36,16.1,36,36s-16.1,36-36,36H100C80.1,200,64,183.9,64,164z M100,432
	h312c19.9,0,36-16.1,36-36s-16.1-36-36-36H100c-19.9,0-36,16.1-36,36S80.1,432,100,432z M100,664h824c19.9,0,36-16.1,36-36
	s-16.1-36-36-36H100c-19.9,0-36,16.1-36,36S80.1,664,100,664z M100,896h824c19.9,0,36-16.1,36-36s-16.1-36-36-36H100
	c-19.9,0-36,16.1-36,36S80.1,896,100,896z M948.6,500.6c-14.1,14.1-36.9,14.1-50.9,0L767.6,370.5L637.5,500.6
	c-14.1,14.1-36.9,14.1-50.9,0s-14.1-36.9,0-50.9l130.1-130.1L586.5,189.5c-14.1-14.1-14.1-36.9,0-50.9c14.1-14.1,36.9-14.1,50.9,0
	l130.1,130.1l130.1-130.1c14.1-14.1,36.9-14.1,50.9,0c14.1,14.1,14.1,36.9,0,50.9L818.5,319.6l130.1,130.1
	C962.6,463.7,962.6,486.5,948.6,500.6z"/>
</svg>
