<?xml version="1.0" encoding="utf-8"?>
<!-- Generator: Adobe Illustrator 21.0.2, SVG Export Plug-In . SVG Version: 6.00 Build 0)  -->
<svg version="1.1" id="图层_1" xmlns="http://www.w3.org/2000/svg" xmlns:xlink="http://www.w3.org/1999/xlink" x="0px" y="0px"
	 viewBox="0 0 1024 1025" style="enable-background:new 0 0 1024 1025;" xml:space="preserve">
<style type="text/css">
	.st0{fill:#9DA7B2;}
	.st1{fill:none;}
</style>
<path class="st0" d="M479.7,968.1c-50.1,0-99.5-8.2-146.8-24.3c-48.5-16.5-93.7-41-134.2-72.7C35.2,743.1-20.9,520.7,62.1,330.4
	C134.5,164.2,298.4,56.9,479.5,56.9c23.9,0,48.1,1.9,71.8,5.7c199.5,31.7,353.6,190.8,380,389.8l10.5-10.5
	c6.4-6.2,14.9-9.6,23.9-9.6c9.2,0,17.8,3.6,24.3,10.1c13.2,13.2,13.3,34.7,0.4,48.1L915.8,565c-6.4,6.4-15.2,10.1-24.3,10.1
	c-9.1,0-17.9-3.7-24.3-10.1l-74.5-74.5c-12.9-13.4-12.7-35,0.4-48.1c6.5-6.5,15.1-10.1,24.3-10.1c8.9,0,17.4,3.4,23.8,9.6l22.4,22.4
	c-20.9-167.2-147.7-302.3-315.2-332.5c-22.7-4.1-45.9-6.2-68.9-6.2c-151.5,0-289.8,89.3-352.4,227.4
	c-73.2,161.8-27.3,352,111.7,462.5c68.2,54.2,153.7,84,240.8,84c85.7,0,166.9-27.5,235-79.5c6-4.6,13.3-7.1,20.9-7.1
	c10.8,0,20.7,4.9,27.3,13.5c11.5,15,8.6,36.6-6.4,48.1c-40.1,30.7-84.7,54.3-132.4,70.2C577.4,960.3,528.9,968.1,479.7,968.1
	C479.7,968.1,479.7,968.1,479.7,968.1z"/>
</svg>
